<svg xmlns="http://www.w3.org/2000/svg" viewBox="0 0 16 16">
  <defs id="defs3051">
    <style type="text/css" id="current-color-scheme">
      .ColorScheme-Text {
        color:#232629;
      }
      </style>
  </defs>
    <path 
        style="fill:currentColor"
        d="M 5 2 L 5 4 L 5 10.3 C 4.705 10.1 4.4 10 4 10 C 2.9 10 2 10.9 2 12 C 2 13.1 2.9 14 4 14 C 5.1 14 6 13.1 6 12 L 6 6 L 13 6 L 13 8.3 C 12.705 8.1 12.4 8 12 8 C 10.9 8 10 8.9 10 10 C 10 11.1 10.9 12 12 12 C 13.1 12 14 11.1 14 10 L 14 2 L 5 2 z M 6 4 L 13 4 L 13 5 L 6 5 L 6 4 z " 
        class="ColorScheme-Text"/>
</svg>
