<svg xmlns="http://www.w3.org/2000/svg" viewBox="0 0 16 16">
  <defs id="defs3051">
    <style type="text/css" id="current-color-scheme">
      .ColorScheme-Text {
        color:#232629;
      }
      </style>
  </defs>
 <path style="fill:currentColor"
       d="M 5 2 A 1 1 0 0 0 4 3 A 1 1 0 0 0 5 4 A 1 1 0 0 0 6 3 A 1 1 0 0 0 5 2 z M 10 2 L 8.5 3.5 L 11 6 L 8.5 8.5 L 10 10 L 14 6 L 10 2 z M 3.25 6.5 A 1.25 1.25 0 0 0 2 7.75 A 1.25 1.25 0 0 0 3.25 9 A 1.25 1.25 0 0 0 4.5 7.75 A 1.25 1.25 0 0 0 3.25 6.5 z M 6.5 11 A 1.5 1.5 0 0 0 5 12.5 A 1.5 1.5 0 0 0 6.5 14 A 1.5 1.5 0 0 0 8 12.5 A 1.5 1.5 0 0 0 6.5 11 z "
       class="ColorScheme-Text"
       />
</svg>
