<svg xmlns="http://www.w3.org/2000/svg" viewBox="0 0 96 96">
  <defs id="defs3051">
    <style type="text/css" id="current-color-scheme">
      .ColorScheme-Text {
        color:#232629;
      }
      .ColorScheme-Highlight {
        color:#3daee9;
      }
      </style>
  </defs>
 <path 
     style="fill:currentColor" 
     d="M 6 9 L 6 30 L 5 30 L 5 87 L 91 87 L 91 24 L 90 24 L 90 15 L 48 15 L 42 9 L 6 9 z "
     class="ColorScheme-Highlight"
     />
 <path 
     style="fill-opacity:0.33"
     d="M 6 9 L 6 30 L 33 30 L 39 24 L 90 24 L 90 15 L 48 15 L 42 9 L 6 9 z "
     />
 <path 
     style="fill:#ffffff;fill-opacity:0.2"
     d="M 42 9 L 47 16 L 90 16 L 90 15 L 48 15 L 42 9 z M 39 24 L 33 30 L 5 30 L 5 31 L 34 31 L 39 24 z "
     />
 <path 
     style="fill-opacity:0.2;fill-rule:evenodd"
     d="M 39 24 L 32 29 L 6 29 L 6 30 L 33 30 L 39 24 z M 5 86 L 5 87 L 91 87 L 91 86 L 5 86 z "
     class="ColorScheme-Text"
     />
 <path 
     style="fill:currentColor;fill-opacity:0.6;stroke:none"  
     d="M 53 41 L 49.4 44.5 L 56 51 L 49.4 57.5 L 53 61 L 63 51 L 53 41 z M 40 42 A 2 2 0 0 0 38 44 A 2 2 0 0 0 40 46 A 2 2 0 0 0 42 44 A 2 2 0 0 0 40 42 A 2 2 0 0 0 40 42 z M 35.5 53 A 2.5 2.5 0 0 0 33 55.5 A 2.5 2.5 0 0 0 35.5 58 A 2.5 2.5 0 0 0 38 55.5 A 2.5 2.5 0 0 0 35.5 53 z M 45 63 A 4 4 0 0 0 41 67 A 4 4 0 0 0 45 71 A 4 4 0 0 0 49 67 A 4 4 0 0 0 45 63 A 4 4 0 0 0 45 63 z "
     class="ColorScheme-Text"
     />
</svg>
