<svg xmlns="http://www.w3.org/2000/svg" viewBox="0 0 96 96">
  <defs id="defs3051">
    <style type="text/css" id="current-color-scheme">
      .ColorScheme-Text {
        color:#232629;
      }
      .ColorScheme-Highlight {
        color:#3daee9;
      }
      </style>
  </defs>
 <path 
     style="fill:currentColor" 
     d="M 6 9 L 6 30 L 5 30 L 5 87 L 91 87 L 91 24 L 90 24 L 90 15 L 48 15 L 42 9 L 6 9 z "
     class="ColorScheme-Highlight"
     />
 <path 
     style="fill-opacity:0.33"
     d="M 6 9 L 6 30 L 33 30 L 39 24 L 90 24 L 90 15 L 48 15 L 42 9 L 6 9 z "
     />
 <path 
     style="fill:#ffffff;fill-opacity:0.2"
     d="M 42 9 L 47 16 L 90 16 L 90 15 L 48 15 L 42 9 z M 39 24 L 33 30 L 5 30 L 5 31 L 34 31 L 39 24 z "
     />
 <path 
     style="fill-opacity:0.2;fill-rule:evenodd"
     d="M 39 24 L 32 29 L 6 29 L 6 30 L 33 30 L 39 24 z M 5 86 L 5 87 L 91 87 L 91 86 L 5 86 z "
     class="ColorScheme-Text"
     />
 <path 
     style="fill:currentColor;fill-opacity:0.6;stroke:none"  
     d="M 38 45 C 34.7 45 32 49.029437 32 54 L 32 65 C 31.98839 66.033541 32.564097 67.04337 33.451172 67.570312 C 34.385929 68.147025 35.640032 68.140609 36.570312 67.556641 C 36.769858 67.432808 36.956547 67.288782 37.121094 67.121094 L 41.242188 63 L 41.339844 63 C 41.496004 63.329514 41.701214 63.634116 41.953125 63.898438 C 42.713859 64.721767 43.886263 65.13114 44.994141 64.964844 C 46.13628 64.812316 47.174673 64.046489 47.660156 63.001953 L 48.339844 63.001953 C 48.825327 64.046489 49.86372 64.812316 51.005859 64.964844 C 52.113737 65.13114 53.286141 64.721767 54.046875 63.898438 C 54.298779 63.634116 54.503996 63.329514 54.660156 63 L 54.757812 63 L 58.878906 67.121094 C 59.043453 67.288782 59.230144 67.432808 59.429688 67.556641 C 60.359969 68.140611 61.614071 68.147027 62.548828 67.570312 C 63.435895 67.043373 64.011611 66.033541 64 65 L 64 54 C 64 49.029437 61.313708 45 58 45 L 38 45 z M 38 46 L 58 46 C 60.761424 46 63 49.581722 63 54 L 63 65 C 63.0098 65.779024 62.515169 66.53006 61.798828 66.833984 C 61.066344 67.163209 60.145687 66.991058 59.585938 66.414062 L 55.171875 62 L 54 62 L 53.949219 62 L 53.949219 62.003906 C 53.777674 62.879248 53.099146 63.630253 52.244141 63.886719 C 51.376352 64.166739 50.366938 63.919479 49.730469 63.265625 C 49.387162 62.922999 49.14454 62.476133 49.050781 62 L 46.949219 62 C 46.855459 62.476133 46.612838 62.922987 46.269531 63.265625 C 45.633062 63.919477 44.623648 64.166739 43.755859 63.886719 C 42.900854 63.630253 42.222326 62.879248 42.050781 62.003906 L 42.050781 62 L 42 62 L 41 62 L 40.828125 62 L 36.414062 66.414062 C 35.854312 66.991058 34.933656 67.163209 34.201172 66.833984 C 33.484831 66.53006 32.990155 65.779024 33 65 L 33 54 C 33 49.581722 35.238576 46 38 46 z M 38 48 L 38 51 L 35 51 L 35 54 L 38 54 L 38 57 L 41 57 L 41 54 L 44 54 L 44 51 L 41 51 L 41 48 L 38 48 z M 56.5 48 C 55.67155 48 55 48.67158 55 49.5 C 55 50.32845 55.67155 51 56.5 51 C 57.32845 51 58 50.32845 58 49.5 C 58 48.67158 57.32845 48 56.5 48 z M 53.5 51 C 52.67155 51 52 51.67155 52 52.5 C 52 53.32845 52.67155 54 53.5 54 C 54.32845 54 55 53.32845 55 52.5 C 55 51.67155 54.32845 51 53.5 51 z M 59.5 51 C 58.67155 51 58 51.67155 58 52.5 C 58 53.32845 58.67155 54 59.5 54 C 60.32845 54 61 53.32845 61 52.5 C 61 51.67155 60.32845 51 59.5 51 z M 56.5 54 C 55.67155 54 55 54.67155 55 55.5 C 55 56.32845 55.67155 57 56.5 57 C 57.32845 57 58 56.32845 58 55.5 C 58 54.67155 57.32845 54 56.5 54 z M 44.5 57 C 43.1193 57 42 58.1193 42 59.5 C 42 60.8807 43.1193 62 44.5 62 C 45.8807 62 47 60.8807 47 59.5 C 47 58.1193 45.8807 57 44.5 57 z M 51.5 57 C 50.1193 57 49 58.1193 49 59.5 C 49 60.8807 50.1193 62 51.5 62 C 52.8807 62 54 60.8807 54 59.5 C 54 58.1193 52.8807 57 51.5 57 z "
     class="ColorScheme-Text"
     />
</svg>
