<svg xmlns="http://www.w3.org/2000/svg" viewBox="0 0 96 96">
  <defs id="defs3051">
    <style type="text/css" id="current-color-scheme">
      .ColorScheme-Text {
        color:#232629;
      }
      .ColorScheme-Highlight {
        color:#3daee9;
      }
      </style>
  </defs>
  <path
     style="fill:#5c5c5c" 
     d="M 42,9 H 6 V 30 H 5 V 87 H 91 V 24 H 90 V 15 H 48 Z"
     />
  <path
     style="fill-opacity:0.33"
     d="m 6,9 v 21 h 27 l 6,-6 H 90 V 15 H 48 L 42,9 Z"
     />
  <path
     style="fill:#ffffff;fill-opacity:0.2"
     d="M 42 9 L 47 16 L 90 16 L 90 15 L 48 15 L 42 9 z M 39 24 L 33 30 L 5 30 L 5 31 L 34 31 L 39 24 z "
     />
  <path
     style="fill-opacity:0.4;fill-rule:evenodd"
     d="m 47.9,41 c -3.7,0 -6.67,2.9 -6.9,6.5 L 41,56 H 36 V 71 H 60 V 56 H 55 L 55,47.5 C 54.75,43.9 51.7,41 48,41 c -0,-2.1e-4 -0.1,-2.1e-4 -0.1,0 z M 48,42 c 3.1,10e-4 5.7,2.4 6,5.5 L 54,56 H 42 l 0,-8.46 C 42.26,44.4 44.9,42 48,42 Z"
     class="ColorScheme-Text"
     />
  <path
     style="fill-opacity:0.2;fill-rule:evenodd"
     d="m 5,72 v 5 h 5 v -5 z m 5,5 v 5 h 5 v -5 z m 5,0 h 5 v -5 h -5 z m 5,0 v 5 h 5 v -5 z m 5,0 h 5 v -5 h -5 z m 5,0 v 5 h 5 v -5 z m 5,0 h 5 v -5 h -5 z m 5,0 v 5 h 5 v -5 z m 5,0 h 5 v -5 h -5 z m 5,0 v 5 h 5 v -5 z m 5,0 h 5 v -5 h -5 z m 5,0 v 5 h 5 v -5 z m 5,0 h 5 v -5 h -5 z m 5,0 v 5 h 5 v -5 z m 5,0 h 5 v -5 h -5 z m 5,0 v 5 h 5 v -5 z m 5,0 h 5 v -5 h -5 z m 5,0 v 5 h 1 v -5 z m 0,5 h -5 v 5 h 5 z m -10,0 h -5 v 5 h 5 z m -10,0 h -5 v 5 h 5 z m -10,0 h -5 v 5 h 5 z m -10,0 h -5 v 5 h 5 z m -10,0 h -5 v 5 h 5 z m -10,0 h -5 v 5 h 5 z m -10,0 h -5 v 5 h 5 z M 10,82 H 5 v 5 h 5 z"
     class="ColorScheme-Text"
     />
  <path
     style="fill:currentColor;fill-opacity:0.6;stroke:none"  
     d="M 39 24 L 32 29 L 6 29 L 6 30 L 33 30 L 39 24 z M 5 86 L 5 87 L 91 87 L 91 86 L 5 86 z "
     class="ColorScheme-Text"
     />
</svg>
