<svg xmlns="http://www.w3.org/2000/svg" viewBox="0 0 96 96">
  <defs id="defs3051">
    <style type="text/css" id="current-color-scheme">
      .ColorScheme-Text {
        color:#232629;
      }
      .ColorScheme-Highlight {
        color:#3daee9;
      }
      </style>
  </defs>
 <path 
     style="fill:currentColor" 
     d="M 6 9 L 6 30 L 5 30 L 5 87 L 91 87 L 91 24 L 90 24 L 90 15 L 48 15 L 42 9 L 6 9 z "
     class="ColorScheme-Highlight"
     />
 <path 
     style="fill-opacity:0.33"
     d="M 6 9 L 6 30 L 33 30 L 39 24 L 90 24 L 90 15 L 48 15 L 42 9 L 6 9 z "
     />
 <path 
     style="fill:#ffffff;fill-opacity:0.2"
     d="M 42 9 L 47 16 L 90 16 L 90 15 L 48 15 L 42 9 z M 39 24 L 33 30 L 5 30 L 5 31 L 34 31 L 39 24 z "
     />
 <path 
     style="fill-opacity:0.2;fill-rule:evenodd"
     d="M 39 24 L 32 29 L 6 29 L 6 30 L 33 30 L 39 24 z M 5 86 L 5 87 L 91 87 L 91 86 L 5 86 z "
     class="ColorScheme-Text"
     />
 <path 
     style="fill:currentColor;fill-opacity:0.6;stroke:none"  
     d="M 47.886719 41 A 15 15 0 0 0 33 56 A 15 15 0 0 0 48 71 A 15 15 0 0 0 63 56 A 15 15 0 0 0 48 41 A 15 15 0 0 0 47.886719 41 z M 48 42 A 14 14 0 0 1 54.640625 43.677734 C 54.649272 43.683316 54.656994 43.690435 54.666016 43.695312 C 54.705416 43.747413 54.694372 43.803637 54.763672 43.841797 C 54.814572 43.870197 54.862346 43.914053 54.910156 43.939453 C 54.992156 43.984753 55.071737 44.055336 55.054688 44.134766 C 55.032187 44.250786 54.842942 44.243085 54.763672 44.328125 C 54.774572 44.492305 54.708216 44.461936 54.666016 44.572266 C 54.691516 44.643166 54.752472 44.63393 54.763672 44.71875 C 54.749672 44.80935 54.632026 44.818669 54.666016 44.912109 C 54.818956 45.031089 54.959126 44.931809 55.103516 44.912109 C 55.420626 44.872409 55.687442 44.919508 55.882812 44.767578 C 55.863268 44.652067 55.965729 44.61231 56.019531 44.533203 A 14 14 0 0 1 56.355469 44.789062 L 56.287109 44.78125 C 56.221409 44.80585 56.124395 44.834181 56.078125 44.863281 C 55.998925 44.916881 55.973482 44.999104 55.882812 45.058594 C 55.817712 45.103994 55.657794 45.253906 55.589844 45.253906 C 55.507844 45.253906 55.358278 45.185378 55.298828 45.205078 C 55.213828 45.230578 55.248274 45.366421 55.152344 45.400391 C 54.965474 45.468191 54.633469 45.215954 54.568359 45.496094 C 54.647559 45.657424 54.913117 45.603736 55.054688 45.691406 C 55.142587 45.748106 55.276178 46.032666 55.298828 46.128906 C 55.321328 46.208106 55.332728 46.483439 55.298828 46.568359 C 55.210928 46.794789 54.975304 46.767389 54.714844 46.761719 C 54.643944 46.761719 54.584621 46.767719 54.519531 46.761719 C 54.080681 46.733419 53.647419 46.594113 53.449219 46.908203 C 53.463219 47.148793 53.503019 47.282707 53.449219 47.492188 C 53.409719 47.644957 53.245396 47.747809 53.253906 47.880859 C 53.256906 47.948759 53.383561 48.080398 53.400391 48.173828 C 53.411291 48.224728 53.377691 48.322027 53.400391 48.367188 C 53.474191 48.505938 53.660776 48.344687 53.791016 48.367188 C 53.915606 48.386888 54.033203 48.570284 54.033203 48.708984 C 54.033203 48.807984 53.997947 49.001406 53.935547 49.097656 C 53.810957 49.284466 53.578781 49.239877 53.400391 49.341797 C 53.253231 49.426697 53.197155 49.632097 53.109375 49.779297 C 53.015875 49.937817 52.925961 49.990377 52.962891 50.216797 C 52.835511 50.468727 52.691024 50.630223 52.427734 50.751953 C 52.351234 50.785853 52.254374 50.847608 52.183594 50.898438 C 52.126894 50.937937 52.069654 51.00309 51.990234 51.09375 C 51.891234 51.20417 51.751066 51.251008 51.697266 51.335938 C 51.657566 51.401038 51.691037 51.541166 51.648438 51.628906 C 51.586137 51.747866 51.48553 51.84985 51.40625 51.96875 C 51.36945 52.02545 51.299166 52.090393 51.259766 52.164062 C 51.169166 52.328243 51.047463 52.457212 51.064453 52.601562 C 51.078453 52.740322 51.251286 52.772811 51.259766 52.894531 C 51.266766 52.962431 51.208037 53.014231 51.210938 53.087891 C 51.213938 53.195511 51.251266 53.247121 51.259766 53.332031 C 51.279466 53.541501 51.152681 53.625171 51.113281 53.769531 C 51.093581 53.837431 51.130281 53.911114 51.113281 53.964844 C 51.079381 54.069664 50.922762 54.131329 50.919922 54.255859 C 50.916922 54.343759 51.056033 54.424348 51.064453 54.548828 C 51.070453 54.633628 50.998725 54.713719 51.015625 54.792969 C 51.046825 54.945909 51.336188 55.160417 51.455078 55.279297 C 51.616468 55.440657 51.77299 55.546947 51.84375 55.716797 C 51.90325 55.861147 51.928693 56.095555 52.039062 56.203125 C 52.121063 56.282325 52.274156 56.316368 52.378906 56.398438 C 52.478006 56.474938 52.615943 56.51168 52.720703 56.59375 C 52.893403 56.7297 53.125741 57.002232 53.400391 56.982422 C 53.544741 56.971522 53.678444 56.912866 53.839844 56.884766 C 54.006884 56.856366 54.20512 56.770099 54.375 56.787109 C 54.50519 56.801109 54.627782 56.893366 54.763672 56.884766 C 54.905232 56.877766 55.08863 56.808811 55.25 56.738281 C 55.53031 56.616491 55.961441 56.387826 56.369141 56.447266 C 56.680571 56.492666 56.686287 56.843722 56.904297 56.982422 C 57.153437 57.005022 57.338909 56.934322 57.537109 56.982422 C 57.687239 57.019222 57.864746 57.301052 57.878906 57.419922 C 57.892906 57.541702 57.79815 57.636461 57.78125 57.712891 C 57.74175 57.877061 57.711694 58.094479 57.683594 58.199219 C 57.661094 58.281219 57.631866 58.359336 57.634766 58.441406 C 57.634766 58.515206 57.753608 58.686953 57.830078 58.783203 C 57.923578 58.902183 58.056682 58.992847 58.169922 59.123047 C 58.376632 59.360817 58.464965 59.6858 58.609375 60 C 58.646175 60.0792 58.575475 60.094289 58.609375 60.193359 C 58.547075 60.668929 58.385669 60.981323 58.074219 61.507812 C 57.927049 61.677633 57.77841 61.879517 57.78125 62.091797 C 57.77035 62.601307 58.048041 62.864902 58.025391 63.357422 C 57.974491 64.019792 58.028162 64.122733 57.976562 64.476562 C 58.200243 64.589772 58.090481 64.923253 58.025391 65.158203 C 57.929191 65.438413 57.83504 65.506539 57.78125 65.693359 C 57.871243 65.732401 57.954119 65.73367 58.044922 65.730469 A 14 14 0 0 1 48 70 A 14 14 0 0 1 42.742188 68.964844 C 42.742142 68.961735 42.743057 68.955513 42.742188 68.955078 C 42.889358 68.892778 43.169774 69.064052 43.277344 68.857422 C 43.331444 68.758322 43.206444 68.565897 43.277344 68.466797 C 43.328244 68.398897 43.658932 68.339076 43.763672 68.322266 C 43.913802 68.296766 44.069337 68.326037 44.154297 68.273438 C 44.247797 68.213938 44.364656 68.060256 44.347656 67.884766 C 44.340656 67.802766 44.268045 67.762953 44.203125 67.689453 C 44.149425 67.627153 44.190397 67.550831 44.154297 67.494141 C 44.086397 67.395041 43.987304 67.347645 43.958984 67.203125 C 44.162854 67.163525 44.443831 67.429866 44.738281 67.347656 C 44.877051 67.307956 45.110651 67.040346 45.175781 66.910156 C 45.195481 66.870456 45.153181 66.716159 45.175781 66.667969 C 45.201281 66.614369 45.264937 66.598412 45.273438 66.570312 C 45.293138 66.493912 45.256438 66.471648 45.273438 66.423828 C 45.324337 66.279468 45.479483 66.188714 45.564453 66.083984 C 45.629553 66.004784 45.700276 65.921944 45.759766 65.839844 C 45.827666 65.751944 45.86115 65.721001 45.90625 65.644531 C 45.94885 65.386951 45.746264 65.189331 45.808594 64.962891 C 45.876494 64.708141 46.243914 64.543794 46.490234 64.427734 C 46.575134 64.388034 46.661632 64.308583 46.732422 64.283203 C 46.902282 64.223703 47.109008 64.242047 47.267578 64.185547 C 47.533728 64.089347 47.625609 63.796144 47.755859 63.552734 C 47.818159 63.439524 47.889181 63.341856 47.900391 63.259766 C 47.911291 63.185966 47.886391 63.102548 47.900391 63.017578 C 47.914391 62.932678 47.926819 62.866807 47.949219 62.773438 C 47.980419 62.651668 47.998047 62.422979 47.998047 62.287109 C 47.998047 62.173899 47.952019 62.144889 47.949219 62.042969 C 47.929519 61.674989 48.057479 61.659944 48.193359 61.458984 C 48.261259 61.359984 48.292024 61.189901 48.339844 61.119141 C 48.569184 60.779471 48.952158 60.612816 48.923828 60.097656 C 48.912928 59.927816 48.853066 59.567472 48.728516 59.513672 C 48.657616 59.482472 48.491479 59.504444 48.386719 59.464844 C 48.052609 59.340264 47.811141 58.957988 47.462891 58.929688 C 47.389091 58.926687 47.349668 58.932688 47.267578 58.929688 C 47.131618 58.926687 46.982968 58.800013 46.830078 58.783203 C 46.733878 58.772303 46.546854 58.811503 46.490234 58.783203 C 46.402334 58.740603 46.41437 58.587172 46.34375 58.539062 C 46.28705 58.499362 46.187349 58.474559 46.099609 58.443359 C 45.960849 58.389759 45.872317 58.357003 45.710938 58.345703 C 45.660038 58.342703 45.523357 58.352703 45.466797 58.345703 C 45.378897 58.331703 45.306709 58.250039 45.224609 58.199219 C 45.122749 58.136919 45.071807 58.091726 45.029297 58.003906 C 45.122797 57.698196 44.800581 57.64707 44.738281 57.46875 C 44.709981 57.38675 44.766681 57.251324 44.738281 57.177734 C 44.701481 57.072914 44.610251 57.021354 44.494141 56.933594 C 44.290301 56.775074 44.10414 56.63052 43.8125 56.59375 C 43.68231 56.57975 43.53073 56.60465 43.375 56.59375 C 43.21079 56.58285 43.013242 56.491089 42.888672 56.349609 C 42.769852 56.210689 42.749331 56.074856 42.644531 56.009766 C 42.545431 55.947466 42.372627 55.928111 42.304688 55.863281 C 42.273488 55.834981 42.284159 55.781617 42.255859 55.716797 C 42.204959 55.614737 42.095863 55.599119 42.158203 55.474609 C 42.044993 55.417909 42.084761 55.546137 41.962891 55.523438 C 41.852471 55.367697 41.774531 55.280005 41.525391 55.328125 C 41.412171 55.350725 41.318627 55.520608 41.185547 55.523438 C 41.075117 55.526438 40.98815 55.347935 40.84375 55.328125 C 40.73332 55.314125 40.580346 55.442801 40.503906 55.425781 C 40.382126 55.403281 40.370106 55.255361 40.259766 55.181641 C 40.177766 55.127641 40.01405 54.985471 39.96875 54.988281 C 39.8272 54.991281 39.72661 55.286361 39.53125 55.181641 C 39.43505 55.059851 39.691515 55.052593 39.578125 54.939453 C 39.493225 54.854553 39.452826 54.942681 39.384766 54.988281 C 39.305566 55.041881 39.228395 55.101812 39.140625 55.132812 C 38.945265 55.206612 38.807187 55.200387 38.654297 55.279297 C 38.512737 55.353097 38.492256 55.474781 38.410156 55.619141 C 38.345056 55.738121 38.218231 55.906439 38.119141 55.912109 C 38.000161 55.919109 37.886887 55.762117 37.779297 55.716797 C 37.453697 55.575237 37.26897 55.811653 37 55.814453 C 36.75085 55.817453 36.404696 55.416611 36.416016 55.181641 C 36.423016 55.037281 36.496772 54.824804 36.513672 54.646484 C 36.527672 54.504924 36.655543 54.388033 36.658203 54.257812 C 36.661203 54.085152 36.382771 53.935836 36.269531 53.916016 C 36.003381 53.868016 35.648653 54.035006 35.345703 53.916016 C 35.289003 53.819816 35.456284 53.767178 35.490234 53.673828 C 35.509934 53.620228 35.470534 53.586674 35.490234 53.527344 C 35.524134 53.436744 35.643047 53.379373 35.685547 53.283203 C 35.716747 53.209403 35.703275 53.082787 35.734375 52.992188 C 35.771175 52.890127 35.872279 52.821647 35.880859 52.748047 C 35.891759 52.651847 35.810505 52.519321 35.734375 52.457031 C 35.499385 52.471031 35.335139 52.491134 35.199219 52.552734 C 34.893449 52.691494 34.972692 53.089317 34.664062 53.185547 C 34.636628 53.193486 34.399858 53.102735 34.3125 53.085938 A 14 14 0 0 1 35.167969 50.419922 C 35.26945 50.439495 35.410451 50.453633 35.490234 50.460938 C 35.750724 50.480638 35.761373 50.283142 35.976562 50.169922 C 36.197412 50.201122 36.312652 50.147322 36.513672 50.169922 C 36.649632 50.183922 36.843582 50.354801 36.951172 50.363281 C 37.041772 50.366281 37.061454 50.251315 37.146484 50.265625 C 37.231284 50.279625 37.374522 50.456694 37.388672 50.558594 C 37.402672 50.685994 37.302844 50.805736 37.339844 50.947266 C 37.473004 51.083226 37.734128 51.160984 37.923828 51.240234 C 38.048418 51.138174 37.943528 50.901116 37.923828 50.753906 C 37.920828 50.688806 37.930828 50.618084 37.923828 50.558594 C 37.909828 50.456734 37.875 50.353355 37.875 50.265625 C 37.875 49.860855 38.187174 49.695639 38.458984 49.537109 C 38.574994 49.469109 38.698841 49.343929 38.800781 49.292969 C 38.945141 49.222069 39.021705 49.214214 39.140625 49.146484 C 39.355785 49.024704 39.557539 48.896533 39.724609 48.757812 C 39.801009 48.573842 39.717609 48.354968 39.724609 48.173828 C 39.801009 48.125728 39.837842 48.180828 39.919922 48.173828 C 40.050112 48.145528 40.088469 47.956413 40.162109 47.882812 C 40.204709 47.840212 40.35523 47.827356 40.40625 47.785156 C 40.53645 47.683096 40.537101 47.537477 40.650391 47.492188 C 40.690191 47.478187 40.78131 47.460159 40.84375 47.443359 C 40.92885 47.420859 41.049657 47.346648 41.185547 47.298828 C 41.273447 47.267628 41.491411 47.2831 41.525391 47.25 C 41.567991 47.2074 41.514491 47.022151 41.525391 46.957031 C 41.593291 46.637181 42.067556 46.627121 42.353516 46.519531 C 42.551706 46.443031 42.765478 46.281749 42.986328 46.324219 C 42.943728 46.476989 42.754196 46.433108 42.791016 46.617188 C 42.839116 46.874778 43.137906 46.556231 43.228516 46.519531 C 43.401216 46.445831 43.732464 46.406299 43.958984 46.324219 C 44.157174 46.253519 44.485678 46.115979 44.298828 45.886719 C 44.143088 45.875819 44.094884 46.025341 43.958984 46.082031 C 43.865484 46.096031 43.842922 46.038803 43.763672 46.033203 C 43.687172 46.030203 43.646782 46.096131 43.570312 46.082031 C 43.493913 46.068031 43.38632 45.928451 43.375 45.837891 C 43.3438 45.600131 43.618594 45.527062 43.714844 45.351562 C 43.649744 45.136432 43.360887 45.338706 43.179688 45.253906 C 43.199388 45.126526 43.273778 44.988381 43.423828 44.962891 C 43.545608 44.943191 43.836546 44.999694 43.910156 45.058594 C 43.952756 45.095394 43.894084 45.194436 43.958984 45.253906 C 44.032784 45.319006 44.155693 45.267906 44.251953 45.253906 C 44.285853 45.092576 44.028321 45.163244 44.056641 45.058594 C 44.249151 44.934004 44.600937 44.994091 44.835938 44.962891 C 44.971897 44.943191 45.102869 44.832658 45.224609 44.767578 C 45.337839 44.702478 45.445543 44.61104 45.564453 44.71875 C 45.598353 44.83476 45.484742 44.903441 45.419922 44.962891 C 45.201912 45.155351 45.005807 45.372093 44.835938 45.595703 C 44.940737 45.697763 45.097898 45.622978 45.273438 45.642578 C 45.341338 45.649578 45.444835 45.680206 45.515625 45.691406 C 45.600525 45.705406 45.691816 45.677406 45.759766 45.691406 C 45.878746 45.719706 45.885016 45.886719 46.003906 45.886719 C 46.196456 45.886719 46.210149 45.725923 46.099609 45.595703 C 46.133509 45.462543 46.196738 45.347326 46.148438 45.253906 C 46.060538 45.078396 45.727917 45.282164 45.710938 45.058594 C 45.700038 44.917024 45.85533 44.875148 45.90625 44.767578 C 45.88375 44.495848 46.127929 44.478682 46.099609 44.232422 C 46.085609 44.130362 45.97711 44.133289 45.90625 44.037109 C 45.86945 43.986209 45.850794 43.878607 45.808594 43.841797 C 45.661434 43.717207 45.388084 43.739643 45.371094 43.501953 C 45.364094 43.360393 45.390794 43.266121 45.371094 43.113281 C 45.351394 42.968901 45.202655 42.557597 45.078125 42.529297 L 45.078125 42.527344 C 44.919575 42.493444 44.830325 42.781401 44.640625 42.869141 C 44.538765 42.917241 44.356703 42.937969 44.251953 42.917969 C 44.184053 42.903969 44.065141 42.852736 44.056641 42.722656 C 44.049641 42.647656 44.074169 42.620552 44.105469 42.576172 C 44.107351 42.572878 44.105749 42.566058 44.105469 42.560547 A 14 14 0 0 1 48 42 z M 43.666016 42.705078 C 43.008011 42.972107 42.41397 43.369666 41.820312 43.769531 C 41.563353 43.942591 41.311082 44.119724 41.044922 44.277344 C 41.037922 44.350044 41.016534 44.410839 40.990234 44.474609 C 40.930734 44.618979 40.745933 44.7301 40.601562 44.71875 C 40.552662 44.71575 40.522134 44.648369 40.464844 44.605469 C 39.897214 44.979439 39.212965 45.148746 38.703125 45.603516 C 38.782325 45.721556 38.865525 45.865717 38.703125 45.935547 C 38.674725 45.949547 38.333565 45.998475 38.265625 45.984375 C 38.255125 45.983625 38.248666 45.971067 38.242188 45.960938 A 14 14 0 0 1 40.402344 44.242188 C 40.379901 44.311353 40.308594 44.39668 40.308594 44.474609 C 40.308594 44.527609 40.399134 44.556549 40.464844 44.605469 C 40.652004 44.482119 40.852162 44.391474 41.044922 44.277344 C 41.057422 44.153374 41.054519 44.017973 41.136719 43.939453 C 41.402989 43.945453 41.636483 43.886381 41.820312 43.769531 C 41.997597 43.65689 42.126246 43.489325 42.197266 43.279297 A 14 14 0 0 1 43.666016 42.705078 z M 41.859375 43.429688 C 41.747294 43.483858 41.635734 43.539007 41.525391 43.595703 A 14 14 0 0 1 41.859375 43.429688 z M 54.130859 43.744141 C 54.078759 43.753141 54.030085 43.766169 53.984375 43.792969 C 53.876765 43.858069 53.873096 43.957141 53.791016 43.988281 C 53.674996 44.030881 53.515037 44.030336 53.498047 44.134766 C 53.484047 44.222666 53.598623 44.248855 53.595703 44.328125 C 53.553103 44.432925 53.471809 44.444786 53.449219 44.572266 C 53.593589 44.807206 53.952509 44.575038 54.130859 44.523438 C 54.210059 44.500838 54.283642 44.535709 54.326172 44.474609 C 54.374272 44.398109 54.3389 44.242336 54.375 44.134766 C 54.4147 44.015786 54.533781 44.044123 54.519531 43.939453 C 54.508631 43.834643 54.306399 43.727151 54.130859 43.744141 z M 38.193359 46.013672 C 38.158054 46.069615 38.12948 46.129869 38.082031 46.177734 C 38.155831 46.133534 38.343714 46.123406 38.458984 46.128906 C 38.498684 46.128906 38.493513 46.112006 38.507812 46.128906 C 38.488112 46.278886 38.430523 46.302287 38.314453 46.373047 C 38.113433 46.494837 37.988938 46.647783 37.923828 46.908203 C 37.904128 46.984603 37.680244 47.220972 37.583984 47.201172 C 37.402073 47.162108 37.456201 46.877095 37.525391 46.732422 A 14 14 0 0 1 38.193359 46.013672 z M 39.091797 46.033203 C 39.159697 46.036203 39.207839 46.172134 39.287109 46.177734 C 39.363509 46.183734 39.48588 46.114806 39.53125 46.128906 C 39.65024 46.160106 39.693468 46.382963 39.580078 46.470703 C 39.486578 46.481603 39.452666 46.358857 39.384766 46.373047 C 39.192236 46.406947 39.140494 46.773049 38.996094 46.761719 C 38.860144 46.747719 38.759597 46.472117 38.898438 46.373047 C 38.901438 46.287947 38.843709 46.262624 38.849609 46.177734 C 38.892209 46.124134 38.978507 46.024643 39.091797 46.033203 z M 57.634766 46.519531 C 57.858446 46.505531 57.972299 46.772323 58.074219 46.908203 C 58.159019 47.018623 58.421797 47.171607 58.560547 47.248047 C 58.639747 47.290647 58.714964 47.355131 58.802734 47.394531 C 58.857424 47.418995 59.012905 47.451836 59.105469 47.492188 A 14 14 0 0 1 59.380859 47.875 C 59.319458 47.820756 59.255972 47.769091 59.207031 47.703125 C 59.264231 47.784225 59.334921 47.868998 59.337891 47.929688 C 59.340891 48.020288 59.274763 48.088888 59.289062 48.173828 C 59.379066 48.188508 59.427672 48.101286 59.470703 48.001953 A 14 14 0 0 1 60.675781 50.095703 C 60.572626 49.967462 60.46905 49.845709 60.367188 49.769531 C 60.366307 49.773531 60.363328 49.774297 60.361328 49.779297 C 60.332928 49.937797 60.452474 50.139669 60.214844 50.167969 C 60.064874 50.187669 59.886347 50.019769 59.679688 49.974609 C 59.594887 49.954909 59.454669 49.997209 59.386719 49.974609 C 59.230979 49.921009 59.277621 49.726212 59.144531 49.632812 C 59.068131 49.579012 58.875656 49.502301 58.753906 49.488281 C 58.677406 49.481281 58.639827 49.499181 58.560547 49.488281 C 58.464347 49.477381 58.29802 49.487513 58.21875 49.439453 C 58.14235 49.391353 57.947554 49.309241 57.927734 49.244141 C 57.896534 49.139331 58.164272 48.992057 58.169922 48.904297 C 58.175922 48.836397 58.088319 48.810754 58.074219 48.708984 C 58.063319 48.646684 58.088219 48.553382 58.074219 48.513672 C 58.054519 48.439872 57.946178 48.371941 57.830078 48.369141 C 57.728018 48.369141 57.626843 48.416016 57.539062 48.416016 C 57.414482 48.419016 57.157663 48.355041 57.001953 48.369141 C 56.908453 48.376141 56.847516 48.410416 56.759766 48.416016 C 56.513436 48.435716 56.368301 48.402016 56.175781 48.416016 C 56.037011 48.423016 55.770875 48.50337 55.640625 48.5625 C 55.575525 48.5937 55.530352 48.666774 55.445312 48.708984 C 55.405912 48.728684 55.349938 48.735312 55.298828 48.757812 C 55.219528 48.794612 55.084253 48.882724 55.007812 48.902344 C 54.897393 48.930644 54.771343 48.895344 54.570312 48.902344 C 54.425953 48.909344 54.182527 48.881544 54.179688 48.708984 C 54.176687 48.445744 54.661016 48.558842 54.910156 48.513672 C 55.003656 48.493972 55.040987 48.383439 55.154297 48.318359 C 55.208197 48.287159 55.248008 48.256656 55.298828 48.222656 C 55.383628 48.163156 55.528799 48.046456 55.542969 47.978516 C 55.553869 47.916216 55.485541 47.828373 55.494141 47.783203 C 55.505041 47.723703 55.612983 47.666314 55.689453 47.589844 C 55.808433 47.470854 55.882047 47.324467 56.029297 47.248047 C 56.128297 47.194447 56.325784 47.182436 56.371094 47.103516 C 56.381994 47.012916 56.368094 46.990283 56.371094 46.908203 C 56.433394 46.851503 56.415897 46.821647 56.466797 46.810547 C 56.619727 46.776647 56.776708 46.867975 56.955078 46.859375 C 57.031478 46.856375 57.115156 46.865147 57.197266 46.810547 C 57.265166 46.765147 57.324678 46.697853 57.392578 46.664062 C 57.466378 46.624362 57.544056 46.525151 57.634766 46.519531 z M 57.705078 46.986328 C 57.701066 46.989891 57.697744 47.000409 57.683594 47.005859 C 57.590094 47.037059 57.544824 47.222577 57.683594 47.248047 C 57.748694 47.208547 57.749522 47.124769 57.732422 47.005859 C 57.714022 46.986159 57.709091 46.982766 57.705078 46.986328 z M 39.238281 47.005859 C 39.286381 47.005859 39.333836 46.986159 39.384766 47.005859 C 39.254566 47.116279 39.076119 47.177277 38.849609 47.248047 C 38.741999 47.281947 38.576471 47.319872 38.556641 47.201172 C 38.533941 47.054002 38.655683 47.068697 38.751953 47.054688 C 38.876543 47.040687 39.093881 47.008659 39.238281 47.005859 z M 57.634766 47.394531 C 57.589366 47.408531 57.536111 47.391759 57.488281 47.443359 C 57.491281 47.601869 57.519481 47.693341 57.488281 47.832031 C 57.578881 48.007531 57.784788 47.903856 57.830078 47.785156 C 57.883878 47.490766 57.770736 47.357731 57.634766 47.394531 z M 58.851562 48.173828 C 58.726973 48.167828 58.632214 48.212684 58.558594 48.271484 C 58.663414 48.441324 58.860693 48.471212 59.095703 48.513672 C 59.180503 48.451372 59.151906 48.281388 59.191406 48.173828 C 59.089346 48.173828 59.024951 48.179828 58.900391 48.173828 L 58.851562 48.173828 z M 34.091797 54.457031 C 34.175898 54.491105 34.415544 54.473647 34.46875 54.5 C 34.53965 54.5368 34.622321 54.529228 34.712891 54.548828 C 34.786591 54.562828 34.83554 54.624084 34.90625 54.646484 C 35.05638 54.697384 35.275631 54.690441 35.394531 54.744141 C 35.575741 54.823341 35.676281 55.139879 35.832031 55.230469 C 35.839031 55.321069 35.803731 55.404706 35.832031 55.472656 C 35.905831 55.571656 36.052935 55.602879 36.171875 55.667969 C 36.316235 55.747169 36.377762 55.947486 36.513672 56.009766 C 36.561772 56.029466 36.633371 55.987166 36.707031 56.009766 C 36.893901 56.066466 36.936266 56.348901 37.097656 56.300781 C 37.202456 56.269581 37.225368 56.111666 37.242188 56.009766 C 37.313088 55.933366 37.375848 55.814453 37.486328 55.814453 C 37.661868 55.811453 37.714167 56.030485 37.779297 56.203125 C 37.816097 56.299325 37.898438 56.394194 37.923828 56.496094 C 37.966428 56.671584 37.960628 57.168698 37.923828 57.273438 C 37.878428 57.403627 37.691584 57.473704 37.583984 57.615234 C 37.533084 57.683134 37.47689 57.763424 37.4375 57.808594 C 37.3696 57.893494 37.293277 57.927586 37.242188 58.003906 C 37.213788 58.046506 37.220713 58.139749 37.195312 58.199219 C 37.110312 58.380379 36.977918 58.516415 37.048828 58.734375 C 37.077128 58.822275 37.195313 58.920681 37.195312 59.025391 C 37.195312 59.149981 36.922154 59.182499 36.902344 59.318359 C 36.888344 59.417359 37.017838 59.622809 37.048828 59.755859 C 37.071428 59.854859 37.231556 59.93489 37.291016 60 C 37.390016 60.11042 37.493374 60.247132 37.583984 60.388672 C 37.762364 60.663232 37.845974 60.996725 38.021484 61.265625 C 38.114984 61.404375 38.300991 61.507097 38.363281 61.654297 C 38.394481 61.727997 38.334981 61.877403 38.363281 61.945312 C 38.465141 62.174613 38.960123 62.41803 39.189453 62.53125 C 39.297073 62.58515 39.383322 62.619261 39.482422 62.675781 C 39.632542 62.760681 39.941138 62.933376 40.017578 63.066406 C 40.085478 63.185376 40.128169 63.460761 40.162109 63.650391 C 40.204709 63.899501 40.151209 64.109996 40.162109 64.378906 C 40.169109 64.526076 40.210937 64.622311 40.210938 64.769531 C 40.210938 64.820431 40.213938 64.911961 40.210938 64.962891 C 40.207937 65.138391 40.224938 65.319727 40.210938 65.498047 C 40.203938 65.594247 40.204937 65.708926 40.210938 65.791016 C 40.217937 65.878916 40.302994 65.909868 40.308594 65.986328 C 40.314594 66.068328 40.202337 66.163406 40.210938 66.228516 C 40.230638 66.406836 40.421098 66.550674 40.455078 66.714844 C 40.483378 66.845054 40.520806 67.143138 40.503906 67.298828 C 40.493006 67.380828 40.466278 67.501227 40.455078 67.591797 C 40.454078 67.610597 40.454468 67.625078 40.455078 67.642578 C 40.456078 67.667178 40.5 67.664153 40.5 67.689453 C 40.5 67.714653 40.457378 67.709575 40.455078 67.734375 C 40.455249 67.747364 40.455734 67.76183 40.455078 67.775391 A 14 14 0 0 1 34 56 A 14 14 0 0 1 34.091797 54.457031 z "
     class="ColorScheme-Text"
     />
</svg>
