<svg xmlns="http://www.w3.org/2000/svg" viewBox="0 0 96 96">
  <defs id="defs3051">
    <style type="text/css" id="current-color-scheme">
      .ColorScheme-Text {
        color:#232629;
      }
      .ColorScheme-Highlight {
        color:#3daee9;
      }
      </style>
  </defs>
 <path 
     style="fill:currentColor" 
     d="M 6 9 L 6 30 L 5 30 L 5 87 L 91 87 L 91 24 L 90 24 L 90 15 L 48 15 L 42 9 L 6 9 z "
     class="ColorScheme-Highlight"
     />
 <path 
     style="fill-opacity:0.33"
     d="M 6 9 L 6 30 L 33 30 L 39 24 L 90 24 L 90 15 L 48 15 L 42 9 L 6 9 z "
     />
 <path 
     style="fill:#ffffff;fill-opacity:0.2"
     d="M 42 9 L 47 16 L 90 16 L 90 15 L 48 15 L 42 9 z M 39 24 L 33 30 L 5 30 L 5 31 L 34 31 L 39 24 z "
     />
 <path 
     style="fill-opacity:0.2;fill-rule:evenodd"
     d="M 39 24 L 32 29 L 6 29 L 6 30 L 33 30 L 39 24 z M 5 86 L 5 87 L 91 87 L 91 86 L 5 86 z "
     class="ColorScheme-Text"
     />
 <path 
     style="fill:currentColor;fill-opacity:0.6;stroke:none"  
     d="M 57.9 41 A 3 3 0 0 0 55 44 A 3 3 0 0 0 58 47 A 3 3 0 0 0 61 44 A 3 3 0 0 0 58 41 A 3 3 0 0 0 57.9 41 z M 53 46 A 1 1 0 0 0 52 47 A 1 1 0 0 0 53 48 A 1 1 0 0 0 54 47 A 1 1 0 0 0 53 46 z M 47.5 49 A 1 1 0 0 0 46.5 50 A 1 1 0 0 0 47.5 51 A 1 1 0 0 0 48.5 50 A 1 1 0 0 0 47.5 49 z M 42 52 A 1 1 0 0 0 41 53 A 1 1 0 0 0 42 54 A 1 1 0 0 0 43 53 A 1 1 0 0 0 42 52 z M 36.9 53 A 3 3 0 0 0 34 56 A 3 3 0 0 0 37 59 A 3 3 0 0 0 40 56 A 3 3 0 0 0 37 53 A 3 3 0 0 0 36.9 53 z M 42 58 A 1 1 0 0 0 41 59 A 1 1 0 0 0 42 60 A 1 1 0 0 0 43 59 A 1 1 0 0 0 42 58 z M 47.5 61 A 1 1 0 0 0 46.5 62 A 1 1 0 0 0 47.5 63 A 1 1 0 0 0 48.5 62 A 1 1 0 0 0 47.5 61 z M 53 64 A 1 1 0 0 0 52 65 A 1 1 0 0 0 53 66 A 1 1 0 0 0 54 65 A 1 1 0 0 0 53 64 z M 58 65 A 3 3 0 0 0 55 68 A 3 3 0 0 0 58 71 A 3 3 0 0 0 61 68 A 3 3 0 0 0 58 65 z "
     class="ColorScheme-Text"
     />
</svg>
