<svg xmlns="http://www.w3.org/2000/svg" viewBox="0 0 22 22">
  <defs id="defs3051">
    <style type="text/css" id="current-color-scheme">
      .ColorScheme-Text {
        color:#232629
      }
      </style>
  </defs>
    <path
       style="fill:currentColor"
       d="M 9.2070312 2.6855469 C 8.4015826 2.8646057 7.6044232 3.1142424 6.8574219 3.4902344 C 6.8745053 4.149842 6.9174612 4.7818576 7.0039062 5.4238281 C 6.7138056 5.6096886 6.4076796 5.7687526 6.1367188 5.9863281 C 5.8614078 6.19813 5.5813218 6.4007288 5.3320312 6.6484375 C 4.834004 6.3190294 4.306701 6.0095827 3.7636719 5.7363281 C 3.1783296 6.3662767 2.6306874 7.0477515 2.1835938 7.8085938 C 2.5349618 8.3601403 2.9126938 8.9133904 3.2617188 9.3457031 L 3.2617188 13.103516 L 3.2617188 13.582031 L 3.2617188 14.015625 C 3.2702587 14.015701 3.2786474 14.016775 3.2871094 14.017578 L 6.1503906 14.292969 C 6.3003445 14.307439 6.4172945 14.427854 6.4277344 14.578125 L 6.515625 15.841797 L 9.0136719 16.019531 L 9.1855469 14.853516 C 9.2078499 14.702296 9.3372751 14.589844 9.4902344 14.589844 L 12.509766 14.589844 C 12.662646 14.589844 12.79215 14.702296 12.814453 14.853516 L 12.986328 16.019531 L 15.484375 15.841797 L 15.572266 14.578125 C 15.582786 14.427854 15.699655 14.307522 15.849609 14.292969 L 18.712891 14.017578 C 18.721391 14.016787 18.729741 14.015725 18.738281 14.015625 L 18.738281 13.642578 L 18.738281 9.3457031 C 19.14137 8.8382268 19.523951 8.2795559 19.816406 7.8085938 C 19.369471 7.0477517 18.82167 6.3662767 18.236328 5.7363281 C 17.693456 6.0095827 17.165997 6.3190294 16.667969 6.6484375 C 16.41876 6.4007288 16.137034 6.19813 15.861328 5.9863281 C 15.590446 5.7687526 15.285641 5.6096886 14.996094 5.4238281 C 15.082301 4.7818576 15.125416 4.1498424 15.142578 3.4902344 C 14.395498 3.1142428 13.598813 2.8646057 12.792969 2.6855469 C 12.471232 3.2262825 12.176173 3.8123149 11.919922 4.3847656 C 11.61606 4.3339902 11.31154 4.3161381 11.005859 4.3125 L 11.005859 4.3105469 C 11.003759 4.3105469 11.0018 4.3125 11 4.3125 C 10.9981 4.3125 10.996041 4.3105469 10.994141 4.3105469 L 10.994141 4.3125 C 10.687906 4.31614 10.382066 4.3339896 10.078125 4.3847656 C 9.8220055 3.8123146 9.5292421 3.2262825 9.2070312 2.6855469 z M 6.9414062 9.5175781 C 7.8942777 9.5175781 8.6679688 10.289633 8.6679688 11.242188 C 8.6679688 12.195376 7.8942778 12.966798 6.9414062 12.966797 C 5.989009 12.966797 5.2167969 12.195375 5.2167969 11.242188 C 5.2167969 10.289632 5.989009 9.5175781 6.9414062 9.5175781 z M 15.058594 9.5175781 C 16.010912 9.5175781 16.783203 10.289633 16.783203 11.242188 C 16.783203 12.195376 16.010912 12.966797 15.058594 12.966797 C 14.105564 12.966798 13.332031 12.195375 13.332031 11.242188 C 13.332031 10.289632 14.105564 9.5175781 15.058594 9.5175781 z M 11 10.525391 C 11.30671 10.525391 11.556641 10.752854 11.556641 11.03125 L 11.556641 12.619141 C 11.556641 12.897773 11.30671 13.123047 11 13.123047 C 10.693291 13.123047 10.445313 12.897773 10.445312 12.619141 L 10.445312 11.03125 C 10.445312 10.752854 10.693291 10.525391 11 10.525391 z M 3.2558594 14.632812 C 3.2570494 14.909469 3.2617187 15.213091 3.2617188 15.273438 C 3.2617188 17.992064 6.7093819 19.299426 10.994141 19.314453 L 11 19.314453 L 11.005859 19.314453 C 15.290618 19.299423 18.738281 17.992064 18.738281 15.273438 C 18.738281 15.211987 18.740888 14.909627 18.742188 14.632812 L 16.169922 14.880859 L 16.080078 16.152344 C 16.069398 16.305461 15.94804 16.426506 15.794922 16.4375 L 12.746094 16.65625 C 12.738694 16.656803 12.730006 16.65625 12.722656 16.65625 C 12.57112 16.65625 12.440351 16.544747 12.417969 16.392578 L 12.244141 15.207031 L 9.7558594 15.207031 L 9.5820312 16.392578 C 9.5585412 16.552181 9.4146164 16.668035 9.2539062 16.65625 L 6.2050781 16.4375 C 6.0519607 16.426506 5.9305992 16.305461 5.9199219 16.152344 L 5.8300781 14.880859 L 3.2558594 14.632812 z "
       class="ColorScheme-Text" />
</svg>
