<svg xmlns="http://www.w3.org/2000/svg" viewBox="0 0 22 22">
  <defs id="defs3051">
    <style type="text/css" id="current-color-scheme">
      .ColorScheme-Text {
        color:#232629
      }
      </style>
  </defs>
    <path
       style="fill:#3bad7e"
       d="M 9.6523438 3 C 10.061804 3.17482 10.402623 3.4897794 10.658203 3.9433594 L 12.482422 7.1914062 L 11.339844 7.8554688 L 15.041016 7.9101562 L 16.849609 4.5898438 L 15.724609 5.2714844 L 14.683594 3.453125 C 14.512364 3.155815 14.223016 3 13.847656 3 L 9.6523438 3 z M 8.6777344 3.1582031 C 8.0300844 3.1582031 7.5015244 3.4717481 7.1777344 4.0488281 L 7.1796875 4.0488281 L 5.625 6.7910156 L 8.8828125 8.7285156 L 10.898438 5.1640625 L 10.316406 4.1699219 C 9.9243365 3.4895819 9.3775644 3.1582031 8.6777344 3.1582031 z M 17.208984 7.9433594 L 13.951172 9.8457031 L 15.962891 13.410156 L 17.089844 13.410156 C 17.447124 13.410156 17.804297 13.324184 18.060547 13.183594 C 18.605827 12.869584 19 12.205202 19 11.576172 C 19 11.261572 18.913646 10.965107 18.759766 10.685547 L 17.208984 7.9433594 z M 6.71875 8.7480469 L 3 8.8164062 L 4.1425781 9.4804688 L 3.1191406 11.316406 C 3.0509406 11.438486 3 11.629409 3 11.787109 C 3 11.944639 3.0508706 12.120337 3.1191406 12.242188 L 5.25 15.998047 C 5.2333 15.876197 5.234375 15.785887 5.234375 15.716797 C 5.234375 15.419327 5.3704256 14.948556 5.5410156 14.634766 L 5.5390625 14.634766 L 7.3671875 11.402344 L 8.5253906 12.083984 L 6.71875 8.7480469 z M 13.472656 12.466797 L 11.5625 15.734375 L 13.472656 19 L 13.472656 17.65625 L 15.46875 17.65625 C 15.82681 17.65625 16.134088 17.482227 16.304688 17.185547 L 18.419922 13.410156 C 18.061962 13.689116 17.63616 13.830078 17.125 13.830078 L 13.472656 13.830078 L 13.472656 12.466797 z M 6.4785156 13.794922 L 5.9335938 14.791016 C 5.7629938 15.087806 5.6425781 15.560284 5.6425781 15.839844 C 5.6425781 16.835414 6.4457887 17.65625 7.4179688 17.65625 L 10.521484 17.65625 L 10.521484 13.794922 L 6.4785156 13.794922 z "
       />
</svg>
