<svg xmlns="http://www.w3.org/2000/svg" viewBox="0 0 22 22">
  <defs id="defs3051">
    <style type="text/css" id="current-color-scheme">
      .ColorScheme-Text {
        color:#232629
      }
      </style>
  </defs>
    <path
       style="fill:currentColor"
       d="M 6 6 C 4.343 6 3 8.2 3 11 L 3 14.5 A 1.5 1.5 0 0 0 5.6 15.6 L 8.1 13 A 1.5 1.5 0 0 0 11 12.5 A 1.5 1.5 0 0 0 13.9 13 L 16.4 15.6 A 1.5 1.5 0 0 0 19 14.5 L 19 11 C 19 8.2 17.6 6 16 6 L 6 6 z M 6 7 L 16 7 C 17.1 7 18 8.8 18 11 L 18 14.5 A 0.5 0.5 0 0 1 17.1 14.9 L 14.3 12 L 13 12 L 13 12.5 A 0.5 0.5 0 0 1 12 12.5 L 12 12 L 10 12 L 10 12.5 A 0.5 0.5 0 0 1 9 12.5 L 9 12 L 7.7 12 L 4.9 14.9 A 0.5 0.5 0 0 1 4 14.5 L 4 11 C 4 8.8 4.9 7 6 7 z M 14.5 7.9 A 0.6 0.6 0 0 0 13.9 8.5 A 0.6 0.6 0 0 0 14.5 9.1 A 0.6 0.6 0 0 0 15.1 8.5 A 0.6 0.6 0 0 0 14.5 7.9 z M 7 8 L 7 9 L 6 9 L 6 10 L 7 10 L 7 11 L 8 11 L 8 10 L 9 10 L 9 9 L 8 9 L 8 8 L 7 8 z M 13.5 8.9 A 0.6 0.6 0 0 0 12.9 9.5 A 0.6 0.6 0 0 0 13.5 10.1 A 0.6 0.6 0 0 0 14.1 9.5 A 0.6 0.6 0 0 0 13.5 8.9 z M 15.5 8.9 A 0.6 0.6 0 0 0 14.9 9.5 A 0.6 0.6 0 0 0 15.5 10.1 A 0.6 0.6 0 0 0 16.1 9.5 A 0.6 0.6 0 0 0 15.5 8.9 z M 14.5 9.9 A 0.6 0.6 0 0 0 13.9 10.5 A 0.6 0.6 0 0 0 14.5 11.1 A 0.6 0.6 0 0 0 15.1 10.5 A 0.6 0.6 0 0 0 14.5 9.9 z "
       class="ColorScheme-Text" />
</svg>
