<svg xmlns="http://www.w3.org/2000/svg" viewBox="0 0 22 22">
  <defs id="defs3051">
    <style type="text/css" id="current-color-scheme">
      .ColorScheme-Text {
        color:#232629
      }
      </style>
  </defs>
    <path
       style="fill:currentColor"
       d="M 11 3 A 8 3 0 0 0 3 6 L 3 16 A 8 3 0 0 0 11 19 A 8 3 0 0 0 19 16 L 19 6 A 8 3 0 0 0 11 3 z M 11 4 A 7 2 0 0 1 18 6 A 7 2 0 0 1 11 8 A 7 2 0 0 1 4 6 A 7 2 0 0 1 11 4 z M 18 7.45 L 18 11 A 7 2 0 0 1 11 13 A 7 2 0 0 1 4 11 L 4 7.45 A 8 3 0 0 0 11 9 A 8 3 0 0 0 18 7.45 z M 18 12.45 L 18 16 A 7 2 0 0 1 11 18 A 7 2 0 0 1 4 16 L 4 12.45 A 8 3 0 0 0 11 14 A 8 3 0 0 0 18 12.45 z "
       class="ColorScheme-Text" />
</svg>
