<svg xmlns="http://www.w3.org/2000/svg" viewBox="0 0 22 22">
  <defs id="defs3051">
    <style type="text/css" id="current-color-scheme">
      .ColorScheme-Text {
        color:#232629
      }
      </style>
  </defs>
    <path
       style="fill:currentColor"
       d="M 16.060547 3.0078125 C 15.990536 3.0069444 15.917402 3.0253219 15.849609 3.0683594 C 15.813409 3.0933594 15.656663 3.2828212 15.501953 3.4882812 L 15.21875 3.8652344 L 15.117188 3.7949219 C 14.974828 3.7007219 14.839308 3.6805713 14.710938 3.7382812 C 14.622237 3.7780813 14.413245 4.0450588 13.046875 5.8554688 C 12.184565 6.9967887 11.482325 7.9404881 11.484375 7.9550781 C 11.486375 7.9672781 11.835862 8.2406338 12.257812 8.5585938 L 13.029297 9.140625 L 14.048828 7.7871094 C 14.609508 7.0430494 15.074797 6.4427819 15.085938 6.4511719 C 15.122138 6.4782719 15.187128 7.06196 15.173828 7.25 C 15.168828 7.35257 15.129644 7.5359031 15.089844 7.6582031 C 15.018744 7.8767531 15.011067 7.8906256 13.748047 9.5722656 C 13.049537 10.501946 12.467521 11.291036 12.457031 11.322266 C 12.426931 11.408366 12.460591 11.569579 12.525391 11.662109 C 12.634131 11.818119 12.903381 11.868592 13.056641 11.757812 C 13.162521 11.680813 15.664481 8.3255006 15.744141 8.1503906 C 15.976831 7.6510206 16.026439 7.0107694 15.880859 6.3808594 C 15.823359 6.1308394 15.747408 5.8916131 15.673828 5.7207031 C 15.652428 5.6740031 15.687875 5.6141613 15.921875 5.3007812 C 16.142975 5.0016413 16.193156 4.9174038 16.197266 4.8398438 C 16.206266 4.6747938 16.157814 4.5812581 15.996094 4.4550781 L 15.84375 4.3378906 L 16.146484 3.9355469 C 16.392664 3.6031269 16.443286 3.5169931 16.447266 3.4394531 C 16.458816 3.1922456 16.270578 3.0104169 16.060547 3.0078125 z M 11.001953 8.5800781 C 10.994953 8.5810781 10.076084 9.79878 8.9589844 11.28125 C 7.1622544 13.66849 6.9060944 14.022372 6.7402344 14.326172 C 6.4107244 14.931002 6.05138 15.852492 5.8125 16.695312 C 5.65767 17.235873 5.6505544 17.186796 5.8652344 17.072266 C 6.5275144 16.716036 7.3928744 16.138551 7.8964844 15.712891 C 8.3889244 15.296171 8.4727869 15.188569 10.560547 12.417969 L 12.568359 9.75 L 11.791016 9.1640625 C 11.363426 8.8418525 11.009303 8.5790481 11.001953 8.5800781 z M 11.220703 14.753906 C 11.122388 14.748306 11.020873 14.752125 10.955078 14.765625 C 10.644008 14.831525 10.298329 15.101049 10.130859 15.412109 C 10.085959 15.492909 10.01369 15.67491 9.96875 15.8125 C 9.92695 15.95303 9.8877656 16.069196 9.8847656 16.072266 C 9.8609656 16.102066 9.2660156 16.246761 8.9160156 16.306641 C 8.0933356 16.450231 7.8677594 16.503315 7.7871094 16.578125 C 7.6285694 16.724655 7.7522725 16.872511 7.9765625 16.806641 C 8.0364625 16.788641 8.2898163 16.737183 8.5351562 16.695312 C 8.7804863 16.653513 9.1547775 16.575204 9.3671875 16.527344 C 9.5795875 16.476544 9.7586581 16.444125 9.7675781 16.453125 C 9.7765781 16.462125 9.7404937 16.631641 9.6835938 16.832031 L 9.5820312 17.191406 L 9.3574219 17.291016 C 9.2347519 17.344816 9.0594569 17.43705 8.9667969 17.5 C 8.6855969 17.68546 8.630645 17.918749 8.828125 18.068359 C 8.935855 18.149159 9.2344519 18.145253 9.4199219 18.064453 C 9.5844619 17.989653 9.6781106 17.885551 9.8066406 17.613281 C 9.8754406 17.472601 9.9288331 17.397752 9.9707031 17.388672 C 10.003603 17.379672 10.299836 17.320753 10.628906 17.251953 C 10.957976 17.186253 11.258075 17.122211 11.296875 17.113281 C 11.359575 17.098381 11.365756 17.105309 11.347656 17.162109 C 11.335656 17.198009 11.281389 17.301871 11.224609 17.394531 C 11.167909 17.487231 11.123047 17.597788 11.123047 17.642578 C 11.123047 17.735278 11.200942 17.828688 11.263672 17.804688 C 11.287672 17.795687 11.318984 17.787109 11.333984 17.787109 C 11.348884 17.787109 11.416692 17.739627 11.482422 17.679688 C 11.605092 17.569017 11.900391 17.027803 11.900391 16.914062 C 11.900391 16.857263 11.945756 16.841819 11.972656 16.886719 C 11.981656 16.901619 12.05037 16.929266 12.125 16.947266 C 12.22966 16.974166 12.259766 16.995069 12.259766 17.042969 C 12.259766 17.135769 12.412205 17.269935 12.546875 17.296875 C 12.651535 17.314875 12.786088 17.294175 12.929688 17.234375 C 12.980388 17.213475 12.982744 17.219175 12.964844 17.296875 C 12.952844 17.344675 12.866207 17.496049 12.773438 17.636719 C 12.575967 17.929929 12.336238 18.397126 12.273438 18.603516 C 12.222737 18.780056 12.245291 18.911809 12.337891 18.974609 C 12.421691 19.028409 12.558979 19.005434 12.630859 18.927734 C 12.693659 18.858934 13.034566 18.137664 13.160156 17.808594 C 13.249956 17.578194 13.290681 17.514158 13.494141 17.298828 C 13.661751 17.122288 13.715548 17.081601 13.679688 17.150391 C 13.619888 17.279061 13.623753 17.37762 13.689453 17.4375 C 13.829983 17.56617 14.032444 17.440328 14.208984 17.117188 C 14.313654 16.925718 14.39231 16.868087 14.78125 16.685547 L 14.984375 16.59375 L 14.962891 16.703125 C 14.950891 16.762925 14.882287 16.933548 14.810547 17.080078 C 14.669877 17.376208 14.642913 17.564962 14.726562 17.726562 C 14.783262 17.837233 14.843941 17.839731 15.119141 17.744141 C 15.502081 17.615471 16.002189 17.320931 16.130859 17.150391 C 16.307399 16.911061 16.361496 16.679442 16.253906 16.601562 C 16.143246 16.520763 16.080123 16.555379 15.939453 16.761719 C 15.750903 17.042919 15.517369 17.260424 15.292969 17.371094 C 15.188299 17.424894 15.094877 17.460172 15.085938 17.451172 C 15.073937 17.439172 15.314699 16.796281 15.443359 16.494141 C 15.470359 16.431441 15.490234 16.353102 15.490234 16.320312 C 15.490234 16.236513 15.384662 16.142578 15.294922 16.142578 C 15.253122 16.142578 15.056845 16.222629 14.859375 16.324219 C 14.449495 16.527689 14.475418 16.544889 14.580078 16.162109 C 14.642878 15.925839 14.622046 15.862586 14.478516 15.847656 C 14.340906 15.832756 14.287699 15.879046 14.162109 16.103516 C 14.081309 16.256046 13.973978 16.380786 13.767578 16.572266 C 13.495308 16.823446 13.482862 16.832049 13.419922 16.787109 C 13.324222 16.718309 13.270429 16.72725 13.037109 16.84375 C 12.809769 16.95735 12.734534 16.973177 12.677734 16.904297 C 12.629934 16.847597 12.705184 16.816998 13.121094 16.736328 C 13.524964 16.658528 13.576172 16.638428 13.576172 16.554688 C 13.576172 16.420017 13.465048 16.291898 13.267578 16.205078 C 12.926508 16.052558 12.887881 16.043241 12.738281 16.082031 C 12.576661 16.123831 12.337477 16.354447 12.304688 16.498047 C 12.271788 16.647657 12.169922 16.60197 12.169922 16.4375 C 12.169922 16.3687 12.084909 16.196026 12.037109 16.166016 C 11.935369 16.097216 11.772084 16.246284 11.646484 16.521484 L 11.546875 16.734375 L 11.326172 16.78125 C 11.038972 16.84405 10.20456 17.012123 10.09375 17.033203 C 10.02195 17.045203 10.010391 17.039847 10.025391 16.998047 C 10.037391 16.968247 10.073375 16.835692 10.109375 16.701172 C 10.202075 16.330232 10.228601 16.282245 10.363281 16.234375 C 10.524881 16.177575 11.068454 15.944927 11.208984 15.873047 C 11.274884 15.840147 11.409013 15.738167 11.507812 15.648438 C 11.809953 15.367237 11.858058 15.107486 11.642578 14.916016 C 11.582778 14.865216 11.50462 14.809862 11.46875 14.794922 C 11.413565 14.774022 11.319018 14.759506 11.220703 14.753906 z M 11.072266 15.107422 C 11.230796 15.116422 11.292951 15.129734 11.337891 15.177734 C 11.397691 15.237534 11.39755 15.241729 11.34375 15.355469 C 11.30785 15.427269 11.223951 15.510311 11.119141 15.582031 C 10.936601 15.707621 10.365516 15.938344 10.347656 15.896484 C 10.323656 15.827584 10.506387 15.418719 10.623047 15.287109 C 10.778657 15.110589 10.824006 15.092482 11.072266 15.107422 z M 9.3847656 17.609375 C 9.4075831 17.610875 9.4080719 17.630569 9.3886719 17.667969 C 9.3497719 17.742769 9.2482062 17.796321 9.1914062 17.775391 C 9.1256062 17.748391 9.1434469 17.711973 9.2480469 17.658203 C 9.3168469 17.623803 9.3619481 17.607875 9.3847656 17.609375 z "
       class="ColorScheme-Text" />
</svg>
