<svg xmlns="http://www.w3.org/2000/svg" viewBox="0 0 22 22">
  <defs id="defs3051">
    <style type="text/css" id="current-color-scheme">
      .ColorScheme-Text {
        color:#232629
      }
      </style>
  </defs>
    <path
       style="fill:#f62459"
       d="m 13.080078,3 v 0.00195 c -0.11422,0.005 -0.243327,0.033891 -0.341797,0.087891 -0.1642,0.0904 -0.162915,0.090284 -0.603515,0.021484 -0.24234,-0.0379 -0.675871,-0.07885 -0.962891,-0.09375 -0.45439,-0.023 -0.521484,-0.018744 -0.521484,0.035156 0,0.0431 -0.06964,0.077822 -0.214844,0.1074218 -0.11792,0.0243 -0.293442,0.081083 -0.388672,0.1269532 -0.3957004,0.1518631 0.03125,-0.042965 0.09375,-0.1289063 0,-0.0459 -0.2303031,-0.051472 -0.3769531,-0.013672 -0.0586,0.0148 -0.089172,0.045725 -0.076172,0.078125 0.0148,0.0364 -0.029439,0.062578 -0.1367188,0.080078 -0.0868,0.0136 -0.2246806,0.039694 -0.3066406,0.058594 -0.14397,0.0337 -0.1453043,0.033356 -0.052734,-0.027344 0.0528,-0.035 0.095703,-0.079409 0.095703,-0.099609 0,-0.068 -0.1312675,-0.035588 -0.4296875,0.1074219 -0.16499,0.0783 -0.3328369,0.1365169 -0.3730469,0.1230469 -0.14721,-0.0446 -1.7384219,1.2608749 -2.0761719,1.703125 -0.0777,0.1023199 -0.1523256,0.1599543 -0.1972656,0.1464843 -0.0466,-0.009 -0.096078,0.034644 -0.1425781,0.1210938 -0.0395,0.0738 -0.1898375,0.3177956 -0.3359375,0.5410156 -0.33219,0.50721 -0.4427144,0.70718 -0.5214844,0.96875 -0.0342,0.11357 -0.089084,0.260575 -0.1210937,0.328125 -0.032,0.0669 -0.084341,0.3171575 -0.1191407,0.5546875 -0.0634,0.43362 -0.1274456,0.6238613 -0.1972656,0.5820312 -0.0207,-0.008 -0.047594,-0.00408 -0.058594,0.011719 -0.0566,0.0882 -0.1628126,0.9259019 -0.1953126,1.5449219 -0.0341,0.6514301 -0.029672,0.7186621 0.048828,0.9140621 0.0465,0.11573 0.1587868,0.48373 0.2480468,0.81836 0.3588,1.34579 0.4833107,1.742173 0.7128907,2.251953 0.69101,1.53444 1.805965,2.762631 3.515625,3.86914 0.77847,0.503691 2.0355491,0.995725 2.9121091,1.140626 v -0.0078 c 0.22345,0.0311 0.614127,0.05647 1.185547,0.04297 0.72515,-0.008 0.914058,-0.02444 1.267578,-0.105469 0.26891,-0.0624 0.414063,-0.113298 0.414063,-0.148437 0,-0.0486 -0.05392,-0.05191 -0.222657,-0.03711 -1.139859,0.0991 -1.431496,0.06547 -2.003906,-0.240234 -0.4094,-0.21879 -0.528712,-0.255387 -0.414062,-0.123047 0.0776,0.0891 -0.05356,0.08177 -0.363282,-0.01953 -0.136199,-0.0446 -0.291926,-0.08203 -0.347656,-0.08203 -0.087,0 -0.09454,-0.0091 -0.05664,-0.07617 C 11.487516,18.036962 11.465925,18 11.328125,18 c -0.13996,0 -0.302686,-0.07066 -0.572266,-0.244141 -0.13512,-0.0918 -0.195065,-0.103765 -0.291015,-0.07813 -0.10477,0.0274 -0.14743,0.0088 -0.31836,-0.138672 -0.2705196,-0.232809 -0.3455959,-0.318593 -0.3476559,-0.402343 -0.002,-0.0756 -0.086104,-0.094 -0.1523437,-0.0332 -0.0251,0.0231 -0.2013606,-0.0959 -0.4628906,-0.3125 -0.2321401,-0.19244 -0.4001969,-0.349812 -0.3730469,-0.363282 0.0896,-0.0284 0.052694,-0.122775 -0.066406,-0.166015 -0.19207,-0.07 -0.2778668,-0.155021 -0.2480468,-0.244141 0.0207,-0.0621 -0.020677,-0.119623 -0.1855469,-0.251953 -0.1174,-0.0943 -0.2419706,-0.209203 -0.2753907,-0.257813 -0.0582,-0.0851 -0.0557,-0.08846 0.0625,-0.07226 0.1832601,0.0256 0.1558363,-0.04941 -0.1210937,-0.326172 -0.26648,-0.2666 -0.439045,-0.359215 -0.609375,-0.328125 -0.0777,0.0149 -0.1512769,-0.01154 -0.2480469,-0.08984 -0.19243,-0.15422 -0.4032975,-0.453572 -0.3359375,-0.476562 0.0344,-0.0118 0.00542,-0.06917 -0.083984,-0.158203 -0.098,-0.0984 -0.1504807,-0.200772 -0.1816407,-0.357422 -0.0261,-0.13125 -0.084121,-0.261506 -0.1445312,-0.322266 C 6.1159269,13.115243 5.98147,12.694188 5.75,11.429688 5.56002,10.391917 5.559955,10.413491 5.734375,9.6757812 c 0.1198,-0.5061699 0.1242794,-0.6015624 0.037109,-0.6015624 -0.0828,0 -0.085694,0.013134 0.066406,-0.3535157 0.34139,-0.82266 0.9790169,-1.7188687 1.3417969,-1.8867187 0.16374,-0.0757 0.2753906,-0.2041725 0.2753906,-0.3203125 0,-0.0324 -0.029806,-0.031078 -0.066406,-0.017578 -0.0522,0.0203 -0.048422,-1.207e-4 0.017578,-0.087891 0.16528,-0.2185 0.3736725,-0.3708056 0.6953125,-0.5097656 0.19142,-0.0826 0.3469231,-0.1778088 0.3769531,-0.2304687 0.0468,-0.0824 0.043331,-0.089959 -0.042969,-0.068359 -0.0518,0.0138 -0.086325,0.025219 -0.078125,0.011719 0.008,-0.006 0.1621631,-0.1403512 0.3457031,-0.3007812 0.30358,-0.26521 0.7749225,-0.5635207 0.6328125,-0.4003907 -0.0319,0.0364 -0.036672,0.072437 -0.013672,0.085938 0.0219,0.0122 0.061444,-0.00451 0.089844,-0.037109 0.0626,-0.0718 0.43602,-0.2383044 0.8124996,-0.3652344 0.77138,-0.25928 1.852475,-0.3225744 2.490235,-0.1464844 0.74975,0.20714 1.545671,0.6725038 2.175781,1.2773438 0.4379,0.42025 0.716823,0.8077944 0.876953,1.2089844 0.0475,0.1185699 0.103197,0.2228581 0.123047,0.2363281 0.0657,0.0386 0.34703,1.1502987 0.375,1.4804687 0.0212,0.24912 0.0426,0.3239488 0.0918,0.3242188 0.0532,4e-4 0.06103,0.060573 0.04883,0.3457031 -0.0138,0.31869 -0.02328,0.3538262 -0.142578,0.4726563 -0.12392,0.1236999 -0.126749,0.1383156 -0.09961,0.3847652 l 0.02734,0.25586 -0.259765,0.392578 c -0.23109,0.34852 -0.676479,0.890507 -0.486329,0.591797 0.0578,-0.0919 0.06032,-0.111328 0.01172,-0.111328 -0.0329,0 -0.142127,0.116818 -0.242187,0.261718 -0.17987,0.26048 -0.334032,0.399342 -0.582032,0.519532 -0.0703,0.0339 -0.233771,0.116687 -0.363281,0.185547 -0.32255,0.170529 -0.673962,0.25 -1.107422,0.25 -0.83517,0 -1.715625,-0.396872 -2.259765,-1.019532 -0.22608,-0.25859 -0.550782,-0.837728 -0.550782,-0.980468 0,-0.0419 -0.02089,-0.07014 -0.05859,-0.05664 -0.045,0.0163 -0.07137,-0.04913 -0.107422,-0.279297 -0.0624,-0.39945 -0.05852,-0.5115225 0.02148,-0.9140625 0.11925,-0.60011 0.455007,-1.0689594 1.060547,-1.4746094 0.42712,-0.28673 0.720163,-0.3632812 1.320313,-0.3632812 0.42738,0.003 0.548018,0.015644 0.736328,0.089844 0.12387,0.0486 0.248964,0.090544 0.277343,0.089844 0.12088,-0.002 -0.27439,-0.2522738 -0.58789,-0.3710938 -0.27637,-0.10524 -0.4179,-0.1315943 -0.75,-0.1464844 -0.68699,-0.0299 -1.217543,0.1716001 -1.726563,0.65625 -0.28886,0.2749401 -0.5703121,0.698555 -0.5703121,0.859375 0,0.037 -0.038037,0.1269419 -0.085937,0.2011719 -0.18875,0.29047 -0.2987025,1.2174249 -0.1953125,1.6406249 0.28196,1.15404 0.8461741,1.760395 2.2089841,2.365234 0.43101,0.190811 0.557618,0.304108 0.236328,0.210938 -0.29473,-0.085 -0.70484,-0.251367 -0.83789,-0.341797 -0.1473,-0.1 -0.175781,-0.105131 -0.175781,-0.02539 0,0.0425 -0.07631,0.01444 -0.261719,-0.09766 -0.14507,-0.0866 -0.280112,-0.150188 -0.300781,-0.136718 -0.10924,0.0641 0.601601,0.5322 1.082031,0.71289 0.70807,0.26052 1.512088,0.371291 2.111328,0.275391 0.35217,-0.0567 0.943793,-0.305651 0.876953,-0.369141 -0.0283,-0.0176 -0.08207,-0.01603 -0.164062,0.01367 -0.205371,0.0744 -0.659182,0.153914 -1.044922,0.183594 -0.29442,0.023 -0.415461,0.01253 -0.619141,-0.04687 l -0.25,-0.07422 0.509766,-0.0293 c 0.56759,-0.0309 0.904883,-0.09621 1.408203,-0.271484 0.85372,-0.29763 1.607264,-0.927238 2.083984,-1.742188 0.17651,-0.30195 0.234375,-0.353604 0.234375,-0.208984 0,0.11533 0.102384,0.07863 0.121094,-0.04297 0.008,-0.0528 -0.0051,-0.163131 -0.0332,-0.24414 -0.0383,-0.11154 -0.03955,-0.186623 -0.002,-0.320313 0.0447,-0.15938 0.05394,-0.167894 0.11914,-0.115234 0.15969,0.13001 0.178254,0.123796 0.152344,-0.05859 -0.0138,-0.0968 0.0067,-0.325292 0.04492,-0.513672 0.0373,-0.18648 0.07012,-0.4509606 0.07422,-0.5878906 l 0.0078,-0.25 0.02539,0.234375 c 0.0254,0.24038 0.09857,0.3180294 0.123047,0.1308594 0.0131,-0.10016 -0.03456,-0.3565138 -0.09766,-0.5273438 -0.0294,-0.077 -0.02664,-0.077 0.03906,0 0.10345,0.12073 0.115562,0.057178 0.04492,-0.2011719 -0.0466,-0.17015 -0.05476,-0.3310087 -0.03516,-0.5742187 0.0266,-0.33 0.0039,-0.3942488 -0.101563,-0.2929688 -0.0679,0.0647 -0.194069,-0.1790287 -0.199219,-0.3867187 -0.003,-0.11317 -0.03054,-0.1865419 -0.08984,-0.2324219 -0.0475,-0.0368 -0.122618,-0.1249888 -0.167968,-0.1992188 l -0.08203,-0.1367187 0.119141,0.091797 c 0.0666,0.05 0.130035,0.083812 0.140625,0.070312 0.0107,-0.0101 -0.03623,-0.1135919 -0.105469,-0.2324219 -0.0692,-0.11843 -0.15089,-0.281095 -0.18164,-0.359375 -0.0949,-0.24051 -0.30477,-0.4075869 -0.34961,-0.2792969 -0.008,0.0234 -0.05577,-0.036992 -0.107421,-0.1328125 l -0.0957,-0.1738281 0.0957,-0.015625 c 0.0522,-0.007 0.116248,-0.037913 0.142578,-0.070312 0.0393,-0.0482 0.09071,-0.010846 0.283203,0.2148438 0.12891,0.15097 0.364017,0.4657487 0.523437,0.6992187 0.15942,0.23336 0.295438,0.4025731 0.304688,0.3769531 0.0209,-0.0595 -0.06402,-0.220225 -0.375,-0.703125 -0.13796,-0.21416 -0.25,-0.4124131 -0.25,-0.4394531 0,-0.0267 -0.03191,-0.1061344 -0.07031,-0.1777344 l -0.07031,-0.1289062 0.0918,0.078125 c 0.15957,0.13544 0.148888,0.032947 -0.01953,-0.1894531 -0.7101,-0.9381201 -1.665983,-1.6041957 -2.839843,-1.9785157 -0.3641,-0.1188 -0.457582,-0.1198087 -0.363282,-0.011719 0.0496,0.058 0.03927,0.058 -0.07813,0 -0.072,-0.0351 -0.155107,-0.093846 -0.185546,-0.1289063 C 13.294337,3.0172531 13.194298,2.9949 13.080078,3 Z m 1.351563,5.6035156 c -0.0393,-0.008 -0.0725,0.022603 -0.0918,0.095703 -0.0188,0.0712 1.56e-4,0.1395393 0.06641,0.2246093 h 0.002 c 0.16131,0.20769 0.260291,0.084033 0.144531,-0.1796875 -0.0372,-0.0851 -0.08178,-0.132475 -0.121093,-0.140625 z m 2.791015,0.00977 c 0.0046,-0.00406 0.01078,0.00138 0.01758,0.017578 0.0115,0.0292 0.01009,0.062972 -0.0039,0.076172 -0.0142,0.0149 -0.02544,-0.00943 -0.02344,-0.052734 0.001,-0.02365 0.0052,-0.036953 0.0098,-0.041016 z m -2.689453,1.0625 c -0.0208,-0.0122 -0.05236,0.079712 -0.06836,0.2011719 -0.0172,0.1309999 -0.06301,0.2585199 -0.113282,0.3124999 l -0.08594,0.0918 0.01953,-0.09961 c 0.0108,-0.0558 0.03358,-0.162785 0.05078,-0.2343754 0.0476,-0.20149 -0.03858,-0.1585931 -0.121094,0.060546 -0.096,0.25496 -0.09156,0.328497 0.02344,0.373047 v 0.002 c 0.18789,0.072 0.233423,0.04958 0.283203,-0.138671 0.0574,-0.21566 0.06442,-0.5372697 0.01172,-0.5683598 z m -0.824219,1.2558598 c -0.01035,-0.0073 -0.10111,0.02033 -0.205078,0.06445 -0.10487,0.0446 -0.281278,0.100017 -0.392578,0.123047 -0.19383,0.039 -0.269371,0.124051 -0.15039,0.169921 0.0293,0.009 0.158239,0.02344 0.287109,0.02344 0.23286,0.003 0.237835,0.0013 0.359375,-0.181641 0.06642,-0.100675 0.109438,-0.184281 0.101562,-0.199218 z m -3.447265,0.910156 c -0.0911,0 -0.02028,0.117114 0.205078,0.333984 0.13399,0.12897 0.251642,0.236328 0.257812,0.236328 0.007,0 0.01172,-0.02248 0.01172,-0.05078 0,-0.0597 -0.419899,-0.519531 -0.474609,-0.519531 z m -0.132813,0.40625 c -0.018,0 -0.0332,0.05321 -0.0332,0.115234 0,0.11735 0.161773,0.268443 0.595703,0.564453 0.11237,0.0729 0.199735,0.114951 0.208985,0.08789 0.0159,-0.0454 -0.708032,-0.767578 -0.769532,-0.767578 z m 1.011719,0.480469 0.115234,0.07031 c 0.0644,0.0379 0.119141,0.06863 0.119141,0.08203 0,0.0324 -0.0367,0.01459 -0.134766,-0.06641 z"
       />
</svg>
