<svg xmlns="http://www.w3.org/2000/svg" viewBox="0 0 22 22">
  <defs id="defs3051">
    <style type="text/css" id="current-color-scheme">
      .ColorScheme-Text {
        color:#232629
      }
      </style>
  </defs>
    <path
       style="fill:currentColor"
       d="M 11 3.0175781 C 10.71722 3.0175781 10.486328 3.2465269 10.486328 3.5292969 L 10.486328 3.9960938 C 9.5749758 4.2299984 8.9199219 5.0382898 8.9199219 6.0097656 C 8.9199219 6.6897456 9.2452431 7.2949312 9.7519531 7.6757812 C 9.8058531 7.7395813 9.8378906 7.8202562 9.8378906 7.9101562 C 9.8378906 7.9363563 9.8389375 7.9618281 9.8359375 7.9863281 L 7.5839844 12.759766 L 6.6503906 12.759766 C 6.4983706 12.759766 6.375 12.881183 6.375 13.033203 L 6.375 13.035156 C 6.375 13.187176 6.4983706 13.310547 6.6503906 13.310547 L 7.3242188 13.310547 L 5.5859375 16.996094 C 5.4764275 17.229834 5.5295119 17.498928 5.7011719 17.673828 L 5.03125 19.037109 L 6.0898438 17.888672 C 6.3709938 17.962272 6.6732912 17.828274 6.8007812 17.558594 L 8.8046875 13.310547 L 10.566406 13.310547 L 10.566406 13.675781 C 10.566406 13.907891 10.754541 14.095703 10.988281 14.095703 L 11.011719 14.095703 C 11.245459 14.095703 11.435547 13.907891 11.435547 13.675781 L 11.435547 13.310547 L 13.238281 13.310547 L 15.242188 17.558594 C 15.368047 17.829934 15.671662 17.962232 15.951172 17.888672 L 17.009766 19.037109 L 16.339844 17.673828 C 16.509834 17.498928 16.566551 17.231474 16.457031 16.996094 L 14.71875 13.310547 L 15.347656 13.310547 C 15.501306 13.310547 15.625 13.187176 15.625 13.035156 C 15.625 12.883146 15.501306 12.761766 15.347656 12.759766 L 14.458984 12.759766 L 12.207031 7.9863281 C 12.204031 7.9618281 12.203125 7.9362563 12.203125 7.9101562 C 12.203125 7.8218562 12.236762 7.7395313 12.289062 7.6757812 C 12.795772 7.2949312 13.123047 6.6897456 13.123047 6.0097656 C 13.123047 5.025061 12.435502 4.2079263 11.513672 3.9863281 L 11.513672 3.5292969 C 11.513672 3.2465269 11.28441 3.0175781 11 3.0175781 z M 11.490234 4.9042969 C 11.924212 5.0862437 12.228516 5.511382 12.228516 6.0097656 C 12.228516 6.6733956 11.688384 7.2109375 11.021484 7.2109375 C 10.351314 7.2109375 9.8164062 6.6733956 9.8164062 6.0097656 C 9.8164062 5.5284167 10.103453 5.1193776 10.515625 4.9277344 C 10.578304 5.1385765 10.766473 5.296875 11 5.296875 C 11.240578 5.296875 11.435086 5.1275116 11.490234 4.9042969 z M 11.011719 8.8945312 L 11.023438 8.8945312 L 11.033203 8.8945312 C 11.098603 8.8945312 11.155446 8.9250031 11.191406 8.9707031 L 12.978516 12.759766 L 11.435547 12.759766 L 11.435547 12.316406 C 11.435547 12.082656 11.245459 11.894531 11.011719 11.894531 L 10.988281 11.894531 C 10.754541 11.894531 10.566406 12.084296 10.566406 12.316406 L 10.566406 12.759766 L 9.0644531 12.759766 L 10.851562 8.9707031 C 10.889162 8.9233031 10.946339 8.8945312 11.011719 8.8945312 z "
       class="ColorScheme-Text" />
</svg>
