<svg xmlns="http://www.w3.org/2000/svg" viewBox="0 0 22 22">
  <defs id="defs3051">
    <style type="text/css" id="current-color-scheme">
      .ColorScheme-Text {
        color:#232629
      }
      </style>
  </defs>
    <path
       style="fill:#f89406"
       d="M 10.5 3 A 0.5 0.5 0 0 0 10.150391 3.1503906 A 0.5 0.5 0 0 0 10.150391 3.8496094 L 14.400391 8.0996094 A 5.5 5.5 0 0 0 13.5 8 L 3.5 8 A 0.5 0.5 0 0 0 3 8.5 A 0.5 0.5 0 0 0 3.5 9 L 10.34375 9 A 5.5 5.5 0 0 0 9.1503906 10.150391 L 3.1503906 16.150391 A 0.5 0.5 0 0 0 3.1503906 16.849609 A 0.5 0.5 0 0 0 3.8496094 16.849609 L 8.0996094 12.640625 A 5.5 5.5 0 0 0 8 13.5 A 5.5 5.5 0 0 0 13.5 19 A 5.5 5.5 0 0 0 19 13.5 A 5.5 5.5 0 0 0 16.839844 9.140625 L 10.849609 3.1503906 A 0.5 0.5 0 0 0 10.5 3 z M 13.5 9 A 4.5 4.5 0 0 1 18 13.5 A 4.5 4.5 0 0 1 13.5 18 A 4.5 4.5 0 0 1 9 13.5 A 4.5 4.5 0 0 1 13.5 9 z M 13.5 12 A 1.5 1.5 0 0 0 12 13.5 A 1.5 1.5 0 0 0 13.5 15 A 1.5 1.5 0 0 0 15 13.5 A 1.5 1.5 0 0 0 13.5 12 z "
       />
</svg>
