<svg xmlns="http://www.w3.org/2000/svg" viewBox="0 0 22 22">
  <defs id="defs3051">
    <style type="text/css" id="current-color-scheme">
      .ColorScheme-Text {
        color:#232629
      }
      </style>
  </defs>
    <path
       style="fill:currentColor"
       d="M 3 3 L 3 19 L 19 19 L 19 3 L 3 3 z M 4 6 L 18 6 L 18 18 L 4 18 L 4 6 z M 7 8 L 7 11.5 L 10.5 11.5 L 10.5 8 L 7 8 z M 11.5 8 L 11.5 11.5 L 15 11.5 L 15 8 L 11.5 8 z M 7 12.5 L 7 16 L 10.5 16 L 10.5 12.5 L 7 12.5 z M 11.5 12.5 L 11.5 16 L 15 16 L 15 12.5 L 11.5 12.5 z "
       class="ColorScheme-Text" />
</svg>
