<svg xmlns="http://www.w3.org/2000/svg" viewBox="0 0 22 22">
  <defs id="defs3051">
    <style type="text/css" id="current-color-scheme">
      .ColorScheme-Text {
        color:#232629;
      }
      </style>
  </defs>
    <path
       style="fill:currentColor"
       d="M 14 3 C 12.3 3 11 4.3 11 6 C 11 7.7 12.3 9 14 9 C 15.7 9 17 7.7 17 6 C 17 4.3 15.7 3 14 3 z M 14 4 A 2 2 0 0 1 16 6 A 2 2 0 0 1 14 8 A 2 2 0 0 1 12 6 A 2 2 0 0 1 14 4 z M 8 6 C 6.3 6 5 7.3 5 9 C 5 10.7 6.3 12 8 12 C 9.7 12 11 10.7 11 9 C 11 7.3 9.7 6 8 6 z M 8 7 A 2 2 0 0 1 10 9 A 2 2 0 0 1 8 11 A 2 2 0 0 1 6 9 A 2 2 0 0 1 8 7 z M 14 10 C 13.4 10 12.7 10.1 12.2 10.4 L 12.6 11.3 C 13 11.1 13.5 11 14 11 C 16.2 11 18 12.8 18 15 L 14.5 15 L 15 16 L 19 16 L 19 15 C 19 12.2 16.8 10 14 10 z M 8 13 C 5.2 13 3 15.2 3 18 L 3 19 L 13 19 L 13 18 C 13 15.2 10.8 13 8 13 z M 8 14 C 10.2 14 12 15.8 12 18 L 4 18 C 4 15.8 5.8 14 8 14 z "
        class="ColorScheme-Text"
       />
</svg>
