<svg xmlns="http://www.w3.org/2000/svg" viewBox="0 0 22 22">
  <defs id="defs3051">
    <style type="text/css" id="current-color-scheme">
      .ColorScheme-Text {
        color:#232629
      }
      </style>
  </defs>
    <path
       style="fill:currentColor"
       d="M 3 3 L 3 4 L 3 5 L 3 6 L 1 9 L 1 10 L 1 11.4 L 1 12 L 1 18 L 1 18.4 L 1 19 L 2 19 L 8 19 L 14 19 L 20 19 L 21 19 L 21 18 L 21 12 L 21 11.4 L 21 10 L 21 9 L 19 6 L 19 3 L 4 3 L 3 3 z M 4 4 L 18 4 L 18 6 L 18 8.8 L 11 12.8 L 4 8.8 L 4 5 L 4 4 z M 5 5 L 5 6 L 5 6 L 5 6 L 17 6 L 17 6 L 17 6 L 17 5 L 5 5 z M 5 7 L 5 8 L 12 8 L 12 7 L 5 7 z M 2 10 L 2.4 10 L 3 10 L 4 10 L 11 14 L 18 10 L 18 10 L 19 10 L 20 10 L 20 10.4 L 20 11 L 20 12 L 20 18 L 14 18 L 2 18 L 2 17.4 L 2 16 L 2 12 L 2 11 L 2 10.4 L 2 10 z "
       class="ColorScheme-Text" />
</svg>
