<svg xmlns="http://www.w3.org/2000/svg" viewBox="0 0 32 32">
    <defs id="defs3051">
        <style type="text/css" id="current-color-scheme">
            .ColorScheme-Text {
                color:#232629;
            }
        </style>
    </defs>
    <path style="fill:currentColor;fill-opacity:1;stroke:none"
        d="M 16 16 m -13 0 a 12 12 0 1 0 26 0 a 12 12 0 1 0 -26 0 z M 16 16 m -12 0 a 11 11 0 1 1 24 0 a 11 11 0 1 1 -24 0 z M 24 8 L 13.8 13.8 L 8 24 L 18.2 18.2 z M 16 16 m -1.5 0 a 0.5 0.5 0 1 1 3 0 a 0.5 0.5 0 1 1 -3 0 z M 3.5 15.8 L 3.5 17.2 L 6.5 16 z M 16.2 3.5 L 14.8 3.5 L 16 6.5 z M 28.5 16.2 L 28.5 14.8 L 25.5 16 z M 15.8 28.5 L 17.2 28.5 L 16 25.5 z"
        class="ColorScheme-Text"
        />
</svg>
