<svg id="svg54" version="1.1" viewBox="0 0 32 32" xmlns="http://www.w3.org/2000/svg" xmlns:xlink="http://www.w3.org/1999/xlink">
    <defs id="defs58">
        <linearGradient id="linearGradient1176">
            <stop id="stop1172" stop-opacity="0" offset="0"/>
            <stop id="stop1174" stop-opacity=".102" offset="1"/>
        </linearGradient>
        <linearGradient id="linearGradient4562">
            <stop id="stop4558" stop-color="#fcfcfc" offset="0"/>
            <stop id="stop4560" stop-color="#eff0f1" offset="1"/>
        </linearGradient>
        <linearGradient id="linearGradient4227">
            <stop id="stop4229" stop-color="#292c2f" offset="0"/>
            <stop id="stop4231" stop-opacity="0" offset="1"/>
        </linearGradient>
        <style id="current-color-scheme" type="text/css">.ColorScheme-Text {
        color:#232629;
      }</style>
        <style id="current-color-scheme-3" type="text/css">.ColorScheme-Text {
        color:#232629;
      }</style>
        <linearGradient id="linearGradient4564" x1="5" x2="29" y1="17" y2="17" gradientTransform="matrix(.25 0 0 .88235294 2.75 12)" gradientUnits="userSpaceOnUse" xlink:href="#linearGradient4562"/>
        <linearGradient id="linearGradient4191-7" x1="13.428571" x2="59.857143" y1="20.857141" y2="71" gradientTransform="matrix(.53846154 0 0 .53846154 1.769231 -8.2307692)" gradientUnits="userSpaceOnUse" xlink:href="#linearGradient4227"/>
        <linearGradient id="linearGradient4728" x1="20" x2="15" y1="10" gradientUnits="userSpaceOnUse">
            <stop id="stop4720" offset="0"/>
            <stop id="stop4722" stop-opacity=".471" offset="1"/>
        </linearGradient>
        <linearGradient id="linearGradient4564-3" x1="16" x2="29" y1="2.8730469" y2="10" gradientUnits="userSpaceOnUse" xlink:href="#linearGradient4562"/>
        <linearGradient id="linearGradient4191-7-9" x1="13.428571" x2="59.857143" y1="20.857141" y2="71" gradientTransform="matrix(.53846154 0 0 .53846154 -4.230769 -8.230769)" gradientUnits="userSpaceOnUse" xlink:href="#linearGradient4227"/>
        <linearGradient id="linearGradient4564-0" x1="5" x2="5" y2="17" gradientTransform="matrix(1.1666667 0 0 .17647059 -3.8333333 27)" gradientUnits="userSpaceOnUse" xlink:href="#linearGradient4562"/>
        <linearGradient id="linearGradient1629" x1="28" x2="4" y1="12" y2="27" gradientUnits="userSpaceOnUse">
            <stop id="stop1623" offset="0"/>
            <stop id="stop1625" stop-opacity=".502" offset="1"/>
        </linearGradient>
        <linearGradient id="linearGradient4564-6" x1="5" x2="29" y1="17" y2="17" gradientTransform="matrix(.25 0 0 .88235294 20.75 12)" gradientUnits="userSpaceOnUse" xlink:href="#linearGradient4562"/>
        <linearGradient id="linearGradient1716" x1="13" x2="23" y1="17" y2="27" gradientUnits="userSpaceOnUse">
            <stop id="stop1710" stop-color="#292c2f" stop-opacity=".251" offset="0"/>
            <stop id="stop1712" stop-color="#292c2f" stop-opacity=".1" offset="1"/>
        </linearGradient>
        <linearGradient id="linearGradient4564-36" x1="5" x2="29" y1="17" y2="11.333333" gradientTransform="matrix(.25 0 0 .88235294 2.75 12)" gradientUnits="userSpaceOnUse" xlink:href="#linearGradient1176"/>
        <linearGradient id="linearGradient4564-36-1" x1="5" x2="29" y1="17" y2="11.333333" gradientTransform="matrix(.25 0 0 .88235294 20.75 12)" gradientUnits="userSpaceOnUse" xlink:href="#linearGradient1176"/>
        <linearGradient id="linearGradient4564-9" x1="5" x2="29" y1="17" y2="17" gradientTransform="matrix(.5 0 0 .88235294 7.5 12)" gradientUnits="userSpaceOnUse" xlink:href="#linearGradient4562"/>
        <linearGradient id="linearGradient1276" x1="23" x2="18" y1="27" y2="22" gradientTransform="translate(0,-17)" gradientUnits="userSpaceOnUse">
            <stop id="stop1278" stop-color="#292c2f" stop-opacity=".149" offset="0"/>
            <stop id="stop1280" stop-color="#292c2f" stop-opacity=".1" offset="1"/>
        </linearGradient>
        <linearGradient id="linearGradient1202" x1="13" x2="19" y1="21" y2="27" gradientUnits="userSpaceOnUse">
            <stop id="stop1196" stop-opacity=".2" offset="0"/>
            <stop id="stop1198" stop-opacity="0" offset="1"/>
        </linearGradient>
    </defs>
    <g id="g1674">
        <path id="path83-6" d="m3 28h-1v2h28v-2h-1v-1h-26z" fill="url(#linearGradient4564-0)"/>
        <rect id="rect4730-2" x="2" y="29" width="28" height="1" opacity=".4" stroke-width=".76376259"/>
        <rect id="rect4730-2-06" x="3" y="27" width="26" height="1" opacity=".25500039" stroke-width=".73598003"/>
    </g>
    <g id="g1663">
        <path id="path83-9" d="m22 12v15h6v-15z" fill="url(#linearGradient4564-6)"/>
        <path id="path83-0" d="m10 12v15h12v-15z" fill="url(#linearGradient4564-9)"/>
        <path id="path83" d="m4 12v15h6v-15z" fill="url(#linearGradient4564)"/>
        <path id="path83-3" d="m4 12v15h6v-15z" fill="url(#linearGradient4564-36)"/>
        <path id="path83-3-0" d="m22 12v15h6v-15z" fill="url(#linearGradient4564-36-1)"/>
        <path id="path4771" d="m4 12v15h1v-15zm5 0v15h1v-15zm13 0v15h1v-15zm5 0v15h1v-15z" fill="url(#linearGradient1629)" opacity=".25500039"/>
    </g>
    <rect id="rect4730" x="13" y="19" width="6" height="8" opacity=".6"/>
    <rect id="rect4730-6" x="13" y="19" width="6" height="8" fill="url(#linearGradient1202)" opacity=".6"/>
    <g id="g1634">
        <path id="path83-2" d="M 16,1.7324219 2,9.40625 V 12 H 30 V 9.40625 Z" fill="url(#linearGradient4564-3)"/>
        <path id="path908" d="m16 1.7324219-14 7.6738281v2.59375h28v-2.59375zm0 1.140625 13 7.1269531v1h-26v-1z" color="#000000" color-rendering="auto" dominant-baseline="auto" fill="url(#linearGradient4728)" image-rendering="auto" opacity=".23500001" shape-rendering="auto" solid-color="#000000" style="font-feature-settings:normal;font-variant-alternates:normal;font-variant-caps:normal;font-variant-ligatures:normal;font-variant-numeric:normal;font-variant-position:normal;isolation:auto;mix-blend-mode:normal;shape-padding:0;text-decoration-color:#000000;text-decoration-line:none;text-decoration-style:solid;text-indent:0;text-orientation:mixed;text-transform:none;white-space:normal"/>
        <rect id="rect4730-2-0" x="2" y="11" width="28" height="1" opacity=".2" stroke-width=".76376259"/>
    </g>
    <g fill-rule="evenodd" stroke-width=".53846198">
        <path id="path4186-5-7" d="m4 12 18 18h8v-2h-1v-1h-1v-15z" fill="url(#linearGradient4191-7-9)" opacity=".2"/>
        <path id="path4186" d="m9 12 1 16h13l-1-16z" fill="url(#linearGradient1716)"/>
        <path id="path4186-5" d="m10 12 18 18h2v-2h-1v-1h-1v-15z" fill="url(#linearGradient4191-7)" opacity=".2"/>
        <path id="path4186-1" d="m27 8.902v1.098h-24v1h26v-1z" fill="url(#linearGradient1276)"/>
    </g>
</svg>
