<svg xmlns="http://www.w3.org/2000/svg" viewBox="0 0 96 96">
  <defs id="defs3051">
    <style type="text/css" id="current-color-scheme">
      .ColorScheme-Text {
        color:#232629;
      }
      .ColorScheme-Highlight {
        color:#3daee9;
      }
      </style>
  </defs>
 <path 
     style="fill:currentColor" 
     d="M 6 9 L 6 30 L 5 30 L 5 87 L 91 87 L 91 24 L 90 24 L 90 15 L 48 15 L 42 9 L 6 9 z "
     class="ColorScheme-Highlight"
     />
 <path 
     style="fill-opacity:0.33"
     d="M 6 9 L 6 30 L 33 30 L 39 24 L 90 24 L 90 15 L 48 15 L 42 9 L 6 9 z "
     />
 <path 
     style="fill:#ffffff;fill-opacity:0.2"
     d="M 42 9 L 47 16 L 90 16 L 90 15 L 48 15 L 42 9 z M 39 24 L 33 30 L 5 30 L 5 31 L 34 31 L 39 24 z "
     />
 <path 
     style="fill-opacity:0.2;fill-rule:evenodd"
     d="M 39 24 L 32 29 L 6 29 L 6 30 L 33 30 L 39 24 z M 5 86 L 5 87 L 91 87 L 91 86 L 5 86 z "
     class="ColorScheme-Text"
     />
 <path 
     style="fill:currentColor;fill-opacity:0.6;stroke:none"  
     d="M 38 41 L 38 50 L 33 50 L 33 65 L 40 65 L 40 71 L 56 71 L 56 65 L 63 65 L 63 50 L 58 50 L 58 41 L 38 41 z M 39 42 L 57 42 L 57 50 L 39 50 L 39 42 z M 40 44 L 40 45 L 56 45 L 56 44 L 40 44 z M 40 47 L 40 48 L 56 48 L 56 47 L 40 47 z M 34 51 L 62 51 L 62 64 L 57 64 L 57 59 L 39 59 L 39 64 L 34 64 L 34 51 z M 54 55 L 54 56 L 58 56 L 58 55 L 54 55 z M 41 65 L 55 65 L 55 70 L 41 70 L 41 65 z "
     class="ColorScheme-Text"
     />
</svg>
