<svg xmlns="http://www.w3.org/2000/svg" viewBox="0 0 96 96">
  <defs id="defs3051">
    <style type="text/css" id="current-color-scheme">
      .ColorScheme-Text {
        color:#232629;
      }
      .ColorScheme-Highlight {
        color:#3daee9;
      }
      </style>
  </defs>
 <path 
     style="fill:currentColor" 
     d="M 6 9 L 6 30 L 5 30 L 5 87 L 91 87 L 91 24 L 90 24 L 90 15 L 48 15 L 42 9 L 6 9 z "
     class="ColorScheme-Highlight"
     />
 <path 
     style="fill-opacity:0.33"
     d="M 6 9 L 6 30 L 33 30 L 39 24 L 90 24 L 90 15 L 48 15 L 42 9 L 6 9 z "
     />
 <path 
     style="fill:#ffffff;fill-opacity:0.2"
     d="M 42 9 L 47 16 L 90 16 L 90 15 L 48 15 L 42 9 z M 39 24 L 33 30 L 5 30 L 5 31 L 34 31 L 39 24 z "
     />
 <path 
     style="fill-opacity:0.2;fill-rule:evenodd"
     d="M 39 24 L 32 29 L 6 29 L 6 30 L 33 30 L 39 24 z M 5 86 L 5 87 L 91 87 L 91 86 L 5 86 z "
     class="ColorScheme-Text"
     />
 <path 
     style="fill:currentColor;fill-opacity:0.6;stroke:none"  
     d="M 47.9 41 C 44 41 41 44.2 41 48 C 41 51.9 44.1 55 48 55 C 51.9 55 55 51.9 55 48 C 55 44.1 51.9 41 48 41 C 48 41 47.9375 41 47.9 41 z M 48 42 C 51.3 42 54 44.7 54 48 C 54 51.3 51.3 54 48 54 C 44.7 54 42 51.3 42 48 C 42 44.7 44.7 42 48 42 z M 47.9 58 C 40.4 58 34.1 63.6 33.1 71 L 62.9 71 C 61.9 63.5 55.5 58 48 58 C 48 58 48 58 48 58 z M 48 59 C 47.9 59 48 59 48 59 C 54.6 59 60.3 63.6 61.7 70 L 34.3 70 C 35.7 63.6 41.3 59.1 47.8 59 z "
     class="ColorScheme-Text"
     />
</svg>
