<svg xmlns="http://www.w3.org/2000/svg" viewBox="0 0 96 96">
  <defs id="defs3051">
    <style type="text/css" id="current-color-scheme">
      .ColorScheme-Text {
        color:#232629;
      }
      .ColorScheme-Highlight {
        color:#3daee9;
      }
      </style>
  </defs>
 <path 
     style="fill:currentColor" 
     d="M 6 9 L 6 30 L 5 30 L 5 87 L 91 87 L 91 24 L 90 24 L 90 15 L 48 15 L 42 9 L 6 9 z "
     class="ColorScheme-Highlight"
     />
 <path 
     style="fill-opacity:0.33"
     d="M 6 9 L 6 30 L 33 30 L 39 24 L 90 24 L 90 15 L 48 15 L 42 9 L 6 9 z "
     />
 <path 
     style="fill:#ffffff;fill-opacity:0.2"
     d="M 42 9 L 47 16 L 90 16 L 90 15 L 48 15 L 42 9 z M 39 24 L 33 30 L 5 30 L 5 31 L 34 31 L 39 24 z "
     />
 <path 
     style="fill-opacity:0.2;fill-rule:evenodd"
     d="M 39 24 L 32 29 L 6 29 L 6 30 L 33 30 L 39 24 z M 5 86 L 5 87 L 91 87 L 91 86 L 5 86 z "
     class="ColorScheme-Text"
     />
 <path 
     style="fill:currentColor;fill-opacity:0.6;stroke:none"  
     d="M 43.5 41 C 40.5 41 38 43.5 38 46.5 C 38 49.5 40.5 52 43.5 52 C 46.5 52 49 49.5 49 46.5 C 49 43.5 46.5 41 43.5 41 z M 43.5 42 C 46 42 48 44 48 46.5 C 48 49 46 51 43.5 51 C 41 51 39 49 39 46.5 C 39 44 41 42 43.5 42 z M 57 43 C 54.8 43 53 44.8 53 47 C 53 49.2 54.8 51 57 51 C 59.2 51 61 49.2 61 47 C 61 44.8 59.2 43 57 43 z M 57 44 C 58.7 44 60 45.3 60 47 C 60 48.7 58.7 50 57 50 C 55.3 50 54 48.7 54 47 C 54 45.3 55.3431 44 57 44 z M 57 53 C 55.3 53 53.8 53.7 52.7 54.8 C 53 55 53.2 55.2 53.5 55.5 C 54.4 54.6 55.6 54 57 54 C 59.8 54 62 56.2 62 59 L 62 64 L 57 64 C 57 64 57 65 57 65 L 63 65 L 63 59 C 63 55.7 60.3 53 57 53 z M 43.5 55 C 37.7 55 33 59.701 33 65.5 L 33 71 L 54 71 L 54 65.5 C 54 59.701 49.299 55 43.5 55 z M 43.5 56 C 48.7 56 53 60.2 53 65.5 L 53 70 L 34 70 L 34 65.5 C 34 60.2 38.2 56 43.5 56 z "
     class="ColorScheme-Text"
     />
</svg>
