<svg xmlns="http://www.w3.org/2000/svg" viewBox="0 0 48 48">
  <defs id="defs3051">
    <style type="text/css" id="current-color-scheme">
      .ColorScheme-Text {
        color:#232629;
      }
      .ColorScheme-Highlight {
        color:#3daee9;
      }
      </style>
  </defs>
  <path
     style="fill:#5c5c5c" 
     d="M 5,6 V 16 H 4 V 42 H 44 V 13 H 43 V 9 H 24 L 21,6 Z"
     />
  <path
     style="fill-opacity:0.33"
     d="m 5,6 v 10 h 12 l 3,-3 H 43 V 9 H 24 L 21,6 Z"
     />
  <path
     style="fill:#ffffff;fill-opacity:0.2"
     d="m 21,6 2,4 H 43 V 9 H 24 Z m -1,7 -3,3 H 4 v 1 h 14 z"
     />
  <path
     style="fill-opacity:0.4;fill-rule:evenodd"
     d="m 20,13 -4,2 H 5 v 1 H 17 Z M 4,41 v 1 c 0,0 40,0 40,0 v -1 z"
     class="ColorScheme-Text"
     />
  <path
     style="fill-opacity:0.2;fill-rule:evenodd"
     d="M 22 13 L 22 16 L 25 16 L 25 13 L 22 13 z M 25 16 L 25 19 L 28 19 L 28 16 L 25 16 z M 28 16 L 31 16 L 31 13 L 28 13 L 28 16 z M 31 16 L 31 19 L 34 19 L 34 16 L 31 16 z M 34 16 L 37 16 L 37 13 L 34 13 L 34 16 z M 37 16 L 37 19 L 40 19 L 40 16 L 37 16 z M 40 16 L 43 16 L 43 13 L 40 13 L 40 16 z M 43 16 L 43 19 L 44 19 L 44 16 L 43 16 z M 43 19 L 40 19 L 40 22 L 43 22 L 43 19 z M 37 19 L 34 19 L 34 22 L 37 22 L 37 19 z M 31 19 L 28 19 L 28 22 L 31 22 L 31 19 z M 25 19 L 22 19 L 22 22 L 25 22 L 25 19 z M 22 19 L 22 16 L 19 16 L 19 19 L 22 19 z M 19 19 L 16 19 L 16 22 L 19 22 L 19 19 z M 16 19 L 16 16 L 13 16 L 13 19 L 16 19 z M 13 19 L 10 19 L 10 22 L 13 22 L 13 19 z M 10 19 L 10 16 L 7 16 L 7 19 L 10 19 z M 7 19 L 4 19 L 4 22 L 7 22 L 7 19 z M 19 16 L 19 14 L 17 16 L 19 16 z "
     class="ColorScheme-Text"
     />
  <path
     style="fill:currentColor;fill-opacity:0.6;stroke:none"  
     d="M 24 22 C 22.3 22 21 23.3 21 25 L 21 26 L 22 26 L 22 25 C 22 23.9 22.9 23 24 23 C 25.1 23 26 23.9 26 25 L 26 28 L 19 28 L 19 34 L 29 34 L 29 28 L 27 28 L 27 25 C 27 23.3 25.6 22 24 22 z M 20 29 L 28 29 L 28 33 L 20 33 L 20 29 z "
     class="ColorScheme-Text"
     />
</svg>
