<svg xmlns="http://www.w3.org/2000/svg" viewBox="0 0 48 48">
  <defs id="defs3051">
    <style type="text/css" id="current-color-scheme">
      .ColorScheme-Text {
        color:#31363b;
      }
      .ColorScheme-Highlight {
        color:#3daee9;
      }
      </style>
  </defs>
  <path
     style="fill:currentColor;fill-opacity:1;stroke:none" 
     d="M 5,6 V 16 H 4 V 42 H 44 V 13 H 43 V 9 H 24 L 21,6 Z"
     class="ColorScheme-Highlight"
     />
  <path
     style="fill-opacity:0.33;fill-rule:evenodd"
     d="m 5,6 v 10 h 12 l 3,-3 H 43 V 9 H 24 L 21,6 Z"
     />
  <path
     style="fill:#ffffff;fill-opacity:0.2;fill-rule:evenodd"
     d="M 21 6 L 23 10 L 43 10 L 43 9 L 24 9 L 21 6 z M 20 13 L 17 16 L 4 16 L 4 17 L 18 17 L 20 13 z "
     />
  <path
     style="fill-opacity:0.2;fill-rule:evenodd"
     d="M 20 13 L 16 15 L 5 15 L 5 16 L 17 16 L 20 13 z M 4 41 L 4 42 C 4 42 44 42 44 42 L 44 41 L 4 41 z "
     class="ColorScheme-Text"
     />
 <path 
     style="fill:currentColor;fill-opacity:0.6;stroke:none" 
     d="M 24 22 C 20.686291 22 18 24.686287 18 28 C 18 31.313713 20.686291 34 24 34 C 27.313708 34 30 31.313713 30 28 C 30 24.686287 27.313708 22 24 22 z M 24 23 C 24.172589 23 24.331915 23.01418 24.5 23.03125 C 24.54034 23.03525 24.58496 23.02635 24.625 23.03125 C 24.67762 23.03795 24.729152 23.05421 24.78125 23.0625 C 24.924902 23.08508 25.048275 23.12172 25.1875 23.15625 C 25.444097 23.21955 25.698223 23.305044 25.9375 23.40625 C 26.069426 23.46205 26.186649 23.527236 26.3125 23.59375 C 26.312425 23.60275 26.3133 23.614 26.3125 23.625 C 26.34148 23.638 26.35728 23.69175 26.40625 23.71875 C 26.42423 23.72875 26.42056 23.741 26.4375 23.75 C 26.46648 23.766 26.50599 23.7835 26.5 23.8125 C 26.492 23.8525 26.43425 23.844 26.40625 23.875 C 26.41005 23.933 26.35871 23.92975 26.34375 23.96875 C 26.35275 23.99375 26.40229 24.00125 26.40625 24.03125 C 26.40135 24.06325 26.33173 24.06075 26.34375 24.09375 C 26.39776 24.13575 26.449004 24.10375 26.5 24.09375 C 26.611991 24.07975 26.712253 24.08825 26.78125 24.03125 C 26.77225 23.97825 26.88099 23.9856 26.875 23.9375 C 26.90366 23.95838 26.9403 23.97882 26.96875 24 C 26.95799 24.01008 26.94958 24.02585 26.9375 24.03125 C 26.91649 24.04125 26.89401 24.0505 26.875 24.0625 C 26.847 24.0805 26.81328 24.104 26.78125 24.125 C 26.75826 24.141 26.7115 24.21875 26.6875 24.21875 C 26.65851 24.21875 26.61475 24.1815 26.59375 24.1875 C 26.56372 24.1975 26.56519 24.238 26.53125 24.25 C 26.46526 24.274 26.335495 24.2135 26.3125 24.3125 C 26.3405 24.3695 26.450005 24.343 26.5 24.375 C 26.53102 24.395 26.58575 24.466 26.59375 24.5 C 26.60175 24.528 26.60574 24.6575 26.59375 24.6875 C 26.56273 24.7675 26.466988 24.751 26.375 24.75 L 26.3125 24.75 C 26.157516 24.74 26.007499 24.67025 25.9375 24.78125 C 25.9425 24.86625 25.95653 24.926 25.9375 25 C 25.92353 25.054 25.84075 25.10965 25.84375 25.15625 C 25.84485 25.18025 25.90026 25.216 25.90625 25.25 C 25.91005 25.268 25.89815 25.2955 25.90625 25.3125 C 25.93227 25.3615 25.98525 25.3025 26.03125 25.3125 C 26.07525 25.3225 26.125 25.3883 26.125 25.4375 C 26.125 25.4725 26.1158 25.5286 26.09375 25.5625 C 26.04975 25.6285 25.969247 25.62025 25.90625 25.65625 C 25.85428 25.68625 25.8435 25.7609 25.8125 25.8125 C 25.7795 25.8685 25.73698 25.88865 25.75 25.96875 C 25.70501 26.05775 25.65549 26.11325 25.5625 26.15625 C 25.5355 26.16825 25.49375 26.1695 25.46875 26.1875 C 25.44873 26.2015 25.43427 26.24925 25.40625 26.28125 C 25.37127 26.32025 25.3315 26.345 25.3125 26.375 C 25.29847 26.398 25.29621 26.43675 25.28125 26.46875 C 25.25925 26.51075 25.21549 26.5203 25.1875 26.5625 C 25.17452 26.5825 25.17022 26.63025 25.15625 26.65625 C 25.12424 26.71425 25.08775 26.7615 25.09375 26.8125 C 25.09875 26.8605 25.15325 26.86225 25.15625 26.90625 C 25.15895 26.93025 25.12401 26.94175 25.125 26.96875 C 25.1261 27.00675 25.15328 27.0325 25.15625 27.0625 C 25.16325 27.1365 25.10772 27.16815 25.09375 27.21875 C 25.08675 27.24275 25.09975 27.26125 25.09375 27.28125 C 25.08176 27.31825 25.03225 27.36205 25.03125 27.40625 C 25.03015 27.43725 25.09078 27.456 25.09375 27.5 C 25.09595 27.529 25.05651 27.56575 25.0625 27.59375 C 25.0735 27.64775 25.176757 27.708 25.21875 27.75 C 25.27575 27.807 25.350008 27.84625 25.375 27.90625 C 25.39601 27.95725 25.39853 28.05565 25.4375 28.09375 C 25.46648 28.12175 25.52551 28.12625 25.5625 28.15625 C 25.59748 28.18325 25.61925 28.18875 25.65625 28.21875 C 25.71724 28.26675 25.809252 28.382 25.90625 28.375 C 25.95724 28.365 26.0055 28.3225 26.0625 28.3125 C 26.1215 28.3025 26.190006 28.27625 26.25 28.28125 C 26.29598 28.29125 26.358253 28.3155 26.40625 28.3125 C 26.45624 28.3025 26.50551 28.3062 26.5625 28.28125 C 26.6615 28.23825 26.824766 28.1668 26.96875 28.1875 C 27.078739 28.2035 27.079255 28.326 27.15625 28.375 C 27.24424 28.385 27.305007 28.358 27.375 28.375 C 27.42802 28.388 27.495001 28.4584 27.5 28.5 C 27.505 28.543 27.44349 28.5978 27.4375 28.625 C 27.42353 28.683 27.4475 28.74425 27.4375 28.78125 C 27.4295 28.81025 27.40526 28.846 27.40625 28.875 C 27.40625 28.901 27.44173 28.9658 27.46875 29 C 27.50175 29.042 27.55375 29.0798 27.59375 29.125 C 27.66674 29.209 27.699004 29.29525 27.75 29.40625 C 27.76298 29.43425 27.73801 29.464 27.75 29.5 C 27.728 29.6679 27.67249 29.78285 27.5625 29.96875 C 27.51052 30.02875 27.436499 30.08135 27.4375 30.15625 C 27.4337 30.33625 27.53925 30.451 27.53125 30.625 C 27.51327 30.8589 27.54929 30.8751 27.53125 31 C 27.61025 31.04 27.55424 31.1669 27.53125 31.25 C 27.49726 31.349 27.4565 31.3715 27.4375 31.4375 C 27.49058 31.46064 27.566021 31.45109 27.625 31.4375 C 27.5952 31.46887 27.56184 31.50066 27.53125 31.53125 C 27.305044 31.757456 27.047252 31.976543 26.78125 32.15625 C 26.265207 32.504882 25.691241 32.769698 25.0625 32.90625 C 24.718961 32.980861 24.365889 33 24 33 C 23.809667 33 23.621865 32.98996 23.4375 32.96875 C 23.290639 32.95199 23.142714 32.93545 23 32.90625 C 22.716825 32.8483 22.451028 32.728616 22.1875 32.625 C 22.1781 32.60785 22.15412 32.58262 22.15625 32.5625 C 22.20822 32.5405 22.305756 32.6365 22.34375 32.5625 C 22.36278 32.5275 22.31873 32.44125 22.34375 32.40625 C 22.36173 32.38225 22.463007 32.382 22.5 32.375 C 22.55302 32.365 22.626253 32.35775 22.65625 32.34375 C 22.68925 32.32275 22.72475 32.2491 22.71875 32.1875 C 22.71605 32.1585 22.67919 32.151 22.65625 32.125 C 22.63727 32.103 22.66923 32.0835 22.65625 32.0625 C 22.63227 32.0275 22.5725 32.01975 22.5625 31.96875 C 22.6345 31.95475 22.739761 32.029 22.84375 32 C 22.89276 31.986 22.976999 31.88985 23 31.84375 C 23.007 31.82975 22.992 31.79925 23 31.78125 C 23.009 31.76325 23.02822 31.72875 23.03125 31.71875 C 23.03825 31.69175 23.02525 31.7055 23.03125 31.6875 C 23.04923 31.6365 23.095 31.5988 23.125 31.5625 C 23.14799 31.5345 23.19772 31.49775 23.21875 31.46875 C 23.24273 31.43775 23.23405 31.43425 23.25 31.40625 C 23.26501 31.31525 23.19675 31.23615 23.21875 31.15625 C 23.24273 31.06625 23.381762 31.00975 23.46875 30.96875 C 23.49873 30.95475 23.5375 30.9465 23.5625 30.9375 C 23.62249 30.9165 23.694004 30.895 23.75 30.875 C 23.84399 30.841 23.860248 30.7734 23.90625 30.6875 C 23.92825 30.6475 23.96474 30.5918 23.96875 30.5625 C 23.97255 30.5365 23.96375 30.531 23.96875 30.5 C 23.97375 30.471 23.96075 30.44025 23.96875 30.40625 C 23.97975 30.36325 24 30.26665 24 30.21875 C 24 30.17875 23.96974 30.161 23.96875 30.125 C 23.96175 29.995 24.01451 30.0085 24.0625 29.9375 C 24.08648 29.9025 24.10806 29.8376 24.125 29.8125 C 24.20599 29.6925 24.353749 29.65075 24.34375 29.46875 C 24.33995 29.40875 24.29398 29.269 24.25 29.25 C 24.22498 29.239 24.19325 29.23175 24.15625 29.21875 C 24.038258 29.17475 23.935485 29.04125 23.8125 29.03125 L 23.75 29.03125 C 23.70199 29.03125 23.647743 29.007 23.59375 29 C 23.55976 28.99 23.488748 29.01 23.46875 29 C 23.43773 28.985 23.43122 28.92325 23.40625 28.90625 C 23.38623 28.89225 23.34349 28.886 23.3125 28.875 C 23.26349 28.857 23.2445 28.8165 23.1875 28.8125 C 23.16952 28.8125 23.14498 28.8225 23.125 28.8125 C 23.09398 28.8025 23.06025 28.79925 23.03125 28.78125 C 22.99528 28.75925 22.9525 28.74975 22.9375 28.71875 C 22.9705 28.61085 22.86575 28.59425 22.84375 28.53125 C 22.83374 28.50225 22.85376 28.43225 22.84375 28.40625 C 22.83077 28.36925 22.791 28.3435 22.75 28.3125 C 22.678 28.2565 22.634243 28.23165 22.53125 28.21875 C 22.48527 28.20875 22.429994 28.22875 22.375 28.21875 C 22.317008 28.20875 22.231494 28.175 22.1875 28.125 C 22.14548 28.076 22.130744 28.0231 22.09375 28 C 22.05877 27.978 22.023996 27.9605 22 27.9375 C 21.989 27.9275 21.97876 27.9292 21.96875 27.90625 C 21.95077 27.86925 21.9155 27.8575 21.9375 27.8125 C 21.89751 27.7925 21.91799 27.85075 21.875 27.84375 C 21.83601 27.78875 21.80674 27.734 21.71875 27.75 C 21.67876 27.76 21.64075 27.84275 21.59375 27.84375 C 21.55476 27.84375 21.51975 27.758 21.46875 27.75 C 21.42976 27.74 21.37075 27.78625 21.34375 27.78125 C 21.30074 27.77125 21.28897 27.74475 21.25 27.71875 C 21.22102 27.69975 21.17225 27.65525 21.15625 27.65625 C 21.10626 27.65625 21.06899 27.75515 21 27.71875 C 20.96601 27.67575 21.07127 27.665 21.03125 27.625 C 21.00127 27.596 20.99276 27.64225 20.96875 27.65625 C 20.94075 27.67425 20.90599 27.6765 20.875 27.6875 C 20.806 27.7135 20.741493 27.721 20.6875 27.75 C 20.63751 27.776 20.62275 27.79245 20.59375 27.84375 C 20.57076 27.88575 20.535 27.96675 20.5 27.96875 C 20.45798 27.96875 20.44425 27.92325 20.40625 27.90625 C 20.291261 27.85625 20.219991 27.9355 20.125 27.9375 C 20.03701 27.9375 19.902251 27.80175 19.90625 27.71875 C 19.90895 27.66775 19.93151 27.59425 19.9375 27.53125 C 19.9425 27.48125 19.99907 27.4206 20 27.375 C 20.0011 27.313 19.883746 27.28835 19.84375 27.28125 C 19.74976 27.26425 19.638241 27.32325 19.53125 27.28125 C 19.51123 27.24725 19.55051 27.2215 19.5625 27.1875 C 19.5695 27.1695 19.5555 27.146 19.5625 27.125 C 19.57449 27.093 19.64126 27.06525 19.65625 27.03125 C 19.66725 27.00525 19.64525 26.9705 19.65625 26.9375 C 19.66923 26.9015 19.71572 26.86975 19.71875 26.84375 C 19.72255 26.80975 19.6832 26.772 19.65625 26.75 C 19.57325 26.76 19.516748 26.7572 19.46875 26.78125 C 19.360763 26.83025 19.39024 26.966 19.28125 27 C 19.24423 27.012 19.19825 27.02425 19.15625 27.03125 C 19.13793 27.04125 19.11427 27.02925 19.09375 27.03125 C 19.09575 27.02113 19.09175 27.01009 19.09375 27 C 19.09845 26.97722 19.12003 26.96017 19.125 26.9375 C 19.19627 26.612503 19.306395 26.297934 19.4375 26 L 19.46875 26 C 19.50675 26.01 19.52951 26.0595 19.5625 26.0625 C 19.65449 26.0725 19.674001 25.9777 19.75 25.9375 C 19.828 25.9485 19.866506 25.9275 19.9375 25.9375 C 19.98551 25.9475 20.055756 25.996 20.09375 26 C 20.12576 26 20.12625 25.96475 20.15625 25.96875 C 20.18623 25.97875 20.245 26.0265 20.25 26.0625 C 20.255 26.1075 20.20572 26.16915 20.21875 26.21875 C 20.26578 26.26675 20.370504 26.2845 20.4375 26.3125 C 20.4815 26.2755 20.4445 26.20825 20.4375 26.15625 C 20.4364 26.13325 20.4402 26.0835 20.4375 26.0625 C 20.4325 26.0265 20.40625 25.99975 20.40625 25.96875 C 20.40625 25.82575 20.529008 25.77465 20.625 25.71875 C 20.66597 25.69475 20.714 25.643 20.75 25.625 C 20.80099 25.6 20.833 25.6178 20.875 25.59375 C 20.95099 25.55075 21.003501 25.4862 21.0625 25.4375 C 21.0895 25.3725 21.0598 25.28275 21.0625 25.21875 C 21.0895 25.20175 21.12728 25.21875 21.15625 25.21875 C 21.20223 25.20875 21.224 25.151 21.25 25.125 C 21.26501 25.11 21.29448 25.10875 21.3125 25.09375 C 21.35848 25.05775 21.36624 25.016 21.40625 25 C 21.42028 24.99 21.44672 24.97575 21.46875 24.96875 C 21.49878 24.95875 21.54576 24.9555 21.59375 24.9375 C 21.62477 24.9265 21.706749 24.91925 21.71875 24.90625 C 21.73376 24.89125 21.71495 24.8355 21.71875 24.8125 C 21.74273 24.6996 21.899009 24.69435 22 24.65625 C 22.06999 24.63025 22.140754 24.5485 22.21875 24.5625 C 22.20374 24.6165 22.14325 24.6224 22.15625 24.6875 C 22.17325 24.7785 22.280501 24.66925 22.3125 24.65625 C 22.37349 24.63025 22.482502 24.5925 22.5625 24.5625 C 22.63249 24.5375 22.753489 24.5181 22.6875 24.4375 C 22.6325 24.4275 22.61049 24.48 22.5625 24.5 C 22.5295 24.51 22.52798 24.47175 22.5 24.46875 C 22.473 24.46875 22.46453 24.505 22.4375 24.5 C 22.4105 24.49 22.379 24.43925 22.375 24.40625 C 22.364 24.32225 22.43476 24.3119 22.46875 24.25 C 22.44576 24.174 22.345242 24.2175 22.28125 24.1875 C 22.28825 24.1425 22.32201 24.10375 22.375 24.09375 C 22.41801 24.08375 22.536501 24.10205 22.5625 24.125 C 22.57751 24.138 22.53956 24.1665 22.5625 24.1875 C 22.58852 24.2105 22.62225 24.1975 22.65625 24.1875 C 22.66824 24.1305 22.58375 24.162 22.59375 24.125 C 22.66174 24.081 22.792005 24.10475 22.875 24.09375 C 22.92301 24.08375 22.988251 24.05425 23.03125 24.03125 C 23.07124 24.00825 23.083 23.962 23.125 24 C 23.13699 24.041 23.1167 24.07175 23.09375 24.09375 C 23.01676 24.16175 22.934994 24.2336 22.875 24.3125 C 22.91202 24.3485 22.96925 24.33675 23.03125 24.34375 C 23.05523 24.35375 23.1 24.33875 23.125 24.34375 C 23.15503 24.35375 23.19475 24.33375 23.21875 24.34375 C 23.26077 24.35375 23.27051 24.4375 23.3125 24.4375 C 23.3805 24.4375 23.35152 24.3577 23.3125 24.3125 C 23.32449 24.2655 23.3608 24.2207 23.34375 24.1875 C 23.31273 24.1255 23.1935 24.206 23.1875 24.125 C 23.1837 24.075 23.23199 24.06925 23.25 24.03125 C 23.242 23.93525 23.3225 23.93075 23.3125 23.84375 C 23.3075 23.80775 23.27501 23.81525 23.25 23.78125 C 23.23702 23.76325 23.23371 23.7015 23.21875 23.6875 C 23.16678 23.6435 23.0685 23.6779 23.0625 23.59375 C 23.0598 23.54375 23.0695 23.4911 23.0625 23.4375 C 23.0555 23.3865 23.01273 23.22875 22.96875 23.21875 C 22.91276 23.20675 22.87949 23.31245 22.8125 23.34375 C 22.77653 23.36075 22.693243 23.381 22.65625 23.375 C 22.63227 23.365 22.59675 23.3595 22.59375 23.3125 C 22.58975 23.2701 22.6406 23.25122 22.65625 23.21875 C 22.66015 23.21065 22.65425 23.19872 22.65625 23.1875 C 22.72882 23.16725 22.801216 23.14227 22.875 23.125 C 22.91692 23.1153 22.95769 23.10241 23 23.09375 C 23.02988 23.08755 23.06368 23.09945 23.09375 23.09375 C 23.227304 23.06899 23.362946 23.04517 23.5 23.03125 C 23.666239 23.013781 23.828902 23 24 23 z M 21.96875 23.46875 C 21.93692 23.651324 21.766003 23.724021 21.5625 23.71875 C 21.51652 23.76275 21.5562 23.84525 21.53125 23.90625 C 21.51024 23.95725 21.425991 24.004 21.375 24 C 21.33798 24 21.28125 23.94125 21.28125 23.90625 C 21.28125 23.86325 21.34952 23.8617 21.3125 23.8125 C 21.3142 23.8025 21.33336 23.79125 21.34375 23.78125 C 21.36399 23.76851 21.38585 23.76249 21.40625 23.75 C 21.587453 23.638483 21.773211 23.556828 21.96875 23.46875 z M 26.15625 23.65625 C 26.13782 23.66625 26.14122 23.6775 26.125 23.6875 C 26.08699 23.7105 26.06026 23.739 26.03125 23.75 C 25.99028 23.765 25.9435 23.7755 25.9375 23.8125 C 25.9325 23.8435 25.9698 23.846 25.96875 23.875 C 25.95374 23.912 25.94553 23.92375 25.9375 23.96875 C 25.98849 24.05175 26.093258 23.9505 26.15625 23.9375 C 26.18425 23.9275 26.20375 23.9303 26.21875 23.90625 C 26.23574 23.87925 26.23706 23.8507 26.25 23.8125 C 26.26403 23.7705 26.31751 23.75575 26.3125 23.71875 C 26.3087 23.68175 26.21824 23.65125 26.15625 23.65625 z M 20.6875 24.28125 C 20.73491 24.31935 20.801559 24.40185 20.71875 24.4375 C 20.70874 24.4475 20.586496 24.47275 20.5625 24.46875 C 20.5528 24.46875 20.53973 24.44475 20.53125 24.4375 C 20.58291 24.38719 20.633707 24.329303 20.6875 24.28125 z M 20.875 24.46875 C 20.89898 24.46875 20.90948 24.52925 20.9375 24.53125 C 20.9645 24.53125 20.98397 24.496 21 24.5 C 21.04202 24.511 21.07127 24.5938 21.03125 24.625 C 20.99825 24.635 20.99271 24.58975 20.96875 24.59375 C 20.90075 24.60575 20.863495 24.754 20.8125 24.75 C 20.76449 24.74 20.73223 24.62875 20.78125 24.59375 C 20.78235 24.56375 20.77925 24.56225 20.78125 24.53125 C 20.79626 24.51325 20.83498 24.46575 20.875 24.46875 z M 20.625 24.5 C 20.63903 24.5 20.65124 24.49 20.65625 24.5 C 20.64925 24.553 20.63471 24.56875 20.59375 24.59375 C 20.52276 24.63675 20.460501 24.68975 20.4375 24.78125 C 20.4305 24.80825 20.3465 24.8817 20.3125 24.875 C 20.2335 24.858 20.35702 24.7104 20.375 24.6875 C 20.39502 24.6625 20.41453 24.654 20.4375 24.625 C 20.46049 24.597 20.47806 24.54725 20.5 24.53125 C 20.52398 24.51425 20.58301 24.498 20.625 24.5 z M 27.40625 24.65625 C 27.48524 24.64625 27.526502 24.73365 27.5625 24.78125 C 27.59248 24.82025 27.669746 24.87905 27.71875 24.90625 C 27.74675 24.92125 27.7815 24.95475 27.8125 24.96875 C 27.87749 24.99775 27.996996 25.09225 28 25.15625 C 28.0011 25.18825 27.96374 25.22 27.96875 25.25 C 28.01776 25.26 28.0615 25.1742 28.0625 25.125 C 28.15441 25.255006 28.233102 25.39266 28.3125 25.53125 C 28.35 25.59671 28.40294 25.651296 28.4375 25.71875 C 28.39339 25.73175 28.38209 25.73825 28.375 25.78125 C 28.36499 25.83725 28.39649 25.9276 28.3125 25.9375 C 28.25953 25.9475 28.19799 25.892 28.125 25.875 C 28.09502 25.865 28.05525 25.885 28.03125 25.875 C 27.97625 25.857 27.9845 25.7833 27.9375 25.75 C 27.91049 25.731 27.824253 25.6925 27.78125 25.6875 C 27.75424 25.6875 27.74673 25.6975 27.71875 25.6875 C 27.68476 25.6775 27.62175 25.7015 27.59375 25.6875 C 27.56674 25.6705 27.50701 25.61675 27.5 25.59375 C 27.489 25.55675 27.59175 25.5313 27.59375 25.5 C 27.59595 25.476 27.5675 25.44325 27.5625 25.40625 C 27.5587 25.38425 27.5674 25.35875 27.5625 25.34375 C 27.5555 25.31775 27.50974 25.3135 27.46875 25.3125 L 27.375 25.3125 C 27.331 25.3125 27.242494 25.3085 27.1875 25.3125 C 27.1545 25.3125 27.12475 25.3095 27.09375 25.3125 C 27.00676 25.3225 26.942997 25.3025 26.875 25.3125 C 26.82599 25.3125 26.733496 25.354 26.6875 25.375 C 26.66451 25.386 26.65501 25.39125 26.625 25.40625 C 26.61103 25.41625 26.58054 25.4295 26.5625 25.4375 C 26.53451 25.4505 26.49575 25.492 26.46875 25.5 C 26.42976 25.51 26.38349 25.49 26.3125 25.5 C 26.26152 25.5 26.188501 25.46725 26.1875 25.40625 C 26.1864 25.31325 26.349511 25.36075 26.4375 25.34375 C 26.4705 25.33375 26.49123 25.30525 26.53125 25.28125 C 26.55028 25.27025 26.54451 25.262 26.5625 25.25 C 26.59247 25.229 26.65125 25.18025 26.65625 25.15625 C 26.66005 25.13425 26.65325 25.11075 26.65625 25.09375 C 26.66005 25.07275 26.69175 25.05925 26.71875 25.03125 C 26.76077 24.98925 26.79175 24.93345 26.84375 24.90625 C 26.87873 24.88825 26.9215 24.87275 26.9375 24.84375 C 26.9413 24.81175 26.9364 24.81125 26.9375 24.78125 C 26.9595 24.76125 26.98202 24.754 27 24.75 C 27.05401 24.738 27.09326 24.753 27.15625 24.75 C 27.18325 24.75 27.221 24.763 27.25 24.75 C 27.27398 24.734 27.2885 24.6995 27.3125 24.6875 C 27.33851 24.6735 27.37422 24.65825 27.40625 24.65625 z M 27.96875 25.25 L 27.84375 25.25 C 27.79975 25.25 27.74475 25.227 27.71875 25.25 C 27.75577 25.31 27.823255 25.32875 27.90625 25.34375 C 27.93623 25.32175 27.95478 25.2883 27.96875 25.25 z M 21.125 24.6875 L 21.21875 24.6875 C 21.24377 24.6875 21.27125 24.6775 21.28125 24.6875 C 21.26525 24.7535 21.114497 24.74275 21.0625 24.71875 C 21.0652 24.69375 21.09297 24.6915 21.125 24.6875 z M 20.90625 24.8125 C 20.86257 24.84428 20.81933 24.88458 20.75 24.90625 C 20.712 24.91825 20.66325 24.917 20.65625 24.875 C 20.64825 24.823 20.71599 24.84875 20.75 24.84375 C 20.794 24.83375 20.855254 24.8145 20.90625 24.8125 z M 27.40625 24.8125 C 27.37325 24.8235 27.35724 24.89625 27.40625 24.90625 C 27.42924 24.89225 27.44355 24.8555 27.4375 24.8125 C 27.42452 24.7985 27.41621 24.8025 27.40625 24.8125 z M 27.34375 24.96875 C 27.34485 25.02475 27.35475 25.0764 27.34375 25.125 C 27.37576 25.187 27.452756 25.13575 27.46875 25.09375 C 27.48778 24.98975 27.45425 24.95575 27.40625 24.96875 C 27.39025 24.97875 27.36069 24.95575 27.34375 24.96875 z M 19.0625 27.3125 C 19.11886 27.3635 19.15129 27.43535 19.21875 27.46875 C 19.24377 27.48175 19.2805 27.492 19.3125 27.5 C 19.33852 27.51 19.35001 27.492 19.375 27.5 C 19.42802 27.518 19.489257 27.5435 19.53125 27.5625 C 19.59525 27.5905 19.66375 27.68675 19.71875 27.71875 C 19.72145 27.75075 19.70874 27.7885 19.71875 27.8125 C 19.74477 27.8475 19.7705 27.88225 19.8125 27.90625 C 19.86349 27.93425 19.88951 27.9778 19.9375 28 C 19.9545 28.01 19.97396 27.99 20 28 C 20.06599 28.02 20.09925 28.11055 20.15625 28.09375 C 20.19327 28.08275 20.18151 28.036 20.1875 28 C 20.21252 27.973 20.24222 27.9375 20.28125 27.9375 C 20.34324 27.9375 20.352 28.03315 20.375 28.09375 C 20.38798 28.12775 20.42854 28.1515 20.4375 28.1875 C 20.45251 28.2495 20.45048 28.43175 20.4375 28.46875 C 20.4215 28.51475 20.3505 28.5122 20.3125 28.5625 C 20.29452 28.5865 20.29522 28.63925 20.28125 28.65625 C 20.25727 28.68525 20.23677 28.69075 20.21875 28.71875 C 20.20874 28.73375 20.19646 28.76025 20.1875 28.78125 C 20.15747 28.84525 20.09999 28.89175 20.125 28.96875 C 20.13501 28.99975 20.1875 29.0255 20.1875 29.0625 C 20.1875 29.1065 20.10075 29.1393 20.09375 29.1875 C 20.08875 29.2225 20.11406 29.2658 20.125 29.3125 C 20.133 29.3475 20.19775 29.38325 20.21875 29.40625 C 20.25373 29.44525 20.2805 29.513 20.3125 29.5625 C 20.37549 29.6595 20.40677 29.78 20.46875 29.875 C 20.50175 29.924 20.57175 29.9484 20.59375 30 C 20.60475 30.026 20.58374 30.06975 20.59375 30.09375 C 20.62972 30.17475 20.794007 30.2726 20.875 30.3125 C 20.913 30.3315 20.96501 30.32375 21 30.34375 C 21.05302 30.37375 21.160506 30.4534 21.1875 30.5 C 21.21148 30.542 21.20676 30.65185 21.21875 30.71875 C 21.23376 30.80675 21.21495 30.87365 21.21875 30.96875 C 21.22145 31.02075 21.25 31.04215 21.25 31.09375 C 21.25 31.11175 21.2511 31.1685 21.25 31.1875 C 21.2489 31.2495 21.255 31.312 21.25 31.375 C 21.2473 31.409 21.2478 31.43975 21.25 31.46875 C 21.2527 31.49975 21.27927 31.50325 21.28125 31.53125 C 21.28345 31.56025 21.24697 31.602 21.25 31.625 C 21.257 31.688 21.3005 31.72315 21.3125 31.78125 C 21.32251 31.82725 21.34974 31.945 21.34375 32 C 21.33995 32.029 21.31651 32.06075 21.3125 32.09375 C 21.3098 32.11975 21.3163 32.13225 21.3125 32.15625 C 21.3098 32.17925 21.3184 32.19975 21.3125 32.21875 C 21.28065 32.19827 21.2501 32.17743 21.21875 32.15625 C 20.952748 31.976543 20.694955 31.757456 20.46875 31.53125 C 20.43816 31.50066 20.4048 31.46887 20.375 31.4375 C 20.194419 31.247353 20.024138 31.029182 19.875 30.8125 C 19.86149 30.79287 19.85699 30.76984 19.84375 30.75 C 19.670704 30.490733 19.529064 30.227866 19.40625 29.9375 C 19.39735 29.91656 19.38358 29.89608 19.375 29.875 C 19.269623 29.616001 19.186074 29.341018 19.125 29.0625 C 19.11347 29.00993 19.10361 28.95942 19.09375 28.90625 C 19.068988 28.772696 19.045169 28.637054 19.03125 28.5 C 19.01418 28.331915 19 28.172589 19 28 C 19 27.762358 19.03044 27.541304 19.0625 27.3125 z M 21 27.84375 C 21.04801 27.82175 21.03899 27.89925 21 27.90625 C 20.96298 27.91625 20.96403 27.86175 21 27.84375 z "
     class="ColorScheme-Text"
     />
</svg>
