<svg xmlns="http://www.w3.org/2000/svg" viewBox="0 0 48 48">
  <defs id="defs3051">
    <style type="text/css" id="current-color-scheme">
      .ColorScheme-Text {
        color:#232629;
      }
      .ColorScheme-Highlight {
        color:#3daee9;
      }
      </style>
  </defs>
  <path
     style="fill:#5c5c5c" 
     d="M 5,6 V 16 H 4 V 42 H 44 V 13 H 43 V 9 H 24 L 21,6 Z"
     />
  <path
     style="fill-opacity:0.33"
     d="m 5,6 v 10 h 12 l 3,-3 H 43 V 9 H 24 L 21,6 Z"
     />
  <path
     style="fill:#ffffff;fill-opacity:0.2"
     d="m 21,6 2,4 H 43 V 9 H 24 Z m -1,7 -3,3 H 4 v 1 h 14 z"
     />
  <path
     style="fill-opacity:0.4;fill-rule:evenodd"
     d="m 20,13 -4,2 H 5 v 1 H 17 Z M 4,41 v 1 c 0,0 40,0 40,0 v -1 z"
     class="ColorScheme-Text"
     />
  <path
     style="fill-opacity:0.2;fill-rule:evenodd"
     d="M 4 34 L 4 37 L 7 37 L 7 34 L 4 34 z M 7 37 L 7 40 L 10 40 L 10 37 L 7 37 z M 10 37 L 13 37 L 13 34 L 10 34 L 10 37 z M 13 37 L 13 40 L 16 40 L 16 37 L 13 37 z M 16 37 L 19 37 L 19 34 L 16 34 L 16 37 z M 19 37 L 19 40 L 22 40 L 22 37 L 19 37 z M 22 37 L 25 37 L 25 34 L 22 34 L 22 37 z M 25 37 L 25 40 L 28 40 L 28 37 L 25 37 z M 28 37 L 31 37 L 31 34 L 28 34 L 28 37 z M 31 37 L 31 40 L 34 40 L 34 37 L 31 37 z M 34 37 L 37 37 L 37 34 L 34 34 L 34 37 z M 37 37 L 37 40 L 40 40 L 40 37 L 37 37 z M 40 37 L 43 37 L 43 34 L 40 34 L 40 37 z M 43 37 L 43 40 L 44 40 L 44 37 L 43 37 z M 43 40 L 40 40 L 40 42 L 43 42 L 43 40 z M 37 40 L 34 40 L 34 42 L 37 42 L 37 40 z M 31 40 L 28 40 L 28 42 L 31 42 L 31 40 z M 25 40 L 22 40 L 22 42 L 25 42 L 25 40 z M 19 40 L 16 40 L 16 42 L 19 42 L 19 40 z M 13 40 L 10 40 L 10 42 L 13 42 L 13 40 z M 7 40 L 4 40 L 4 42 L 7 42 L 7 40 z "
     class="ColorScheme-Text"
     />
  <path
     style="fill:currentColor;fill-opacity:0.6;stroke:none"  
     d="m 24,22 c -1.7,0 -3,1.3 -3,3 v 3 h -2 v 6 h 10 v -6 h -2 v -3 c 0,-1.7 -1.3,-3 -3,-3 z m 0,1 c 1.25,0 2,0.55 2,2 v 3 h -4 v -3 c 0,-1.45 0.75,-2 2,-2 z"
     class="ColorScheme-Text"
     />
</svg>
