<!DOCTYPE svg>
<svg viewBox="0 0 22 22" version="1.1" xmlns="http://www.w3.org/2000/svg">
    <defs>
        <style type="text/css" id="current-color-scheme">
            .ColorScheme-Text {
                color:#eff0f1;
            }
        </style>
    </defs>
    <path class="ColorScheme-Text" style="fill:currentColor; fill-opacity:1; stroke:none" d="M 3 19 C 3 13.6667 3 8.33333 3 3 C 7 3 11 3 15 3 C 16.3338 3.99938 17.6666 5.00013 19 6 C 19 10.3333 19 14.6667 19 19 C 13.6667 19 8.33333 19 3 19 Z M 4 18 C 8.66667 18 13.3333 18 18 18 C 18 14 18 10 18 6 C 17 6 16 6 15 6 C 15 5.33333 15 4.66667 15 4 C 11.3333 4 7.66667 4 4 4 C 4 8.66667 4 13.3333 4 18 Z M 5 15 C 5 12.3333 5 9.66667 5 7 C 6.66667 7 8.33333 7 10 7 C 10 9.66667 10 12.3333 10 15 C 8.33333 15 6.66667 15 5 15 Z M 12 15 C 12 12.3333 12 9.66667 12 7 C 13.6667 7 15.3333 7 17 7 C 17 9.66667 17 12.3333 17 15 C 15.3333 15 13.6667 15 12 15 Z M 6 14 C 7 14 8 14 9 14 C 9 12 9 10 9 8 C 8 8 7 8 6 8 C 6 10 6 12 6 14 Z M 13 14 C 14 14 15 14 16 14 C 16 12 16 10 16 8 C 15 8 14 8 13 8 C 13 10 13 12 13 14 Z"/>
</svg>
