<!DOCTYPE svg>
<svg viewBox="0 0 22 22" version="1.1" xmlns="http://www.w3.org/2000/svg">
    <defs>
        <style type="text/css" id="current-color-scheme">
            .ColorScheme-Text {
                color:#eff0f1;
            }
        </style>
    </defs>
    <path class="ColorScheme-Text" style="fill:currentColor; fill-opacity:1; stroke:none" d="M 4 19.002 L 4 18.9999 L 4 16.9999 L 6 16.9999 L 6 18.9999 L 8 18.9999 L 8 16.9999 L 10 16.9999 L 10 18.9999 L 12 18.9999 L 12 16.9999 L 14 16.9999 L 14 18.9999 L 16 18.9999 L 16 16.9999 L 18 16.9999 L 18 18.9999 L 18 19.002 L 17 19.002 L 5 19.002 L 4 19.002 Z M 6 16 L 6 14 L 8 14 L 8 16 L 6 16 Z M 10 16 L 10 14 L 12 14 L 12 16 L 10 16 Z M 14 16 L 14 14 L 16 14 L 16 16 L 14 16 Z M 4 13 L 4 11 L 4 3 L 5 3 L 13 3 L 14 3 L 14 3.0098 L 14.008 3 L 18.0002 6.99219 L 18.0002 7.00199 L 18.0002 8.40824 L 18.0002 11 L 18.0002 13 L 16.0002 13 L 16.0002 11 L 17.0002 11 L 17.0002 8.00003 L 13.0002 8.00003 L 13.0002 7.00003 L 13.0002 4.00003 L 5.0002 4.00003 L 5.0002 11 L 6.0002 11 L 6.0002 13 L 4.0002 13 Z M 8.0002 13 L 8.0002 11 L 10.0002 11 L 10.0002 13 L 8.0002 13 Z M 12.0002 13 L 12.0002 11 L 14.0002 11 L 14.0002 13 L 12.0002 13 Z"/>
</svg>
