<svg xmlns="http://www.w3.org/2000/svg" viewBox="0 0 22 22">
  <defs id="defs3051">
    <style type="text/css" id="current-color-scheme">
      .ColorScheme-Text {
        color:#eff0f1;
      }
      .ColorScheme-Highlight {
        color:#3daee9;
      }
      </style>
  </defs>
 <path 
    style="fill:currentColor;fill-opacity:1;stroke:none" 
	d="M 6 3 L 6 19 L 16 19 L 16 3 L 6 3 z M 11 4 C 12.34 5.06 13.67 6.14 15 7.2 L 14.4 8 L 11 5.25 L 7.6 8 L 7 7.2 C 8.3 6.1 9.66 5.06 11 4 z M 7.6 14 L 11 16.75 L 14.4 14 L 15 14.78125 C 13.67 15.85 12.3 16.9 11 18 C 9.7 16.9 8.3 15.85 7 14.8 L 7.6 14 z "
	class="ColorScheme-Text"
    />
  <path
    style="fill:currentColor;fill-opacity:1;stroke:none" 
     d="M 7 10 L 7 12 L 15 12 L 15 10 L 7 10 z "
	class="ColorScheme-Highlight"
     />
</svg>
