<svg xmlns="http://www.w3.org/2000/svg" viewBox="0 0 22 22">
  <defs id="defs3051">
    <style type="text/css" id="current-color-scheme">
      .ColorScheme-Text {
        color:#eff0f1;
      }
      .ColorScheme-Highlight {
        color:#3daee9;
      }
      </style>
  </defs>
 <path 
     style="fill:currentColor;fill-opacity:1;stroke:none" 
     d="M 4.5,3 C 3.787,3 3,3.704 3,4.5 3,5.3 3.787,6 4.5,6 5.33,6 6,5.3 6,4.5 6,3.704 5.33,3 4.5,3 Z M 8,3 V 4 H 19 V 3 Z m 0,2 v 1 h 4 V 5 Z M 4.5,9 C 3.732,9 3,9.71 3,10.5 3,11.3 3.732,12 4.5,12 5.3,12 6,11.3 6,10.5 6,9.71 5.3,9 4.5,9 Z M 8,9 v 1 h 6 V 9 Z m 0,2 v 1 h 5 V 11 Z M 4.5,15 C 3.732,15 3,15.7 3,16.5 3,17.3 3.732,18 4.5,18 5.3,18 6,17.3 6,16.5 6,15.7 5.3,15 4.5,15 Z M 8,15 v 1 h 9 v -1 z m 0,2 v 1 h 7 v -1 z"
     class="ColorScheme-Text"
     />
 <path 
     style="fill:currentColor;fill-opacity:1;stroke:none" 
     d="M 19 8 L 15 11 L 19 14 L 19 8 z "
     class="ColorScheme-Highlight"
     />
</svg>
