<svg xmlns="http://www.w3.org/2000/svg" viewBox="0 0 22 22">
  <defs id="defs3051">
    <style type="text/css" id="current-color-scheme">
      .ColorScheme-Text {
        color:#eff0f1;
      }
      </style>
  </defs>
 <path 
    style="fill:currentColor;fill-opacity:1;stroke:none" 
    d="M 3 3 L 3 19 L 19 19 L 19 3 L 3 3 z M 4 7 L 18 7 L 18 18 L 4 18 L 4 7 z M 6 9 L 6 11 L 8 11 L 8 9 L 6 9 z M 9 10 L 9 11 L 16 11 L 16 10 L 9 10 z M 6 14 L 6 16 L 8 16 L 8 14 L 6 14 z M 9 14 L 9 15 L 16 15 L 16 14 L 9 14 z "
    class="ColorScheme-Text"
    />  
</svg>
