<svg height="32" viewBox="0 0 32 32" width="32" xmlns="http://www.w3.org/2000/svg" xmlns:xlink="http://www.w3.org/1999/xlink"><linearGradient id="a" gradientTransform="matrix(3.4959872 0 0 3.4959871 1.30074 3.299862)" gradientUnits="userSpaceOnUse" x1="8.5" x2=".5" y1="7.637367" y2="-.371815"><stop offset="0" stop-color="#4f5356"/><stop offset="1" stop-color="#9b9ea2" stop-opacity="1"/></linearGradient><radialGradient id="b" cx="16" cy="17" gradientUnits="userSpaceOnUse" r="11"><stop offset="0" stop-color="#3dd425" stop-opacity=".954751"/><stop offset="1" stop-color="#59f07c"/></radialGradient><linearGradient id="c" gradientUnits="userSpaceOnUse" x1="14.541744" x2="26.541744" y1="16" y2="28"><stop offset="0"/><stop offset="1" stop-opacity="0"/></linearGradient><linearGradient id="d" gradientTransform="matrix(1.409796 1.409796 -1.409796 1.409796 -3.194127 -556.800269)" gradientUnits="userSpaceOnUse" x1="210.5" x2="210.5" y1="188" y2="193.5"><stop offset="0" stop-color="#9b9ea2"/><stop offset="1" stop-color="#1a1b1e"/></linearGradient><path d="m25.5 4.5-2.5 2.5h-7v10h11v-6l2.5-2.5z" fill="url(#d)"/><g><path d="m10 2v2h6 6v-2zm6 2a13 13 0 0 0 -13 13 13 13 0 0 0 13 13 13 13 0 0 0 13-13 13 13 0 0 0 -13-13z" fill="url(#a)"/><circle cx="16" cy="17" fill="#eff8ff" r="11"/><path d="m16 6a11 11 0 0 0 -11 11 11 11 0 0 0 11 11 11 11 0 0 0 11-11 11 11 0 0 0 -11-11zm0 1a10 10 0 0 1 10 10 10 10 0 0 1 -10 10 10 10 0 0 1 -10-10 10 10 0 0 1 10-10z" opacity=".15"/><path d="m28.978516 16.294922c-.160107 7.055925-5.920781 12.695231-12.978516 12.705078-6.9752634-.013703-12.6965774-5.529884-12.9648438-12.5-.014931.166425-.0266519.333123-.0351562.5 0 7.179702 5.8202983 13 13 13 7.179702 0 13-5.820298 13-13-.000782-.235177-.0079-.47029-.02148-.705078z" opacity=".3"/><path d="m16 6v11h11a11 11 0 0 0 -11-11z" fill="url(#b)"/></g><path d="m14.585938 18.414062 9.585938 9.585938h2.828124v-12z" fill="url(#c)" opacity=".2"/><g><path d="m16 16h11v2h-11z" fill="#00223e"/><path d="m1.2928932 23.334524c0 1.104569-.89543048 2-1.99999997 2-1.10456953 0-1.99969803-.895431-1.99969803-2 0-1.10457.8951285-2 1.99969803-2 1.10456949 0 1.99999997.895431 1.99999997 2z" fill="#686b6f" transform="matrix(.70710678 -.70710678 .70710678 .70710678 0 0)"/><circle cx="16" cy="17" fill="#9b9ea2" r="1"/></g></svg>
