<svg xmlns="http://www.w3.org/2000/svg" viewBox="0 0 32 32">
  <defs id="defs3051">
    <style type="text/css" id="current-color-scheme">
      .ColorScheme-Text {
        color:#31363b;
      }
      .ColorScheme-Highlight {
        color:#3daee9;
      }
      </style>
  </defs>
 <path 
     style="fill:currentColor;fill-opacity:1;stroke:none" 
     d="M 2 3 L 2 10 L 1 10 L 1 29 L 12 29 L 13 29 L 31 29 L 31 8 L 30 8 L 30 5 L 16 5 L 14 3 L 2 3 z "
     class="ColorScheme-Highlight"
     />
 <path 
     style="fill-opacity:0.33;fill-rule:evenodd"
     d="m 2,3 0,7 9,0 L 13,8 30,8 30,5 16,5 14,3 2,3 Z"
     />
 <path 
     style="fill:#ffffff;fill-opacity:0.2;fill-rule:evenodd"
     d="M 14 3 L 15 6 L 30 6 L 30 5 L 16 5 L 14 3 z M 13 8 L 11 10 L 1 10 L 1 11 L 12 11 L 13 8 z "
     />
 <path 
     style="fill-opacity:0.2;fill-rule:evenodd"
     d="M 13 8 L 11 9 L 2 9 L 2 10 L 11 10 L 13 8 z M 1 28 L 1 29 L 31 29 L 31 28 L 1 28 z "
     class="ColorScheme-Text"
     />
 <path 
     style="fill:currentColor;fill-opacity:0.6;stroke:none" 
     d="M 21.90625 11.320312 C 20.97725 11.401313 15.369141 17.289062 15.369141 17.289062 L 13.095703 19.800781 C 12.809703 19.639781 11.989969 19.651062 11.667969 19.789062 C 10.887969 20.123062 10.4725 20.598266 10.0625 21.697266 C 9.7184997 22.617266 10.861937 24.24875 11.710938 23.96875 C 11.283938 23.93975 10.997422 23.382656 11.232422 22.972656 C 11.767422 22.036656 14.246078 22.005156 13.455078 20.160156 L 15.908203 17.826172 C 15.908203 17.826172 22.455562 11.818844 21.976562 11.339844 C 21.961562 11.321844 21.938203 11.320312 21.908203 11.320312 L 21.90625 11.320312 z M 20.873047 17.154297 C 20.594047 17.153297 20.065422 17.668141 19.107422 19.119141 C 18.153422 20.702141 15.691844 21.821531 15.839844 20.269531 C 15.874844 19.898531 14.926875 20.039297 14.046875 20.029297 C 14.026875 22.720297 12.514375 22.020531 11.609375 23.144531 C 11.542375 24.008531 15.65725 24.557156 17.90625 23.035156 C 20.57725 21.228156 21.11525 18.748438 21.15625 17.898438 C 21.15625 17.468437 21.090047 17.155297 20.873047 17.154297 z M 17.365234 19.070312 C 17.365234 19.216312 17.045906 19.120797 16.878906 19.216797 C 16.544906 19.408797 16.365562 19.722062 16.476562 19.914062 C 16.587563 20.106062 16.94725 20.105109 17.28125 19.912109 C 17.61525 19.719109 17.796547 19.406844 17.685547 19.214844 C 17.629547 19.118844 17.511234 19.070312 17.365234 19.070312 z "
     class="ColorScheme-Text"
     />
</svg>
