<svg xmlns="http://www.w3.org/2000/svg" viewBox="0 0 32 32">
  <defs id="defs3051">
    <style type="text/css" id="current-color-scheme">
      .ColorScheme-Text {
        color:#31363b;
      }
      .ColorScheme-Highlight {
        color:#3daee9;
      }
      </style>
  </defs>
 <path 
     style="fill:currentColor;fill-opacity:1;stroke:none" 
     d="M 2 3 L 2 10 L 1 10 L 1 29 L 12 29 L 13 29 L 31 29 L 31 8 L 30 8 L 30 5 L 16 5 L 14 3 L 2 3 z "
     class="ColorScheme-Highlight"
     />
 <path 
     style="fill-opacity:0.33;fill-rule:evenodd"
     d="m 2,3 0,7 9,0 L 13,8 30,8 30,5 16,5 14,3 2,3 Z"
     />
 <path 
     style="fill:#ffffff;fill-opacity:0.2;fill-rule:evenodd"
     d="M 14 3 L 15 6 L 30 6 L 30 5 L 16 5 L 14 3 z M 13 8 L 11 10 L 1 10 L 1 11 L 12 11 L 13 8 z "
     />
 <path 
     style="fill-opacity:0.2;fill-rule:evenodd"
     d="M 13 8 L 11 9 L 2 9 L 2 10 L 11 10 L 13 8 z M 1 28 L 1 29 L 31 29 L 31 28 L 1 28 z "
     class="ColorScheme-Text"
     />
 <path 
     style="fill:currentColor;fill-opacity:0.6;stroke:none" 
     d="m 11,12 c -0.554,0 -1,0.446 -1,1 v 10 c 0,0.554 0.446,1 1,1 h 8 c 0.554,0 1,-0.446 1,-1 h 1 c 0.554,0 1,-0.446 1,-1 V 20 C 22,19.814 21.936,19.649 21.848,19.5 21.936,19.351 22,19.186 22,19 V 17 C 22,16.814 21.936,16.649 21.848,16.5 21.936,16.351 22,16.186 22,16 v -2 c 0,-0.554 -0.446,-1 -1,-1 h -1 c 0,-0.554 -0.446,-1 -1,-1 z m 0,1 h 8 v 10 h -8 z m 1,1 v 2 h 6 v -2 z m 8,0 h 1 v 2 h -1 z m -8,3 v 1 h 6 v -1 z m 8,0 h 1 v 2 h -1 z m -8,2 v 1 h 6 v -1 z m 8,1 h 1 v 2 h -1 z m -8,1 v 1 h 6 v -1 z"
     class="ColorScheme-Text"
     />
</svg>
