<svg xmlns="http://www.w3.org/2000/svg" viewBox="0 0 32 32">
  <defs id="defs3051">
    <style type="text/css" id="current-color-scheme">
      .ColorScheme-Text {
        color:#31363b;
      }
      .ColorScheme-Highlight {
        color:#3daee9;
      }
      </style>
  </defs>
 <path 
     style="fill:currentColor;fill-opacity:1;stroke:none" 
     d="M 2 3 L 2 10 L 1 10 L 1 29 L 12 29 L 13 29 L 31 29 L 31 8 L 30 8 L 30 5 L 16 5 L 14 3 L 2 3 z "
     class="ColorScheme-Highlight"
     />
 <path 
     style="fill-opacity:0.33;fill-rule:evenodd"
     d="m 2,3 0,7 9,0 L 13,8 30,8 30,5 16,5 14,3 2,3 Z"
     />
 <path 
     style="fill:#ffffff;fill-opacity:0.2;fill-rule:evenodd"
     d="M 14 3 L 15 6 L 30 6 L 30 5 L 16 5 L 14 3 z M 13 8 L 11 10 L 1 10 L 1 11 L 12 11 L 13 8 z "
     />
 <path 
     style="fill-opacity:0.2;fill-rule:evenodd"
     d="M 13 8 L 11 9 L 2 9 L 2 10 L 11 10 L 13 8 z M 1 28 L 1 29 L 31 29 L 31 28 L 1 28 z "
     class="ColorScheme-Text"
     />
 <path 
     style="fill:currentColor;fill-opacity:0.6;stroke:none" 
     d="M 12 13 L 12 14 L 12 16 L 11 16 L 11 17 L 11 20 L 11 21 L 12 21 L 13 21 L 13 22 L 13 23 L 18 23 L 19 23 L 19 21 L 21 21 L 21 20 L 21 16 L 20 16 L 20 13 L 12 13 z M 13 14 L 19 14 L 19 16 L 13 16 L 13 14 z M 12 17 L 18 17 L 18 18 L 19 18 L 19 17 L 20 17 L 20 20 L 19 20 L 19 19 L 13 19 L 13 20 L 12 20 L 12 17 z M 14 21 L 18 21 L 18 22 L 14 22 L 14 21 z "
     class="ColorScheme-Text"
     />
</svg>
