<svg xmlns="http://www.w3.org/2000/svg" viewBox="0 0 32 32">
  <defs id="defs3051">
    <style type="text/css" id="current-color-scheme">
      .ColorScheme-Text {
        color:#31363b;
      }
      .ColorScheme-Highlight {
        color:#3daee9;
      }
      </style>
  </defs>
 <path 
     style="fill:#f89406" 
     d="M 2 3 L 2 10 L 1 10 L 1 29 L 12 29 L 13 29 L 31 29 L 31 8 L 30 8 L 30 5 L 16 5 L 14 3 L 2 3 z "
     />
 <path 
     style="fill-opacity:0.33;fill-rule:evenodd"
     d="m 2,3 0,7 9,0 L 13,8 30,8 30,5 16,5 14,3 2,3 Z"
     />
 <path 
     style="fill:#ffffff;fill-opacity:0.2;fill-rule:evenodd"
     d="M 14 3 L 15 6 L 30 6 L 30 5 L 16 5 L 14 3 z M 13 8 L 11 10 L 1 10 L 1 11 L 12 11 L 13 8 z "
     />
 <path 
     style="fill-opacity:0.2;fill-rule:evenodd"
     d="M 13 8 L 11 9 L 2 9 L 2 10 L 11 10 L 13 8 z M 1 28 L 1 29 L 31 29 L 31 28 L 1 28 z "
     class="ColorScheme-Text"
     />
 <path 
     style="fill:currentColor;fill-opacity:0.6;stroke:none" 
     d="m 10.002991,12.001998 v 1.9995 c 5.52162,0 9.997501,4.475881 9.997501,9.997501 h 1.9995 c 0,-0.02099 0,-0.04099 0,-0.06298 0,-0.390903 -0.02599,-0.774807 -0.06298,-1.155711 -0.002,-0.02099 0.002,-0.04199 0,-0.06299 -0.03899,-0.380904 -0.113972,-0.755811 -0.187953,-1.124718 -0.004,-0.02 0.004,-0.04299 0,-0.06299 -0.235941,-1.15671 -0.64284,-2.241439 -1.187703,-3.249187 -0.004,-0.008 0.004,-0.02399 0,-0.03099 -1.478631,-2.723319 -3.982005,-4.7968 -6.998251,-5.71757 -0.356911,-0.110972 -0.723819,-0.203949 -1.093726,-0.28093 -0.01999,-0.004 -0.04299,0.004 -0.06299,0 -0.370907,-0.07598 -0.742814,-0.146963 -1.124718,-0.187953 -0.02099,-0.002 -0.04199,0.002 -0.06298,0 C 10.835787,12.02399 10.454882,12.002 10.06298,12 10.04199,12 10.02199,12 10,12 m -8e-6,3.998999 v 1.9995 c 3.313172,0 5.9985,2.685329 5.9985,5.9985 h 1.9995 c 0,-4.416895 -3.581104,-7.998 -7.998,-7.998 m 1.9995,3.999 c -1.104724,0 -1.9995,0.894777 -1.9995,1.9995 0,1.104724 0.894776,1.9995 1.9995,1.9995 1.104724,0 1.9995,-0.894776 1.9995,-1.9995 0,-1.104723 -0.894776,-1.9995 -1.9995,-1.9995" />
     class="ColorScheme-Text"
     />
</svg>
