<svg xmlns="http://www.w3.org/2000/svg" viewBox="0 0 32 32">
  <defs id="defs3051">
    <style type="text/css" id="current-color-scheme">
      .ColorScheme-Text {
        color:#31363b;
      }
      .ColorScheme-Highlight {
        color:#3daee9;
      }
      </style>
  </defs>
 <path 
     style="fill:#9bd916" 
     d="M 2 3 L 2 10 L 1 10 L 1 29 L 12 29 L 13 29 L 31 29 L 31 8 L 30 8 L 30 5 L 16 5 L 14 3 L 2 3 z "
     />
 <path 
     style="fill-opacity:0.33;fill-rule:evenodd"
     d="m 2,3 0,7 9,0 L 13,8 30,8 30,5 16,5 14,3 2,3 Z"
     />
 <path 
     style="fill:#ffffff;fill-opacity:0.2;fill-rule:evenodd"
     d="M 14 3 L 15 6 L 30 6 L 30 5 L 16 5 L 14 3 z M 13 8 L 11 10 L 1 10 L 1 11 L 12 11 L 13 8 z "
     />
 <path 
     style="fill-opacity:0.2;fill-rule:evenodd"
     d="M 13 8 L 11 9 L 2 9 L 2 10 L 11 10 L 13 8 z M 1 28 L 1 29 L 31 29 L 31 28 L 1 28 z "
     class="ColorScheme-Text"
     />
 <path 
     style="fill:currentColor;fill-opacity:0.6;stroke:none" 
     d="M 10.5 11.988281 A 0.5728 0.5 0 0 0 10.150391 12.845703 L 11.427734 14.123047 A 6 6 0 0 0 10 18 L 10 24 L 22 24 L 22 23 L 22 18 A 6 6 0 0 0 20.6 14.125 L 21.861328 12.845703 A 0.5 0.5 0 0 0 21.5 12 A 0.5 0.5 0 0 0 21.154297 12.138672 L 19.9 13.4 A 6 6 0 0 0 16 12 A 6 6 0 0 0 12.130859 13.412109 L 10.857422 12.138672 A 0.5728 0.5 0 0 0 10.5 12 z M 16 13 A 5. 5 0 0 1 21 18 L 21 19 L 21 23 L 11 23 L 11 19 L 11 18 A 5 5 0 0 1 16 13 z M 14 15 A 1. 1 0 0 0 13 16 A 1. 1 0 0 0 14 17 A 1. 1 0 0 0 15 16 A 1. 1 0 0 0 14 15 z M 18 15 A 1. 1 0 0 0 17 16 A 1. 1 0 0 0 18 17 A 1. 1 0 0 0 19 16 A 1. 1 0 0 0 18 15 z "
     class="ColorScheme-Text"
     />
</svg>
