<svg xmlns="http://www.w3.org/2000/svg" viewBox="0 0 32 32">
  <defs id="defs3051">
    <style type="text/css" id="current-color-scheme">
      .ColorScheme-Text {
        color:#31363b;
      }
      .ColorScheme-Highlight {
        color:#3daee9;
      }
      </style>
  </defs>
 <path 
     style="fill:#3bad7e" 
     d="M 2 3 L 2 10 L 1 10 L 1 29 L 12 29 L 13 29 L 31 29 L 31 8 L 30 8 L 30 5 L 16 5 L 14 3 L 2 3 z "
     />
 <path 
     style="fill-opacity:0.33;fill-rule:evenodd"
     d="m 2,3 0,7 9,0 L 13,8 30,8 30,5 16,5 14,3 2,3 Z"
     />
 <path 
     style="fill:#ffffff;fill-opacity:0.2;fill-rule:evenodd"
     d="M 14 3 L 15 6 L 30 6 L 30 5 L 16 5 L 14 3 z M 13 8 L 11 10 L 1 10 L 1 11 L 12 11 L 13 8 z "
     />
 <path 
     style="fill-opacity:0.2;fill-rule:evenodd"
     d="M 13 8 L 11 9 L 2 9 L 2 10 L 11 10 L 13 8 z M 1 28 L 1 29 L 31 29 L 31 28 L 1 28 z "
     class="ColorScheme-Text"
     />
 <path 
     style="fill:currentColor;fill-opacity:0.6;stroke:none" 
     d="M 14.988281 13 C 15.295463 13.120177 15.552431 13.336643 15.744141 13.648438 L 17.113281 15.882812 L 16.255859 16.337891 L 19.03125 16.375 L 20.388672 14.09375 L 19.544922 14.5625 L 18.763672 13.3125 C 18.635254 13.108113 18.41827 13 18.136719 13 L 14.988281 13 z M 14.259766 13.107422 C 13.77395 13.107422 13.377609 13.323962 13.134766 13.720703 L 11.970703 15.605469 L 14.414062 16.939453 L 15.923828 14.488281 L 15.488281 13.804688 C 15.194307 13.336871 14.784161 13.107422 14.259766 13.107422 z M 20.65625 16.398438 L 18.212891 17.707031 L 19.722656 20.158203 L 20.566406 20.158203 C 20.834357 20.158203 21.10464 20.0966 21.296875 20 C 21.705798 19.784075 22 19.328947 22 18.896484 C 22 18.680192 21.935783 18.475435 21.820312 18.283203 L 20.65625 16.398438 z M 12.789062 16.951172 L 10 17 L 10.857422 17.457031 L 10.089844 18.716797 C 10.038714 18.800761 10 18.932624 10 19.041016 C 10 19.149284 10.038573 19.269799 10.089844 19.353516 L 11.689453 21.935547 C 11.676893 21.851828 11.675781 21.791641 11.675781 21.744141 C 11.675781 21.540079 11.778747 21.215682 11.90625 21 L 13.275391 18.777344 L 14.144531 19.246094 L 12.789062 16.951172 z M 17.853516 19.507812 L 16.421875 21.753906 L 17.853516 24 L 17.853516 23.076172 L 19.351562 23.076172 C 19.620168 23.076172 19.850622 22.95597 19.978516 22.751953 L 21.564453 20.158203 C 21.295978 20.349951 20.975218 20.445312 20.591797 20.445312 L 17.853516 20.445312 L 17.853516 19.507812 z M 12.609375 20.421875 L 12.201172 21.107422 C 12.073289 21.311439 11.982422 21.635892 11.982422 21.828125 C 11.982422 22.512602 12.583318 23.076172 13.3125 23.076172 L 15.642578 23.076172 L 15.642578 20.421875 L 12.609375 20.421875 z "
     class="ColorScheme-Text"
     />
</svg>
