<svg xmlns="http://www.w3.org/2000/svg" viewBox="0 0 32 32">
  <defs id="defs3051">
    <style type="text/css" id="current-color-scheme">
      .ColorScheme-Text {
        color:#31363b;
      }
      .ColorScheme-Highlight {
        color:#3daee9;
      }
      </style>
  </defs>
 <path 
     style="fill:#cf000f" 
     d="M 2 3 L 2 10 L 1 10 L 1 29 L 12 29 L 13 29 L 31 29 L 31 8 L 30 8 L 30 5 L 16 5 L 14 3 L 2 3 z "
     />
 <path 
     style="fill-opacity:0.33;fill-rule:evenodd"
     d="m 2,3 0,7 9,0 L 13,8 30,8 30,5 16,5 14,3 2,3 Z"
     />
 <path 
     style="fill:#ffffff;fill-opacity:0.2;fill-rule:evenodd"
     d="M 14 3 L 15 6 L 30 6 L 30 5 L 16 5 L 14 3 z M 13 8 L 11 10 L 1 10 L 1 11 L 12 11 L 13 8 z "
     />
 <path 
     style="fill-opacity:0.2;fill-rule:evenodd"
     d="M 13 8 L 11 9 L 2 9 L 2 10 L 11 10 L 13 8 z M 1 28 L 1 29 L 31 29 L 31 28 L 1 28 z "
     class="ColorScheme-Text"
     />
 <path 
     style="fill:currentColor;fill-opacity:0.6;stroke:none" 
     d="M 16 12 A 6 6 0 0 0 10 18 A 6 6 0 0 0 16 24 A 6 6 0 0 0 22 18 A 6 6 0 0 0 16 12 z M 16 13 A 5. 5 0 0 1 21 18 A 5. 5 0 0 1 16 23 A 5. 5 0 0 1 11 18 A 5. 5 0 0 1 16 13 z M 16 14 A 4 4 0 0 0 13.441406 14.927734 L 14.082031 15.7 A 3 3 0 0 1 16 15 A 3 3 0 0 1 19 18 L 20 18 A 4 4 0 0 0 16 14 z M 17 16 L 15.398438 19.203125 A 1 1 0 0 0 15 20 A 1 1 0 0 0 16 21 A 1 1 0 0 0 17 20 A 1 1 0 0 0 16.75 19.3 L 17 16 z M 12.53125 16.017578 A 4 4 0 0 0 12 18 L 13 18 A 3 3 0 0 1 13.4 16.5 L 12.5 16 z "
     class="ColorScheme-Text"
     />
</svg>
