<svg height="32" width="32" xmlns="http://www.w3.org/2000/svg">
    <style
        type="text/css"
        id="current-color-scheme">
        .ColorScheme-Text {
            color:#eff0f1;
        }
        .ColorScheme-NegativeText {
            color:#da4453;
        }
    </style>
    <path d="M19 1.293l-.354.353-7.439 7.44.707.707L19 2.707 29.293 13l-7.086 7.086.707.707L30.707 13zm-3.564.736a14 14 0 0 0-8.21 3.076l.712.711a13 13 0 0 1 6.4-2.689zM5.1 7.221a14 14 0 0 0-3.079 8.222l1.104-1.103a13 13 0 0 1 2.7-6.395zm3.986 3.986L1.293 19 13 30.707l7.793-7.793-.707-.707L13 29.293 2.707 19l7.086-7.086zm20.893 5.35l-1.104 1.103a13 13 0 0 1-2.7 6.395l.725.724a14 14 0 0 0 3.079-8.222zm-5.917 9.627a13 13 0 0 1-6.4 2.689l-1.098 1.098a14 14 0 0 0 8.21-3.076z" class="ColorScheme-Text" fill="currentColor"/>
    <path d="M2.707 2L2 2.707 29.293 30l.707-.707z" class="ColorScheme-NegativeText" fill="currentColor"/>
</svg>
