<svg viewBox="0 0 22 22" xmlns="http://www.w3.org/2000/svg">
    <path d="m1 5v3h3v6h-3v3h9v-3h-2v-2h2.5c.276142 0 .5.223858.5.5v1.5c.0018 1.14912.497698 2.24196 1.361328 3h7.277344c.86363-.75804 1.359538-1.85088 1.361328-3v-1.986328l-4-.013672v1c0 .552285-.447715 1-1 1s-1-.447715-1-1l.002-.498047c-.000159-.669991-.443825-1.258943-1.087938-1.443359 1.212313-.42977 2.085938-1.5739695 2.085938-2.933594 0-1.72591-1.39907-3.125-3.125-3.125zm7 3h3c.5252-.0002741.961119.405787.998047.9296875.001475.0234073.002127.0468593.001953.0703125v.015625c-.008535.5461732-.45376.984442-1 .984375h-3z" fill="#924ab0" stroke-width=".238098"/>
</svg>
