<!-- Created with Inkscape (http://www.inkscape.org/) --><svg xmlns:dc="http://purl.org/dc/elements/1.1/" xmlns:cc="http://creativecommons.org/ns#" xmlns:rdf="http://www.w3.org/1999/02/22-rdf-syntax-ns#" xmlns:svg="http://www.w3.org/2000/svg" xmlns="http://www.w3.org/2000/svg" xmlns:sodipodi="http://sodipodi.sourceforge.net/DTD/sodipodi-0.dtd" xmlns:inkscape="http://www.inkscape.org/namespaces/inkscape" width="22" version="1.1" height="22" id="svg2" inkscape:version="0.91 r13725" sodipodi:docname="video-x-matroska.svg">
  <sodipodi:namedview pagecolor="#ffffff" bordercolor="#666666" borderopacity="1" objecttolerance="10" gridtolerance="10" guidetolerance="10" inkscape:pageopacity="0" inkscape:pageshadow="2" inkscape:window-width="640" inkscape:window-height="480" id="namedview11" showgrid="false" inkscape:zoom="4.0795455" inkscape:cx="4.3969492" inkscape:cy="12.19457" inkscape:current-layer="layer1"/>
  <defs id="defs3871">
    <linearGradient id="linearGradient4351-4">
      <stop id="stop4353-0" style="stop-color:#036b53"/>
      <stop id="stop4355-6" style="stop-color:#036b53" offset="1"/>
    </linearGradient>
    <linearGradient id="linearGradient4351-1">
      <stop id="stop4353-6" style="stop-color:#c8e3fe"/>
      <stop id="stop4355-2" style="stop-color:#ffffff" offset="1"/>
    </linearGradient>
    <linearGradient id="linearGradient4300-3-3">
      <stop id="stop4302-6" style="stop-color:#f39c12"/>
      <stop id="stop4304-7-6" style="stop-color:#f89406" offset="1"/>
    </linearGradient>
    <linearGradient id="linearGradient4351-5">
      <stop id="stop4353-1" style="stop-color:#fddda3"/>
      <stop id="stop4355-8" style="stop-color:#fde3a7" offset="1"/>
    </linearGradient>
  </defs>
  <metadata id="metadata3874">
    <rdf:RDF>
      <cc:Work rdf:about="">
        <dc:format>image/svg+xml</dc:format>
        <dc:type rdf:resource="http://purl.org/dc/dcmitype/StillImage"/>
      </cc:Work>
    </rdf:RDF>
  </metadata>
  <g inkscape:label="Capa 1" inkscape:groupmode="layer" id="layer1" transform="matrix(1 0 0 1 -326 -534.3622)">
    <path inkscape:label="Capa 1" inkscape:connector-curvature="0" style="fill:#4154ba;color:#000000;clip-rule:nonzero;display:inline;overflow:visible;visibility:visible;opacity:1;isolation:auto;mix-blend-mode:normal;color-interpolation:sRGB;color-interpolation-filters:linearRGB;solid-color:#000000;solid-opacity:1;fill-opacity:1;fill-rule:nonzero;stroke-width:1;stroke-linecap:butt;stroke-linejoin:miter;stroke-miterlimit:4;stroke-dasharray:none;stroke-dashoffset:0;stroke-opacity:1;filter-blend-mode:normal;filter-gaussianBlur-deviation:0;color-rendering:auto;image-rendering:auto;shape-rendering:auto;text-rendering:auto;enable-background:accumulate" id="rect3009" d="m 3,4 0,15 1,0 2,0 10,0 2,0 1,0 L 19,4 18,4 16,4 6,4 4,4 3,4 Z M 4,5 5,5 5,6 4,6 4,5 Z m 2,0 10,0 0,5.5 -10,0 L 6,5 Z m 11,0 1,0 0,1 -1,0 0,-1 z M 4,8 5,8 5,9 4,9 4,8 Z m 13,0 1,0 0,1 -1,0 0,-1 z m -13,3 1,0 0,1 -1,0 0,-1 z m 13,0 1,0 0,1 -1,0 0,-1 z m -11,1.5 10,0 0,5.5 -10,0 0,-5.5 z m -2,1.5 1,0 0,1 -1,0 0,-1 z m 13,0 1,0 0,1 -1,0 0,-1 z m -13,3 1,0 0,1 -1,0 0,-1 z m 13,0 1,0 0,1 -1,0 0,-1 z" transform="matrix(1 0 0 1 326 533.8622)"/>
    </g>
</svg>