<svg viewBox="0 0 22 22" xmlns="http://www.w3.org/2000/svg">
    <style id="current-color-scheme" type="text/css">
        .ColorScheme-Text {
            color:#232629;
        }
        .ColorScheme-NegativeText {
            color:#da4453;
        }
    </style>
    <path d="m3.5 2.7929688-.7070312.7070312.3535156.3535156 14.9999996 15.0000004.353516.353515.707031-.707031-.353515-.353516-15.0000004-14.9999996z" class="ColorScheme-NegativeText" fill="currentColor"/>
    <g class="ColorScheme-Text" fill="currentColor">
        <path d="m8 3c-.828427 0-1.5782005.336013-2.1210938.8789062l5.1210938 5.1210938v-3c0-1.656854-1.343146-3-3-3zm-3 4v4c0 1.656854 1.343146 3 3 3 1.0855136 0 2.02799-.581747 2.554688-1.445312zm-2 2v2c0 2.419003 1.7176959 4.43717 4 4.900391v2.099609h-2v1h6v-1h-2v-2.099609c1.221013-.24782 2.268985-.948958 2.990234-1.910157l-.710937-.710937c-.722654 1.037566-1.9190145 1.720703-3.279297 1.720703-2.209139 0-4-1.790861-4-4v-2zm9 0v1l1 1v-2z"/>
        <g opacity=".35">
            <path d="m14.279297 3.828125-.451172.8925781.447266.2265625c1.111155.5609197 2.066402 1.4379814 2.71875 2.4980469s1.005859 2.30998 1.005859 3.5546875c0 1.244708-.353511 2.494622-1.005859 3.554688-.05509.08952-.124272.169027-.183594.255859l.714844.714844c.107035-.148903.224103-.290926.320312-.447266.751092-1.220524 1.154297-2.64501 1.154297-4.078125s-.403205-2.8576007-1.154297-4.078125-1.841746-2.2233162-3.121094-2.8691406zm.482422 12.933594c-.160785.09911-.317864.205973-.486328.291015l-.447266.226563.451172.892578.445312-.224609c.265815-.134185.517456-.293275.765625-.457032z"/>
            <path d="m13.21875 6.5507812-.4375.8984376c.659004.3212645 1.230576.8353277 1.619141 1.4570312.388564.6217035.599609 1.360608.599609 2.09375 0 .562366-.126154 1.126975-.359375 1.640625l.738281.738281c.399434-.727802.621094-1.547343.621094-2.378906 0-.924034-.262216-1.8394676-.751953-2.6230469-.489737-.7835792-1.198705-1.4212581-2.029297-1.8261719z"/>
        </g>
    </g>
</svg>
