<svg version="1.1" viewBox="0 0 22 22" xmlns="http://www.w3.org/2000/svg">
    <style id="current-color-scheme" type="text/css">.ColorScheme-Text {
            color:#232629;
        }
        .ColorScheme-NegativeText {
            color:#da4453;
        }</style>
    <path class="ColorScheme-Text" d="m3 3v6h2v7c0 1.662 1.338 3 3 3h4v-2h1.4l0.6-1v-2h-7v2h2v2h-1c-1.108 0-2-0.892-2-2v-7h2v-6zm6 0v1h9v11h1v-12h-1zm-5 1h3v4h-3zm1 1v2h1v-2zm-2 5v6h1v-6z" fill="currentColor"/>
    <rect width="22" height="22" fill="none"/>
    <path d="m13 19 3-5 3 5z" fill="#fdbc4b" fill-rule="evenodd"/>
</svg>
