<svg height="22" width="22"
  xmlns="http://www.w3.org/2000/svg">
  <defs id="defs4157">
    <style id="current-color-scheme" type="text/css">
      .ColorScheme-Text {
        color:#31363b;
      }
    </style>
  </defs>
  <path class="ColorScheme-Text" style="opacity:0.35;fill:currentColor;fill-opacity:1;fill-rule:evenodd;stroke:none;stroke-width:1px;stroke-linecap:butt;stroke-linejoin:miter;stroke-opacity:1" d="M 19,3 3,19 h 11 v -3 l 1,-1 v -2 l 1,-1 1,-1 h 2 z" id="path5156" />
  <path class="ColorScheme-Text" id="path5158" d="m 18,12 c -1.108,0 -2,0.892 -2,2 v 2 h -1 v 3 h 6 v -3 h -1 v -2 c 0,-1.108 -0.892,-2 -2,-2 z m 0,1 c 0.554,0 1,0.446 1,1 v 2 h -2 v -2 c 0,-0.554 0.446,-1 1,-1 z" style="fill:currentColor;fill-opacity:1;stroke:none;stroke-width:0.1;stroke-miterlimit:4;stroke-dasharray:none;stroke-opacity:1" />
  <path class="ColorScheme-Text" d="M 10,12 3,19 h 7 z" style="fill:currentColor;fill-opacity:1;fill-rule:evenodd;stroke:none;stroke-width:1px;stroke-linecap:butt;stroke-linejoin:miter;stroke-opacity:1" id="path4317" />
  <path class="ColorScheme-Text" id="path5361" d="M 3,3 V 7 8 H 7 V 7 3 H 6 V 7 H 4 V 3 Z" style="fill:currentColor;fill-opacity:1;stroke:none" />
</svg>
