<svg viewBox="0 0 22 22" xmlns="http://www.w3.org/2000/svg">
    <style type="text/css" id="current-color-scheme">
        .ColorScheme-Text {
            color:#232629;
        }
    </style>
    <g class="ColorScheme-Text" fill="currentColor">
        <path d="m9 2.2929688-6.7070312 6.7070312 10.7070312 10.707031 6.353516-6.353515.353515-.353516zm0 1.4140624 9.292969 9.2929688-5.292969 5.292969-9.2929688-9.292969z"/>
        <path d="m11.332031 3.0390625 1.164063 1.1640625a7 7 0 0 1 4.384765 3.0371094l-.052734.0527344-.621094.6210937 2.751953 2.7519535a8 8 0 0 0 -7.626953-7.6269535z"/>
        <path d="m3.0410156 11.333984a8 8 0 0 0 7.6269534 7.626954l-1.1640628-1.164063a7 7 0 0 1 -4.3847656-3.037109l.0527344-.052735.6210938-.621093z"/>
    </g>
</svg>
