<svg height="22" width="22" xmlns="http://www.w3.org/2000/svg" xmlns:xlink="http://www.w3.org/1999/xlink"><linearGradient id="a"><stop offset="0" stop-color="#faae2a"/><stop offset="1" stop-color="#ffc35a"/></linearGradient><linearGradient id="b" gradientTransform="matrix(.70588236 0 0 .70588341 -273.52104 -365.26974)" gradientUnits="userSpaceOnUse" x2="0" y1="545.79797" y2="528.79797"><stop offset="0" stop-color="#197cf1"/><stop offset="1" stop-color="#20bcfa"/></linearGradient><linearGradient id="c" gradientTransform="matrix(.76923079 0 0 .59999821 -299.05497 -308.67785)" gradientUnits="userSpaceOnUse" x2="0" y1="527.79797" y2="517.79797"><stop offset="0" stop-color="#c6cdd1"/><stop offset="1" stop-color="#e0e5e7"/></linearGradient><linearGradient id="d" gradientTransform="matrix(.49999737 0 0 .75000007 -191.28468 -386.84852)" gradientUnits="userSpaceOnUse" x1="398.57144" x2="400.57144" xlink:href="#a"/><linearGradient id="e" gradientTransform="matrix(.49999731 0 0 .75000007 -186.28465 -386.84852)" gradientUnits="userSpaceOnUse" x1="398.57144" x2="400.57144" xlink:href="#a"/><linearGradient id="f" gradientUnits="userSpaceOnUse" x1="8" x2="17" y1="11" y2="20"><stop offset="0" stop-color="#292c2f"/><stop offset="1" stop-opacity="0"/></linearGradient><linearGradient id="g" gradientUnits="userSpaceOnUse" x1="11" x2="11" y1="17" y2="11"><stop offset="0" stop-color="#7cbaf8"/><stop offset="1" stop-color="#f4fcff"/></linearGradient><path d="m5 8v12h12v-12z" fill="url(#b)" stroke-width=".666667"/><path d="m6 2h10v6h-10z" fill="url(#c)" stroke-width=".654653"/><path d="m7 3h3.035741v3h-3.035741z" fill="#23262c" stroke-width=".754449"/><path d="m11.964319 3h3.035681v3h-3.035681z" fill="#23262c" stroke-width=".754441"/><path d="m8 3h1v3h-1z" fill="url(#d)" stroke-width=".612371"/><path d="m13 3h1v3h-1z" fill="url(#e)" stroke-width=".612371"/><path d="m5 19h12v.999855h-12z" fill="#0c69cf" stroke-width=".816449"/><g stroke-width=".5"><path d="m9.8535156 11.146484-.7070312.707032 2.8535156 2.853515v.292969l5 5v-4l-3-3-1.292969 1zm-.7871094 2.28711-.8828124.882812 1.4765624 1.476563c-.1011012.130673-.1601562.290046-.1601562.457031 0 .1989.0781.3906.21875.53125l3.21875 3.21875h.220703 2.476563z" fill="url(#f)" opacity=".2"/><path d="m9.5 11.001953a.5.5 0 0 0 -.5.5.5.5 0 0 0 .5.5.5.5 0 0 0 .5-.5.5.5 0 0 0 -.5-.5zm2.5 0-.75.75 1.25 1.25-1.25 1.25.75.75 2-2zm-3.375 2.25a.625.625 0 0 0 -.625.625.625.625 0 0 0 .625.625.625.625 0 0 0 .625-.625.625.625 0 0 0 -.625-.625zm1.625 2.25a.75.75 0 0 0 -.75.75.75.75 0 0 0 .75.75.75.75 0 0 0 .75-.75.75.75 0 0 0 -.75-.75z" fill="url(#g)"/></g></svg>