<svg height="22" viewBox="0 0 22 22" width="22" xmlns="http://www.w3.org/2000/svg" xmlns:xlink="http://www.w3.org/1999/xlink"><linearGradient id="a" gradientTransform="matrix(.57142824 0 0 .57142824 -222.46924 732.04922)" gradientUnits="userSpaceOnUse" x2="0" xlink:href="#b" y1="543.79797" y2="503.798"/><linearGradient id="b"><stop offset="0" stop-color="#2f3943"/><stop offset="1" stop-color="#808c9b"/></linearGradient><linearGradient id="c" gradientTransform="matrix(.63636312 0 0 .63636312 -248.99977 698.03648)" gradientUnits="userSpaceOnUse" x2="0" xlink:href="#b" y1="499.798" y2="547.79797"/><linearGradient id="d" gradientUnits="userSpaceOnUse" x1="11" x2="11" y1="17" y2="6"><stop offset="0" stop-color="#ffd42a"/><stop offset="1" stop-color="#ffdf62"/></linearGradient><linearGradient id="e" gradientUnits="userSpaceOnUse" x1="8" x2="20" y1="6" y2="20"><stop offset="0"/><stop offset="1" stop-opacity="0"/></linearGradient><g transform="translate(0 -1020.3622)"><rect fill="#26333a" height="18" rx="9" stroke-width=".060268" width="18" x="1.999995" y="1022.3622"/><path d="m11 1023.3622c4.432 0 8 3.568 8 8s-3.568 8-8 8-8-3.568-8-8 3.568-8 8-8z" fill="url(#a)" stroke-width=".057143"/><path d="m11 1024.3622c3.878 0 7 3.122 7 7s-3.122 7-7 7-7-3.122-7-7 3.122-7 7-7z" fill="url(#c)" stroke-width=".057692"/><path d="m12.414062 6.5859375-3.1464839.4140625.7324219.7324219v.2675781l-1 1 1 1-1 1 1 1-.4140625.414062 1.5859375 1.585938h-.996094l-1.9999998-2-.1757812 1 2 1.869141v1.130859l-1 1 3 3h8v-5.8281z" fill="url(#e)" opacity=".2" transform="translate(0 1020.3622)"/><path d="m11 6a2 2 0 0 0 -1.7324219 1h.7324219v1h-1v1h1v1h-1v1h1v1h-.7324219a2 2 0 0 0 1.7324219 1 2 2 0 0 0 1.732422-1h-.732422v-1h1v-1h-1v-1h1v-1h-1v-1h.732422a2 2 0 0 0 -1.732422-1zm-3.8652344 6a4 4 0 0 0 2.8652344 2.869141v1.130859l-1 1h4l-1-1v-1.130859a4 4 0 0 0 2.865234-2.869141h-1.041015a3 3 0 0 1 -2.824219 2 3 3 0 0 1 -2.8242188-2z" fill="url(#d)" stroke-width="2" transform="translate(0 1020.3622)"/></g></svg>