<svg height="22" width="22" xmlns="http://www.w3.org/2000/svg" xmlns:xlink="http://www.w3.org/1999/xlink"><linearGradient id="a" gradientUnits="userSpaceOnUse" x1="-2.75001" x2="12.874999" y1="18.87497" y2="6.999978"><stop offset="0" stop-color="#197cf1"/><stop offset="1" stop-color="#21c9fb"/></linearGradient><linearGradient id="b" gradientUnits="userSpaceOnUse" x1="24.749971" x2="12.249979" y1="18.249971" y2="-4.249996"><stop offset="0" stop-color="#c6cdd1"/><stop offset="1" stop-color="#e0e5e7"/></linearGradient><linearGradient id="c" gradientTransform="matrix(.99999938 0 0 .59999963 -4.675 -5.624981)" gradientUnits="userSpaceOnUse" x1="9" x2="3.746097" y1="34" y2="22.724428"><stop offset="0" stop-color="#7cbaf8"/><stop offset="1" stop-color="#f4fcff"/></linearGradient><path d="m1 2v18h8v-6.5l3.5-3.5-3.5-3.5v-4.5z" fill="url(#a)" fill-rule="evenodd" stroke-width=".625"/><path d="m20.99997 18.87499h-7.99997v-5.37499l3.5-3.5-3.5-3.5v-4.5h7.99997z" fill="url(#b)" fill-rule="evenodd" stroke-width=".625"/><path d="m2 12v3h1v-3zm2 0v1h1v-1zm0 2v1h1v-1z" fill="url(#c)" stroke-linejoin="round" stroke-width=".387298"/><g fill-rule="evenodd" stroke-width=".625"><path d="m7 3v2h2v-2zm5.5 7-3.5 3.5v1l3.5-3.5zm-5.5 5v2h2v-2zm-6 3v1h8v-1z" fill="#2980b9"/><path d="m13 7.5v1l2.5 2.5.5-.5zm-.5 3.5-3.5 3.5v1l3.5-3.5zm-11.5 8v1h8v-1zm12 0v1h8v-1z" fill="#289769"/><path d="m13 6.5v1l3 3 .5-.5zm0 11.5v1h8v-1z" fill="#99a1a7"/></g><path d="m13 3v2h2v-2zm5 1v1h2v-1zm0 2v1h2v-1zm0 2v1h2v-1zm-5 7v2h2v-2z" fill="#4c5154" stroke-linejoin="round" stroke-width=".500002"/></svg>