<svg height="22" width="22" xmlns="http://www.w3.org/2000/svg" xmlns:xlink="http://www.w3.org/1999/xlink"><linearGradient id="a" gradientUnits="userSpaceOnUse" x1="11" x2="11" y1="7" y2="3"><stop offset="0" stop-color="#da4453"/><stop offset="1" stop-color="#e4848f"/></linearGradient><linearGradient id="b" gradientUnits="userSpaceOnUse" x1="8" x2="8" y1="13" y2="9"><stop offset="0" stop-color="#8e44ad"/><stop offset="1" stop-color="#b08bc4"/></linearGradient><linearGradient id="c" gradientUnits="userSpaceOnUse" x1="5" x2="5" y1="18" y2="14"><stop offset="0" stop-color="#208c4e"/><stop offset="1" stop-color="#6dbd7f"/></linearGradient><linearGradient id="d" gradientUnits="userSpaceOnUse" x1="11.428572" x2="16.571429" xlink:href="#j" y1="12.5" y2="17.642857"/><linearGradient id="e" gradientUnits="userSpaceOnUse" x1="5.428259" x2="10.571116" xlink:href="#j" y1="12.500328" y2="17.643185"/><linearGradient id="f" gradientUnits="userSpaceOnUse" x1="13.428572" x2="18.571429" xlink:href="#j" y1="17.500328" y2="22.643185"/><linearGradient id="g" gradientUnits="userSpaceOnUse" x1="7.428572" x2="12.571429" xlink:href="#j" y1="17.500328" y2="22.643185"/><linearGradient id="h" gradientUnits="userSpaceOnUse" x1="2.428259" x2="7.571116" xlink:href="#j" y1="17.500328" y2="22.643185"/><linearGradient id="i" gradientUnits="userSpaceOnUse" x1="7.785715" x2="7.785715" y1="13.571429" y2="2"><stop offset="0" stop-color="#c3c8cd"/><stop offset="1" stop-color="#e4e6e8"/></linearGradient><linearGradient id="j"><stop offset="0" stop-color="#292c2f"/><stop offset="1" stop-opacity="0"/></linearGradient><linearGradient id="k" gradientUnits="userSpaceOnUse" x1="8.428572" x2="13.571429" xlink:href="#j" y1="6.5" y2="11.642857"/><rect fill="url(#i)" height="18" rx="2" stroke-width="2" width="18" x="2" y="2"/><g stroke-width=".642857"><path d="m12.679688 3.2636719-3.3593755 3.4726562 10.6796875 10.6796879v-6.832032z" fill="url(#k)" opacity=".2"/><path d="m15.679688 9.2636719-3.359376 3.4726561 7.679688 7.679688v-6.832032zm6.904296 13.7363281.416016.416016v-.416016z" fill="url(#d)" opacity=".2"/><path d="m17.679688 14.263672-3.359376 3.472656 2.263672 2.263672h3.416016v-3.416016zm6.320312 7.736328v3h-2.416016l3.416016 3.416016v-6.416016z" fill="url(#f)" opacity=".2"/><path d="m11.679688 14.263672-3.3593755 3.472656 2.2636715 2.263672h6.832032zm5.443359 12.27539 1.876953 1.876954v-1.876954z" fill="url(#g)" opacity=".2"/><path d="m6.6796875 14.263672-3.359375 3.472656 2.2636719 2.263672h6.8320316z" fill="url(#h)" opacity=".2"/><path d="m9.679375 9.264-3.359375 3.472656 10.679687 10.679688v-6.832032z" fill="url(#e)" opacity=".2"/></g><path d="m11 3.9550781-5.4804688 10.0449219-.0140755 2 2.3714974-4.230469 1.3378907 2.230469h1.1699222l-1.9511722-3.25 2.5664062-4.703125 4.337891 7.953125h1.142578z" fill="#7f8c8d"/><g stroke-width="2"><path d="m4 14c-.554 0-1 .446-1 1v2c0 .554.446 1 1 1h2c.554 0 1-.446 1-1v-2c0-.554-.446-1-1-1zm5 0c-.554 0-1 .446-1 1v2c0 .554.446 1 1 1h2c.554 0 1-.446 1-1v-2c0-.554-.446-1-1-1zm6 0c-.554 0-1 .446-1 1v2c0 .554.446 1 1 1h2c.554 0 1-.446 1-1v-2c0-.554-.446-1-1-1z" fill="url(#c)"/><path d="m7 9c-.554 0-1 .446-1 1v2c0 .554.446 1 1 1h2c.554 0 1-.446 1-1v-2c0-.554-.446-1-1-1zm6 0c-.554 0-1 .446-1 1v2c0 .554.446 1 1 1h2c.554 0 1-.446 1-1v-2c0-.554-.446-1-1-1z" fill="url(#b)"/><path d="m10 3c-.554 0-1 .446-1 1v2c0 .554.446 1 1 1h2c.554 0 1-.446 1-1v-2c0-.554-.446-1-1-1z" fill="url(#a)"/><path d="m2 17v1c0 1.108.892 2 2 2h14c1.108 0 2-.892 2-2v-1c0 1.108-.892 2-2 2h-14c-1.108 0-2-.892-2-2z" fill="#97a0a7"/></g></svg>