<svg height="22" width="22" xmlns="http://www.w3.org/2000/svg" xmlns:xlink="http://www.w3.org/1999/xlink"><linearGradient id="a" gradientTransform="matrix(.64285673 0 0 .64285673 -246.51005 -330.8699)" gradientUnits="userSpaceOnUse" x2="0" y1="545.79797" y2="517.79797"><stop offset="0" stop-color="#197cf1"/><stop offset="1" stop-color="#20bcfa"/></linearGradient><linearGradient id="b" gradientUnits="userSpaceOnUse" x1="11" x2="11" y1="16" y2="6"><stop offset="0" stop-color="#7cbaf8"/><stop offset="1" stop-color="#f4fcff"/></linearGradient><linearGradient id="c" gradientUnits="userSpaceOnUse" x1="6" x2="20" y1="6" y2="20"><stop offset="0" stop-color="#292c2f"/><stop offset="1" stop-opacity="0"/></linearGradient><path d="m9.0000003 14c-.84582.0015-1.598919.40191-1.880859 1h3.7656247c-.28242-.5991-1.0375157-.99973-1.8847657-1z" fill="#292c2f"/><rect fill="url(#a)" height="18.000008" rx="9" stroke-width=".642857" width="17.999994" x="2.000006" y="1.999992"/><path d="m10 6v6.380859l-2 1.998047 5.621094 5.621094h6.378906v-5.740234l-8.259766-8.259766z" fill="url(#c)" opacity=".2"/><path d="m10 6v3.6191406l-2-1.9980468v1.7597656l1.6191406 1.6191406-1.6191406 1.621094v1.757812l.4394531-.439453 1.5605469-1.558594v3.619141h1.740234l2.140625-2.75-1.75-2.25 1.75-2.25-2.140625-2.75zm1 1h.259766l1.359375 1.75-1.359375 1.75h-.259766zm0 4.5h.259766l1.359375 1.75-1.359375 1.75h-.259766z" fill="url(#b)"/></svg>