<svg height="22" width="22" xmlns="http://www.w3.org/2000/svg" xmlns:xlink="http://www.w3.org/1999/xlink"><linearGradient id="a" gradientTransform="matrix(.64285714 0 0 .64285714 -246.51021 -330.87014)" gradientUnits="userSpaceOnUse" x2="0" y1="545.79797" y2="517.79797"><stop offset="0" stop-color="#197cf1"/><stop offset="1" stop-color="#20bcfa"/></linearGradient><linearGradient id="b" gradientTransform="matrix(.2755102 0 0 .2755102 -96.79009 -138.0872)" gradientUnits="userSpaceOnUse" x2="0" y1="545.79797" y2="517.79797"><stop offset="0" stop-color="#7cbaf8"/><stop offset="1" stop-color="#f4fcff"/></linearGradient><linearGradient id="c" gradientUnits="userSpaceOnUse" x1="9.071437" x2="18.071437" y1="3.864211" y2="12.864211"><stop offset="0" stop-color="#292c2f"/><stop offset="1" stop-opacity="0"/></linearGradient><g stroke-width=".642857"><path d="m20 2v13h-5v5l-5-5h-8v-13z" fill="url(#a)"/><path d="m18 4-9 7 6 6v-2h5v-9z" fill="url(#c)" fill-rule="evenodd" opacity=".2"/><path d="m18 4 1 1v7l-4 .00001v2l-2-2.00001h-3l-1-1v-7z" fill="#280000" opacity=".1"/><path d="m18 4v7l-3 .00001v2l-2-2.00001h-4v-7z" fill="url(#b)"/><path d="m2 14v1h8l5 5v-1l-5-5zm13 0v1h5v-1z" fill="#3c0000" opacity=".2"/></g></svg>