<svg height="22" width="22" xmlns="http://www.w3.org/2000/svg" xmlns:xlink="http://www.w3.org/1999/xlink"><linearGradient id="a" gradientTransform="matrix(.36685 0 0 .34615286 -142.9925 -173.08407)" gradientUnits="userSpaceOnUse" x1="388.423" x2="388.423" y1="557.79797" y2="505.798"><stop offset="0" stop-color="#7f8c8d"/><stop offset="1" stop-color="#afb0b3"/></linearGradient><linearGradient id="b" gradientTransform="matrix(.33540428 0 0 .34615286 -21.018857 -.076429)" gradientUnits="userSpaceOnUse" x1="3" x2="3" y1="17" y2="3"><stop offset="0" stop-color="#eef1f2"/><stop offset="1" stop-color="#f9fafb"/></linearGradient><linearGradient id="c" gradientUnits="userSpaceOnUse" x1="5" x2="5" y1="0" y2="8"><stop offset="0" stop-color="#da4453"/><stop offset="1" stop-color="#c72737"/></linearGradient><linearGradient id="d" gradientUnits="userSpaceOnUse" x1="3.710111" x2="10.78154" y1="1.142858" y2="8.214287"><stop offset="0" stop-color="#292c2f"/><stop offset="1" stop-opacity="0"/></linearGradient><g transform="translate(1)"><path d="m2 2h15v18h-15z" fill="url(#a)" stroke-width=".633866"/><path d="m4 18h11v2h-11z" fill="#292c2e" stroke-width=".654654"/><path d="m5 19h6v1h-6zm7 0h2v1h-2z" fill="#f6b44d" stroke-width=".811273"/><path d="m15 18h2v2h-2zm-13 0h2v2h-2z" fill="#292c2f" opacity=".2" stroke-width=".654654"/><path d="m2 18 2 2v-2zm13 0v1.999996l2 .000004v-2z" opacity=".2" stroke-width=".642857"/><path d="m6 3a3 3 0 0 0 -3 3v3 .2695312a2 2 0 0 1 1 1.7304688 2 2 0 0 1 -1 1.732422v.267578 2l2 2h9l2-2v-2-.267578a2 2 0 0 1 -1-1.732422 2 2 0 0 1 1-1.7324219v-.2675781-3a3 3 0 0 0 -3-3z" fill="url(#b)"/></g><g transform="translate(7 7)"><path d="m6 .1992188-2 .8007812-1 3h-1v4l5.566406 6h4.433594v-7.800781z" fill="url(#d)" opacity=".2" stroke-width=".642857"/><path d="m5 0a2 2 0 0 0 -2 2v2h-1v4h6v-4h-1v-2a2 2 0 0 0 -2-2zm0 1a1 1 0 0 1 1 1v2h-2v-2a1 1 0 0 1 1-1z" fill="url(#c)"/></g></svg>