<svg height="22" width="22" xmlns="http://www.w3.org/2000/svg" xmlns:xlink="http://www.w3.org/1999/xlink"><linearGradient id="a" gradientTransform="matrix(.64285776 0 0 .64285776 -246.51045 -330.87044)" gradientUnits="userSpaceOnUse" x2="0" y1="545.79797" y2="517.79797"><stop offset="0" stop-color="#2a2c2f"/><stop offset="1" stop-color="#424649"/></linearGradient><linearGradient id="b" gradientUnits="userSpaceOnUse" x1="6.499998" x2="15.500006" y1="6.500027" y2="15.500035"><stop offset="0" stop-color="#292c2f"/><stop offset="1" stop-opacity="0"/></linearGradient><linearGradient id="c" gradientUnits="userSpaceOnUse" x1="5" x2="5" y1="20" y2="7"><stop offset="0" stop-color="#999a9c"/><stop offset="1" stop-color="#f4f5f5"/></linearGradient><rect fill="url(#a)" height="18" rx="9" stroke-width=".642858" width="18" x="2.000001" y="2.000005"/><path d="m9.2522327 7.1240508-3.9287147 7.6264022 5.228241 5.226986c.149485.0073.296882.0226.448243.0226 4.294741 0 7.86065-2.981364 8.768982-6.993589l-3.440294-3.4402933-2.13951-.1845702-1.222937.6993585.05148.0339-.04143-.0075 1.686246 1.686246-.345285.396764z" fill="url(#b)" fill-rule="evenodd" opacity=".2" stroke-width=".642858"/><path d="m7.4257812 6.8378906-2.5214843 7.1699214h1.6308593l.5195313-1.701171h2.5996094l.5214841 1.701171h1.628907l-2.5292974-7.1699214zm.9296876 1.109375c.033333.1333334.075573.2907032.1289062.4707032.053333.1799999.1068229.3559635.1601562.5292968.053333.1733334.097526.3163542.1308594.4296875l.5195313 1.6601559h-1.859375l.5097656-1.6601559c.026667-.073333.062708-.1958073.109375-.3691406.053333-.18.1068229-.3672135.1601563-.5605469.06-.2.1072916-.3666666.140625-.5zm6.4687092.048827c-.386667 0-.759141.047292-1.119141.140625-.36.086667-.684036.2029427-.970703.3496094l.490234 1.0097656c.253334-.1133333.506433-.2059635.759766-.2792969.253333-.08.514583-.1210937.78125-.1210937s.472474.067839.619141.2011718c.153333.1333334.230451.3422398.230468.6289068l.000041.6816419-.951172.0293c-.813333.03333-1.421458.187604-1.828124.460937-.406667.273334-.611329.699297-.611329 1.279297 0 .593333.160469 1.030547.480469 1.310547s.722318.419922 1.208984.419922c.453334 0 .810313-.06589 1.070313-.199219.26-.133333.506901-.347292.740234-.640625h.04102l.289063.740234h1.041015l-.000041-4.0820319c-.000007-.653334-.19651-1.1358859-.589844-1.4492192-.38667-.3200031-.948311-.4804718-1.681644-.4804718zm.791056 3.4804699v.451172c0 .346667-.110078.617214-.330078.810547-.22.186667-.490547.279297-.810547.279297-.213333 0-.386198-.04729-.519531-.140625-.133333-.1-.199219-.263568-.199219-.490234 0-.26.09263-.468906.279297-.628907.186667-.16.52-.246432 1-.259765z" fill="url(#c)"/></svg>