<svg height="22" width="22" xmlns="http://www.w3.org/2000/svg" xmlns:xlink="http://www.w3.org/1999/xlink"><linearGradient id="a" gradientUnits="userSpaceOnUse" x1="24.018" x2="24.018" y1="18.383" y2=".383"><stop offset="0" stop-color="#a5a5a5"/><stop offset="1" stop-color="#f5f2f5"/></linearGradient><linearGradient id="b" gradientUnits="userSpaceOnUse" x1="7" x2="7" y1="16" y2="6"><stop offset="0" stop-color="#ffd42a"/><stop offset="1" stop-color="#ffdf62"/></linearGradient><linearGradient id="c" gradientUnits="userSpaceOnUse" x1="6" x2="19" y1="5" y2="18"><stop offset="0" stop-color="#292c2f"/><stop offset="1" stop-opacity="0"/></linearGradient><g stroke-linejoin="round" stroke-width="2"><circle cx="11" cy="11" fill="#484f56" r="9"/><path d="m11 2a9 9 0 0 0 -8.0546875 5h1.0546875l1 1v-1h1v-1l2-2v1l1-1v-1h1v1h1l1-1v-.9433594a9 9 0 0 0 -1-.0566406zm6.361328 2.6386719-.361328.3613281v1h1l.283203-.2832031a9 9 0 0 0 -.921875-1.078125zm1.322266 1.6777343-.683594.6835938-2 1-1 3h1v1l2 1 1.917969-.958984a9 9 0 0 0 .082031-1.041016 9 9 0 0 0 -1.316406-4.6835938zm-15.683594 2.6835938v1h-.921875a9 9 0 0 0 -.078125 1h1l2 2h1v1h-1v1l2 2v2.054688a9 9 0 0 0 4 .945312l1-1v-1h1l1-1v-1l1-1-1-1h-2l-1-1h-1l-1-1h-2v-1l-1 1h-1v-1l-1-1v-1z" fill="url(#a)"/><path d="m19.974609 10.359375a9 9 0 0 1 -8.974609 8.640625 9 9 0 0 1 -8.9648438-8.5 9 9 0 0 0 -.0351562.5 9 9 0 0 0 9 9 9 9 0 0 0 9-9 9 9 0 0 0 -.025391-.640625z" fill="#292c2f" opacity=".3"/></g><path d="m11 5c-.7956 0-1.5584836.3162963-2.1210938.8789062-.5626098.5626101-.8789062 1.3254438-.8789062 2.1210938.00064.00521.00129.010425.00195.015625-1.2553638.94057-1.99658 2.415775-2.00195 3.984375 0 1.3261.5271536 2.597556 1.4648438 3.535156l4.4648442 4.464844h8.070312v-7.964844l-4.017578-4.0175779c-.3182-.31817-.755122-.5175781-1.232422-.5175781-.0026 0-.0052-.000012-.0078 0l-1.621106-1.6210938c-.5452-.54523-1.297494-.8787262-2.121094-.8789062z" fill="url(#c)" opacity=".2"/><path d="m11 5a3 3 0 0 0 -3 3 3 3 0 0 0 .0019531.015625 5 5 0 0 0 -2.0019531 3.984375 5 5 0 0 0 5 5 5 5 0 0 0 5-5 5 5 0 0 0 -.191406-1.365234c.417696-.32206.691406-.8257749.691406-1.384766 0-.9546527-.795347-1.75-1.75-1.75-.274094 0-.534803.065567-.767578.1816406a3 3 0 0 0 -2.982422-2.6816406z" fill="#484f56"/><path d="m11 6a2 2 0 0 0 -2 2 2 2 0 0 0 .0683594.5078125 4 4 0 0 0 -2.0683594 3.4921875 4 4 0 0 0 4 4 4 4 0 0 0 4-4 4 4 0 0 0 -.603516-2.0898438.75.75 0 0 0 .353516.0898438.75.75 0 0 0 .75-.75.75.75 0 0 0 -.75-.75.75.75 0 0 0 -.75.75.75.75 0 0 0 .013672.1367188 4 4 0 0 0 -1.080078-.8867188 2 2 0 0 0 .066406-.5 2 2 0 0 0 -2-2zm0 1a1 1 0 0 1 1 1 1 1 0 0 1 -.011719.1230469 4 4 0 0 0 -.988281-.1230469 4 4 0 0 0 -.986328.1308594 1 1 0 0 1 -.013672-.1308594 1 1 0 0 1 1-1zm0 2a3 3 0 0 1 3 3 3 3 0 0 1 -3 3 3 3 0 0 1 -3-3 3 3 0 0 1 3-3zm0 1v2h2a2 2 0 0 0 -2-2z" fill="url(#b)" stroke-width="2"/></svg>