<svg height="22" viewBox="0 0 22 22" width="22" xmlns="http://www.w3.org/2000/svg" xmlns:xlink="http://www.w3.org/1999/xlink"><linearGradient id="a" gradientTransform="matrix(.6770843 0 0 .69118956 -255.63738 -341.36517)" gradientUnits="userSpaceOnUse" x1="379.03311" x2="393.80231" y1="521.36951" y2="501.11459"><stop offset="0" stop-color="#c6cdd1"/><stop offset="1" stop-color="#e0e5e7"/></linearGradient><linearGradient id="b" gradientTransform="matrix(.66477325 0 0 .60185273 -249.971 -294.5464)" gradientUnits="userSpaceOnUse" x1="386.57144" x2="429.57144"><stop offset="0" stop-color="#f2f2f2"/><stop offset="1" stop-color="#f9f9f9"/></linearGradient><linearGradient id="c" gradientUnits="userSpaceOnUse" x1="11.000006" x2="19.750025" y1="6.999981" y2="15.74998"><stop offset="0" stop-color="#292c2f"/><stop offset="1" stop-opacity="0"/></linearGradient><path d="m1 2v18h20v-18z" fill="#23262c" stroke-width=".625"/><path d="m1.0000062 5.1250124h19.9999938v13.8749876h-20z" fill="url(#a)" stroke-width=".625"/><path d="m2 6h18v1h-18z" fill="#cad3d6" stroke-width=".801781"/><path d="m2 3v1h2v-1zm0 4v10h18v-10z" fill="url(#b)" stroke-width=".633869"/><path d="m17 6-1 11 2 2h3v-9z" fill="url(#c)" opacity=".2" stroke-width=".625"/><path d="m17 6h-2l-.000032 9.303812 1.000032 1.696188.999968-1.696188z" fill="#23262c"/><g stroke-width=".625"><path d="m15 11h2v3h-2z" fill="#74868f"/><path d="m18 3v1h2v-1zm-3 11v1h2v-1z" fill="#147de1"/></g></svg>