<svg height="22" width="22" xmlns="http://www.w3.org/2000/svg" xmlns:xlink="http://www.w3.org/1999/xlink"><linearGradient id="a" gradientUnits="userSpaceOnUse" x1="11" x2="11" xlink:href="#f" y1="20" y2="2"/><linearGradient id="b" gradientUnits="userSpaceOnUse" x1="32" x2="32" y1="18" y2="0"><stop offset="0" stop-color="#54a3d8"/><stop offset="1" stop-color="#7cbcec"/></linearGradient><linearGradient id="c" gradientUnits="userSpaceOnUse" x1="32" x2="32" y1="16" y2="2"><stop offset="0" stop-color="#31363b"/><stop offset="1" stop-color="#333c45"/></linearGradient><linearGradient id="d" gradientTransform="matrix(.375 0 0 .5 3.75 2.5)" gradientUnits="userSpaceOnUse" x1="6" x2="6" xlink:href="#f" y1="11" y2="23"/><linearGradient id="e" gradientUnits="userSpaceOnUse" x1="32" x2="32" y1="16" y2="2"><stop offset="0" stop-color="#cfd5d5"/><stop offset="1" stop-color="#eff0f1"/></linearGradient><linearGradient id="f" gradientUnits="userSpaceOnUse" x1="5" x2="5" y1="21" y2="11"><stop offset="0" stop-color="#375a7d"/><stop offset="1" stop-color="#3b85b5"/></linearGradient><rect fill="url(#a)" height="18" ry="1.5" stroke-width="2" width="18" x="2" y="2"/><path d="m4 18h14v2h-14z" fill="#292c2f" opacity=".2" stroke-width=".763762"/><path d="m3.5 2c-.831 0-1.5.669-1.5 1.5v15c0 .831.669 1.5 1.5 1.5s1.5-.669 1.5-1.5v-.5h12v.5c0 .831.669 1.5 1.5 1.5s1.5-.669 1.5-1.5v-15c0-.831-.669-1.5-1.5-1.5s-1.5.669-1.5 1.5v.5h-12v-.5c0-.831-.669-1.5-1.5-1.5z" fill="url(#b)" stroke-width="2"/><path d="m4 4c-.554 0-1 .446-1 1v12c0 .554.446 1 1 1h14c.554 0 1-.446 1-1v-12c0-.554-.446-1-1-1zm1 2h5v10h-5zm7 0h5v10h-5z" fill="url(#c)" opacity=".8" stroke-width="2"/><path d="m6 8v1h3v-1zm7 0v1h3v-1zm-7 2.5v1h3v-1zm7 0v1h3v-1zm-7 2.5v1h3v-1zm7 0v1h3v-1z" fill="url(#d)" stroke-width=".433012"/><path d="m5 4v14h1v-14zm4 0v14h1v-14zm3 0v14h1v-14zm4 0v14h1v-14z" fill="url(#e)" stroke-width="2"/></svg>