<svg height="22" viewBox="0 0 22 22" width="22" xmlns="http://www.w3.org/2000/svg" xmlns:xlink="http://www.w3.org/1999/xlink"><linearGradient id="a" gradientUnits="userSpaceOnUse" x1="-16.213949" x2="-16.213949" y1="13.571091" y2="2.000002"><stop offset="0" stop-color="#7f8c8d"/><stop offset="1" stop-color="#bdc3c7"/></linearGradient><linearGradient id="b" gradientTransform="matrix(.64280617 0 0 -.64280617 20.71483 21.285151)" gradientUnits="userSpaceOnUse" x1="11" x2="11" y1="3" y2="18"><stop offset="0" stop-color="#232629"/><stop offset="1" stop-color="#292c2f"/></linearGradient><linearGradient id="c" gradientTransform="matrix(2.8348686 0 0 -5.6602369 -3.252302 1663.1437)" gradientUnits="userSpaceOnUse" x1="4.234" x2="4.234" y1="290.64999" y2="291.17899"><stop offset="0" stop-color="#fdbc4b" stop-opacity=".8"/><stop offset="1" stop-color="#fdbc4b" stop-opacity="0"/></linearGradient><linearGradient id="d" gradientTransform="matrix(2.8356147 0 0 -2.4294721 -1.003805 720.69521)" gradientUnits="userSpaceOnUse" x1="4.233" x2="4.233" xlink:href="#j" y1="295.41199" y2="294.61801"/><linearGradient id="e" gradientTransform="matrix(.94589385 0 0 -2.5188917 2.995086 749.11084)" gradientUnits="userSpaceOnUse" x1="4.233" x2="4.233" xlink:href="#j" y1="295.41199" y2="294.61801"/><linearGradient id="f" gradientTransform="matrix(.94589385 0 0 -5.0377833 12.995086 1495.2217)" gradientUnits="userSpaceOnUse" x1="4.233" x2="4.233" xlink:href="#j" y1="295.41199" y2="294.61801"/><radialGradient id="g" cx="-1.147" cy="-291.923" gradientTransform="matrix(-7.5355991 .00005671 -.00009434 -13.21212 -4.166033 -3845.4203)" gradientUnits="userSpaceOnUse" r=".265" xlink:href="#h"/><linearGradient id="h"><stop offset="0" stop-color="#232629"/><stop offset="1" stop-color="#9aa4a6"/></linearGradient><radialGradient id="i" cx="-1.146" cy="-291.923" gradientTransform="matrix(7.5356049 -.00013233 -.00024528 -13.213121 26.067926 -3845.7075)" gradientUnits="userSpaceOnUse" r=".265" xlink:href="#h"/><linearGradient id="j"><stop offset="0" stop-color="#31363b"/><stop offset="1" stop-color="#31363b" stop-opacity="0"/></linearGradient><rect fill="url(#a)" height="18" ry="2" stroke-linejoin="round" stroke-width="2" width="18" x="2" y="2"/><path d="m2 17v1c0 1.108.892 2 2 2h14c1.108 0 2-.892 2-2v-1c0 1.108-.892 2-2 2h-14c-1.108 0-2-.892-2-2z" fill="#69777b" stroke-linejoin="round" stroke-width="2"/><path d="m8 3v2h-2v2h-2v4h-1v4h1v3h14v-3h1v-4h-1v-4h-2v-2h-2v-2z" fill="url(#b)"/><path d="m7.997571 4.9290008h6.002429v-1.9290008h-6.0001609z" fill="url(#d)" stroke-width="2.3476"/><path d="m5.9980469 5v2h2.0019531v-2zm8.0019531 0v2h2.001953v-2z" fill="url(#e)" stroke-width="1.38061"/><path d="m4 7v4h2.0019531v-4zm11.998047 0v4h2.001953v-4z" fill="url(#f)" stroke-width="1.95247"/><path d="m5 18h1v-3h-1zm2 0h.9992917v-3h-.9992917zm9 0h1v-3h-1zm-1.999291 0h.999291v-3h-.999291zm-2.500709 0h1.5v-3h-1.5zm-2.5 0h1.5v-3h-1.5z" fill="url(#c)" stroke-width="2.83252"/><path d="m4 14h-1v-2h1z" fill="url(#g)" stroke-width="1.88857"/><path d="m18.001886 14h.998114v-2h-1z" fill="url(#i)" stroke-width="1.88858"/></svg>