<svg height="22" width="22" xmlns="http://www.w3.org/2000/svg" xmlns:xlink="http://www.w3.org/1999/xlink"><linearGradient id="a"><stop offset="0" stop-color="#292c2f"/><stop offset="1" stop-opacity="0"/></linearGradient><linearGradient id="b" gradientUnits="userSpaceOnUse" x1="10.000001" x2="14" xlink:href="#a" y1="14.999999" y2="18.999999"/><linearGradient id="c" gradientUnits="userSpaceOnUse" x1="11" x2="14.857143" xlink:href="#a" y1="6.5" y2="10.357143"/><linearGradient id="d" gradientUnits="userSpaceOnUse" x1="14.857143" x2="19.357143" xlink:href="#e" y1="15.5" y2="20"/><linearGradient id="e"><stop offset="0"/><stop offset="1" stop-opacity="0"/></linearGradient><linearGradient id="f" gradientUnits="userSpaceOnUse" x1="14.857143" x2="20" xlink:href="#e" y1="6.5" y2="11.642857"/><linearGradient id="g" gradientTransform="matrix(.5625 0 0 .64285714 2 .714286)" gradientUnits="userSpaceOnUse" x1="32" x2="32" y1="30" y2="2"><stop offset="0" stop-color="#171d25"/><stop offset="1" stop-color="#303236"/></linearGradient><g stroke-width=".642857"><path d="m2 2h18v18h-18z" fill="url(#g)" fill-rule="evenodd"/><path d="m3 10 2 2h14l1 1v-9l-1-1z" fill="url(#f)" opacity=".2"/><path d="m3 19 1 1h16v-7l-1-1z" fill="url(#d)" opacity=".2"/></g><path d="m3 3h16v7h-16z" fill="#397da1" fill-rule="evenodd" stroke-width=".599144"/><path d="m3 12h16v7h-16z" fill="#4a4a4f" fill-rule="evenodd" stroke-width=".599144"/><g stroke-width=".642857"><path d="m12 3-3 1v6h10z" fill="url(#c)" opacity=".2"/><path d="m9 13-1 4 3 2h8l-5.525391-5.974609z" fill="url(#b)" opacity=".2"/><path d="m8 3v7h6v-5l-2-2zm1 1h2v2h2v3h-4zm2 8a3.5 3.5 0 0 0 -3.5 3.5 3.5 3.5 0 0 0 3.5 3.5 3.5 3.5 0 0 0 3.5-3.5 3.5 3.5 0 0 0 -3.5-3.5zm0 1a2.5 2.5 0 0 1 1.484375.488281v.001953a.2344742.2344742 0 0 1 0 .089844c-.01774.04563-.063952.040343-.117187.039063-.014581 0-.027706.0013-.041016 0-.08935-.0057-.176239-.034704-.216797.029297.0025.048798.01077.076051 0 .11914-.0081.03105-.042276.050885-.041016.078125.000634.01331.02809.041537.03125.060547.0025.01077-.0044.029553 0 .039062.01521.02788.051515-.004398.078125 0 .02535.003802.04883.041793.048828.070313a.1711028.1711028 0 0 1 -.017578.078125c-.02535.03802-.072622.028548-.109375.048828-.02979.01774-.042796.060064-.060547.089844-.019008.03169-.037546.042261-.029296.08789a.21356164.21356164 0 0 1 -.109375.111329.25221819.25221819 0 0 0 -.087891.068359c-.0209.02155-.049777.031718-.060547.048828-.0081.01267-.000926.042807-.009765.060547-.01267.02408-.032999.043019-.048829.068359-.0076.01077-.021076.025806-.029297.041016-.019008.03295-.044165.058741-.041015.087891.0025.02852.039116.035836.041015.060547.001301.013938-.012338.023852-.011718.039062.000635.02155.00967.031088.011718.048828.003802.04246-.023018.060684-.03125.089844-.0038.01394.0032.028292 0 .039062-.006299.0209-.039062.035187-.039062.060547-.000634.01774.028027.033244.029297.058594.0013.01711-.012936.032988-.009766.048828.0063.03169.065764.074901.089844.099609.03295.03233.064185.053671.078125.087891.01267.02978.018206.07743.041016.099609.01647.015841.048752.024536.070312.041016.01965.01584.04681.021943.06836.039063.03486.02725.0829.083248.138671.080078.02978-.0025.055571-.015785.087891-.021485.03421-.0057.074516-.022691.109375-.019531.02662.0032.052198.021431.080078.019531a.33079874.33079874 0 0 0 .097656-.029296c.05703-.024711.1455-.070634.228516-.058594.06337.0089.065019.080855.109375.109375.0507.0044.088349-.01015.128906 0 .03042.007.06519.06381.06836.08789.0032.02535-.016362.043384-.019532.058594-.0081.03359-.013821.078701-.019531.099609-.0044.017111-.010387.032349-.009765.048829 0 .01521.023852.050662.039062.070312.01901.02408.046873.041739.070312.068359.041831.04816.058741.115683.087891.179688.0076.01647-.0063.018783 0 .039062-.01267.09632-.044048.160481-.107422.267579-.03042.03421-.061187.076045-.060547.11914-.001973.082015.032388.132386.044922.199219a2.5 2.5 0 0 1 -2.035156 1.0625 2.5 2.5 0 0 1 -.775391-.128906c-.005057-.011346.000115-.02489-.005859-.035156-.01394-.01964-.035306-.029434-.041016-.058594.04182-.0081.098633.045777.158204.029297.02852-.0081.077173-.061911.089843-.087891.0044-.0081-.0038-.041261 0-.050781.0057-.01077.018271-.013823.019531-.019531.003802-.015841-.003198-.019797 0-.029297.01014-.02978.043437-.048773.060547-.070313.01267-.01584.027023-.031718.039063-.048828.01394-.01775.020417-.023862.029297-.039062.0089-.052601-.032202-.092417-.019531-.138672.013949-.05196.088607-.085927.138671-.109375.01711-.0081.034248-.024237.048829-.029297.034219-.01204.076425-.007991.109374-.019532.05387-.01901.07299-.079472.09961-.128906.01267-.02281.026767-.044057.029297-.060547.0019-.01458-.0032-.031078 0-.048828.0032-.0171.005365-.029808.009765-.048828a.50190155.50190155 0 0 0 .009766-.099609c0-.02345-.009116-.029871-.009766-.050782-.0038-.07478.020948-.076633.048828-.117187.013311-.02029.019797-.055732.029297-.070313.0469-.068439.124844-.101833.119141-.207031-.0025-.03421-.013724-.108367-.039062-.11914-.01394-.0063-.048763-.001516-.070313-.009766-.06781-.02535-.116523-.103038-.1875-.109375h-.039063c-.027878 0-.05747-.026127-.08789-.029297-.02028-.0025-.058913.0057-.070313 0-.01774-.0089-.014716-.040641-.029297-.050781-.011408-.0076-.033041-.011238-.050781-.017578a.23637534.23637534 0 0 0 -.078125-.021485c-.01077-.000634-.039381.0019-.050781 0-.01838-.0032-.032338-.018526-.048828-.029297-.02091-.012668-.030823-.021322-.039063-.039062.01901-.06274-.047877-.073256-.060546-.109375-.005701-.01711.006298-.043384 0-.058594-.007-.02154-.024749-.033041-.048829-.050781a.2705959.2705959 0 0 0 -.138671-.068359c-.025981-.0032-.058164.0019-.089844 0a.15589366.15589366 0 0 1 -.0976565-.050782c-.024706-.02789-.0292341-.055059-.0507813-.068359-.0196449-.01267-.0544183-.015987-.0683593-.029297-.00635-.0057-.0046156-.01795-.0097657-.03125-.010778-.0209-.0322132-.023478-.0195312-.048828-.022815-.01141-.0163036.014196-.0410156.009766-.022815-.03169-.0371896-.048573-.0878906-.039063-.0234491.0044-.0436965.038433-.0703126.039063-.0228128 0-.0385753-.034633-.0683593-.039063-.02218-.0032-.0544705.023331-.0703125.019531-.024714-.0044-.0266471-.033608-.0488282-.048828-.0164778-.01077-.0516748-.039702-.0605468-.039062-.028517 0-.0486007.060612-.0878906.039062-.0196451-.02472.0332186-.027321.0097656-.050781-.01711-.01711-.0251205.002213-.0390625.011719-.016478.01077-.0330373.022967-.0507813.029297-.039924.01458-.0666052.012817-.0976562.029296-.028517.014581-.0336713.03921-.0507813.06836-.012674.02408-.0389477.059277-.0585937.060547-.024714.0013-.0481325-.031506-.0703125-.041016-.065906-.02852-.1030701.020843-.1582031.021485-.0506981.000632-.1190887-.080743-.1171876-.128907.00127-.02915.0150432-.072616.0175782-.109375.0038-.02852.030615-.053468.03125-.080078 0-.03486-.057264-.064539-.0800782-.068359-.0232802-.004451-.0491715-.002803-.0761718 0a2.5 2.5 0 0 1 .2578125-.740235c.0173447.005599.0444463.036616.046875.056641.00253.02534-.0173756.051568-.0097657.080078.0266162.02788.080484.042114.1191407.058594.025348-.0209.0038-.068506 0-.097656-.0006338-.01331.00127-.028986 0-.041016-.00317-.02091-.0117188-.040854-.0117188-.058594 0-.08238.0633744-.116118.1191407-.148437.023448-.01394.0493994-.040642.0703124-.050782.0291501-.014579.0455984-.015366.0703126-.029296.0437278-.02534.0836001-.049615.1171874-.078125.0158421-.03802-.0012699-.082384 0-.119141.0158421-.0095.0239057.0013.0410157 0 .025983-.0057.0336181-.045957.0488281-.060547.00824-.0089.0380541-.010661.0488281-.019531.026616-.02028.0279673-.049724.0507813-.058594.00824-.0032.0263885-.005925.0390625-.009766.017744-.004399.0404765-.021748.0683593-.03125.0177441-.006299.0627105-.001512.0703126-.007812.0082199-.0089-.0031801-.047237 0-.060547.0133079-.06526.1096664-.066339.1679687-.087891.039924-.015839.0839131-.049895.1289063-.041015-.00887.03105-.0479867.021194-.0410157.058594.01014.0526.0714659-.011227.0898439-.017579.03549-.015208.10281-.024545.148437-.041015.04056-.01457.108345-.041001.070313-.087891-.0317-.0019-.042443.027033-.070313.039063-.01902.0032-.023222-.008516-.039062-.009766-.01584-.000633-.023213.012286-.039063.009766-.0152-.0032-.038475-.032412-.041015-.050781-.0063-.048161.050042-.062167.070312-.097657-.01394-.04373-.071982-.002381-.109375-.019531.0038-.02598.019731-.055477.050781-.060547a.19898621.19898621 0 0 1 .097657.019531c.0081.0076-.002935.028966.009765.041016.01521.01267.040897.0032.060547 0 .007-.03295-.046725-.019466-.041015-.041016.03866-.02535.111994-.013191.160156-.019531.02725-.0044.053415-.025762.078125-.039062.02281-.01331.045592-.031316.070312-.009766.0063.02345-.01795.037418-.03125.048828-.04436.03929-.082962.083282-.117187.128906.02091.02091.052402.005916.08789.009766.01394.0019.034889.007226.048829.009766.01774.0032.037471-.0032.050781 0 .02471.0057.024108.041015.048828.041015.03866 0 .042341-.033927.019531-.060547.0076-.02725.019916-.051302.009766-.070312-.01774-.03486-.084721.006527-.087891-.039063-.0025-.02852.028923-.037043.039063-.058593-.0044-.05577.044772-.059317.039062-.109375-.0032-.0209-.024492-.019413-.039062-.039063-.004625-.00617-.008051-.016484-.011719-.025391a2.5 2.5 0 0 1 .4375-.039062zm1.703125.671875a2.5 2.5 0 0 1 .259766.279297c-.007686.001914-.014477.003906-.021485.003906-.02535 0-.077686-.012295-.109375-.009766-.01901.001301-.031088.008526-.048828.009766-.0507.0038-.079851-.0032-.119141 0a.41698386.41698386 0 0 0 -.109374.029297c-.01267.0063-.021953.021057-.039063.029297-.0081.0038-.018537.006679-.029297.011719-.01648.0076-.045337.024865-.060547.029297-.02218.005698-.04733-.001901-.08789 0-.02978.001299-.079447-.005496-.080079-.041016 0-.05323.097736-.030193.148438-.039063.01902-.0038.026018-.025762.048828-.039062.01077-.0063.02048-.012561.03125-.019531.01711-.01267.045658-.034889.048828-.048828.0019-.01267-.011035-.031516-.009765-.041016.0025-.01204.023212-.023853.039062-.039063.02408-.02408.039903-.054472.070313-.070312.01964-.01077.058859-.013457.068359-.029297.001-.007604.000201-.010981 0-.015625zm-4.1894531 1.660156c.00365.003113.0079612.007619.0117187.009766.00127.01901-.00634.034888 0 .048828.014575.02029.0430114.027706.0683594.041016.028517.01584.0411094.055679.0683594.068359.010139.0038.0264396-.0044.0410156 0 .038022.01141.045173.068744.078125.058594.021546-.0063.027448-.037694.03125-.058594.014575-.01521.0260151-.039064.0488281-.039062.035488-.000634.0452848.043276.0585938.078124.00697.01901.025547.039637.03125.060547a.52027925.52027925 0 0 1 0 .158203c-.0095.026621-.0481325.03922-.0703125.06836-.010139.01331-.0210589.032145-.0292969.041016-.013308.017109-.0289225.023222-.0390625.039062-.00634.0081-.0060186.027022-.0117188.039062-.0171099.036761-.0438728.065025-.0292968.109376.00634.017739.0292969.037053.0292968.058593 0 .02535-.0547917.032667-.0585937.060547-.00317.01965.0229599.060641.0292969.087891.00444.02028.0374201.037471.0488281.050781.020278.02281.0421689.049605.0605469.078125.036756.05577.0530366.124554.0878906.179687.019012.02788.0576375.047716.0703125.078126.00634.014579-.0057.045283 0 .058593.020912.04689.1210739.095693.1679687.119141.0215462.01077.0402679.01985.0605469.03125.030418.01711.0922127.050865.1074219.078125.013942.02408.02428.080486.03125.119141.00887.050699-.00253.093304 0 .148437.00127.02978.0097656.049658.0097656.080078v.039063c-.0006337.03549.00317.073255 0 .109375a2.5 2.5 0 0 1 -.9160156-1.931641 2.5 2.5 0 0 1 .0136719-.167969z" fill="#eff0f1"/></g></svg>