<svg height="22" width="22" xmlns="http://www.w3.org/2000/svg" xmlns:xlink="http://www.w3.org/1999/xlink"><linearGradient id="a"><stop offset="0" stop-color="#c6cdd1"/><stop offset="1" stop-color="#e0e5e7"/></linearGradient><linearGradient id="b" gradientUnits="userSpaceOnUse" x1="11.00001" x2="11.00001" xlink:href="#a" y1="9.99999" y2="4.99999"/><linearGradient id="c" gradientUnits="userSpaceOnUse" x1="4.00001" x2="18.00002" y1="4.00016" y2="18"><stop offset="0" stop-color="#383e51"/><stop offset="1" stop-color="#655c6f" stop-opacity="0"/></linearGradient><linearGradient id="d" gradientTransform="matrix(.62500129 0 0 .78947505 -241.2327 -408.36755)" gradientUnits="userSpaceOnUse" x2="0" y1="538.79797" y2="519.79797"><stop offset="0" stop-color="#2a2c2f"/><stop offset="1" stop-color="#424649"/></linearGradient><linearGradient id="e" gradientTransform="matrix(.66666658 0 0 .50000001 -256.04766 -252.39899)" gradientUnits="userSpaceOnUse" x2="0" xlink:href="#a" y1="542.79797" y2="538.79797"/><linearGradient id="f" gradientUnits="userSpaceOnUse" x1="6.78569" x2="17.714262" y1="3.285716" y2="14.214288"><stop offset="0"/><stop offset="1" stop-opacity="0"/></linearGradient><linearGradient id="g" gradientTransform="matrix(.6 0 0 .61111111 -229.34287 -314.04322)" gradientUnits="userSpaceOnUse" x2="0" y1="536.79797" y2="518.79797"><stop offset="0" stop-color="#39a1d8"/><stop offset="1" stop-color="#4db4e8"/></linearGradient><path d="m.999997 2.000005h19.999996v15.000016h-19.999996z" fill="url(#d)" stroke-width=".638443"/><path d="m9.000006 16.99999h4v2h-4z" fill="url(#e)" stroke-width=".577351"/><path d="m7.000003 19.000013h8v1h-8z" fill="#99a1a7" stroke-width=".816499"/><path d="m1.9999982 13.999998 3.0000021 3.000002h16.0000007v-12.9999986l-1.000003-1.0000029z" fill="url(#f)" fill-rule="evenodd" opacity=".2" stroke-width=".642857"/><path d="m2 3h18v11h-18z" fill="url(#g)" stroke-width=".60553"/><path d="m18 5v3h-14l4 4h-4l2 2h14v-7z" fill="url(#c)" fill-rule="evenodd"/><path d="m4 5v3h14v-3zm0 4v3h14v-3z" fill="url(#b)"/><path d="m5.5 6a.5.5 0 0 0 -.5.5.5.5 0 0 0 .5.5.5.5 0 0 0 .5-.5.5.5 0 0 0 -.5-.5zm0 4a.5.5 0 0 0 -.5.5.5.5 0 0 0 .5.5.5.5 0 0 0 .5-.5.5.5 0 0 0 -.5-.5zm2 0a.5.5 0 0 0 -.5.5.5.5 0 0 0 .5.5.5.5 0 0 0 .5-.5.5.5 0 0 0 -.5-.5zm2 0a.5.5 0 0 0 -.5.5.5.5 0 0 0 .5.5.5.5 0 0 0 .5-.5.5.5 0 0 0 -.5-.5z" fill="#4d4d4d"/></svg>