<svg height="22" width="22" xmlns="http://www.w3.org/2000/svg" xmlns:xlink="http://www.w3.org/1999/xlink"><linearGradient id="a" gradientTransform="matrix(.62500046 0 0 .77777773 -239.35733 -402.62062)" gradientUnits="userSpaceOnUse" x2="0" y1="540.79797" y2="522.79797"><stop offset="0" stop-color="#c6cdd1"/><stop offset="1" stop-color="#e0e5e7"/></linearGradient><path d="m1 4h20v14h-20z" fill="url(#a)" opacity=".99" stroke-width=".697217"/><path d="m1 17h20v.999999h-20z" fill="#abb4ba" stroke-width=".79057"/><path d="m15 5v1h1v-1zm2 0v1h1v-1zm2 0v1h1v-1z" fill="#31c281"/><path d="m2 8v2h1v-2zm2 0v2h2v-2zm3 0v2h2v-2zm3 0v2h2v-2zm3 0v2h2v-2zm3 0v2h4v-2zm-14 3v2h2v-2zm3 0v2h2v-2zm3 0v2h2v-2zm3 0v2h2v-2zm3 0v2h2v-2zm3 0v2h3v-2zm-15 3v2h3v-2zm4 0v2h8v-2zm9 0v2h2v-2zm3 0v2h2v-2z" fill="#536161"/><path d="m2 9v1h1v-1zm2 0v1h2v-1zm3 0v1h2v-1zm3 0v1h2v-1zm3 0v1h2v-1zm3 0v1h4v-1zm-14 3v1h2v-1zm3 0v1h2v-1zm3 0v1h2v-1zm3 0v1h2v-1zm3 0v1h2v-1zm3 0v1h3v-1zm-15 3v1h3v-1zm4 0v1h8v-1zm9 0v1h2v-1zm3 0v1h2v-1z" fill="#334545"/></svg>