<svg height="22" width="22" xmlns="http://www.w3.org/2000/svg" xmlns:xlink="http://www.w3.org/1999/xlink"><linearGradient id="a" gradientUnits="userSpaceOnUse" x1="11" x2="11" y1="20" y2="-12.142859"><stop offset="0" stop-color="#0c4f97"/><stop offset="1" stop-color="#1ad3e5"/></linearGradient><linearGradient id="b" gradientUnits="userSpaceOnUse" x1="10.499996" x2="19.500013" y1="6.500016" y2="15.500014"><stop offset="0" stop-color="#292c2f"/><stop offset="1" stop-opacity="0"/></linearGradient><linearGradient id="c" gradientUnits="userSpaceOnUse" x1="12" x2="12" y1="50" y2="4"><stop offset="0" stop-color="#1498c2"/><stop offset="1" stop-color="#fff"/></linearGradient><circle cx="11" cy="11" fill="url(#a)" r="9"/><path d="m13.900391 5-5.900391 6 3 3-2.5195312 3.509766 2.4882812 2.488281a9 9 0 0 0 .03125.001953 9 9 0 0 0 8.992188-8.908203z" fill="url(#b)" fill-rule="evenodd" opacity=".2" stroke-width=".642857"/><path d="m11.220703 5-3.220703 6h3l-1.5761719 3.923828-1.9238281-1.923828.9804688 4.509766 5.0195312-2.509766h-2.5l-.835938.417969 4.025391-5.417969h-3.138672l2.84961-5z" fill="url(#c)"/></svg>