<svg height="22" width="22" xmlns="http://www.w3.org/2000/svg" xmlns:xlink="http://www.w3.org/1999/xlink"><linearGradient id="a" gradientUnits="userSpaceOnUse" x1="7" x2="9" y1="16" y2="8"><stop offset="0" stop-color="#197cf1"/><stop offset="1" stop-color="#20bcfa"/></linearGradient><linearGradient id="b" gradientUnits="userSpaceOnUse" x1="13.820312" x2="11" y1="14.820312" y2="12"><stop offset="0" stop-color="#197cf1"/><stop offset="1" stop-color="#20bcfa" stop-opacity="0"/></linearGradient><linearGradient id="c" gradientUnits="userSpaceOnUse" x1="7" x2="17" xlink:href="#e" y1="8" y2="18"/><linearGradient id="d" gradientTransform="matrix(.41666692 0 0 .40833269 -159.23827 -203.25094)" gradientUnits="userSpaceOnUse" x2="0" y1="543.79797" y2="502.65509"><stop offset="0" stop-color="#c6cdd1"/><stop offset="1" stop-color="#e0e5e7"/></linearGradient><linearGradient id="e" gradientUnits="userSpaceOnUse" x1="5.375003" x2="14.75002" y1="7.000012" y2="16.375009"><stop offset="0"/><stop offset="1" stop-opacity="0"/></linearGradient><path d="m1.000006 2h19.999994v18h-19.999994z" fill="url(#d)" stroke-width=".633866"/><path d="m2 18 18-11 1 1v12h-17z" fill="url(#e)" fill-rule="evenodd" opacity=".2" stroke-width=".625"/><path d="m1 2h20.000002v3h-20.000002z" fill="#566069" stroke-width=".684653"/><path d="m1.000027 5h19.999973v1h-19.999973z" fill="#3daee9" stroke-width=".790569"/><path d="m2 7h18v10.999999h-18z" fill="#fff" stroke-width=".574456"/><rect fill="#eff0f1" height="1.5" rx=".75" stroke-width=".75" width="1.5" x="18.75" y="2.75"/><path d="m10.714844 8.0097656a4 4 0 0 0 -2.542969 1.1621094 4 4 0 0 0 0 5.65625 4 4 0 0 0 .1152344.09961l3.0722656 3.072265h8.640625v-2.65625l-6.171875-6.171875a4 4 0 0 0 -3.113281-1.1621094z" fill="url(#c)" opacity=".2"/><g stroke-width="1.77778"><path d="m13.828125 9.171875-.707031.7070312c.542893.5428938.878906 1.2926668.878906 2.1210938 0 1.656854-1.343146 3-3 3-.795604-.00012-1.5585768-.316269-2.1210938-.878906l-.6992187.699218c.746828.751138 1.7610955 1.175388 2.8203125 1.179688 2.209139 0 4-1.790861 4-4 0-1.10457-.448017-2.1042674-1.171875-2.828125z" fill="url(#b)"/><path d="m11 8c-2.209139 0-4 1.790861-4 4s1.790861 4 4 4c1.059217-.0043 2.073484-.428551 2.820312-1.179688l-.699218-.699218c-.562517.562637-1.32549.878786-2.121094.878906-1.6568542 0-3-1.343146-3-3s1.3431458-3 3-3z" fill="url(#a)"/></g></svg>