<svg height="22" width="22" xmlns="http://www.w3.org/2000/svg" xmlns:xlink="http://www.w3.org/1999/xlink"><linearGradient id="a" gradientTransform="matrix(.64285701 0 0 .64285701 -246.5102 -330.87005)" gradientUnits="userSpaceOnUse" x2="0" y1="545.79797" y2="517.79797"><stop offset="0" stop-color="#18222a"/><stop offset="1" stop-color="#566069"/></linearGradient><linearGradient id="b" gradientTransform="matrix(.6 0 0 .6 -229.34291 -308.07879)" gradientUnits="userSpaceOnUse" x2="0" y1="541.79797" y2="521.79797"><stop offset="0" stop-color="#2f3943"/><stop offset="1" stop-color="#4d5662"/></linearGradient><linearGradient id="c" gradientTransform="matrix(.58333336 0 0 .58333336 -222.66672 -299.2155)" gradientUnits="userSpaceOnUse" x2="0" y1="541.79797" y2="521.79797"><stop offset="0" stop-color="#2f3943"/><stop offset="1" stop-color="#808c9b"/></linearGradient><linearGradient id="d"><stop offset="0" stop-color="#197cf1"/><stop offset="1" stop-color="#21c9fb"/></linearGradient><linearGradient id="e" gradientTransform="matrix(1 0 0 .6000032 -389.57145 -307.68031)" gradientUnits="userSpaceOnUse" x2="0" xlink:href="#d" y1="522.79797" y2="527.79797"/><linearGradient id="f" gradientTransform="translate(-389.57139 -515.79793)" gradientUnits="userSpaceOnUse" x2="0" xlink:href="#d" y1="518.79797" y2="520.79797"/><linearGradient id="g" gradientUnits="userSpaceOnUse" x1="7.785669" x2="14.857096" y1="9.071448" y2="16.142875"><stop offset="0" stop-color="#292c2f"/><stop offset="1" stop-opacity="0"/></linearGradient><rect fill="url(#a)" height="17.999996" rx="8.999985" ry="8.999998" stroke-width=".642857" width="17.999969" x="2.000003" y="2.000004"/><rect fill="url(#c)" height="14" rx="6.999991" ry="7" stroke-width=".583333" width="13.999982" x="4" y="4"/><path d="m15.242188 6.7578125-8.4843755 8.4843755 4.7561875 4.757812h8.486v-8.484376z" fill="url(#g)" fill-rule="evenodd" opacity=".2" stroke-width=".642857"/><rect fill="url(#b)" height="12" rx="5.999991" ry="6" stroke-width=".6" width="11.999983" x="5" y="5"/><path d="m7.453125 3.9414062a1 1 0 0 0 -.8183594.4980469 1 1 0 0 0 .3652344 1.3671875 1 1 0 0 0 1.3652344-.3671875 1 1 0 0 0 -.3652344-1.3652343 1 1 0 0 0 -.546875-.1328126zm7 0a1 1 55.900705 0 0 -.818359.4980469 1 1 55.900705 0 0 .365234 1.3671875 1 1 55.900705 0 0 1.365234-.3671875 1 1 55.900705 0 0 -.365234-1.3652343 1 1 55.900705 0 0 -.546875-.1328126zm-9.5605469 2.5605469a1 1 75.127559 0 0 -.8183593.4980469 1 1 75.127559 0 0 .3652343 1.3652344 1 1 75.127559 0 0 1.3671875-.3652344 1 1 75.127559 0 0 -.3671875-1.3652344 1 1 75.127559 0 0 -.546875-.1328125zm12.1191409 0a1 1 0 0 0 -.81836.4980469 1 1 0 0 0 .367188 1.3652344 1 1 0 0 0 1.365234-.3652344 1 1 0 0 0 -.365234-1.3652344 1 1 0 0 0 -.548828-.1328125zm-13.058594 3.4999999a1 1 0 0 0 -.8183594.498047 1 1 0 0 0 .3652344 1.365234 1 1 0 0 0 1.3652344-.365234 1 1 0 0 0 -.3652344-1.365234 1 1 0 0 0 -.546875-.132813zm14 0a1 1 0 0 0 -.818359.498047 1 1 0 0 0 .365234 1.365234 1 1 0 0 0 1.365234-.365234 1 1 0 0 0 -.365234-1.365234 1 1 0 0 0 -.546875-.132813z" fill="#26333a"/><rect fill="url(#e)" height="3" rx="1" stroke-width=".774599" width="2" x="10" y="6"/><circle cx="11" cy="4" fill="url(#f)" r="1"/></svg>