<svg height="22" viewBox="0 0 22 22" width="22" xmlns="http://www.w3.org/2000/svg" xmlns:xlink="http://www.w3.org/1999/xlink"><linearGradient id="a" gradientTransform="matrix(.33540428 0 0 .34615286 -21.018857 -.076429)" gradientUnits="userSpaceOnUse" x1="3" x2="3" y1="17" y2="3"><stop offset="0" stop-color="#eef1f2"/><stop offset="1" stop-color="#f9fafb"/></linearGradient><linearGradient id="b" gradientUnits="userSpaceOnUse" x1="6" x2="20" y1="5" y2="16"><stop offset="0" stop-color="#31363b"/><stop offset="1" stop-color="#232629"/></linearGradient><linearGradient id="c" gradientUnits="userSpaceOnUse" x1="7" x2="14" y1="7" y2="14"><stop offset="0" stop-color="#292c2f"/><stop offset="1" stop-opacity="0"/></linearGradient><linearGradient id="d" gradientTransform="matrix(.36685 0 0 .34615286 -142.9925 -173.08407)" gradientUnits="userSpaceOnUse" x1="388.423" x2="388.423" y1="557.79797" y2="505.798"><stop offset="0" stop-color="#7f8c8d"/><stop offset="1" stop-color="#afb0b3"/></linearGradient><path d="m2 2h15v18h-15z" fill="url(#d)" stroke-width=".633866"/><path d="m4 18h11v2h-11z" fill="#292c2e" stroke-width=".654654"/><path d="m5 19h6v1h-6zm7 0h2v1h-2z" fill="#f6b44d" stroke-width=".811273"/><path d="m15 18h2v2h-2zm-13 0h2v2h-2z" fill="#292c2f" opacity=".2" stroke-width=".654654"/><path d="m2 18 2 2v-2zm13 0v1.999996l2 .000004v-2z" opacity=".2" stroke-width=".642857"/><path d="m6 3a3 3 0 0 0 -3 3v3 .2695312a2 2 0 0 1 1 1.7304688 2 2 0 0 1 -1 1.732422v.267578 2l2 2h9l2-2v-2-.267578a2 2 0 0 1 -1-1.732422 2 2 0 0 1 1-1.7324219v-.2675781-3a3 3 0 0 0 -3-3z" fill="url(#a)"/><path d="m12 6h6v1h-6z" fill="#4d4d4d"/><path d="m10 5v2.4140625l3.974609 3.9746095c-.190639 1.47318-1.449511 2.611328-2.974609 2.611328-1.6568542 0-3-1.343146-3-3v-2.984375-.015625h-2v3c0 2.761424 2.2385763 5 5 5 2.615383 0 4.760757-2.007946 4.980469-4.566406l4.019531-4.0195315v-2.4140625h-2v1.5859375l-3 3-3-3v-1.5859375z" fill="url(#b)"/><path d="m10 2v3h1v-2h1v-1h-1zm8 0v1h1v2h1v-3h-1zm-11 3a2 2 0 0 0 -2 2 2 2 0 0 0 2 2 2 2 0 0 0 2-2 2 2 0 0 0 -2-2zm0 1a1 1 0 0 1 1 1 1 1 0 0 1 -1 1 1 1 0 0 1 -1-1 1 1 0 0 1 1-1z" fill="#7f8c8d"/><path d="m7.7421875 6.3300781c.3546817.3925462.3431643.9986327-.0351563 1.3769531-.3783204.3783206-.9844069.389838-1.3769531.0351563l1.6699219 1.6699219v1.5878906c0 1.656854 1.3431458 3 3 3 1.193057 0 2.223647-.696573 2.707031-1.705078z" fill="url(#c)" opacity=".2"/><path d="m12 1v2h1a1 1 0 0 0 1-1v-.0429688a1 1 0 0 0 -.957031-.9570312zm5 0a1 1 0 0 0 -1 1v.0429688a1 1 0 0 0 .957031.9570312h1.042969v-2z"/></svg>