<svg height="22" width="22" xmlns="http://www.w3.org/2000/svg" xmlns:xlink="http://www.w3.org/1999/xlink"><linearGradient id="a" gradientUnits="userSpaceOnUse" x1="6.375003" x2="15.75002" xlink:href="#c" y1="10.000012" y2="19.375009"/><linearGradient id="b" gradientTransform="matrix(.41666692 0 0 .40833269 -159.23827 -203.25094)" gradientUnits="userSpaceOnUse" x2="0" y1="543.79797" y2="502.65509"><stop offset="0" stop-color="#c6cdd1"/><stop offset="1" stop-color="#e0e5e7"/></linearGradient><linearGradient id="c" gradientUnits="userSpaceOnUse" x1="5.375003" x2="14.75002" y1="7.000012" y2="16.375009"><stop offset="0"/><stop offset="1" stop-opacity="0"/></linearGradient><path d="m1.000006 2h19.999994v18h-19.999994z" fill="url(#b)" stroke-width=".633866"/><path d="m2 18 18-11 1 1v12h-17z" fill="url(#c)" fill-rule="evenodd" opacity=".2" stroke-width=".625"/><path d="m1 2h20.000002v3h-20.000002z" fill="#566069" stroke-width=".684653"/><path d="m1.000027 5h19.999973v1h-19.999973z" fill="#3daee9" stroke-width=".790569"/><path d="m2 7h18v10.999999h-18z" fill="#fff" stroke-width=".574456"/><rect fill="#eff0f1" height="1.5" rx=".75" stroke-width=".75" width="1.5" x="18.75" y="2.75"/><path d="m20 14-5-5-8 1 4 4h-4v1l3 3h10z" fill="url(#a)" opacity=".2"/><path d="m12.5 8c-.634185.00172-1.198763.4020819-1.410156 1h-4.089844v1h4.089844c.211393.597918.775971.998284 1.410156 1 .634185-.0017 1.198763-.402082 1.410156-1h1.089844v-1h-1.085938c-.211873-.5992672-.778443-.9999358-1.414062-1zm-3 5c-.6341848.0017-1.1987628.402082-1.4101562 1h-1.0898438v1h1.0898438c.2113934.597918.7759714.998284 1.4101562 1 .634185-.0017 1.198763-.402082 1.410156-1h4.089844v-1h-4.085938c-.211873-.599267-.778443-.999936-1.414062-1zm-.5 1h1v1h-1z" fill="#353b3e" stroke-linejoin="round" stroke-width="2"/></svg>