<svg height="22" width="22" xmlns="http://www.w3.org/2000/svg" xmlns:xlink="http://www.w3.org/1999/xlink"><linearGradient id="a"><stop offset="0" stop-color="#172525"/><stop offset="1" stop-color="#334545"/></linearGradient><linearGradient id="b" gradientUnits="userSpaceOnUse" x1="1" x2="1" y1="20" y2="5"><stop offset="0" stop-color="#997657"/><stop offset="1" stop-color="#bb9d71"/></linearGradient><linearGradient id="c" gradientUnits="userSpaceOnUse" x1="3" x2="3" xlink:href="#a" y1="15" y2="12"/><linearGradient id="d" gradientUnits="userSpaceOnUse" x1="11" x2="11" xlink:href="#a" y1="13" y2="11"/><linearGradient id="e" gradientUnits="userSpaceOnUse" x1="15" x2="15" xlink:href="#a" y1="10" y2="6"/><linearGradient id="f" gradientUnits="userSpaceOnUse" x1="2.318687" x2="-.010685" y1="17.672106" y2="8.978773"><stop offset="0" stop-color="#433a35"/><stop offset="1" stop-color="#6c5548"/></linearGradient><linearGradient id="g" gradientUnits="userSpaceOnUse" x1="3.654509" x2="-.345491" y1="19.705023" y2="12.77682"><stop offset="0" stop-color="#6c5548"/><stop offset="1" stop-color="#997657"/></linearGradient><linearGradient id="h" gradientUnits="userSpaceOnUse" x1="20" x2="20" y1="20" y2="14"><stop offset="0" stop-color="#2980b9"/><stop offset="1" stop-color="#1d99f3"/></linearGradient><g fill="#800000" transform="translate(22 -1)"><path d="m1 13c0 2.761424 2.2385763 5 5 5h7v-5z" opacity=".35" stroke-linejoin="round" stroke-width="3.31663"/><path d="m1 13 9-1v2z" opacity=".35"/><path d="m7 13 2.879-2.121 1.121-.379v2.5z" opacity=".35"/><path d="m14.12132 10.878519c1.171573 1.171573 1.171573 3.071068 0 4.242641s-3.071068 1.171572-4.2426409 0c-1.1715727-1.171573-1.1712518-3.070747.0003211-4.24232 1.1715728-1.1715728 3.0707468-1.1718936 4.2423198-.000321z" opacity=".35" stroke-linejoin="round" stroke-width="2"/><path d="m9 13 6-7h1l1 7z" opacity=".35"/><path d="m13 9-5 5 7 7 5-5z" opacity=".35"/></g><g stroke-linejoin="round" stroke-width="3.31663" transform="matrix(.8660254 .5 -.5 .8660254 8.687614 -6.892305)"><path d="m15 5-3.458984 4.0371094c-.607989.0939334-1.193724.3734112-1.6621098.8417968l-1.8125 1.3359378-7.0664062.785156c0 2.761424 2.2385763 5 5 5h6l3 3c2.5-1 4-2.5 5-5l-3-3-1-7z" fill="url(#g)"/><path d="m3 11.777344-2 .222656c0 1.125797.3747314 2.161803 1.0039062 2.996094l.9960938-.996094z" fill="url(#c)"/></g><g stroke-linejoin="round" stroke-width="3.31663" transform="matrix(.96592583 .25881905 -.25881905 .96592583 4.334198 -3.711915)"><path d="m15 5-3.458984 4.0371094c-.607989.0939334-1.193724.3734112-1.6621098.8417968l-1.8125 1.3359378-7.0664062.785156c0 2.761424 2.2385763 5 5 5h6l3 3c2.5-1 4-2.5 5-5l-3-3-1-7z" fill="url(#f)"/><path d="m3 11.777344-2 .222656c0 1.125797.3747314 2.161803 1.0039062 2.996094l.9960938-.996094z" fill="url(#c)"/></g><g transform="translate(1)"><path d="m15 5-3.458984 4.0371094c-.607989.0939334-1.193724.3734112-1.6621098.8417968l-1.8125 1.3359378-7.0664062.785156c0 2.761424 2.2385763 5 5 5h6l3 3c2.5-1 4-2.5 5-5l-3-3-1-7z" fill="url(#b)" stroke-linejoin="round" stroke-width="3.31663"/><path d="m3 11.777344-2 .222656c0 1.125797.3747314 2.161803 1.0039062 2.996094l.9960938-.996094z" fill="url(#c)" stroke-linejoin="round" stroke-width="3.31663"/><circle cx="12" cy="12" fill="url(#d)" r="1"/><path d="m15 6.4-2 2.6 1 1h1z" fill="url(#e)"/><path d="m18.5 13.5c-1 2.5-2.5 4-5 5l1.5 1.5c2.5-1 4-2.5 5-5z" fill="url(#h)" stroke-linejoin="round" stroke-width="3.31663"/></g></svg>