<svg height="22" width="22" xmlns="http://www.w3.org/2000/svg" xmlns:xlink="http://www.w3.org/1999/xlink"><linearGradient id="a" gradientUnits="userSpaceOnUse" x1="2" x2="12" xlink:href="#e" y1="12" y2="20"/><linearGradient id="b" gradientUnits="userSpaceOnUse" x1="12" x2="21" xlink:href="#e" y1="3" y2="12"/><linearGradient id="c" gradientUnits="userSpaceOnUse" x1="12" x2="21" xlink:href="#e" y1="12" y2="20"/><linearGradient id="d"><stop offset="0" stop-color="#292c2f"/><stop offset="1" stop-opacity="0"/></linearGradient><linearGradient id="e"><stop offset="0"/><stop offset="1" stop-opacity="0"/></linearGradient><linearGradient id="f" gradientUnits="userSpaceOnUse" x1="2" x2="12" xlink:href="#e" y1="3" y2="12"/><linearGradient id="g" gradientUnits="userSpaceOnUse" x1="3" x2="10" xlink:href="#d" y1="4" y2="10"/><linearGradient id="h" gradientUnits="userSpaceOnUse" x1="13" x2="20" xlink:href="#d" y1="13" y2="19"/><linearGradient id="i" gradientTransform="matrix(.62499999 0 0 .64285711 1 .714286)" gradientUnits="userSpaceOnUse" x1="32" x2="32" y1="30" y2="2"><stop offset="0" stop-color="#171d25"/><stop offset="1" stop-color="#303236"/></linearGradient><path d="m1 2h20v18h-20z" fill="url(#i)" fill-rule="evenodd" stroke-width=".633866"/><g stroke-width=".625"><path d="m10 3-8 7 2 2h8v-7z" fill="url(#f)" opacity=".2"/><path d="m20 3-8 7 2 2h7v-8z" fill="url(#b)" opacity=".2"/><path d="m10 12-8 7 1 1h9v-6z" fill="url(#a)" opacity=".2"/><path d="m20 12-8 7 1 1h8v-7z" fill="url(#c)" opacity=".2"/></g><path d="m2 3h8v7h-8z" fill="#397da1" fill-rule="evenodd" stroke-width=".57735"/><path d="m2 12h8v7h-8zm10-9h8v7h-8zm0 9h8v7h-8z" fill="#4a4a4f" fill-rule="evenodd" stroke-width=".625"/><path d="m9 4-6 5 1 1h6v-5z" fill="url(#g)" opacity=".2" stroke-width=".625"/><path d="m4 5h4v3h-4z" fill="#67aace" fill-rule="evenodd" stroke-width=".5"/><path d="m3 4v5h6v-5zm1 1h4v3h-4z" fill="#85c9ec" fill-rule="evenodd" stroke-width=".79057"/><path d="m19 13-6 5 1 1h6v-5z" fill="url(#h)" opacity=".2" stroke-width=".625"/><path d="m14 14h4.5v3h-4.5z" fill="#636367" stroke-width=".53033"/><path d="m13 13v5h6v-5zm1 1h4v3h-4z" fill="#9a9b9d" stroke-width=".790569"/></svg>