<svg height="22" width="22" xmlns="http://www.w3.org/2000/svg" xmlns:xlink="http://www.w3.org/1999/xlink"><linearGradient id="a"><stop offset="0" stop-color="#bec900"/><stop offset=".312499" stop-color="#9ec80a"/><stop offset=".562499" stop-color="#71b93d"/><stop offset=".75" stop-color="#35a48f"/><stop offset="1" stop-color="#018fca"/></linearGradient><linearGradient id="b"><stop offset="0" stop-color="#c1cc00"/><stop offset=".312499" stop-color="#dfcd00"/><stop offset=".562499" stop-color="#f0cc00"/><stop offset=".75" stop-color="#fd8c08"/><stop offset="1" stop-color="#f25c13"/></linearGradient><linearGradient id="c" gradientTransform="matrix(-.40403755 -1.5078898 -1.5078887 .40403789 106.88621 42.492466)" gradientUnits="userSpaceOnUse" x1="8" x2="24.00001" xlink:href="#a" y1="23.999973" y2="8"/><linearGradient id="d" gradientTransform="matrix(-1.1038511 -1.103852 1.1038511 -1.103852 60.999973 68.984915)" gradientUnits="userSpaceOnUse" x1="8" x2="24.00001" xlink:href="#b" y1="24" y2="8"/><linearGradient id="e" gradientTransform="matrix(-.40403755 -1.5078898 1.5078887 -.40403789 34.507553 61.88627)" gradientUnits="userSpaceOnUse" x1="8" x2="24.00001" xlink:href="#b" y1="24" y2="8"/><linearGradient id="f" gradientTransform="matrix(1.5078887 .40403789 .40403755 -1.5078898 15.113751 42.492446)" gradientUnits="userSpaceOnUse" x1="8" x2="24.00001" xlink:href="#q" y1="24.000031" y2="8"/><linearGradient id="g" gradientTransform="matrix(-1.5078887 -.40403789 -.40403755 1.5078898 106.88621 -10.492446)" gradientUnits="userSpaceOnUse" x1="8" x2="24.00001" xlink:href="#a" y1="23.999973" y2="8"/><linearGradient id="h" gradientTransform="matrix(-1.5078887 -.40403789 .40403755 -1.5078898 87.492393 61.88626)" gradientUnits="userSpaceOnUse" x1="8" x2="24.00001" xlink:href="#b" y1="24" y2="8"/><linearGradient id="i" gradientTransform="matrix(-1.1038511 -1.103852 -1.1038511 1.103852 113.98484 16.00003)" gradientUnits="userSpaceOnUse" x1="8" x2="24.00001" xlink:href="#a" y1="23.999973" y2="8"/><linearGradient id="j" gradientTransform="matrix(.40403755 1.5078898 -1.5078887 .40403789 87.49235 -29.88624)" gradientUnits="userSpaceOnUse" x1="8" x2="24.00001" xlink:href="#p" y1="23.999973" y2="8"/><linearGradient id="k" gradientTransform="matrix(1.5078887 .40403789 -.40403755 1.5078898 34.50755 -29.88626)" gradientUnits="userSpaceOnUse" x1="8" x2="24.00001" xlink:href="#p" y1="23.999973" y2="8"/><linearGradient id="l" gradientTransform="matrix(1.1038511 1.103852 1.1038511 -1.103852 8.015131 16.00003)" gradientUnits="userSpaceOnUse" x1="8" x2="24.00001" xlink:href="#q" y1="24.000031" y2="8"/><linearGradient id="m" gradientTransform="matrix(.40403755 1.5078898 1.5078887 -.40403789 15.113754 -10.492425)" gradientUnits="userSpaceOnUse" x1="8" x2="24.00001" xlink:href="#q" y1="24.000031" y2="8"/><linearGradient id="n" gradientTransform="matrix(1.1038511 1.103852 -1.1038511 1.103852 60.99999 -36.98486)" gradientUnits="userSpaceOnUse" x1="8" x2="24.00001" xlink:href="#p" y1="23.999973" y2="8"/><linearGradient id="o" gradientUnits="userSpaceOnUse" x1="11" x2="21" y1="10" y2="17.000001"><stop offset="0"/><stop offset="1" stop-opacity="0"/></linearGradient><linearGradient id="p"><stop offset="0" stop-color="#e81877"/><stop offset=".312499" stop-color="#dd1d8c"/><stop offset=".562499" stop-color="#6d57b1"/><stop offset=".75" stop-color="#2a78c1"/><stop offset="1" stop-color="#018dcb"/></linearGradient><linearGradient id="q"><stop offset="0" stop-color="#e51561"/><stop offset=".312499" stop-color="#e4156c"/><stop offset=".562499" stop-color="#e71e2c"/><stop offset=".75" stop-color="#e8301e"/><stop offset="1" stop-color="#e6320e"/></linearGradient><g stroke-opacity=".550265" stroke-width="4.37103" transform="matrix(.625 0 0 .64285714 -239.35714 -330.87014)"><path d="m45 11.712891v20.287109h11.712891l4.287109-16z" fill="url(#f)" transform="translate(339.57143 513.798)"/><path d="m64.214844 4-3.214844 12 16 4.287109v-16.287109z" fill="url(#g)" transform="translate(339.57143 513.798)"/><path d="m61 16-4.287109 16h20.287109v-11.712891z" fill="url(#h)" transform="translate(339.57143 513.798)"/><path d="m77 11.712891-16 4.287109 4.287109 16h11.712891z" fill="url(#c)" opacity=".3" transform="translate(339.57143 513.798)"/><path d="m73 4-12 12 16 16v-28z" fill="url(#i)" opacity=".35" transform="translate(339.57143 513.798)"/><path d="m57.785156 4 3.214844 12 16-4.287109v-7.712891z" fill="url(#j)" opacity=".3" transform="translate(339.57143 513.798)"/><path d="m45 4v7.712891l16 4.287109 3.214844-12z" fill="url(#k)" transform="translate(339.57143 513.798)"/><path d="m45 4v28l16-16-12-12z" fill="url(#l)" opacity=".35" transform="translate(339.57143 513.798)"/><path d="m61 16-16 16h32z" fill="url(#d)" opacity=".35" transform="translate(339.57143 513.798)"/><path d="m61 16-16 4.287109v11.712891h20.287109z" fill="url(#e)" opacity=".3" transform="translate(339.57143 513.798)"/><path d="m45 4v16.287109l16-4.287109-3.214844-12z" fill="url(#m)" opacity=".3" transform="translate(339.57143 513.798)"/><path d="m49 4 12 12 12-12z" fill="url(#n)" opacity=".35" transform="translate(339.57143 513.798)"/></g><path d="m1.0000062 16.999998h9.9999938v3h-9.9999938z" fill="#fff" fill-opacity=".784314" stroke-width=".484126"/><path d="m11 17h10v3h-10z" fill="#31363b" fill-opacity=".86" stroke-linejoin="round" stroke-width="2"/><path d="m-232.48215-310.99878h6.25v1.875h-6.25z" fill="#31363b" fill-opacity=".86" opacity=".534884" stroke-linejoin="round" stroke-width="1.25"/><path d="m1.9999999 18v1h1v-1z" fill="#4d4d4d"/><path d="m15.167969 6.0820312-5.3105471 3.9511718 6.9667971 6.966797h4.175781v-5.085938zm-4.960938 5.2109378-3.207031 2.707031 3 3h5.914062z" fill="url(#o)" opacity=".2"/><g fill="#f7f8f8"><path d="m19.460938 17.75c-.396278.020087-.710938.34873-.710938.75 0 .414214.335786.75.75.75s.75-.335786.75-.75-.335786-.75-.75-.75c-.01294 0-.02628-.000648-.03906 0z"/><path d="m14.931641 6c-.670559-.0046-2.261427 1.1011669-3.830079 2.6699219-.451335.451494-.873017.9142633-1.2441401 1.3632811.6815871.123842 1.2505501.591574 1.5039061 1.236328.403374-.341018.815784-.71822 1.21875-1.121093 1.83712-1.837312 2.995911-3.6578768 2.587891-4.0664068-.042-.0422-.100288-.068725-.173828-.078125-.01968-.0024999-.04087-.0038062-.0625-.0039062zm-5.431641 5c-.8284271 0-1.5.671573-1.5 1.5.0013.170563.0316858.339654.0898438.5h-.0898438l-1 1h1.5c1.0607471 0 1.924433-.817443 1.996094-1.859375-.000997-.01165-.002607-.023596-.003906-.035156.0045-.03499.007112-.0702.007812-.105469 0-.517767-.394181-.942931-.8984375-.994141-.016904-.0016-.0338333-.002906-.0507813-.003906-.0170271-.00087-.0335222-.001953-.0507812-.001953z"/></g></svg>