<svg height="22" width="22" xmlns="http://www.w3.org/2000/svg" xmlns:xlink="http://www.w3.org/1999/xlink"><radialGradient id="a" cx="11" cy="11" gradientUnits="userSpaceOnUse" r="9"><stop offset="0" stop-color="#566069"/><stop offset="1" stop-color="#18222a"/></radialGradient><linearGradient id="b" gradientUnits="userSpaceOnUse" x1="11" x2="11" y1="19" y2="3"><stop offset="0" stop-color="#18222a"/><stop offset="1" stop-color="#566069"/></linearGradient><linearGradient id="c" gradientUnits="userSpaceOnUse" x1="11" x2="11" y1="19" y2="16"><stop offset="0" stop-color="#253440"/><stop offset="1" stop-color="#566069" stop-opacity=".463277"/></linearGradient><linearGradient id="d" gradientUnits="userSpaceOnUse" x1="15" x2="7" y1="15" y2="5"><stop offset="0" stop-color="#197cf1"/><stop offset="1" stop-color="#21c9fb"/></linearGradient><linearGradient id="e" gradientUnits="userSpaceOnUse" x1="7.878906" x2="19" y1="11.189453" y2="11.189453"><stop offset="0" stop-color="#292c2f"/><stop offset="1" stop-opacity="0"/></linearGradient><g stroke-linejoin="round"><rect fill="url(#a)" height="18" ry="2" stroke-width="2" width="18" x="2" y="2"/><rect fill="url(#b)" height="16" ry="1" stroke-width="1.77778" width="16" x="3" y="3"/><g stroke-width="1.62019"><path d="m3 16v1 1c0 .554.446 1 1 1h4 1 1v-1-1-1h-1-5zm9 0v1 1 1h2 4c.554 0 1-.446 1-1v-1-1z" fill="#83878a"/><path d="m3 17v1c0 .554.446 1 1 1h4 1 1v-1h-1-1-4c-.554 0-1-.446-1-1zm16 0c0 .554-.446 1-1 1h-4-2v1h2 4c.554 0 1-.446 1-1z" fill="url(#c)"/></g></g><path d="m12.121094 5.8789062-4.121094.1210938-.1210938 4.121094 2.1210938 2.121094v2.257812l2 2v-.5h7v-3.242188z" fill="url(#e)" opacity=".4"/><path d="m10 5c-1.65685 0-3 1.34315-3 3 .0022.81092.330006 1.5644213.878906 2.113281l.65625.65625.05078.05078c.30964.309701.689804.554532 1.121094.707032v-1.08789l-.70703-.7070311c-.0054-.00311-.01028-.00661-.01563-.00977-.178413-.3027328-.277411-.6520511-.277344-1.015625 0-1.1045699.89544-2 2-2 .370924.0000001.717871.101393 1.015625.2773438.175962.2977658.277349.6447192.277349 1.0156293-.0017.0995-.010944.198725-.027344.296875l.707032.7070312.855468.6835938c.1115-.31498.169575-.6463588.171875-.9804688 0-.8284299-.336006-1.5782037-.878906-2.1210937l-.05078-.050781-.65625-.65625c-.542901-.5428902-1.292695-.8789065-2.121095-.8789065zm0 3v6.5l.707031.707031 1.5-1.75.25-.75h3.25l-.707031-.707031z" opacity=".2"/><path d="m10 5c-1.6568542 0-3 1.3431458-3 3 .00343 1.2683695.8041637 2.397526 2 2.820312v-1.0878901c-.618917-.3573319-1.0001326-1.0177581-1-1.7324219 0-1.1045695.8954305-2 2-2 1.104569 0 2 .8954305 2 2-.0017.099501-.01086.1987348-.02734.296875l.855469.6835938c.111483-.3149715.169578-.646355.171871-.9804688 0-1.6568542-1.343146-3-3-3zm0 3v6.5l1.5-1.75.25-.75h3.25z" fill="url(#d)"/></svg>