<svg height="22" viewBox="0 0 22 22" width="22" xmlns="http://www.w3.org/2000/svg" xmlns:xlink="http://www.w3.org/1999/xlink"><linearGradient id="a" gradientTransform="matrix(1 0 0 .97607473 37.999999 .598619)" gradientUnits="userSpaceOnUse" x1="11" x2="11" y1="17" y2="2"><stop offset="0" stop-color="#f79f06"/><stop offset=".06666667" stop-color="#eeab32"/><stop offset=".2" stop-color="#e18f00"/><stop offset=".80145305" stop-color="#f8c468"/><stop offset="1" stop-color="#ffc35a"/></linearGradient><linearGradient id="b" gradientUnits="userSpaceOnUse" x1="11" x2="11" y1="20" y2="14"><stop offset="0" stop-color="#82868d"/><stop offset="1" stop-color="#d9dada"/></linearGradient><circle cx="11" cy="17" fill="url(#b)" r="3" stroke-width="3"/><path d="m11 2a2 2 0 0 0 -2 2 2 2 0 0 0 .0449219.40625 5 5 0 0 0 -3.0449219 4.59375v1a4 6 0 0 1 -4 6v1h6 6 1 5v-1a4 6 0 0 1 -4-6v-1a5 5 0 0 0 -3.044922-4.6015625 2 2 0 0 0 .044922-.3984375 2 2 0 0 0 -2-2z" fill="url(#a)"/><path d="m2 16h18v.999999h-18z" opacity=".15" stroke-width=".801784"/><path d="m12.728516 2.9960938a2 2 0 0 1 -1.728516 1.0039062 5 5 0 0 1 1.955078.3984375 2 2 0 0 0 .044922-.3984375 2 2 0 0 0 -.271484-1.0039062zm-1.728516 1.0039062a2 2 0 0 1 -1.7265625-1 2 2 0 0 0 -.2734375 1 2 2 0 0 0 .046875.40625 5 5 0 0 1 1.953125-.40625z" opacity=".15"/><path d="m12.318359 2.4941406a2 2 0 0 1 -1.318359.5058594 2 2 0 0 1 -1.3183594-.5039062 2 2 0 0 0 -.4101562.5097656 2 2 0 0 0 1.7285156.9941406 2 2 0 0 0 1.732422-.9980469 2 2 0 0 0 -.414063-.5078125z" opacity=".08"/></svg>