<svg height="22" width="22" xmlns="http://www.w3.org/2000/svg" xmlns:xlink="http://www.w3.org/1999/xlink"><linearGradient id="a" gradientTransform="matrix(.62500053 0 0 .64285716 -239.35737 -330.87014)" gradientUnits="userSpaceOnUse" x2="0" xlink:href="#b" y1="545.79797" y2="517.79797"/><linearGradient id="b"><stop offset="0" stop-color="#2a2c2f"/><stop offset="1" stop-color="#424649"/></linearGradient><linearGradient id="c" gradientTransform="matrix(.52173855 0 0 .60869489 -197.81967 -312.39833)" gradientUnits="userSpaceOnUse" x2="0" y1="543.79797" y2="518.79797"><stop offset="0" stop-color="#c6cdd1"/><stop offset="1" stop-color="#e0e5e7"/></linearGradient><linearGradient id="d" gradientUnits="userSpaceOnUse" x1="6.642848" x2="15.642859" y1="6.499992" y2="15.499984"><stop offset="0" stop-color="#292c2f"/><stop offset="1" stop-opacity="0"/></linearGradient><linearGradient id="e" gradientUnits="userSpaceOnUse" x1="2" x2="14" xlink:href="#b" y1="8" y2="8"/><path d="m5.999999 2h10.000001v18h-10.000001z" fill="url(#a)" stroke-width=".633866"/><path d="m15.642833 3.9285866-8.9999917 14.1428434 1.9285697 1.92857h7.714278v-15.4285568z" fill="url(#d)" fill-rule="evenodd" opacity=".2" stroke-width=".642857"/><path d="m5.999999 19h10.000001v.999983h-10.000001z" fill="#1c1e20" stroke-width=".790564"/><path d="m7 4h8v13.999999h-8z" fill="url(#c)" stroke-width=".603023"/><path d="m9.214285 3h3.857139v1h-3.857139z" fill="#212324" stroke-width=".801784"/><path d="m5 2a1 1 0 0 0 -1 1 1 1 0 0 0 1 1 1 1 0 0 0 1-1 1 1 0 0 0 -1-1zm5 0-1.5 1.5 2.5 2.5-2.5 2.5 1.5 1.5 4-4zm-6.75 4.5a1.25 1.25 0 0 0 -1.25 1.25 1.25 1.25 0 0 0 1.25 1.25 1.25 1.25 0 0 0 1.25-1.25 1.25 1.25 0 0 0 -1.25-1.25zm3.25 4.5a1.5 1.5 0 0 0 -1.5 1.5 1.5 1.5 0 0 0 1.5 1.5 1.5 1.5 0 0 0 1.5-1.5 1.5 1.5 0 0 0 -1.5-1.5z" fill="url(#e)" transform="matrix(.5 0 0 .5 7 7)"/></svg>