<svg height="22" width="22" xmlns="http://www.w3.org/2000/svg" xmlns:xlink="http://www.w3.org/1999/xlink"><linearGradient id="a" gradientUnits="userSpaceOnUse" x1="35.339394" x2="35.339394" y1="12.6" y2="7.6"><stop offset="0" stop-color="#6c5548"/><stop offset="1" stop-color="#997657"/></linearGradient><linearGradient id="b" gradientUnits="userSpaceOnUse" x1="35.339394" x2="35.339394" y1="4.6" y2="-2.4"><stop offset="0" stop-color="#bdc3c7"/><stop offset="1" stop-color="#eff0f1"/></linearGradient><linearGradient id="c" gradientUnits="userSpaceOnUse" x1="11" x2="11" y1="5.5" y2="2.5"><stop offset="0" stop-color="#909c9c"/><stop offset=".333" stop-color="#cfd5d5"/><stop offset="1" stop-color="#eff1f1"/></linearGradient><linearGradient id="d" gradientUnits="userSpaceOnUse" x1="1" x2="21" y1="8" y2="19"><stop offset="0" stop-color="#232629"/><stop offset="1" stop-color="#232629" stop-opacity="0"/></linearGradient><path d="m15.949219 8.0507812-11.8789065 3.9492188 2.9296875 3-6 4h20l1-5z" fill="url(#d)" opacity=".2"/><path d="m7.5859375 12-2 2h1.4140625l2-2zm5.4140625 0 2 2h1.414062l-2-2z" fill="#464747"/><g stroke-width="2"><path d="m4 14c-.554 0-1 .446-1 1v1h-1c-.554 0-1 .446-1 1v2h20v-2c0-.554-.446-1-1-1h-1v-1c0-.554-.446-1-1-1z" fill="url(#a)"/><path d="m1 17h20v2h-20z" fill="#433a35"/><path d="m3 15h16v1h-16z" opacity=".2"/><path d="m11 6a7 7 0 0 0 -6.9296875 6h13.8574215a7 7 0 0 0 -6.927734-6z" fill="url(#b)"/><path d="m4.6875 10a7 7 0 0 0 -.3808594 1h13.3847654a7 7 0 0 0 -.380859-1z" fill="#eeeff0" opacity=".4"/></g><path d="m11 2.5a1.5 1.5 0 0 0 -1.5 1.5 1.5 1.5 0 0 0 .3847656 1h2.2304684a1.5 1.5 0 0 0 .384766-1 1.5 1.5 0 0 0 -1.5-1.5z" fill="url(#c)" stroke-width="1.5"/><path d="m10 5v1.0839844a7 7 0 0 1 1-.0839844 7 7 0 0 1 1 .0800781v-1.0800781zm-5.703125 6c-.099865.327347-.175589.661576-.2265625 1h13.8574215c-.05097-.338424-.126697-.672653-.226562-1z" fill="#979c9f" stroke-width="2.44949"/></svg>