<svg height="22" width="22" xmlns="http://www.w3.org/2000/svg" xmlns:xlink="http://www.w3.org/1999/xlink"><linearGradient id="a" gradientTransform="matrix(.64285741 0 0 .64285741 -246.51032 -330.87026)" gradientUnits="userSpaceOnUse" x2="0" y1="545.79797" y2="517.79797"><stop offset="0" stop-color="#c6cdd1"/><stop offset="1" stop-color="#e0e5e7"/></linearGradient><linearGradient id="b" gradientUnits="userSpaceOnUse" x1="11" x2="11" y1="12" y2="10"><stop offset="0" stop-color="#2a2c2f"/><stop offset="1" stop-color="#424649"/></linearGradient><linearGradient id="c" gradientUnits="userSpaceOnUse" x1="6" x2="15" y1="6" y2="18"><stop offset="0" stop-color="#292c2f"/><stop offset="1" stop-opacity="0"/></linearGradient><rect fill="url(#a)" height="18.000008" rx="9" stroke-width=".642857" width="18" x="2" y="2"/><path d="m7.7070312 10.292969-1.4140624 1.414062 7.7460932 7.746094c.662448-.240307 1.294381-.557584 1.882813-.945313zm3.9999998 0-1.414062 1.414062 6.308593 6.308594c.522421-.417361.996702-.891642 1.414063-1.414063zm4 0-1.414062 1.414062 4.214843 4.214844c.387729-.588432.705006-1.220365.945313-1.882813z" fill="url(#c)" opacity=".2"/><path d="m7 10a1 1 0 0 0 -1 1 1 1 0 0 0 1 1 1 1 0 0 0 1-1 1 1 0 0 0 -1-1zm4 0a1 1 0 0 0 -1 1 1 1 0 0 0 1 1 1 1 0 0 0 1-1 1 1 0 0 0 -1-1zm4 0a1 1 0 0 0 -1 1 1 1 0 0 0 1 1 1 1 0 0 0 1-1 1 1 0 0 0 -1-1z" fill="url(#b)"/></svg>