<svg viewBox="0 0 16 16" xmlns="http://www.w3.org/2000/svg">
    <style id="current-color-scheme" type="text/css">
        .ColorScheme-Text {
            color:#eff0f1;
        }
        .ColorScheme-NegativeText {
            color:#da4453;
        }
    </style>
    <g class="ColorScheme-Text" fill="currentColor">
        <path d="m4 6.01563v3.98437l4 4h1v-2.984375z"/>
        <path d="m2 6v4h1v-4z"/>
        <path d="m8 2-1.990234 1.990234 2.990234 2.982422v-4.972656z"/>
    </g>
    <path d="m2 2.707107.707107-.707107 11.292893 11.267023-.707109.732975z" class="ColorScheme-NegativeText" fill="currentColor"/>
    <g class="ColorScheme-Text" fill="currentColor">
        <path d="m10.271484 12.392578a5 5 0 0 1 -.492187.279297l.166015.998047a6 6 0 0 0 1.050782-.552734z" opacity=".35"/>
        <path d="m10.128906 4.615234-.330078.988282a3 3 0 0 1 1.201172 2.396484 3 3 0 0 1 -.167969.710938l.822266.822265a4 4 0 0 0 .345703-1.533203 4 4 0 0 0 -1.871094-3.384766z" opacity=".35"/>
        <path d="m9.945312 2.332031-.167968 1a5 5 0 0 1 3.222656 4.667969 5 5 0 0 1 -.607422 2.271484l.730469.730469a6 6 0 0 0 .876953-3.001953 6 6 0 0 0 -4.054688-5.667969z" opacity=".35"/>
    </g>
</svg>
