<svg id="svg7" version="1.1" viewBox="0 0 16 16" xmlns="http://www.w3.org/2000/svg">
    <style id="current-color-scheme" type="text/css">.ColorScheme-Text {
            color:#eff0f1;
        }
        .ColorScheme-NegativeText {
            color:#da4453;
        }</style>
    <path id="path5" class="ColorScheme-NegativeText" d="m3.5 2.7929688-.7070312.7070312 5.2070312 5.207031 5-4.9999998v2.2929688h1v-4h-4v1h2.292969l-4.292969 4.292969z" fill="currentColor"/>
    <path id="rect850-9-2-9" d="m6 10c-1.637054 0-3.089012 0.791082-4 2v1.5c0 0.277 0.223 0.5 0.5 0.5h2c0.277 0 0.5-0.223 0.5-0.5v-0.5c0-0.554 0.446-1 1-1h4c0.554 0 1 0.446 1 1v0.5c0 0.277 0.223 0.5 0.5 0.5h2c0.277 0 0.5-0.223 0.5-0.5v-1.5c-0.910988-1.208918-2.362946-2-4-2z" class="ColorScheme-Text" fill="currentColor" fill-rule="evenodd"/>
</svg>
