<svg id="svg9" version="1.1" viewBox="0 0 16 16" xmlns="http://www.w3.org/2000/svg">
    <style id="current-color-scheme" type="text/css">.ColorScheme-Text {
            color:#eff0f1;
        }</style>
    <path id="path5" d="M 8.500001,8.2070307 13,3.707031 V 6 l 1,-2e-7 V 2 h -4 v 0.9999999 h 2.292969 L 7.79297,7.4999995 Z" class="ColorScheme-Text" fill="currentColor"/>
    <path id="path1374" d="m3.5 4c-0.132599 2.55e-5 -0.25976 0.052716-0.353516 0.1464844l-1.121093 1.1210937c-0.0054 0.042537-0.01473 0.077875-0.01953 0.1210938-0.142957 1.2866058-0.0075 3.0237329 1.287109 4.3183593l3 2.9999998c1.294626 1.294627 3.031754 1.430066 4.318359 1.28711 0.0471-0.0052 0.07918-0.01746 0.125-0.02344l1.117188-1.117187c0.195185-0.195265 0.195185-0.511767 0-0.707032l-1.5-1.5c-0.093757-0.093764-0.220917-0.146457-0.353517-0.146482-0.132599 2.5e-5 -0.25976 0.05272-0.353516 0.146484l-0.585937 0.585938c-0.391737 0.391737-1.022326 0.391737-1.414063 0l-2.878906-2.8789064c-0.391737-0.3917371-0.391737-1.0223253 0-1.4140625l0.585938-0.5859375c0.195184-0.1952649 0.195184-0.5117663 0-0.7070312l-1.5-1.5c-0.093756-0.0937681-0.220916-0.1464589-0.353516-0.1464844z" class="ColorScheme-Text" fill="currentColor"/>
</svg>
