<svg version="1.1" viewBox="0 0 16 16" xmlns="http://www.w3.org/2000/svg">
    <defs>
        <style id="current-color-scheme" type="text/css">.ColorScheme-Text {
        color:#eff0f1;
      }</style>
    </defs>
    <path class="ColorScheme-Text" d="m7.3085938 2c-0.1278459 0-0.2324219 0.102623-0.2324219 0.2304688l-0.4082031 1.8398437c-0.1735519 0.0578594-0.3433921 0.1268202-0.5078126 0.2070313l-1.5859374-1.0097657c-0.1078591-0.06864-0.2357706-0.090401-0.3261719 0l-0.9804688 0.9804688c-0.090401 0.0904-0.090401 0.2357719 0 0.3261719l1.0117188 1.5898437c-0.0810224 0.1634737-0.1501348 0.3312072-0.2089844 0.5039063l-1.8398437 0.4082031c-0.1278457 0-0.2304688 0.1045759-0.2304688 0.2324219v1.3828124c0 0.127846 0.1056672 0.2046879 0.2304688 0.2324219l1.8398437 0.4082031c0.056982 0.1710104 0.1244331 0.3378304 0.203125 0.5l-1.0136719 1.5937498c-0.06864 0.107859-0.090401 0.235771 0 0.326172l0.9785156 0.980469c0.090401 0.0904 0.2377237 0.0904 0.328125 0l1.59375-1.015625c0.1648671 0.08213 0.3335122 0.153348 0.5078126 0.212891l0.4082031 1.839843c0 0.127846 0.1045761 0.230469 0.2324219 0.230469h1.3828124c0.1278457 0 0.2046884-0.105668 0.2324219-0.230469l0.4082031-1.839843c0.1735519-0.05786 0.3433919-0.126821 0.5078126-0.207032l1.5859372 1.009766c0.0904 0.0904 0.23577 0.0904 0.326172 0l0.980469-0.980469c0.0904-0.0904 0.06864-0.218313 0-0.326172l-1.011719-1.5898435c0.08102-0.163474 0.150135-0.3312067 0.208985-0.5039063l1.839843-0.4082031c0.124802-0.0277339 0.230469-0.1045758 0.230469-0.2324219v-1.3828124c0-0.127846-0.102623-0.2324219-0.230469-0.2324219l-1.839843-0.4082031c-0.058477-0.1757657-0.129548-0.3472727-0.210938-0.5136719l1.005859-1.5800781c0.0904-0.0904 0.0904-0.2357699 0-0.3261719l-0.978515-0.9804688c-0.0904-0.090401-0.218313-0.06864-0.326172 0l-1.5878908 1.0097657c-0.1620565-0.080227-0.3288785-0.1485836-0.5-0.2070313l-0.4082031-1.8398437c-0.027734-0.1248015-0.1045761-0.2304688-0.2324219-0.2304688h-1.3828124zm0.6914062 4a2 2 0 0 1 2 2 2 2 0 0 1-2 2 2 2 0 0 1-2-2 2 2 0 0 1 2-2z" fill="currentColor"/>
</svg>
