<!DOCTYPE svg>
<svg viewBox="0 0 16 16" version="1.1" xmlns="http://www.w3.org/2000/svg">
    <defs>
        <style type="text/css" id="current-color-scheme">
            .ColorScheme-Text {
                color:#eff0f1;
            }
        </style>
    </defs>
    <path class="ColorScheme-Text" style="fill:currentColor; fill-opacity:1; stroke:none" d="M 3 2 L 3 14 L 10 14 L 10 13 L 4 13 L 4 3 L 9 3 L 9 6 L 12 6 L 12 11 L 13 11 L 13 5 L 10 2 L 3 2 Z"/>
    <path class="ColorScheme-Text" style="fill:currentColor; fill-opacity:1; stroke:none" d="M 8.48828 7 C 7.10757 7 5.98828 8.11929 5.98828 9.5 C 5.98828 10.8807 7.10757 12 8.48828 12 C 8.97811 11.9992 9.45691 11.8546 9.86523 11.584 L 12.2813 14 L 12.9883 13.293 L 10.5723 10.877 C 10.8428 10.4686 10.9875 9.98983 10.9883 9.5 C 10.9883 8.11929 9.86899 7 8.48828 7 Z M 8.48828 8 C 9.31671 8 9.98828 8.67157 9.98828 9.5 C 9.98828 10.3284 9.31671 11 8.48828 11 C 7.65985 11 6.98828 10.3284 6.98828 9.5 C 6.98828 8.67157 7.65985 8 8.48828 8 Z"/>
</svg>
