<?xml version="1.0" encoding="UTF-8"?>
<svg xmlns="http://www.w3.org/2000/svg" xmlns:xlink="http://www.w3.org/1999/xlink" xmlns:cc="http://creativecommons.org/ns#" xmlns:dc="http://purl.org/dc/elements/1.1/" xmlns:rdf="http://www.w3.org/1999/02/22-rdf-syntax-ns#" xmlns:inkscape="http://www.inkscape.org/namespaces/inkscape" xmlns:sodipodi="http://sodipodi.sourceforge.net/DTD/sodipodi-0.dtd" width="32" height="32">
    <style type="text/css" id="current-color-scheme">.ColorScheme-Text { color: #fcfcfc; } </style>
    <g id="akregator" transform="translate(-22,0)">
    <path id="path12" d="M 26 4 L 26 8 A 20 20 0 0 1 46 28 L 50 28 A 24 24 0 0 0 26 4 z M 26 12 L 26 16 A 12 12 0 0 1 38 28 L 42 28 A 16 16 0 0 0 26 12 z M 29.5 21 A 3.5 3.5 0 0 0 26 24.5 A 3.5 3.5 0 0 0 29.5 28 A 3.5 3.5 0 0 0 33 24.5 A 3.5 3.5 0 0 0 29.5 21 z " style="fill:currentColor;fill-opacity:1;stroke:none" class="ColorScheme-Text"/>
    <path id="path14" style="opacity:1;fill:none" d="M 22 0 L 22 32 L 54 32 L 54 0 L 22 0 z "/>
  </g>
</svg>
