<?xml version="1.0" encoding="UTF-8" standalone="no"?>
<svg
   width="64"
   viewBox="0 0 64 64"
   height="64"
   version="1.1"
   id="svg47"
   xml:space="preserve"
   xmlns:xlink="http://www.w3.org/1999/xlink"
   xmlns="http://www.w3.org/2000/svg"
   xmlns:svg="http://www.w3.org/2000/svg"><defs
     id="defs13"><linearGradient
       id="a"
       y1="17"
       x1="40"
       y2="31"
       gradientUnits="userSpaceOnUse"
       x2="54"><stop
         stop-color="#060606"
         id="stop2" /><stop
         offset="1"
         stop-opacity="0"
         id="stop4" /></linearGradient><linearGradient
       id="b"
       y1="392.36"
       y2="336.36"
       gradientUnits="userSpaceOnUse"
       x2="0"
       gradientTransform="translate(-48,-332.36)"><stop
         stop-color="#ffffff"
         stop-opacity="0"
         id="stop7" /><stop
         offset="1"
         stop-color="#ffffff"
         stop-opacity=".2"
         id="stop9" /></linearGradient><path
       id="c"
       d="m10 61v-58h30l14 14v44h-14z" /></defs><g
     color-rendering="auto"
     color-interpolation-filters="linearRGB"
     shape-rendering="auto"
     image-rendering="auto"
     text-rendering="auto"
     color-interpolation="sRGB"
     color="#000000"
     id="g25"><use
       fill="#555555"
       xlink:href="#c"
       id="use15" /><g
       transform="scale(1-1)"
       id="g21"><rect
         opacity=".4"
         x="10"
         y="-4"
         width="30"
         fill="#ffffff"
         height="1"
         id="rect17" /><rect
         opacity=".35"
         x="10"
         y="-61"
         width="44"
         height="1"
         id="rect19" /></g><path
       opacity=".5"
       fill="#ffffff"
       fill-rule="evenodd"
       d="m54 17l-14-14v14z"
       id="path23" /></g><path
     opacity=".4"
     fill="url(#a)"
     fill-rule="evenodd"
     d="m40 17l14 14v-14z"
     id="path27" /><use
     fill="url(#b)"
     xlink:href="#c"
     id="use29"
     style="fill:url(#b)" /><g
     fill="#343434"
     id="g35"
     transform="matrix(1.209571,0,0,1.209571,-6.8919155,-21.702533)"
     style="stroke-width:0.826739"><path
       d="m 28.5,33.5 v 1.102 c -0.626,0.129 -1.221,0.377 -1.754,0.73 l -0.781,-0.781 -1.414,1.414 0.781,0.781 C 24.98,37.279 24.733,37.874 24.605,38.5 H 23.5 v 2 h 1.102 c 0.129,0.626 0.377,1.221 0.73,1.754 l -0.781,0.781 1.414,1.414 0.781,-0.781 c 0.533,0.352 1.128,0.599 1.754,0.727 V 45.5 h 2 v -1.102 c 0.626,-0.129 1.221,-0.377 1.754,-0.73 l 0.781,0.781 1.414,-1.414 -0.781,-0.781 C 34.02,41.721 34.267,41.126 34.395,40.5 H 35.5 v -2 h -1.102 c -0.129,-0.626 -0.377,-1.221 -0.73,-1.754 l 0.781,-0.781 -1.414,-1.414 -0.781,0.781 C 31.721,34.98 31.126,34.733 30.5,34.605 V 33.5 Z m 1,2 c 1.081,0 2.116,0.438 2.869,1.213 0.725,0.747 1.131,1.746 1.131,2.787 0,1.081 -0.438,2.116 -1.213,2.869 C 31.54,43.094 30.541,43.5 29.5,43.5 28.419,43.5 27.384,43.062 26.631,42.287 25.906,41.54 25.5,40.541 25.5,39.5 c 0,-1.081 0.438,-2.116 1.213,-2.869 C 27.46,35.906 28.459,35.5 29.5,35.5"
       id="path31"
       style="stroke-width:0.826739" /></g><path
     fill="#343434"
     d="m39.09 27.431l-.107 1.096c-.636.068-1.252.256-1.817.556l-.702-.854-1.545 1.27.702.854c-.402.496-.706 1.065-.894 1.675l-1.1-.108-.195 1.991 1.096.107c.068.636.256 1.252.556 1.817l-.854.702 1.27 1.545.854-.702c.496.402 1.065.706 1.675.894l-.108 1.1 1.991.195.107-1.096c.636-.068 1.252-.256 1.817-.556l.702.854 1.545-1.27-.702-.854c.402-.496.706-1.065.894-1.675l1.1.108.195-1.991-1.096-.107c-.068-.636-.256-1.252-.556-1.817l.854-.702-1.27-1.545-.854.702c-.496-.402-1.065-.706-1.675-.894l.108-1.1zm.801 2.088c1.076.105 2.063.641 2.737 1.486.649.814.956 1.848.854 2.884-.105 1.076-.641 2.063-1.486 2.737-.814.649-1.848.956-2.884.854-1.076-.105-2.063-.641-2.737-1.486-.649-.814-.956-1.848-.854-2.884.105-1.076.641-2.063 1.486-2.737.814-.649 1.848-.956 2.884-.854"
     id="path39" /><path
     fill="#343434"
     d="m 21,36 v 5 h 5 v -5 z m 6,0 v 5 h 5 v -5 z m -6,6 v 5 h 5 v -5 z m 6,0 v 5 h 5 v -5 z"
     id="path305"
     style="color:#000000;color-interpolation:sRGB;color-interpolation-filters:linearRGB;color-rendering:auto;image-rendering:auto;shape-rendering:auto;text-rendering:auto" /><path
     fill="#e0e0e0"
     d="m 20,35 v 5 h 5 v -5 z m 6,0 v 5 h 5 v -5 z m -6,6 v 5 h 5 v -5 z m 6,0 v 5 h 5 v -5 z"
     id="path307"
     style="color:#000000;color-interpolation:sRGB;color-interpolation-filters:linearRGB;color-rendering:auto;image-rendering:auto;shape-rendering:auto;text-rendering:auto" /><path
     d="m 38.589,26.931 -0.107,1.096 c -0.636,0.068 -1.252,0.256 -1.817,0.556 l -0.702,-0.854 -1.545,1.27 0.702,0.854 c -0.402,0.496 -0.706,1.065 -0.894,1.675 l -1.1,-0.108 -0.195,1.991 1.096,0.107 c 0.068,0.636 0.256,1.252 0.556,1.817 l -0.854,0.702 1.27,1.545 0.854,-0.702 c 0.496,0.402 1.065,0.706 1.675,0.894 l -0.108,1.1 1.991,0.195 0.107,-1.096 c 0.636,-0.068 1.252,-0.256 1.817,-0.556 l 0.702,0.854 1.545,-1.27 -0.702,-0.854 c 0.402,-0.496 0.706,-1.065 0.894,-1.675 l 1.1,0.108 0.195,-1.991 -1.096,-0.107 C 43.905,31.846 43.717,31.23 43.417,30.665 l 0.854,-0.702 -1.27,-1.545 -0.854,0.702 c -0.496,-0.402 -1.065,-0.706 -1.675,-0.894 l 0.108,-1.1 z m 0.801,2.088 c 1.076,0.105 2.063,0.641 2.737,1.486 0.649,0.814 0.956,1.848 0.854,2.884 -0.105,1.076 -0.641,2.063 -1.486,2.737 -0.814,0.649 -1.848,0.956 -2.884,0.854 -1.076,-0.105 -2.063,-0.641 -2.737,-1.486 -0.649,-0.814 -0.956,-1.848 -0.854,-2.884 0.105,-1.076 0.641,-2.063 1.486,-2.737 0.814,-0.649 1.848,-0.956 2.884,-0.854"
     id="path41"
     style="fill:#e0e0e0" /><path
     d="m 26.746252,17.477511 v 1.38163 c -0.784847,0.161734 -1.530827,0.472663 -2.199075,0.915236 L 23.568,18.7952 l -1.7728,1.7728 0.979177,0.979177 c -0.441319,0.668248 -0.750995,1.414228 -0.911475,2.199075 h -1.385391 v 2.507496 h 1.38163 c 0.161734,0.784847 0.472663,1.530827 0.915236,2.199075 L 21.7952,29.432 l 1.7728,1.7728 0.979177,-0.979177 c 0.668248,0.441319 1.414228,0.750995 2.199075,0.911475 v 1.385391 h 2.507496 v -1.38163 c 0.784847,-0.161734 1.530827,-0.472663 2.199075,-0.915236 L 32.432,31.2048 34.2048,29.432 33.225623,28.452823 c 0.441319,-0.668248 0.750995,-1.414228 0.911475,-2.199075 h 1.385391 v -2.507496 h -1.38163 C 33.979125,22.961405 33.668196,22.215425 33.225623,21.547177 L 34.2048,20.568 32.432,18.7952 31.452823,19.774377 C 30.784575,19.333058 30.038595,19.023382 29.253748,18.862902 V 17.477511 Z M 30.869,22.213 C 31.594,22.96 32,23.959 32,25 32,26.081 31.562,27.116 30.787,27.869 30.04,28.594 29.041,29 28,29 26.919,29 25.884,28.562 25.131,27.787 24.406,27.04 24,26.041 24,25 24,23.919 24.473512,22.859846 25.213,22.131 25.927051,21.427224 26.959,21 28,21 c 1.081,0 2.116,0.438 2.869,1.213 z"
     id="path43"
     style="fill:#e0e0e0" /></svg>
