<?xml version="1.0" encoding="UTF-8"?>
<svg xmlns="http://www.w3.org/2000/svg" version="1.1" viewBox="0 0 24 24" width="24" height="24">
  <style id="current-color-scheme" type="text/css">.ColorScheme-NegativeText { color: #da4453; } .ColorScheme-Text { color: #fcfcfc; } </style>
  <g transform="translate(1,1)">
    <g class="ColorScheme-Text" transform="rotate(180,11,11)" fill="currentColor">
      <path d="m3 8v6h2v-6z"/>
      <path d="m6 8v6l5 5h1v-5z"/>
      <path d="m11 3-3 3 4 4v-7z"/>
      <g opacity=".35">
        <path d="m14.832031 16.832031a7 7 0 0 1-1.21289 0.646485l0.24414 0.974609a8 8 0 0 0 1.681641-0.908203z"/>
        <path d="M 14.324219,7.28125 13.785156,8.1425781 A 4,4 0 0 1 15,11 4,4 0 0 1 14.628906,12.628906 l 0.75,0.75 A 5,5 0 0 0 16,11 5,5 0 0 0 14.324219,7.28125 Z"/>
        <path d="m 13.865234,3.5371094 -0.24414,0.9765625 A 7,7 0 0 1 18,11 7,7 0 0 1 16.833984,14.833984 l 0.716797,0.716797 A 8,8 0 0 0 19,11 8,8 0 0 0 13.865234,3.5371094 Z"/>
      </g>
    </g>
    <path class="ColorScheme-NegativeText" d="M 19,18.292893 18.292893,19 3,3.707107 3.707107,3 Z" fill="currentColor"/>
  </g>
</svg>
