<?xml version="1.0" encoding="UTF-8"?>
<svg width="32" height="32" version="1.1" id="svg6" sodipodi:docname="device-notifier.svg" inkscape:version="1.2.2 (b0a8486541, 2022-12-01)" xmlns:inkscape="http://www.inkscape.org/namespaces/inkscape" xmlns:sodipodi="http://sodipodi.sourceforge.net/DTD/sodipodi-0.dtd" xmlns="http://www.w3.org/2000/svg" xmlns:svg="http://www.w3.org/2000/svg">
  <defs id="defs10"/>
  <namedview id="namedview8" pagecolor="#ffffff" bordercolor="#000000" borderopacity="0.25" inkscape:showpageshadow="2" inkscape:pageopacity="0.0" inkscape:pagecheckerboard="0" inkscape:deskcolor="#d1d1d1" showgrid="false" inkscape:zoom="24.15625" inkscape:cx="13.785252" inkscape:cy="15.979301" inkscape:window-width="1920" inkscape:window-height="1011" inkscape:window-x="0" inkscape:window-y="0" inkscape:window-maximized="1" inkscape:current-layer="svg6"/>
  <style type="text/css" id="current-color-scheme">.ColorScheme-Accent { color: #3daee9; } .ColorScheme-Background { color: #2a2e32; } .ColorScheme-ButtonText { color: #31363b; } .ColorScheme-Text { color: #fcfcfc; } </style>
  <g id="device-notifier" transform="translate(-321,-529.36218)">
    <path id="rect4196" transform="translate(321,529.36218)" d="M 9,2 V 16 H 8 7 v 14 h 1 16 1 V 16 H 24 23 V 2 Z m 1,3 h 2 v 8 h -2 z m 10,0 h 2 v 8 h -2 z m -7,3 h 2 v 5 h -2 z m 4,0 h 2 v 5 H 17 Z M 8,17 H 24 V 29 H 8 Z m 8,1 -2,2 h 4 z m -6,7 v 1 h 12 v -1 z m 1,2 v 1 h 10 v -1 z" style="opacity:1;fill:currentColor;fill-opacity:1;stroke:none;stroke-width:0.1;stroke-linecap:square;stroke-linejoin:miter;stroke-miterlimit:4;stroke-dasharray:none;stroke-dashoffset:0;stroke-opacity:1" inkscape:connector-curvature="0" class="ColorScheme-Text"/>
    <rect y="529.36218" x="321" height="31.999985" width="31.999985" id="rect4151" style="opacity:0.2;fill:none;fill-opacity:1;stroke:none"/>
  </g>
</svg>
