<?xml version="1.0" encoding="UTF-8"?>
<svg width="32" height="32" version="1.1" viewBox="0 0 32 32.000002" xmlns="http://www.w3.org/2000/svg">
    <style type="text/css" id="current-color-scheme">.ColorScheme-Text { color: #fcfcfc; } </style>
    <g transform="translate(0,-23)" class="ColorScheme-Text" fill="currentColor" stroke-linecap="square">
        <path d="m4 27v6h6v-6zm1 1h4v4h-4z" stop-color="#000000"/>
        <path d="m22 27v6h6v-6zm1 1h4v4h-4z" stop-color="#000000"/>
        <path d="m13 27v6h6v-6zm1 1h4v4h-4z" stop-color="#000000"/>
        <path d="m4 36v6h6v-6zm1 1h4v4h-4z" stop-color="#000000"/>
        <path d="m22 39v6h6v-6zm1 1h4v4h-4z" stop-color="#000000"/>
        <path d="m13 36v6h6v-6zm1 1h4v4h-4z" stop-color="#000000"/>
        <path d="m4 45v6h6v-6zm1 1h4v4h-4z" stop-color="#000000"/>
        <path d="m13 45v6h6v-6zm1 1h4v4h-4z" stop-color="#000000"/>
    </g>
</svg>
