<?xml version="1.0" encoding="UTF-8"?>
<svg viewBox="0 0 96 96" xmlns="http://www.w3.org/2000/svg">

  <!-- style definitions -->
  <defs>
    <style type="text/css" id="current-color-scheme">.ColorScheme-Accent { color: #3daee9; } .ColorScheme-Text { color: #fcfcfc; } </style>
  </defs>

  <!-- folder bg -->
  <path style="fill:currentColor" class="ColorScheme-Accent" d="m6 9v21h-1v57h86v-63h-1v-9h-42l-6-6z"/>

  <!-- folder fg -->
  <path d="m6 9v21h27l6-6h51v-9h-42l-6-6z" fill-opacity=".33"/>

  <!-- folder highlight -->
  <path d="m42 9 5 7h43v-1h-42zm-3 15-6 6h-28v1h29z" fill="#fff" fill-opacity=".2"/>

  <!-- folder shadow -->
  <path d="m39 24-7 5h-26v1h27zm-34 62v1h86v-1z" fill-opacity=".2"/>

  <!-- notes -->
  <path d="m35 41c-.552285 0-1 .447715-1 1v28c0 .552285.447715 1 1 1h23c.552285 0 1-.447715 1-1v-2h2c.552285 0 1-.447715 1-1v-4.035156c-.01816-.525163-.439681-.946684-.964844-.964844h-.035156v5h-2v-5h2c.552285 0 1-.447715 1-1v-4.035156c-.01816-.525163-.439681-.946684-.964844-.964844h-.035156v5h-2v-5h2c.552285 0 1-.447715 1-1v-5.035156c-.01816-.525163-.439681-.946684-.964844-.964844h-2.035156v-7.035156c-.01816-.525163-.439681-.946684-.964844-.964844zm0 1h23v28h-23zm3 3v1h7.5v-1zm9.5 0v1h7.5v-1zm-9.5 3v1h7.5v-1zm9.5 0v1h7.5v-1zm11.5 2h2v5h-2zm-21 3v1h7.5v-1zm9.5 0v1h7.5v-1zm-9.5 3v1h7.5v-1zm9.5 0v1h7.5v-1zm-9.5 3v1h7.5v-1z" style="fill:currentColor;fill-opacity:0.6" class="ColorScheme-Text"/>

</svg>
