<?xml version="1.0" encoding="UTF-8"?>
<svg viewBox="0 0 96 96" xmlns="http://www.w3.org/2000/svg">

  <!-- style definitions -->
  <defs>
    <style type="text/css" id="current-color-scheme">.ColorScheme-Accent { color: #3daee9; } .ColorScheme-Text { color: #fcfcfc; } </style>
  </defs>

  <!-- folder bg -->
  <path fill="#3bad7e" d="m6 9v21h-1v57h86v-63h-1v-9h-42l-6-6z"/>

  <!-- folder fg -->
  <path d="m6 9v21h27l6-6h51v-9h-42l-6-6z" fill-opacity=".33"/>

  <!-- folder highlight -->
  <path d="m42 9 5 7h43v-1h-42zm-3 15-6 6h-28v1h29z" fill="#fff" fill-opacity=".2"/>

  <!-- folder shadow -->
  <path d="m39 24-7 5h-26v1h27zm-34 62v1h86v-1z" fill-opacity=".2"/>

  <!-- recycling logo -->
  <path d="m45.303342 41.5c.819148.339962 1.502665.954735 2.013893 1.836762l3.649354 6.319307-2.283824 1.288633 7.401919.105415 3.617599-6.458976-2.249421 1.328162-2.0827-3.533857c-.342446-.578185-.92171-.885449-1.672511-.885449zm-1.942442.305688c-1.295503.000002-2.356062.611663-3.003639 1.73399l-3.1042 5.333726 6.515381 3.77103 4.027788-6.930683-1.16176-1.936902c-.783928-1.323388-1.875195-1.97116-3.27357-1.971161zm17.055905 9.30767-6.515382 3.702513 4.02514 6.933316h2.252067c.714532.000001 1.432466-.172064 1.945088-.445356 1.090454-.61082 1.876282-1.902015 1.876282-3.125394 0-.588713-.171073-1.187551-.478995-1.731353zm-20.977836 1.565331-7.438969.13967 2.28647 1.288631-2.048294 3.568116c-.136355.237522-.238176.61044-.238176.917064 0 .30628.101472.645977.238176.882806l4.265961 7.302251c-.03348-.236828-.0344-.405839-.0344-.540225 0-.578525.272907-1.498066.613959-2.108192h-.0027l3.652002-6.285048 2.320873 1.325525zm13.504465 7.233735-3.818724 6.353567 3.818724 6.353565v-2.616795h3.993383c.716277 0 1.328816-.339926 1.669865-.917064l4.231558-7.33651c-.715927.542412-1.568348.81429-2.590803.81429h-7.304003zm-13.986106 2.585173-1.090307 1.934267c-.341052.577136-.579558 1.495874-.579558 2.062865 0 1.913101 1.601671 3.510669 3.546147 3.510669h6.211048v-7.507801z" style="fill:currentColor;fill-opacity:0.6" class="ColorScheme-Text"/>

</svg>
