<?xml version="1.0" encoding="UTF-8"?>
<svg viewBox="0 0 96 96" xmlns="http://www.w3.org/2000/svg">

  <!-- style definitions -->
  <defs>
    <style type="text/css" id="current-color-scheme">.ColorScheme-Accent { color: #3daee9; } .ColorScheme-Text { color: #fcfcfc; } </style>
  </defs>

  <!-- folder bg -->
  <path style="fill:currentColor" class="ColorScheme-Accent" d="m6 9v21h-1v57h86v-63h-1v-9h-42l-6-6z"/>

  <!-- folder fg -->
  <path d="m6 9v21h27l6-6h51v-9h-42l-6-6z" fill-opacity=".33"/>

  <!-- folder highlight -->
  <path d="m42 9 5 7h43v-1h-42zm-3 15-6 6h-28v1h29z" fill="#fff" fill-opacity=".2"/>

  <!-- folder shadow -->
  <path d="m39 24-7 5h-26v1h27zm-34 62v1h86v-1z" fill-opacity=".2"/>

  <!-- calculate -->
  <path d="m48.46875 45-7.962891 13.035156-2.568359-4.277344c-.377879-.662587-.9375-.757812-1.4375-.757812h-2.5v1h2.5c.5 0 .5625.242188.5625.242188s2.288881 3.815235 3.433594 5.722656l8.535156-13.964844h11.96875v1.199219l1-.699219v-.5c0-.5-.5-1-1-1zm5.039062 4.486328c-2.500473 0-4.507812 2.154939-4.507812 4.763672s2.007339 4.763672 4.507812 4.763672c1.420081 0 2.675848-.69495 3.496094-1.773438.01796 1.052691.141034 1.482626.996094 1.910157l.5-.5c-.5-.5-.5-.500001-.5-1v-7.900391h-1v1.505859c-.820313-1.076025-2.074002-1.769531-3.492188-1.769531zm0 1c1.925391 0 3.591797 1.513674 3.591797 3.763672s-1.666406 3.763672-3.591797 3.763672c-1.925389 0-3.507812-1.662819-3.507812-3.763672s1.582423-3.763672 3.507812-3.763672zm-21.507812 12.513672v1h32v-1zm13.5 6v1h5v-1z" style="fill:currentColor;fill-opacity:0.6" class="ColorScheme-Text"/>

</svg>
