<?xml version="1.0" encoding="UTF-8"?>
<svg xmlns="http://www.w3.org/2000/svg" viewBox="0 0 96 96">
  <defs id="defs3051">
    <style type="text/css" id="current-color-scheme">.ColorScheme-Accent { color: #3daee9; } .ColorScheme-Text { color: #fcfcfc; } </style>
  </defs>
 <path style="fill:#eb0a42" d="M 6 9 L 6 30 L 5 30 L 5 87 L 91 87 L 91 24 L 90 24 L 90 15 L 48 15 L 42 9 L 6 9 z "/>
 <path style="fill-opacity:0.33;fill-rule:evenodd" d="M 6 9 L 6 30 L 33 30 L 39 24 L 90 24 L 90 15 L 48 15 L 42 9 L 6 9 z "/>
 <path style="fill:#ffffff;fill-opacity:0.2;fill-rule:evenodd" d="M 42 9 L 47 16 L 90 16 L 90 15 L 48 15 L 42 9 z M 39 24 L 33 30 L 5 30 L 5 31 L 34 31 L 39 24 z "/>
 <path style="fill-opacity:0.2;fill-rule:evenodd" d="M 39 24 L 32 29 L 6 29 L 6 30 L 33 30 L 39 24 z M 5 86 L 5 87 L 91 87 L 91 86 L 5 86 z " class="ColorScheme-Text"/>
 <path style="fill:currentColor;fill-opacity:0.6;stroke:none" d="M 48 41 C 46.3 41 45 42.3 45 44 C 45 45.6 46.3 62 48 62 C 49.6 62 51 45.6 51 44 C 51 42.3 49.6 41 48 41 z M 48 65 A 3 3 0 0 0 45 68 A 3 3 0 0 0 48 71 A 3 3 0 0 0 51 68 A 3 3 0 0 0 48 65 A 3 3 0 0 0 48 65 z " class="ColorScheme-Text"/>
</svg>
