<?xml version="1.0" encoding="UTF-8"?>
<svg viewBox="0 0 96 96" xmlns="http://www.w3.org/2000/svg">

  <!-- style definitions -->
  <defs>
    <style type="text/css" id="current-color-scheme">.ColorScheme-Accent { color: #3daee9; } .ColorScheme-Text { color: #fcfcfc; } </style>
  </defs>

  <!-- folder bg -->
  <path style="fill:currentColor" class="ColorScheme-Accent" d="m6 9v21h-1v57h86v-63h-1v-9h-42l-6-6z"/>

  <!-- folder fg -->
  <path d="m6 9v21h27l6-6h51v-9h-42l-6-6z" fill-opacity=".33"/>

  <!-- folder highlight -->
  <path d="m42 9 5 7h43v-1h-42zm-3 15-6 6h-28v1h29z" fill="#fff" fill-opacity=".2"/>

  <!-- folder shadow -->
  <path d="m39 24-7 5h-26v1h27zm-34 62v1h86v-1z" fill-opacity=".2"/>

  <!-- gears -->
  <path d="m54.720703 41.199219-.150391 1.714843c-.416147.08116-.822473.210484-1.208984.384766l-1.107422-1.320312-2.296875 1.927734 1.113281 1.328125c-.236661.348246-.432718.724245-.583984 1.117187l-1.724609-.152343-.261719 2.988281 1.714844.150391c.08116.416147.20853.822473.382812 1.208984l-1.320312 1.107422 1.929687 2.296875 1.328125-1.113281c.348246.236662.722291.430765 1.115235.582031l-.150391 1.726562 2.988281.261719.150391-1.726562c.413241-.08073.81712-.208266 1.201172-.38086l1.115234 1.330078 2.296875-1.929687-1.107422-1.320313c.238751-.350374.4357-.727314.587891-1.123047l1.714844.150391.261718-2.988281-1.726562-.150391c-.08073-.41324-.208267-.81712-.38086-1.201172l1.328126-1.115234-1.927735-2.296875-1.320312 1.107422c-.350375-.238751-.727315-.435699-1.123047-.587891l.15039-1.714843zm.908203 1.083984.996094.087891-.132812 1.523437c.830042.171687 1.59382.57295 2.205078 1.160157l1.18164-.990235.642578.765625-1.175781.988281c.469122.705887.728614 1.529667.75 2.376953l1.529297.132813-.087891.996094-1.523437-.132813c-.171687.830042-.572949 1.595774-1.160156 2.207032l.990234 1.179687-.765625.642578-.988281-1.175781c-.705886.469121-1.529666.728614-2.376953.75l-.132813 1.529297-.996094-.085938.132813-1.529297c-.830701-.168189-1.597237-.567773-2.210938-1.152343l-1.175781.986328-.642578-.765625 1.179688-.990235c-.472143-.703939-.734824-1.527754-.759766-2.375l-1.523438-.132812.085938-.996094 1.529297.132813c.16819-.830701.567773-1.595283 1.152343-2.208985l-.986328-1.177734.765625-.642578.990235 1.18164c.703939-.472141 1.527755-.736776 2.375-.761718zm-.0625 3.521485c-1.266997.017667-2.340309.991764-2.453125 2.28125-.120336 1.375452.897985 2.588647 2.273438 2.708984 1.375452.120336 2.586694-.897985 2.707031-2.273438.120336-1.375451-.896032-2.586694-2.271484-2.707031-.085966-.007521-.171393-.010943-.25586-.009765zm.015625 1c.05068-.000707.100765.001346.152344.005859.825269.0722 1.435483.79973 1.363281 1.625-.0722.825269-.79973 1.435483-1.625 1.363281-.825269-.0722-1.435483-.79973-1.363281-1.625.067687-.77369.712459-1.35854 1.472656-1.36914zm-15.59375 1.591796-2.988281.261719.150391 1.728516c-.393607.149523-.767893.343006-1.117188.578125l-1.328125-1.113282-1.927734 2.298829 1.318359 1.105468c-.172178.387457-.299974.792411-.378906 1.208985l-1.716797.15039.261719 2.988282 1.728515-.150391c.149523.393608.343007.767896.578125 1.117187l-1.113281 1.328126 2.296875 1.927734 1.115235-1.326172c.384793.170936.787578.296099 1.201171.375l.150391 1.728516 2.988281-.261719-.15039-1.716797c.396541-.150067.775302-.345158 1.126953-.582031l1.318359 1.105469 1.927735-2.298829-1.326172-1.113281c.170935-.384792.296099-.787578.375-1.201172l1.728515-.15039-.261719-2.988282-1.716796.150391c-.150067-.396542-.345159-.775302-.582032-1.126953l1.105469-1.31836-2.298828-1.927734-1.105469 1.31836c-.387456-.172178-.794364-.299975-1.210937-.378907zm-.910156 1.083985.134766 1.535156c.847442.017 1.67253.272753 2.380859.738281l.982422-1.171875.767578.642578-.984375 1.171875c.581455.61673.976721 1.385183 1.140625 2.216797l1.537109-.134765.085938.996093-1.529297.134766c-.0206.847307-.279583 1.67063-.748047 2.376953l1.175781.988281-.642578.765625-1.171875-.984375c-.616729.581456-1.385181.978676-2.216797 1.142579l.134766 1.535156-.996094.085937-.134765-1.529297c-.847308-.0206-1.67063-.279583-2.376953-.748046l-.988282 1.175781-.765625-.642578.986328-1.175782c-.584004-.614248-.981019-1.382035-1.148437-2.21289l-1.53125.134765-.085938-.996093 1.535157-.134766c.017-.847442.272752-1.67253.738281-2.380859l-1.171875-.984375.642578-.765625 1.175781.986328c.614246-.584002 1.382037-.981019 2.212891-1.148438l-.134766-1.53125zm.046875 3.519531c-.72037-.005885-1.438281.297631-1.9375.892578-.8875 1.057683-.749089 2.635937.308594 3.523438 1.057683.8875 2.633983.749089 3.521484-.308594.8875-1.057683.751042-2.635937-.30664-3.523438-.462737-.388281-1.02565-.579407-1.585938-.583984zm-.007812 1c.336172.002746.67353.118594.951171.351562.63461.5325.716094 1.478673.183594 2.113282-.532499.634609-1.478673.716093-2.113281.183594-.634609-.5325-.716093-1.478673-.183594-2.113282.299531-.356968.729888-.538687 1.16211-.535156zm10.882812 1.5v1.720703c-.407491.117122-.800072.280976-1.169922.488281l-1.21875-1.21875-2.121094 2.121094 1.226563 1.226563c-.205409.367547-.367932.757476-.484375 1.162109h-1.732422v3h1.720703c.117122.407491.280976.800072.488281 1.169922l-1.21875 1.21875 2.121094 2.121094 1.226563-1.226563c.367547.205409.757476.367932 1.162109.484375v1.732422h3v-1.732422c.404633-.116443.794562-.278966 1.162109-.484375l1.226563 1.226563 2.121094-2.121094-1.21875-1.21875c.207305-.36985.371159-.762431.488281-1.169922h1.720703v-3h-1.732422c-.116443-.404633-.278966-.794562-.484375-1.162109l1.226563-1.226563-2.121094-2.121094-1.21875 1.21875c-.36985-.207305-.762431-.371159-1.169922-.488281v-1.720703zm1 1h1v1.529297c.841847.09869 1.638718.433145 2.298828.964844l1.089844-1.089844.707031.707031-1.085937 1.085938c.528858.662313.859928 1.460535.955078 2.302734h1.535156v1h-1.529297c-.09869.841847-.433145 1.638718-.964844 2.298828l1.089844 1.089844-.707031.707031-1.085938-1.085937c-.662313.528858-1.460535.859928-2.302734.955078v1.535156h-1v-1.535156c-.842199-.09515-1.640421-.42622-2.302734-.955078l-1.085938 1.085937-.707031-.707031 1.089844-1.089844c-.531699-.66011-.866154-1.456981-.964844-2.298828h-1.529297v-1h1.535156c.09515-.842199.42622-1.640421.955078-2.302734l-1.085937-1.085938.707031-.707031 1.089844 1.089844c.66011-.531699 1.456981-.866154 2.298828-.964844zm.5 3.5c-1.380707 0-2.5 1.119293-2.5 2.5s1.119293 2.5 2.5 2.5 2.5-1.119293 2.5-2.5-1.119293-2.5-2.5-2.5zm0 1c.828422 0 1.5.671578 1.5 1.5s-.671578 1.5-1.5 1.5-1.5-.671578-1.5-1.5.671578-1.5 1.5-1.5z" style="fill:currentColor;fill-opacity:0.6" class="ColorScheme-Text"/>
</svg>
