<?xml version="1.0" encoding="UTF-8"?>
<svg viewBox="0 0 96 96" xmlns="http://www.w3.org/2000/svg">

  <!-- style definitions -->
  <defs>
    <style type="text/css" id="current-color-scheme">.ColorScheme-Accent { color: #3daee9; } .ColorScheme-Text { color: #fcfcfc; } </style>
  </defs>

  <!-- folder bg -->
  <path style="fill:currentColor" class="ColorScheme-Accent" d="m6 9v21h-1v57h86v-63h-1v-9h-42l-6-6z"/>

  <!-- folder fg -->
  <path d="m6 9v21h27l6-6h51v-9h-42l-6-6z" fill-opacity=".33"/>

  <!-- folder highlight -->
  <path d="m42 9 5 7h43v-1h-42zm-3 15-6 6h-28v1h29z" fill="#fff" fill-opacity=".2"/>

  <!-- folder shadow -->
  <path d="m39 24-7 5h-26v1h27zm-34 62v1h86v-1z" fill-opacity=".2"/>

  <!-- godot logo -->
  <path d="m51.085938 40.271484c-.644511 1.268758-1.132944 2.565809-1.542969 3.802735a13 9 0 0 0 -1.542969-.074219 13 9 0 0 0 -1.539062.07813c-.408285-1.230248-.893856-2.520708-1.533204-3.783203a18 18 0 0 0 -4.849609 1.574219c.13496 1.294305.388841 2.532731.673828 3.695312a13 9 0 0 0 -3.179687 2.125c-.857207-.644312-1.778468-1.289501-2.78125-1.871094a18 18 0 0 0 -3.015625 4.433594c.724703.77977 1.482986 1.491421 2.224609 2.142578v9.189453l5.816406.503907.199219 2.636718 4.753906.251953.296875-2.076171h5.867188l.296875 2.076171 4.753906-.251953.199219-2.636718 5.816406-.503912v-9.1875c.745719-.654933 1.509729-1.371317 2.238281-2.15625a18 18 0 0 0 -3.001953-4.435546c-1.005704.58154-1.929272 1.227523-2.789062 1.873046a13 9 0 0 0 -3.19336-2.125c.285907-1.166332.539848-2.408799.673828-3.707031a18 18 0 0 0 -4.841796-1.574219zm-10.585938 12.728516a3.5 3.5 0 0 1 3.5 3.5 3.5 3.5 0 0 1 -3.5 3.5 3.5 3.5 0 0 1 -3.5-3.5 3.5 3.5 0 0 1 3.5-3.5zm15 0a3.5 3.5 0 0 1 3.5 3.5 3.5 3.5 0 0 1 -3.5 3.5 3.5 3.5 0 0 1 -3.5-3.5 3.5 3.5 0 0 1 3.5-3.5zm-14.5 1.5a2 2 0 0 0 -2 2 2 2 0 0 0 2 2 2 2 0 0 0 2-2 2 2 0 0 0 -2-2zm14 0a2 2 0 0 0 -2 2 2 2 0 0 0 2 2 2 2 0 0 0 2-2 2 2 0 0 0 -2-2zm-7 .5c.553993 0 1 .446007 1 1v3c0 .553993-.446007 1-1 1s-1-.446007-1-1v-3c0-.553993.446007-1 1-1zm-13.994141 7.589844c.057028 2.960422.918729 8.410156 13.994141 8.410156s13.937113-5.449734 13.994141-8.410156l-4.876953.421875-.201172 2.664062-6.546875.347657-.302735-2.123047h-4.132812l-.302735 2.123047-6.546875-.347657-.201172-2.664062z" style="fill:currentColor;fill-opacity:0.6" class="ColorScheme-Text"/>
    
</svg>
