<?xml version="1.0" encoding="UTF-8"?>
<svg viewBox="0 0 96 96" xmlns="http://www.w3.org/2000/svg">

  <!-- style definitions -->
  <defs>
    <style type="text/css" id="current-color-scheme">.ColorScheme-Accent { color: #3daee9; } .ColorScheme-Text { color: #fcfcfc; } </style>
  </defs>

  <!-- folder bg -->
  <path style="fill:currentColor" class="ColorScheme-Accent" d="m6 9v21h-1v57h86v-63h-1v-9h-42l-6-6z"/>

  <!-- folder fg -->
  <path d="m6 9v21h27l6-6h51v-9h-42l-6-6z" fill-opacity=".33"/>

  <!-- folder highlight -->
  <path d="m42 9 5 7h43v-1h-42zm-3 15-6 6h-28v1h29z" fill="#fff" fill-opacity=".2"/>

  <!-- folder shadow -->
  <path d="m39 24-7 5h-26v1h27zm-34 62v1h86v-1z" fill-opacity=".2"/>

  <!-- appimage logo -->
  <path d="m45 40v6h-3l6 7 6-7h-3v-6zm1 1h4v6h1.826172l-3.826172 4.462891-3.826172-4.462891h1.826172zm0 13v2.304688a7 7 0 0 0 -1.314453.552734l-1.634766-1.634766-2.828125 2.828125 1.636719 1.636719a7 7 0 0 0 -.546875 1.3125h-2.3125v4h2.304688a7 7 0 0 0 .552734 1.314453l-1.634766 1.634766 2.828125 2.828125 1.634766-1.634766a7 7 0 0 0 1.314453.552734v2.304688h4v-2.298828a7 7 0 0 0 1.324219-.548828l1.625 1.625 2.828125-2.828125-1.626953-1.628907a7 7 0 0 0 .542968-1.320312h2.306641v-4h-2.304688a7 7 0 0 0 -.552734-1.314453l1.634766-1.634766-2.828125-2.828125-1.634766 1.634766a7 7 0 0 0 -1.314453-.550781v-2.306641zm1 1h2v1.072266.669922.341796a6 6 0 0 1 2.470703 1.03125l.242188-.242187.466797-.466797.769531-.769531 1.414062 1.414062-.769531.769531-.460938.460938-.248046.248047a6 6 0 0 1 1.027343 2.470703h.339844.677735 1.070312v2h-1.078125-.664063-.349609a6 6 0 0 1 -1.021484 2.472656l.240234.240235.478516.478515.757812.757813-1.414062 1.414062-.757813-.757812-.472656-.472657-.25-.25a6 6 0 0 1 -2.46875 1.029297v.355469.66211 1.070312h-2v-1.070312-.66211-.355469a6 6 0 0 1 -2.466797-1.03125l-.257812.257813-.455079.455078-.769531.769531-1.414062-1.414062.769531-.769531.455078-.455079.257813-.257812a6 6 0 0 1 -1.029297-2.466797h-.357422-.66211-1.070312v-2h1.082031.650391.359375a6 6 0 0 1 1.021484-2.472656l-.251953-.251953-.455078-.455079-.769531-.769531 1.414062-1.414062.769531.769531.455079.455078.255859.25586a6 6 0 0 1 2.46875-1.029297v-.339844-.677735zm1 4a3.9999995 3.9999995 0 0 0 -4 4 3.9999995 3.9999995 0 0 0 4 4 3.9999995 3.9999995 0 0 0 4-4 3.9999995 3.9999995 0 0 0 -4-4zm0 1a3 3 0 0 1 3 3 3 3 0 0 1 -3 3 3 3 0 0 1 -3-3 3 3 0 0 1 3-3z" style="fill:currentColor;fill-opacity:0.6" class="ColorScheme-Text"/>

</svg>
