<?xml version="1.0" encoding="UTF-8"?>
<svg id="svg1" version="1.1" viewBox="0 0 32 32" xmlns="http://www.w3.org/2000/svg">
<!--
SPDX-FileCopyrightText: 2024 g10 Code GmbH
SPDX-Contributor: Carl Schwan <carlschwan@gnupg.com>
SPDX-License-Identifier: LGPL-2.1-or-later
-->
    <defs id="defs1">
        <style id="current-color-scheme" type="text/css">.ColorScheme-Text { color: #fcfcfc; } </style>
    </defs>
    <path id="path1" class="ColorScheme-Text" d="m23 16c-1.657 0-3 1.343-3 3v3h-2v6h10v-6h-2v-3c0-1.657-1.343-3-3-3zm-14 1v2h2v-2zm14 0c1.105 0 2 0.895 2 2v3h-4v-3c0-1.105 0.895-2 2-2zm-17 3v2h2v-2zm6 0v2h2v-2zm-3 3v2h2v-2zm-3 3v2h2v-2zm6 0v2h2v-2z" fill="currentColor"/>
    <path id="path1-6" class="ColorScheme-Text" d="m4 4v24h1v-14h5l3-3h14v5h1v-9h-10l-3-3z" fill="currentColor"/>
</svg>
