<?xml version="1.0" encoding="UTF-8" standalone="no"?>
<!-- Created with Inkscape (http://www.inkscape.org/) -->

<svg
   xmlns:dc="http://purl.org/dc/elements/1.1/"
   xmlns:cc="http://creativecommons.org/ns#"
   xmlns:rdf="http://www.w3.org/1999/02/22-rdf-syntax-ns#"
   xmlns:svg="http://www.w3.org/2000/svg"
   xmlns="http://www.w3.org/2000/svg"
   xmlns:sodipodi="http://sodipodi.sourceforge.net/DTD/sodipodi-0.dtd"
   xmlns:inkscape="http://www.inkscape.org/namespaces/inkscape"
   sodipodi:docname="hisc-apps-kajongg.svgz"
   version="1.0"
   inkscape:version="0.48.4 r9939"
   sodipodi:version="0.32"
   id="svg2020"
   height="256"
   width="256">
  <sodipodi:namedview
     id="base"
     pagecolor="#ffffff"
     bordercolor="#666666"
     borderopacity="1.0"
     inkscape:pageopacity="0.0"
     inkscape:pageshadow="2"
     inkscape:zoom="0.87988281"
     inkscape:cx="128"
     inkscape:cy="149.23689"
     inkscape:document-units="px"
     inkscape:current-layer="svg2020"
     inkscape:window-width="470"
     inkscape:window-height="479"
     inkscape:window-x="250"
     inkscape:window-y="70"
     showguides="true"
     inkscape:guide-bbox="true"
     width="768px"
     height="561px"
     showgrid="false"
     inkscape:window-maximized="0">
    <sodipodi:guide
       position="0,0"
       orientation="0,768"
       id="guide3879" />
    <sodipodi:guide
       position="768,0"
       orientation="-561,0"
       id="guide3881" />
    <sodipodi:guide
       position="768,561"
       orientation="0,-768"
       id="guide3883" />
    <sodipodi:guide
       position="0,561"
       orientation="561,0"
       id="guide3885" />
    <sodipodi:guide
       position="0,0"
       orientation="0,768"
       id="guide3887" />
    <sodipodi:guide
       position="768,0"
       orientation="-561,0"
       id="guide3889" />
    <sodipodi:guide
       position="768,561"
       orientation="0,-768"
       id="guide3891" />
    <sodipodi:guide
       position="0,561"
       orientation="561,0"
       id="guide3893" />
    <sodipodi:guide
       position="0,0"
       orientation="0,256"
       id="guide3895" />
    <sodipodi:guide
       position="256,0"
       orientation="-256,0"
       id="guide3897" />
    <sodipodi:guide
       position="256,256"
       orientation="0,-256"
       id="guide3899" />
    <sodipodi:guide
       position="0,256"
       orientation="256,0"
       id="guide3901" />
    <sodipodi:guide
       position="0,0"
       orientation="0,256"
       id="guide3098" />
    <sodipodi:guide
       position="256,0"
       orientation="-256,0"
       id="guide3100" />
    <sodipodi:guide
       position="256,256"
       orientation="0,-256"
       id="guide3102" />
    <sodipodi:guide
       position="0,256"
       orientation="256,0"
       id="guide3104" />
  </sodipodi:namedview>
  <defs
     id="defs2022" />
  <metadata
     id="metadata2025">
    <rdf:RDF>
      <cc:Work
         rdf:about="">
        <dc:format>image/svg+xml</dc:format>
        <dc:type
           rdf:resource="http://purl.org/dc/dcmitype/StillImage" />
      </cc:Work>
    </rdf:RDF>
  </metadata>
  <g
     inkscape:groupmode="layer"
     id="layer1"
     inkscape:label="front"
     style="display:inline"
     transform="matrix(14.004991,0,0,10.001571,-4702.9384,-2104.564)">
    <g
       transform="matrix(0.35300886,0,0,0.44559832,308.41946,-7.0789488)"
       style="display:inline"
       id="DRAGON_2"
       inkscape:label="#g1866">
      <g
         transform="translate(-35.36446,48.66417)"
         id="g4124">
        <path
           inkscape:connector-curvature="0"
           style="fill:#37a42c"
           d="m 145.15688,443.63165 c -0.1893,-0.33392 -0.78605,-0.71044 -0.20301,-0.96362 0.87996,-0.93796 2.36878,-0.62689 3.17859,0.23837 1.1167,0.99581 2.13038,2.67864 1.31367,4.15841 -0.67149,1.13227 -1.81419,1.86087 -2.73316,2.77858 -0.41287,0.37642 -0.82001,0.75963 -1.27109,1.09078 1.32864,0.96018 2.66836,1.90534 3.99,2.875 1.36949,-1.22375 2.72333,-2.46386 3.99003,-3.79501 0.21058,-1.02461 -2.07471,-1.8769 -0.33489,-2.44734 1.38611,-0.71465 2.77037,0.53876 3.46008,1.65896 0.73549,1.05792 1.0221,2.60483 0.079,3.63688 -1.04113,1.06077 -2.29331,1.89419 -3.42879,2.85317 -0.38116,0.23832 0.5345,0.39996 0.73914,0.58468 1.92145,0.95956 3.8528,1.8975 5.84608,2.70022 1.06339,0.47639 2.17468,0.8668 3.21193,1.38816 0.52212,0.42231 1.30686,0.74553 1.22355,1.55832 -0.1309,0.84594 -1.07119,0.96209 -1.76139,0.85472 -2.02447,-0.1 -4.06121,-0.14102 -6.07804,-0.27762 -1.17089,-0.48121 -2.38964,-0.86719 -3.53061,-1.40792 -3.02521,-1.95144 -6.24577,-3.69561 -8.76401,-6.31427 -0.72538,-0.69515 -1.45075,-1.3903 -2.17613,-2.08545 -1.56281,0.89642 -3.07738,1.97539 -4.8288,2.46075 -0.97319,-0.31089 0.63958,-1.62177 0.93971,-2.12521 0.56048,-0.80927 1.72497,-1.56205 2.03202,-2.33737 -0.49871,-0.64639 -1.15552,-1.19458 -1.54601,-1.90818 -0.32901,-0.82854 0.12022,-1.92088 1.09466,-1.58474 0.49731,0.0561 1.08209,-0.12545 1.4311,0.33359 0.42544,0.34039 0.85088,0.68077 1.27632,1.02115 0.7203,-0.74446 1.52254,-1.39764 2.31682,-2.05595 0.45876,-0.46293 0.90606,-0.93377 1.12842,-1.55999 0.2835,-0.4726 -0.3223,-1.00339 -0.59524,-1.32907 z"
           id="path4111" />
        <path
           inkscape:connector-curvature="0"
           style="fill:#37a42c"
           d="m 121.55888,446.10416 c 0.94768,0.0825 1.77633,0.98295 2.61698,1.47405 1.46198,1.04568 2.96019,2.04169 4.39403,3.12595 1.13324,-1.13273 2.33334,-2.20286 3.42021,-3.37903 0.66978,-0.90504 1.43545,-2.16829 0.85478,-3.29097 -0.56281,-0.43924 -1.02487,-1.03784 -1.65896,-1.36437 -0.64401,-0.27354 -1.28803,-0.54709 -1.93204,-0.82064 0.43422,-1.19598 1.93963,-1.52509 3.05306,-1.77171 1.58172,-0.19482 2.88657,0.80589 4.02113,1.75858 0.65107,0.56611 1.4212,1.01273 1.98258,1.66896 0.8078,0.986 0.52159,2.40414 -0.24893,3.31899 -1.88947,2.68704 -4.44685,4.81803 -7.21606,6.54961 -3.59128,2.21707 -7.29524,4.41308 -11.39778,5.53085 -1.74962,0.43418 -3.61197,0.53103 -5.38361,0.18732 -1.3035,-0.46858 0.18223,-1.8459 1.08355,-1.74396 1.9393,-0.47351 3.92052,-0.79386 5.81969,-1.41545 1.74744,-0.63206 3.35146,-1.61223 4.80937,-2.75568 -1.25567,-1.24439 -2.51421,-2.49931 -3.7738,-3.73031 -0.77026,-0.92456 -1.06456,-2.25432 -0.4442,-3.34219 z"
           id="path4109" />
        <path
           inkscape:connector-curvature="0"
           style="fill:#37a42c"
           d="m 131.76189,459.27167 c 0.51474,2.20031 0.30758,4.48079 0.32728,6.72034 -0.20103,1.74087 -0.20481,3.5121 -0.57399,5.22729 -0.30199,1.58504 -1.6308,2.7925 -3.22852,2.97541 -2.67939,0.5803 -5.42131,0.16679 -8.11881,0.005 -0.67617,-0.43494 -0.64958,0.33035 -0.78656,0.81629 -0.32799,1.37842 -0.53158,2.78156 -0.90041,4.15074 2.74888,0.2751 5.52731,0.64605 8.28452,0.37033 0.88689,-0.31152 1.69791,-0.75986 2.43148,-1.34784 0.92196,-0.11055 2.08417,-0.77327 2.78766,0.17071 1.01458,1.75935 0.33814,3.81972 0.21068,5.71347 -0.3497,2.82689 -0.40712,5.799 -1.88684,8.32911 -0.86841,1.99917 -3.09701,3.11288 -5.22134,2.99459 -1.09705,0.0236 -2.20015,0.11841 -3.2688,-0.1928 -1.48133,-0.18348 -2.88364,-0.76776 -4.02763,-1.73258 -1.14619,-0.6796 -1.91935,-1.91066 -2.15973,-3.20099 -0.18785,-0.7151 0.70219,-0.28402 1.04036,-0.10767 1.414,0.61081 2.78023,1.36396 4.24146,1.84621 1.17293,0.36347 2.45675,0.47313 3.59449,-0.0673 0.92179,-0.30903 1.97674,-0.58569 2.35981,-1.61124 0.62533,-1.41749 0.87524,-2.97304 1.13288,-4.49397 0.18388,-1.04648 0.17627,-2.09775 0.0651,-3.15161 -0.23898,-0.29145 -0.98374,-0.0437 -1.41906,-0.12589 -3.12066,0 -6.24133,0 -9.362,0 -0.85337,1.04866 -1.62726,2.17058 -2.53316,3.1708 -1.36228,0.6612 -0.68131,-1.95928 -0.64548,-2.67757 0.68788,-3.78902 1.30867,-7.60066 2.13839,-11.35714 0.33054,-1.06084 1.51364,-1.05958 2.41896,-0.9626 2.46734,0.0156 4.95114,0.3396 7.40441,-0.0331 1.02031,-0.0236 1.64221,-0.81011 1.74244,-1.75035 0.5197,-1.68824 0.85213,-3.43123 0.87157,-5.2008 0.21788,-1.48104 -1.4556,-1.82423 -2.58264,-1.87358 -1.48857,0.12199 -2.996,0.1033 -4.45933,0.40525 -1.79783,-0.30011 -0.0297,-2.99902 1.27871,-2.96102 2.36932,-0.60909 4.82809,-0.71112 7.25102,-0.97055 0.64549,-0.0211 1.39023,0.24625 1.59312,0.92316 z"
           id="path4107" />
        <path
           inkscape:connector-curvature="0"
           style="fill:#37a42c"
           d="m 137.91788,459.38666 c 0.87971,-0.46197 1.90827,-0.57741 2.88028,-0.75285 2.07526,-0.32469 4.16956,-0.002 6.1831,0.51294 0.98986,0.21401 2.20097,0.49544 2.61472,1.53568 0.17026,0.86853 -0.3695,1.65933 -0.58091,2.47813 -0.52704,1.72607 -1.27988,3.48053 -1.14774,5.32003 0.1827,1.66161 1.69981,2.96542 3.29414,3.22073 1.06381,0.075 1.84296,-0.75904 2.71832,-1.22767 0.3264,-0.1927 0.62466,-0.4967 1.03293,-0.36545 0.45306,0.0295 0.90612,0.059 1.35918,0.0885 0.9549,0.71262 0.63796,2.08631 0.34729,3.06721 -0.4834,1.65491 -2.27024,2.51304 -3.9,2.41954 -2.23235,-0.1416 -4.60229,-1.04206 -5.9156,-2.93822 -0.71625,-1.15042 -1.09213,-2.48332 -1.44365,-3.78119 -0.0488,-0.97471 0.21809,-1.94384 0.36394,-2.90694 0.12693,-0.79238 0.35419,-1.6264 0.117,-2.4154 -1.31842,-0.27312 -2.64099,-0.897 -4.00503,-0.51941 -0.88777,0.25694 -1.862,0.54384 -2.54106,1.17886 -0.70977,1.04122 -0.60179,2.35547 -0.86804,3.54158 -0.23658,1.26061 -0.3336,2.5529 -0.68789,3.78697 -0.38668,1.33387 -1.50637,2.47974 -2.92926,2.62255 -0.49152,0.17294 -1.95473,0.27455 -1.35316,-0.57441 0.36767,-0.91954 1.3396,-1.41155 1.77888,-2.29408 0.91457,-1.69783 0.84535,-3.69719 0.92224,-5.5693 0.1016,-1.70089 -0.43856,-3.50736 0.29702,-5.12233 0.27465,-0.64624 0.91628,-0.93896 1.4633,-1.30543 z"
           id="path4105" />
        <path
           inkscape:connector-curvature="0"
           style="fill:#37a42c"
           d="m 140.71088,479.22415 c -1.28145,-0.18035 -2.63525,-0.0775 -3.83971,-0.60599 -1.39223,-0.60161 -0.0535,-1.5621 0.87282,-1.49297 1.68611,-0.24944 3.3945,-0.35186 5.09221,-0.48366 3.60062,0.14202 7.20341,0.25412 10.80268,0.41486 1.27354,-0.009 1.89102,1.38123 1.42411,2.45858 -0.60071,1.78618 -1.59667,3.40468 -2.39663,5.10525 -0.29916,0.59714 -0.59832,1.19429 -0.89748,1.79143 2.39548,0.90996 4.89749,1.68009 7.0482,3.10681 1.00882,0.81494 0.46692,2.29582 0.16944,3.33859 -0.35223,0.9144 -0.73878,2.30456 -1.91439,2.33324 -0.83688,-0.25834 -1.51336,-0.87998 -2.2761,-1.30478 -1.99705,-1.26461 -3.9941,-2.52922 -5.99114,-3.79384 -0.66846,0.91562 -1.62371,1.56696 -2.42407,2.36102 -1.57319,1.37269 -3.58609,2.10621 -5.49894,2.87147 -1.73091,0.086 -3.46499,0.21619 -5.19392,0.27461 -0.93378,-0.23091 -1.93528,-0.27393 -2.79677,-0.72383 0.21929,-0.38684 0.75627,-0.49524 1.1747,-0.6322 2.16736,-0.76979 4.43253,-1.24484 6.57413,-2.08361 1.56735,-0.69387 3.00513,-1.67875 4.14765,-2.96001 0.79289,-0.4624 0.50538,-1.44582 -0.28985,-1.77761 -1.7318,-0.98205 -3.44698,-2.00081 -5.05408,-3.18247 -1.46671,-1.10328 -3.04335,-2.09039 -4.36439,-3.36877 -0.3602,-0.94338 1.49814,-0.12355 1.97259,-0.0565 3.61308,1.13932 7.10822,2.61519 10.61294,4.04539 0.64998,-1.0898 1.46272,-2.14232 1.767,-3.3925 0.12055,-0.7695 -0.56119,-1.15515 -1.21555,-1.17937 -1.3646,-0.29365 -2.73007,-0.58178 -4.12497,-0.68423 -1.12683,-0.1263 -2.25366,-0.2526 -3.38048,-0.37891 z"
           id="path4103" />
      </g>
    </g>
  </g>
</svg>
