<?xml version="1.0" encoding="UTF-8"?>
<svg id="svg6" version="1.1" viewBox="0 0 32 32" xmlns="http://www.w3.org/2000/svg">
    <defs id="defs3051">
    <style type="text/css" id="current-color-scheme">.ColorScheme-Text { color: #fcfcfc; } </style>
    </defs>
    <path id="path14232" d="m16 4a12 12 0 0 0-12 12 12 12 0 0 0 12 12 12 12 0 0 0 7.337891-2.541016l4.101562 4.101563a1.5 1.5 0 0 0 2.121094 0 1.5 1.5 0 0 0 0-2.121094l-4.101563-4.101562a12 12 0 0 0 2.541016-7.337891 12 12 0 0 0-12-12zm0 2a10 10 0 0 1 10 10 10 10 0 0 1-0.867188 4h-18.265624a10 10 0 0 1-0.8671875-4 10 10 0 0 1 10-10zm-6 8v4h12v-4h-12zm-2 7h1v1h1v-1h1v1h1v-1h1v1h1v-1h1v1h1v-1h1v1h1v-1h1v1h1v-1h1v1h1v-1h1v1h0.984375a10 10 0 0 1-7.984375 4 10 10 0 0 1-8-4.017578v-0.982422zm16 0h0.626953a10 10 0 0 1-0.626953 0.982422v-0.982422z" class="ColorScheme-Text" fill="currentColor" stroke-linecap="round" style="-inkscape-stroke:none;paint-order:markers stroke fill"/>
</svg>
