<?xml version="1.0" encoding="UTF-8"?>
<svg xmlns="http://www.w3.org/2000/svg" version="1.1" viewBox="0 0 24 24" width="24" height="24">
  <defs>
    <style id="current-color-scheme" type="text/css">.ColorScheme-PositiveText { color: #27ae60; } .ColorScheme-Text { color: #fcfcfc; } </style>
  </defs>
  <g transform="translate(1,1)">
    <path class="ColorScheme-PositiveText" d="m 3.935547,6 0.757812,0.480469 a 10.801709,8.36847 0 0 0 -1.710937,4.517578 10.801709,8.36847 0 0 0 1.71875,4.511719 L 3.931641,16 A 11.783681,9.1292385 0 0 1 2,10.998047 11.783681,9.1292385 0 0 1 3.935547,6 Z M 6.232422,7.460937 7,7.947266 a 7.8557841,6.0861592 0 0 0 -1.072266,3.054687 7.8557841,6.0861592 0 0 0 1.070313,3.056641 L 6.230469,14.544922 A 8.8377559,6.8469285 0 0 1 4.945312,11.001953 8.8377559,6.8469285 0 0 1 6.232422,7.460937 Z" fill="currentColor"/>
    <path class="ColorScheme-Text" d="m14.5 3c1.385 0 2.5 1.115 2.5 2.5v6c0 1.385-1.115 2.5-2.5 2.5s-2.5-1.115-2.5-2.5v-6c0-1.385 1.115-2.5 2.5-2.5zm5.5 7v1c-9.16e-4 2.235554-1.634112 4.198898-4 4.808594v2.191406h2v1h-7v-1h2v-2.193359c-2.365122-0.609499-3.998124-2.571811-4-4.806641v-1h1v1c0 2.209139 2.014719 4 4.5 4s4.5-1.790861 4.5-4v-1z" fill="currentColor"/>
  </g>
</svg>
