<?xml version="1.0" encoding="UTF-8"?>
<svg xmlns="http://www.w3.org/2000/svg" version="1.1" viewBox="0 0 24 24" width="24" height="24">
  <style id="current-color-scheme" type="text/css">.ColorScheme-NegativeText { color: #da4453; } .ColorScheme-Text { color: #fcfcfc; } </style>
  <style type="text/css">.ColorScheme-Text {
            color:#232629;
        }</style>
  <g transform="translate(1,1)">
    <path class="ColorScheme-NegativeText" d="m3.5 2.792969-0.707031 0.707031 0.353515 0.353516 15 15 0.353516 0.353515 0.707031-0.707031-0.353515-0.353516-15-15z" fill="currentColor"/>
    <g class="ColorScheme-Text" transform="matrix(-1,0,0,1,22,0)" fill="currentColor">
      <path d="m8 3c1.656854 0 3 1.343146 3 3v3l-4.5625 4.5625c-0.862474-0.526941-1.4375-1.477811-1.4375-2.5625v-5c0-1.656854 1.343146-3 3-3zm-4 6v2c0 1.359973 0.6796301 2.560496 1.7167969 3.283203l-0.7167969 0.716797c-1.2142275-0.912335-2-2.364325-2-4v-2zm9 2c0 2.419003-1.717696 4.43717-4 4.900391v2.099609h2v1h-6l1-1h1v-1l2.1757812-2.175781c1.2634388-0.388032 2.2604058-1.384999 2.6484378-2.648438z"/>
      <g opacity=".35">
        <path d="m14.279297 3.828125 0.445312 0.2246094c0.266561 0.1345617 0.524626 0.2849229 0.773438 0.4492187l-0.724609 0.7246094c-0.162106-0.1000887-0.328125-0.1935186-0.498047-0.2792969l-0.447266-0.2265625zm3.259765 2.6328125c0.107731 0.1497374 0.209863 0.3036725 0.306641 0.4609375 0.751092 1.220524 1.154297 2.64501 1.154297 4.078125s-0.403205 2.857601-1.154297 4.078125-1.841746 2.223316-3.121094 2.869141l-0.445312 0.224609-0.451172-0.892578 0.447266-0.226563c1.111155-0.560919 2.066402-1.437982 2.71875-2.498046 0.652348-1.060066 1.005859-2.30998 1.005859-3.554688s-0.353511-2.4946215-1.005859-3.5546875c-0.055495-0.0901792-0.11404-0.1781765-0.173829-0.265625z"/>
        <path d="m15.386719 8.6132812c0.400405 0.7284719 0.613281 1.5541128 0.613281 2.3867188 0 0.924034-0.262216 1.839468-0.751953 2.623047s-1.198705 1.421258-2.029297 1.826172l-0.4375-0.898438c0.659004-0.321264 1.230576-0.835328 1.619141-1.457031 0.388564-0.621703 0.599609-1.360608 0.599609-2.09375 0-0.562575-0.124034-1.128776-0.357422-1.6425781z"/>
      </g>
    </g>
  </g>
</svg>
