<?xml version="1.0" encoding="UTF-8"?>
<svg xmlns="http://www.w3.org/2000/svg" version="1.1" viewBox="0 0 24 24" width="24" height="24">
  <style id="current-color-scheme" type="text/css">.ColorScheme-Text { color: #fcfcfc; } </style>
  <g transform="translate(1,1)">
    <g class="ColorScheme-Text" transform="matrix(-1,0,0,1,22,0)" fill="currentColor">
      <path d="m3 9v2c0 2.419003 1.7176959 4.43717 4 4.900391v2.099609h-2v1h6v-1h-2v-2.099609c2.282304-0.463221 4-2.481388 4-4.900391v-2h-1v2c0 2.209139-1.790861 4-4 4s-4-1.790861-4-4v-2zm5-6c-1.656854 0-3 1.343146-3 3v5c0 1.656854 1.343146 3 3 3s3-1.343146 3-3v-5c0-1.656854-1.343146-3-3-3z"/>
      <path d="m14.279297 3.828125-0.451172 0.892578 0.447266 0.226563c1.111155 0.560919 2.066402 1.437981 2.71875 2.498046 0.652348 1.060066 1.005859 2.30998 1.005859 3.554688s-0.353511 2.494622-1.005859 3.554688c-0.652348 1.060065-1.607595 1.937127-2.71875 2.498046l-0.447266 0.226563 0.451172 0.892578 0.445312-0.224609c1.279348-0.645825 2.370002-1.648617 3.121094-2.869141s1.154297-2.64501 1.154297-4.078125-0.403205-2.857601-1.154297-4.078125-1.841746-2.223316-3.121094-2.869141z"/>
      <path d="m13.21875 6.550781-0.4375 0.898438c0.659004 0.321264 1.230576 0.835327 1.619141 1.457031 0.388564 0.621704 0.599609 1.360608 0.599609 2.09375s-0.211045 1.472047-0.599609 2.09375c-0.388565 0.621703-0.960137 1.135767-1.619141 1.457031l0.4375 0.898438c0.830592-0.404914 1.53956-1.042593 2.029297-1.826172s0.751953-1.699013 0.751953-2.623047-0.262216-1.839468-0.751953-2.623047-1.198705-1.421258-2.029297-1.826172z"/>
    </g>
  </g>
</svg>
