<?xml version="1.0" encoding="UTF-8"?>
<svg width="48" height="48" version="1.1" viewBox="0 0 12.7 12.7" xmlns="http://www.w3.org/2000/svg" xmlns:cc="http://creativecommons.org/ns#" xmlns:dc="http://purl.org/dc/elements/1.1/" xmlns:rdf="http://www.w3.org/1999/02/22-rdf-syntax-ns#" xmlns:xlink="http://www.w3.org/1999/xlink">
 <defs>
  <linearGradient id="linearGradient3038" x1="24.999916" x2="24.999916" y1="2.9999993" y2="42.605309" gradientTransform="matrix(.26458217 0 0 .26458332 5.1009547e-5 3.6666667e-7)" gradientUnits="userSpaceOnUse">
   <stop stop-color="#f39c1f" offset="0"/>
   <stop stop-color="#f67400" offset="1"/>
  </linearGradient>
  <linearGradient id="linearGradient1006" x1="4.8405175" x2="9.4169273" y1="5.9970527" y2="10.573462" gradientUnits="userSpaceOnUse">
   <stop offset="0"/>
   <stop stop-color="#05221c" stop-opacity="0" offset="1"/>
  </linearGradient>
  <linearGradient id="linearGradient1078" x1="19.17029" x2="19.17029" y1="43" y2="1.8314241" gradientTransform="translate(.00269953)" gradientUnits="userSpaceOnUse">
   <stop stop-color="#16a085" offset="0"/>
   <stop stop-color="#1cdc9a" offset="1"/>
  </linearGradient>
  <linearGradient id="linearGradient1087" x1="19.17029" x2="40.893143" y1="43" y2="-13.594682" gradientUnits="userSpaceOnUse">
   <stop stop-color="#1abc9c" offset="0"/>
   <stop stop-color="#eff0f1" offset="1"/>
  </linearGradient>
  <radialGradient id="radialGradient886" cx="19.472553" cy="10.657272" r=".981445" gradientTransform="matrix(.7278512 0 0 .72857555 -9.2763561 -5.0198627)" gradientUnits="userSpaceOnUse">
   <stop stop-color="#16a085" offset="0"/>
   <stop stop-color="#16a085" stop-opacity="0" offset="1"/>
  </radialGradient>
 </defs>
 <metadata>
  <rdf:RDF>
   <cc:Work rdf:about="">
    <dc:format>image/svg+xml</dc:format>
    <dc:type rdf:resource="http://purl.org/dc/dcmitype/StillImage"/>
    <dc:title/>
   </cc:Work>
  </rdf:RDF>
 </metadata>
 <g stroke-width=".26458275">
  <rect x="1.0583797" y="1.0583336" width="10.583287" height="10.583333" rx="1.5874931" ry="1.5875" fill="#d35400" style="paint-order:stroke fill markers"/>
  <rect x="1.0583797" y="1.0583335" width="10.583287" height="10.318749" rx="1.5874931" ry="1.5875" fill="url(#linearGradient3038)" style="paint-order:stroke fill markers"/>
  <g>
   <path transform="scale(.26458333)" d="m4 37v1c0 3.324 2.6760145 6 6 6h4.671875l1-1h-5.671875c-3.3239855 0-6-2.676-6-6z" fill="#11806b" style="paint-order:fill markers stroke"/>
   <path d="m5.8668253 2.523877-3.4401001 7.2522704-1.0629842 0.9487796c0.2882151 0.395112 0.7534407 0.652156 1.2820923 0.652156h7.4083337c0.879471 0 1.5875-0.708025 1.5875-1.5874998v-1.4908651z" fill="url(#linearGradient1006)" opacity=".1" style="paint-order:fill markers stroke"/>
   <path transform="scale(.26458333)" d="m21.289062 22.203125c3.40507 2.338841 6.06826 5.563175 7.748047 9.287109l3.341797-0.894531c-2.680602-3.846881-6.536115-6.817999-11.089844-8.392578z" fill="#fff" style="paint-order:fill markers stroke"/>
   <path transform="scale(.26458333)" d="m21.117188 13.482422-1.00586 3.751953c5.058196 0.184616 9.917407 2.05105 13.777344 5.349609-3.060191-4.52426-7.620535-7.714903-12.771484-9.101562z" fill="#fff" style="paint-order:fill markers stroke"/>
   <path d="m8.1501209 8.9098886-0.2067403 0.1193977c-0.3935631-1.2800701-1.2033185-2.3941164-2.3106497-3.1547096 1.4216154 0.544469 2.3005459 2.4482161 2.51739 3.0353119z" fill="#eff0f1" style="paint-order:fill markers stroke"/>
   <path transform="scale(.26458333)" d="m18.322266 8.5410156c-0.766591-0.046782-1.48262 0.4468367-1.689454 1.21875l-0.3125 1.1660154c-0.139637 0.521149-0.01012 1.04621 0.296876 1.439453l-0.0059 0.0039c0.296774 0.390008 0.42043 0.903867 0.285156 1.416015-5.06e-4 0.0019 5.14e-4 0.0039 0 0.0059l-0.0625 0.230468-0.01758 0.06445-1.123047 4.191406-0.0332 0.123047-0.259765 0.96875c-0.901322 2.029605-1.985012 2.839243-3.898399 2.63083-2.4852805 0-4.4999999 2.014719-4.4999999 4.5 1.093e-4 0.41137 0.056624 0.820782 0.1679688 1.216797 0.2713701 1.254787-0.036926 2.601532-0.9511719 3.617187l-2.2167969 2.216797v3.449219c0 0.404678 0.041521 0.799829 0.1171875 1.181641 0.049353 0.249033 0.1163393 0.489828 0.1953125 0.726562 0.019351 0.05805 0.041437 0.114615 0.0625 0.171875 0.071562 0.194419 0.1536625 0.384096 0.2441407 0.56836 0.017461 0.03553 0.032617 0.07223 0.050781 0.107421 0.1167647 0.226318 0.245091 0.444107 0.3886719 0.652344 0.00372 0.0053 0.00798 0.01033 0.011719 0.01563 0.1335988 0.192416 0.2808527 0.373832 0.4355469 0.548828 0.036094 0.04082 0.072184 0.0813 0.109375 0.121094 0.1544315 0.165392 0.316086 0.323717 0.4882813 0.470703 0.013002 0.01096 0.025965 0.02224 0.039062 0.0332 0.1930356 0.161953 0.396622 0.310375 0.609375 0.447266 0.026381 0.01701 0.053421 0.03212 0.080078 0.04883 0.1843427 0.114557 0.375167 0.218125 0.5722656 0.3125 0.043204 0.02079 0.085132 0.04281 0.1289062 0.0625 0.229818 0.10337 0.4666455 0.195339 0.7109376 0.269531 0.5553832 0.168702 1.1438953 0.261715 1.7558597 0.261715h5.671875l0.855469-0.855469c4.289186-4.289185 14.981231-6.378103 22.730469-9.519531 1.46688-0.393049 2.330548-1.890543 1.9375-3.357422-0.08599-0.320882-0.19641-0.506817-0.333985-0.605469l0.07617-0.359375-2.642578 0.708985h-0.0059l-22.984375 6.158203 0.335937-1.251953 1.017578-3.796875 3.388672-12.642578 1.609375-6.007813 0.517578-1.9316405-1.93164-0.5175781c-0.0066-0.00176-0.01297-0.00221-0.01953-0.00391l-1.572265-0.421875-0.07227-0.019531-2e-3 0.00781c-0.08548-0.019023-0.17094-0.037787-0.255859-0.042969z" fill="url(#linearGradient1078)" style="paint-order:fill markers stroke"/>
  </g>
  <g>
   <circle cx="3.0427084" cy="7.0114589" r=".92604166" fill="#fff" style="paint-order:fill markers stroke"/>
   <ellipse cx="3.3072915" cy="6.7468753" rx=".39687476" ry=".39687458" fill="#2c3e50" style="paint-order:fill markers stroke"/>
  </g>
  <g>
   <path transform="scale(.26458333)" d="m21.207031 9.2792969-8.867187 27.632812h2e-3c-0.08714 0.325455-0.0041 0.672905 0.220703 0.923829 0.251303 0.279945 0.638709 0.394732 1.001953 0.296874v0.0039l27.630812-8.869134-0.257812-0.964844-25.632812 6.867188 6.86914-25.63086z" fill="url(#linearGradient1087)" style="paint-order:fill markers stroke"/>
   <path d="m4.0493653 9.305374 4.5882784-4.5882787" fill="#fff" opacity=".878" style="paint-order:fill markers stroke"/>
   <path d="m5.8668253 2.5238769-1.1581887 6.1222256 6.1227434-1.1576709-6.7820147 1.8169435z" fill="#d35400" style="paint-order:fill markers stroke"/>
   <path transform="scale(.26458333)" d="m31.949219 30.001953-3.326172 0.628906c0.143094 0.284323 0.284914 0.56871 0.416015 0.859375l3.339844-0.894531c-0.139761-0.200568-0.283597-0.398031-0.429687-0.59375z" fill="#bdc3c7" style="paint-order:fill markers stroke"/>
   <path transform="scale(.26458333)" d="m20.344982 16.362823-0.233654 0.871552c5.058196 0.184616 9.917407 2.05105 13.777344 5.349609-3.37836-4.657346-11.188234-6.003824-13.54369-6.221161z" fill="#eff0f1" style="paint-order:fill markers stroke"/>
   <path transform="scale(.26458333)" d="m21.117188 13.482422-1.00586 3.751953c0.200661 0.0073 0.401585 0.01272 0.601563 0.02539l0.699218-3.697265c-0.09787-0.02778-0.196617-0.05361-0.294921-0.08008z" fill="#bdc3c7" style="paint-order:fill markers stroke"/>
   <path d="m4.7818788 2.3859013a0.27904934 0.26458349 0 0 0-0.2790526 0.2645832 0.27904934 0.26458349 0 0 0 0.2077392 0.2552817 0.27904934 0.26458349 0 0 1-0.0387575-0.1333252 0.27904934 0.26458349 0 0 1 0.2790529-0.2645833 0.27904934 0.26458349 0 0 1 0.071313 0.0093 0.27904934 0.26458349 0 0 0-0.2402954-0.131258z" fill="url(#radialGradient886)" style="paint-order:fill markers stroke"/>
  </g>
 </g>
</svg>
