<svg viewBox="0 0 48 48" xmlns="http://www.w3.org/2000/svg" xmlns:xlink="http://www.w3.org/1999/xlink">
    <linearGradient id="a" gradientTransform="matrix(-.96631454 -.25892304 .25892304 -.96631454 40.97786 53.40176)" gradientUnits="userSpaceOnUse" x1="394.57169" x2="422.57166" y1="525.79797" y2="553.79797">
        <stop offset="0" stop-color="#d6d9dc"/>
        <stop offset="1" stop-color="#a1a9b1"/>
    </linearGradient>
    <linearGradient id="b" gradientUnits="userSpaceOnUse" x1="25" x2="38" y1="15.303711" y2="28.303711">
        <stop offset="0" stop-color="#3daee9"/>
        <stop offset="1" stop-color="#2980b9"/>
    </linearGradient>
    <circle cx="24.000011" cy="23.999973" fill="#232629" fill-rule="evenodd" r="14"/>
    <path d="m17 10v1h5v-1zm-1 .222656a16 16 0 0 0 -1.257812.777344h1.257812zm-2.478516 1.777344a16 16 0 0 0 -.521484.427734v.572266h4v-1zm-1.914062 2a16 16 0 0 0 -.81836 1h8.210938v-1zm8.392578 0v1h2v-1zm-9.777344 2a16 16 0 0 0 -.535156 1h4.3125v-1zm4.777344 0v1h8v-1zm-5.8183594 2a16 16 0 0 0 -.1816406.597656v.402344h8v-1zm-.6074218 2a16 16 0 0 0 -.2792969 1h3.7050781v-1zm4.4257812 0v1h5v-1zm-5 4a16 16 0 0 0 .097656 1h7.902344v-1zm9 0v1h2v-1zm-8 2v1h5v-1zm6 0v1h10v-1zm-6.4257812 2a16 16 0 0 0 .3027343 1h4.1230469v-1zm5.4257812 0v1h5v-1zm6 0v1h2v-1zm4 1v4h1v-4zm3 0v4h3v-4zm5 0v4h1v-4zm3 0v4h2.210938a16 16 0 0 0 .789062-1.416016v-2.583984zm-7 1h1v2h-1zm8 0h1v2h-1zm-25.777344 2a16 16 0 0 0 .566406 1h7.210938v-1zm8.777344 0v1h2v-1zm-7 2v.478516a16 16 0 0 0 .427734.521484h3.572266v-1zm5 0v1h5v-1zm7 0v4h3v-4zm5 0v4h1v-4zm3 0v3.777344a16 16 0 0 0 1.257812-.777344h-.257812v-2h1v1.392578a16 16 0 0 0 1-.820312v-1.572266zm-7 1h1v2h-1zm-11.478516 1a16 16 0 0 0 1.220704 1h3.257812v-1z" fill="#eff0f1" opacity=".394"/>
    <path d="m24.85353 23.14646-.35352.35351-.35351.35352 10.50082 10.50085.70703-.70703z" fill="#ed1515" stroke-miterlimit="0"/>
    <path d="m24.00001 9.99997h1v13.5h-1z" fill="#fcfcfc" fill-rule="evenodd"/>
    <path d="m25 10v13.292969l10.314453 10.314453a15 15 0 0 0 2.685547-4.462891v-10.298828a15 15 0 0 0 -8.896484-8.845703z" fill="url(#b)" fill-rule="evenodd"/>
    <path d="m21.95117 43.89174a20.007962 20.007962 0 0 0 4.09869.006l.47519-3.10124a17.006768 17.006768 0 0 0 3.68881-.98586l1.95678 2.44197a20.007962 20.007962 0 0 0 3.55038-2.0546l-1.13545-2.91216a17.006768 17.006768 0 0 0 2.7109-2.69624l2.89415 1.12745a20.007962 20.007962 0 0 0 2.0509-3.55479l-2.42297-1.94177a17.006768 17.006768 0 0 0 .60884-1.81923 17.006768 17.006768 0 0 0 .36951-1.8773l3.09523-.47519a20.007962 20.007962 0 0 0 .006-4.09869l-3.10123-.47518a17.006768 17.006768 0 0 0 -.98587-3.68882l2.44197-1.95678a20.007962 20.007962 0 0 0 -2.0546-3.55038l-2.91215 1.13545a17.006768 17.006768 0 0 0 -2.69596-2.71069l1.12757-2.89397a20.007962 20.007962 0 0 0 -3.55494-2.05091l-1.94024 2.42306a17.006768 17.006768 0 0 0 -1.8208-.60898 17.006768 17.006768 0 0 0 -1.8773-.36952l-.47356-3.09512a20.007962 20.007962 0 0 0 -4.09869-.006l-.47713 3.10114a17.006768 17.006768 0 0 0 -3.68851.98614l-1.95674-2.44172a20.007962 20.007962 0 0 0 -3.55038 2.0546l1.13545 2.91216a17.006768 17.006768 0 0 0 -2.7109 2.69624l-2.89436-1.1284a20.007962 20.007962 0 0 0 -2.0509 3.55478l2.42296 1.94177a17.006768 17.006768 0 0 0 -.60883 1.81924 17.006768 17.006768 0 0 0 -.36951 1.87729l-3.09523.47519a20.007962 20.007962 0 0 0 -.006 4.09869l3.10123.47519a17.006768 17.006768 0 0 0 .98587 3.68881l-2.44197 1.95678a20.007962 20.007962 0 0 0 2.0546 3.55038l2.91216-1.13545a17.006768 17.006768 0 0 0 2.69624 2.7109l-1.12745 2.89415a20.007962 20.007962 0 0 0 3.55478 2.0509l1.94178-2.42296a17.006768 17.006768 0 0 0 1.81923.60883 17.006768 17.006768 0 0 0 1.8773.36951zm-1.57598-6.36333a14.005573 14.005573 0 0 1 -9.90343-17.15326 14.005573 14.005573 0 0 1 17.15325-9.90343 14.005573 14.005573 0 0 1 9.90344 17.15325 14.005573 14.005573 0 0 1 -17.15326 9.90344" fill="url(#a)" stroke-linejoin="round" stroke-width="3"/>
    <path d="m12.58984 7.60156c-.10413.0661-.20765.13316-.31054.20117l1.13572 2.91184c.0954-.087.19173-.17297.28906-.25781zm22.81641.008-1.10502 2.83455c.0973.0855.1937.17208.28906.25977l1.12846-2.89314c-.10354-.068-.20771-.13509-.3125-.20118zm-10.88281 1.39454c-6.52939-.24371-12.35976 4.05977-14.05078 10.37109-.3096 1.23175-.45021 2.49988-.41797 3.76953.0464-.93482.18645-1.86264.41797-2.76953 2.00248-7.4706 9.68147-11.90382 17.15234-9.90234 5.95112 1.59815 10.15859 6.89813 10.36523 13.05664.24717-6.52985-4.05404-12.36286-10.36523-14.05664-1.01304-.2719-2.05342-.42914-3.10156-.46875zm17.36719 6.11718-2.33936 1.87398c.093.26152.17964.52527.25976.79102l2.44288-1.95601c-.11638-.23872-.2375-.47509-.36328-.70899zm-35.76954.008c-.12513.23391-.24559.47029-.36132.70899l2.42205 1.94108c.0814-.26513.16936-.52823.26367-.78906zm37.87305 8.33789c-.0129.52848-.0468 1.05624-.10156 1.58204l-3.0957.47461c-.0877.63208-.21098 1.25872-.36915 1.87695-.16869.61776-.63562 2.01437-.87285 2.60918l.26367.21094c.1262-.33998.50497-1.47277.60918-1.82012.15817-.61823.28141-1.24487.36915-1.87695l3.0957-.47461c.0895-.85759.12338-1.72007.10156-2.58204zm-39.96875.0469c-.0282.84582-.003 1.69257.0762 2.53516l3.10157.47656c.15678.98494.65957 2.74568.98622 3.688l.25977-.20897c-.46612-1.18826-1.05664-3.21672-1.24599-4.47901l-3.10157-.47656c-.045-.51056-.0705-1.02265-.0762-1.53516zm37.85352 8.35743c-.48298.99352-1.04741 1.94534-1.6875 2.8457l-2.89453-1.12695c-.79948.99746-1.9983 2.16012-3.00037 2.95381l.28906.74219c.88751-.72865 1.98837-1.80382 2.71131-2.696l2.89453 1.12695c.80362-1.11147 1.49083-2.30263 2.05078-3.55469zm-35.76758.008-.36328.29101c.56142 1.25087 1.24994 2.44072 2.05468 3.55078l2.91211-1.13476c.71731.89617 1.81279 1.97628 2.69554 2.71004l.28906-.74023c-.99746-.79948-2.1909-1.96774-2.9846-2.96981l-2.91211 1.13479c-.64125-.89897-1.20699-1.84948-1.6914-2.84179zm24.10156 6.93164c-1.18826.46611-2.42521.79697-3.6875.98633l-.47461 3.10156c-1.36313.13842-2.73688.13646-4.09961-.006l-.47461-3.0957c-.63208-.0877-1.25872-.21098-1.87695-.36914-.61776-.1687-1.2255-.37215-1.82031-.60938l-1.94141 2.42188c-1.13668-.51399-2.22279-1.13322-3.24414-1.84955l-.31055.79883c1.11148.80363 2.30264 1.49084 3.55469 2.05078l1.94141-2.42187c.59481.23723 1.20255.44068 1.82031.60937.61823.15817 1.24487.28141 1.87695.36914l.47461 3.09571c1.36273.14232 2.73648.14428 4.09961.006l.47461-3.10156c1.26229-.18936 2.49924-.52022 3.6875-.98633l1.95703 2.4414c1.25087-.56142 2.44072-1.24994 3.55078-2.05468l-.31054-.79883c-1.01996.71746-2.10476 1.338-3.24024 1.85351z" opacity=".208" stroke-linejoin="round" stroke-width="3"/>
    <g fill-rule="evenodd">
        <circle cx="24.50001" cy="23.49997" fill="#fcfcfc" r="1.5"/>
        <circle cx="24.50001" cy="23.49997" fill="#232629" r=".5"/>
    </g>
</svg>
