<?xml version="1.0" encoding="UTF-8"?>
<svg xmlns="http://www.w3.org/2000/svg" xmlns:xlink="http://www.w3.org/1999/xlink" xmlns:cc="http://creativecommons.org/ns#" xmlns:dc="http://purl.org/dc/elements/1.1/" xmlns:rdf="http://www.w3.org/1999/02/22-rdf-syntax-ns#" xmlns:inkscape="http://www.inkscape.org/namespaces/inkscape" xmlns:sodipodi="http://sodipodi.sourceforge.net/DTD/sodipodi-0.dtd" width="128" height="128">
    <style type="text/css" id="current-color-scheme">.ColorScheme-Accent { color: #3DAEE6; } .ColorScheme-Background { color: #2a2e32; } .ColorScheme-ButtonText { color: #7B7C7E; } .ColorScheme-Text { color: #fcfcfc; } </style>
    <g style="fill:none" id="osd-rotate-flip">
      <rect id="rect4274" height="128" width="128" x="0" y="0" style="fill:none"/>
      <path style="color:#7b7c7e;fill:currentColor;fill-opacity:1;stroke:none" d="m -121,-44 c -1.65686,0 -3,1.3431 -3,3 l 0,66 c 0,1.6569 1.34314,3 3,3 l 49,0 0,13 -13,0 c -0.5523,0 -1,0.448 -1,1 l 0,1 c 0,0.552 0.4477,1 1,1 l 42,0 c 0.5523,0 1,-0.448 1,-1 l 0,-1 c 0,-0.552 -0.4477,-1 -1,-1 l -13,0 0,-13 49,0 c 1.657,0 3,-1.3431 3,-3 l 0,-66 c 0,-1.6569 -1.343,-3 -3,-3 l -114,0 z m 0,1 114,0 c 1.105,0 2,0.8954 2,2 l 0,66 c 0,1.1046 -0.895,2 -2,2 l -114,0 c -1.10458,0 -2,-0.8954 -2,-2 l 0,-66 c 0,-1.1046 0.89542,-2 2,-2 z m 0,2 0,64 114,0 0,-64 -114,0 z m 1,1 112,0 0,62 -112,0 0,-62 z m 49,68 14,0 0,13 -14,0 0,-13 z m -14,14 42,0 0,1 -42,0 0,-1 z" transform="translate(128,64)" id="path4278" inkscape:connector-curvature="0" class="ColorScheme-Text"/>
      <path id="path4284" d="m 64.5,30 -6.9231,12 1.7308,0 4.1827,-6 0,34 L 58.7308,63 57,63 64.5,76 72,63 l -1.7308,0 -4.7596,7 0,-34 4.1827,6 1.7308,0 L 64.5,30 Z" inkscape:connector-curvature="0" style="fill:currentColor;fill-opacity:1;stroke:none" class="ColorScheme-Accent"/>
    </g>
</svg>
