<?xml version="1.0" encoding="UTF-8"?>
<svg width="128" height="128" version="1.1" id="svg7" sodipodi:docname="osd-duplicate.svg" inkscape:version="1.2.2 (b0a8486541, 2022-12-01)" xmlns:inkscape="http://www.inkscape.org/namespaces/inkscape" xmlns:sodipodi="http://sodipodi.sourceforge.net/DTD/sodipodi-0.dtd" xmlns="http://www.w3.org/2000/svg" xmlns:svg="http://www.w3.org/2000/svg">
  <defs id="defs11"/>
  <namedview id="namedview9" pagecolor="#ffffff" bordercolor="#000000" borderopacity="0.25" inkscape:showpageshadow="2" inkscape:pageopacity="0.0" inkscape:pagecheckerboard="0" inkscape:deskcolor="#d1d1d1" showgrid="false" inkscape:zoom="6.0390625" inkscape:cx="55.141009" inkscape:cy="63.917206" inkscape:window-width="1920" inkscape:window-height="1011" inkscape:window-x="0" inkscape:window-y="0" inkscape:window-maximized="1" inkscape:current-layer="svg7"/>
  <style type="text/css" id="current-color-scheme">.ColorScheme-Accent { color: #3DAEE6; } .ColorScheme-Background { color: #2a2e32; } .ColorScheme-ButtonText { color: #7B7C7E; } .ColorScheme-Text { color: #fcfcfc; } </style>
  <g id="osd-duplicate" inkscape:label="#128-128osd-duplicate" transform="translate(272,106)">
    <rect style="fill:none" y="-106" x="-272" width="128" height="128" id="rect4302"/>
    <path class="ColorScheme-Text" inkscape:connector-curvature="0" id="path4306" d="m -221,-85 v 33 h 1 v -32 h 68 v 41 h -41 v 1 h 2 v 8 h -2 v 1 h 20 v -1 h -8 v -8 h 30 v -42.998047 l -70,-0.002 z m 2,2 v 31 h 1 v -30 h 64 v 36 h -39 v 1 h 40 v -38 z m -46,33 v 43 h 30 v 8 h -8 v 1 h 26 V 1 h -8 v -8 h 30 v -42.998047 l -70,-0.002 z m 1,1 h 68 v 41 h -68 z m 1,1 v 38 h 66 v -38 z m 1,1 h 64 v 36 h -64 z m 72,5 h 8 v 8 h -8 z m -44,35 h 8 v 8 h -8 z" style="color:#7b7c7e;fill:currentColor;fill-opacity:1;stroke:none"/>
    <path class="ColorScheme-Accent" inkscape:connector-curvature="0" id="path4316" d="m -202,-76 v 24 h 32 v -24 z m 21,2 c 0.5523,0 1,0.4477 1,1 0,0.5522 -0.4477,1 -1,1 -0.5523,0 -1,-0.4478 -1,-1 0,-0.5523 0.4477,-1 1,-1 z m 4,0 c 0.5523,0 1,0.4477 1,1 0,0.5522 -0.4477,1 -1,1 -0.5523,0 -1,-0.4478 -1,-1 0,-0.5523 0.4477,-1 1,-1 z m 4,0 c 0.5523,0 1,0.4477 1,1 0,0.5522 -0.4477,1 -1,1 -0.5523,0 -1,-0.4478 -1,-1 0,-0.5523 0.4477,-1 1,-1 z m -28,4 h 30 v 1 h -30 z m 0,2 h 4 v 15 h -4 z m 5,0 h 25 v 15 h -25 z m -50,27 v 24 h 32 v -24 z m 21,2 c 0.5523,0 1,0.4477 1,1 0,0.5522 -0.4477,1 -1,1 -0.5523,0 -1,-0.4478 -1,-1 0,-0.5523 0.4477,-1 1,-1 z m 4,0 c 0.5523,0 1,0.4477 1,1 0,0.5522 -0.4477,1 -1,1 -0.5523,0 -1,-0.4478 -1,-1 0,-0.5523 0.4477,-1 1,-1 z m 4,0 c 0.5523,0 1,0.4477 1,1 0,0.5522 -0.4477,1 -1,1 -0.5523,0 -1,-0.4478 -1,-1 0,-0.5523 0.4477,-1 1,-1 z m -28,4 h 30 v 1 h -30 z m 0,2 h 4 v 15 h -4 z m 5,0 h 25 v 15 h -25 z" style="fill:currentColor;fill-opacity:1;fill-rule:evenodd;stroke:none"/>
  </g>
</svg>
