<?xml version="1.0" encoding="UTF-8"?>
<svg xmlns="http://www.w3.org/2000/svg" fill="none" viewBox="0 0 24 24" width="24" height="24">
  <defs>
    <style type="text/css" id="current-color-scheme">.ColorScheme-Text { color: #fcfcfc; } </style>
  </defs>
  <g transform="translate(1,1)">
    <path d="M10.078 3c-.17 0-.31.137-.31.307L9.224 5.76c-.231.078-.458.17-.677.276L6.432 4.69c-.144-.091-.314-.12-.435 0L4.69 5.997a.307.307 0 0 0 0 .435l1.35 2.12a5.52 5.52 0 0 0-.28.672l-2.453.544c-.17 0-.307.14-.307.31v1.844c0 .17.14.273.307.31l2.453.544c.076.228.166.45.271.667L4.68 15.568c-.092.143-.12.314 0 .435l1.304 1.307c.12.12.317.12.438 0l2.125-1.354c.22.11.445.204.677.284l.544 2.453c0 .17.14.307.31.307h1.844c.17 0 .273-.14.31-.307l.544-2.453a5.54 5.54 0 0 0 .677-.276l2.115 1.346c.12.12.314.12.435 0l1.307-1.307c.12-.12.091-.292 0-.435l-1.35-2.12c.109-.218.201-.442.28-.672l2.453-.544c.166-.037.307-.14.307-.31v-1.844c0-.17-.137-.31-.307-.31l-2.453-.544a5.534 5.534 0 0 0-.282-.685L17.3 6.432a.307.307 0 0 0 0-.435L15.995 4.69c-.12-.12-.291-.091-.435 0l-2.117 1.346a5.536 5.536 0 0 0-.667-.276l-.544-2.453c-.037-.166-.14-.307-.31-.307zM11 8.333a2.666 2.666 0 1 1 0 5.333 2.666 2.666 0 0 1 0-5.333" style="fill:currentColor" class="ColorScheme-Text"/>
  </g>
</svg>
