<?xml version="1.0" encoding="UTF-8"?>
<svg xmlns="http://www.w3.org/2000/svg" xmlns:xlink="http://www.w3.org/1999/xlink" xmlns:cc="http://creativecommons.org/ns#" xmlns:dc="http://purl.org/dc/elements/1.1/" xmlns:rdf="http://www.w3.org/1999/02/22-rdf-syntax-ns#" xmlns:inkscape="http://www.inkscape.org/namespaces/inkscape" xmlns:sodipodi="http://sodipodi.sourceforge.net/DTD/sodipodi-0.dtd" width="32" height="32">
    <style type="text/css" id="current-color-scheme">.ColorScheme-Text { color: #fcfcfc; } </style>
    <g id="system-user-list" transform="translate(108) translate(-130,0)">
        <path id="path110" class="ColorScheme-Text" d="m45 9c-.58947 0-1.13295.174573-1.59375.46875.04318.464252.0075.922667-.008 1.335882.377107-.505852.970803-.804092 1.60175-.804632 1.104569 0 2 .895431 2 2s-.895431 2-2 2c-1.040548-.000556-1.906833-.798896-1.99219-1.835938-.184344.419479-.464656.770321-.6956 1.09959-.001.0013-.003.0026-.004.0039.476 1.019727 1.48876 1.732448 2.69179 1.732448 1.66119 0 2.99805-1.338 2.99805-3s-1.33686-3-2.99805-3zm-6.99999 9c4.43203 0 7.99999 3.56798 7.99999 8h-16c0-4.43202 3.56798-8 8.00001-8zm.00001-1c-4.98557 0-9.00002 3.716633-9.00002 8.333333v1.666667h18v-1.666667c0-4.6167-4.01443-8.333333-8.99998-8.333333zm6.97654-1c-1.26188.000488-2.39619.47884-3.27539 1.240234.380034.156147.766084.335754 1.142399.50783.005.0025.009.0052.0137.0078.615311-.44993 1.333211-.755864 2.117341-.755864 2.22686.00005 4.02344 2.337992 4.02344 4h-2.72852c.196162.339095.301576.64811.449 1h3.28147v-1c0-2.769366-2.2402-4.998947-5.02148-5zm-6.97656-10.0000005c2.20915 0 4 1.7908576 4 4.0000005 0 2.209141-1.79085 4-4 4s-4-1.790859-4-4c0-2.2091429 1.79085-4.0000005 4-4.0000005zm0-1c-2.76144 0-5 2.2385703-5 5.0000005 0 2.76143 2.23856 5 5 5 2.350785 0 4.322665-1.622301 4.857137-3.808418.093361-.381871.142863-.780945.142863-1.191582 0-2.7614302-2.23858-5.0000005-5-5.0000005zm-6.97656 11.0000005c1.26188.000488 2.39619.47884 3.27539 1.240234-.404465.162919-.805479.355411-1.156104.515606-.615306-.449906-1.333206-.75584-2.117336-.75584-2.22686.00005-4.02344 2.337992-4.02344 4h2.72852c-.186972.33326-.318326.689701-.449 1h-3.28147v-1c0-2.769366 2.2402-4.998947 5.02148-5zm-.02539-7c.58947 0 1.13295.174573 1.59375.46875-.04841.460072-.0093.927542.008 1.33588-.377107-.50585-.970803-.80409-1.60175-.80463-1.104569 0-2 .895431-2 2s.895431 2 2 2c1.040548-.000556 1.906833-.798896 1.99219-1.835938.188312.402683.471649.770111.6956 1.09959.001.0013.003.0026.004.0039-.476 1.019727-1.48876 1.732448-2.69179 1.732448-1.66119 0-2.99805-1.338-2.99805-3s1.33686-2.999999 2.99805-3z" fill="currentColor"/>
        <path id="path84-3" d="m22 0v32h32v-32z" fill="none"/>
    </g>
</svg>
