<svg viewBox="0 0 32 32" xmlns="http://www.w3.org/2000/svg" xmlns:xlink="http://www.w3.org/1999/xlink">
    <linearGradient id="a" gradientUnits="userSpaceOnUse" x1="12.707031" x2="16" y1="5" y2="29.707031">
        <stop offset="0" stop-color="#3ab59e"/>
        <stop offset=".25" stop-color="#33b097"/>
        <stop offset=".5" stop-color="#16ab8e"/>
        <stop offset="1" stop-color="#16a68a"/>
    </linearGradient>
    <linearGradient id="b" gradientUnits="userSpaceOnUse" x1="12.707031" x2="16" y1="5" y2="29.707031">
        <stop offset="0" stop-color="#3ab59e"/>
        <stop offset="1" stop-color="#16947b"/>
    </linearGradient>
    <linearGradient id="c" gradientUnits="userSpaceOnUse" x1="12.195313" x2="22.876953" y1="1.728516" y2="24.25">
        <stop offset="0" stop-color="#5bcfb9"/>
        <stop offset="1" stop-color="#17a387"/>
    </linearGradient>
    <linearGradient id="d" gradientUnits="userSpaceOnUse" x1="12.195313" x2="22.876953" y1="1.728516" y2="24.25">
        <stop offset="0" stop-color="#45c9af"/>
        <stop offset=".25" stop-color="#38c2a4"/>
        <stop offset=".5" stop-color="#1abf9f"/>
        <stop offset="1" stop-color="#1abc9c"/>
    </linearGradient>
    <linearGradient id="e" gradientUnits="userSpaceOnUse" x1="5.086914" x2="17" y1="15.379883" y2="27.292969">
        <stop offset="0" stop-color="#16947b"/>
        <stop offset="1" stop-color="#169c81"/>
    </linearGradient>
    <linearGradient id="f" gradientUnits="userSpaceOnUse" x1="12.592263" x2="24.107422" y1="7.649718" y2="19.164877">
        <stop offset="0" stop-color="#17a387"/>
        <stop offset="1" stop-color="#17967d"/>
    </linearGradient>
    <linearGradient id="g" gradientUnits="userSpaceOnUse" x1="8.792969" x2="21.207031" y1="11.792969" y2="24.207031">
        <stop offset="0" stop-color="#138770"/>
        <stop offset="1" stop-color="#137a65"/>
    </linearGradient>
    <path d="m2.5 5.5v10l13.5 13.5 9.1289062-9.1289062.59179688-1.1503906-13.220703-13.220703zm5 2.5a2.5000005 2.5 0 0 1 2.5 2.5 2.5000005 2.5 0 0 1 -2.5 2.5 2.5000005 2.5 0 0 1 -2.5-2.5 2.5000005 2.5 0 0 1 2.5-2.5z" fill="url(#a)"/>
    <path d="m2 5v10.707031l14 14 8.3808594-8.3808594 1.5800781-3.0722656-13.253906-13.253906zm1 1h9.2929688l13 13-9.2929688 9.2929688-13-13z" fill="url(#b)"/>
    <path d="m5.2714844 15.195312 11.913086 11.913086 4.1083984-4.1083984-14.292969-8v-1h-1v1z" fill="url(#e)"/>
    <path d="m14.5 11.792969-5.7070312 5.7070312.70703125.70703125 5.7070312-5.7070312zm3 3-5.7070312 5.7070312.70703125.70703125 5.7070312-5.7070312zm3 3-5.7070312 5.7070312.70703125.70703125 5.7070312-5.7070312z" fill="url(#g)" stroke-linecap="square" stroke-miterlimit="0"/>
    <path d="m12.150391 2.2695312-9.5214844 3.0546875 3.0546875 9.5214844 16.978516 8.7304688 6.4667969-12.576172zm-3.2324219 3.7871094a2.5 2.5 0 0 1 2.5 2.5 2.5 2.5 0 0 1 -2.5 2.5 2.5 2.5 0 0 1 -2.5-2.5 2.5 2.5 0 0 1 2.5-2.5z" fill="url(#d)"/>
    <path d="m12.195312 1.7285156-10.195312 3.2714844 3.2714844 10.195312 17.605469 9.0546875.22851562-.4453125 6.6972656-13.021484zm-.08984375 1.0800781 16.351562 8.4082031-6.0117188 11.6875-16.349609-8.4082031-2.8378906-8.8496094z" fill="url(#c)"/>
    <path d="m8.91796875 6.05664063c-.69035594 0-1.31712023.28001085-1.76953125.73242187-.22620551.22620551-.40864937.49582601-.53515625.79492188-.06325344.14954793-.11122901.30600602-.14453125.46875-.00832556.04068599-.01711479.08166702-.0234375.12304687-.00553237.03620737-.00971052.07267399-.01367187.109375a2.50000048 2.5 0 0 1 1.06835937-.28515625 2.50000048 2.5 0 0 1 2.5 2.5 2.50000048 2.5 0 0 1 -.09570312.35546875c.03274382-.01407991.06565236-.02950083.09765625-.04492187.03643133-.01755442.07199855-.0354444.10742187-.0546875.07084664-.03848621.1385777-.0800732.20507813-.125.13300086-.08985362.25799099-.19353788.37109375-.30664063.45241101-.45241102.73242187-1.07722219.73242187-1.76757812 0-.69035594-.28001086-1.31516711-.73242187-1.76757813-.45241102-.45241102-1.07722219-.73242187-1.76757813-.73242187z" fill="#15947a" fill-rule="evenodd"/>
    <path d="m15.977604 7.6497181-3.6908239 7.1776201.88921919.45724786 3.6908239-7.1776201zm3.7730405 1.9401456-3.6908239 7.1776201.88921919.45724786 3.6908239-7.1776201zm3.7730405 1.9401456-3.6908239 7.1776201.88921919.45724786 3.6908239-7.1776201z" fill="url(#f)" stroke-linecap="square" stroke-miterlimit="0"/>
</svg>
