<svg version="1.1" viewBox="0 0 64 64" xmlns="http://www.w3.org/2000/svg" xmlns:xlink="http://www.w3.org/1999/xlink">
    <defs>
        <linearGradient id="a" x2="0" y1="392.36" y2="336.36" gradientTransform="translate(-48-332.36)" gradientUnits="userSpaceOnUse">
            <stop stop-color="#a3215f" offset="0"/>
            <stop stop-color="#e10971" offset="1"/>
        </linearGradient>
        <linearGradient id="b" x1="40" x2="54" y1="17" y2="31" gradientUnits="userSpaceOnUse">
            <stop stop-color="#060606" offset="0"/>
            <stop stop-opacity=".764" offset="1"/>
        </linearGradient>
        <path id="c" d="m10 61v-58h30l14 14v44h-14z"/>
    </defs>
    <g color="#000000" color-rendering="auto" image-rendering="auto" shape-rendering="auto" text-rendering="auto">
        <g transform="scale(1-1)">
            <use transform="scale(1,-1)" fill="url(#a)" xlink:href="#c"/>
            <rect x="10" y="-4" width="30" height="1" fill="#fff" opacity=".5"/>
            <rect x="10" y="-61" width="44" height="1" opacity=".25"/>
        </g>
        <path d="m54 17-14-14v14z" fill="#fffcf9" opacity=".75"/>
    </g>
    <path d="m40 17 14 14v-14z" fill="url(#b)" fill-rule="evenodd" opacity=".2"/>
    <g transform="matrix(.10854 0 0 .10854 -.56112 -3.8333)">
        <path d="m299.85 271.79c-22.465 0.0417-43.473 6.6528-61.939 18.642-4.27 2.7723-9.068 4.7109-12.389 9.1648-14.494 16.007-19.75 28.02-20.038 43.458-3e-4 33.852 27.443 61.295 61.295 61.295 9.2002-4e-3 18.282-2.0763 26.571-6.0671l5e-3 6e-3 36.85-17.731c0.19944-0.098 0.39973-0.19423 0.60081-0.2888l0.43849-0.21082 0.0211 0.0401c4.9081-2.147 10.205-3.2628 15.562-3.2781 21.599-3e-5 39.11 17.51 39.109 39.109-0.0265 13.7-7.22 26.388-18.963 33.445-8.1116 6.694-38.764 9.3046-46.231-9.2756-4.9952-12.43 1.525-32.455 17.58-35.119 29.528-2.2052 22.196 35.24-1.3007 21.315-0.76936-0.0591 9.508 12.805 21.72 5.6244 22.096-12.992 4.3547-40.775-19.055-41.03-5.4023-0.0588-11.105 1.3497-16.692 4.7432-34.814 21.148-24.741 75.003 24.646 76.67-23.917 14.52-48.97 15.883-65.261 9.8132-39.613-14.761-38.728-40.269-24.285-49.203 11.873-7.3446 25.118 0.48106 25.47 18.768 21.906-41.636-45.944-45.691-48.223-4.347-0.52823 9.5807 0.66274 19.665 10.475 29.248-10.58-6.2195-39.438-26.436-39.08-51.576 0.0813-5.7138 0.63704-20.459 18.725-20.955-13.457-12.333-26.402 1.2101-27.867 19.763-5.6751-10.797-15.489-45.377 0-77.669-8.6388 11.548-14.988 29.193-15.701 48.027 1.5249 44.666 28.1 84.656 68.688 103.36l0.43428 0.18762c15.339 6.9646 31.989 10.571 48.836 10.579 65.31 0 118.25-52.944 118.25-118.25 0-65.31-52.944-118.25-118.25-118.25zm52.026 52.477c2.1326 0.1035 6.3572 0.77313 8.1457 1.9395 9.7342 4.587 15.258 12.629 19.395 22.563-3.5384-2.3225-7.6347-3.6559-11.863-3.86-4.1701-0.16504-8.3087 0.77337-12 2.7216l-0.0885-0.0653 2e-3 -0.019c-1.5152 0.56689-3.1312 0.82183-4.7475 0.75048-6.6355-0.31893-11.755-5.9562-11.437-12.592 0.31893-6.6355 5.9562-11.757 12.592-11.439z" fill="#fff" stroke-width="3.9233"/>
    </g>
</svg>
