<?xml version="1.0" encoding="UTF-8"?>
<svg xmlns="http://www.w3.org/2000/svg" xmlns:xlink="http://www.w3.org/1999/xlink" xmlns:cc="http://creativecommons.org/ns#" xmlns:dc="http://purl.org/dc/elements/1.1/" xmlns:rdf="http://www.w3.org/1999/02/22-rdf-syntax-ns#" xmlns:inkscape="http://www.inkscape.org/namespaces/inkscape" xmlns:sodipodi="http://sodipodi.sourceforge.net/DTD/sodipodi-0.dtd" width="32" height="32">
    <style type="text/css" id="current-color-scheme">.ColorScheme-Accent { color: #3daee9; } .ColorScheme-Background { color: #2a2e32; } .ColorScheme-ButtonText { color: #31363b; } .ColorScheme-NegativeText { color: #da4453; } .ColorScheme-Text { color: #fcfcfc; } </style>
    <g id="touchpad_disabled" inkscape:label="#touchpad_disabled" transform="translate(-22,0)">
      <path id="path28" class="ColorScheme-NegativeText" d="M 34,10.207 37.293,13.5 34,16.793 c 0.013,0.025 0.707,0.707 0.707,0.707 L 38,14.207 41.293,17.5 42,16.793 38.707,13.5 42,10.207 41.293,9.5 38,12.793 34.707,9.5 Z" style="fill:currentColor;fill-opacity:1;stroke:none"/>
    <path id="path24" class="ColorScheme-Text" d="M 27 4 C 26.446 4 26 4.446 26 5 L 26 27 C 26 27.554 26.446 28 27 28 L 49 28 C 49.554 28 50 27.554 50 27 L 50 5 C 50 4.446 49.554 4 49 4 L 27 4 z M 27 5 L 49 5 L 49 22 L 27 22 L 27 5 z M 27 23 L 37 23 L 37 27 L 27 27 L 27 23 z M 39 23 L 49 23 L 49 27 L 39 27 L 39 23 z " style="fill:currentColor;fill-opacity:0.6;stroke:none"/>
    <path id="path26" d="M 22 0 L 22 32 L 54 32 L 54 0 L 22 0 z " style="opacity:1;fill:none"/>
  </g>
</svg>
