<?xml version="1.0" encoding="UTF-8"?>
<svg xmlns="http://www.w3.org/2000/svg" version="1.1" viewBox="0 0 24 24" width="24" height="24">
  <defs>
    <style id="current-color-scheme" type="text/css">.ColorScheme-Text { color: #fcfcfc; } </style>
  </defs>
  <g transform="translate(1,1)">
    <path class="ColorScheme-Text" d="m11 3a8 8 0 0 0-8 8h1a7 7 0 0 1 7-7 7 7 0 0 1 7 7 7 7 0 0 1-0.035156 0.556641c0.3362 0.16631 0.649717 0.369034 0.9375 0.603515a8 8 0 0 0 0.097656-1.160156 8 8 0 0 0-8-8zm0 3-4 4h2v5h1.849609c0.275992-1.315125 1.064936-2.436132 2.150391-3.146484v-1.853516h2l-4-4zm-8 7v1 3h1v-2.195312a8 8 0 0 0 7 4.195312 8 8 0 0 0 0.673828-0.046875c-0.213512-0.29826-0.396576-0.62026-0.541016-0.962891a7 7 0 0 1-0.132812 0.009766 7 7 0 0 1-6.3105469-4h2.3105469v-1h-2.6972656-1.0332032-0.2695312z" style="paint-order:markers fill stroke"/>
    <g transform="translate(-10.843816,-3.717558)">
      <path d="m26.843816 15.717558c-2.216 0-4 1.784-4 4s1.784 4 4 4 4-1.784 4-4-1.784-4-4-4z" color="#3daee9" fill="currentColor"/>
      <path d="m26.793035 16.721464a3 3 0 0 0-1.683594 0.554688l0.71875 0.71875a2 2 0 0 1 2.429687 0.308594 2 2 0 0 1 0.306641 2.427734l0.724609 0.724609a3 3 0 0 0-0.324218-3.859375 3 3 0 0 0-2.171875-0.875zm-2.394531 1.257813a3 3 0 0 0 0.324218 3.859375 3 3 0 0 0 3.855469 0.320312l-0.71875-0.71875a2 2 0 0 1-2.429687-0.308594 2 2 0 0 1-0.306641-2.427734z" fill="#fff"/>
    </g>
  </g>
</svg>
