<?xml version="1.0" encoding="UTF-8"?>
<svg xmlns="http://www.w3.org/2000/svg" xmlns:xlink="http://www.w3.org/1999/xlink" width="48" height="48">
 <style id="current-color-scheme" type="text/css">.ColorScheme-Text { color: #fcfcfc; } </style>
 <g id="weather-showers-night-symbolic" class="ColorScheme-Text" fill="currentColor" stroke-linejoin="bevel">
  <path id="cloud" d="m36.95 16.08a 9 9 0 0 0 -8.95-8.08 a 9 9 0 0 0 -8.36 12.31 a 5 5 0 1 0 -1.63 9.69h18a 7 7 0 0 0 0.95 -13.92 z" fill="none" stroke="currentColor" stroke-width="2"/>
  <path d="m21 33-3 3 3 3 3-3-3-3z"/>
  <path d="m31 39-3 3 3 3 3-3-3-3z"/>
  <path d="m32.59 35a2 2 0 0 0 0 2.8284 2 2 0 0 0 2.8284 0 2 2 0 0 0 0-2.8284l-1.4142-1.4142-1.4142 1.4142z"/>
  <path d="m15.59 41a2 2 0 0 0 0 2.8284 2 2 0 0 0 2.8284 0 2 2 0 0 0 0-2.8284l-1.4142-1.4142-1.4142 1.4142z"/>
  <path id="moon" d="m14 21.5a14 14 0 0 1 2-17 12 12 0 0 0-2.5 23" fill="none" stroke="currentColor" stroke-width="2"/>
 </g>
</svg>
