<?xml version="1.0" encoding="UTF-8"?>
<svg xmlns="http://www.w3.org/2000/svg" xmlns:xlink="http://www.w3.org/1999/xlink" width="48" height="48">
 <style id="current-color-scheme" type="text/css">.ColorScheme-Text { color: #fcfcfc; } </style>
 <g id="weather-showers-scattered-day-symbolic" class="ColorScheme-Text" stroke-linejoin="bevel">
  <path id="snowflake1" d="m18 32.5 0.86052 1.5h1.7376l-0.90486 1.5 0.90486 1.5h-1.7284l-0.86965 1.4937-0.84804-1.5h-1.75l0.90485-1.5-0.90485-1.5h1.7333z" fill="currentColor"/>
  <use id="use6" transform="translate(20)" href="#snowflake1"/>
  <use id="use8" transform="translate(-8,5.5)" href="#snowflake1"/>
  <use id="use9" transform="translate(12,5.5)" href="#snowflake1"/>
  <path id="lightning" d="m25.415 22  -3.4145 9 3.2442 0l-5.2442 13l0.3171 0l 9.6829-15h-3.841l3.841-7z" fill="currentColor"/>
  <path d="m4 20h5" fill="none" stroke="currentColor" stroke-width="2" id="path8"/>
  <use transform="rotate( 36,20,20)" href="#path8"/>
  <use transform="rotate( 72,20,20)" href="#path8"/>
  <use transform="rotate(108,20,20)" href="#path8"/>
  <use transform="rotate(-36,20,20)" href="#path8"/>
  <path id="cloud" d="m31 30 h 5 a 7 7 0 0 0 0.95 -13.92 a 9 9 0 0 0 -8.95-8.08 a 9 9 0 0 0 -8.36 12.31 a 5 5 0 1 0 -1.63 9.69h2 " fill="none" stroke="currentColor" stroke-width="2"/>
  <path id="path5" class="ColorScheme-Text" d="m12.9 25.6 a9 9 0 0 1 7.3 -14.6" stroke-linecap="round" stroke="currentColor" stroke-width="2" fill="none"/>
 </g>
</svg>
