<?xml version="1.0" encoding="UTF-8"?>
<svg xmlns="http://www.w3.org/2000/svg" xmlns:xlink="http://www.w3.org/1999/xlink" width="48" height="48">
 <style id="current-color-scheme" type="text/css">.ColorScheme-Text { color: #fcfcfc; } </style>
 <g id="weather-clouds-wind-night-symbolic" class="ColorScheme-Text" stroke-linejoin="bevel">
  <path d="m14.6 29 a14 14 0 0 1 4.4 -20 a15 15 0 0 0 -9.1 24.7 " fill="none" stroke="currentColor" stroke-width="2"/>
  <path class="ColorScheme-Text" id="cloud" d="m34 39 h 2 a 7 7 0 0 0 0.95 -13.92 h -3 a 9 9 0 0 0 -8.95-8.08 a 9 9 0 0 0 -8.36 12.31 a 5 5 0 1 0 -1.63 9.69h1 " fill="none" stroke="currentColor" stroke-width="2"/>
  <path id="wind1" class="ColorScheme-Text" d="m18 32 h11 a3 3 0 1 0 -3 -3" stroke="currentColor" stroke-width="2" fill="none"/>
  <path id="wind2" class="ColorScheme-Text" d="m15 35 h22 a3 3 0 1 0 -3 -3" stroke="currentColor" stroke-width="2" fill="none"/>
  <path id="wind3" class="ColorScheme-Text" d="m17 38 h12 a3 3 0 1 1 -3 3" stroke="currentColor" stroke-width="2" fill="none"/>
 </g>
</svg>
