<?xml version="1.0" encoding="UTF-8"?>
<svg xmlns="http://www.w3.org/2000/svg" xmlns:xlink="http://www.w3.org/1999/xlink" width="48" height="48">
 <style id="current-color-scheme" type="text/css">.ColorScheme-Text { color: #fcfcfc; } </style>
 <g id="weather-storm-symbolic" class="ColorScheme-Text" fill="currentColor" stroke-linejoin="bevel">
  <path d="m20 11s2.5-3 6-3h7.5c1.5 0 5.5 2 5.5 6 5.8099 0.82999 6.4532 7.1711 2.7875 9.8749-0.75085 0.55383-1.3098 0.71247-2.4149 0.88248" stroke-width="2" class="ColorScheme-Text" fill="none" stroke="currentColor"/>
  <path d="m28 16v-0.57812c0-2.493-2.007-4.5-4.5-4.5h-6c-2.493 0-4.5 2.007-4.5 4.5v0.5h-2c-3.878 0-7 3.122-7 7s3.122 7 7 7h2.5" stroke-width="2" class="ColorScheme-Text" fill="none" stroke="currentColor"/>
  <path id="cloud" d="m26.281 9c-5.5 0 -10 4.5-10 10 0 0.67593 0 1.3498 0.21463 2h-0.21463c-3.3137 0-6 2.6857-6 6 0 3 2.1722 5.7078 5.2371 6h4.344l4.1726-11h9.344l-3.8399 7h 4.158 l-2.615 4 h 3.2137 c4.418-0.04657 7.9096-3.3519 7.9854-7.9536 0-3.7055-2.4854-6.9696-6.1454-7.822-0.85988-4.7586-5-8.2199-9.84-8.2204z" fill="currentColor" stroke="none"/>
  <path id="lightning" d="m25.415 24  -3.4145 9 3.2442 0l-5.2442 13l0.3171 0l 9.6829-15h-3.841l3.841-7z" fill="currentColor"/>
  <path id="rainwss" d="m9 42 5-7" stroke="currentColor" stroke-width="2"/>
  <use transform="translate(6)" href="#rainwss"/>
  <use transform="translate(20)" href="#rainwss"/>
  <use transform="translate(26)" href="#rainwss"/>
 </g>
</svg>
