<?xml version="1.0" encoding="UTF-8"?>
<svg xmlns="http://www.w3.org/2000/svg" xmlns:xlink="http://www.w3.org/1999/xlink" width="48" height="48">
 <style id="current-color-scheme" type="text/css">.ColorScheme-Text { color: #fcfcfc; } </style>
 <g id="weather-showers-scattered-night-symbolic" class="ColorScheme-Text" stroke-linejoin="bevel">
  <path id="cloud" d="m37 16c-0-4.5-4.3-8-9-8-7.6175 0-10.588 6.6-8.3574 12.279-3.0422-1.0619-6.6426 1.0945-6.6426 4.7207 0 2.7614 2.2386 5 5 5h18c3.866 0 7-3.134 7-7 0-3.5-2.5858-6.4601-7-7z" fill="none" stroke="currentColor" stroke-width="2"/>
  <path id="rainwsd" d="m16 42 5-7" stroke="currentColor" stroke-width="2"/>
  <use transform="translate(16)" href="#rainwsd"/>
  <path d="m14 21.5a14 14 0 0 1 2-17 12 12 0 0 0-2.5 23" fill="none" stroke="currentColor" stroke-width="2"/>
 </g>
</svg>
