<?xml version="1.0" encoding="UTF-8"?>
<svg xmlns="http://www.w3.org/2000/svg" xmlns:xlink="http://www.w3.org/1999/xlink" width="48" height="48">
  <style id="current-color-scheme" type="text/css">.ColorScheme-Text { color: #fcfcfc; } </style>
 <g id="weather-none-available-symbolic" class="ColorScheme-Text">
  <rect width="40" height="40" x="4" y="4" ry="20" rx="20" fill="none" stroke-width="2" stroke="currentColor"/>
  <path d="m 24 12 c -1.94444,0 -3.76,0.68188 -5.03906,1.96094 -1.27906,1.27906 -1.96094,3.09462 -1.96094,5.03906 l 4,0 c 0,-1.05555 0.31813,-1.74 0.78906,-2.21094 0.47094,-0.47094 1.15539,-0.78906 2.21094,-0.78906 1.05556,0 1.74,0.31812 2.21094,0.78906 0.47094,0.47094 0.78906,1.15539 0.78906,2.21094 0,0.91667 -0.1807,1.30664 -0.42187,1.65234 -0.24118,0.34569 -0.63627,0.67215 -1.22461,1.08399 -0.58835,0.41184 -1.36988,0.88627 -2.0918,1.72851 -0.72192,0.84224 -1.26172,2.1185 -1.26172,3.53516 l 0,1 4,0 0,-1 c 0,-0.58333 0.0832,-0.68208 0.29883,-0.93359 0.21558,-0.25151 0.68599,-0.58959 1.34765,-1.05274 0.66165,-0.46316 1.51657,-1.0742 2.2129,-2.07226 0.69632,-0.99806 1.14062,-2.35807 1.14062,-3.94141 0,-1.94444 -0.68187,-3.76 -1.96094,-5.03906 -1.27906,-1.27906 -3.09461,-1.96094 -5.03906,-1.96094 z m -2,20 0,4 4,0 0,-4 -4,0 z" fill="currentColor"/>
 </g>
</svg>
