<?xml version="1.0" encoding="UTF-8"?>
<svg xmlns="http://www.w3.org/2000/svg" xmlns:xlink="http://www.w3.org/1999/xlink" width="48" height="48">
 <style id="current-color-scheme" type="text/css">.ColorScheme-Text { color: #fcfcfc; } </style>
 <g id="weather-snow-storm-night-symbolic" class="ColorScheme-Text" fill="currentColor" stroke-linejoin="bevel">
  <path id="moon" d="m14 21.5a14 14 0 0 1 2-17 12 12 0 0 0-2.5 23" fill="none" stroke="currentColor" stroke-width="2"/>
  <path id="cloud" d="m26.281 9c-5.5 0 -10 4.5-10 10 0 0.67593 0 1.3498 0.21463 2h-0.21463c-3.3137 0-6 2.6857-6 6 0 3 2.1722 5.7078 5.2371 6h4.344l4.1726-11h9.344l-3.8399 7h 4.158 l-2.615 4 h 3.2137 c4.418-0.04657 7.9096-3.3519 7.9854-7.9536 0-3.7055-2.4854-6.9696-6.1454-7.822-0.85988-4.7586-5-8.2199-9.84-8.2204z" fill="currentColor" stroke="none"/>
  <path id="lightning" d="m25.415 24  -3.4145 9 3.2442 0l-5.2442 13l0.3171 0l 9.6829-15h-3.841l3.841-7z" fill="currentColor"/>
  <path id="snowflake1" d="m11 33.5 0.86052 1.5h1.7376l-0.90486 1.5 0.90486 1.5h-1.7284l-0.86965 1.4937-0.84804-1.5h-1.75l0.90485-1.5-0.90485-1.5h1.7333z"/>
  <use id="use5" transform="translate(8)" href="#snowflake1"/>
  <use id="use6" transform="translate(22)" href="#snowflake1"/>
  <use id="use7" transform="translate(30)" href="#snowflake1"/>
  <use id="use8" transform="translate(-4,5.5)" href="#snowflake1"/>
  <use id="use9" transform="translate(4,5.5)" href="#snowflake1"/>
  <use id="use10" transform="translate(18,5.5)" href="#snowflake1"/>
  <use id="use11" transform="translate(26,5.5)" href="#snowflake1"/>
 </g>
</svg>
