<?xml version="1.0" encoding="UTF-8"?>
<svg id="svg6" version="1.1" viewBox="0 0 32 32" xmlns="http://www.w3.org/2000/svg">
    <defs id="defs3051">
    <style type="text/css" id="current-color-scheme">.ColorScheme-Text { color: #fcfcfc; } </style>
    </defs>
    <path id="path14232" d="m16 4a12 12 0 0 0-12 12 12 12 0 0 0 12 12 12 12 0 0 0 7.337891-2.541016l4.101562 4.101563a1.5 1.5 0 0 0 2.121094 0 1.5 1.5 0 0 0 0-2.121094l-4.101563-4.101562a12 12 0 0 0 2.541016-7.337891 12 12 0 0 0-12-12zm0 2a10 10 0 0 1 10 10 10 10 0 0 1-10 10 10 10 0 0 1-10-10 10 10 0 0 1 10-10zm-2 4v4h-4v4h4v4h4v-4h4v-4h-4v-4h-4z" class="ColorScheme-Text" fill="currentColor" stroke-linecap="round" style="-inkscape-stroke:none;paint-order:markers stroke fill"/>
</svg>
