<?xml version="1.0" encoding="UTF-8"?>
<svg id="svg6" version="1.1" viewBox="0 0 32 32" xmlns="http://www.w3.org/2000/svg">
    <defs id="defs3051">
    <style type="text/css" id="current-color-scheme">.ColorScheme-Text { color: #fcfcfc; } </style>
    </defs>
    <path id="path299" d="m16 4a12 12 0 0 0-12 12 12 12 0 0 0 12 12 12 12 0 0 0 7.337891-2.541016l4.101562 4.101563a1.5 1.5 0 0 0 2.121094 0 1.5 1.5 0 0 0 0-2.121094l-4.101563-4.101562a12 12 0 0 0 2.541016-7.337891 12 12 0 0 0-12-12zm0 2a10 10 0 0 1 10 10 10 10 0 0 1-10 10 10 10 0 0 1-10-10 10 10 0 0 1 10-10zm-2.5 2.8027344-1.697266 1.6972656 0.84961 0.847656 4.652344 4.652344-4.652344 4.652344-0.84961 0.847656 1.697266 1.697266 0.847656-0.84961 6.34961-6.347656-6.34961-6.3476562-0.847656-0.8496094z" class="ColorScheme-Text" fill="currentColor" stroke-width="2" style="paint-order:markers stroke fill"/>
</svg>
