<svg height="48" width="48" xmlns="http://www.w3.org/2000/svg" xmlns:xlink="http://www.w3.org/1999/xlink">
    <linearGradient id="a" gradientTransform="matrix(0 -1 1 0 12 36)" gradientUnits="userSpaceOnUse" x1="32" x2="-8" y1="-6" y2="32">
        <stop offset="0" stop-color="#d8dcde"/>
        <stop offset="1" stop-color="#f9fafb"/>
    </linearGradient>
    <linearGradient id="b" gradientUnits="userSpaceOnUse" x1="8" x2="19" y1="8" y2="19">
        <stop offset="0"/>
        <stop offset="1" stop-opacity="0"/>
    </linearGradient>
    <linearGradient id="c" gradientTransform="matrix(0 1 1 0 0 0)" gradientUnits="userSpaceOnUse" x1="8" x2="16" xlink:href="#b" y1="8" y2="16"/>
    <linearGradient id="d" gradientTransform="matrix(-.00282 .99376 .65925 -.00423 4.893 .177)" gradientUnits="userSpaceOnUse" x1="44.177147" x2="44.106125" y1="18.55378" y2="1.867849">
        <stop offset="0" stop-color="#c9963c"/>
        <stop offset="1" stop-color="#f6cd7b"/>
    </linearGradient>
    <linearGradient id="e" gradientTransform="matrix(0 -1 1 0 0 47)" gradientUnits="userSpaceOnUse" x2="0" y1="8" y2="4">
        <stop offset="0" stop-color="#2f3943"/>
        <stop offset="1" stop-color="#4d5662"/>
        </linearGradient><linearGradient id="f" gradientTransform="matrix(0 1 1 0 0 25)" gradientUnits="userSpaceOnUse" x1="8" x2="16" xlink:href="#b" y1="8" y2="16"/>
    <g stroke-linejoin="bevel" stroke-width="2">
        <path d="m13 44h31v-40h-31z" fill="url(#a)"/>
        <path d="m6 44v-40h8v40z" fill="url(#d)"/>
    <g stroke-linecap="round">
        <path d="m13 4v40h1v-40zm-6 3v9h1v-9zm0 25v9h1v-9z" fill="#c9963c"/>
        <path d="m4 8v7h4v-7zm0 25v7h4v-7z" fill="url(#e)"/>
    </g>
    </g>
        <path d="m8 33 6 6v5h-2l-4-4z" fill="url(#f)" fill-rule="evenodd" opacity=".2"/>
        <path d="m8 8 6 6v7l-6-6z" fill="url(#c)" fill-rule="evenodd" opacity=".2"/>
        <path d="m17 9v1h4v-1zm6 0v1h2v-1zm-6 3v1h12v-1zm0 3v1h11v-1zm0 5v1h4v-1zm5 0v1h2v-1zm-5 3v1h11v-1zm0 3v1h10v-1zm0 5v1h4v-1zm5 0v1h2v-1zm-5 3v1h12v-1zm0 3v1h10v-1z" fill="#626363"/>
        <path d="m33 9v2h-2v1h2v2h1v-2h2v-1h-2v-2zm0 22v2h-2v1h2v2h1v-2h2v-1h-2v-2z" fill="#27ae60"/>
        <path d="m36 20v1h5v-1z" fill="#da4453"/>
</svg>
