<svg viewBox="0 0 16 16" xmlns="http://www.w3.org/2000/svg">
    <style type="text/css" id="current-color-scheme">
        .ColorScheme-Text {
            color:#232629;
        }
    </style>
    <g class="ColorScheme-Text" fill="currentColor">
        <path d="m3 2v12h6v-1h-2v-2h2v-1h-3.2929688l-1-1h-.7070312v-1h.7070312l1-1h5.2929688v-.7070312l-.292969-.2929688h-.707031v-2h1c.554 0 1 .446 1 1v2h1v-2.7070312l-2.292969-2.2929688zm2 2h1v2h-.7070312l-1.2929688 1.2929688v-2.2929688c0-.554.446-1 1-1zm2 0h2v2h-2zm-3 5.7070312 1.2929688 1.2929688h.7070312v2h-1c-.554 0-1-.446-1-1z"/>
        <path d="m12.5 8.0000004a1.5 1.5 0 0 0 -1.5 1.5v1.4999996h-1v3h5v-3h-1v-1.4999996a1.5 1.5 0 0 0 -1.5-1.5zm0 1a.5.5 0 0 1 .5.5v1.4999996h-1v-1.4999996a.5.5 0 0 1 .5-.5z" fill-rule="evenodd"/>
    </g>
</svg>
