<svg viewBox="0 0 16 16" xmlns="http://www.w3.org/2000/svg">
    <style id="current-color-scheme" type="text/css">
        .ColorScheme-Text {
            color:#232629;
        }
    </style>
    <g class="ColorScheme-Text" fill="currentColor">
        <path d="m6 2c-1.108 0-2 .892-2 2v4c0 1.108.892 2 2 2s2-.892 2-2v-4c0-1.108-.892-2-2-2zm-4 5v1c0 1.847 1.286 3.405469 3 3.855469v1.144531h-1v1h4v-1h-1v-1.144531c1.714-.451 3-2.010469 3-3.855469v-1h-1v1c0 1.645-1.355 3-3 3s-3-1.355-3-3v-1z"/>
        <path d="m12.464844 2.7929688-.671875.7421875.371093.3359375c1.145574 1.0341986 1.835938 2.5855636 1.835938 4.1289062s-.690364 3.094708-1.835938 4.128906l-.371093.335938.671875.742187.371093-.335937c1.36377-1.231181 2.164063-3.0337933 2.164063-4.871094s-.800293-3.6399129-2.164063-4.8710937z"/>
        <path d="m11.300781 4.5996094-.601562.8007812c.795538.5966536 1.300781 1.6051868 1.300781 2.5996094s-.505243 2.002956-1.300781 2.599609l.601562.800782c1.059051-.794288 1.699219-2.0765779 1.699219-3.400391s-.640168-2.6061028-1.699219-3.4003906z"/>
    </g>
</svg>
