<svg viewBox="0 0 16 16" xmlns="http://www.w3.org/2000/svg">
    <style id="current-color-scheme" type="text/css">
        .ColorScheme-Text {
            color:#232629;
        }
        .ColorScheme-NegativeText {
            color:#da4453;
        }
    </style>
    <g class="ColorScheme-Text" fill="currentColor">
        <path d="m6 2c-.554 0-1.0545156.2224844-1.4160156.5839844l3.4160156 3.4160156v-2c0-1.108-.892-2-2-2zm-2 4v2c0 1.108.892 2 2 2 .554 0 1.0545156-.2224844 1.4160156-.5839844zm-2 1v1c0 1.847 1.286 3.405469 3 3.855469v1.144531h-1v1h4v-1h-1v-1.144531c.6946069-.18277 1.3116738-.554785 1.8085938-1.046875l-.6914063-.691406c-.544375.544375-1.2946875.882812-2.1171875.882812-1.645 0-3-1.355-3-3v-1zm7 0 1 1v-1z"/>
        <g opacity=".35">
            <path d="m12.464844 2.7929688-.671875.7421874.371093.3359376c1.145574 1.0341985 1.835938 2.5855636 1.835938 4.1289062 0 1.0781414-.34386 2.155571-.9375 3.0625l.726562.726562c.774268-1.101401 1.210938-2.4352697 1.210938-3.789062 0-1.8373007-.800292-3.6399129-2.164062-4.8710938z"/>
            <path d="m11.300781 4.5996094-.601562.8007812c.795538.5966536 1.300781 1.6051868 1.300781 2.5996094 0 .5447191-.161814 1.0871426-.429688 1.5703125l.742188.7421875c.44131-.6834298.6875-1.4898628.6875-2.3125 0-1.3238131-.640168-2.6061028-1.699219-3.4003906z"/>
        </g>
    </g>
    <path d="m2.5 1.7929688-.7070312.7070312 11.7070312 11.707031.707031-.707031z" class="ColorScheme-NegativeText" fill="currentColor"/>
</svg>
