<svg height="22" viewBox="0 0 22 22" width="22" xmlns="http://www.w3.org/2000/svg" xmlns:xlink="http://www.w3.org/1999/xlink"><linearGradient id="a" gradientUnits="userSpaceOnUse" x1="2" x2="2" y1="20" y2="2"><stop offset="0" stop-color="#be1111"/><stop offset="1" stop-color="#e74c3c"/></linearGradient><linearGradient id="b" gradientUnits="userSpaceOnUse" x1="5" x2="36" y1="7" y2="38"><stop offset="0" stop-color="#fcfcfc"/><stop offset="1" stop-color="#e74c3c"/></linearGradient><linearGradient id="c" gradientUnits="userSpaceOnUse" x1="9" x2="18" y1="11" y2="20"><stop offset="0"/><stop offset="1" stop-opacity="0"/></linearGradient><rect fill="url(#a)" height="18" ry="3" width="18" x="2" y="2"/><path d="m9 15 5 5h6v-6l-3-3-2 2-2-2z" fill="url(#c)" opacity=".2"/><path d="m9 7-4 4 4 4 4-4zm4 0-1 1 3 3-3 3 1 1 4-4z" fill="url(#b)"/><path d="m2 16v1c0 1.662 1.338 3 3 3h12c1.662 0 3-1.338 3-3v-1c0 1.662-1.338 3-3 3h-12c-1.662 0-3-1.338-3-3z" fill="#8e0d0d"/></svg>