<?xml version="1.0" encoding="UTF-8" standalone="no"?>
<svg
   xmlns:dc="http://purl.org/dc/elements/1.1/"
   xmlns:cc="http://creativecommons.org/ns#"
   xmlns:rdf="http://www.w3.org/1999/02/22-rdf-syntax-ns#"
   xmlns:svg="http://www.w3.org/2000/svg"
   xmlns="http://www.w3.org/2000/svg"
   xmlns:sodipodi="http://sodipodi.sourceforge.net/DTD/sodipodi-0.dtd"
   xmlns:inkscape="http://www.inkscape.org/namespaces/inkscape"
   viewBox="0 0 256 256"
   id="svg2"
   version="1.1"
   inkscape:version="0.91 r13725"
   sodipodi:docname="org.svgz">
  <metadata
     id="metadata10">
    <rdf:RDF>
      <cc:Work
         rdf:about="">
        <dc:format>image/svg+xml</dc:format>
        <dc:type
           rdf:resource="http://purl.org/dc/dcmitype/StillImage" />
        <dc:title />
      </cc:Work>
    </rdf:RDF>
  </metadata>
  <sodipodi:namedview
     pagecolor="#ffffff"
     bordercolor="#666666"
     borderopacity="1"
     objecttolerance="10"
     gridtolerance="10"
     guidetolerance="10"
     inkscape:pageopacity="0"
     inkscape:pageshadow="2"
     inkscape:window-width="1680"
     inkscape:window-height="989"
     id="namedview8"
     showgrid="true"
     inkscape:zoom="2.6074563"
     inkscape:cx="235.94999"
     inkscape:cy="149.11324"
     inkscape:window-x="0"
     inkscape:window-y="0"
     inkscape:window-maximized="1"
     inkscape:current-layer="svg2"
     showguides="false">
    <inkscape:grid
       type="xygrid"
       id="grid3342" />
  </sodipodi:namedview>
  <defs
     id="defs4">
    <style
       id="current-color-scheme"
       type="text/css">
      .ColorScheme-Text {
        color:#4d4d4d;
      }
      .ColorScheme-Background {
        color:#eff0f1;
      }
      .ColorScheme-Highlight {
        color:#3daee9;
      }
      .ColorScheme-ViewText {
        color:#31363b;
      }
      .ColorScheme-ViewBackground {
        color:#fcfcfc;
      }
      .ColorScheme-ViewHover {
        color:#93cee9;
      }
      .ColorScheme-ViewFocus{
        color:#3daee9;
      }
      .ColorScheme-ButtonText {
        color:#31363b;
      }
      .ColorScheme-ButtonBackground {
        color:#eff0f1;
      }
      .ColorScheme-ButtonHover {
        color:#93cee9;
      }
      .ColorScheme-ButtonFocus{
        color:#3daee9;
      }
      </style>
  </defs>
  <path
     style="fill:currentColor;fill-opacity:0.5;stroke:none"
     d="m 16,10 224,0 c 3.324,0 6,2.676 6,6 l 0,224 c 0,3.324 -2.676,6 -6,6 l -224,0 c -3.324,0 -6,-2.676 -6,-6 L 10,16 c 0,-3.324 2.676,-6 6,-6 z"
     class="ColorScheme-ButtonText"
     id="rect4240" />
  <path
     style="fill:currentColor;fill-opacity:1;stroke:none"
     d="m 16,12 224,0 c 2.216,0 4,1.784 4,4 l 0,224 c 0,2.216 -1.784,4 -4,4 l -224,0 c -2.216,0 -4,-1.784 -4,-4 L 12,16 c 0,-2.216 1.784,-4 4,-4 z"
     class="ColorScheme-Background"
     id="rect4238" />
  <path
     style="opacity:0.45;fill:currentColor;fill-opacity:1;stroke:none"
     d="m 197.41797,44.228516 0,0.996093 0.78711,0 0,-0.996093 -0.78711,0 z m 12.89062,0 c -0.53833,0 -0.93188,0.122232 -1.17968,0.367187 -0.24781,0.242106 -0.3711,0.629476 -0.3711,1.162109 l 0,0.333985 -0.75195,0 0,0.609375 0.75195,0 0,4.175781 0.79102,0 0,-4.175781 1.29492,0 0,-0.609375 -1.29492,0 0,-0.423828 c 0,-0.296224 0.0539,-0.501302 0.16211,-0.615235 0.11108,-0.113932 0.30786,-0.169919 0.58984,-0.169922 l 0.75195,0 0,-0.654296 -0.74414,0 z m -23.48047,0.154296 c -0.2535,10e-7 -0.52482,0.02279 -0.8125,0.06836 -0.28482,0.04557 -0.59041,0.113932 -0.91796,0.205078 l 0,0.767578 c 0.3247,-0.108238 0.62199,-0.187014 0.89257,-0.238281 0.27059,-0.05127 0.52336,-0.07813 0.75977,-0.07813 0.43294,0 0.76538,0.08903 0.99609,0.265625 0.23356,0.173747 0.34961,0.424398 0.34961,0.751953 0,0.319011 -0.11092,0.563477 -0.33593,0.734375 -0.22502,0.168051 -0.55022,0.251953 -0.97461,0.251953 l -0.77735,0 0,0.708984 0.74219,0 c 0.46997,10e-7 0.83561,0.108643 1.09766,0.322266 0.26489,0.210775 0.39843,0.50293 0.39843,0.878906 0,0.407308 -0.1429,0.718018 -0.42773,0.931641 -0.28198,0.213623 -0.6932,0.320313 -1.23438,0.320313 -0.31046,-10e-7 -0.60775,-0.03621 -0.89257,-0.107422 -0.28484,-0.07121 -0.54786,-0.174886 -0.78711,-0.314454 l 0,0.832032 c 0.30192,0.10539 0.59497,0.183108 0.87695,0.234375 0.28483,0.05412 0.56039,0.08203 0.82813,0.08203 0.79752,0 1.41276,-0.172933 1.8457,-0.517578 0.43294,-0.344645 0.65039,-0.831462 0.65039,-1.460938 0,-0.410156 -0.118,-0.754069 -0.35156,-1.033203 -0.23072,-0.279134 -0.55185,-0.462484 -0.96485,-0.550781 0.37313,-0.09399 0.66106,-0.2618 0.86328,-0.503906 0.20224,-0.244954 0.30274,-0.545247 0.30274,-0.898438 0,-0.506998 -0.19059,-0.908854 -0.57227,-1.205078 -0.38167,-0.299072 -0.89957,-0.447266 -1.55469,-0.447266 z m 6.65626,0 c -0.99691,0 -1.77784,0.291098 -2.3418,0.875 -0.56112,0.581056 -0.8418,1.393067 -0.8418,2.435547 0,1.039632 0.28068,1.851644 0.8418,2.435547 0.56396,0.581055 1.34489,0.871094 2.3418,0.871094 0.45572,0 0.88354,-0.06006 1.28515,-0.179688 0.40161,-0.122477 0.77026,-0.3007 1.10352,-0.537109 l 0,-2.740234 -2.26563,0 0,0.708984 1.41016,0 0,1.714844 c -0.19084,0.111082 -0.40527,0.193927 -0.64453,0.248047 -0.23926,0.05127 -0.51164,0.07617 -0.81641,0.07617 -0.78044,0 -1.3667,-0.218507 -1.75976,-0.654297 -0.39022,-0.435792 -0.58594,-1.083171 -0.58594,-1.94336 0,-0.863036 0.19572,-1.513427 0.58594,-1.949218 0.39306,-0.435791 0.97932,-0.652344 1.75976,-0.652344 0.39591,0 0.77393,0.06836 1.13281,0.205078 0.35889,0.136719 0.69661,0.340739 1.01563,0.611328 l 0,-0.919922 c -0.31617,-0.199381 -0.66114,-0.350586 -1.03711,-0.453125 -0.37313,-0.102539 -0.76774,-0.152342 -1.18359,-0.152344 z m 6.39453,0.115235 0,6.378906 2.29101,0 c 0.71493,0 1.26498,-0.156331 1.65235,-0.466797 0.38737,-0.310465 0.58203,-0.750651 0.58203,-1.320312 0,-0.432943 -0.11906,-0.792399 -0.35547,-1.080078 -0.23356,-0.290528 -0.56193,-0.481121 -0.98633,-0.572266 0.35319,-0.05697 0.62044,-0.200928 0.80273,-0.431641 0.18229,-0.230712 0.27344,-0.541422 0.27344,-0.93164 0,-0.504151 -0.17717,-0.892579 -0.5332,-1.166016 -0.35604,-0.273438 -0.86353,-0.410156 -1.52149,-0.410156 l -2.20507,0 z m 0.86328,0.708984 1.27734,0 c 0.42155,0 0.73633,0.07878 0.94141,0.238281 0.20792,0.159507 0.31054,0.400798 0.31054,0.722657 0,0.324706 -0.10262,0.567057 -0.31054,0.726562 -0.20508,0.156657 -0.51986,0.234375 -0.94141,0.234375 l -1.27734,0 0,-1.921875 z m 13.33593,0.769531 c -0.37882,0 -0.7019,0.07048 -0.96679,0.212891 -0.2649,0.139567 -0.47933,0.354004 -0.64453,0.644531 l 0,-0.742187 -0.79102,0 0,4.785156 0.79102,0 0,-2.521484 c 0,-0.541179 0.11711,-0.956462 0.35351,-1.244141 0.23926,-0.290527 0.58105,-0.435547 1.02539,-0.435547 0.12532,0 0.23926,0.01343 0.3418,0.03906 0.10539,0.02278 0.20272,0.06005 0.29102,0.111328 l -0.004,-0.808594 c -0.0797,-0.01427 -0.15322,-0.02363 -0.21875,-0.0293 -0.0655,-0.0085 -0.12358,-0.01172 -0.17774,-0.01172 z m 3.04883,0 c -0.71777,10e-7 -1.28849,0.229981 -1.71289,0.691407 -0.42155,0.458577 -0.63281,1.079996 -0.63281,1.863281 0,0.757649 0.22363,1.358398 0.66797,1.802734 C 215.8964,50.77832 216.50033,51 217.26367,51 c 0.30478,0 0.60613,-0.03109 0.90235,-0.09375 0.29622,-0.06266 0.5852,-0.153807 0.86718,-0.273438 l 0,-0.74414 c -0.27913,0.148112 -0.56087,0.259928 -0.8457,0.333984 -0.28199,0.07406 -0.57503,0.111328 -0.87695,0.111328 -0.52124,0 -0.92733,-0.141845 -1.22071,-0.423828 -0.2905,-0.28483 -0.45408,-0.697103 -0.48828,-1.238281 l 3.61524,0 0,-0.384766 c 0,-0.712076 -0.18848,-1.274495 -0.56446,-1.6875 -0.37312,-0.415852 -0.88167,-0.623044 -1.52539,-0.623047 z m 5.38477,0 c -0.71777,10e-7 -1.29046,0.229981 -1.71484,0.691407 -0.42155,0.458577 -0.63086,1.079996 -0.63086,1.863281 0,0.757649 0.22168,1.358398 0.66601,1.802734 C 221.27922,50.77832 221.88509,51 222.64844,51 c 0.30476,0 0.60417,-0.03109 0.90039,-0.09375 0.29622,-0.06266 0.58521,-0.153807 0.86719,-0.273438 l 0,-0.74414 c -0.27914,0.148112 -0.56088,0.259928 -0.84571,0.333984 -0.28198,0.07406 -0.57308,0.111328 -0.875,0.111328 -0.52124,0 -0.92928,-0.141845 -1.22265,-0.423828 -0.29051,-0.28483 -0.45213,-0.697103 -0.48633,-1.238281 l 3.61328,0 0,-0.384766 c 0,-0.712076 -0.18652,-1.274495 -0.5625,-1.6875 -0.37313,-0.415852 -0.88168,-0.623044 -1.52539,-0.623047 z m -25.09375,0.115235 0,4.785156 0.78711,0 0,-4.785156 -0.78711,0 z m 19.71875,0.550781 c 0.38737,0 0.69808,0.128418 0.93164,0.384766 0.23611,0.256348 0.35728,0.599203 0.36328,1.029297 l -2.80273,0.0039 c 0.0399,-0.450033 0.18913,-0.799072 0.45117,-1.046875 0.26489,-0.247803 0.618,-0.371094 1.05664,-0.371094 z m 5.38281,0 c 0.38737,0 0.69808,0.128418 0.93164,0.384766 0.23611,0.256348 0.35728,0.599203 0.36328,1.029297 l -2.80273,0.0039 c 0.0399,-0.450033 0.19108,-0.799072 0.45312,-1.046875 0.2649,-0.247803 0.61605,-0.371094 1.05469,-0.371094 z m -21.77734,1.1875 1.38476,0 c 0.46428,0 0.80713,0.09432 1.0293,0.285156 0.22501,0.187988 0.33789,0.482096 0.33789,0.88086 0,0.395914 -0.11288,0.691081 -0.33789,0.884765 -0.22217,0.190837 -0.56502,0.285157 -1.0293,0.285157 l -1.38476,0 0,-2.335938 z m -115.166018,24.398438 0,0.996093 0.787109,0 0,-0.996093 -0.787109,0 z m 18.238278,0 c -0.53833,0 -0.92993,0.122232 -1.17773,0.367187 -0.24781,0.242106 -0.37305,0.629476 -0.37305,1.162109 l 0,0.333985 -0.75195,0 0,0.609375 0.75195,0 0,4.175781 0.79102,0 0,-4.175781 1.29492,0 0,-0.609375 -1.29492,0 0,-0.423828 c 0,-0.296224 0.0539,-0.501302 0.16211,-0.615235 0.11108,-0.113932 0.30786,-0.169918 0.58984,-0.169922 l 0.75195,0 0,-0.654296 -0.74414,0 z m 24.89649,0 0,0.996093 0.78515,0 0,-0.996093 -0.78515,0 z m -47.070315,0.154296 c -0.996907,0 -1.775879,0.291101 -2.339844,0.875 -0.561116,0.581058 -0.841797,1.393067 -0.841797,2.435547 0,1.039632 0.280681,1.851644 0.841797,2.435547 C 79.864746,78.709961 80.643718,79 81.640625,79 c 0.455729,0 0.885498,-0.06006 1.287109,-0.179688 0.401612,-0.122477 0.768311,-0.3007 1.101563,-0.537109 l 0,-2.740234 -2.263672,0 0,0.708984 1.410156,0 0,1.714844 c -0.190836,0.111082 -0.407226,0.193927 -0.646484,0.248047 -0.239257,0.05127 -0.511637,0.07617 -0.816406,0.07617 -0.780436,0 -1.366699,-0.218507 -1.759766,-0.654297 -0.390218,-0.435792 -0.583984,-1.083171 -0.583984,-1.94336 0,-0.863036 0.193766,-1.513427 0.583984,-1.949218 0.393067,-0.435791 0.97933,-0.652344 1.759766,-0.652344 0.395914,0 0.773925,0.06836 1.132812,0.205078 0.358887,0.136719 0.698568,0.340739 1.017578,0.611328 l 0,-0.919922 C 83.547119,72.7889 83.200195,72.637695 82.824219,72.535156 82.451091,72.432617 82.056478,72.382812 81.640625,72.382812 Z m 28.019535,0 c -0.25065,10e-7 -0.52621,0.03426 -0.82813,0.105469 -0.30192,0.07121 -0.62711,0.176839 -0.97461,0.316407 l 0,0.871093 c 0.3418,-0.190836 0.66187,-0.331787 0.96094,-0.425781 0.30192,-0.094 0.58879,-0.142578 0.85937,-0.142578 0.38168,0 0.68937,0.108642 0.92579,0.322266 0.23925,0.213622 0.35937,0.489176 0.35937,0.828124 0,0.207927 -0.055,0.420248 -0.16601,0.636719 -0.10824,0.213624 -0.29989,0.474688 -0.57618,0.785157 -0.14526,0.165202 -0.50154,0.534912 -1.06836,1.107421 -0.56396,0.569662 -1.01033,1.024333 -1.33789,1.363282 l 0,0.726562 4.05078,0 0,-0.726562 -3.01171,0 c 0.69498,-0.709229 1.2316,-1.261231 1.61328,-1.654297 0.38167,-0.395915 0.60848,-0.634196 0.67968,-0.716797 0.2592,-0.31901 0.43831,-0.596517 0.53516,-0.830078 0.0997,-0.23641 0.14844,-0.486002 0.14844,-0.748047 0,-0.552571 -0.19678,-0.993815 -0.58985,-1.324219 -0.39306,-0.330403 -0.91926,-0.494141 -1.58007,-0.494141 z m 5.86523,0 c -0.71492,0 -1.2618,0.282797 -1.64062,0.84961 -0.37598,0.563965 -0.5625,1.384277 -0.5625,2.460937 0,1.073812 0.18652,1.894125 0.5625,2.460938 0.37882,0.563965 0.9257,0.845703 1.64062,0.845703 0.71493,0 1.26074,-0.281738 1.63672,-0.845703 0.37882,-0.566813 0.56836,-1.387126 0.56836,-2.460938 0,-1.07666 -0.18954,-1.896972 -0.56836,-2.460937 -0.37598,-0.566813 -0.92179,-0.849606 -1.63672,-0.84961 z m 9.25,0 c -0.99691,0 -1.77588,0.291101 -2.33984,0.875 -0.56112,0.581058 -0.8418,1.393067 -0.8418,2.435547 0,1.039632 0.28068,1.851644 0.8418,2.435547 C 122.99951,78.709961 123.77848,79 124.77539,79 c 0.45573,0 0.8855,-0.06006 1.28711,-0.179688 0.40161,-0.122477 0.76831,-0.3007 1.10156,-0.537109 l 0,-2.740234 -2.26367,0 0,0.708984 1.41016,0 0,1.714844 c -0.19084,0.111082 -0.40723,0.193927 -0.64649,0.248047 -0.23925,0.05127 -0.51163,0.07617 -0.8164,0.07617 -0.78044,0 -1.3667,-0.218507 -1.75977,-0.654297 -0.39022,-0.435792 -0.58398,-1.083171 -0.58398,-1.94336 0,-0.863036 0.19376,-1.513427 0.58398,-1.949218 0.39307,-0.435791 0.97933,-0.652344 1.75977,-0.652344 0.39591,0 0.77392,0.06836 1.13281,0.205078 0.35889,0.136719 0.69857,0.340739 1.01758,0.611328 l 0,-0.919922 c -0.31616,-0.199381 -0.66309,-0.350586 -1.03907,-0.453125 -0.37312,-0.102539 -0.76774,-0.152344 -1.18359,-0.152344 z M 66.525391,72.498047 65,72.804688 l 0,0.787109 1.533203,-0.308594 0,4.867188 -1.410156,0 0,0.726562 3.675781,0 0,-0.726562 -1.410156,0 0,-5.652344 -0.863281,0 z m 3.802734,0 0,0.726562 3.0625,0 -2.177734,5.652344 0.90039,0 2.316407,-6.011719 0,-0.367187 -4.101563,0 z m 17.708984,0 0,6.378906 2.289063,0 c 0.714925,0 1.266927,-0.156331 1.654297,-0.466797 0.38737,-0.310465 0.582031,-0.750651 0.582031,-1.320312 0,-0.432943 -0.119059,-0.792399 -0.355469,-1.080078 C 91.97347,75.719238 91.6451,75.528645 91.220703,75.4375 c 0.35319,-0.05697 0.620439,-0.200928 0.802735,-0.431641 0.182292,-0.230712 0.273437,-0.541422 0.273437,-0.93164 0,-0.504151 -0.179118,-0.892579 -0.535156,-1.166016 -0.356038,-0.273438 -0.861572,-0.410156 -1.519531,-0.410156 l -2.205079,0 z m 43.134771,0 0,6.378906 2.28906,0 c 0.71492,0 1.26692,-0.156331 1.65429,-0.466797 0.38737,-0.310465 0.58204,-0.750651 0.58204,-1.320312 0,-0.432943 -0.11907,-0.792399 -0.35547,-1.080078 -0.23356,-0.290528 -0.56193,-0.481121 -0.98633,-0.572266 0.35319,-0.05697 0.62044,-0.200928 0.80273,-0.431641 0.1823,-0.230712 0.27344,-0.541422 0.27344,-0.93164 0,-0.504151 -0.17912,-0.892579 -0.53516,-1.166016 -0.35604,-0.273438 -0.86157,-0.410156 -1.51953,-0.410156 l -2.20507,0 z m -15.64649,0.568359 c 0.44719,0 0.78174,0.217611 1.00391,0.65625 0.22502,0.435791 0.33789,1.093425 0.33789,1.970703 0,0.874431 -0.11287,1.530111 -0.33789,1.96875 -0.22217,0.435791 -0.55672,0.654297 -1.00391,0.654297 -0.44433,0 -0.77889,-0.218506 -1.00391,-0.654297 -0.22216,-0.438639 -0.33203,-1.094319 -0.33203,-1.96875 0,-0.877278 0.10987,-1.534912 0.33203,-1.970703 0.22502,-0.438639 0.55958,-0.65625 1.00391,-0.65625 z m -26.624999,0.140625 1.277343,0 c 0.42155,0 0.734375,0.07878 0.939454,0.238281 0.207926,0.159506 0.312496,0.400798 0.3125,0.722657 -10e-7,0.324706 -0.104575,0.567057 -0.3125,0.726562 -0.205079,0.156657 -0.517904,0.234375 -0.939454,0.234375 l -1.277343,0 0,-1.921875 z m 43.134769,0 1.27734,0 c 0.42155,0 0.73437,0.07878 0.93945,0.238281 0.20793,0.159506 0.3125,0.400798 0.3125,0.722657 0,0.324706 -0.10457,0.567057 -0.3125,0.726562 -0.20508,0.156657 -0.5179,0.234375 -0.93945,0.234375 l -1.27734,0 0,-1.921875 z m -33.394535,0.769531 c -0.686442,0 -1.225016,0.22168 -1.615234,0.666016 -0.38737,0.444336 -0.580079,1.059571 -0.580079,1.845703 10e-7,0.783285 0.192709,1.398519 0.580079,1.845703 C 97.415609,78.77832 97.954183,79 98.640625,79 c 0.683594,0 1.221119,-0.22168 1.611325,-0.666016 0.39022,-0.447184 0.58594,-1.062418 0.58594,-1.845703 0,-0.786132 -0.19572,-1.401367 -0.58594,-1.845703 -0.390206,-0.444336 -0.927731,-0.666016 -1.611325,-0.666016 z m -13.064453,0.115235 0,4.785156 0.787109,0 0,-4.785156 -0.787109,0 z m 43.134768,0 0,4.785156 0.78515,0 0,-4.785156 -0.78515,0 z m -30.070315,0.550781 c 0.418701,0 0.751139,0.166748 0.996094,0.5 0.244952,0.330403 0.367191,0.77889 0.367191,1.345703 0,0.569662 -0.122239,1.019206 -0.367191,1.34961 -0.244955,0.330403 -0.577393,0.496093 -0.996094,0.496093 -0.424397,0 -0.758952,-0.164632 -1.003906,-0.492187 -0.242106,-0.330403 -0.363281,-0.781006 -0.363281,-1.353516 -10e-7,-0.57251 0.124185,-1.024007 0.36914,-1.351562 0.244954,-0.330404 0.576498,-0.494141 0.998047,-0.494141 z m -9.740234,1.1875 1.384765,0 c 0.464274,0 0.807129,0.09432 1.029297,0.285156 0.225016,0.187988 0.337891,0.482096 0.337891,0.88086 0,0.395914 -0.112875,0.691081 -0.337891,0.884765 -0.222168,0.190837 -0.565023,0.285157 -1.029297,0.285157 l -1.384765,0 0,-2.335938 z m 43.134769,0 1.38476,0 c 0.46428,0 0.80713,0.09432 1.0293,0.285156 0.22502,0.187988 0.33789,0.482096 0.33789,0.88086 0,0.395914 -0.11287,0.691081 -0.33789,0.884765 -0.22217,0.190837 -0.56502,0.285157 -1.0293,0.285157 l -1.38476,0 0,-2.335938 z M 19,90 l 0,1 216,0 0,-1 -216,0 z m 178.22656,27.22852 0,0.99414 0.78711,0 0,-0.99414 -0.78711,0 z m 12.89063,0 c -0.53833,0 -0.93188,0.12223 -1.17969,0.36718 -0.2478,0.24211 -0.37109,0.62948 -0.37109,1.16211 l 0,0.33399 -0.75196,0 0,0.60937 0.75196,0 0,4.17578 0.79101,0 0,-4.17578 1.29297,0 0,-0.60937 -1.29297,0 0,-0.42383 c 0,-0.29623 0.0539,-0.5013 0.16211,-0.61524 0.11108,-0.11392 0.30784,-0.16992 0.58985,-0.16992 l 0.75195,0 0,-0.65429 -0.74414,0 z m -23.28907,0.15429 c -0.63232,0 -1.1315,0.14714 -1.49609,0.44336 -0.36173,0.29623 -0.54297,0.69914 -0.54297,1.20899 0,0.36458 0.10352,0.67424 0.3086,0.92773 0.20792,0.2535 0.4969,0.42448 0.86718,0.51563 -0.41585,0.0968 -0.74105,0.28637 -0.97461,0.56836 -0.23356,0.28198 -0.34961,0.62784 -0.34961,1.03515 10e-6,0.61808 0.18848,1.09148 0.56446,1.42188 0.37882,0.3304 0.91953,0.49609 1.62304,0.49609 0.70354,0 1.24317,-0.16569 1.61915,-0.49609 0.37882,-0.3304 0.56837,-0.8038 0.56835,-1.42188 10e-6,-0.40731 -0.11604,-0.75321 -0.3496,-1.03515 -0.23072,-0.282 -0.55486,-0.47152 -0.97071,-0.56836 0.36743,-0.0911 0.6543,-0.26213 0.85938,-0.51563 0.20792,-0.25349 0.31054,-0.56315 0.31054,-0.92773 0,-0.50985 -0.17928,-0.91276 -0.54101,-1.20899 -0.36174,-0.29622 -0.86093,-0.44336 -1.4961,-0.44336 z m 6.46485,0 c -0.99691,0 -1.77783,0.2911 -2.3418,0.875 -0.56111,0.58106 -0.84182,1.39306 -0.84179,2.43555 -10e-6,1.03963 0.28068,1.85164 0.84179,2.43555 0.56397,0.58105 1.34489,0.87109 2.3418,0.87109 0.45573,0 0.88356,-0.0601 1.28515,-0.17969 0.40162,-0.12248 0.76831,-0.3007 1.10157,-0.53711 l 0,-2.74023 -2.26367,0 0,0.70898 1.41015,0 0,1.71485 c -0.19083,0.11107 -0.40527,0.19391 -0.64453,0.24804 -0.23926,0.0513 -0.51164,0.0762 -0.81641,0.0762 -0.78043,0 -1.36669,-0.21851 -1.75976,-0.6543 -0.39022,-0.43579 -0.58594,-1.08317 -0.58594,-1.94336 0,-0.86304 0.19572,-1.51343 0.58594,-1.94922 0.39307,-0.43579 0.97933,-0.65234 1.75976,-0.65234 0.39592,0 0.77198,0.0683 1.13086,0.20508 0.35889,0.1367 0.69857,0.34073 1.01758,0.61132 l 0,-0.91992 c -0.31616,-0.19938 -0.66113,-0.35058 -1.03711,-0.45312 -0.37312,-0.10254 -0.76774,-0.15235 -1.18359,-0.15235 z m 6.39453,0.11524 0,6.3789 2.29102,0 c 0.71492,0 1.26497,-0.15633 1.65234,-0.46679 0.38737,-0.31047 0.58203,-0.75066 0.58203,-1.32032 0,-0.43294 -0.11906,-0.79239 -0.35547,-1.08007 -0.23356,-0.29053 -0.56193,-0.48112 -0.98633,-0.57227 0.35319,-0.057 0.62044,-0.20093 0.80274,-0.43164 0.18229,-0.23071 0.27344,-0.54142 0.27344,-0.93164 0,-0.50415 -0.17717,-0.89258 -0.53321,-1.16602 -0.35604,-0.27344 -0.86352,-0.41015 -1.52148,-0.41015 l -2.20508,0 z m -12.85938,0.56836 c 0.37028,0 0.65927,0.0922 0.86719,0.27734 0.21078,0.18514 0.31641,0.44303 0.31641,0.77344 0,0.3304 -0.10563,0.5883 -0.31641,0.77343 -0.20792,0.18516 -0.49691,0.27735 -0.86719,0.27735 -0.37313,0 -0.66316,-0.0922 -0.87109,-0.27735 -0.20507,-0.18514 -0.30859,-0.44303 -0.30859,-0.77343 0,-0.33041 0.10352,-0.5883 0.30859,-0.77344 0.20793,-0.18514 0.49796,-0.27734 0.87109,-0.27734 z m 13.72266,0.14062 1.27734,0 c 0.42155,0 0.73438,0.0788 0.93946,0.23828 0.20792,0.15951 0.3125,0.4008 0.3125,0.72266 0,0.32471 -0.10458,0.56705 -0.3125,0.72656 -0.20508,0.15665 -0.51788,0.23438 -0.93946,0.23438 l -1.27734,0 0,-1.92188 z m 13.33399,0.76953 c -0.37883,0 -0.69996,0.0705 -0.96485,0.21289 -0.26489,0.13957 -0.47932,0.35401 -0.64453,0.64453 l 0,-0.74218 -0.79101,0 0,4.78515 0.79101,0 0,-2.52148 c 0,-0.54118 0.1171,-0.95646 0.35352,-1.24414 0.23925,-0.29053 0.58105,-0.43555 1.02539,-0.43555 0.12532,0 0.23925,0.0135 0.34179,0.0391 0.10539,0.0228 0.20273,0.0601 0.29102,0.11133 l -0.004,-0.80859 c -0.0797,-0.0139 -0.15321,-0.0233 -0.21875,-0.0293 -0.0655,-0.009 -0.12555,-0.0117 -0.17968,-0.0117 z m 3.05078,0 c -0.71778,0 -1.28849,0.22999 -1.71289,0.69141 -0.42155,0.45858 -0.63282,1.07999 -0.63282,1.86328 0,0.75765 0.22364,1.35839 0.66797,1.80273 0.44719,0.44434 1.05111,0.66602 1.81446,0.66602 0.30476,0 0.60611,-0.0311 0.90234,-0.0937 0.29622,-0.0627 0.5852,-0.15381 0.86719,-0.27344 l 0,-0.74414 c -0.27914,0.14812 -0.56088,0.25993 -0.84571,0.33399 -0.28198,0.0741 -0.57502,0.11132 -0.87695,0.11132 -0.52124,0 -0.92733,-0.14184 -1.2207,-0.42382 -0.29051,-0.28483 -0.45408,-0.69713 -0.48828,-1.23828 l 3.61523,0 0,-0.38477 c 0,-0.71208 -0.18848,-1.2745 -0.56445,-1.6875 -0.37314,-0.41585 -0.88168,-0.62305 -1.52539,-0.62305 z m 5.38281,0 c -0.71777,0 -1.28849,0.22999 -1.71289,0.69141 -0.42155,0.45858 -0.63086,1.07999 -0.63086,1.86328 0,0.75765 0.2217,1.35839 0.66601,1.80273 0.44719,0.44434 1.05111,0.66602 1.81446,0.66602 0.30476,0 0.60612,-0.0311 0.90234,-0.0937 0.29622,-0.0627 0.5852,-0.15381 0.86719,-0.27344 l 0,-0.74414 c -0.27913,0.14812 -0.56087,0.25993 -0.8457,0.33399 -0.28198,0.0741 -0.57308,0.11132 -0.875,0.11132 -0.52124,0 -0.92929,-0.14184 -1.22266,-0.42382 -0.29051,-0.28483 -0.45213,-0.69713 -0.48633,-1.23828 l 3.61328,0 0,-0.38477 c 0,-0.71208 -0.18848,-1.2745 -0.56445,-1.6875 -0.37313,-0.41585 -0.88167,-0.62305 -1.52539,-0.62305 z m -25.0918,0.11524 0,4.78515 0.78711,0 0,-4.78515 -0.78711,0 z m 19.71875,0.55078 c 0.38738,0 0.69613,0.12842 0.92969,0.38476 0.23611,0.25635 0.35728,0.59921 0.36328,1.0293 l -2.80273,0.004 c 0.0399,-0.45004 0.19108,-0.79907 0.45312,-1.04688 0.26489,-0.2478 0.618,-0.37109 1.05664,-0.37109 z m 5.38281,0 c 0.38738,0 0.69809,0.12842 0.93165,0.38476 0.2361,0.25635 0.35728,0.59921 0.36328,1.0293 l -2.80274,0.004 c 0.0399,-0.45004 0.19108,-0.79907 0.45313,-1.04688 0.26489,-0.2478 0.61606,-0.37109 1.05468,-0.37109 z m -21.77734,1.1875 1.38477,0 c 0.46427,0 0.80713,0.0943 1.02929,0.28515 0.22502,0.18799 0.33789,0.4821 0.33789,0.88086 0,0.39592 -0.11287,0.69108 -0.33789,0.88477 -0.22216,0.19083 -0.56502,0.28516 -1.02929,0.28516 l -1.38477,0 0,-2.33594 z m -13.72266,0.0176 c 0.413,0 0.7352,0.1088 0.96876,0.32812 0.23641,0.21932 0.35546,0.52172 0.35546,0.90625 0,0.38167 -0.11905,0.68408 -0.35546,0.90625 -0.23641,0.21932 -0.5586,0.32813 -0.96876,0.32813 -0.41015,0 -0.73429,-0.10881 -0.9707,-0.32813 -0.23356,-0.21932 -0.34961,-0.52173 -0.34961,-0.90625 0,-0.38453 0.11605,-0.68693 0.34961,-0.90625 0.23641,-0.21932 0.56055,-0.32812 0.9707,-0.32812 z m -102.007808,27.38086 0,0.99414 0.785157,0 0,-0.99414 -0.785157,0 z m 18.238278,0 c -0.53833,0 -0.93188,0.12223 -1.17968,0.36718 -0.24781,0.24211 -0.3711,0.62948 -0.3711,1.16211 l 0,0.33399 -0.75195,0 0,0.60937 0.75195,0 0,4.17578 0.79102,0 0,-4.17578 1.29492,0 0,-0.60937 -1.29492,0 0,-0.42383 c 0,-0.29623 0.0539,-0.5013 0.16211,-0.61524 0.11108,-0.11392 0.30786,-0.16992 0.58984,-0.16992 l 0.75195,0 0,-0.65429 -0.74414,0 z m 24.89649,0 0,0.99414 0.78515,0 0,-0.99414 -0.78515,0 z m -56.615236,0.15429 c -0.250652,0 -0.526205,0.0343 -0.828125,0.10547 -0.30192,0.0712 -0.627116,0.17684 -0.97461,0.31641 l 0,0.87109 c 0.341798,-0.19083 0.661866,-0.33179 0.960938,-0.42578 0.301921,-0.094 0.588786,-0.14258 0.859375,-0.14258 0.381673,0 0.691324,0.10669 0.927734,0.32031 0.239258,0.21363 0.357422,0.49114 0.357422,0.83008 0,0.20793 -0.05493,0.42025 -0.166016,0.63672 -0.108235,0.21362 -0.299885,0.47469 -0.576171,0.78516 -0.145264,0.1652 -0.501546,0.53491 -1.06836,1.10742 -0.563964,0.56966 -1.010335,1.02433 -1.33789,1.36328 l 0,0.72656 4.050781,0 0,-0.72656 -3.011719,0 c 0.694987,-0.70923 1.233558,-1.26123 1.615235,-1.6543 0.381673,-0.39591 0.606527,-0.63419 0.677734,-0.71679 0.259196,-0.31901 0.438313,-0.59652 0.535156,-0.83008 0.09969,-0.23641 0.148438,-0.48601 0.148438,-0.74805 0,-0.55257 -0.196777,-0.99381 -0.589844,-1.32422 -0.393066,-0.3304 -0.919271,-0.49414 -1.580078,-0.49414 z m 9.544922,0 c -0.996908,0 -1.777833,0.2911 -2.341797,0.875 -0.561117,0.58106 -0.841797,1.39306 -0.841797,2.43555 0,1.03963 0.28068,1.85164 0.841797,2.43555 0.563964,0.58105 1.344889,0.87109 2.341797,0.87109 0.455728,0 0.883545,-0.0601 1.285156,-0.17969 0.401611,-0.12248 0.770263,-0.3007 1.103516,-0.53711 l 0,-2.74023 -2.265626,0 0,0.70898 1.410157,0 0,1.71485 c -0.190837,0.11107 -0.405277,0.19391 -0.644531,0.24804 -0.239258,0.0513 -0.511637,0.0762 -0.816407,0.0762 -0.780436,0 -1.366699,-0.21851 -1.759765,-0.6543 -0.390219,-0.43579 -0.585938,-1.08317 -0.585938,-1.94336 0,-0.86304 0.195719,-1.51343 0.585938,-1.94922 0.393066,-0.43579 0.979329,-0.65234 1.759765,-0.65234 0.395916,0 0.773926,0.0683 1.132813,0.20508 0.358886,0.13671 0.696615,0.34073 1.015625,0.61132 l 0,-0.91992 c -0.316162,-0.19938 -0.661133,-0.35058 -1.03711,-0.45312 -0.373128,-0.10254 -0.767741,-0.15235 -1.183593,-0.15235 z m 28.314454,0 c -0.63232,0 -1.13148,0.14714 -1.4961,0.44336 -0.36172,0.29623 -0.54296,0.69914 -0.54296,1.20899 0,0.36458 0.10351,0.67424 0.30859,0.92773 0.20793,0.2535 0.49691,0.42448 0.86719,0.51563 -0.41586,0.0968 -0.74105,0.28637 -0.97461,0.56836 -0.23357,0.28197 -0.34961,0.62784 -0.34961,1.03515 0,0.61808 0.18652,1.09148 0.5625,1.42188 0.37883,0.3304 0.92147,0.49609 1.625,0.49609 0.70353,0 1.24316,-0.16569 1.61914,-0.49609 0.37882,-0.3304 0.56836,-0.8038 0.56836,-1.42188 0,-0.40731 -0.118,-0.75321 -0.35156,-1.03515 -0.23072,-0.28198 -0.5529,-0.47152 -0.96875,-0.56836 0.36743,-0.0911 0.65234,-0.26213 0.85742,-0.51563 0.20792,-0.25349 0.3125,-0.56315 0.3125,-0.92773 0,-0.50985 -0.18124,-0.91276 -0.54297,-1.20899 -0.36174,-0.29622 -0.85897,-0.44336 -1.49414,-0.44336 z m 5.57031,0 c -0.71492,0 -1.2618,0.2828 -1.64062,0.84961 -0.37598,0.56396 -0.56446,1.38427 -0.56446,2.46094 0,1.07381 0.18848,1.89412 0.56446,2.46094 0.37882,0.56396 0.9257,0.8457 1.64062,0.8457 0.71493,0 1.26074,-0.28174 1.63672,-0.8457 0.37882,-0.56682 0.56836,-1.38713 0.56836,-2.46094 0,-1.07667 -0.18954,-1.89698 -0.56836,-2.46094 -0.37598,-0.56681 -0.92179,-0.84961 -1.63672,-0.84961 z m 9.25,0 c -0.99691,0 -1.77783,0.2911 -2.3418,0.875 -0.56111,0.58106 -0.84179,1.39306 -0.84179,2.43555 0,1.03963 0.28068,1.85164 0.84179,2.43555 0.56397,0.58105 1.34489,0.87109 2.3418,0.87109 0.45573,0 0.88355,-0.0601 1.28516,-0.17969 0.40161,-0.12248 0.77026,-0.3007 1.10351,-0.53711 l 0,-2.74023 -2.26562,0 0,0.70898 1.41015,0 0,1.71485 c -0.19083,0.11107 -0.40527,0.19391 -0.64453,0.24804 -0.23925,0.0513 -0.51163,0.0762 -0.8164,0.0762 -0.78044,0 -1.3667,-0.21851 -1.75977,-0.6543 -0.39022,-0.43579 -0.58594,-1.08317 -0.58594,-1.94336 0,-0.86304 0.19572,-1.51343 0.58594,-1.94922 0.39307,-0.43579 0.97933,-0.65234 1.75977,-0.65234 0.39592,0 0.77392,0.0683 1.13281,0.20508 0.35889,0.13671 0.69662,0.34073 1.01562,0.61132 l 0,-0.91992 c -0.31616,-0.19938 -0.66113,-0.35058 -1.03711,-0.45312 -0.37312,-0.10254 -0.76774,-0.15235 -1.18359,-0.15235 z M 64,148.49805 l 0,0.72461 3.0625,0 -2.177734,5.65429 0.90039,0 2.316406,-6.01172 0,-0.36718 -4.101562,0 z m 23.28125,0 0,6.3789 2.289062,0 c 0.714925,0 1.266927,-0.15633 1.654297,-0.46679 0.38737,-0.31047 0.580079,-0.75066 0.580079,-1.32032 -10e-7,-0.43294 -0.117107,-0.79239 -0.353516,-1.08007 -0.233561,-0.29053 -0.563883,-0.48112 -0.988281,-0.57227 0.35319,-0.057 0.622395,-0.20093 0.804687,-0.43164 0.182291,-0.23071 0.273438,-0.54142 0.273438,-0.93164 0,-0.50415 -0.179119,-0.89258 -0.535157,-1.16602 -0.356038,-0.27344 -0.863525,-0.41015 -1.521484,-0.41015 l -2.203125,0 z m 43.13477,0 0,6.3789 2.28906,0 c 0.71492,0 1.26692,-0.15633 1.6543,-0.46679 0.38736,-0.31047 0.58007,-0.75066 0.58007,-1.32032 0,-0.43294 -0.11711,-0.79239 -0.35351,-1.08007 -0.23356,-0.29053 -0.56388,-0.48112 -0.98828,-0.57227 0.35318,-0.057 0.62239,-0.20093 0.80468,-0.43164 0.1823,-0.23071 0.27344,-0.54142 0.27344,-0.93164 0,-0.50415 -0.17911,-0.89258 -0.53516,-1.16602 -0.35604,-0.27344 -0.86353,-0.41015 -1.52148,-0.41015 l -2.20312,0 z m -21.2168,0.56836 c 0.37028,0 0.65926,0.0922 0.86719,0.27734 0.21078,0.18514 0.3164,0.44303 0.3164,0.77344 0,0.3304 -0.10562,0.58829 -0.3164,0.77343 -0.20793,0.18515 -0.49691,0.27735 -0.86719,0.27735 -0.37313,0 -0.66512,-0.0922 -0.87305,-0.27735 -0.20507,-0.18513 -0.30664,-0.44303 -0.30664,-0.77343 0,-0.33041 0.10157,-0.5883 0.30664,-0.77344 0.20793,-0.18514 0.49992,-0.27734 0.87305,-0.27734 z m 5.57031,0 c 0.44719,0 0.78174,0.21761 1.00391,0.65625 0.22502,0.43579 0.33789,1.09342 0.33789,1.9707 0,0.87443 -0.11287,1.53011 -0.33789,1.96875 -0.22217,0.43579 -0.55672,0.6543 -1.00391,0.6543 -0.44433,0 -0.77888,-0.21851 -1.00391,-0.6543 -0.22216,-0.43864 -0.33398,-1.09432 -0.33398,-1.96875 0,-0.87728 0.11181,-1.53491 0.33398,-1.9707 0.22505,-0.43864 0.55958,-0.65625 1.00391,-0.65625 z m -26.624999,0.14062 1.277344,0 c 0.421549,0 0.734375,0.0788 0.939453,0.23828 0.207927,0.15951 0.3125,0.4008 0.3125,0.72266 0,0.32471 -0.104573,0.56705 -0.3125,0.72656 -0.205078,0.15665 -0.517904,0.23438 -0.939453,0.23438 l -1.277344,0 0,-1.92188 z m 43.134769,0 1.27734,0 c 0.42155,0 0.73437,0.0788 0.93945,0.23828 0.20793,0.15951 0.3125,0.4008 0.3125,0.72266 0,0.32471 -0.10457,0.56705 -0.3125,0.72656 -0.20508,0.15665 -0.5179,0.23438 -0.93945,0.23438 l -1.27734,0 0,-1.92188 z m -33.394534,0.76953 c -0.686442,0 -1.225016,0.22168 -1.615235,0.66602 -0.387369,0.44433 -0.580078,1.05957 -0.580078,1.8457 0,0.78329 0.192709,1.39852 0.580078,1.8457 0.390219,0.44434 0.928793,0.66602 1.615235,0.66602 0.683593,0 1.22111,-0.22168 1.611328,-0.66602 0.390216,-0.44718 0.583986,-1.06241 0.583986,-1.8457 0,-0.78613 -0.19377,-1.40137 -0.583986,-1.8457 -0.390218,-0.44434 -0.927735,-0.66602 -1.611328,-0.66602 z m -13.064454,0.11524 0,4.78515 0.785157,0 0,-4.78515 -0.785157,0 z m 43.134768,0 0,4.78515 0.78515,0 0,-4.78515 -0.78515,0 z m -30.070314,0.55078 c 0.4187,0 0.751139,0.16674 0.996093,0.5 0.244955,0.3304 0.367188,0.77889 0.367188,1.3457 0,0.56967 -0.122233,1.01921 -0.367188,1.34961 -0.244954,0.33041 -0.577393,0.49609 -0.996093,0.49609 -0.424398,0 -0.758952,-0.16462 -1.003907,-0.49218 -0.242106,-0.3304 -0.363281,-0.78101 -0.363281,-1.35352 0,-0.57251 0.122233,-1.02205 0.367188,-1.34961 0.244954,-0.3304 0.57845,-0.49609 1,-0.49609 z m -9.740235,1.1875 1.382813,0 c 0.464274,0 0.807129,0.0943 1.029297,0.28515 0.225016,0.18799 0.33789,0.4821 0.33789,0.88086 0,0.39592 -0.112874,0.69108 -0.33789,0.88477 -0.222168,0.19083 -0.565023,0.28516 -1.029297,0.28516 l -1.382813,0 0,-2.33594 z m 43.134769,0 1.38281,0 c 0.46427,0 0.80713,0.0943 1.0293,0.28515 0.22502,0.18799 0.33789,0.4821 0.33789,0.88086 0,0.39592 -0.11287,0.69108 -0.33789,0.88477 -0.22217,0.19083 -0.56503,0.28516 -1.0293,0.28516 l -1.38281,0 0,-2.33594 z m -22.08008,0.0176 c 0.41301,0 0.73519,0.1088 0.96875,0.32812 0.23641,0.21932 0.35547,0.52172 0.35547,0.90625 0,0.38167 -0.11906,0.68408 -0.35547,0.90625 -0.23641,0.21932 -0.55859,0.32813 -0.96875,0.32813 -0.41015,0 -0.7343,-0.10881 -0.9707,-0.32813 -0.23357,-0.21932 -0.34961,-0.52173 -0.34961,-0.90625 0,-0.38453 0.11604,-0.68693 0.34961,-0.90625 0.2364,-0.21932 0.56055,-0.32812 0.9707,-0.32812 z M 19,169 l 0,1 216,0 0,-1 -216,0 z m 183.99023,24.22852 0,0.99414 0.78516,0 0,-0.99414 -0.78516,0 z m 12.89063,0 c -0.53833,0 -0.93189,0.12223 -1.17969,0.36718 -0.2478,0.24211 -0.37109,0.62948 -0.37109,1.16211 l 0,0.33399 -0.75196,0 0,0.60937 0.75196,0 0,4.17578 0.78906,0 0,-4.17578 1.29492,0 0,-0.60937 -1.29492,0 0,-0.42383 c 0,-0.29623 0.0539,-0.5013 0.16211,-0.61524 0.11109,-0.11392 0.30786,-0.16992 0.58984,-0.16992 l 0.75196,0 0,-0.65429 -0.74219,0 z m -23.28906,0.15429 c -0.71493,0 -1.26181,0.2828 -1.64063,0.84961 -0.37598,0.56396 -0.56445,1.38427 -0.56445,2.46094 0,1.07381 0.18847,1.89412 0.56445,2.46094 0.37882,0.56396 0.9257,0.8457 1.64063,0.8457 0.71492,0 1.25879,-0.28174 1.63476,-0.8457 0.37883,-0.56682 0.56836,-1.38713 0.56836,-2.46094 0,-1.07667 -0.18953,-1.89698 -0.56836,-2.46094 -0.37597,-0.56681 -0.91984,-0.84961 -1.63476,-0.84961 z m 6.46289,0 c -0.99692,0 -1.77589,0.2911 -2.33985,0.875 -0.56112,0.58106 -0.84179,1.39306 -0.84179,2.43555 0,1.03963 0.28067,1.85164 0.84179,2.43555 0.56396,0.58105 1.34293,0.87109 2.33985,0.87109 0.45572,0 0.88549,-0.0601 1.28711,-0.17969 0.4016,-0.12248 0.76831,-0.3007 1.10156,-0.53711 l 0,-2.74023 -2.26367,0 0,0.70898 1.41015,0 0,1.71485 c -0.19084,0.11107 -0.40723,0.19391 -0.64648,0.24804 -0.23926,0.0513 -0.51164,0.0762 -0.81641,0.0762 -0.78044,0 -1.3667,-0.21851 -1.75976,-0.6543 -0.39022,-0.43579 -0.58399,-1.08317 -0.58399,-1.94336 0,-0.86304 0.19377,-1.51343 0.58399,-1.94922 0.39306,-0.43579 0.97932,-0.65234 1.75976,-0.65234 0.39592,0 0.77393,0.0683 1.13282,0.20508 0.35888,0.13671 0.69856,0.34073 1.01757,0.61132 l 0,-0.91992 c -0.31616,-0.19938 -0.66309,-0.35058 -1.03906,-0.45312 -0.37313,-0.10254 -0.76774,-0.15235 -1.18359,-0.15235 z m -14.09961,0.11524 0,0.72461 3.06445,0 -2.17969,5.65429 0.90235,0 2.3164,-6.01172 0,-0.36718 -4.10351,0 z m 20.49609,0 0,6.3789 2.28906,0 c 0.71493,0 1.26693,-0.15633 1.6543,-0.46679 0.38737,-0.31047 0.58203,-0.75066 0.58203,-1.32032 0,-0.43294 -0.11905,-0.79239 -0.35547,-1.08007 -0.23356,-0.29053 -0.56192,-0.48112 -0.98632,-0.57227 0.35319,-0.057 0.62044,-0.20093 0.80273,-0.43164 0.18229,-0.23071 0.27344,-0.54142 0.27344,-0.93164 0,-0.50415 -0.17913,-0.89258 -0.53516,-1.16602 -0.35604,-0.27344 -0.86157,-0.41015 -1.51953,-0.41015 l -2.20508,0 z m -12.85937,0.56836 c 0.44718,0 0.78174,0.21761 1.0039,0.65625 0.22502,0.43579 0.33594,1.09342 0.33594,1.9707 0,0.87443 -0.11092,1.53011 -0.33594,1.96875 -0.22216,0.43579 -0.55672,0.6543 -1.0039,0.6543 -0.44434,0 -0.78084,-0.21851 -1.00586,-0.6543 -0.22217,-0.43864 -0.33203,-1.09432 -0.33203,-1.96875 0,-0.87728 0.10986,-1.53491 0.33203,-1.9707 0.22502,-0.43864 0.56152,-0.65625 1.00586,-0.65625 z m 13.72265,0.14062 1.27735,0 c 0.42155,0 0.73438,0.0788 0.93945,0.23828 0.20793,0.15951 0.3125,0.4008 0.3125,0.72266 0,0.32471 -0.10457,0.56705 -0.3125,0.72656 -0.20507,0.15665 -0.5179,0.23438 -0.93945,0.23438 l -1.27735,0 0,-1.92188 z m 13.33399,0.76758 c -0.37883,0 -0.69995,0.0724 -0.96485,0.21484 -0.26489,0.13957 -0.48128,0.35401 -0.64648,0.64453 l 0,-0.74218 -0.78906,0 0,4.78515 0.78906,0 0,-2.52148 c 0,-0.54118 0.11906,-0.95646 0.35547,-1.24414 0.23926,-0.29053 0.58106,-0.43555 1.02539,-0.43555 0.12533,0 0.23926,0.0134 0.3418,0.0391 0.10477,0.0227 0.20118,0.0605 0.28906,0.11133 l -0.004,-0.80859 c -0.0797,-0.0139 -0.15126,-0.0233 -0.2168,-0.0293 -0.0655,-0.009 -0.12555,-0.0137 -0.17968,-0.0137 z m 3.05078,0.002 c -0.71777,0 -1.2885,0.22999 -1.71289,0.69141 -0.42156,0.45858 -0.63281,1.07999 -0.63281,1.86328 0,0.75765 0.22167,1.35839 0.66601,1.80273 0.44718,0.44434 1.05306,0.66602 1.81641,0.66602 0.30477,0 0.60417,-0.0311 0.90039,-0.0937 0.29622,-0.0627 0.58521,-0.15381 0.86719,-0.27344 l 0,-0.74414 c -0.27914,0.14812 -0.56087,0.25993 -0.84571,0.33399 -0.28198,0.0741 -0.57308,0.11132 -0.875,0.11132 -0.52124,0 -0.92928,-0.14184 -1.22265,-0.42382 -0.29051,-0.28483 -0.45213,-0.69711 -0.48633,-1.23828 l 3.61523,0 0,-0.38477 c 0,-0.71208 -0.18847,-1.2745 -0.56445,-1.6875 -0.37313,-0.41585 -0.88167,-0.62305 -1.52539,-0.62305 z m 5.38281,0 c -0.71777,0 -1.28849,0.22999 -1.71289,0.69141 -0.42155,0.45858 -0.63281,1.07999 -0.63281,1.86328 0,0.75765 0.22167,1.35839 0.66601,1.80273 0.44718,0.44434 1.05306,0.66602 1.81641,0.66602 0.30477,0 0.60612,-0.0311 0.90234,-0.0937 0.29623,-0.0627 0.58521,-0.15381 0.86719,-0.27344 l 0,-0.74414 c -0.27913,0.14812 -0.56088,0.25993 -0.8457,0.33399 -0.28199,0.0741 -0.57501,0.11132 -0.87696,0.11132 -0.52124,0 -0.92732,-0.14184 -1.2207,-0.42382 -0.2905,-0.28483 -0.45408,-0.69711 -0.48828,-1.23828 l 3.61524,0 0,-0.38477 c 0,-0.71208 -0.18848,-1.2745 -0.56446,-1.6875 -0.37312,-0.41585 -0.88168,-0.62305 -1.52539,-0.62305 z m -25.0918,0.11524 0,4.78515 0.78516,0 0,-4.78515 -0.78516,0 z m 19.7168,0.55078 c 0.38737,0 0.69808,0.12842 0.93164,0.38476 0.23611,0.25635 0.35728,0.59921 0.36328,1.0293 l -2.80273,0.004 c 0.0399,-0.45004 0.19108,-0.79907 0.45312,-1.04688 0.2649,-0.2478 0.61605,-0.37109 1.05469,-0.37109 z m 5.38281,0 c 0.38737,0 0.69808,0.12842 0.93164,0.38476 0.23611,0.25635 0.35729,0.59921 0.36329,1.0293 l -2.80274,0.004 c 0.0399,-0.45004 0.19109,-0.79907 0.45313,-1.04688 0.26489,-0.2478 0.61604,-0.37109 1.05468,-0.37109 z m -21.77539,1.1875 1.38477,0 c 0.46428,0 0.80713,0.0943 1.0293,0.28515 0.22501,0.18799 0.33789,0.4821 0.33789,0.88086 0,0.39592 -0.11288,0.69108 -0.33789,0.88477 -0.22217,0.19083 -0.56502,0.28516 -1.0293,0.28516 l -1.38477,0 0,-2.33594 z m -121.443356,27.39844 0,0.99414 0.785156,0 0,-0.99414 -0.785156,0 z m 18.238286,0 c -0.53836,0 -0.92994,0.12223 -1.17774,0.36718 -0.24781,0.24211 -0.37305,0.62948 -0.37305,1.16211 l 0,0.33399 -0.75195,0 0,0.60937 0.75195,0 0,4.17578 0.79102,0 0,-4.17578 1.29492,0 0,-0.60937 -1.29492,0 0,-0.42383 c 0,-0.29623 0.0539,-0.5013 0.16211,-0.61524 0.11109,-0.11392 0.30786,-0.16992 0.58984,-0.16992 l 0.75196,0 0,-0.65429 -0.74414,0 z m 30.46679,0 0,0.99414 0.78711,0 0,-0.99414 -0.78711,0 z m -67.654295,0.15429 c -0.253499,0 -0.522868,0.0228 -0.810547,0.0684 -0.284831,0.0456 -0.592366,0.11393 -0.919922,0.20508 l 0,0.76758 c 0.324707,-0.10824 0.623942,-0.18702 0.894532,-0.23828 0.270589,-0.0513 0.523356,-0.0781 0.759765,-0.0781 0.432943,0 0.765381,0.089 0.996094,0.26563 0.233561,0.17374 0.349609,0.4244 0.349609,0.75195 0,0.31901 -0.112874,0.56347 -0.33789,0.73438 -0.225017,0.16804 -0.548259,0.25195 -0.972657,0.25195 l -0.779297,0 0,0.71094 0.744141,0 c 0.469971,0 0.835612,0.10669 1.097656,0.32031 0.264892,0.21078 0.398438,0.50293 0.398438,0.8789 0,0.40731 -0.142901,0.71802 -0.427735,0.93164 -0.281981,0.21362 -0.693196,0.32032 -1.234374,0.32032 -0.310469,0 -0.607748,-0.0362 -0.892579,-0.10742 -0.28483,-0.0712 -0.547851,-0.17489 -0.787109,-0.31446 l 0,0.83203 c 0.301921,0.10539 0.593018,0.18311 0.875,0.23438 0.284831,0.0541 0.562337,0.082 0.830078,0.082 0.797526,0 1.412761,-0.17293 1.845703,-0.51758 0.432943,-0.34464 0.648438,-0.83146 0.648438,-1.46094 0,-0.41015 -0.116048,-0.75407 -0.34961,-1.0332 -0.230712,-0.27914 -0.551839,-0.46249 -0.964843,-0.55078 0.373128,-0.094 0.659098,-0.26375 0.861328,-0.50586 0.20223,-0.24495 0.304687,-0.54329 0.304687,-0.89648 0,-0.507 -0.190592,-0.90886 -0.572265,-1.20508 -0.381674,-0.29908 -0.90153,-0.44727 -1.556641,-0.44727 z m 5.763672,0 c -0.714925,0 -1.2618,0.2828 -1.640625,0.84961 -0.375977,0.56396 -0.5625,1.38427 -0.5625,2.46094 0,1.07381 0.186523,1.89412 0.5625,2.46094 0.378825,0.56396 0.9257,0.8457 1.640625,0.8457 0.714925,0 1.260742,-0.28174 1.636719,-0.8457 0.378824,-0.56682 0.568359,-1.38713 0.568359,-2.46094 0,-1.07667 -0.189535,-1.89698 -0.568359,-2.46094 -0.375977,-0.56681 -0.921794,-0.84961 -1.636719,-0.84961 z m 9.25,0 c -0.996907,0 -1.775879,0.2911 -2.339844,0.875 -0.561117,0.58106 -0.841797,1.39306 -0.841797,2.43555 0,1.03963 0.28068,1.85164 0.841797,2.43555 0.563965,0.58105 1.342937,0.87109 2.339844,0.87109 0.455729,0 0.885498,-0.0601 1.287109,-0.17969 0.401612,-0.12248 0.768311,-0.3007 1.101563,-0.53711 l 0,-2.74023 -2.263672,0 0,0.70898 1.410156,0 0,1.71485 c -0.190837,0.11107 -0.407226,0.19391 -0.646484,0.24804 -0.239258,0.0513 -0.511638,0.0762 -0.816407,0.0762 -0.780433,0 -1.366698,-0.21851 -1.759765,-0.6543 -0.390218,-0.43579 -0.583982,-1.08317 -0.583985,-1.94336 0,-0.86304 0.193767,-1.51343 0.583985,-1.94922 0.393067,-0.43579 0.979333,-0.65234 1.759765,-0.65234 0.395916,0 0.773926,0.0683 1.132813,0.20508 0.358887,0.13671 0.698567,0.34073 1.017578,0.61132 l 0,-0.91992 c -0.316162,-0.19938 -0.663086,-0.35058 -1.039062,-0.45312 -0.373129,-0.10254 -0.767741,-0.15235 -1.183594,-0.15235 z m 33.884763,0 c -0.71492,0 -1.2618,0.2828 -1.64062,0.84961 -0.37598,0.56396 -0.5625,1.38427 -0.5625,2.46094 0,1.07381 0.18652,1.89412 0.5625,2.46094 0.37882,0.56396 0.9257,0.8457 1.64062,0.8457 0.71493,0 1.26074,-0.28174 1.63672,-0.8457 0.37882,-0.56682 0.56836,-1.38713 0.56836,-2.46094 0,-1.07667 -0.18954,-1.89698 -0.56836,-2.46094 -0.37598,-0.56681 -0.92179,-0.84961 -1.63672,-0.84961 z m 5.57227,0 c -0.71493,0 -1.26181,0.2828 -1.64063,0.84961 -0.37598,0.56396 -0.56445,1.38427 -0.56445,2.46094 0,1.07381 0.18847,1.89412 0.56445,2.46094 0.37882,0.56396 0.9257,0.8457 1.64063,0.8457 0.71492,0 1.26074,-0.28174 1.63672,-0.8457 0.37882,-0.56682 0.56836,-1.38713 0.56836,-2.46094 0,-1.07667 -0.18954,-1.89698 -0.56836,-2.46094 -0.37598,-0.56681 -0.9218,-0.84961 -1.63672,-0.84961 z m 9.25,0 c -0.99691,0 -1.77783,0.2911 -2.3418,0.875 -0.56111,0.58106 -0.8418,1.39306 -0.8418,2.43555 0,1.03963 0.28069,1.85164 0.8418,2.43555 0.56397,0.58105 1.34489,0.87109 2.3418,0.87109 0.45572,0 0.88354,-0.0601 1.28515,-0.17969 0.40162,-0.12248 0.77027,-0.3007 1.10352,-0.53711 l 0,-2.74023 -2.26563,0 0,0.70898 1.41016,0 0,1.71485 c -0.19083,0.11107 -0.40527,0.19391 -0.64453,0.24804 -0.23926,0.0513 -0.51164,0.0762 -0.81641,0.0762 -0.78043,0 -1.3667,-0.21851 -1.75976,-0.6543 -0.39022,-0.43579 -0.58594,-1.08317 -0.58594,-1.94336 0,-0.86304 0.19572,-1.51343 0.58594,-1.94922 0.39306,-0.43579 0.97933,-0.65234 1.75976,-0.65234 0.39592,0 0.77393,0.0683 1.13282,0.20508 0.35888,0.13671 0.69661,0.34073 1.01562,0.61132 l 0,-0.91992 c -0.31616,-0.19938 -0.66113,-0.35058 -1.03711,-0.45312 -0.37312,-0.10254 -0.76774,-0.15235 -1.18359,-0.15235 z m -42.310549,0.11524 0,6.3789 2.289063,0 c 0.714925,0 1.266927,-0.15633 1.654297,-0.46679 0.387369,-0.31047 0.580078,-0.75066 0.580078,-1.32032 0,-0.43294 -0.117107,-0.79239 -0.353516,-1.08007 -0.233561,-0.29053 -0.561931,-0.48112 -0.986328,-0.57227 0.35319,-0.057 0.620443,-0.20093 0.802734,-0.43164 0.182292,-0.23071 0.273438,-0.54142 0.273438,-0.93164 0,-0.50415 -0.179118,-0.89258 -0.535156,-1.16602 -0.356039,-0.27344 -0.861573,-0.41015 -1.519532,-0.41015 l -2.205078,0 z m 21.623049,0 -1.52539,0.30664 0,0.78711 1.5332,-0.3086 0,4.86719 -1.41016,0 0,0.72656 3.67579,0 0,-0.72656 -1.41016,0 0,-5.65234 -0.86328,0 z m 27.08203,0 0,6.3789 2.29101,0 c 0.71493,0 1.26693,-0.15633 1.6543,-0.46679 0.38737,-0.31047 0.58008,-0.75066 0.58008,-1.32032 0,-0.43294 -0.11906,-0.79239 -0.35547,-1.08007 -0.23357,-0.29053 -0.56193,-0.48112 -0.98633,-0.57227 0.35319,-0.057 0.62044,-0.20093 0.80274,-0.43164 0.18229,-0.23071 0.27344,-0.54142 0.27344,-0.93164 -10e-6,-0.50415 -0.17717,-0.89258 -0.53321,-1.16602 -0.35604,-0.27344 -0.86352,-0.41015 -1.52148,-0.41015 l -2.20508,0 z m -64.351563,0.56836 c 0.447185,0 0.781738,0.21761 1.003906,0.65625 0.225016,0.43579 0.337891,1.09342 0.337891,1.9707 0,0.87443 -0.112875,1.53011 -0.337891,1.96875 -0.222168,0.43579 -0.556721,0.6543 -1.003906,0.6543 -0.444336,0 -0.77889,-0.21851 -1.003906,-0.6543 -0.222168,-0.43864 -0.332032,-1.09432 -0.332032,-1.96875 0,-0.87728 0.109864,-1.53491 0.332032,-1.9707 0.225016,-0.43864 0.55957,-0.65625 1.003906,-0.65625 z m 43.134763,0 c 0.44719,0 0.78174,0.21761 1.00391,0.65625 0.22502,0.43579 0.33789,1.09342 0.33789,1.9707 0,0.87443 -0.11287,1.53011 -0.33789,1.96875 -0.22217,0.43579 -0.55672,0.6543 -1.00391,0.6543 -0.44433,0 -0.77888,-0.21851 -1.0039,-0.6543 -0.22217,-0.43864 -0.33206,-1.09432 -0.33203,-1.96875 -3e-5,-0.87728 0.10986,-1.53491 0.33203,-1.9707 0.22502,-0.43864 0.55957,-0.65625 1.0039,-0.65625 z m 5.57227,0 c 0.44718,0 0.78174,0.21761 1.0039,0.65625 0.22502,0.43579 0.33787,1.09342 0.3379,1.9707 0,0.87443 -0.11288,1.53011 -0.3379,1.96875 -0.22216,0.43579 -0.55672,0.6543 -1.0039,0.6543 -0.44434,0 -0.77889,-0.21851 -1.00391,-0.6543 -0.22216,-0.43864 -0.33398,-1.09432 -0.33398,-1.96875 0,-0.87728 0.11182,-1.53491 0.33398,-1.9707 0.22502,-0.43864 0.55957,-0.65625 1.00391,-0.65625 z m -32.197268,0.14062 1.277344,0 c 0.42155,0 0.734375,0.0788 0.939453,0.23828 0.207926,0.15951 0.3125,0.4008 0.3125,0.72266 0,0.32471 -0.104574,0.56705 -0.3125,0.72656 -0.205078,0.15665 -0.517903,0.23438 -0.939453,0.23438 l -1.277344,0 0,-1.92188 z m 48.705078,0 1.27734,0 c 0.42155,0 0.73633,0.0788 0.94141,0.23828 0.20793,0.15951 0.31055,0.4008 0.31055,0.72266 0,0.32471 -0.10262,0.56705 -0.31055,0.72656 -0.20508,0.15665 -0.51986,0.23438 -0.94141,0.23438 l -1.27734,0 0,-1.92188 z m -38.964843,0.76953 c -0.686442,0 -1.225013,0.22168 -1.615235,0.66602 -0.38737,0.44433 -0.580078,1.05957 -0.580078,1.8457 0,0.78329 0.192711,1.39852 0.580078,1.8457 0.39022,0.44434 0.928793,0.66602 1.615235,0.66602 0.683594,0 1.22111,-0.22168 1.611328,-0.66602 0.390217,-0.44718 0.585935,-1.06241 0.585935,-1.8457 0,-0.78613 -0.195718,-1.40137 -0.585935,-1.8457 -0.390218,-0.44434 -0.927734,-0.66602 -1.611328,-0.66602 z m -13.064453,0.11524 0,4.78515 0.785156,0 0,-4.78515 -0.785156,0 z m 48.705076,0 0,4.78515 0.78711,0 0,-4.78515 -0.78711,0 z m -35.640623,0.55078 c 0.418701,0 0.751139,0.16674 0.996094,0.5 0.244954,0.3304 0.367187,0.77889 0.367187,1.3457 0,0.56967 -0.122233,1.01921 -0.367187,1.34961 -0.244955,0.33041 -0.577393,0.49609 -0.996094,0.49609 -0.424397,0 -0.758952,-0.16462 -1.003906,-0.49218 -0.242106,-0.3304 -0.363282,-0.78101 -0.363282,-1.35352 0,-0.57251 0.122234,-1.02205 0.367188,-1.34961 0.244955,-0.3304 0.578451,-0.49609 1,-0.49609 z m -9.740235,1.1875 1.384766,0 c 0.464274,0 0.807129,0.0943 1.029297,0.28515 0.225016,0.18799 0.337891,0.4821 0.337891,0.88086 0,0.39592 -0.112875,0.69108 -0.337891,0.88477 -0.222168,0.19083 -0.565023,0.28516 -1.029297,0.28516 l -1.384766,0 0,-2.33594 z m 48.705078,0 1.38477,0 c 0.46427,0 0.80713,0.0943 1.02929,0.28515 0.22502,0.18799 0.33789,0.4821 0.33789,0.88086 0,0.39592 -0.11287,0.69108 -0.33789,0.88477 -0.22216,0.19083 -0.56502,0.28516 -1.02929,0.28516 l -1.38477,0 0,-2.33594 z"
     id="path3501"
     class="ColorScheme-Text"
     inkscape:connector-curvature="0" />
  <rect
     style="opacity:0.3;fill:currentColor;fill-opacity:1;stroke:none"
     id="rect6597"
     width="6.0376868"
     height="166"
     x="-65.037712"
     y="65"
     ry="3"
     transform="matrix(0,-1,1,0,0,0)"
     class="ColorScheme-Text" />
  <rect
     ry="3"
     y="65"
     x="-65.000023"
     height="110"
     width="6"
     id="rect6599"
     style="fill:currentColor;fill-opacity:1;stroke:none"
     transform="matrix(0,-1,1,0,0,0)"
     class="ColorScheme-Highlight" />
  <rect
     style="opacity:0.3;fill:currentColor;fill-opacity:1;stroke:none"
     id="rect6597-7"
     width="6"
     height="166"
     x="-138.00002"
     y="65"
     ry="3"
     transform="matrix(0,-1,1,0,0,0)"
     class="ColorScheme-Text" />
  <rect
     ry="3"
     y="65"
     x="-138.00002"
     height="150"
     width="6"
     id="rect6599-9"
     style="fill:currentColor;fill-opacity:1;stroke:none"
     transform="matrix(0,-1,1,0,0,0)"
     class="ColorScheme-Highlight" />
  <rect
     style="opacity:0.3;fill:currentColor;fill-opacity:1;stroke:none"
     id="rect6597-7-1"
     width="6.0000153"
     height="166"
     x="-214.00002"
     y="65"
     ry="3"
     transform="matrix(0,-1,1,0,0,0)"
     class="ColorScheme-Text" />
  <rect
     ry="3"
     y="65"
     x="-214.00002"
     height="55"
     width="6"
     id="rect6599-9-5"
     style="fill:currentColor;fill-opacity:1;stroke:none"
     transform="matrix(0,-1,1,0,0,0)"
     class="ColorScheme-Highlight" />
  <g
     id="quota"
     inkscape:label="#g2992"
     transform="matrix(1.5287095,0,0,1.625,-476.93349,-832.21357)"
     style="">
    <path
       sodipodi:nodetypes="cccccccccccccccccccccc"
       id="rect4127"
       d="m 328.99219,537.3622 0,1 0,15 1,0 9,0 0,-1 -9,0 0,-8 3,0 0,-0.01 0.008,0.01 2,-2 8.99219,0 0,3 1,0 0,-6 -6.99238,0 -2,-2 -0.008,0.01 0,-0.01 -6,0 z"
       style="fill:currentColor"
       inkscape:connector-curvature="0"
       class="ColorScheme-Text" />
    <path
       inkscape:connector-curvature="0"
       id="path4203"
       transform="translate(326,534.3622)"
       d="m 17,12 a 3,1 0 0 0 -3,1 l 0,5 a 3,1 0 0 0 3,1 3,1 0 0 0 3,-1 l 0,-5 a 3,1 0 0 0 -3,-1 z m 0,1 a 3,1 0 0 1 2,0.257812 l 0,0.486329 A 3,1 0 0 1 17,14 3,1 0 0 1 15,13.742188 l 0,-0.486329 A 3,1 0 0 1 17,13 Z m -2,1.744141 A 3,1 0 0 0 17,15 3,1 0 0 0 19,14.744141 l 0,1 A 3,1 0 0 1 17,16 3,1 0 0 1 15,15.742188 l 0,-0.998047 z m 0,2 A 3,1 0 0 0 17,17 3,1 0 0 0 19,16.744141 l 0,1 A 3,1 0 0 1 17,18 3,1 0 0 1 15,17.742188 l 0,-0.998047 z"
       style="fill:currentColor"
       class="ColorScheme-Text" />
  </g>
  <g
     transform="matrix(1.5287095,0,0,1.625,-475.04309,-759.21357)"
     id="quota-missing"
     inkscape:label="#g3039">
    <path
       sodipodi:nodetypes="cccccccccccccccccccccc"
       id="rect4127-2"
       d="m 328.99219,537.3622 0,1 0,15 1,0 9,0 0,-1 -9,0 0,-8 3,0 0,-0.01 0.008,0.01 2,-2 8.99219,0 0,3 1,0 0,-6 -6.99238,0 -2,-2 -0.008,0.01 0,-0.01 -6,0 z"
       style="fill:currentColor"
       inkscape:connector-curvature="0"
       class="ColorScheme-Text" />
    <path
       inkscape:connector-curvature="0"
       id="path4203-8"
       transform="translate(326,534.3622)"
       d="m 17,12 a 3,1 0 0 0 -3,1 l 0,5 a 3,1 0 0 0 3,1 3,1 0 0 0 3,-1 l 0,-5 a 3,1 0 0 0 -3,-1 z m 0,1 a 3,1 0 0 1 2,0.257812 l 0,0.486329 A 3,1 0 0 1 17,14 3,1 0 0 1 15,13.742188 l 0,-0.486329 A 3,1 0 0 1 17,13 Z m -2,1.744141 A 3,1 0 0 0 17,15 3,1 0 0 0 19,14.744141 l 0,1 A 3,1 0 0 1 17,16 3,1 0 0 1 15,15.742188 l 0,-0.998047 z m 0,2 A 3,1 0 0 0 17,17 3,1 0 0 0 19,16.744141 l 0,1 A 3,1 0 0 1 17,18 3,1 0 0 1 15,17.742188 l 0,-0.998047 z"
       style="fill:currentColor"
       class="ColorScheme-Text" />
    <path
       inkscape:connector-curvature="0"
       id="path4247"
       transform="translate(326,534.3622)"
       d="m 11,9 c -0.55228,0 -1,0.44772 -1,1 0,0.55228 0.44772,4 1,4 0.55228,0 1,-3.44772 1,-4 0,-0.55228 -0.44772,-1 -1,-1 z m 0,6 a 1,1 0 0 0 -1,1 1,1 0 0 0 1,1 1,1 0 0 0 1,-1 1,1 0 0 0 -1,-1 z"
       style="fill:#f47750;fill-opacity:1;stroke:none" />
  </g>
  <g
     transform="matrix(1.5287095,0,0,1.625,-476.93349,-683.21357)"
     inkscape:label="#g2992"
     id="g3409">
    <path
       inkscape:connector-curvature="0"
       style="fill:currentColor"
       d="m 328.99219,537.3622 0,1 0,15 1,0 9,0 0,-1 -9,0 0,-8 3,0 0,-0.01 0.008,0.01 2,-2 8.99219,0 0,3 1,0 0,-6 -6.99238,0 -2,-2 -0.008,0.01 0,-0.01 -6,0 z"
       id="path3411"
       sodipodi:nodetypes="cccccccccccccccccccccc"
       class="ColorScheme-Text" />
    <path
       style="fill:currentColor"
       d="m 17,12 a 3,1 0 0 0 -3,1 l 0,5 a 3,1 0 0 0 3,1 3,1 0 0 0 3,-1 l 0,-5 a 3,1 0 0 0 -3,-1 z m 0,1 a 3,1 0 0 1 2,0.257812 l 0,0.486329 A 3,1 0 0 1 17,14 3,1 0 0 1 15,13.742188 l 0,-0.486329 A 3,1 0 0 1 17,13 Z m -2,1.744141 A 3,1 0 0 0 17,15 3,1 0 0 0 19,14.744141 l 0,1 A 3,1 0 0 1 17,16 3,1 0 0 1 15,15.742188 l 0,-0.998047 z m 0,2 A 3,1 0 0 0 17,17 3,1 0 0 0 19,16.744141 l 0,1 A 3,1 0 0 1 17,18 3,1 0 0 1 15,17.742188 l 0,-0.998047 z"
       transform="translate(326,534.3622)"
       id="path3413"
       inkscape:connector-curvature="0"
       class="ColorScheme-Text" />
  </g>
  <path
     style="font-style:normal;font-weight:normal;font-size:8.75px;line-height:125%;font-family:sans-serif;letter-spacing:0px;word-spacing:0px;fill:currentColor;fill-opacity:1;stroke:none;stroke-width:1px;stroke-linecap:butt;stroke-linejoin:miter;stroke-opacity:1"
     d="m 68.751953,43.541016 0,6.646484 0.789063,0 0,-2.703125 c 0,-0.467123 0.122232,-0.836833 0.367187,-1.107422 0.244954,-0.270589 0.581461,-0.40625 1.005859,-0.40625 0.353191,0 0.616374,0.112874 0.792969,0.337891 0.176595,0.225016 0.265625,0.564697 0.265625,1.017578 l 0,2.861328 0.785156,0 0,-2.886719 c 10e-7,-0.660807 -0.139893,-1.161051 -0.421874,-1.5 -0.281982,-0.341796 -0.698324,-0.513672 -1.248047,-0.513672 -0.333252,0 -0.628418,0.07243 -0.884766,0.214844 -0.253499,0.142415 -0.474121,0.356853 -0.662109,0.644531 l 0,-2.605468 -0.789063,0 z m 93.394527,0 0,2.58789 c -0.1652,-0.284831 -0.37346,-0.496094 -0.62695,-0.632812 -0.25065,-0.139567 -0.55306,-0.208985 -0.90625,-0.208985 -0.57821,0 -1.04948,0.231934 -1.41406,0.69336 -0.36173,0.461426 -0.54297,1.068359 -0.54297,1.820312 0,0.751953 0.18124,1.356934 0.54297,1.81836 0.36458,0.461426 0.83585,0.693359 1.41406,0.693359 0.35319,0 0.6556,-0.06836 0.90625,-0.205078 0.25349,-0.139567 0.46175,-0.351888 0.62695,-0.636719 l 0,0.716797 0.78711,0 0,-6.646484 -0.78711,0 z m -33.37109,0.152343 c -0.71492,0 -1.2618,0.28475 -1.64062,0.851563 -0.37598,0.563965 -0.56446,1.384277 -0.56446,2.460937 0,1.073812 0.18848,1.894125 0.56446,2.460938 0.37882,0.563965 0.9257,0.845703 1.64062,0.845703 0.71493,0 1.26074,-0.281738 1.63672,-0.845703 0.37882,-0.566813 0.56836,-1.387126 0.56836,-2.460938 0,-1.07666 -0.18954,-1.896972 -0.56836,-2.460937 -0.37598,-0.566813 -0.92179,-0.851563 -1.63672,-0.851563 z m 4.74219,0 c -0.45004,0 -0.80737,0.157391 -1.07227,0.470703 -0.26489,0.313315 -0.39843,0.73584 -0.39843,1.265626 0,0.535482 0.13248,0.958171 0.39453,1.271484 0.26488,0.310466 0.62328,0.466797 1.07617,0.466797 0.45288,0 0.81128,-0.156331 1.07617,-0.466797 0.26774,-0.310465 0.40234,-0.733154 0.40234,-1.271484 0,-0.532635 -0.1346,-0.955159 -0.40234,-1.265626 -0.26775,-0.313313 -0.62615,-0.470703 -1.07617,-0.470703 z m 3.85742,0 -3.99023,6.619141 0.68359,0 3.99023,-6.619141 -0.68359,0 z M 67.222656,43.808594 65,51 l 0.726562,0 2.220704,-7.191406 -0.72461,0 z m 27.769532,0 L 92.771484,51 l 0.726563,0 2.220703,-7.191406 -0.726562,0 z m 26.148432,0 0,0.726562 3.0625,0 -2.17773,5.652344 0.90039,0 2.31641,-6.009766 0,-0.36914 -4.10157,0 z m 12.37696,0.427734 c 0.24495,0 0.43766,0.106689 0.58008,0.320313 0.14241,0.213622 0.21484,0.505614 0.21484,0.873047 0,0.375976 -0.0724,0.668131 -0.21484,0.878906 -0.13957,0.210774 -0.33228,0.316406 -0.58008,0.316406 -0.24781,0 -0.44247,-0.105632 -0.58203,-0.316406 -0.13957,-0.210775 -0.20899,-0.50293 -0.20899,-0.878906 0,-0.370281 0.0694,-0.662273 0.20899,-0.873047 0.14241,-0.213624 0.33707,-0.320313 0.58203,-0.320313 z m -4.74219,0.140625 c 0.44719,0 0.78174,0.219564 1.00391,0.658203 0.22502,0.435791 0.33789,1.093425 0.33789,1.970703 0,0.874431 -0.11287,1.530111 -0.33789,1.96875 -0.22217,0.435791 -0.55672,0.654297 -1.00391,0.654297 -0.44433,0 -0.77889,-0.218506 -1.00391,-0.654297 -0.22217,-0.438639 -0.33398,-1.094319 -0.33398,-1.96875 0,-0.877278 0.11181,-1.534912 0.33398,-1.970703 0.22502,-0.438639 0.55958,-0.658203 1.00391,-0.658203 z m -52.585937,0.910156 c -0.686442,0 -1.225016,0.223633 -1.615234,0.667969 -0.38737,0.444336 -0.580078,1.059571 -0.580078,1.845703 0,0.783285 0.192708,1.398519 0.580078,1.845703 0.390218,0.444336 0.928792,0.666016 1.615234,0.666016 0.683594,0 1.22111,-0.22168 1.611328,-0.666016 0.390218,-0.447184 0.583985,-1.062418 0.583985,-1.845703 0,-0.786132 -0.193767,-1.401367 -0.583985,-1.845703 -0.390218,-0.444336 -0.927734,-0.667969 -1.611328,-0.667969 z m 5.792969,0 c -0.344645,0 -0.641928,0.06942 -0.892578,0.208985 -0.250652,0.139567 -0.465087,0.357015 -0.644532,0.65039 l 0,-0.74414 -0.791015,0 0,4.785156 0.791015,0 0,-2.703125 c 0,-0.464274 0.117106,-0.832926 0.353516,-1.103516 0.236409,-0.273438 0.55542,-0.410156 0.957031,-0.410156 0.338949,0 0.589601,0.111816 0.751953,0.333985 0.162354,0.219318 0.244141,0.560058 0.244141,1.021484 l 0,2.861328 0.791016,0 0,-2.703125 c 0,-0.467123 0.117105,-0.836833 0.353515,-1.107422 0.23641,-0.270589 0.559489,-0.40625 0.966797,-0.40625 0.333252,0 0.579834,0.111815 0.742188,0.333985 0.162353,0.222166 0.24414,0.562906 0.24414,1.021484 l 0,2.861328 0.791016,0 0,-2.886719 c 0,-0.643717 -0.135661,-1.140787 -0.40625,-1.488281 -0.270589,-0.350341 -0.655843,-0.525391 -1.154297,-0.525391 -0.37028,0 -0.691406,0.08391 -0.964844,0.251953 -0.273437,0.168051 -0.508544,0.430014 -0.705078,0.783204 -0.11678,-0.3361 -0.298016,-0.592936 -0.542968,-0.769532 -0.242108,-0.176594 -0.537273,-0.265625 -0.884766,-0.265625 z m 8.234375,0 c -0.717773,0 -1.290447,0.231934 -1.714844,0.69336 -0.42155,0.458578 -0.630859,1.078044 -0.630859,1.861328 0,0.75765 0.221679,1.360351 0.666015,1.804687 0.447185,0.444336 1.053061,0.666016 1.816407,0.666016 0.304769,0 0.604167,-0.03109 0.90039,-0.09375 0.296224,-0.06266 0.585205,-0.153807 0.867188,-0.273438 l 0,-0.74414 c -0.279134,0.148112 -0.560873,0.259928 -0.845703,0.333984 -0.281983,0.07406 -0.57308,0.111328 -0.875,0.111328 -0.52124,0 -0.929281,-0.141845 -1.222657,-0.423828 -0.290526,-0.28483 -0.452148,-0.697103 -0.486328,-1.238281 l 3.613282,0 0,-0.384766 c 0,-0.712076 -0.186525,-1.274495 -0.5625,-1.6875 -0.37313,-0.415852 -0.881673,-0.625 -1.525391,-0.625 z m 13.410153,0 c -0.58675,0 -1.03841,0.122234 -1.35742,0.367188 -0.31901,0.244955 -0.47851,0.592936 -0.47851,1.042969 0,0.37028 0.10774,0.66333 0.32421,0.876953 0.21648,0.210774 0.56763,0.36621 1.05469,0.46875 l 0.27344,0.06445 c 0.48706,0.105387 0.80289,0.214193 0.94531,0.328125 0.14526,0.113933 0.2168,0.278565 0.2168,0.492187 0,0.230714 -0.0994,0.410889 -0.29883,0.539063 -0.19938,0.125325 -0.48323,0.1875 -0.85352,0.1875 -0.27627,0 -0.55591,-0.03727 -0.83789,-0.111328 -0.28198,-0.0769 -0.56884,-0.190837 -0.85937,-0.341797 l 0,0.8125 c 0.30762,0.09969 0.60067,0.172283 0.87695,0.220703 0.27914,0.05127 0.54639,0.07813 0.80274,0.07813 0.61523,0 1.09692,-0.129476 1.44726,-0.388672 0.3532,-0.259196 0.53125,-0.612305 0.53125,-1.05664 0,-0.390218 -0.11905,-0.693685 -0.35547,-0.910157 -0.23356,-0.21932 -0.62923,-0.388184 -1.1875,-0.507812 l -0.26953,-0.05859 c -0.42154,-0.09399 -0.70223,-0.192383 -0.84179,-0.294922 -0.13957,-0.105387 -0.20899,-0.249347 -0.20899,-0.431641 0,-0.239257 0.0973,-0.419433 0.29102,-0.539062 0.19653,-0.119629 0.48869,-0.179688 0.8789,-0.179688 0.25635,0 0.50488,0.02897 0.74414,0.08594 0.23926,0.05697 0.46924,0.141927 0.69141,0.255859 l 0,-0.742187 c -0.21647,-0.08545 -0.45264,-0.150632 -0.70898,-0.19336 -0.25635,-0.04273 -0.52979,-0.06445 -0.82032,-0.06445 z m 5.04688,0 c -0.71778,0 -1.29045,0.231934 -1.71485,0.69336 -0.42155,0.458578 -0.63085,1.078044 -0.63086,1.861328 0,0.75765 0.22168,1.360351 0.66602,1.804687 0.44718,0.444336 1.05306,0.666016 1.81641,0.666016 0.30477,0 0.60417,-0.03109 0.90039,-0.09375 0.29622,-0.06266 0.5852,-0.153807 0.86718,-0.273438 l 0,-0.74414 c -0.27912,0.148112 -0.56087,0.259928 -0.8457,0.333984 -0.28198,0.07406 -0.57308,0.111328 -0.875,0.111328 -0.52124,0 -0.92928,-0.141845 -1.22265,-0.423828 -0.29051,-0.28483 -0.45213,-0.697103 -0.48633,-1.238281 l 3.61328,0 0,-0.384766 c 0,-0.712076 -0.18652,-1.274495 -0.5625,-1.6875 -0.37313,-0.415852 -0.88168,-0.625 -1.52539,-0.625 z m 5.75,0 c -0.37883,0 -0.69995,0.07243 -0.96485,0.214844 -0.26489,0.139567 -0.48128,0.354004 -0.64648,0.644531 l 0,-0.74414 -0.78906,0 0,4.785156 0.78906,0 0,-2.519531 c 0,-0.541178 0.11906,-0.956462 0.35547,-1.244141 0.23926,-0.290527 0.58105,-0.435547 1.02539,-0.435547 0.12532,0 0.23926,0.01343 0.3418,0.03906 0.10477,0.02266 0.20118,0.06053 0.28906,0.111328 l -0.004,-0.808594 c -0.0797,-0.01427 -0.15126,-0.02363 -0.21679,-0.0293 -0.0655,-0.0085 -0.12556,-0.01367 -0.17969,-0.01367 z m 36.14844,0 c -0.58676,0 -1.03842,0.122234 -1.35743,0.367188 -0.31901,0.244955 -0.47851,0.592936 -0.47851,1.042969 0,0.37028 0.10774,0.66333 0.32422,0.876953 0.21647,0.210774 0.56762,0.36621 1.05468,0.46875 l 0.27344,0.06445 c 0.48707,0.105387 0.8029,0.214193 0.94531,0.328125 0.14526,0.113933 0.2168,0.278565 0.2168,0.492187 0,0.230714 -0.0994,0.410889 -0.29883,0.539063 -0.19938,0.125325 -0.48323,0.1875 -0.85351,0.1875 -0.27629,0 -0.55591,-0.03727 -0.83789,-0.111328 -0.28199,-0.0769 -0.56885,-0.190837 -0.85938,-0.341797 l 0,0.8125 c 0.30762,0.09969 0.60067,0.172283 0.87695,0.220703 0.27914,0.05127 0.54639,0.07813 0.80274,0.07813 0.61523,0 1.09888,-0.129476 1.44922,-0.388672 0.35319,-0.259196 0.5293,-0.612305 0.5293,-1.05664 0,-0.39022 -0.11906,-0.693685 -0.35547,-0.910157 -0.23356,-0.21932 -0.62924,-0.388184 -1.1875,-0.507812 l -0.26953,-0.05859 c -0.42156,-0.09399 -0.70224,-0.192383 -0.8418,-0.294922 -0.13957,-0.105387 -0.20899,-0.249347 -0.20899,-0.431641 0,-0.239257 0.0973,-0.419433 0.29102,-0.539062 0.19653,-0.119629 0.49065,-0.179688 0.88086,-0.179688 0.25635,0 0.50293,0.02897 0.74219,0.08594 0.23926,0.05697 0.47119,0.141927 0.69336,0.255859 l 0,-0.742187 c -0.21648,-0.08545 -0.4546,-0.150632 -0.71094,-0.19336 -0.25635,-0.04273 -0.52979,-0.06445 -0.82031,-0.06445 z m 5.04687,0 c -0.71777,0 -1.28849,0.231934 -1.71289,0.69336 -0.42155,0.458578 -0.63281,1.078044 -0.63281,1.861328 0,0.75765 0.22168,1.360351 0.66601,1.804687 0.44719,0.444336 1.05306,0.666016 1.81641,0.666016 0.30477,0 0.60417,-0.03109 0.90039,-0.09375 0.29623,-0.06266 0.58521,-0.153807 0.86719,-0.273438 l 0,-0.74414 c -0.27914,0.148112 -0.56088,0.259928 -0.84571,0.333984 -0.28198,0.07406 -0.57308,0.111328 -0.875,0.111328 -0.52124,0 -0.92928,-0.141845 -1.22265,-0.423828 -0.29051,-0.28483 -0.45213,-0.697103 -0.48633,-1.238281 l 3.61523,0 0,-0.384766 c 0,-0.712076 -0.18848,-1.274495 -0.56445,-1.6875 -0.37313,-0.415852 -0.88168,-0.625 -1.52539,-0.625 z m -59.148437,0.115235 0,2.898437 c 0,0.657959 0.142903,1.15625 0.427735,1.498047 0.284829,0.341797 0.702229,0.513672 1.251953,0.513672 0.333252,0 0.624348,-0.06942 0.875,-0.208984 0.253499,-0.142416 0.477132,-0.359864 0.667968,-0.650391 l 0,0.734375 0.785161,0 0,-4.785156 -0.785161,0 0,2.71289 c 0,0.467122 -0.125243,0.836833 -0.373047,1.107422 -0.244954,0.27059 -0.579508,0.40625 -1.003906,0.40625 -0.35319,0 -0.618327,-0.112874 -0.794922,-0.33789 -0.176595,-0.227865 -0.263672,-0.568603 -0.263672,-1.021485 l 0,-2.867187 -0.787109,0 z m 46.945317,0 0,2.898437 c 0,0.657959 0.1429,1.15625 0.42773,1.498047 0.28483,0.341797 0.70223,0.513672 1.25195,0.513672 0.33325,0 0.6263,-0.06942 0.87696,-0.208984 0.2535,-0.142416 0.47518,-0.359864 0.66601,-0.650391 l 0,0.734375 0.78516,0 0,-4.785156 -0.78516,0 0,2.71289 c 0,0.467122 -0.12525,0.836833 -0.37305,1.107422 -0.24495,0.27059 -0.5795,0.40625 -1.0039,0.40625 -0.35319,0 -0.61832,-0.112874 -0.79492,-0.33789 -0.1766,-0.227865 -0.26368,-0.568603 -0.26368,-1.021485 l 0,-2.867187 -0.7871,0 z m -27.71094,0.261718 0,1.083985 0.90234,0 0,-1.083985 -0.90234,0 z m 45.09961,0.28125 c 0.41585,10e-7 0.74511,0.165691 0.98437,0.496094 0.23926,0.327556 0.35742,0.781169 0.35742,1.359375 0,0.578206 -0.11816,1.030924 -0.35742,1.361328 -0.23926,0.327556 -0.56852,0.492188 -0.98437,0.492188 -0.41586,0 -0.74317,-0.164632 -0.98242,-0.492188 -0.23642,-0.330404 -0.35352,-0.783122 -0.35352,-1.361328 0,-0.578206 0.1171,-1.031819 0.35352,-1.359375 0.23925,-0.330403 0.56656,-0.496094 0.98242,-0.496094 z m -84.615237,0.0098 c 0.418701,0 0.751139,0.166748 0.996094,0.5 0.244954,0.330403 0.367187,0.77889 0.367187,1.345703 0,0.569662 -0.122233,1.019206 -0.367187,1.34961 -0.244955,0.330404 -0.577393,0.496093 -0.996094,0.496093 -0.424397,0 -0.758951,-0.164632 -1.003906,-0.492187 -0.242106,-0.330404 -0.363281,-0.781006 -0.363281,-1.353516 0,-0.57251 0.122233,-1.024007 0.367187,-1.351562 0.244955,-0.330404 0.578451,-0.494141 1,-0.494141 z m 14.035156,0 c 0.38737,0 0.69808,0.126465 0.931641,0.382813 0.236439,0.256348 0.357615,0.601156 0.363281,1.03125 l -2.802734,0.0039 c 0.03988,-0.450033 0.19108,-0.799072 0.453125,-1.046875 0.264892,-0.247803 0.616048,-0.371094 1.054687,-0.371094 z m 18.457031,0 c 0.38737,0 0.69808,0.126465 0.93164,0.382813 0.23611,0.256348 0.35728,0.601156 0.36328,1.03125 l -2.80273,0.0039 c 0.0399,-0.450033 0.19108,-0.799072 0.45312,-1.046875 0.2649,-0.247803 0.61605,-0.371094 1.05469,-0.371094 z m 46.94531,0 c 0.38738,0 0.69808,0.126465 0.93164,0.382813 0.23611,0.256348 0.35728,0.601156 0.36329,1.03125 l -2.80274,0.0039 c 0.0399,-0.450033 0.19109,-0.799072 0.45313,-1.046875 0.26489,-0.247803 0.61604,-0.371094 1.05468,-0.371094 z m -17.70117,0.882813 c -0.45289,0 -0.81234,0.157389 -1.08008,0.470703 -0.26489,0.310465 -0.39648,0.734049 -0.39648,1.269531 0,0.532633 0.13159,0.954264 0.39648,1.267578 0.2649,0.310465 0.62435,0.466797 1.08008,0.466797 0.44718,0 0.80347,-0.156332 1.06836,-0.466797 0.26774,-0.313314 0.40234,-0.734945 0.40234,-1.267578 0,-0.532634 -0.13354,-0.956218 -0.39843,-1.269531 -0.2649,-0.313314 -0.62224,-0.470703 -1.07227,-0.470703 z m 0,0.542968 c 0.2421,0 0.43465,0.10669 0.57422,0.320313 0.14241,0.210775 0.21289,0.503824 0.21289,0.876953 0,0.37028 -0.0705,0.661377 -0.21289,0.875 -0.13957,0.210775 -0.33212,0.316406 -0.57422,0.316406 -0.24781,0 -0.44157,-0.105631 -0.58398,-0.316406 -0.13957,-0.213623 -0.20899,-0.50472 -0.20899,-0.875 0,-0.375977 0.0694,-0.670085 0.20899,-0.880859 0.14241,-0.210775 0.33617,-0.316407 0.58398,-0.316407 z m -22.2207,1.722657 0,1.083984 0.90234,0 0,-1.083984 -0.90234,0 z m -46.953127,67.4375 0,6.64648 0.789063,0 0,-2.70312 c 0,-0.46713 0.122232,-0.83684 0.367187,-1.10743 0.244954,-0.27059 0.581462,-0.40625 1.005859,-0.40625 0.353191,0 0.616374,0.11287 0.792969,0.33789 0.176595,0.22502 0.265625,0.5647 0.265625,1.01758 l 0,2.86133 0.785156,0 0,-2.88672 c 10e-7,-0.66081 -0.139893,-1.16105 -0.421874,-1.5 -0.281983,-0.3418 -0.698324,-0.51367 -1.248047,-0.51367 -0.333252,0 -0.628418,0.0724 -0.884766,0.21484 -0.253499,0.14242 -0.474121,0.35686 -0.662109,0.64453 l 0,-2.60546 -0.789063,0 z m 41.373047,0 0,6.64648 0.79102,0 0,-2.70312 c 0,-0.46713 0.12223,-0.83684 0.36718,-1.10743 0.24496,-0.27059 0.57951,-0.40625 1.00391,-0.40625 0.35319,0 0.61832,0.11287 0.79492,0.33789 0.17659,0.22502 0.26563,0.5647 0.26563,1.01758 l 0,2.86133 0.78515,0 0,-2.88672 c 0,-0.66081 -0.13989,-1.16105 -0.42187,-1.5 -0.28199,-0.3418 -0.69833,-0.51367 -1.24805,-0.51367 -0.33325,0 -0.62842,0.0724 -0.88477,0.21484 -0.2535,0.14242 -0.47412,0.35686 -0.6621,0.64453 l 0,-2.60546 -0.79102,0 z m 5.58398,0 0,0.99414 0.78711,0 0,-0.99414 -0.78711,0 z m 59.63086,0 0,2.58789 c -0.1652,-0.28483 -0.37345,-0.4961 -0.62695,-0.63282 -0.25065,-0.13956 -0.55306,-0.20898 -0.90625,-0.20898 -0.57821,0 -1.04948,0.23193 -1.41406,0.69336 -0.36174,0.46143 -0.54297,1.06836 -0.54297,1.82031 0,0.75195 0.18123,1.35693 0.54297,1.81836 0.36458,0.46142 0.83585,0.69336 1.41406,0.69336 0.35319,0 0.6556,-0.0684 0.90625,-0.20508 0.2535,-0.13956 0.46175,-0.35188 0.62695,-0.63672 l 0,0.7168 0.78711,0 0,-6.64648 -0.78711,0 z m -39.04492,0.15234 c -0.64372,0 -1.1595,0.19784 -1.54687,0.59375 -0.38737,0.39592 -0.58203,0.92302 -0.58203,1.57812 0,0.66936 0.18636,1.19662 0.55664,1.58399 0.37312,0.38453 0.8776,0.57812 1.51562,0.57812 0.30762,0 0.5883,-0.0662 0.8418,-0.19726 0.2535,-0.13102 0.4637,-0.3195 0.6289,-0.56446 -0.0427,0.78044 -0.21565,1.36353 -0.51757,1.74805 -0.29908,0.38168 -0.73308,0.57227 -1.30274,0.57227 -0.21362,0 -0.43213,-0.0279 -0.65429,-0.082 -0.22218,-0.0541 -0.44174,-0.13184 -0.65821,-0.23438 l 0,0.78711 c 0.23926,0.0854 0.47119,0.14867 0.69336,0.19141 0.22217,0.0427 0.44174,0.0644 0.6582,0.0644 0.80608,0 1.44621,-0.3003 1.92188,-0.89844 0.47851,-0.60099 0.71875,-1.40275 0.71875,-2.4082 0,-1.07666 -0.19572,-1.89697 -0.58594,-2.46094 -0.38737,-0.56681 -0.94979,-0.85156 -1.6875,-0.85156 z m 5.67383,0 c -0.71492,0 -1.2618,0.28475 -1.64063,0.85156 -0.37597,0.56397 -0.56445,1.38428 -0.56445,2.46094 0,1.07381 0.18848,1.89412 0.56445,2.46094 0.37883,0.56396 0.92571,0.8457 1.64063,0.8457 0.71493,0 1.26074,-0.28174 1.63672,-0.8457 0.37882,-0.56682 0.56836,-1.38713 0.56836,-2.46094 0,-1.07666 -0.18954,-1.89697 -0.56836,-2.46094 -0.37598,-0.56681 -0.92179,-0.85156 -1.63672,-0.85156 z m 4.74219,0 c -0.45004,0 -0.80737,0.15739 -1.07227,0.4707 -0.26489,0.31332 -0.39844,0.73389 -0.39844,1.26367 0,0.53548 0.13249,0.96013 0.39454,1.27344 0.26488,0.31047 0.62328,0.4668 1.07617,0.4668 0.45288,0 0.81128,-0.15633 1.07617,-0.4668 0.26774,-0.31046 0.40234,-0.7351 0.40234,-1.27344 0,-0.53263 -0.1346,-0.9532 -0.40234,-1.26367 -0.26775,-0.31331 -0.62615,-0.4707 -1.07617,-0.4707 z m 3.85742,0 -3.99024,6.61914 0.6836,0 3.99023,-6.61914 -0.68359,0 z M 67.222656,116.80859 65,124 l 0.726562,0 2.220704,-7.19141 -0.72461,0 z m 27.769532,0 -2.220704,7.19141 0.726563,0 2.220703,-7.19141 -0.726562,0 z m 51.718752,0.42774 c 0.24495,0 0.43766,0.10668 0.58008,0.32031 0.14241,0.21362 0.21484,0.50366 0.21484,0.87109 0,0.37598 -0.0724,0.67009 -0.21484,0.88086 -0.13957,0.21078 -0.33228,0.31641 -0.58008,0.31641 -0.24781,0 -0.44247,-0.10563 -0.58203,-0.31641 -0.13957,-0.21077 -0.20899,-0.50488 -0.20899,-0.88086 0,-0.37028 0.0694,-0.66032 0.20899,-0.87109 0.14241,-0.21363 0.33707,-0.32031 0.58203,-0.32031 z m -10.41602,0.14062 c 0.38737,0 0.69296,0.13461 0.91797,0.40235 0.22787,0.26489 0.3418,0.62736 0.3418,1.08593 0,0.46143 -0.11393,0.82301 -0.3418,1.08789 -0.22501,0.2649 -0.5306,0.39844 -0.91797,0.39844 -0.38737,0 -0.69596,-0.13353 -0.92383,-0.39844 -0.22501,-0.26488 -0.33593,-0.62646 -0.33593,-1.08789 0,-0.45857 0.11092,-0.82104 0.33593,-1.08593 0.22787,-0.26774 0.53646,-0.40235 0.92383,-0.40235 z m 5.67383,0 c 0.44719,0 0.78174,0.21957 1.00391,0.65821 0.22502,0.43579 0.33789,1.09342 0.33789,1.9707 0,0.87443 -0.11287,1.53011 -0.33789,1.96875 -0.22217,0.43579 -0.55672,0.6543 -1.00391,0.6543 -0.44433,0 -0.77889,-0.21851 -1.00391,-0.6543 -0.22217,-0.43864 -0.33398,-1.09432 -0.33398,-1.96875 0,-0.87728 0.11181,-1.53491 0.33398,-1.9707 0.22502,-0.43864 0.55958,-0.65821 1.00391,-0.65821 z m -65.779297,0.91016 c -0.686442,0 -1.225016,0.22363 -1.615234,0.66797 -0.38737,0.44434 -0.580078,1.05957 -0.580078,1.8457 0,0.78328 0.192708,1.39852 0.580078,1.8457 0.390218,0.44434 0.928792,0.66602 1.615234,0.66602 0.683594,0 1.22111,-0.22168 1.611328,-0.66602 0.390218,-0.44718 0.583985,-1.06242 0.583985,-1.8457 0,-0.78613 -0.193767,-1.40136 -0.583985,-1.8457 -0.390218,-0.44434 -0.927734,-0.66797 -1.611328,-0.66797 z m 5.792969,0 c -0.344645,0 -0.641928,0.0694 -0.892578,0.20898 -0.250652,0.13957 -0.465087,0.35702 -0.644532,0.65039 l 0,-0.74414 -0.791015,0 0,4.78516 0.791015,0 0,-2.70312 c 0,-0.46429 0.117106,-0.83293 0.353516,-1.10352 0.236409,-0.27344 0.55542,-0.41016 0.957031,-0.41016 0.338949,0 0.589601,0.11181 0.751953,0.33399 0.162354,0.21931 0.244141,0.56006 0.244141,1.02148 l 0,2.86133 0.791016,0 0,-2.70312 c 0,-0.46713 0.117105,-0.83684 0.353515,-1.10743 0.23641,-0.27059 0.559489,-0.40625 0.966797,-0.40625 0.333252,0 0.579834,0.11181 0.742188,0.33399 0.162353,0.22216 0.24414,0.56291 0.24414,1.02148 l 0,2.86133 0.791016,0 0,-2.88672 c 0,-0.64372 -0.135661,-1.14079 -0.40625,-1.48828 -0.270589,-0.35034 -0.655843,-0.52539 -1.154297,-0.52539 -0.37028,0 -0.691406,0.0839 -0.964844,0.25195 -0.273437,0.16806 -0.508544,0.43001 -0.705078,0.78321 -0.11678,-0.33611 -0.298016,-0.59294 -0.542968,-0.76954 -0.242108,-0.17659 -0.537273,-0.26562 -0.884766,-0.26562 z m 8.234375,0 c -0.717773,0 -1.290447,0.23193 -1.714844,0.69336 -0.42155,0.45857 -0.630859,1.07804 -0.630859,1.86133 0,0.75765 0.221679,1.36035 0.666015,1.80468 0.447185,0.44434 1.053061,0.66602 1.816407,0.66602 0.304769,0 0.604167,-0.0311 0.90039,-0.0937 0.296224,-0.0627 0.585205,-0.1538 0.867188,-0.27344 l 0,-0.74414 c -0.279134,0.14812 -0.560873,0.25993 -0.845703,0.33399 -0.281983,0.074 -0.57308,0.11132 -0.875,0.11132 -0.52124,0 -0.929281,-0.14184 -1.222657,-0.42382 -0.290526,-0.28484 -0.452148,-0.69712 -0.486328,-1.23828 l 3.613282,0 0,-0.38477 c 0,-0.71207 -0.186525,-1.27449 -0.5625,-1.6875 -0.373128,-0.41585 -0.881673,-0.625 -1.525391,-0.625 z m 8.013672,0 c -0.256348,0 -0.518473,0.0289 -0.789063,0.0859 -0.270589,0.0541 -0.550212,0.13696 -0.83789,0.24804 l 0,0.72657 c 0.239257,-0.131 0.488851,-0.22939 0.748046,-0.29493 0.259197,-0.0655 0.525391,-0.0977 0.798829,-0.0977 0.430094,0 0.76359,0.0994 1,0.29883 0.239258,0.19653 0.357421,0.4742 0.357421,0.83593 l 0,0.0781 -1.101562,0 c -0.714925,0 -1.2535,0.13672 -1.615234,0.41015 -0.358887,0.27345 -0.53711,0.67848 -0.53711,1.2168 0,0.46143 0.142009,0.83114 0.429688,1.10742 0.290527,0.27344 0.681965,0.41016 1.171875,0.41016 0.387369,0 0.71468,-0.0684 0.982422,-0.20508 0.26774,-0.13956 0.490478,-0.35595 0.669921,-0.64648 l 0,0.72656 0.787108,0 0,-2.72852 c 0,-0.72916 -0.17187,-1.27392 -0.51367,-1.63281 -0.341797,-0.35888 -0.858643,-0.53906 -1.550781,-0.53906 z m 6.058591,0 c -0.37882,0 -0.69995,0.0724 -0.96484,0.21484 -0.26489,0.13957 -0.47933,0.35401 -0.64453,0.64453 l 0,-0.74414 -0.79102,0 0,4.78516 0.79102,0 0,-2.51953 c 0,-0.54118 0.1171,-0.95646 0.35351,-1.24414 0.23926,-0.29053 0.58105,-0.43555 1.02539,-0.43555 0.12533,0 0.23927,0.0134 0.3418,0.0391 0.10539,0.0228 0.20272,0.0601 0.29102,0.11133 l -0.004,-0.80859 c -0.0797,-0.0139 -0.15322,-0.0233 -0.21875,-0.0293 -0.0655,-0.009 -0.12555,-0.0137 -0.17969,-0.0137 z m 3.11133,0 c -0.74625,0 -1.33553,0.22469 -1.76562,0.67187 -0.42725,0.44718 -0.64063,1.06136 -0.64063,1.8418 0,0.76904 0.21233,1.37915 0.63672,1.83203 0.4244,0.45288 0.99618,0.67969 1.7168,0.67969 0.26489,0 0.51448,-0.0269 0.74804,-0.0781 0.23642,-0.0513 0.46428,-0.12793 0.6836,-0.23047 l 0,-0.72657 c -0.22217,0.12248 -0.44491,0.21663 -0.66992,0.2793 -0.22218,0.0598 -0.44792,0.0898 -0.67579,0.0898 -0.50984,0 -0.90552,-0.16251 -1.1875,-0.48437 -0.28198,-0.32471 -0.42187,-0.77743 -0.42187,-1.36133 0,-0.58391 0.13989,-1.03751 0.42187,-1.35937 0.28198,-0.32471 0.67766,-0.48633 1.1875,-0.48633 0.22787,0 0.45361,0.0311 0.67579,0.0937 0.22502,0.0598 0.44775,0.15096 0.66992,0.27344 l 0,-0.73633 c -0.21648,-0.0997 -0.43922,-0.17231 -0.66992,-0.22071 -0.23073,-0.0513 -0.46688,-0.0781 -0.70899,-0.0781 z m 17.91797,0 c -0.71777,0 -1.2885,0.23193 -1.71289,0.69336 -0.42155,0.45857 -0.63281,1.07804 -0.63281,1.86133 0,0.75765 0.22167,1.36035 0.66601,1.80468 0.44718,0.44434 1.05306,0.66602 1.81641,0.66602 0.30477,0 0.60612,-0.0311 0.90234,-0.0937 0.29623,-0.0627 0.58521,-0.1538 0.86719,-0.27344 l 0,-0.74414 c -0.27913,0.14812 -0.56087,0.25993 -0.8457,0.33399 -0.28198,0.074 -0.57504,0.11132 -0.87696,0.11132 -0.52124,0 -0.92733,-0.14184 -1.2207,-0.42382 -0.29051,-0.28484 -0.45408,-0.69712 -0.48828,-1.23828 l 3.61523,0 0,-0.38477 c 0,-0.71207 -0.18847,-1.27449 -0.56445,-1.6875 -0.37313,-0.41585 -0.88167,-0.625 -1.52539,-0.625 z m 38.44726,0 c -0.58675,0 -1.03841,0.12223 -1.35742,0.36719 -0.31901,0.24495 -0.47851,0.59293 -0.47851,1.04297 0,0.37028 0.10774,0.66332 0.32422,0.87695 0.21647,0.21077 0.56762,0.36621 1.05468,0.46875 l 0.27344,0.0645 c 0.48706,0.1054 0.80289,0.2142 0.94531,0.32813 0.14526,0.11393 0.2168,0.27856 0.2168,0.49218 0,0.23072 -0.0994,0.41089 -0.29883,0.53907 -0.19938,0.12532 -0.48323,0.1875 -0.85351,0.1875 -0.27629,0 -0.55591,-0.0373 -0.83789,-0.11133 -0.28199,-0.0769 -0.56885,-0.19084 -0.85938,-0.3418 l 0,0.8125 c 0.30762,0.0997 0.60067,0.1723 0.87695,0.22071 0.27914,0.0512 0.54639,0.0781 0.80274,0.0781 0.61523,0 1.09888,-0.12948 1.44922,-0.38867 0.35319,-0.2592 0.52929,-0.6123 0.52929,-1.05664 0,-0.39022 -0.11905,-0.69369 -0.35546,-0.91016 -0.23356,-0.21932 -0.62924,-0.38818 -1.1875,-0.50781 l -0.26954,-0.0586 c -0.42154,-0.094 -0.70223,-0.19238 -0.84179,-0.29492 -0.13957,-0.10538 -0.20899,-0.24934 -0.20899,-0.43164 0,-0.23925 0.0973,-0.41943 0.29102,-0.53906 0.19653,-0.11963 0.49064,-0.17969 0.88086,-0.17969 0.25635,0 0.50293,0.0289 0.74219,0.0859 0.23926,0.057 0.47119,0.14193 0.69336,0.25586 l 0,-0.74219 c -0.21648,-0.0854 -0.4546,-0.15062 -0.71094,-0.19336 -0.25635,-0.0427 -0.52979,-0.0645 -0.82032,-0.0645 z m 5.04688,0 c -0.71777,0 -1.28849,0.23193 -1.71289,0.69336 -0.42155,0.45857 -0.63281,1.07804 -0.63281,1.86133 0,0.75765 0.22167,1.36035 0.66601,1.80468 0.44719,0.44434 1.05307,0.66602 1.81641,0.66602 0.30477,0 0.60417,-0.0311 0.90039,-0.0937 0.29623,-0.0627 0.58521,-0.1538 0.86719,-0.27344 l 0,-0.74414 c -0.27914,0.14812 -0.56088,0.25993 -0.84571,0.33399 -0.28198,0.074 -0.57308,0.11132 -0.875,0.11132 -0.52124,0 -0.92928,-0.14184 -1.22265,-0.42382 -0.29051,-0.28484 -0.45213,-0.69712 -0.48633,-1.23828 l 3.61523,0 0,-0.38477 c 0,-0.71207 -0.18847,-1.27449 -0.56445,-1.6875 -0.37313,-0.41585 -0.88168,-0.625 -1.52539,-0.625 z m -53.10352,0.11523 0,4.78516 0.78711,0 0,-4.78516 -0.78711,0 z m 1.86329,0 1.79492,4.78516 1.06836,0 1.79492,-4.78516 -0.83399,0 -1.49609,4.01758 -1.49414,-4.01758 -0.83398,0 z m 39.03711,0 0,2.89649 c 0,0.65796 0.1429,1.1582 0.42773,1.5 0.28483,0.34179 0.70223,0.51367 1.25195,0.51367 0.33326,0 0.6263,-0.0694 0.87696,-0.20898 0.2535,-0.14242 0.47518,-0.35986 0.66601,-0.6504 l 0,0.73438 0.78516,0 0,-4.78516 -0.78516,0 0,2.71289 c 0,0.46712 -0.12525,0.83683 -0.37305,1.10743 -0.24495,0.27058 -0.5795,0.40625 -1.0039,0.40625 -0.35319,0 -0.61832,-0.11288 -0.79492,-0.33789 -0.1766,-0.22787 -0.26368,-0.56861 -0.26368,-1.02149 l 0,-2.86719 -0.7871,0 z m -27.71094,0.26172 0,1.08399 0.90234,0 0,-1.08399 -0.90234,0 z m 45.09961,0.28125 c 0.41585,0 0.74511,0.1657 0.98437,0.4961 0.23926,0.32756 0.35742,0.78116 0.35742,1.35937 0,0.57821 -0.11816,1.03093 -0.35742,1.36133 -0.23926,0.32755 -0.56852,0.49219 -0.98437,0.49219 -0.41586,0 -0.74317,-0.16464 -0.98243,-0.49219 -0.23641,-0.3304 -0.35351,-0.78312 -0.35351,-1.36133 0,-0.57821 0.1171,-1.03181 0.35351,-1.35937 0.23927,-0.3304 0.56657,-0.4961 0.98243,-0.4961 z m -97.808597,0.01 c 0.418701,0 0.751139,0.1648 0.996094,0.49804 0.244954,0.33042 0.367187,0.78085 0.367187,1.34766 0,0.56966 -0.122233,1.01921 -0.367187,1.34961 -0.244955,0.33041 -0.577393,0.49609 -0.996094,0.49609 -0.424397,0 -0.758951,-0.16463 -1.003906,-0.49218 -0.242106,-0.33041 -0.363281,-0.78101 -0.363281,-1.35352 0,-0.57251 0.122233,-1.02401 0.367187,-1.35156 0.244955,-0.33041 0.578451,-0.49414 1,-0.49414 z m 14.035156,0 c 0.38737,0 0.69808,0.12646 0.931641,0.38281 0.236439,0.25635 0.357615,0.60116 0.363281,1.03125 l -2.802734,0.004 c 0.03988,-0.45004 0.19108,-0.79908 0.453125,-1.04688 0.264892,-0.2478 0.616048,-0.37109 1.054687,-0.37109 z m 35.103511,0 c 0.38738,0 0.69613,0.12646 0.92969,0.38281 0.23611,0.25635 0.35728,0.60116 0.36328,1.03125 l -2.80273,0.004 c 0.0399,-0.45004 0.19108,-0.79908 0.45312,-1.04688 0.2649,-0.2478 0.618,-0.37109 1.05664,-0.37109 z m 43.49219,0 c 0.38738,0 0.69808,0.12646 0.93164,0.38281 0.23611,0.25635 0.35728,0.60116 0.36328,1.03125 l -2.80273,0.004 c 0.0399,-0.45004 0.19108,-0.79908 0.45312,-1.04688 0.2649,-0.2478 0.61605,-0.37109 1.05469,-0.37109 z m -17.70117,0.88281 c -0.45289,0 -0.81234,0.15739 -1.08008,0.4707 -0.26489,0.31047 -0.39648,0.73406 -0.39648,1.26953 0,0.53265 0.13159,0.95426 0.39648,1.26758 0.2649,0.31046 0.62435,0.4668 1.08008,0.4668 0.44718,0 0.80347,-0.15634 1.06836,-0.4668 0.26774,-0.31332 0.40234,-0.73493 0.40234,-1.26758 0,-0.53262 -0.13354,-0.95621 -0.39843,-1.26953 -0.2649,-0.31331 -0.62224,-0.4707 -1.07227,-0.4707 z m 0,0.54297 c 0.2421,0 0.43465,0.10669 0.57422,0.32031 0.14242,0.21078 0.21289,0.50383 0.21289,0.87695 0,0.37029 -0.0705,0.66139 -0.21289,0.875 -0.13957,0.21078 -0.33212,0.31641 -0.57422,0.31641 -0.24781,0 -0.44157,-0.10563 -0.58398,-0.31641 -0.13957,-0.21361 -0.20899,-0.50471 -0.20899,-0.875 0,-0.37596 0.0694,-0.67008 0.20899,-0.88085 0.14241,-0.21078 0.33617,-0.31641 0.58398,-0.31641 z m -52.392578,0.40234 0.78125,0 0,0.17578 c 10e-7,0.5127 -0.131591,0.92391 -0.396484,1.23438 -0.262044,0.30761 -0.611084,0.46094 -1.046875,0.46094 -0.316162,0 -0.566813,-0.0818 -0.751953,-0.24414 -0.182291,-0.1652 -0.273438,-0.38689 -0.273438,-0.66602 0,-0.35034 0.122234,-0.59887 0.367188,-0.74414 0.244955,-0.14526 0.685141,-0.2168 1.320312,-0.2168 z m 30.171878,1.32032 0,1.08398 0.90234,0 0,-1.08398 -0.90234,0 z m -60.146487,70.4375 0,6.64648 0.789063,0 0,-2.70312 c 0,-0.46712 0.122232,-0.83684 0.367187,-1.10743 0.244954,-0.27059 0.581462,-0.40625 1.005859,-0.40625 0.35319,0 0.616374,0.11287 0.792969,0.33789 0.176595,0.22502 0.265625,0.5647 0.265625,1.01758 l 0,2.86133 0.785156,0 0,-2.88672 c 10e-7,-0.66081 -0.139893,-1.16105 -0.421874,-1.5 -0.281983,-0.3418 -0.698324,-0.51367 -1.248047,-0.51367 -0.333252,0 -0.628418,0.0724 -0.884766,0.21484 -0.253499,0.14242 -0.474121,0.35686 -0.662109,0.64453 l 0,-2.60546 -0.789063,0 z m 32.333987,0 0,6.64648 0.78906,0 0,-2.70312 c 0,-0.46713 0.12223,-0.83684 0.36719,-1.10743 0.24495,-0.27059 0.5795,-0.40625 1.0039,-0.40625 0.3532,0 0.61833,0.11287 0.79493,0.33789 0.17659,0.22502 0.26562,0.5647 0.26562,1.01758 l 0,2.86133 0.78516,0 0,-2.88672 c 0,-0.66081 -0.1399,-1.16105 -0.42188,-1.5 -0.28198,-0.3418 -0.69833,-0.51367 -1.24804,-0.51367 -0.33326,0 -0.62842,0.0724 -0.88477,0.21484 -0.2535,0.14242 -0.47412,0.35686 -0.66211,0.64453 l 0,-2.60546 -0.78906,0 z m 22.90039,0 0,2.58789 c -0.16521,-0.28483 -0.37541,-0.4961 -0.62891,-0.63282 -0.25064,-0.13956 -0.55305,-0.20898 -0.90625,-0.20898 -0.5782,0 -1.04948,0.23193 -1.41406,0.69336 -0.36173,0.46143 -0.54297,1.06836 -0.54297,1.82031 0,0.75195 0.18124,1.35693 0.54297,1.81836 0.36458,0.46142 0.83586,0.69336 1.41406,0.69336 0.3532,0 0.65561,-0.0684 0.90625,-0.20508 0.2535,-0.13956 0.4637,-0.35188 0.62891,-0.63672 l 0,0.7168 0.78515,0 0,-6.64648 -0.78515,0 z m 49.04687,0 0,2.58789 c -0.1652,-0.28483 -0.37346,-0.4961 -0.62695,-0.63282 -0.25065,-0.13956 -0.55306,-0.20898 -0.90625,-0.20898 -0.57821,0 -1.04948,0.23193 -1.41406,0.69336 -0.36174,0.46143 -0.54297,1.06836 -0.54297,1.82031 0,0.75195 0.18123,1.35693 0.54297,1.81836 0.36458,0.46142 0.83585,0.69336 1.41406,0.69336 0.35319,0 0.6556,-0.0684 0.90625,-0.20508 0.25349,-0.13956 0.46175,-0.35188 0.62695,-0.63672 l 0,0.7168 0.78711,0 0,-6.64648 -0.78711,0 z m -39.13476,0.15234 c -0.2535,0 -0.52482,0.0228 -0.8125,0.0684 -0.28484,0.0456 -0.59042,0.11393 -0.91797,0.20508 l 0,0.76953 c 0.32471,-0.10824 0.62199,-0.18702 0.89258,-0.23828 0.27059,-0.0513 0.52336,-0.0781 0.75976,-0.0781 0.43294,0 0.76538,0.089 0.9961,0.26563 0.23356,0.17374 0.34961,0.42439 0.34961,0.75195 0,0.31901 -0.11287,0.56348 -0.3379,0.73438 -0.22501,0.16804 -0.54825,0.25195 -0.97265,0.25195 l -0.77735,0 0,0.70898 0.74219,0 c 0.46998,0 0.83562,0.10669 1.09766,0.32031 0.26489,0.21078 0.39844,0.50489 0.39844,0.88086 0,0.40732 -0.14291,0.71802 -0.42774,0.93164 -0.28198,0.21363 -0.69319,0.32032 -1.23437,0.32032 -0.31046,0 -0.60775,-0.0362 -0.89258,-0.10742 -0.28483,-0.0712 -0.54786,-0.17684 -0.78711,-0.31641 l 0,0.83398 c 0.30192,0.1054 0.59497,0.18311 0.87695,0.23438 0.28484,0.0541 0.56039,0.082 0.82813,0.082 0.79752,0 1.41276,-0.17294 1.8457,-0.51758 0.43295,-0.34464 0.65039,-0.83146 0.65039,-1.46094 0,-0.41015 -0.11799,-0.75407 -0.35156,-1.0332 -0.23071,-0.27913 -0.55184,-0.46443 -0.96484,-0.55273 0.37312,-0.094 0.66104,-0.2618 0.86328,-0.50391 0.20222,-0.24495 0.30273,-0.54329 0.30273,-0.89648 0,-0.507 -0.19059,-0.90886 -0.57227,-1.20508 -0.38167,-0.29908 -0.89958,-0.44922 -1.55468,-0.44922 z m 5.76367,0 c -0.71492,0 -1.2618,0.28475 -1.64063,0.85156 -0.37597,0.56397 -0.56445,1.38428 -0.56445,2.46094 0,1.07381 0.18848,1.89412 0.56445,2.46094 0.37883,0.56396 0.92571,0.8457 1.64063,0.8457 0.71493,0 1.25879,-0.28174 1.63477,-0.8457 0.37881,-0.56682 0.56835,-1.38713 0.56835,-2.46094 0,-1.07666 -0.18953,-1.89697 -0.56835,-2.46094 -0.37599,-0.56681 -0.91984,-0.85156 -1.63477,-0.85156 z m 4.74219,0 c -0.45004,0 -0.80738,0.15739 -1.07227,0.4707 -0.26489,0.31332 -0.39844,0.73389 -0.39844,1.26367 0,0.53548 0.13054,0.96013 0.39258,1.27344 0.2649,0.31047 0.62525,0.4668 1.07813,0.4668 0.45288,0 0.81128,-0.15633 1.07617,-0.4668 0.26774,-0.31046 0.40234,-0.7351 0.40234,-1.27344 0,-0.53263 -0.1346,-0.9532 -0.40234,-1.26367 -0.26774,-0.31331 -0.62614,-0.4707 -1.07617,-0.4707 z m 3.85742,0 -3.99024,6.61914 0.6836,0 3.99023,-6.61914 -0.68359,0 z m -81.039064,0.115 L 65,200 l 0.726562,0 2.220704,-7.19141 -0.72461,0 z m 27.769532,0 -2.220704,7.19141 0.726563,0 2.220703,-7.19141 -0.726562,0 z m 49.412112,0.42774 c 0.24495,0 0.43766,0.10668 0.58008,0.32031 0.14241,0.21362 0.21484,0.50366 0.21484,0.87109 0,0.37598 -0.0724,0.67009 -0.21484,0.88086 -0.13957,0.21078 -0.33228,0.31641 -0.58008,0.31641 -0.24781,0 -0.44247,-0.10563 -0.58203,-0.31641 -0.13957,-0.21077 -0.20899,-0.50488 -0.20899,-0.88086 0,-0.37028 0.0694,-0.66032 0.20899,-0.87109 0.14241,-0.21363 0.33707,-0.32031 0.58203,-0.32031 z m -4.74219,0.14062 c 0.44719,0 0.78174,0.21957 1.00391,0.65821 0.22502,0.43579 0.33593,1.09342 0.33593,1.9707 0,0.87443 -0.11091,1.53011 -0.33593,1.96875 -0.22217,0.43579 -0.55672,0.6543 -1.00391,0.6543 -0.44433,0 -0.77889,-0.21851 -1.00391,-0.6543 -0.22217,-0.43864 -0.33398,-1.09432 -0.33398,-1.96875 0,-0.87728 0.11181,-1.53491 0.33398,-1.9707 0.22502,-0.43864 0.55958,-0.65821 1.00391,-0.65821 z m -63.472657,0.91016 c -0.686442,0 -1.225016,0.22363 -1.615234,0.66797 -0.38737,0.44434 -0.580078,1.05957 -0.580078,1.8457 0,0.78328 0.192708,1.39852 0.580078,1.8457 0.390218,0.44434 0.928792,0.66602 1.615234,0.66602 0.683594,0 1.22111,-0.22168 1.611328,-0.66602 0.390218,-0.44718 0.583985,-1.06242 0.583985,-1.8457 0,-0.78613 -0.193767,-1.40136 -0.583985,-1.8457 -0.390218,-0.44434 -0.927734,-0.66797 -1.611328,-0.66797 z m 5.792969,0 c -0.344645,0 -0.641928,0.0694 -0.892578,0.20898 -0.250652,0.13957 -0.465087,0.35702 -0.644532,0.65039 l 0,-0.74414 -0.791015,0 0,4.78516 0.791015,0 0,-2.70312 c 0,-0.46428 0.117106,-0.83293 0.353516,-1.10352 0.236409,-0.27344 0.55542,-0.41016 0.957031,-0.41016 0.338949,0 0.589601,0.11181 0.751953,0.33399 0.162354,0.21931 0.244141,0.56006 0.244141,1.02148 l 0,2.86133 0.791016,0 0,-2.70312 c 0,-0.46712 0.117105,-0.83684 0.353515,-1.10743 0.23641,-0.27059 0.559489,-0.40625 0.966797,-0.40625 0.333252,0 0.579834,0.11181 0.742188,0.33399 0.162353,0.22216 0.24414,0.56291 0.24414,1.02148 l 0,2.86133 0.791016,0 0,-2.88672 c 0,-0.64372 -0.135661,-1.14079 -0.40625,-1.48828 -0.270589,-0.35034 -0.655843,-0.52539 -1.154297,-0.52539 -0.37028,0 -0.691406,0.0839 -0.964844,0.25195 -0.273437,0.16806 -0.508544,0.43001 -0.705078,0.78321 -0.11678,-0.33611 -0.298016,-0.59294 -0.542968,-0.76954 -0.242108,-0.17659 -0.537273,-0.26562 -0.884766,-0.26562 z m 8.234375,0 c -0.717773,0 -1.290447,0.23193 -1.714844,0.69336 -0.42155,0.45857 -0.630859,1.07804 -0.630859,1.86133 0,0.75765 0.221679,1.36035 0.666015,1.80468 0.447185,0.44434 1.053061,0.66602 1.816407,0.66602 0.304769,0 0.604167,-0.0311 0.90039,-0.0937 0.296224,-0.0627 0.585205,-0.1538 0.867188,-0.27344 l 0,-0.74414 c -0.279134,0.14812 -0.560873,0.25993 -0.845703,0.33399 -0.281983,0.074 -0.57308,0.11132 -0.875,0.11132 -0.52124,0 -0.929281,-0.14184 -1.222657,-0.42382 -0.290526,-0.28484 -0.452148,-0.69711 -0.486328,-1.23828 l 3.613282,0 0,-0.38477 c 0,-0.71207 -0.186525,-1.27449 -0.5625,-1.6875 -0.37313,-0.41585 -0.881673,-0.625 -1.525391,-0.625 z m 7.855469,0 c -0.586752,0 -1.038412,0.12223 -1.357422,0.36719 -0.319011,0.24495 -0.478516,0.59293 -0.478516,1.04297 0,0.37028 0.107748,0.66332 0.324219,0.87695 0.216471,0.21077 0.567627,0.36621 1.054687,0.46875 l 0.273438,0.0644 c 0.487061,0.10539 0.802897,0.21615 0.945312,0.33008 0.145264,0.11393 0.216797,0.27661 0.216797,0.49023 0,0.23072 -0.09945,0.41089 -0.298828,0.53907 -0.199381,0.12532 -0.483236,0.1875 -0.853515,0.1875 -0.276286,0 -0.555908,-0.0373 -0.837891,-0.11133 -0.281983,-0.0769 -0.568848,-0.19084 -0.859375,-0.3418 l 0,0.8125 c 0.307617,0.0997 0.600667,0.17231 0.876953,0.22071 0.279134,0.0513 0.546387,0.0781 0.802734,0.0781 0.615235,0 1.098877,-0.12948 1.449219,-0.38867 0.35319,-0.2592 0.529297,-0.6123 0.529297,-1.05664 0,-0.39022 -0.119059,-0.69174 -0.355469,-0.90821 -0.233561,-0.21932 -0.629231,-0.39013 -1.1875,-0.50976 l -0.269531,-0.0586 c -0.421549,-0.094 -0.70223,-0.19238 -0.841797,-0.29492 -0.139567,-0.10538 -0.208984,-0.24934 -0.208984,-0.43164 0,-0.23925 0.09733,-0.41943 0.291015,-0.53906 0.196534,-0.11963 0.490642,-0.17969 0.88086,-0.17969 0.256348,0 0.50293,0.029 0.742187,0.0859 0.239258,0.057 0.471192,0.14193 0.69336,0.25586 l 0,-0.74219 c -0.216472,-0.0854 -0.454591,-0.15062 -0.710938,-0.19336 -0.256348,-0.0427 -0.529785,-0.0644 -0.820312,-0.0644 z m 10.275394,0 c -0.25635,0 -0.51847,0.029 -0.78907,0.0859 -0.27058,0.0541 -0.55021,0.13696 -0.83789,0.24804 l 0,0.72657 c 0.23926,-0.131 0.48886,-0.22939 0.74805,-0.29493 0.2592,-0.0655 0.52539,-0.0976 0.79883,-0.0976 0.43009,0 0.76358,0.0994 1,0.29883 0.23925,0.19653 0.35742,0.4742 0.35742,0.83593 l 0,0.0781 -1.10156,0 c -0.71493,0 -1.2535,0.13672 -1.61524,0.41015 -0.35888,0.27345 -0.53711,0.67848 -0.53711,1.2168 0,0.46143 0.14396,0.83114 0.43164,1.10742 0.29053,0.27344 0.68002,0.41016 1.16993,0.41016 0.38737,0 0.71468,-0.0684 0.98242,-0.20508 0.26774,-0.13956 0.49048,-0.35595 0.66992,-0.64648 l 0,0.72656 0.78711,0 0,-2.72852 c 0,-0.72916 -0.17187,-1.27392 -0.51367,-1.63281 -0.3418,-0.35888 -0.85864,-0.53906 -1.55078,-0.53906 z m 6.05859,0 c -0.37883,0 -0.69995,0.0724 -0.96484,0.21484 -0.2649,0.13957 -0.47935,0.35401 -0.64453,0.64453 l 0,-0.74414 -0.79102,0 0,4.78516 0.79102,0 0,-2.51953 c 0,-0.54118 0.1171,-0.95646 0.35351,-1.24414 0.23926,-0.29053 0.58105,-0.43555 1.02539,-0.43555 0.12532,0 0.23926,0.0134 0.3418,0.0391 0.10538,0.0228 0.20271,0.0601 0.29101,0.11133 l -0.004,-0.80859 c -0.0797,-0.0139 -0.15322,-0.0233 -0.21875,-0.0293 -0.0655,-0.009 -0.12556,-0.0137 -0.17969,-0.0137 z m 3.05078,0 c -0.71777,0 -1.28849,0.23193 -1.71289,0.69336 -0.42155,0.45857 -0.63281,1.07804 -0.63281,1.86133 0,0.75765 0.22167,1.36035 0.66601,1.80468 0.44718,0.44434 1.05306,0.66602 1.81641,0.66602 0.30477,0 0.60612,-0.0311 0.90234,-0.0937 0.29623,-0.0627 0.58521,-0.1538 0.86719,-0.27344 l 0,-0.74414 c -0.27913,0.14812 -0.56088,0.25993 -0.8457,0.33399 -0.28199,0.074 -0.57504,0.11132 -0.87696,0.11132 -0.52123,0 -0.92732,-0.14184 -1.2207,-0.42382 -0.2905,-0.28484 -0.45408,-0.69711 -0.48828,-1.23828 l 3.61524,0 0,-0.38477 c 0,-0.71207 -0.18848,-1.27449 -0.56446,-1.6875 -0.37312,-0.41585 -0.88168,-0.625 -1.52539,-0.625 z m 44.00195,0 c -0.58675,0 -1.03841,0.12223 -1.35742,0.36719 -0.31901,0.24495 -0.47851,0.59293 -0.47851,1.04297 0,0.37028 0.10774,0.66332 0.32422,0.87695 0.21647,0.21077 0.56762,0.36621 1.05468,0.46875 l 0.27344,0.0644 c 0.48707,0.10539 0.8029,0.21615 0.94531,0.33008 0.14526,0.11393 0.2168,0.27661 0.2168,0.49023 0,0.23072 -0.0994,0.41089 -0.29883,0.53907 -0.19938,0.12532 -0.48323,0.1875 -0.85351,0.1875 -0.27629,0 -0.55591,-0.0373 -0.83789,-0.11133 -0.28199,-0.0769 -0.56885,-0.19084 -0.85938,-0.3418 l 0,0.8125 c 0.30762,0.0997 0.60067,0.17231 0.87695,0.22071 0.27914,0.0513 0.54639,0.0781 0.80274,0.0781 0.61523,0 1.09692,-0.12948 1.44726,-0.38867 0.3532,-0.2592 0.53125,-0.6123 0.53125,-1.05664 0,-0.39022 -0.11904,-0.69174 -0.35547,-0.90821 -0.23356,-0.21932 -0.62923,-0.39013 -1.1875,-0.50976 l -0.26953,-0.0586 c -0.42155,-0.094 -0.70223,-0.19238 -0.84179,-0.29492 -0.13957,-0.10538 -0.20899,-0.24934 -0.20899,-0.43164 0,-0.23925 0.0973,-0.41943 0.29102,-0.53906 0.19653,-0.11963 0.48869,-0.17969 0.8789,-0.17969 0.25636,0 0.50488,0.029 0.74415,0.0859 0.23926,0.057 0.46923,0.14193 0.6914,0.25586 l 0,-0.74219 c -0.21647,-0.0854 -0.45264,-0.15062 -0.70898,-0.19336 -0.25635,-0.0427 -0.52979,-0.0644 -0.82032,-0.0644 z m 5.04688,0 c -0.71777,0 -1.29044,0.23193 -1.71484,0.69336 -0.42155,0.45857 -0.63086,1.07804 -0.63086,1.86133 0,0.75765 0.22168,1.36035 0.66601,1.80468 0.44719,0.44434 1.05306,0.66602 1.81641,0.66602 0.30476,0 0.60417,-0.0311 0.90039,-0.0937 0.29623,-0.0627 0.58521,-0.1538 0.86719,-0.27344 l 0,-0.74414 c -0.27914,0.14812 -0.56088,0.25993 -0.84571,0.33399 -0.28198,0.074 -0.57308,0.11132 -0.875,0.11132 -0.52124,0 -0.92928,-0.14184 -1.22265,-0.42382 -0.29051,-0.28484 -0.45213,-0.69711 -0.48633,-1.23828 l 3.61328,0 0,-0.38477 c 0,-0.71207 -0.18653,-1.27449 -0.5625,-1.6875 -0.37313,-0.41585 -0.88168,-0.625 -1.52539,-0.625 z m -12.20313,0.11523 0,2.89649 c 0,0.65796 0.14291,1.1582 0.42774,1.5 0.28483,0.34179 0.70223,0.51367 1.25195,0.51367 0.33325,0 0.62435,-0.0694 0.875,-0.20898 0.2535,-0.14242 0.47518,-0.35987 0.66602,-0.6504 l 0,0.73438 0.78711,0 0,-4.78516 -0.78711,0 0,2.71289 c 0,0.46712 -0.1233,0.83683 -0.3711,1.10743 -0.24495,0.27058 -0.5795,0.40625 -1.0039,0.40625 -0.35319,0 -0.61832,-0.11288 -0.79492,-0.33789 -0.1766,-0.22787 -0.26368,-0.56861 -0.26368,-1.02149 l 0,-2.86719 -0.78711,0 z m -27.71093,0.26172 0,1.08399 0.90234,0 0,-1.08399 -0.90234,0 z m -3.94727,0.28125 c 0.41585,0 0.74316,0.1657 0.98242,0.4961 0.23926,0.32756 0.35938,0.78116 0.35938,1.35937 0,0.57821 -0.12012,1.03093 -0.35938,1.36133 -0.23926,0.32755 -0.56657,0.49219 -0.98242,0.49219 -0.41585,0 -0.74317,-0.16464 -0.98242,-0.49219 -0.23641,-0.3304 -0.35547,-0.78312 -0.35547,-1.36133 0,-0.57821 0.11906,-1.03181 0.35547,-1.35937 0.23925,-0.3304 0.56657,-0.4961 0.98242,-0.4961 z m 49.04688,0 c 0.41585,0 0.74316,0.1657 0.98242,0.4961 0.23926,0.32756 0.35937,0.78116 0.35937,1.35937 0,0.57821 -0.12011,1.03093 -0.35937,1.36133 -0.23926,0.32755 -0.56657,0.49219 -0.98242,0.49219 -0.41585,0 -0.74317,-0.16464 -0.98243,-0.49219 -0.23641,-0.3304 -0.35351,-0.78312 -0.35351,-1.36133 0,-0.57821 0.1171,-1.03181 0.35351,-1.35937 0.23926,-0.3304 0.56658,-0.4961 0.98243,-0.4961 z m -95.501957,0.01 c 0.418701,0 0.751139,0.1648 0.996094,0.49804 0.244954,0.33042 0.367187,0.78085 0.367187,1.34766 0,0.56966 -0.122233,1.01921 -0.367187,1.34961 -0.244955,0.33041 -0.577393,0.49609 -0.996094,0.49609 -0.424397,0 -0.758951,-0.16463 -1.003906,-0.49218 -0.242106,-0.33041 -0.363281,-0.78101 -0.363281,-1.35352 0,-0.57251 0.122233,-1.02401 0.367187,-1.35156 0.244955,-0.33041 0.578451,-0.49414 1,-0.49414 z m 14.035156,0 c 0.38737,0 0.69808,0.12646 0.931641,0.38281 0.236439,0.25635 0.357615,0.60116 0.363281,1.03125 l -2.802734,0.004 c 0.03988,-0.45004 0.19108,-0.79908 0.453125,-1.04688 0.264892,-0.2478 0.616048,-0.37109 1.054687,-0.37109 z m 27.240231,0 c 0.38738,0 0.69808,0.12646 0.93164,0.38281 0.23611,0.25635 0.35729,0.60116 0.36329,1.03125 l -2.80274,0.004 c 0.0399,-0.45004 0.19109,-0.79908 0.45313,-1.04688 0.26489,-0.2478 0.61604,-0.37109 1.05468,-0.37109 z m 49.04883,0 c 0.38738,0 0.69808,0.12646 0.93164,0.38281 0.23611,0.25635 0.35728,0.60116 0.36328,1.03125 l -2.80273,0.004 c 0.0399,-0.45004 0.19108,-0.79908 0.45312,-1.04688 0.2649,-0.2478 0.61605,-0.37109 1.05469,-0.37109 z m -17.70117,0.88281 c -0.45289,0 -0.81234,0.15739 -1.08008,0.4707 -0.26489,0.31047 -0.39844,0.73406 -0.39844,1.26953 0,0.53264 0.13355,0.95426 0.39844,1.26758 0.2649,0.31046 0.62435,0.4668 1.08008,0.4668 0.44718,0 0.80347,-0.15634 1.06836,-0.4668 0.26774,-0.31332 0.40234,-0.73493 0.40234,-1.26758 0,-0.53263 -0.13354,-0.95621 -0.39843,-1.26953 -0.26489,-0.31331 -0.62224,-0.4707 -1.07227,-0.4707 z m 0,0.54297 c 0.24211,0 0.4327,0.10669 0.57227,0.32031 0.14241,0.21078 0.21484,0.50383 0.21484,0.87695 0,0.37029 -0.0724,0.66139 -0.21484,0.875 -0.13957,0.21078 -0.33016,0.31641 -0.57227,0.31641 -0.24781,0 -0.44157,-0.10563 -0.58398,-0.31641 -0.13957,-0.21362 -0.21094,-0.5047 -0.21094,-0.875 0,-0.37597 0.0714,-0.67008 0.21094,-0.88085 0.14241,-0.21078 0.33617,-0.31641 0.58398,-0.31641 z m -39.96875,0.40234 0.78125,0 0,0.17578 c 0,0.5127 -0.1316,0.92391 -0.39648,1.23438 -0.26205,0.30761 -0.61109,0.46094 -1.04688,0.46094 -0.31616,0 -0.56681,-0.0818 -0.75195,-0.24414 -0.1823,-0.1652 -0.27344,-0.38689 -0.27344,-0.66602 0,-0.35034 0.12223,-0.59887 0.36719,-0.74414 0.24496,-0.14526 0.68514,-0.2168 1.32031,-0.2168 z m 17.74805,1.32032 0,1.08398 0.90234,0 0,-1.08398 -0.90234,0 z"
     id="path4475"
     class="ColorScheme-Text"
     inkscape:connector-curvature="0" />
</svg>
