<svg height="64" viewBox="0 0 64 64" width="64" xmlns="http://www.w3.org/2000/svg" xmlns:xlink="http://www.w3.org/1999/xlink">
    <linearGradient id="a" gradientUnits="userSpaceOnUse" x1="40.013" x2="54.013" y1="17.016" y2="31.016">
        <stop offset="0" stop-color="#060606"/>
        <stop offset="1" stop-opacity="0"/>
    </linearGradient>
    <linearGradient id="b" gradientUnits="userSpaceOnUse" x1="10.01" x2="54.01" y1="10.02" y2="54.02">
        <stop offset="0" stop-color="#fcc565"/>
        <stop offset="1" stop-color="#e3a943"/>
    </linearGradient>
    <path d="m10.01 61.02v-58h30l14 14v44h-14z" fill="url(#b)"/>
    <g transform="scale(1 -1)">
        <path d="m10.01-4.02h30v1h-30z" fill="#fff" opacity=".5"/>
        <path d="m10.01-61.02h44v1h-44z" opacity=".25"/>
    </g>
    <g fill-rule="evenodd">
        <path d="m54.01 17.02-14-14v14z" fill="#fff" opacity=".5"/>
        <path d="m40.01 17.02 14 14v-14z" fill="url(#a)" opacity=".2"/>
        <g fill="#fcfcfc">
            <path d="m29 20.75v9.12890625l7.93945313-7.93945312-1.93945313-.93945313zm-3 1.5-3 2.25-2.25 5.5v4l2.25 5.5 3 2.25v-7.75h-4.5v-1h4.5v-2h-4.5v-1h4.5zm13.43554688 1.43554688-6.31445313 6.31445312h9.37890625v1h-10.37890625l-1 1 1 1h10.37890625v1h-9.37890625l6.31445313 6.31445313 3.56445312-3.81445313v-9zm-10.43554688 19.56445312 6-.25 2-.87890625-8-8z"/>
            <path d="m32 20a12 12 0 0 0 -12 12 12 12 0 0 0 12 12 12 12 0 0 0 12-12 12 12 0 0 0 -12-12zm0 1a11 11 0 0 1 11 11 11 11 0 0 1 -11 11 11 11 0 0 1 -11-11 11 11 0 0 1 11-11z"/>
            <g transform="translate(50)">
                <path d="m29 22v7.87890625l7.41015625-7.41015625-1.41015625-.46875zm-3 1-3 3-1 3v1h4zm13.06054688 1.06054688-5.93945313 5.93945312h8.87890625v-1l-.79492188-2.38476563-.625-1.03515625zm-6.93945313 6.93945312-1 1 1 1h9.87890625v-2zm-10.12109375 0v2h4v-2zm0 3v1l1 3 3 3v-7zm11.12109375 0 5.93945313 5.93945313 1.51953125-1.51953125.625-1.03515625.79492187-2.38476563v-1zm-4.12109375.12109375v7.87890625h6l1.41015625-.46875z"/>
                <path d="m32 21a11 11 0 0 0 -11 11 11 11 0 0 0 11 11 11 11 0 0 0 11-11 11 11 0 0 0 -11-11zm0 1a10 10 0 0 1 10 10 10 10 0 0 1 -10 10 10 10 0 0 1 -10-10 10 10 0 0 1 10-10z"/>
            </g>
        </g>
    </g>
</svg>
