<?xml version="1.0" encoding="UTF-8" standalone="no"?>
<svg xmlns:dc="http://purl.org/dc/elements/1.1/" xmlns:cc="http://creativecommons.org/ns#" xmlns:rdf="http://www.w3.org/1999/02/22-rdf-syntax-ns#" xmlns:svg="http://www.w3.org/2000/svg" xmlns="http://www.w3.org/2000/svg" xmlns:xlink="http://www.w3.org/1999/xlink" xmlns:sodipodi="http://sodipodi.sourceforge.net/DTD/sodipodi-0.dtd" xmlns:inkscape="http://www.inkscape.org/namespaces/inkscape" sodipodi:docname="application-pgp-signature.svg" inkscape:version="1.1-dev (d80adc983d, 2020-06-15)" version="1.1" id="svg2" height="64" viewBox="0 0 64 64" width="64">
    <metadata id="metadata45">
        <rdf:RDF>
            <cc:Work rdf:about="">
                <dc:format>image/svg+xml</dc:format>
                <dc:type rdf:resource="http://purl.org/dc/dcmitype/StillImage" />
            </cc:Work>
        </rdf:RDF>
    </metadata>
    <sodipodi:namedview inkscape:current-layer="svg2" inkscape:cy="34.320086" inkscape:cx="37.108756" inkscape:zoom="1" inkscape:bbox-nodes="true" inkscape:snap-bbox="true" showgrid="false" id="namedview43" inkscape:window-height="480" inkscape:window-width="640" inkscape:pageshadow="2" inkscape:pageopacity="0" guidetolerance="10" gridtolerance="10" objecttolerance="10" borderopacity="1" bordercolor="#666666" pagecolor="#ffffff">
        <inkscape:grid id="grid4173" type="xygrid" />
    </sodipodi:namedview>
    <defs id="defs4">
        <linearGradient gradientTransform="matrix(1 0 0-1 0 64)" gradientUnits="userSpaceOnUse" x2="0" y2="61" y1="3" id="a">
            <stop id="stop7" stop-color="#5e6b78" />
            <stop id="stop9" stop-color="#768492" offset="1" />
        </linearGradient>
        <linearGradient gradientTransform="matrix(1 0 0-1 0 64)" gradientUnits="userSpaceOnUse" x2="0" y2="47" y1="61" id="b">
            <stop id="stop12" stop-color="#dedede" />
            <stop id="stop14" stop-color="#fbfbfb" offset="1" />
        </linearGradient>
        <linearGradient gradientUnits="userSpaceOnUse" x2="54" y2="31" x1="40" y1="17" id="c">
            <stop id="stop17" stop-color="#383e51" />
            <stop id="stop19" stop-opacity="0" stop-color="#655c6f" offset="1" />
        </linearGradient>
        <linearGradient y2="336.36221" x2="58" y1="392.36221" x1="58" gradientTransform="translate(-48,-332.36221)" gradientUnits="userSpaceOnUse" id="linearGradient7937" xlink:href="#linearGradient6251" inkscape:collect="always" />
        <linearGradient id="linearGradient6251" inkscape:collect="always">
            <stop id="stop6253" offset="0" style="stop-color:#ffffff;stop-opacity:0" />
            <stop id="stop6255" offset="1" style="stop-color:#ffffff;stop-opacity:0.2" />
        </linearGradient>
        <linearGradient y2="31" x2="54" y1="17" x1="40" gradientUnits="userSpaceOnUse" id="linearGradient9730" xlink:href="#linearGradient9654" inkscape:collect="always" />
        <linearGradient id="linearGradient9654" inkscape:collect="always">
            <stop id="stop9656" offset="0" style="stop-color:#060606;stop-opacity:1" />
            <stop id="stop9658" offset="1" style="stop-color:#000000;stop-opacity:0" />
        </linearGradient>
    </defs>
    <g id="g4251">
        <path d="m 10,61 0,-58 30,0 14,14 0,30 0,14 -14,0 -30,0 z" id="path7345" style="fill:#2cbd2c;fill-opacity:1" inkscape:connector-curvature="0" inkscape:export-xdpi="96" inkscape:export-ydpi="96" />
        <rect transform="scale(1,-1)" id="rect7347" style="color:#000000;clip-rule:nonzero;display:inline;overflow:visible;visibility:visible;opacity:0.5;isolation:auto;mix-blend-mode:normal;color-interpolation:sRGB;color-interpolation-filters:linearRGB;solid-color:#000000;solid-opacity:1;fill:#ffffff;fill-opacity:1;fill-rule:nonzero;stroke-width:1;stroke-linecap:butt;stroke-linejoin:miter;stroke-miterlimit:4;stroke-dasharray:none;stroke-dashoffset:0;stroke-opacity:1;color-rendering:auto;image-rendering:auto;shape-rendering:auto;text-rendering:auto;enable-background:accumulate" height="1" y="-3.9999731" x="10" width="30" inkscape:export-xdpi="96" inkscape:export-ydpi="96" />
        <rect transform="scale(1,-1)" id="rect7349" style="color:#000000;clip-rule:nonzero;display:inline;overflow:visible;visibility:visible;opacity:0.25;isolation:auto;mix-blend-mode:normal;color-interpolation:sRGB;color-interpolation-filters:linearRGB;solid-color:#000000;solid-opacity:1;fill:#000000;fill-opacity:1;fill-rule:nonzero;stroke-width:1;stroke-linecap:butt;stroke-linejoin:miter;stroke-miterlimit:4;stroke-dasharray:none;stroke-dashoffset:0;stroke-opacity:1;color-rendering:auto;image-rendering:auto;shape-rendering:auto;text-rendering:auto;enable-background:accumulate" height="1" y="-60.999969" x="10" width="44" inkscape:export-xdpi="96" inkscape:export-ydpi="96" />
        <path d="M 54,17 40,3 40,17 Z" id="path7351" style="opacity:0.6;fill:#ffffff;fill-opacity:1;fill-rule:evenodd" inkscape:connector-curvature="0" inkscape:export-xdpi="96" inkscape:export-ydpi="96" />
        <path d="M 40,17 54,30.99999 54,17 Z" id="path9708" style="opacity:0.2;fill:url(#linearGradient9730);fill-rule:evenodd" inkscape:connector-curvature="0" inkscape:export-xdpi="96" inkscape:export-ydpi="96" />
        <path style="fill:#ffffff;color:#000000;clip-rule:nonzero;display:inline;overflow:visible;visibility:visible;opacity:0.8;isolation:auto;mix-blend-mode:normal;color-interpolation:sRGB;color-interpolation-filters:linearRGB;solid-color:#000000;solid-opacity:1;fill-opacity:1;fill-rule:nonzero;stroke-width:2;stroke-linecap:square;stroke-linejoin:miter;stroke-miterlimit:4;stroke-dasharray:none;stroke-dashoffset:0;stroke-opacity:1;filter-blend-mode:normal;filter-gaussianBlur-deviation:0;color-rendering:auto;image-rendering:auto;shape-rendering:auto;text-rendering:auto;enable-background:accumulate" d="M 41.855469 19.533203 C 41.715822 19.53171 41.572576 19.570176 41.4375 19.65625 C 41.36537 19.70626 41.052028 20.081844 40.744141 20.492188 L 40.183594 21.246094 L 39.980469 21.107422 C 39.696187 20.919951 39.421879 20.87849 39.166016 20.994141 C 38.989175 21.073771 38.574729 21.608824 35.855469 25.224609 C 34.139364 27.504094 32.743907 29.386921 32.748047 29.416016 C 32.751547 29.440306 33.448292 29.984415 34.291016 30.617188 L 35.832031 31.775391 L 37.859375 29.074219 C 38.975189 27.588181 39.903528 26.385635 39.925781 26.402344 C 39.997991 26.456344 40.129383 27.622928 40.103516 27.998047 C 40.093136 28.202666 40.016599 28.570371 39.9375 28.814453 C 39.796421 29.250621 39.781059 29.276184 37.267578 32.634766 C 35.877473 34.491521 34.720034 36.068529 34.699219 36.130859 C 34.639529 36.302744 34.705696 36.624244 34.835938 36.808594 C 35.053365 37.11941 35.591159 37.217644 35.896484 36.996094 C 36.10741 36.842182 41.085835 30.140583 41.244141 29.791016 C 41.706562 28.794169 41.802311 27.517674 41.509766 26.261719 C 41.394177 25.763212 41.243038 25.284024 41.095703 24.943359 C 41.052783 24.850349 41.124191 24.731337 41.589844 24.105469 C 42.029854 23.508029 42.130744 23.340258 42.138672 23.185547 C 42.156092 22.856285 42.055445 22.67301 41.732422 22.421875 L 41.431641 22.1875 L 42.029297 21.384766 C 42.519217 20.720856 42.625138 20.547253 42.632812 20.392578 C 42.654982 19.899442 42.274409 19.537682 41.855469 19.533203 z M 31.787109 30.666016 C 31.772439 30.668116 29.943868 33.097789 27.720703 36.058594 C 24.14501 40.82641 23.636429 41.532136 23.306641 42.138672 C 22.651441 43.346217 21.93845 45.187194 21.464844 46.869141 C 21.157852 47.947895 21.142433 47.850274 21.570312 47.621094 C 22.890107 46.908276 24.61412 45.75115 25.617188 44.900391 C 26.598018 44.067509 26.765023 43.855749 30.919922 38.322266 L 34.916016 32.994141 L 33.363281 31.828125 C 32.509286 31.18689 31.801783 30.663928 31.787109 30.666016 z M 32.236328 43.005859 C 32.040078 42.994734 31.838031 43.000844 31.707031 43.027344 L 31.707031 43.029297 C 31.086031 43.160297 30.394547 43.698359 30.060547 44.318359 C 29.970547 44.479359 29.827281 44.844141 29.738281 45.119141 C 29.654281 45.399141 29.576312 45.632672 29.570312 45.638672 C 29.522313 45.698672 28.334719 45.983516 27.636719 46.103516 C 25.995719 46.390516 25.547719 46.497484 25.386719 46.646484 C 25.070719 46.938484 25.315672 47.232563 25.763672 47.101562 C 25.882672 47.065562 26.389906 46.964859 26.878906 46.880859 C 27.368906 46.796859 28.114109 46.641875 28.537109 46.546875 C 28.961109 46.445875 29.319891 46.378484 29.337891 46.396484 C 29.355891 46.414484 29.284875 46.754297 29.171875 47.154297 L 28.96875 47.871094 L 28.519531 48.068359 C 28.274531 48.175359 27.923281 48.360328 27.738281 48.486328 C 27.177281 48.856328 27.068891 49.321141 27.462891 49.619141 C 27.677891 49.780141 28.274531 49.774281 28.644531 49.613281 C 28.972531 49.464281 29.157062 49.255891 29.414062 48.712891 C 29.551063 48.431891 29.659188 48.283625 29.742188 48.265625 C 29.808187 48.247625 30.400641 48.128234 31.056641 47.990234 C 31.713641 47.859234 32.309719 47.732844 32.386719 47.714844 C 32.511719 47.684844 32.524281 47.696547 32.488281 47.810547 C 32.464281 47.882547 32.356188 48.092344 32.242188 48.277344 C 32.129188 48.462344 32.039062 48.682484 32.039062 48.771484 C 32.039062 48.956484 32.195312 49.14175 32.320312 49.09375 C 32.368313 49.07575 32.432891 49.058594 32.462891 49.058594 C 32.492891 49.058594 32.624859 48.96275 32.755859 48.84375 C 33.000859 48.62275 33.591797 47.541453 33.591797 47.314453 C 33.591797 47.201453 33.681375 47.172719 33.734375 47.261719 C 33.752375 47.291719 33.888109 47.345859 34.037109 47.380859 C 34.246109 47.434859 34.306641 47.475312 34.306641 47.570312 C 34.306641 47.755313 34.611859 48.025125 34.880859 48.078125 C 35.089859 48.114125 35.358531 48.072125 35.644531 47.953125 C 35.745531 47.911125 35.751797 47.923125 35.716797 48.078125 C 35.692797 48.174125 35.518984 48.478766 35.333984 48.759766 C 34.939984 49.344766 34.462891 50.2755 34.337891 50.6875 C 34.236891 51.0395 34.277891 51.302734 34.462891 51.427734 C 34.629891 51.534734 34.903875 51.486078 35.046875 51.330078 C 35.171875 51.193078 35.853516 49.755609 36.103516 49.099609 C 36.282516 48.639609 36.365484 48.513984 36.771484 48.083984 C 37.105484 47.731984 37.214578 47.648156 37.142578 47.785156 C 37.023578 48.042156 37.029156 48.238422 37.160156 48.357422 C 37.440156 48.614422 37.846219 48.36375 38.199219 47.71875 C 38.408219 47.33675 38.563844 47.224375 39.339844 46.859375 L 39.744141 46.673828 L 39.703125 46.894531 C 39.679125 47.013531 39.541438 47.354484 39.398438 47.646484 C 39.117438 48.237484 39.065422 48.613547 39.232422 48.935547 C 39.345422 49.156547 39.464672 49.163656 40.013672 48.972656 C 40.777672 48.715656 41.774203 48.123203 42.033203 47.783203 C 42.385203 47.305203 42.493297 46.846406 42.279297 46.691406 C 42.058297 46.530406 41.933344 46.595812 41.652344 47.007812 C 41.276344 47.568812 40.811281 48.005562 40.363281 48.226562 C 40.154281 48.333562 39.969172 48.404719 39.951172 48.386719 C 39.927172 48.362719 40.404156 47.079562 40.660156 46.476562 C 40.714156 46.351562 40.757812 46.195859 40.757812 46.130859 C 40.757812 45.963859 40.548141 45.773438 40.369141 45.773438 C 40.285141 45.773438 39.890094 45.933719 39.496094 46.136719 C 38.678094 46.542719 38.732406 46.578453 38.941406 45.814453 C 39.066406 45.343453 39.025281 45.2175 38.738281 45.1875 C 38.463281 45.1575 38.356469 45.248312 38.105469 45.695312 C 37.944469 45.999313 37.730359 46.250813 37.318359 46.632812 C 36.775359 47.133812 36.751 47.1515 36.625 47.0625 C 36.434 46.9255 36.326328 46.943781 35.861328 47.175781 C 35.407328 47.402781 35.257531 47.432922 35.144531 47.294922 C 35.048531 47.181922 35.199297 47.121938 36.029297 46.960938 C 36.835297 46.805937 36.935547 46.762703 36.935547 46.595703 C 36.935547 46.326703 36.714313 46.071437 36.320312 45.898438 C 35.639313 45.594437 35.563625 45.575344 35.265625 45.652344 C 34.943625 45.736344 34.465391 46.195422 34.400391 46.482422 C 34.334391 46.781422 34.130859 46.691281 34.130859 46.363281 C 34.130859 46.226281 33.963187 45.880312 33.867188 45.820312 C 33.664187 45.683312 33.336937 45.98225 33.085938 46.53125 L 32.888672 46.955078 L 32.447266 47.050781 C 31.874266 47.175781 30.209281 47.509734 29.988281 47.552734 C 29.845281 47.576734 29.821562 47.564469 29.851562 47.480469 C 29.875563 47.420469 29.946578 47.159625 30.017578 46.890625 C 30.202578 46.150625 30.257391 46.053984 30.525391 45.958984 C 30.847391 45.845984 31.934844 45.379328 32.214844 45.236328 C 32.345844 45.170328 32.613547 44.968062 32.810547 44.789062 C 33.413547 44.228063 33.508125 43.708172 33.078125 43.326172 C 32.959125 43.225172 32.803422 43.117891 32.732422 43.087891 C 32.622422 43.045891 32.432578 43.016984 32.236328 43.005859 z M 31.634766 43.703125 C 31.717656 43.698469 31.815703 43.701484 31.939453 43.708984 C 32.255453 43.726984 32.381703 43.756563 32.470703 43.851562 C 32.589703 43.970562 32.589422 43.976125 32.482422 44.203125 C 32.410422 44.346125 32.244156 44.514203 32.035156 44.658203 C 31.671156 44.909203 30.530141 45.368156 30.494141 45.285156 C 30.446141 45.148156 30.811922 44.329406 31.044922 44.066406 C 31.277422 43.802406 31.386094 43.717094 31.634766 43.703125 z M 28.570312 48.701172 C 28.615813 48.704172 28.616625 48.743859 28.578125 48.818359 C 28.500125 48.967359 28.296594 49.075203 28.183594 49.033203 C 28.052594 48.979203 28.087875 48.908781 28.296875 48.800781 C 28.434375 48.732281 28.524812 48.698172 28.570312 48.701172 z " id="path37" />
        <path inkscape:connector-curvature="0" style="fill:url(#linearGradient7937);fill-opacity:1" id="path7761" d="M 10,61 V 3 H 40 L 54,17 V 47 61 H 40 Z" inkscape:export-xdpi="96" inkscape:export-ydpi="96" />
    </g>
</svg>
