<svg viewBox="0 0 64 64" xmlns="http://www.w3.org/2000/svg">
    <linearGradient id="a" x2="0" y1="3" y2="61" gradientTransform="matrix(1 0 0 -1 0 64)" gradientUnits="userSpaceOnUse">
        <stop stop-color="#8e44ad" offset="0"/>
        <stop stop-color="#9b59b6" offset="1"/>
    </linearGradient>
    <linearGradient id="b" x2="0" y1="61" y2="47" gradientTransform="matrix(1 0 0 -1 0 64)" gradientUnits="userSpaceOnUse">
        <stop stop-color="#d3bdd7" offset="0"/>
        <stop stop-color="#e8d9eb" offset="1"/>
    </linearGradient>
    <linearGradient id="c" x1="40" x2="54" y1="17" y2="31" gradientUnits="userSpaceOnUse">
        <stop stop-color="#383e51" offset="0"/>
        <stop stop-color="#655c6f" stop-opacity="0" offset="1"/>
    </linearGradient>
    <path d="m10 61v-58h30l14 14v44h-14z" fill="url(#a)"/>
    <g transform="scale(1 -1)">
        <path d="m10-4h30v1h-30z" fill="#fff" fill-opacity=".412"/>
        <path d="m10-61h44v1h-44z" fill="#2e3132" fill-opacity=".294"/>
    </g>
    <g fill-rule="evenodd">
        <path d="m54 17-14-14v14z" fill="url(#b)"/>
        <path d="m40 17 14 14v-14z" fill="url(#c)" opacity=".2"/>
    </g>
    <path d="m22 28v3h3v7h-3v3h10v-3h-3v-2h3.5c.828427 0 1.5.671573 1.5 1.5v.5c.0018 1.149118.497698 2.241964 1.361328 3h7.277344c.86363-.758036 1.359537-1.850882 1.361328-3v-2h-4v1c0 .552285-.447715 1-1 1s-1-.447715-1-1v-.5c0-.828427-.671573-1.5-1.5-1.5h-1c1.932997 0 3.5-1.567003 3.5-3.5s-1.567003-3.5-3.5-3.5zm7 3h3.5c.828427 0 1.5.671573 1.5 1.5s-.671573 1.5-1.5 1.5h-3.5z" fill="#e8d9eb" stroke-width=".261905"/>
</svg>
