/* XPM */
static char *locked[] = {
/* columns rows colors chars-per-pixel */
"22 22 7 1",
"  c #000000",
". c #0E0E0E",
"X c #0F0F0F",
"o c #101010",
"O c #2F2F2F",
"+ c #363636",
"@ c None",
/* pixels */
"@@@@@@@@@@@@@@@@@@@@@@",
"@@@@@@@@@@@@@@@@@@@@@@",
"@@@@@@@@@@@@@@@@@@@@@@",
"@@@@@@@@@.    .@@@@@@@",
"@@@@@@@@.      .@@@@@@",
"@@@@@@@@  @@@@  @@@@@@",
"@@@@@@@@  @@@@  @@@@@@",
"@@@@@@@@  @@@@  @@@@@@",
"@@@@@@@@  @@@@  @@@@@@",
"@@@@@@@.        o@@@@@",
"@@@@@@o          o@@@@",
"@@@@@@    +@@+    @@@@",
"@@@@@@    @@@@    @@@@",
"@@@@@@    @@@@    @@@@",
"@@@@@@    O@@O    @@@@",
"@@@@@@    @@@@    @@@@",
"@@@@@@    @@@@    @@@@",
"@@@@@@@          @@@@@",
"@@@@@@@@@@@@@@@@@@@@@@",
"@@@@@@@@@@@@@@@@@@@@@@",
"@@@@@@@@@@@@@@@@@@@@@@",
"@@@@@@@@@@@@@@@@@@@@@@"
};
