<svg xmlns="http://www.w3.org/2000/svg" viewBox="0 0 22 22">
  <defs id="defs3051">
    <style type="text/css" id="current-color-scheme">
      .ColorScheme-Text {
        color:#eff0f1
      }
      </style>
  </defs>
    <path
       style="fill:currentColor"
       d="M 3 3 L 3 19 L 19 19 L 19 3 L 3 3 z M 4 4 L 18 4 L 18 17 L 18 18 L 4 18 L 4 17 L 4 4 z M 4 17 L 6.8 17 L 9.6 13.7 L 8.2 12 L 4 17 z M 18 17 L 13.8 12 L 9.6 17 L 18 17 z M 7 5 A 2 2 0 0 0 5 7 A 2 2 0 0 0 7 9 A 2 2 0 0 0 9 7 A 2 2 0 0 0 7 5 z "
       class="ColorScheme-Text" />
</svg>
