<svg xmlns="http://www.w3.org/2000/svg" viewBox="0 0 22 22">
  <defs id="defs3051">
    <style type="text/css" id="current-color-scheme">
      .ColorScheme-Text {
        color:#232629
      }
      </style>
  </defs>
    <path
       style="fill:currentColor"
       d="M 4 3 C 3.4459904 3 3 3.4459904 3 4 L 3 18 C 3 18.55401 3.4459904 19 4 19 L 15 19 C 15.55401 19 16 18.55401 16 18 L 16 17 L 18 17 C 18.55401 17 19 16.55401 19 16 L 19 13 C 19 12.81363 18.935732 12.649055 18.847656 12.5 C 18.935732 12.350945 19 12.18637 19 12 L 19 9 C 19 8.8136299 18.935732 8.6490553 18.847656 8.5 C 18.935732 8.3509447 19 8.1863701 19 8 L 19 5 C 19 4.44599 18.55401 4 18 4 L 16 4 C 16 3.4459904 15.55401 3 15 3 L 4 3 z M 4 4 L 15 4 L 15 18 L 4 18 L 4 4 z M 5 5 L 5 8 L 14 8 L 14 5 L 5 5 z M 16 5 L 18 5 L 18 8 L 16 8 L 16 5 z M 16 9 L 18 9 L 18 12 L 16 12 L 16 9 z M 5 10 L 5 11 L 14 11 L 14 10 L 5 10 z M 5 12 L 5 13 L 14 13 L 14 12 L 5 12 z M 16 13 L 18 13 L 18 16 L 16 16 L 16 13 z M 5 14 L 5 15 L 14 15 L 14 14 L 5 14 z M 5 16 L 5 17 L 14 17 L 14 16 L 5 16 z "
       class="ColorScheme-Text" />
</svg>
