<svg xmlns="http://www.w3.org/2000/svg" viewBox="0 0 22 22">
  <defs id="defs3051">
    <style type="text/css" id="current-color-scheme">
      .ColorScheme-Text {
        color:#eff0f1;
      }
      </style>
  </defs>
    <path
       style="fill:currentColor"
       d="M 3 3 L 3 4 L 3 19 L 4 19 L 14 19 L 14 18 L 4 18 L 4 10 L 7 10 L 7 10 L 7 10 L 9 8 L 18 8 L 18 14 L 19 14 L 19 5 L 12 5 L 10 3 L 10 3 L 10 3 L 4 3 L 3 3 z M 16 14 L 16 16 L 14 16 L 14 17 L 16 17 L 16 19 L 17 19 L 17 17 L 19 17 L 19 16 L 17 16 L 17 14 L 16 14 z "
       class="ColorScheme-Text" />
</svg>
