<svg xmlns="http://www.w3.org/2000/svg" viewBox="0 0 22 22">
  <defs id="defs3051">
    <style type="text/css" id="current-color-scheme">
      .ColorScheme-Text {
        color:#232629
      }
      </style>
  </defs>
    <path
       style="fill:currentColor"
       d="M 6 3 L 6 6 L 7 6 L 7 9.0566406 C 5.83827 9.2937706 5.00291 10.31432 5 11.5 C 5.002 12.68641 5.83756 13.708033 7 13.945312 L 7 17 L 6 17 L 6 20 L 9 20 L 9 17 L 8 17 L 8 15.179688 A 10 8.5000048 0 0 0 17 20 A 10 8.5000048 0 0 0 18 19.957031 L 18 18.943359 A 9 7.5000057 0 0 1 17 19 A 9 7.5000057 0 0 1 8.4472656 13.804688 C 9.3815656 13.421168 9.99849 12.51481 10 11.5 C 9.99957 10.48259 9.3812494 9.5722531 8.4433594 9.1894531 A 9 7.5000057 0 0 1 17 4 A 9 7.5000057 0 0 1 18 4.0507812 L 18 3.0507812 A 10 8.5000048 0 0 0 17 3 A 10 8.5000048 0 0 0 8 7.8105469 L 8 6 L 9 6 L 9 3 L 6 3 z M 7 4 L 8 4 L 8 5 L 7 5 L 7 4 z M 7.5 10 A 1.5 1.5 0 0 1 8.7636719 10.695312 A 1.5 1.5 0 0 1 8.9355469 11.070312 C 8.935974 11.071724 8.937077 11.072805 8.9375 11.074219 A 1.5 1.5 0 0 1 8.9375 11.078125 A 1.5 1.5 0 0 1 9 11.5 A 1.5 1.5 0 0 1 8.9375 11.927734 A 1.5 1.5 0 0 1 8.765625 12.302734 C 8.7648446 12.303953 8.7644557 12.305425 8.7636719 12.306641 A 1.5 1.5 0 0 1 8.7617188 12.308594 A 1.5 1.5 0 0 1 8.4941406 12.619141 A 1.5 1.5 0 0 1 7.5 13 A 1.5 1.5 0 0 1 6.3300781 12.4375 A 1.5 1.5 0 0 1 6.0917969 12.011719 C 6.0898664 12.006432 6.0878097 12.001408 6.0859375 11.996094 A 1.5 1.5 0 0 1 6 11.5 A 1.5 1.5 0 0 1 6.0839844 11.009766 C 6.0870238 11.001057 6.0905543 10.993009 6.09375 10.984375 A 1.5 1.5 0 0 1 6.3261719 10.570312 C 6.3265254 10.56987 6.3258178 10.568801 6.3261719 10.568359 A 1.5 1.5 0 0 1 7.5 10 z M 7 18 L 8 18 L 8 19 L 7 19 L 7 18 z "
       class="ColorScheme-Text" />
</svg>
