<svg xmlns="http://www.w3.org/2000/svg" viewBox="0 0 22 22">
  <defs id="defs3051">
    <style type="text/css" id="current-color-scheme">
      .ColorScheme-Text {
        color:#232629
      }
      </style>
  </defs>
    <path
       style="fill:#9bd916"
       d="M 3.5 3 A 0.5 0.5 0 0 0 3.15 3.85 L 5 5.7 A 8 8 0 0 0 3 11 L 3 19 L 19 19 L 19 11 A 8 8 0 0 0 17 5.7 L 18.86 3.86 A 0.5 0.5 0 0 0 18.5 3 A 0.5 0.5 0 0 0 18.15 3.15 L 16.3 5 A 8 8 0 0 0 11 3 A 8 8 0 0 0 5.7 5 L 3.86 3.15 A 0.5 0.5 0 0 0 3.5 3 z M 10.9 4 A 7 7 0 0 1 11 4 A 7 7 0 0 1 15.6 5.7 A 7 7 0 0 1 16.3 6.4 A 7 7 0 0 1 18 11 L 4 11 A 7 7 0 0 1 5.7 6.4 A 7 7 0 0 1 6.4 5.8 A 7 7 0 0 1 6.4 5.7 A 7 7 0 0 1 10.9 4 z M 8 7 A 1 1 0 0 0 7 8 A 1 1 0 0 0 8 9 A 1 1 0 0 0 9 8 A 1 1 0 0 0 8 7 z M 14 7 A 1 1 0 0 0 13 8 A 1 1 0 0 0 14 9 A 1 1 0 0 0 15 8 A 1 1 0 0 0 14 7 z M 4 12 L 10 12 L 10 13 L 11 13 L 11 12 L 18 12 L 18 18 L 4 18 L 4 12 z M 11 13 L 11 14 L 12 14 L 12 13 L 11 13 z M 11 14 L 10 14 L 10 15 L 10 16 L 12 16 L 12 15 L 11 15 L 11 14 z "
       />
</svg>
