<svg xmlns="http://www.w3.org/2000/svg" viewBox="0 0 22 22">
  <defs id="defs3051">
    <style type="text/css" id="current-color-scheme">
      .ColorScheme-Text {
        color:#232629
      }
      </style>
  </defs>
    <path
       style="fill:#fc7676"
       d="M 3.125 3 L 3.125 3.0019531 C 3.085 3.0019531 3.0532031 3.0007375 3.0332031 3.0234375 C 2.3945831 3.6278575 11.123047 11.210938 11.123047 11.210938 L 14.392578 14.15625 C 13.337988 16.48435 16.642189 16.522045 17.355469 17.703125 C 17.668779 18.220485 17.28804 18.922384 16.71875 18.958984 C 17.85067 19.312294 19.374656 17.256593 18.916016 16.095703 C 18.369396 14.708943 17.815321 14.106997 16.775391 13.685547 C 16.346091 13.511417 15.254347 13.498062 14.873047 13.701172 L 11.841797 10.53125 C 11.841797 10.53125 4.36358 3.10221 3.125 3 z M 4.5039062 10.361328 C 4.2145863 10.362328 4.125 10.758191 4.125 11.300781 C 4.1797 12.373351 4.8978944 15.503063 8.4589844 17.783203 C 11.457434 19.703723 16.944799 19.010152 16.855469 17.919922 C 15.648889 16.501612 13.630186 17.385844 13.603516 13.990234 C 12.430266 14.002834 11.166231 13.824829 11.212891 14.292969 C 11.410211 16.251349 8.1293419 14.839287 6.8574219 12.841797 C 5.5801819 11.010867 4.8758762 10.362011 4.5039062 10.363281 L 4.5039062 10.361328 z M 9.1796875 12.779297 C 8.9850375 12.779297 8.8285662 12.839838 8.7539062 12.960938 C 8.6059163 13.203218 8.8457256 13.598257 9.2910156 13.841797 C 9.7363156 14.085327 10.217244 14.084327 10.365234 13.841797 C 10.513224 13.599527 10.273455 13.205161 9.828125 12.962891 C 9.605475 12.841751 9.1796875 12.963267 9.1796875 12.779297 z "
       />
</svg>
