<svg xmlns="http://www.w3.org/2000/svg" viewBox="0 0 22 22">
  <defs id="defs3051">
    <style type="text/css" id="current-color-scheme">
      .ColorScheme-Text {
        color:#232629
      }
      </style>
  </defs>
    <path
       style="fill:currentColor"
       d="M 19 5 L 9.6679688 5.0058594 L 6.5 14.5 L 4.3339844 11 L 3 11 L 3 12 L 4 12 L 6.5 17 L 10.441406 6 L 19 6 L 19 5 z M 14 8 C 11.790861 8 10 9.790861 10 12 C 10 14.209139 11.790861 16 14 16 C 15.149118 15.9982 16.241964 15.502302 17 14.638672 L 17 16 L 18 16 L 18 12 L 18 8 L 17 8 L 17 9.3613281 C 16.241964 8.4976979 15.149118 8.0017906 14 8 z M 14 9 C 15.656854 9 17 10.343146 17 12 C 17 13.656854 15.656854 15 14 15 C 12.343146 15 11 13.656854 11 12 C 11 10.343146 12.343146 9 14 9 z "
       class="ColorScheme-Text" />
</svg>
