<svg xmlns="http://www.w3.org/2000/svg" viewBox="0 0 22 22">
  <defs id="defs3051">
    <style type="text/css" id="current-color-scheme">
      .ColorScheme-Text {
        color:#232629
      }
      </style>
  </defs>
    <path
       style="fill:currentColor"
       d="M 3 3 L 3 4 L 19 4 L 19 3 L 3 3 z M 3.5 6 A 0.5 0.5 0 0 0 3 6.5 A 0.5 0.5 0 0 0 3.5 7 A 0.5 0.5 0 0 0 4 6.5 A 0.5 0.5 0 0 0 3.5 6 z M 6 6 L 6 7 L 17 7 L 17 6 L 6 6 z M 6 9 L 6 10 L 11 10 L 11 9 L 6 9 z M 3.5 12 A 0.5 0.5 0 0 0 3 12.5 A 0.5 0.5 0 0 0 3.5 13 A 0.5 0.5 0 0 0 4 12.5 A 0.5 0.5 0 0 0 3.5 12 z M 6 12 L 6 13 L 17 13 L 17 12 L 6 12 z M 6 15 L 6 16 L 11 16 L 11 15 L 6 15 z M 3 18 L 3 19 L 19 19 L 19 18 L 3 18 z "
       class="ColorScheme-Text" />
</svg>
