<svg xmlns="http://www.w3.org/2000/svg" viewBox="0 0 22 22">
  <defs id="defs3051">
    <style type="text/css" id="current-color-scheme">
      .ColorScheme-Text {
        color:#232629
      }
      </style>
  </defs>
    <path
       style="fill:currentColor"
       d="M 12.5 2.7929688 L 12.146484 3.1464844 L 8.7929688 6.5 L 12.146484 9.8535156 L 12.5 10.207031 L 13.207031 9.5 L 12.853516 9.1464844 L 10.707031 7 L 14 7 A 1 1 0 0 1 15 8 L 15 14.050781 A 2.5 2.5 0 0 0 13 16.5 A 2.5 2.5 0 0 0 15.5 19 A 2.5 2.5 0 0 0 18 16.5 A 2.5 2.5 0 0 0 16 14.054688 L 16 8 A 2 2 0 0 0 14.048828 6 A 2 2 0 0 0 14 6 L 10.707031 6 L 12.853516 3.8535156 L 13.207031 3.5 L 12.5 2.7929688 z M 5.5 4 A 2.5 2.5 0 0 0 3 6.5 A 2.5 2.5 0 0 0 5 8.9453125 L 5 14.050781 A 2.5 2.5 0 0 0 3 16.5 A 2.5 2.5 0 0 0 5.5 19 A 2.5 2.5 0 0 0 8 16.5 A 2.5 2.5 0 0 0 6 14.054688 L 6 8.9492188 A 2.5 2.5 0 0 0 8 6.5 A 2.5 2.5 0 0 0 5.5 4 z M 5.5 5 A 1.5 1.5 0 0 1 7 6.5 A 1.5 1.5 0 0 1 5.5 8 A 1.5 1.5 0 0 1 4 6.5 A 1.5 1.5 0 0 1 5.5 5 z M 5.5 15 A 1.5 1.5 0 0 1 7 16.5 A 1.5 1.5 0 0 1 5.5 18 A 1.5 1.5 0 0 1 4 16.5 A 1.5 1.5 0 0 1 5.5 15 z M 15.5 15 A 1.5 1.5 0 0 1 17 16.5 A 1.5 1.5 0 0 1 15.5 18 A 1.5 1.5 0 0 1 14 16.5 A 1.5 1.5 0 0 1 15.5 15 z "
       class="ColorScheme-Text" />
</svg>
