<svg xmlns="http://www.w3.org/2000/svg" viewBox="0 0 22 22">
  <defs id="defs3051">
    <style type="text/css" id="current-color-scheme">
      .ColorScheme-Text {
        color:#eff0f1
      }
      </style>
  </defs>
    <path
       style="fill:currentColor"
       d="M 11 3 L 7 7 L 9.75 7 L 9.75 10 L 12.25 10 L 12.25 7 L 15 7 L 11 3 z M 6 8 L 2 14.8 L 2 16.3 L 2 19 L 6 19 L 16 19 L 20 19 L 20 16.3 L 20 14.8 L 16 8 L 16 8 L 13 8 L 13 9 L 15.5 9 L 19 15 L 16 15 L 15 17 L 7 17 L 6 15 L 3 15 L 6.5 9 L 9 9 L 9 8 L 7.1 8 L 6 8 z "
       class="ColorScheme-Text" />
</svg>
