<svg height="22" viewBox="0 0 22 22" width="22" xmlns="http://www.w3.org/2000/svg" xmlns:xlink="http://www.w3.org/1999/xlink"><linearGradient id="a" gradientUnits="userSpaceOnUse" x1="11.072659" x2="10.958864" y1="19.889571" y2="1.993852"><stop offset="0" stop-color="#197cf1"/><stop offset="1" stop-color="#21c9fb"/></linearGradient><linearGradient id="b" gradientUnits="userSpaceOnUse" x1="28.201273" x2="15.366979" y1="8.203375" y2="-4.630919"><stop offset="0" stop-color="#7cbaf8"/><stop offset="1" stop-color="#f4fcff"/></linearGradient><linearGradient id="c" gradientUnits="userSpaceOnUse" x1="2.000999" x2="14.000999" y1="2.001952" y2="14.001952"><stop offset="0" stop-color="#292c2f"/><stop offset="1" stop-opacity="0"/></linearGradient><circle cx="10.983826" cy="10.983826" fill="url(#a)" r="8.983826" stroke-width=".879901"/><g fill="url(#b)" transform="translate(3 2.998047)"><path d="m6.501 1.9999994c-2.493 0-4.5 2.01-4.5 4.5 0 1.246121.5030864 2.3702746 1.3164062 3.1835946l6.9999998 7.001953a9 9 0 0 0 6.367188-6.371094l-7-6.9980466c-.8137999-.81381-1.938224-1.316407-3.183594-1.316407zm0 1.001954a3.5 3.5 0 0 1 3.5 3.5 3.5 3.5 0 0 1 -3.5 3.4999996 3.5 3.5 0 0 1 -3.5-3.4999996 3.5 3.5 0 0 1 3.5-3.5z" fill="url(#c)" opacity=".2"/><path d="m9.5 4.9980469c-2.493 0-4.5 2.01-4.5 4.5 0 1.2461201.5030862 2.3702741 1.3164062 3.1835941l.6308594.630859.076172.07617c.81381.8139 1.9382137 1.316406 3.1835934 1.316406 1.06364 0 2.026372-.381241 2.794922-.99414l-.697265-.699219c.268217-.200341.506367-.437118.707031-.705078l.697265.697265c.6156-.76975.998047-1.733498.998047-2.798828 0-1.2461299-.503106-2.3702836-1.316406-3.1835936l-.07617-.07617-.630859-.6308594c-.813802-.8138099-1.938226-1.3164061-3.183596-1.3164061zm.707031.7070312c1.065973 0 2.044454.368056 2.814453.984375.613233.7686756.978516 1.7446768.978516 2.8085938 0 .9641881-.314224 1.8449511-.830078 2.5742191.339826-.539766.537109-1.179607.537109-1.867188 0-1.1502848-.548654-2.1674442-1.40039-2.8046874.435935.5836325.693359 1.3099375.693359 2.0976563 0 1.9390001-1.561 3.5000001-3.5 3.5000001-.7877187 0-1.5140238-.257424-2.0976562-.693359.6372431.851736 1.6544025 1.40039 2.8046872 1.40039.689159 0 1.330551-.197797 1.871094-.539062-.729666.516825-1.61216.832031-2.578125.832031-1.0647073 0-2.0409786-.367444-2.8105469-.982422-.6147217-.769121-.9824218-1.745198-.9824219-2.810547 0-1.1836497.4536091-2.2581741 1.1972657-3.0605468-.5630386.6207157-.9042969 1.4456055-.9042969 2.3535157 0 1.1502851.5486511 2.1674441 1.4003906 2.8046871-.4359352-.58363-.6933594-1.309937-.6933594-2.097656 0-1.9389999 1.561-3.4999999 3.4999998-3.4999999.787719 0 1.514026.2574242 2.097657.6933594-.502971-.6722706-1.24265-1.156004-2.097657-1.3300781zm-.707031.0566407v.2363281c-.9073751 0-1.730972.3418503-2.3515625.9042969.6387214-.5914245 1.449484-.9992503 2.3515625-1.140625zm-2.4785156 1.2597656c.000334-.0003342.00162.000334.00195 0-.03597.03597-.073047.071865-.1074219.109375.034613-.037048.06963-.07352.1054688-.109375zm9.9785156 9.2734376-.707031.707031.707031.707031.707031-.707031z" fill="#000" fill-opacity=".64898" opacity=".2" transform="translate(-3 -2.998047)"/><path d="m6.5 2c-2.493 0-4.5 2.01-4.5 4.5 0 2.493 2.01 4.5 4.5 4.5 1.0636432 0 2.0263409-.381199 2.7949219-.994141l3.9980471 3.998047.707031-.707031-3.998047-3.9980469c.615651-.7697801.998047-1.7334901.998047-2.7988281 0-2.493-2.01-4.5-4.5-4.5zm0 1c1.939 0 3.5 1.561 3.5 3.5s-1.561 3.5-3.5 3.5-3.5-1.561-3.5-3.5 1.561-3.5 3.5-3.5z" fill="url(#b)"/></g></svg>