<svg height="22" viewBox="0 0 22 22" width="22" xmlns="http://www.w3.org/2000/svg" xmlns:xlink="http://www.w3.org/1999/xlink"><linearGradient id="a" gradientUnits="userSpaceOnUse" x1="15.5" x2="15.5" y1="12.285714" y2="6.5"><stop offset="0" stop-color="#c61423"/><stop offset="1" stop-color="#dc2b41"/></linearGradient><linearGradient id="b" gradientTransform="matrix(.50000045 0 0 .50000039 -189.28589 -254.89919)" gradientUnits="userSpaceOnUse" x1="400.57141" x2="400.57141" y1="545.79797" y2="517.79797"><stop offset="0" stop-color="#eff0f1"/><stop offset="1" stop-color="#fcfcfc"/></linearGradient><linearGradient id="c" gradientUnits="userSpaceOnUse" x1="6.5" x2="12.285714" y1="9.714286" y2="15.5"><stop offset="0" stop-color="#4d4d4d"/><stop offset="1" stop-color="#232629"/></linearGradient><linearGradient id="d" gradientUnits="userSpaceOnUse" x1="10.999999" x2="10.999999" y1="19.999999" y2="2"><stop offset="0" stop-color="#788085"/><stop offset="1" stop-color="#9ba1a6"/></linearGradient><linearGradient id="e" gradientUnits="userSpaceOnUse" x1="5" x2="16" y1="8" y2="19"><stop offset="0" stop-color="#292c2f"/><stop offset="1" stop-opacity="0"/></linearGradient><path d="m11 3.9999999c3.877999 0 6.999999 3.1219995 6.999999 7.0000001 0 3.877999-3.122 6.999999-6.999999 6.999999-3.8780006 0-7.0000001-3.122-7.0000001-6.999999 0-3.8780006 3.1219995-7.0000001 7.0000001-7.0000001z" fill="url(#b)" stroke-width=".5"/><path d="m12.285714 12.285714-5.7857142 3.214285 3.2142855-5.7857137z" fill="url(#c)" stroke-width=".3388"/><path d="m9.7142853 9.7142853 5.7857137-3.2142855-3.214285 5.7857142z" fill="url(#a)" stroke-width=".3388"/><path d="m12 11a1.0000002 1.0000002 0 0 1 -1 .999999 1.0000002 1.0000002 0 0 1 -1.0000001-.999999 1.0000002 1.0000002 0 0 1 1.0000001-1.0000007 1.0000002 1.0000002 0 0 1 1 1.0000007z" fill="#bdc3c7" stroke-width=".999996"/><path d="m11.5 11a.49999998.49999998 0 0 1 -.5.5.49999998.49999998 0 0 1 -.500001-.5.49999998.49999998 0 0 1 .500001-.500001.49999998.49999998 0 0 1 .5.500001z" fill="#9fa5a8"/><path d="m11 4v2zm-7 7h2.0000002zm12 0h2zm-5 4.999999v2.000001z" fill="none" stroke="#4d4d4d"/><path d="m15.5 6.5-4.5 4.5-4.5 4.5 2.03125 2.03125a7.0000004 7.0000004 0 0 0 2.46875.46875 7.0000004 7.0000004 0 0 0 7-7 7.0000004 7.0000004 0 0 0 -.46875-2.46875z" fill="url(#e)" opacity=".2"/><g fill-rule="evenodd"><path d="m11 2a8.9999995 8.9999995 0 0 0 -9 9 8.9999995 8.9999995 0 0 0 9 9 8.9999995 8.9999995 0 0 0 9-9 8.9999995 8.9999995 0 0 0 -9-9zm0 1.9999999a7.0000004 7.0000004 0 0 1 7 7.0000001 7.0000004 7.0000004 0 0 1 -7 7 7.0000004 7.0000004 0 0 1 -7.0000002-7 7.0000004 7.0000004 0 0 1 7.0000002-7.0000001z" fill="url(#d)"/><path d="m19.972655 10.322266c-.173179 4.833692-4.135876 8.66614-8.972656 8.677733-4.7650768-.01539-8.6923275-3.742255-8.9570304-8.499999-.018971.166235-.0333.332966-.042969.5 0 4.970563 4.0294367 9 9.0000004 9 4.970562 0 8.999999-4.029437 8.999999-9-.000595-.226175-.0097-.452247-.02734-.677734z" fill-opacity=".2"/><path d="m10.999999 3c-3.8659929.0000004-6.9999998 3.1340069-6.9999998 6.9999999.0102922.1671971.0265822.3339711.0488315.5000001.2613998-3.65075 3.2911101-6.4838142 6.9511693-6.5 3.660061.016185 6.689772 2.8492494 6.951172 6.5.02226-.166029.03854-.332803.04883-.5000001-.000005-3.865993-3.134012-6.9999995-7.000004-6.9999999z" fill="#788085"/></g></svg>