<svg height="22" viewBox="0 0 22 22" width="22" xmlns="http://www.w3.org/2000/svg" xmlns:xlink="http://www.w3.org/1999/xlink"><linearGradient id="a"><stop offset="0" stop-color="#814b13"/><stop offset="1" stop-color="#9d5b17"/></linearGradient><linearGradient id="b" gradientTransform="matrix(.64285644 0 0 .64285644 -246.50993 -330.86975)" gradientUnits="userSpaceOnUse" x2="0" y1="545.79797" y2="517.79797"><stop offset="0" stop-color="#fdc95f"/><stop offset="1" stop-color="#fdd583"/></linearGradient><linearGradient id="c" gradientUnits="userSpaceOnUse" x1="11" x2="11" xlink:href="#a" y1="11" y2="7"/><linearGradient id="d" gradientUnits="userSpaceOnUse" x1="11" x2="11" xlink:href="#a" y1="16" y2="13"/><rect fill="url(#b)" height="18" rx="8.999991" ry="8.999996" stroke-width=".642856" width="17.999987" x="2" y="2"/><path d="m2.0097741 10.5c-.00897.165461-.013672.332222-.013672.5 0 4.985998 4.014005 9 8.9999999 9 4.985995 0 9-4.014002 9-9 0-.167778-.0047-.334539-.01367-.5-.257722 4.751677-4.168112 8.5-8.986328 8.5-4.8182159 0-8.7286059-3.748323-8.9863279-8.5z" fill="#9d5b17" opacity=".25" stroke-width=".642856"/><path d="m8 7c-.554 0-1 .446-1 1v2c0 .554.446 1 1 1s1-.446 1-1v-2c0-.554-.446-1-1-1zm6 0c-.554 0-1 .446-1 1v2c0 .554.446 1 1 1s1-.446 1-1v-2c0-.554-.446-1-1-1z" fill="url(#c)"/><path d="m7.1347656 13a4 4 0 0 0 3.8652344 3 4 4 0 0 0 3.865234-3h-1.041015a3 3 0 0 1 -2.824219 2 3 3 0 0 1 -2.8242188-2z" fill="url(#d)"/></svg>