<svg height="22" viewBox="0 0 22 22" width="22" xmlns="http://www.w3.org/2000/svg" xmlns:xlink="http://www.w3.org/1999/xlink"><linearGradient id="a" gradientUnits="userSpaceOnUse" x1="0" x2="0" y1="26" y2="0"><stop offset="0" stop-color="#7cbaf8"/><stop offset="1" stop-color="#f4fcff"/></linearGradient><linearGradient id="b" gradientUnits="userSpaceOnUse" x1="6" x2="20" y1="5" y2="19"><stop offset="0" stop-color="#292c2f"/><stop offset="1" stop-opacity="0"/></linearGradient><linearGradient id="c" gradientUnits="userSpaceOnUse" x1="11.072659" x2="10.958864" y1="19.889571" y2="1.993852"><stop offset="0" stop-color="#197cf1"/><stop offset="1" stop-color="#21c9fb"/></linearGradient><circle cx="10.983826" cy="10.983826" fill="url(#c)" r="8.983826" stroke-width=".879901"/><g stroke-width="2"><path d="m7.5 7.5v1 1l.5 1.5h1v-1-1h-1zm7 0-.5 1.5h-1v1 1h1l.5-1.5v-1zm-4.25.5v2h1.5v-2zm-4.75 1.5v1 1l.5 1.5h1v-1-1h-1zm1.5 3.5v1 1c0 .5304.2108575 1.038963.5859375 1.414062.37507.375101.8836325.585938 1.4140625.585938s1.038964-.210837 1.414062-.585938c.375102-.375099.585938-.883662.585938-1.414062 0 .5304.210838 1.038963.585938 1.414062.375099.375101.883662.585938 1.414062.585938s1.038964-.210837 1.414062-.585938c.375102-.375099.585938-.883662.585938-1.414062v-1-1c0 .5304-.210836 1.038963-.585938 1.414062-.375098.3751-.883662.585938-1.414062.585938s-1.038963-.210836-1.414062-.585938c-.3751-.375098-.585938-.883662-.585938-1.414062 0 .5304-.210836 1.038963-.585938 1.414062-.375098.3751-.883632.585938-1.414062.585938s-1.0389925-.210836-1.4140625-.585938c-.37508-.375098-.5859375-.883662-.5859375-1.414062zm8 0h1l.5-1.5v-1-1l-.5 1.5h-1v1z" opacity=".08"/><path d="m11 5v1zm-3.5 2.5v1l.5 1.5h1v-1h-1zm7 0-.5 1.5h-1v1h1l.5-1.5zm-4.25.5v1h1.5v-1zm-4.75 1.5v1l.5 1.5h1v-1h-1zm11 0-.5 1.5h-1v1h1l.5-1.5zm-7.5 1.5v1zm-2 2v1c0 .5304.2108575 1.038963.5859375 1.414062.37507.375101.8836325.585938 1.4140625.585938s1.038963-.210837 1.414062-.585938c.375101-.3751.585938-.883662.585938-1.414062 0 .5304.210837 1.038963.585938 1.414062.3751.375101.883662.585938 1.414062.585938s1.038963-.210837 1.414062-.585938c.375101-.3751.585938-.883662.585938-1.414062v-1c0 .5304-.210837 1.038963-.585938 1.414062-.3751.375101-.883662.585938-1.414062.585938s-1.038963-.210837-1.414062-.585938c-.375101-.3751-.585938-.883662-.585938-1.414062 0 .5304-.210837 1.038963-.585938 1.414062-.375099.375101-.883632.585938-1.414062.585938s-1.0389925-.210837-1.4140625-.585938c-.37508-.3751-.5859375-.883662-.5859375-1.414062z" opacity=".08"/><path d="m11 5-.75 1.5v1.5l-2-2-.75 1.5.5 1.5 1.1796875 1.179688c-.0834645.185255-.1399828.382328-.1640625.585937l-2.765625-2.765625-.75 1.5.5 1.5 1.1796875 1.179688c-.1152681.255841-.1796875.534307-.1796875.820312 0 .5304.2108575 1.038963.5859375 1.414062l5.5859375 5.585938h6.828125v-7.75l-6.25-6.25-.355469.7109375z" fill="url(#b)" opacity=".2"/><path d="m11 5-.75 1.5v1.5h1.5v-1.5zm-2.75 1-.75 1.5.5 1.5h1v-1.5zm5.5 0-.75 1.5v1.5h1l.5-1.5zm-7.5 2-.75 1.5.5 1.5h1v-1.5zm9.5 0-.75 1.5v1.5h1l.5-1.5zm-4.75 1a2 2 0 0 0 -2 2 2 2 0 0 0 -2 2 2 2 0 0 0 2 2 2 2 0 0 0 2-2 2 2 0 0 0 2 2 2 2 0 0 0 2-2 2 2 0 0 0 -2-2 2 2 0 0 0 -2-2z" fill="url(#a)"/></g></svg>