<svg height="22" width="22" xmlns="http://www.w3.org/2000/svg" xmlns:xlink="http://www.w3.org/1999/xlink"><linearGradient id="a" gradientTransform="matrix(.62500129 0 0 .78947505 -241.2327 -408.36755)" gradientUnits="userSpaceOnUse" x2="0" y1="538.79797" y2="519.79797"><stop offset="0" stop-color="#2a2c2f"/><stop offset="1" stop-color="#424649"/></linearGradient><linearGradient id="b" gradientTransform="matrix(.66666658 0 0 .50000001 -256.04766 -252.39899)" gradientUnits="userSpaceOnUse" x2="0" xlink:href="#c" y1="542.79797" y2="538.79797"/><linearGradient id="c"><stop offset="0" stop-color="#c6cdd1"/><stop offset="1" stop-color="#e0e5e7"/></linearGradient><linearGradient id="d" gradientUnits="userSpaceOnUse" x1="6.78569" x2="17.714262" xlink:href="#e" y1="3.285716" y2="14.214288"/><linearGradient id="e"><stop offset="0"/><stop offset="1" stop-opacity="0"/></linearGradient><linearGradient id="f" gradientTransform="matrix(1.25 0 0 1.13333 -484.714 -587.238)" gradientUnits="userSpaceOnUse" x1="2.000008" x2="20.000008" y1="8.499995" y2="8.499995"><stop offset="0" stop-color="#232629"/><stop offset="1" stop-color="#292c30"/></linearGradient><linearGradient id="g" gradientTransform="matrix(2 0 0 1 -772.143 -515.798)" gradientUnits="userSpaceOnUse" x1="389.57101" x2="389.57101" xlink:href="#c" y1="526.79797" y2="519.79797"/><linearGradient id="h" gradientUnits="userSpaceOnUse" x1="3.00001" x2="6.00001" xlink:href="#e" y1="4.99997" y2="7.99997"/><linearGradient id="i" gradientUnits="userSpaceOnUse" x1="3.00001" x2="6.00001" xlink:href="#e" y1="6.99997" y2="9.99997"/><linearGradient id="j" gradientUnits="userSpaceOnUse" x1="3.00001" x2="6.00001" xlink:href="#e" y1="8.99997" y2="11.99997"/><linearGradient id="k" gradientUnits="userSpaceOnUse" x1="3.00001" x2="6.00001" xlink:href="#e" y1="10.99997" y2="13.99997"/><linearGradient id="l" gradientUnits="userSpaceOnUse" x1="7.00001" x2="13.50001" xlink:href="#e" y1="4.99997" y2="11.49997"/><linearGradient id="m" gradientUnits="userSpaceOnUse" x1="7.00001" x2="12.45399" xlink:href="#e" y1="6.99997" y2="12.45298"/><linearGradient id="n" gradientUnits="userSpaceOnUse" x1="7.00001" x2="12.45399" xlink:href="#e" y1="10.99997" y2="16.45298"/><linearGradient id="o" gradientUnits="userSpaceOnUse" x1="7.00001" x2="11.50001" xlink:href="#e" y1="8.99997" y2="13.49997"/><path d="m.999997 2.000005h19.999996v15.000016h-19.999996z" fill="url(#a)" stroke-width=".638443"/><path d="m9.000006 16.99999h4v2h-4z" fill="url(#b)" stroke-width=".577351"/><path d="m7.000003 19.000013h8v1h-8z" fill="#99a1a7" stroke-width=".816499"/><path d="m1.9999982 13.999998 3.0000021 3.000002h16.0000007v-12.9999986l-1.000003-1.0000029z" fill="url(#d)" fill-rule="evenodd" opacity=".2" stroke-width=".642857"/><path d="m2.000008 2.999996h18v11h-18z" fill="url(#f)" stroke-width=".60553"/><path d="m7.000003 5.000005 1 1h7l2 2 2-2-2-2z" fill="url(#l)" opacity=".2"/><path d="m7.000003 7.000005 1 1h5l2 2 2-2-2-2z" fill="url(#m)" opacity=".2"/><path d="m15 10-8 1 3 3h9z" fill="url(#n)" opacity=".2"/><path d="m7.000003 9.000005 1 1h7l-2-2z" fill="url(#o)" opacity=".2"/><path d="m6.999003 4.000005h10v1h-10zm0 6h8v1h-8zm0-4h8v1h-8zm0 2h6v1h-6z" fill="url(#g)" stroke-width="1.41421"/><path d="m3.000003 5.000005 1 1h2l1 1 1-1-2-2z" fill="url(#h)" opacity=".2"/><path d="m3.000003 7.000005 1 1h2l1 1 1-1-2-2z" fill="url(#i)" opacity=".2"/><path d="m3.000003 9.000005 1 1h2l1 1 1-1-2-2z" fill="url(#j)" opacity=".2"/><path d="m6 10-3 1 3 3h4z" fill="url(#k)" opacity=".2"/><path d="m3 4h3v1h-3zm0 2h3v1h-3zm0 2h3v1h-3zm0 2h3v1h-3z" fill="#11d116"/></svg>