<svg height="22" width="22" xmlns="http://www.w3.org/2000/svg" xmlns:xlink="http://www.w3.org/1999/xlink"><linearGradient id="a" gradientTransform="matrix(1 0 0 1.0285724 -.00001 -14.394733)" gradientUnits="userSpaceOnUse" x1="418.16971" x2="384.57144" y1="503.07938" y2="531.45813"><stop offset="0" stop-color="#1abc9c"/><stop offset="1" stop-color="#2980b9"/></linearGradient><linearGradient id="b" gradientUnits="userSpaceOnUse" x1="29.85095" x2="54.317608" y1="22.348567" y2="28.506301"><stop offset="0" stop-color="#cc4a5e"/><stop offset="1" stop-color="#aa478a"/></linearGradient><linearGradient id="c" gradientUnits="userSpaceOnUse" x1="24.393862" x2="20.645595" xlink:href="#d" y1="41.223652" y2="25.343179"/><linearGradient id="d"><stop offset="0" stop-color="#334545"/><stop offset="1" stop-color="#536161"/></linearGradient><linearGradient id="e" gradientTransform="matrix(-1 0 0 1 839.14285 -40.00001)" gradientUnits="userSpaceOnUse" x1="430.57141" x2="440.17142" xlink:href="#d" y1="569.97992" y2="562.49939"/><linearGradient id="f" gradientTransform="matrix(-.41666647 0 0 .53472146 190.40467 -283.78051)" gradientUnits="userSpaceOnUse" x1="430.57141" x2="440.17142" xlink:href="#d" y1="569.97992" y2="562.49939"/><linearGradient id="g" gradientTransform="matrix(-.41666647 0 0 .53472146 194.40467 -286.3305)" gradientUnits="userSpaceOnUse" x1="430.57141" x2="440.17142" xlink:href="#d" y1="569.97992" y2="562.49939"/><linearGradient id="h" gradientUnits="userSpaceOnUse" x1="6.915001" x2="6.915001" y1="18.041945" y2="9.871946"><stop offset="0" stop-color="#eff0f1"/><stop offset="1" stop-color="#fcfcfc"/></linearGradient><linearGradient id="i" gradientUnits="userSpaceOnUse" x1="19.915" x2="33.915" y1="-5.593333" y2="8.406667"><stop offset="0" stop-color="#292c2f"/><stop offset="1" stop-opacity="0"/></linearGradient><g transform="matrix(.41666647 0 0 .53472146 -159.23802 -267.39164)"><path d="m384.57144 503.79801v33.66238h48.00002v-33.66238z" fill="url(#a)" stroke-width="1.10638"/><g stroke-linecap="round"><g stroke-width="2"><path d="m56 6-29.700005 17.142932 24.2 13.714298h5.5z" fill="url(#b)" transform="matrix(1.0909096 0 0 1.0909096 371.48052 497.25255)"/><path d="m26.299995 23.142932-14.299995 8.382865v5.331433h38.499995z" fill="url(#c)" transform="matrix(1.0909096 0 0 1.0909096 371.48052 497.25255)"/><path d="m408.57144 527.26823-8.4-4.76883-1.2.71065v8.64001h1.2z" fill="url(#e)"/></g><path d="m11 14.549998v5.45h.499999l3.500001-2.55z" fill="url(#g)" stroke-width=".944035" transform="matrix(2.4000011 0 0 1.8701325 382.17143 500.05781)"/><path d="m7 17v3h4v-.449219l-3.5-2.550781z" fill="url(#f)" stroke-width=".944035" transform="matrix(2.4000011 0 0 1.8701325 382.17143 500.05781)"/><path d="m400.17144 522.4994 32.40001-18.70139-.00002 10.94034z" fill="#aa478a" stroke-width="2"/></g></g><path d="m11 17h10v3h-10z" fill="#31363b" fill-opacity=".862745" opacity=".85" stroke-linejoin="round" stroke-width="2"/><g transform="matrix(.62499999 0 0 .62499999 -239.35714 -321.62379)"><path d="m384.57144 541.7981h15.99999v4.8h-15.99999z" fill="#fff" fill-opacity=".784314" stroke-width=".774601"/><g transform="matrix(1.6 0 0 1.6 382.97143 514.59807)"><path d="m2 18v1h1v-1z" fill="#4d4d4d"/><path d="m19.5 17.75a.75000002.75000002 0 0 0 -.75.75.75000002.75000002 0 0 0 .75.75.75000002.75000002 0 0 0 .75-.75.75000002.75000002 0 0 0 -.75-.75z" fill="#eff0f1"/></g></g><g transform="translate(-.00006 -4.00209)"><path d="m8.9570312 5.8691406c-.37601 0-.6796877.3056407-.6796874.6816406 0 .1806002.071539.3547219.1992187.4824219l3.0624995 3.0624999-.199218.199219 1.021484 1.021484 5.683594 5.683594h2.955078v-2.492188l-8.638672-8.6386714-1.021484 1.0214844 1.703125 1.703125-.541016.5390625-3.0624999-3.0625c-.1232-.12324-.2944117-.2011719-.4824219-.2011719zm-1.1914062 3.0644532c-.22571 0-.4419525.0904-.6015625.25-.1596.1595998-.25.3758625-.25.6015624 0 .2350998.096.4475628.25.6015628l2.0097656 2.009765c-.1377366.17794-.2167968.395555-.2167969.623047 0 .2709.1073082.529203.2988282.720703l3.2597656 3.259766h3.669922l-7.8183595-7.8164062c-.1596-.1596002-.3758525-.2500001-.6015625-.25z" fill="url(#i)" opacity=".2" transform="translate(0 4.00195)"/><path d="m8.9575 9.87195a.68083333.68083333 0 0 0 -.6808333.680833.68083333.68083333 0 0 0 .6808333.680834.68083333.68083333 0 0 0 .680833-.680834.68083333.68083333 0 0 0 -.680833-.680833zm3.404167 0-1.02125 1.02125 1.702083 1.702083-1.702083 1.702084 1.02125 1.02125 2.723333-2.723334zm-4.5956253 3.06375a.85104167.85104167 0 0 0 -.8510417.851042.85104167.85104167 0 0 0 .8510417.851041.85104167.85104167 0 0 0 .8510416-.851041.85104167.85104167 0 0 0 -.8510416-.851042zm2.2127083 3.06375a1.02125 1.02125 0 0 0 -1.02125 1.02125 1.02125 1.02125 0 0 0 1.02125 1.02125 1.02125 1.02125 0 0 0 1.02125-1.02125 1.02125 1.02125 0 0 0 -1.02125-1.02125z" fill="url(#h)" stroke-width="1.36167"/></g></svg>