<svg height="22" width="22" xmlns="http://www.w3.org/2000/svg" xmlns:xlink="http://www.w3.org/1999/xlink"><linearGradient id="a"><stop offset="0" stop-color="#2a2c2f"/><stop offset="1" stop-color="#424649"/></linearGradient><linearGradient id="b" gradientUnits="userSpaceOnUse" x1="2" x2="2" xlink:href="#a" y1="18" y2="16"/><linearGradient id="c" gradientUnits="userSpaceOnUse" x1="2" x2="2" y1="16" y2="7"><stop offset="0" stop-color="#21c9fb"/><stop offset="1" stop-color="#197cf1"/></linearGradient><linearGradient id="d" gradientUnits="userSpaceOnUse" x1="8" x2="8" xlink:href="#a" y1="15" y2="8"/><linearGradient id="e" gradientTransform="matrix(.41666692 0 0 .40833269 -159.23827 -203.25094)" gradientUnits="userSpaceOnUse" x2="0" y1="543.79797" y2="502.65509"><stop offset="0" stop-color="#c6cdd1"/><stop offset="1" stop-color="#e0e5e7"/></linearGradient><linearGradient id="f" gradientUnits="userSpaceOnUse" x1="5.375003" x2="14.75002" y1="7.000012" y2="16.375009"><stop offset="0"/><stop offset="1" stop-opacity="0"/></linearGradient><path d="m1.000006 2h19.999994v18h-19.999994z" fill="url(#e)" stroke-width=".633866"/><path d="m2 18 18-11 1 1v11.500012l-17 .499988z" fill="url(#f)" fill-rule="evenodd" opacity=".2" stroke-width=".625"/><path d="m1 2h20.000002v3h-20.000002z" fill="#566069" stroke-width=".684653"/><path d="m1.000027 5h19.999973v1h-19.999973z" fill="#3daee9" stroke-width=".790569"/><path d="m2 7v9h18v-9z" fill="url(#c)"/><rect fill="#eff0f1" height="1.5" rx=".75" stroke-width=".75" width="1.5" x="18.75" y="2.75"/><path d="m2 16h18v2h-18z" fill="url(#b)" stroke-linejoin="round" stroke-width="2"/><rect fill="#3092df" height="1" ry=".5" stroke-linejoin="round" stroke-width="2" width="10" x="3" y="16.5"/><rect fill="#daebf9" height="1" rx=".5" stroke-width=".5" width="1" x="12" y="16.5"/><circle cx="11" cy="11.5" fill="#ebf9fe" opacity=".3" r="4" stroke-linejoin="round" stroke-width="2"/><circle cx="11" cy="11.5" fill="url(#d)" r="3" stroke-linejoin="round" stroke-width="1.85164"/><path d="m10 10v3h.5l2-1.41-2-1.59z" fill="#fff"/></svg>