<svg height="22" width="22" xmlns="http://www.w3.org/2000/svg" xmlns:xlink="http://www.w3.org/1999/xlink"><linearGradient id="a" gradientUnits="userSpaceOnUse" x1="3" x2="3" xlink:href="#i" y1="21" y2="1"/><linearGradient id="b" gradientUnits="userSpaceOnUse" x1="19" x2="3" xlink:href="#i" y1="21" y2="21"/><linearGradient id="c" gradientTransform="matrix(.75 0 0 1 2.75 -1)" gradientUnits="userSpaceOnUse" x1="3" x2="3" y1="21" y2="19"><stop offset="0" stop-color="#2f3943"/><stop offset="1" stop-color="#4d5662"/></linearGradient><linearGradient id="d" gradientUnits="userSpaceOnUse" x1="11" x2="11" xlink:href="#i" y1="4" y2="17"/><linearGradient id="e" gradientTransform="matrix(.625 0 0 .71429 137.214 166.657)" gradientUnits="userSpaceOnUse" x1="5" x2="5" y1="5" y2="16"><stop offset="0" stop-color="#2e5d89"/><stop offset="1" stop-color="#1b92f4"/></linearGradient><linearGradient id="f" gradientTransform="matrix(.375 0 0 .66667 -142.2142 357.868)" gradientUnits="userSpaceOnUse" x1="418.17099" x2="418.17099" xlink:href="#h" y1="-521.79797" y2="-518.79797"/><linearGradient id="g" gradientTransform="matrix(.375 0 0 -.66667 -142.2142 -338.868)" gradientUnits="userSpaceOnUse" x1="418.17099" x2="418.17099" xlink:href="#h" y1="-521.79797" y2="-518.79797"/><linearGradient id="h"><stop offset="0" stop-color="#84cbfe"/><stop offset="1" stop-color="#84cbfe" stop-opacity="0"/></linearGradient><linearGradient id="i"><stop offset="0" stop-color="#c6cdd1"/><stop offset="1" stop-color="#e0e5e7"/></linearGradient><linearGradient id="j" gradientTransform="matrix(.69397 0 0 .6777 -268.043 -341.051)" gradientUnits="userSpaceOnUse" x1="390.57101" x2="413.62451" y1="507.67401" y2="531.28375"><stop offset="0"/><stop offset="1" stop-opacity="0"/></linearGradient><g stroke-linejoin="round"><rect fill="url(#a)" height="20" rx="1" stroke-width="2.06559" width="16" x="3" y="1"/><path d="m3 18v2c0 .554.446 1 1 1h14c.554 0 1-.446 1-1v-2z" fill="url(#b)" stroke-width="2"/><path d="m3 19v1c0 .554.446 1 1 1h14c.554 0 1-.446 1-1v-1c0 .554-.446 1-1 1h-14c-.554 0-1-.446-1-1z" fill="#292c2f" opacity=".2" stroke-width="2.06559"/><path d="m4 1c-.554 0-1 .446-1 1v1h1 14 1v-1c0-.554-.446-1-1-1zm1 17v1c0 .554.3345 1 .75 1h10.5c.4155 0 .75-.446.75-1v-1z" fill="url(#c)" stroke-width="1.73205"/><g stroke-width="2"><path d="m15 18h1v1h-1z" fill="#11d116"/><path d="m3 2h16v1h-16z" opacity=".2"/><path d="m4 4h14v13h-14z" fill="url(#d)"/><path d="m5 5h12v11h-12z" fill="url(#e)"/></g></g><g stroke-width=".774597"><path d="m5 9h12v1h-12z" fill="#84cbfe"/><path d="m5 10h12v2h-12z" fill="url(#f)" opacity=".2"/><path d="m5 9h12v-2h-12z" fill="url(#g)" opacity=".2"/></g><path d="m6 7h6v8h-6z" fill="#eff0f1" stroke-linejoin="round" stroke-width="2"/><path d="m3 3 16 16v-16z" fill="url(#j)" opacity=".2"/></svg>