<svg height="22" viewBox="0 0 22 22" width="22" xmlns="http://www.w3.org/2000/svg" xmlns:xlink="http://www.w3.org/1999/xlink"><linearGradient id="a" gradientTransform="matrix(.39062485 0 0 .34374986 -148.59816 -170.55548)" gradientUnits="userSpaceOnUse" x1="418.16971" x2="384.57144" y1="503.07938" y2="531.45813"><stop offset="0" stop-color="#1abc9c"/><stop offset="1" stop-color="#2980b9"/></linearGradient><linearGradient id="b" gradientTransform="matrix(.39062485 0 0 .34374986 -148.59816 -170.55548)" gradientUnits="userSpaceOnUse" x1="404.0452" x2="430.73611" y1="521.63281" y2="528.35034"><stop offset="0" stop-color="#cc4a5e"/><stop offset="1" stop-color="#aa478a"/></linearGradient><linearGradient id="c" gradientTransform="matrix(.39062485 0 0 .34374986 -148.59816 -170.55548)" gradientUnits="userSpaceOnUse" x1="398.09201" x2="394.00299" xlink:href="#d" y1="542.22382" y2="524.89966"/><linearGradient id="d"><stop offset="0" stop-color="#334545"/><stop offset="1" stop-color="#536161"/></linearGradient><linearGradient id="e" gradientTransform="matrix(-.39062483 0 0 .34374984 179.19187 -184.30547)" gradientUnits="userSpaceOnUse" x1="431.57141" x2="439.57141" xlink:href="#d" y1="568.79803" y2="562.79803"/><linearGradient id="f" gradientTransform="matrix(-.39062485 0 0 .34374986 179.19189 -184.30548)" gradientUnits="userSpaceOnUse" x1="406.53735" x2="423.31955" xlink:href="#d" y1="581.87024" y2="572.67786"/><linearGradient id="g" gradientTransform="matrix(-.39062485 0 0 .34374986 179.19189 -184.30548)" gradientUnits="userSpaceOnUse" x1="423.05438" x2="431.22452" xlink:href="#d" y1="572.33411" y2="566.76562"/><linearGradient id="h" gradientTransform="matrix(-.39062485 0 0 .34374986 179.19189 -184.30548)" gradientUnits="userSpaceOnUse" x1="431.3129" x2="440.63208" xlink:href="#d" y1="577.10217" y2="571.44531"/><linearGradient id="i" gradientTransform="matrix(-.39062485 0 0 .34374986 179.19189 -184.30548)" gradientUnits="userSpaceOnUse" x1="430.56738" x2="423.74994" xlink:href="#d" y1="577.36243" y2="591.32782"/><linearGradient id="j" gradientTransform="matrix(.62500129 0 0 .78947505 -241.2327 -408.36755)" gradientUnits="userSpaceOnUse" x2="0" y1="538.79797" y2="519.79797"><stop offset="0" stop-color="#2a2c2f"/><stop offset="1" stop-color="#424649"/></linearGradient><linearGradient id="k" gradientTransform="matrix(.66666658 0 0 .50000001 -256.04766 -252.39899)" gradientUnits="userSpaceOnUse" x2="0" y1="542.79797" y2="538.79797"><stop offset="0" stop-color="#c6cdd1"/><stop offset="1" stop-color="#e0e5e7"/></linearGradient><linearGradient id="l" gradientUnits="userSpaceOnUse" x1="6.78569" x2="17.714262" y1="3.285716" y2="14.214288"><stop offset="0"/><stop offset="1" stop-opacity="0"/></linearGradient><path d="m.999997 2.000005h19.999996v15.000016h-19.999996z" fill="url(#j)" stroke-width=".638443"/><path d="m9.000006 16.99999h4v2h-4z" fill="url(#k)" stroke-width=".577351"/><path d="m7.000003 19.000013h8v1h-8z" fill="#99a1a7" stroke-width=".816499"/><path d="m1.9999982 13.999998 3.0000021 3.000002h16.0000007v-12.9999986l-1.000003-1.0000029z" fill="url(#l)" fill-rule="evenodd" opacity=".2" stroke-width=".642857"/><g transform="matrix(.95999999 0 0 1.0666667 .440004 .199995)"><path d="m1.6249958 2.625005v11.25h18.7500002v-11.25z" fill="url(#a)" stroke-width=".625"/><g stroke-linecap="round" stroke-width="1.25"><path d="m20.374996 2.625005-12.9039416 6.5559375 9.2393356 4.6940625h3.664606z" fill="url(#b)"/><path d="m7.4843712 9.156005-5.8593754 2.977312v1.741688h15.1727852z" fill="url(#c)"/><path d="m10.710349 10.795255-3.2259828-1.639v3.278063z" fill="url(#e)"/><path d="m13.936342 12.43363v1.441375h2.83647z" fill="url(#f)"/><path d="m10.710358 10.795193v3.079812h.390347l2.835638-1.440687z" fill="url(#g)"/><path d="m7.4843712 12.434318v1.440687h2.8356378z" fill="url(#h)"/><path d="m13.936342 12.43363-2.83647 1.441375h2.83647z" fill="url(#i)"/><path d="m7.4710612 9.1810675 12.9039318-6.5560625-.000007 3.20275z" fill="#aa478a"/></g></g></svg>