<svg height="22" width="22" xmlns="http://www.w3.org/2000/svg" xmlns:xlink="http://www.w3.org/1999/xlink"><linearGradient id="a" gradientUnits="userSpaceOnUse" x1="24.018" x2="24.018" y1="18.383" y2=".383"><stop offset="0" stop-color="#a5a5a5"/><stop offset="1" stop-color="#f5f2f5"/></linearGradient><linearGradient id="b" gradientUnits="userSpaceOnUse" x1="6" x2="6" y1="16" y2="6"><stop offset="0" stop-color="#ffd42a"/><stop offset="1" stop-color="#ffdf62"/></linearGradient><linearGradient id="c" gradientUnits="userSpaceOnUse" x1="5" x2="18" y1="5" y2="18"><stop offset="0" stop-color="#292c2f"/><stop offset="1" stop-opacity="0"/></linearGradient><circle cx="11" cy="11" fill="#484f56" r="9" stroke-linejoin="round" stroke-width="2"/><path d="m11 2a9 9 0 0 0 -8.0546875 5h1.0546875l1 1v-1h1v-1l2-2v1l1-1v-1h1v1h1l1-1v-.9433594a9 9 0 0 0 -1-.0566406zm6.361328 2.6386719-.361328.3613281v1h1l.283203-.2832031a9 9 0 0 0 -.921875-1.078125zm1.322266 1.6777343-.683594.6835938-2 1-1 3h1v1l2 1 1.917969-.958984a9 9 0 0 0 .082031-1.041016 9 9 0 0 0 -1.316406-4.6835938zm-15.683594 2.6835938v1h-.921875a9 9 0 0 0 -.078125 1h1l2 2h1v1h-1v1l2 2v2.054688a9 9 0 0 0 4 .945312l1-1v-1h1l1-1v-1l1-1-1-1h-2l-1-1h-1l-1-1h-2v-1l-1 1h-1v-1l-1-1v-1z" fill="url(#a)" stroke-linejoin="round" stroke-width="2"/><path d="m17 5 3 3v12h-12l-3-3z" fill="url(#c)" opacity=".2"/><g stroke-width="2"><path d="m5 5h12v12h-12z" fill="#484f56"/><path d="m6 6v4h4v-4zm4.75 0v1h.5v-1zm1.25 0v4h4v-4zm-5 1h2v2h-2zm6 0h2v2h-2zm-5.5.5v1h1v-1zm3.25 0v1h.5v-1zm2.75 0v1h1v-1zm-2.75 1.5v1h.5v-1zm-4.75 1.75v.5h2v-.5zm3 0v.5h1v-.5zm2 0v.5h3v-.5zm4 0v.5h1v-.5zm-9 1.25v4h4v-4zm5 0v1h1v-1zm1 1v1h-1v1h1v1h1v-3zm1 0h1v-1h-1zm1 0v1h1v-1zm1 0h1v-1h-1zm-8 0h2v2h-2zm.5.5v1h1v-1zm7.5 1.5v1h1v-1z" fill="url(#b)"/><path d="m19.974609 10.359375a9 9 0 0 1 -8.974609 8.640625 9 9 0 0 1 -8.9648438-8.5 9 9 0 0 0 -.0351562.5 9 9 0 0 0 9 9 9 9 0 0 0 9-9 9 9 0 0 0 -.025391-.640625z" fill="#292c2f" opacity=".3" stroke-linejoin="round"/></g></svg>