<svg height="22" width="22" xmlns="http://www.w3.org/2000/svg" xmlns:xlink="http://www.w3.org/1999/xlink"><linearGradient id="a" gradientUnits="userSpaceOnUse" x1="24.018" x2="24.018" y1="18.383" y2=".383"><stop offset="0" stop-color="#a5a5a5"/><stop offset="1" stop-color="#f5f2f5"/></linearGradient><linearGradient id="b" gradientUnits="userSpaceOnUse" x1="5" x2="5" y1="17" y2="5"><stop offset="0" stop-color="#ffd42a"/><stop offset="1" stop-color="#ffdf62"/></linearGradient><linearGradient id="c" gradientUnits="userSpaceOnUse" x1="7" x2="18" y1="7" y2="18"><stop offset="0" stop-color="#292c2f"/><stop offset="1" stop-opacity="0"/></linearGradient><g stroke-linejoin="round" stroke-width="2"><circle cx="11" cy="11" fill="#484f56" r="9"/><path d="m11 2a9 9 0 0 0 -8.0546875 5h1.0546875l1 1v-1h1v-1l2-2v1l1-1v-1h1v1h1l1-1v-.9433594a9 9 0 0 0 -1-.0566406zm6.361328 2.6386719-.361328.3613281v1h1l.283203-.2832031a9 9 0 0 0 -.921875-1.078125zm1.322266 1.6777343-.683594.6835938-2 1-1 3h1v1l2 1 1.917969-.958984a9 9 0 0 0 .082031-1.041016 9 9 0 0 0 -1.316406-4.6835938zm-15.683594 2.6835938v1h-.921875a9 9 0 0 0 -.078125 1h1l2 2h1v1h-1v1l2 2v2.054688a9 9 0 0 0 4 .945312l1-1v-1h1l1-1v-1l1-1-1-1h-2l-1-1h-1l-1-1h-2v-1l-1 1h-1v-1l-1-1v-1z" fill="url(#a)"/><path d="m19.974609 10.359375a9 9 0 0 1 -8.974609 8.640625 9 9 0 0 1 -8.9648438-8.5 9 9 0 0 0 -.0351562.5 9 9 0 0 0 9 9 9 9 0 0 0 9-9 9 9 0 0 0 -.025391-.640625z" fill="#292c2f" opacity=".3"/></g><path d="m17.929688 6.9550781-10.7050786 8.8144529 4.2304686 4.230469h8.544922v-10.9746094z" fill="url(#c)" opacity=".2"/><path d="m11 3.5839844-.666016.5957031c-1.5445213 1.3801375-3.4481123 2.296073-5.490234 2.6425781l-.7734375.1328125-.0566406.7832031c-.00497.070139-.00809.140716-.011719.2109375l-.0019529.0253907v.027344c.00474 4.3668646 2.5973078 8.3216146 6.599609 10.0683586l.400391.175782.400391-.175782c4.002301-1.746744 6.594868-5.701494 6.599609-10.0683589v-.027344l-.002-.025391c-.0036-.070232-.0067-.1408032-.01172-.2109375l-.056593-.7832025-.773437-.1328125c-2.042122-.3465051-3.945713-1.2624406-5.490234-2.6425781z" fill="#484f56"/><path d="m11 4.926a12 12 0 0 1 -5.988281 2.8828126 10 10 0 0 0 -.011719.1914062 10 10 0 0 0 6 9.1542972 10 10 0 0 0 6-9.1542972 10 10 0 0 0 -.011719-.1914062 12 12 0 0 1 -5.988281-2.8828126zm0 1.1914063c1.456493 1.1471602 3.124441 1.9503125 4.923828 2.3925785-.190108 3.2062262-2.050293 6.0384392-4.923828 7.4785152-2.873535-1.440076-4.73372-4.272289-4.923828-7.4785152 1.799387-.442266 3.467335-1.2454183 4.923828-2.3925785zm0 1.1894531c-1.177181.8300044-2.450096 1.4567854-3.822266 1.8906254.366475 2.3683062 1.746604 4.4080612 3.822266 5.6250002 2.075662-1.216939 3.455791-3.256694 3.822266-5.6250002-1.37217-.43384-2.645085-1.060621-3.822266-1.8906254z" fill="url(#b)" stroke-width="2"/></svg>