<svg height="22" width="22" xmlns="http://www.w3.org/2000/svg" xmlns:xlink="http://www.w3.org/1999/xlink"><linearGradient id="a" gradientUnits="userSpaceOnUse" x1="6.375003" x2="15.75002" xlink:href="#c" y1="10.000012" y2="19.375009"/><linearGradient id="b" gradientTransform="matrix(.41666692 0 0 .40833269 -159.23827 -203.25094)" gradientUnits="userSpaceOnUse" x2="0" y1="543.79797" y2="502.65509"><stop offset="0" stop-color="#c6cdd1"/><stop offset="1" stop-color="#e0e5e7"/></linearGradient><linearGradient id="c" gradientUnits="userSpaceOnUse" x1="5.375003" x2="14.75002" y1="7.000012" y2="16.375009"><stop offset="0"/><stop offset="1" stop-opacity="0"/></linearGradient><path d="m1.000006 2h19.999994v18h-19.999994z" fill="url(#b)" stroke-width=".633866"/><path d="m2 18 18-11 1 1v12h-17z" fill="url(#c)" fill-rule="evenodd" opacity=".2" stroke-width=".625"/><path d="m1 2h20.000002v3h-20.000002z" fill="#566069" stroke-width=".684653"/><path d="m1.000027 5h19.999973v1h-19.999973z" fill="#3daee9" stroke-width=".790569"/><path d="m2 7h18v10.999999h-18z" fill="#fff" stroke-width=".574456"/><rect fill="#eff0f1" height="1.5" rx=".75" stroke-width=".75" width="1.5" x="18.75" y="2.75"/><path d="m11 7-1 3 1 1v1h-1l-1-1-3 1 6 6h8v-2z" fill="url(#a)" opacity=".2"/><path d="m11 7-1.5 2.5.5.5h2l.5-.5zm0 4c-.552285 0-1 .44772-1 1s.447715 1 1 1 1-.44772 1-1-.447715-1-1-1zm-2 0-.5-.5-2.5 1.5 2.5 1.5.5-.5zm4 0v2l.5.5 2.5-1.5-2.5-1.5zm-3 3-.5.5 1.5 2.5 1.5-2.5-.5-.5z" fill="#353b3e" stroke-width=".064286"/></svg>