<svg height="22" width="22" xmlns="http://www.w3.org/2000/svg" xmlns:xlink="http://www.w3.org/1999/xlink"><linearGradient id="a" gradientUnits="userSpaceOnUse" x1="2.000007" x2="2.000007" y1="19.999979" y2="1.999979"><stop offset="0" stop-color="#63984b"/><stop offset="1" stop-color="#8fc278"/></linearGradient><linearGradient id="b" gradientUnits="userSpaceOnUse" x1="12.200004" x2="12.200004" y1="16.999983" y2="4.999983"><stop offset="0" stop-color="#999a9c"/><stop offset="1" stop-color="#dcdfdf"/></linearGradient><linearGradient id="c" gradientUnits="userSpaceOnUse" x1="9.000007" x2="18.000007" y1="8.999999" y2="17.999999"><stop offset="0"/><stop offset="1" stop-opacity="0"/></linearGradient><path d="m2 5v-3h18v18h-18v-12l2-1z" fill="url(#a)" stroke-width=".642857"/><path d="m19 17-2 2h2z" fill="#e6ea97" fill-rule="evenodd"/><path d="m5 17 3 3h12v-12l-3-3z" fill="url(#c)" opacity=".2" stroke-width=".642857"/><path d="m5 5h12v12h-12z" fill="url(#b)" stroke-width=".599999"/><path d="m5 16h12v1h-12z" fill="#616365" stroke-width=".774597"/><path d="m2 19h18v1h-18z" fill="#4a7937" stroke-width=".801784"/><path d="m12 7v3h1v-1h1v-1h-1v-1zm2 1h1v-1h-1zm0 1v1h1v-1zm-7 2v1h4v-1zm0 2v1h2v-1z" fill="#484a4b" stroke-width=".999999"/><path d="m18 4v1h1v-1zm1 1v1h1v-1zm0 1h-1v1h1zm0 1v1h1v-1zm0 1h-1v1h1zm0 1v1h1v-1zm-1 4v1h1v-1zm1 1v1h1v-1zm0 1h-1v1h1zm-16 2v1h1v-1zm1 1v1h1v-1zm1 0h1v-1h-1zm1 0v1h1v-1zm1 0h1v-1h-1zm1 0v1h1v-1zm4-1v1h1v-1zm1 1v1h1v-1zm1 0h1v-1h-1zm1 0v1h1v-1zm1 0h1v-1h-1zm-4 0h-1v1h1z" opacity=".1"/></svg>