<svg height="22" width="22" xmlns="http://www.w3.org/2000/svg" xmlns:xlink="http://www.w3.org/1999/xlink"><linearGradient id="a" gradientUnits="userSpaceOnUse" x1="6.375003" x2="15.75002" xlink:href="#c" y1="10.000012" y2="19.375009"/><linearGradient id="b" gradientTransform="matrix(.41666692 0 0 .40833269 -159.23827 -203.25094)" gradientUnits="userSpaceOnUse" x2="0" y1="543.79797" y2="502.65509"><stop offset="0" stop-color="#c6cdd1"/><stop offset="1" stop-color="#e0e5e7"/></linearGradient><linearGradient id="c" gradientUnits="userSpaceOnUse" x1="5.375003" x2="14.75002" y1="7.000012" y2="16.375009"><stop offset="0"/><stop offset="1" stop-opacity="0"/></linearGradient><path d="m1.000006 2h19.999994v18h-19.999994z" fill="url(#b)" stroke-width=".633866"/><path d="m2 18 18-11 1 1v12h-17z" fill="url(#c)" fill-rule="evenodd" opacity=".2" stroke-width=".625"/><path d="m1 2h20.000002v3h-20.000002z" fill="#566069" stroke-width=".684653"/><path d="m1.000027 5h19.999973v1h-19.999973z" fill="#3daee9" stroke-width=".790569"/><path d="m2 7h18v10.999999h-18z" fill="#fff" stroke-width=".574456"/><rect fill="#eff0f1" height="1.5" rx=".75" stroke-width=".75" width="1.5" x="18.75" y="2.75"/><path d="m15.168 8.082-5.3105781 3.951203 5.9667971 5.966797h4.175781v-5.086zm-4.960969 5.210969-3.207031 2.707031 2 2h5.914062z" fill="url(#a)" opacity=".2"/><g fill="#353b3e"><circle cx="-23.555494" cy="-3.933281" r=".044497" stroke="#000"/><circle cx="-23.555494" cy="-3.933281" r=".044497" stroke="#000"/><path d="m14.931641 8c-.670559-.00457-2.261429 1.1011665-3.830079 2.669922-.451336.451494-.873017.914263-1.2441401 1.363281.6815871.123842 1.2505501.591574 1.5039061 1.236328.403374-.341018.815784-.718218 1.21875-1.121093 1.83712-1.837311 2.995942-3.6579079 2.587922-4.066438-.042-.0422-.100319-.0686938-.173859-.0780938-.01968-.00248-.04087-.00376-.0625-.00391zm-5.431641 5c-.8284271 0-1.5.671573-1.5 1.5.0013.170563.031686.339654.089844.5h-.089844l-1 1h1.5c1.0607471 0 1.924433-.817443 1.996094-1.859375-.000997-.01165-.0026-.0236-.0039-.03516.0045-.03499.0071-.0702.0078-.105469 0-.517767-.394181-.942931-.8984375-.994141-.016904-.0016-.033833-.0029-.050781-.0039-.0170326-.000868-.0335166-.001955-.0507755-.001955z" stroke-width=".597503"/></g></svg>