<svg height="22" viewBox="0 0 5.8210625 5.8210625" width="22" xmlns="http://www.w3.org/2000/svg" xmlns:xlink="http://www.w3.org/1999/xlink"><linearGradient id="a" gradientTransform="matrix(3.2479051 0 0 5.1965181 -3.328849 -1507.3037)" gradientUnits="userSpaceOnUse" x1="1.948594" x2="1.948594" y1="290.63763" y2="291.21494"><stop offset="0" stop-color="#fdbc4b" stop-opacity=".8"/><stop offset="1" stop-color="#fdbc4b" stop-opacity="0"/></linearGradient><linearGradient id="b" gradientTransform="matrix(.74998211 0 0 .66715658 -.263994 -192.32324)" gradientUnits="userSpaceOnUse" x1="4.444" x2="4.444" xlink:href="#e" y1="295.41199" y2="294.61801"/><linearGradient id="c" gradientTransform="matrix(.94482224 0 0 2.5214375 3.000755 -728.86242)" gradientUnits="userSpaceOnUse" x1="4.444" x2="4.444" xlink:href="#e" y1="295.41199" y2="294.61801"/><linearGradient id="d"><stop offset="0" stop-color="#232629"/><stop offset="1" stop-color="#a2abae"/></linearGradient><linearGradient id="e"><stop offset="0" stop-color="#31363b"/><stop offset="1" stop-color="#31363b" stop-opacity="0"/></linearGradient><linearGradient id="f" gradientTransform="matrix(.68750031 0 0 .64282457 0 .189133)" gradientUnits="userSpaceOnUse" x1="4.233" x2="4.233" y1="7.938" y2=".53"><stop offset="0" stop-color="#7f8c8d"/><stop offset="1" stop-color="#bdc3c7"/></linearGradient><linearGradient id="g" gradientUnits="userSpaceOnUse" x1="2.910598" x2="2.910598" y1="1.075063" y2="5.07714"><stop offset="0" stop-color="#232629"/><stop offset="1" stop-color="#292c2f"/></linearGradient><linearGradient id="h" gradientTransform="matrix(1.8896445 0 0 3.7821559 -3.998489 -1103.2935)" gradientUnits="userSpaceOnUse" x1="4.444" x2="4.444" xlink:href="#e" y1="295.41199" y2="294.61801"/><radialGradient id="i" cx="-1.146" cy="-291.923" gradientTransform="matrix(-1.9938737 .00008495 -.00014977 -3.4929223 -1.668938 -1017.6781)" gradientUnits="userSpaceOnUse" r=".265" xlink:href="#d"/><radialGradient id="j" cx="-1.146" cy="-291.923" gradientTransform="matrix(1.9938741 .00003498 .00005492 -3.4926868 7.462543 -1017.6109)" gradientUnits="userSpaceOnUse" r=".265" xlink:href="#d"/><rect fill="url(#f)" height="4.762687" rx=".529187" stroke-width=".664787" width="5.821065" y=".529188"/><path d="m.5291875.79378125v1.05837505h-.26459375v.2645937h.26459375v.5291875h-.26459375v.2645938h.26459375v.7937812h1.058375v.5291875h.5291875v.5291875h1.5875625v-.5291875h.5291875v-.5291875h1.058375v-.7937812h.2645938v-.2645938h-.2645938v-.5291875h.2645938v-.2645937h-.2645938v-1.05837505z" fill="url(#g)" stroke-width=".181913"/><path d="m3 3v3h1.25v-3zm2.9492188 0v3h1.25v-3zm2.9511718 0v3h1.2500004v-3zm2.9492184 0v3h1.25v-3zm2.951172 0v3h1.25v-3zm2.949219 0v3h1.25v-3z" fill="url(#a)" stroke-width="2.90501" transform="scale(.26459375)"/><path d="m2 11v3h4v-3zm14 0v3h4v-3z" fill="url(#h)" stroke-width="2.61936" transform="scale(.26459375)"/><path d="m6 14v2h2v-2zm8 0v2h2v-2z" fill="url(#c)" stroke-width="1.51229" transform="scale(.26459375)"/><path d="m2.11675 4.2335h1.5875625v.5291875h-1.5875625z" fill="url(#b)" stroke-width=".693066"/><path d="m.52818903 2.6459375h-.26359528v-.5291875h.26459375z" fill="url(#i)" stroke-width=".499469"/><path d="m5.2923742 2.6459375h.2640946v-.5291875h-.2645938z" fill="url(#j)" stroke-width=".499469"/><path d="m0 4.4980938v.2645937c0 .2931696.23601789.5291875.5291875.5291875h4.7626875c.2931697 0 .5291875-.2360179.5291875-.5291875v-.2645937c0 .2931696-.2360178.5291875-.5291875.5291875h-4.7626875c-.29316961 0-.5291875-.2360179-.5291875-.5291875z" fill="#69777b" stroke-width=".664787"/></svg>