<svg height="22" width="22" xmlns="http://www.w3.org/2000/svg" xmlns:xlink="http://www.w3.org/1999/xlink"><linearGradient id="a" gradientTransform="matrix(.64285741 0 0 .64285741 138.06113 184.92771)" gradientUnits="userSpaceOnUse" x2="0" y1="545.79797" y2="517.79797"><stop offset="0" stop-color="#c6cdd1"/><stop offset="1" stop-color="#e0e5e7"/></linearGradient><linearGradient id="b" gradientUnits="userSpaceOnUse" x1="12.793006" x2="20.000003" y1="7.706984" y2="14.999982"><stop offset="0" stop-color="#292c2f"/><stop offset="1" stop-opacity="0"/></linearGradient><linearGradient id="c" gradientUnits="userSpaceOnUse" x1="7" x2="7" y1="16" y2="6"><stop offset="0" stop-color="#2a2c2f"/><stop offset="1" stop-color="#424649"/></linearGradient><g transform="translate(-384.57143 -515.798)"><rect fill="url(#a)" height="18.000008" rx="9" stroke-width=".642857" width="18" x="386.57144" y="517.79797"/><path d="m14.207031 6.2929688-1.414062 1.4140624 7.207031 7.2929688v-3zm-2.353515 1.703125-.707032.7070312 8.853516 8.855469v-1.416016zm-2.0000004 1.3007812-.7070312.707031 4.6738276 4.675782-.291015.291015-1.675781-1.673828-.296875.296875-3.3496098-3.300781-1.4140624 1.414062 8.2402342 8.292969h4.966797v-.558594z" fill="url(#b)" fill-rule="evenodd" opacity=".2" stroke-width=".642857" transform="translate(384.57143 515.798)"/><path d="m13.5 6a1 1 0 0 0 -1 1 1 1 0 0 0 1 1 1 1 0 0 0 1-1 1 1 0 0 0 -1-1zm-2 1.8496094a.5.5 0 0 0 -.5.5.5.5 0 0 0 .5.5.5.5 0 0 0 .5-.5.5.5 0 0 0 -.5-.5zm-2 1.3007812a.5.5 0 0 0 -.5.5.5.5 0 0 0 .5.5000004.5.5 0 0 0 .5-.5000004.5.5 0 0 0 -.5-.5zm-2 .8496094a1 1 0 0 0 -1 1 1 1 0 0 0 1 1 1 1 0 0 0 1-1 1 1 0 0 0 -1-1zm2 1.849609a.5.5 0 0 0 -.5.5.5.5 0 0 0 .5.5.5.5 0 0 0 .5-.5.5.5 0 0 0 -.5-.5zm2 1.300782a.5.5 0 0 0 -.5.5.5.5 0 0 0 .5.5.5.5 0 0 0 .5-.5.5.5 0 0 0 -.5-.5zm2 .849609a1 1 0 0 0 -1 1 1 1 0 0 0 1 1 1 1 0 0 0 1-1 1 1 0 0 0 -1-1z" fill="url(#c)" stroke-width="2" transform="translate(384.57143 515.798)"/></g></svg>