<svg height="22" width="22" xmlns="http://www.w3.org/2000/svg" xmlns:xlink="http://www.w3.org/1999/xlink"><linearGradient id="a" gradientTransform="matrix(.6428576 0 0 .6428576 -246.5104 -330.87038)" gradientUnits="userSpaceOnUse" x2="0" y1="545.79797" y2="517.79797"><stop offset="0" stop-color="#42a603"/><stop offset="1" stop-color="#78da06"/></linearGradient><linearGradient id="b" gradientUnits="userSpaceOnUse" x1="5" x2="5" y1="16" y2="6"><stop offset="0" stop-color="#bcfd93"/><stop offset="1" stop-color="#fafff5"/></linearGradient><linearGradient id="c" gradientUnits="userSpaceOnUse" x1="5" x2="17" y1="6" y2="17"><stop offset="0" stop-color="#383e51"/><stop offset="1" stop-color="#655c6f" stop-opacity="0"/></linearGradient><ellipse cx="10.999992" cy="11.000013" fill="url(#a)" rx="8.999992" ry="9.000013" stroke-width=".642858"/><path d="m16 6 4 4v10h-9l-6-6 4-3.5 1 1 1 .5-1-1v-5z" fill="url(#c)" opacity=".2"/><path d="m10 6v5h3v3l3-3v-5zm1 1h4v3h-4zm-3 3.5-1.5 2-.5-.5h-1v2h1l.5-.5 1.5 2h1v-5z" fill="url(#b)"/></svg>