<svg height="22" width="22" xmlns="http://www.w3.org/2000/svg" xmlns:xlink="http://www.w3.org/1999/xlink"><linearGradient id="a" gradientUnits="userSpaceOnUse" x1="24.018" x2="24.018" y1="18.383" y2=".383"><stop offset="0" stop-color="#a5a5a5"/><stop offset="1" stop-color="#f5f2f5"/></linearGradient><linearGradient id="b" gradientUnits="userSpaceOnUse" x1="8" x2="8" y1="17" y2="5"><stop offset="0" stop-color="#ffd42a"/><stop offset="1" stop-color="#ffdf62"/></linearGradient><linearGradient id="c" gradientUnits="userSpaceOnUse" x1="7" x2="20" y1="4" y2="17"><stop offset="0" stop-color="#292c2f"/><stop offset="1" stop-opacity="0"/></linearGradient><g stroke-linejoin="round" stroke-width="2"><circle cx="11" cy="11" fill="#484f56" r="9"/><path d="m11 2a9 9 0 0 0 -8.0546875 5h1.0546875l1 1v-1h1v-1l2-2v1l1-1v-1h1v1h1l1-1v-.9433594a9 9 0 0 0 -1-.0566406zm6.361328 2.6386719-.361328.3613281v1h1l.283203-.2832031a9 9 0 0 0 -.921875-1.078125zm1.322266 1.6777343-.683594.6835938-2 1-1 3h1v1l2 1 1.917969-.958984a9 9 0 0 0 .082031-1.041016 9 9 0 0 0 -1.316406-4.6835938zm-15.683594 2.6835938v1h-.921875a9 9 0 0 0 -.078125 1h1l2 2h1v1h-1v1l2 2v2.054688a9 9 0 0 0 4 .945312l1-1v-1h1l1-1v-1l1-1-1-1h-2l-1-1h-1l-1-1h-2v-1l-1 1h-1v-1l-1-1v-1z" fill="url(#a)"/><path d="m19.974609 10.359375a9 9 0 0 1 -8.974609 8.640625 9 9 0 0 1 -8.9648438-8.5 9 9 0 0 0 -.0351562.5 9 9 0 0 0 9 9 9 9 0 0 0 9-9 9 9 0 0 0 -.025391-.640625z" fill="#292c2f" opacity=".3"/></g><path d="m13 4-6 8 2 2v4l2 2h9v-9z" fill="url(#c)" opacity=".25"/><path d="m11.464844 4-4.464844 6.697266v1.302734h2v6h1.580078l4.419922-7.734375v-1.265625h-2v-5z" fill="#484f56"/><path d="m12 5-4 6h2.25l-.25 1v5l4-7h-2.25l.25-1z" fill="url(#b)" stroke-width="2"/></svg>