<svg height="22" width="22" xmlns="http://www.w3.org/2000/svg" xmlns:xlink="http://www.w3.org/1999/xlink"><linearGradient id="a" gradientUnits="userSpaceOnUse" x1="6.375003" x2="15.75002" y1="8.000012" y2="17.37501"><stop offset="0"/><stop offset="1" stop-opacity="0"/></linearGradient><linearGradient id="b" gradientUnits="userSpaceOnUse" x1="7" x2="7" y1="14" y2="6"><stop offset="0" stop-color="#eff0f1"/><stop offset="1" stop-color="#fcfcfc"/></linearGradient><linearGradient id="c" gradientTransform="matrix(1 0 0 1.0285724 -.00001 -14.394733)" gradientUnits="userSpaceOnUse" x1="418.16971" x2="384.57144" y1="503.07938" y2="531.45813"><stop offset="0" stop-color="#1abc9c"/><stop offset="1" stop-color="#2980b9"/></linearGradient><linearGradient id="d" gradientUnits="userSpaceOnUse" x1="29.85095" x2="54.317608" y1="22.348567" y2="28.506301"><stop offset="0" stop-color="#cc4a5e"/><stop offset="1" stop-color="#aa478a"/></linearGradient><linearGradient id="e" gradientUnits="userSpaceOnUse" x1="24.393862" x2="20.645595" xlink:href="#f" y1="41.223652" y2="25.343179"/><linearGradient id="f"><stop offset="0" stop-color="#334545"/><stop offset="1" stop-color="#536161"/></linearGradient><linearGradient id="g" gradientTransform="matrix(-1 0 0 1 839.14285 -40.00001)" gradientUnits="userSpaceOnUse" x1="430.57141" x2="440.17142" xlink:href="#f" y1="569.97992" y2="562.49939"/><linearGradient id="h" gradientTransform="matrix(-.41666647 0 0 .53472146 190.40467 -283.78051)" gradientUnits="userSpaceOnUse" x1="430.57141" x2="440.17142" xlink:href="#f" y1="569.97992" y2="562.49939"/><linearGradient id="i" gradientTransform="matrix(-.41666647 0 0 .53472146 194.40467 -286.3305)" gradientUnits="userSpaceOnUse" x1="430.57141" x2="440.17142" xlink:href="#f" y1="569.97992" y2="562.49939"/><g transform="matrix(.41666647 0 0 .53472146 -159.23802 -267.39164)"><path d="m384.57144 503.79801v33.66238h48.00002v-33.66238z" fill="url(#c)" stroke-width="1.10638"/><g stroke-linecap="round"><g stroke-width="2"><path d="m56 6-29.700005 17.142932 24.2 13.714298h5.5z" fill="url(#d)" transform="matrix(1.0909096 0 0 1.0909096 371.48052 497.25255)"/><path d="m26.299995 23.142932-14.299995 8.382865v5.331433h38.499995z" fill="url(#e)" transform="matrix(1.0909096 0 0 1.0909096 371.48052 497.25255)"/><path d="m408.57144 527.26823-8.4-4.76883-1.2.71065v8.64001h1.2z" fill="url(#g)"/></g><path d="m11 14.549998v5.45h.499999l3.500001-2.55z" fill="url(#i)" stroke-width=".944035" transform="matrix(2.4000011 0 0 1.8701325 382.17143 500.05781)"/><path d="m7 17v3h4v-.449219l-3.5-2.550781z" fill="url(#h)" stroke-width=".944035" transform="matrix(2.4000011 0 0 1.8701325 382.17143 500.05781)"/><path d="m400.17144 522.4994 32.40001-18.70139-.00002 10.94034z" fill="#aa478a" stroke-width="2"/></g></g><g transform="matrix(.62499999 0 0 .62499999 -239.35714 -321.62379)"><path d="m384.57144 541.7981h31.999952v4.8h-31.999952z" fill="#fff" fill-opacity=".784314" stroke-width="1.09545"/><path d="m19.5 17.75a.75000002.75000002 0 0 0 -.75.75.75000002.75000002 0 0 0 .75.75.75000002.75000002 0 0 0 .75-.75.75000002.75000002 0 0 0 -.75-.75zm-17.5.25v1h1v-1z" fill="#4d4d4d" stroke-width=".75" transform="matrix(1.6 0 0 1.6 382.97143 514.59807)"/></g><path d="m15 7-8 1 4 4h-4v1l4 4h10v-4z" fill="url(#a)" opacity=".2"/><path d="m12.5 6c-.634185.00172-1.198763.4020819-1.410156 1h-4.089844v1h4.089844c.211393.597918.775971.998284 1.410156 1 .634185-.0017 1.198763-.402082 1.410156-1h1.089844v-1h-1.085938c-.211872-.5992672-.778443-.9999358-1.414062-1zm-3 5c-.6341848.0017-1.1987629.402082-1.4101562 1h-1.0898438v1h1.0898438c.2113933.597918.7759714.998284 1.4101562 1 .634185-.0017 1.198763-.402082 1.410156-1h4.089844v-1h-4.085938c-.211872-.599267-.778443-.999936-1.414062-1zm-.5 1h1v1h-1z" fill="url(#b)"/></svg>