<svg height="22" width="22" xmlns="http://www.w3.org/2000/svg" xmlns:xlink="http://www.w3.org/1999/xlink"><linearGradient id="a" gradientUnits="userSpaceOnUse" x1="6.5" x2="6.5" y1="9.714286" y2="4.571429"><stop offset="0" stop-color="#31363b"/><stop offset="1" stop-color="#4d4d4d"/></linearGradient><linearGradient id="b" gradientUnits="userSpaceOnUse" x1="10.357143" x2="18.714286" y1="9.071429" y2="17.428572"><stop offset="0" stop-color="#292c2f"/><stop offset="1" stop-opacity="0"/></linearGradient><linearGradient id="c" gradientTransform="matrix(.66666664 0 0 .64285714 .333334 .714286)" gradientUnits="userSpaceOnUse" x1="28" x2="28" y1="30" y2="2"><stop offset="0" stop-color="#997657"/><stop offset="1" stop-color="#d4ba94"/></linearGradient><linearGradient id="d" gradientTransform="matrix(.50000251 0 0 10.285714 -19.3455 -127.65079)" gradientUnits="userSpaceOnUse" x1="44.691002" x2="44.691002" y1="14.355" y2="12.605"><stop offset="0" stop-color="#433a35"/><stop offset="1" stop-color="#6c5548"/></linearGradient><path d="m3.0000003 2h15.9999997v18h-15.9999997z" fill="url(#c)" stroke-width=".654653"/><path d="m3 19h16v1h-16z" fill="#232629" opacity=".6" stroke-width=".816497"/><path d="m3 2v18h3v-18z" fill="url(#d)" stroke-width=".694365"/><path d="m3 18h16v1h-16z" fill="#c5cfd3" stroke-width=".816497"/><path d="m3 17h16v1h-16z" fill="#232629" opacity=".4" stroke-width=".816496"/><path d="m19 4h1v3h-1z" fill="#2ecc71" stroke-width=".612372"/><path d="m19 8h1v3h-1z" fill="#2980b9" stroke-width=".612373"/><path d="m19 12h1v3h-1z" fill="#da4453" stroke-width=".612372"/><path d="m13.414062 6.5859375-2.414062.4140625-.414062 2.4140625 1.585938 1.5859375-2.171876 1-.9316 2 4 4h5.9316v-5.828125z" fill="url(#b)" opacity=".2" stroke-width=".642857"/><path d="m3 3a2 2 0 0 0 -2 2 2 2 0 0 0 2 2v-1a1 1 0 0 1 -1-1 1 1 0 0 1 1-1 1 1 0 0 1 1 1h1a2 2 0 0 0 -2-2zm0 5a2 2 0 0 0 -2 2 2 2 0 0 0 2 2v-1a1 1 0 0 1 -1-1 1 1 0 0 1 1-1 1 1 0 0 1 1 1h1a2 2 0 0 0 -2-2zm0 5a2 2 0 0 0 -2 2 2 2 0 0 0 2 2v-1a1 1 0 0 1 -1-1 1 1 0 0 1 1-1 1 1 0 0 1 1 1h1a2 2 0 0 0 -2-2z" fill="#7f8c8d" stroke-width="2"/><path d="m4 5v1h1v-1zm0 5v1h1v-1zm0 5v1h1v-1z" fill="#232629" stroke-width="2"/><path d="m12 6c-1.104569 0-2 .895431-2 2s.895431 2 2 2 2-.895431 2-2-.895431-2-2-2zm0 1c.552285 0 1 .447715 1 1s-.447715 1-1 1-1-.447715-1-1 .447715-1 1-1zm0 4c-1.65685 0-3 1.11929-3 2.5.002.16816.0254.33567.0684.5h5.86328c.0429-.16433.0658-.33184.0684-.5 0-1.38071-1.34315-2.5-3-2.5zm0 1c.84725.00027 1.60235.4009 1.88477 1h-3.76563c.28194-.59809 1.03504-.99849 1.88086-1z" fill="url(#a)"/></svg>