<svg height="22" width="22" xmlns="http://www.w3.org/2000/svg" xmlns:xlink="http://www.w3.org/1999/xlink"><linearGradient id="a" gradientUnits="userSpaceOnUse" x1="7" x2="17" xlink:href="#c" y1="8" y2="18"/><linearGradient id="b" gradientTransform="matrix(.41666692 0 0 .40833269 -159.23827 -203.25094)" gradientUnits="userSpaceOnUse" x2="0" y1="543.79797" y2="502.65509"><stop offset="0" stop-color="#c6cdd1"/><stop offset="1" stop-color="#e0e5e7"/></linearGradient><linearGradient id="c" gradientUnits="userSpaceOnUse" x1="5.375003" x2="14.75002" y1="7.000012" y2="16.375009"><stop offset="0"/><stop offset="1" stop-opacity="0"/></linearGradient><path d="m1.000006 2h19.999994v18h-19.999994z" fill="url(#b)" stroke-width=".633866"/><path d="m2 18 18-11 1 1v12h-17z" fill="url(#c)" fill-rule="evenodd" opacity=".2" stroke-width=".625"/><path d="m1 2h20.000002v3h-20.000002z" fill="#566069" stroke-width=".684653"/><path d="m1.000027 5h19.999973v1h-19.999973z" fill="#3daee9" stroke-width=".790569"/><path d="m2 7h18v10.999999h-18z" fill="#fff" stroke-width=".574456"/><rect fill="#eff0f1" height="1.5" rx=".75" stroke-width=".75" width="1.5" x="18.75" y="2.75"/><path d="m11.494141 8c-.9916-.03097-.673163 1.4323262-.226563 1.8789062l1.513672 1.5136718c-.137776-.06999-.288856-.132426-.449219-.1875l-2.5800779-2.580078c-.06765-.06764-.1505569-.1093044-.2480469-.1152344-.06331-.00385-.1329076.00837-.2109374.039063-.53754.08067-.3416217 1.5236134.017578 1.8828134l.7207032.720703c-.3807803.13475-.7387233.34093-1.0390626.605468l-1.2851562-1.285157c-.06797-.068-.1464718-.110281-.2324218-.113281-.0723-.0019-.150945.02233-.234375.08203-.44043.3161-.20137.927508.125 1.253906l.9609375.960938c-.094132.215284-.1598037.445592-.1835938.691406-.19086.8312.2524869 1.836431.9980469 2.582032l2.070313 2.070313h8.789062v-4.955078l-4.839844-4.8398439c-.1224-.12242-.334509-.1952525-.662109-.1953125-.820617 0-1.295783.5774481-1.480469 1.2128906l-1.08789-1.0878906c-.078-.07796-.18226-.12456-.31836-.125-.0412-.00556-.079687-.0085956-.117187-.0097656z" fill="url(#a)" opacity=".2"/><path d="m11.494141 8c-1.161042-.036261-.525882 1.9754309.0078 2.005859.53345.03063 1.014645-1.9931653.109375-1.9960934-.04125-.00556-.07973-.0086-.117187-.00977zm3.003906.00977c-1.82619 0-1.957168 2.857422-.929688 2.857422.48588 0 2.981208-2.8570741.929688-2.857422zm-4.9941408.5c-.06331-.00385-.1329075.00837-.2109374.039063-.6285.094321-.2547225 2.052078.2109374 1.960938.6120198-.0681.7001898-1.9573935 0-2.000001zm-2.0292968 1.849605c-.072298-.0019-.15095.02229-.234375.08203-.665838.4778.2234643 1.632095.6152344 1.453125.3426879-.15677.1253576-1.517516-.3808594-1.535156zm3.6640626.609375c-1.3653581-.033734-2.8556939.928247-2.9960939 2.378906-.351312 1.53008 1.4458957 3.652344 3.3222659 3.652344.92306 0 1.98814-.810651 2.1875-1.837891.15211-.78322-1.790393-.469381-1.720703.04883.08378.621259-.468976.927773-1.009766.527343-1.72139-1.27498 2.850378-1.910444 2.548828-3.652343-.09385-.542241-1.11717-.976964-2.0625-1.095704-.08948-.01124-.178507-.01923-.269531-.02148z" fill="#353b3e" stroke-width=".064286"/></svg>