<svg height="22" width="22" xmlns="http://www.w3.org/2000/svg" xmlns:xlink="http://www.w3.org/1999/xlink"><linearGradient id="a"><stop offset="0" stop-color="#f39c1f"/><stop offset="1" stop-color="#fdbc4b"/></linearGradient><linearGradient id="b" gradientUnits="userSpaceOnUse" x1="11.886601" x2="11.661686" y1="18.022402" y2="9.476281"><stop offset="0" stop-color="#fcfcfc"/><stop offset="1" stop-color="#eff0f1"/></linearGradient><linearGradient id="c" gradientUnits="userSpaceOnUse" x1="10.355895" x2="10.355895" y1="18.065456" y2="1.999471"><stop offset="0" stop-color="#1d1e1e"/><stop offset="1" stop-color="#44484c"/></linearGradient><linearGradient id="d" gradientTransform="matrix(.67634323 0 0 .60702401 .047241 1.051743)" gradientUnits="userSpaceOnUse" x1="16" x2="15.731" xlink:href="#a" y1="12" y2="8.152"/><linearGradient id="e" gradientUnits="userSpaceOnUse" x1="7.142826" x2="7.142826" xlink:href="#a" y1="19.993298" y2="14.209132"/><linearGradient id="f" gradientUnits="userSpaceOnUse" x1="9.177984" x2="11.427132" y1="7.534945" y2="9.784093"><stop offset="0"/><stop offset="1" stop-opacity="0"/></linearGradient><path d="m8.8309729 7.4314843c.2313406-.9163671.00835-1.8905695.040485-2.8352117.070688-2.06279 1.2158251-2.5306128 2.3898801-2.5916611 1.346919-.070688 2.941244.7274387 3.037636 2.673273.04562.9311473-.118884 1.8931401.121454 2.7940845.559716 2.1013469 2.962449 3.618558 2.997149 5.791877.03213 2.065361-.918937 4.499582-2.673272 5.589455-.906085.562929-2.135406-.112458-3.200216-.04048-1.184338.08097-2.5016965 1.132928-3.5234517.526943-1.8545835-1.100802-2.366104-3.923162-2.2272995-6.075918.1413751-2.187457 2.5010526-3.7065955 3.0376351-5.8323617z" fill="url(#c)" stroke-width=".642614"/><ellipse cx="12.038732" cy="5.472041" fill="#fcfcfc" fill-opacity=".941" rx="1.042777" ry="1.474913" stroke-width=".736101"/><ellipse cx="9.821379" cy="5.44343" fill="#fcfcfc" fill-opacity=".941" rx=".754038" ry="1.317809" stroke-width=".779987"/><ellipse cx="11.575116" cy="5.70598" fill="#232629" rx=".48222" ry=".768763" stroke-width=".780323"/><ellipse cx="9.767261" cy="5.78822" fill="#232629" rx=".406776" ry=".810716" stroke-width=".977531"/><g stroke-width=".642614"><path d="m12.003557 6.9848678a3.2567663 3.2567663 0 0 0 -.350225.00257c-.790414.0462687-1.63738.3566511-2.0653605.7325801-.6850259.6021291-.278894 1.1875502-.573854 2.0332298-.2949594.8456793-1.0371782 1.9522603-1.2595226 3.0074323-.089966.426053-.2043511.852106-.28275 1.280086l2.1161266 2.585878c.4157715.507665-.6689605.319379-1.6778641-.334159.7158717 1.006976 2.1360476 2.004955 3.5382316 1.910491 1.493434-.100248 3.256765-1.6618 3.820981-2.938673-.547507-.09254-1.079592-.916367-.641328-1.530063.152299-.212705.47939-.231341.760212-.186358-.169008-.654181-.505737-1.240245-.674745-1.732487-.293031-.858532-.633617-1.098869-.944642-1.8610092-.311667-.7621399.01735-2.1720344-.859817-2.7208265-.246764-.1542273-.562287-.2313409-.905443-.2486915z" fill="url(#b)"/><path d="m6.3945312 14.220703c-.0391304.001579-.0769988.006789-.1152343.015625-.3907091.090609-.5366566.600943-.8496094.851563-.4054893.323877-1.0870184.364158-1.3183594.828125-.2172034.436977.2425731.98602.1230469 1.458984-.0449829.179932-.3168972.281724-.3046875.466797.0295602.468465.508548.83257.9121094 1.072265.5095927.303315 1.1702613.205867 1.7421875.365235.392637.109244.7449266.420362 1.1523437.404297.6708888-.025705 1.540436-.212273 1.84375-.810547.224915-.444046-.0845237-1.020054-.3242187-1.457031-.230056-.418342-.7212574-.633219-1.0117188-1.011719-.4356921-.569356-.5209282-1.40831-1.0742187-1.863281-.2119822-.174309-.5014778-.331367-.7753907-.320313zm8.0937498.162109c-.129166.11567-.238674.261663-.318359.40625-.345725.627834-.112571 1.439383-.306641 2.128907-.129808.459469-.507928.841489-.566406 1.314453-.06105.494812-.133124 1.144948.240234 1.474609.503809.443404 1.379388.294588 2.011719.070313.384925-.136235.597355-.557924.921875-.804688.471679-.359863 1.121273-.512672 1.482422-.982422.285963-.372716.595092-.88801.449219-1.333984-.05784-.176076-.344523-.171894-.453125-.322266-.285963-.395207-.064657-1.071321-.427735-1.396484-.269898-.24098-.667784-.214327-1.050781-.224609-.185073.396493-.786686.665809-1.201172.550781-.350867-.09768-.700281-.495933-.78125-.88086z" fill="url(#e)"/><path d="m12.926351 6.7560973 2.141831 2.1418316-2.998435 1.5294211-2.8917625-2.8917622" fill="url(#f)" opacity=".2"/></g><path d="m10.686796 6.0002029c.44571-.021246.855575.2379534 1.257999.4109553.388897.1681457 1.053064.2185285 1.107849.602775.0629.4364504-.622234.6938284-1.022631.9469574-.357784.2264198-.756828.4916892-1.193745.4880473-.441652-.004249-.832578-.2883363-1.1937457-.5165774-.2975909-.1881774-.7662975-.3617864-.7777949-.6889723-.0128509-.349646.4666763-.5724238.7777949-.7842753.3084132-.2100301.6574057-.4406993 1.0442737-.45891z" fill="url(#d)" stroke-width=".640746"/><path d="m6.394531 14.220703c-.03913.0016-.077.0068-.115234.01563-.390709.09061-.536657.600943-.849609.851563-.405489.323877-1.087019.364158-1.31836.828125-.132917.267408-.012.57654.07422.884765.279097-.357519.875341-.418318 1.244141-.71289.312952-.25062.4589-.760953.849609-.851563.03823-.0088.0761-.01403.115234-.01563.273913-.01105.563409.146004.775391.320313.55329.454971.638526 1.293925 1.074219 1.863281.290461.3785.781662.593377 1.011718 1.011719.09171.167185.193192.354163.271485.546875.01889-.02912.03684-.0585.05273-.08984.224915-.444046-.08452-1.020054-.324219-1.457031-.230056-.418342-.721257-.633219-1.011718-1.011719-.435693-.569356-.520929-1.40831-1.074219-1.863281-.211982-.174309-.501478-.331367-.775391-.320313zm8.09375.162109c-.129166.11567-.238674.261663-.318359.40625-.345725.627835-.112571 1.439383-.306641 2.128907-.129808.459469-.507928.841489-.566406 1.314453-.04019.325729-.08437.718351-.0039 1.042969.0017-.01374.0022-.02945.0039-.04297.05848-.472964.436598-.854984.566406-1.314453.19407-.689524-.03908-1.501072.306641-2.128907.07968-.144586.189193-.29058.318359-.40625.08097.384927.430383.78318.78125.88086.414486.115028 1.016099-.154288 1.201172-.550781.382997.01028.780883-.01637 1.050781.224609.363075.325163.141772 1.001277.427735 1.396484.06788.09398.204844.126663.3125.181641.145799-.279639.2312-.582461.140625-.859375-.05784-.176076-.344523-.171894-.453125-.322266-.285963-.395207-.06466-1.071321-.427735-1.396484-.269898-.24098-.667784-.214327-1.050781-.224609-.185073.396493-.786686.665809-1.201172.550781-.350867-.09768-.700281-.495932-.78125-.88086zm-10.373047 3.167969c-.09001.09077-.193233.174504-.185546.291016.01378.218395.127247.412983.283203.583984.0083-.01635.01706-.03307.02148-.05078.06629-.262289-.04337-.547223-.119141-.824219z" fill="#f9bf5b" stroke-width=".642614"/></svg>