<svg height="22" width="22" xmlns="http://www.w3.org/2000/svg" xmlns:xlink="http://www.w3.org/1999/xlink"><linearGradient id="a" gradientTransform="matrix(.57142913 0 0 .57142913 -217.89818 -292.88488)" gradientUnits="userSpaceOnUse" x2="0" y1="545.79797" y2="517.79797"><stop offset="0" stop-color="#2a2c2f"/><stop offset="1" stop-color="#424649"/></linearGradient><linearGradient id="b" gradientUnits="userSpaceOnUse" x1="6.500007" x2="15.500007" y1="6.499981" y2="15.49998"><stop offset="0" stop-color="#292c2f"/><stop offset="1" stop-opacity="0"/></linearGradient><linearGradient id="c" gradientTransform="matrix(.64285714 0 0 .64285714 .714286 .714286)" gradientUnits="userSpaceOnUse" x2="0" y1="18" y2="7"><stop offset="0" stop-color="#197cf1"/><stop offset="1" stop-color="#20bcfa"/></linearGradient><linearGradient id="d" gradientUnits="userSpaceOnUse" x1="10.999994" x2="10.999994" y1="19.999996" y2="2.000014"><stop offset="0" stop-color="#788085"/><stop offset="1" stop-color="#9ba1a6"/></linearGradient><path d="m11 2c-4.9859949 0-9 4.0140064-9 9 0 4.985994 4.0140051 9 9 9 4.985995 0 9-4.014006 9-9 0-4.9859936-4.014005-9-9-9z" fill="url(#d)" stroke-width=".642857"/><rect fill="url(#a)" height="16" rx="9.333294" stroke-width=".571428" width="16" x="3" y="3"/><g stroke-width=".642857"><path d="m10 5v7l8 8h2v-6l-9.031056-9z" fill="url(#b)" fill-rule="evenodd" opacity=".2"/><path d="m10 5v7h5v-1h-4v-6z" fill="url(#c)"/></g></svg>