<svg height="22" width="22" xmlns="http://www.w3.org/2000/svg" xmlns:xlink="http://www.w3.org/1999/xlink"><linearGradient id="a" gradientTransform="matrix(.41666692 0 0 .40833269 -159.23827 -203.25094)" gradientUnits="userSpaceOnUse" x2="0" y1="543.79797" y2="502.65509"><stop offset="0" stop-color="#c6cdd1"/><stop offset="1" stop-color="#e0e5e7"/></linearGradient><linearGradient id="b" gradientUnits="userSpaceOnUse" x1="5.375003" x2="14.75002" y1="7.000012" y2="16.375009"><stop offset="0"/><stop offset="1" stop-opacity="0"/></linearGradient><path d="m1.000006 2h19.999994v18h-19.999994z" fill="url(#a)" stroke-width=".633866"/><path d="m2 18 18-11 1 1v11.500012l-17 .499988z" fill="url(#b)" fill-rule="evenodd" opacity=".2" stroke-width=".625"/><path d="m1 2h20.000002v3h-20.000002z" fill="#566069" stroke-width=".684653"/><path d="m1.000027 5h19.999973v1h-19.999973z" fill="#3daee9" stroke-width=".790569"/><path d="m2 7h18v10.999999h-18z" fill="#fff" stroke-width=".574456"/><path d="m3 8v4h4v-3h-1.5l-1-1zm0 5v4h4v-3h-1.5l-1-1z" fill="#7aabdc"/><path d="m9 8h2l1 1v3h-3z" fill="#f95" stroke-width="2"/><path d="m11 8v1h1z" fill="#d45500"/><path d="m9 13h2l1 1v3h-3z" fill="#71c837" stroke-width="2"/><path d="m11 13v1h1z" fill="#447821"/><path d="m14 8h4v4h-4z" fill="#333"/><rect fill="#3daee9" height="1" ry=".5" width="2" x="15" y="9.5"/><path d="m19.460938 2.75c-.397372.0200131-.710938.3474844-.710938.75 0 .4155.3345.75.75.75s.75-.3345.75-.75-.3345-.75-.75-.75c-.01298 0-.02624-.0006456-.03906 0zm-2.960938 6.75a.5.5 0 0 0 -.5.5.5.5 0 0 0 .5.5.5.5 0 0 0 .5-.5.5.5 0 0 0 -.5-.5z" fill="#eff0f1" stroke-width=".75"/></svg>