<svg height="22" width="22" xmlns="http://www.w3.org/2000/svg" xmlns:xlink="http://www.w3.org/1999/xlink"><linearGradient id="a" gradientTransform="matrix(.44545485 0 0 .4500002 -171.09104 -224.70921)" gradientUnits="userSpaceOnUse" x2="0" y1="543.79797" y2="503.798"><stop offset="0" stop-color="#197cf1"/><stop offset="1" stop-color="#21c9fb"/></linearGradient><linearGradient id="b" gradientTransform="matrix(.64285714 0 0 .64285714 -246.51021 -330.87014)" gradientUnits="userSpaceOnUse" x2="0" y1="545.79797" y2="517.79797"><stop offset="0" stop-color="#42a603"/><stop offset="1" stop-color="#78da06"/></linearGradient><linearGradient id="c"><stop offset="0" stop-color="#292c2f"/><stop offset="1" stop-opacity="0"/></linearGradient><linearGradient id="d" xlink:href="#c"/><linearGradient id="e" gradientTransform="matrix(.71428731 0 0 .68486008 -275.83739 -352.4132)" gradientUnits="userSpaceOnUse" x1="401.57144" x2="408.57147" xlink:href="#d" y1="524.79797" y2="531.79797"/><linearGradient id="f" gradientTransform="matrix(.71428731 0 0 .68486008 -271.83739 -352.4132)" gradientUnits="userSpaceOnUse" x1="401.57144" x2="408.57147" xlink:href="#d" y1="524.79797" y2="531.79797"/><linearGradient id="g" gradientUnits="userSpaceOnUse" x1="6" x2="16" xlink:href="#c" y1="8.998047" y2="19"/><linearGradient id="h" gradientUnits="userSpaceOnUse" x1="11" x2="11" y1="22.001953" y2="11"><stop offset="0" stop-color="#7cbaf8"/><stop offset="1" stop-color="#f4fcff"/></linearGradient><path d="m6 2v18h13.99999l.00001-13-5-5z" fill="url(#b)" stroke-width=".642857"/><path d="m15 7 5 4.794021v-4.794021z" fill="url(#f)" fill-rule="evenodd" opacity=".2" stroke-width=".699419"/><path d="m2 2v18h14v-13l-5-5z" fill="url(#a)" stroke-width=".639602"/><path d="m11 7 5 4.794021v-4.794021z" fill="url(#e)" fill-rule="evenodd" opacity=".2" stroke-width=".699419"/><path d="m11 2v5h4 1 4l-5-5v4z" fill="#313437" fill-rule="evenodd" stroke-width=".642857"/><g stroke-width=".5" transform="translate(-2 -2.001953)"><path d="m7.8535156 9.1445312-.7070312.7070313 2.8535156 2.8535155v.292969l6 6.001953v-4l-4-4.001953-1.292969 1zm-.7871094 2.2871098-.8828124.882812 1.4765624 1.476563c-.1011011.130673-.1601562.290046-.1601562.457031 0 .1989.0781.3906.21875.53125l5.21875 5.21875h2.697266z" fill="url(#g)" opacity=".2" transform="translate(2 2.001953)"/><path d="m9.5 11.001953a.5.5 0 0 0 -.5.5.5.5 0 0 0 .5.5.5.5 0 0 0 .5-.5.5.5 0 0 0 -.5-.5zm2.5 0-.75.75 1.25 1.25-1.25 1.25.75.75 2-2zm-3.375 2.25a.625.625 0 0 0 -.625.625.625.625 0 0 0 .625.625.625.625 0 0 0 .625-.625.625.625 0 0 0 -.625-.625zm1.625 2.25a.75.75 0 0 0 -.75.75.75.75 0 0 0 .75.75.75.75 0 0 0 .75-.75.75.75 0 0 0 -.75-.75z" fill="url(#h)"/></g></svg>