<svg height="22" width="22" xmlns="http://www.w3.org/2000/svg" xmlns:xlink="http://www.w3.org/1999/xlink"><linearGradient id="a" gradientUnits="userSpaceOnUse" x1="24.018" x2="24.018" y1="18.383" y2=".383"><stop offset="0" stop-color="#a5a5a5"/><stop offset="1" stop-color="#f5f2f5"/></linearGradient><linearGradient id="b" gradientUnits="userSpaceOnUse" x1="6" x2="6" y1="11" y2="6"><stop offset="0" stop-color="#ffd42a"/><stop offset="1" stop-color="#ffdf62"/></linearGradient><linearGradient id="c" gradientUnits="userSpaceOnUse" x1="4" x2="18" y1="6" y2="20"><stop offset="0" stop-color="#292c2f"/><stop offset="1" stop-opacity="0"/></linearGradient><circle cx="11" cy="11" fill="#484f56" r="9"/><path d="m11 2a9 9 0 0 0 -8.0546875 5h1.0546875l1 1v-1h1v-1l2-2v1l1-1v-1h1v1h1l1-1v-.9433594a9 9 0 0 0 -1-.0566406zm6.361328 2.6386719-.361328.3613281v1h1l.283203-.2832031a9 9 0 0 0 -.921875-1.078125zm1.322266 1.6777343-.683594.6835938-2 1-1 3h1v1l2 1 1.917969-.958984a9 9 0 0 0 .082031-1.041016 9 9 0 0 0 -1.316406-4.6835938zm-15.683594 2.6835938v1h-.921875a9 9 0 0 0 -.078125 1h1l2 2h1v1h-1v1l2 2v2.054688a9 9 0 0 0 4 .945312l1-1v-1h1l1-1v-1l1-1-1-1h-2l-1-1h-1l-1-1h-2v-1l-1 1h-1v-1l-1-1v-1z" fill="url(#a)" stroke-linejoin="round" stroke-width="2"/><path d="m19.974609 10.359375a9 9 0 0 1 -8.974609 8.640625 9 9 0 0 1 -8.9648438-8.5 9 9 0 0 0 -.0351562.5 9 9 0 0 0 9 9 9 9 0 0 0 9-9 9 9 0 0 0 -.025391-.640625z" fill="#292c2f" opacity=".3" stroke-linejoin="round" stroke-width="2"/><path d="m4.1347656 11 2.8652344 2.865234.7363281 2.398438 3.7382809 3.736328h8.525391v-8.525391l-5.736328-5.7382809z" fill="url(#c)" opacity=".2"/><path d="m9.5 5c-1.3688651 0-2.5 1.1311331-2.5 2.5v1.6816406l-2.8652344 1.8183594 2.8652344 1.818359v1.681641c0 1.368865 1.1311329 2.5 2.5 2.5h3c1.368867 0 2.5-1.131135 2.5-2.5v-1.681641l2.865234-1.818359-2.865234-1.8183594v-1.6816406c0-1.3688669-1.131135-2.5-2.5-2.5z" fill="#484f56"/><path d="m9.5 6c-.828426 0-1.5.6715724-1.5 1.5v2.2304688l-2 1.2695312 2 1.269531v2.230469c0 .828426.671572 1.5 1.5 1.5h.5v-1h-.5253906c-.2556626-.01296-.4616498-.218947-.4746094-.474609v-2.794922l-1-.730469 1-.730469v-2.7949216c.0129596-.2556629.2189465-.4616498.4746094-.4746094h.5253906v-1zm2.5 0v1h.525391c.255663.0129596.461649.2189465.474609.4746094v2.7949216l1 .730469-1 .730469v2.794922c-.01296.255662-.218947.461649-.474609.474609h-.525391v1h.5c.828428 0 1.5-.671574 1.5-1.5v-2.230469l2-1.269531-2-1.2695312v-2.2304688c0-.8284276-.671574-1.5-1.5-1.5z" fill="url(#b)"/></svg>