<svg height="22" width="22" xmlns="http://www.w3.org/2000/svg" xmlns:xlink="http://www.w3.org/1999/xlink"><linearGradient id="a" gradientUnits="userSpaceOnUse" x1="5.08194" x2="5.08194" y1="19.653846" y2="1.346154"><stop offset="0" stop-color="#54d883"/><stop offset="1" stop-color="#abf9c7"/></linearGradient><linearGradient id="b" gradientUnits="userSpaceOnUse" x1="7.697324" x2="20.774247" y1="3.961539" y2="17.038462"><stop offset="0" stop-color="#292c2f"/><stop offset="1" stop-opacity="0"/></linearGradient><linearGradient id="c" gradientUnits="userSpaceOnUse" x1="5.08194" x2="5.08194" y1="19.653846" y2="1.346154"><stop offset="0" stop-color="#197cf1"/><stop offset="1" stop-color="#20bcfa"/></linearGradient><linearGradient id="d" gradientUnits="userSpaceOnUse"><stop offset="0" stop-color="#433a35"/><stop offset="1" stop-color="#997657"/></linearGradient><linearGradient id="e" gradientUnits="userSpaceOnUse"><stop offset="0" stop-color="#6c5548"/><stop offset="1" stop-color="#997657"/></linearGradient><radialGradient id="f" cx="6" cy="10.999999" gradientUnits="userSpaceOnUse" r="1"><stop offset="0" stop-color="#eff0f1"/><stop offset="1" stop-color="#bdc3c7"/></radialGradient><linearGradient id="g" x1="19" x2="19" xlink:href="#e" y1="19.782609" y2="1.695653"/><linearGradient id="h" x1="18.999999" x2="18.295986" xlink:href="#e" y1="19.999999" y2="19.999999"/><linearGradient id="i" gradientTransform="matrix(1.0000002 0 0 .67999998 -3.000002 -.72)" x1="11" x2="12" xlink:href="#d" y1="29" y2="29"/><linearGradient id="j" gradientUnits="userSpaceOnUse" x1="4" x2="9" y1="11" y2="11"><stop offset="0" stop-color="#997657"/><stop offset="1" stop-color="#d4ba94"/></linearGradient><linearGradient id="k" x1="5" x2="8" xlink:href="#e" y1="3" y2="3"/><linearGradient id="l" x1="3" x2="5" xlink:href="#d" y1="11" y2="11"/><g stroke-width=".653846"><path d="m9 3v15h9v-15z" fill="url(#c)"/><path d="m9 3v15h9v-15z" fill="url(#b)" opacity=".2"/><path d="m14 2-5 1v4l1 1v-1l1-1v-1h1v-1l1-1v1l1-1zm-5 9v5l1 1v1h5l1-1v-1l1-1v-1l-2-1h-1v-1h-1l-2-1z" fill="url(#a)"/></g><path d="m8 2h11v1h-11zm0 16h11v1h-11z" fill="url(#g)" stroke-width=".695652"/><path d="m18 2h1v17h-1z" fill="url(#h)" stroke-width=".704013"/><path d="m8 2h1v17h-1z" fill="url(#i)" stroke-width=".824621"/><g stroke-width=".695652"><path d="m9 3-5-2v20l5-2z" fill="url(#j)"/><path d="m5 3v2h1v-1.5zm2 1v2h1v-1.5zm-2 2v2h1v-1.5zm2 1v2h1v-1.5zm0 6v2l1-.5v-1.5zm-2 1v2l1-.5v-1.5zm2 2v2l1-.5v-1.5zm-2 1v2l1-.5v-1.5z" fill="url(#k)"/><path d="m3 1.5 1-.5v20l-1-.5z" fill="url(#l)"/></g><circle cx="6" cy="11" fill="url(#f)" r="1"/></svg>