<svg height="22" width="22" xmlns="http://www.w3.org/2000/svg" xmlns:xlink="http://www.w3.org/1999/xlink"><linearGradient id="a" gradientUnits="userSpaceOnUse" x1="8.357143" x2="16.714286" y1="8.071429" y2="16.428572"><stop offset="0" stop-color="#292c2f"/><stop offset="1" stop-opacity="0"/></linearGradient><linearGradient id="b" gradientUnits="userSpaceOnUse" x1="7" x2="7" y1="15" y2="5"><stop offset="0" stop-color="#232629"/><stop offset="1" stop-color="#4d4d4d"/></linearGradient><linearGradient id="c" gradientTransform="matrix(.6666667 0 0 .64285714 .333333 .714286)" gradientUnits="userSpaceOnUse" x1="30" x2="30" y1="30" y2="2"><stop offset="0" stop-color="#fdbc4b"/><stop offset="1" stop-color="#fed286"/></linearGradient><linearGradient id="d" gradientUnits="userSpaceOnUse" x1="3" x2="3" y1="20" y2="18.071429"><stop offset="0" stop-opacity=".4"/><stop offset="1" stop-opacity=".2"/></linearGradient><linearGradient id="e" gradientTransform="matrix(.42857357 0 0 10.285714 -16.153286 -127.65079)" gradientUnits="userSpaceOnUse" x1="38.691002" x2="38.691002" y1="14.355" y2="12.605"><stop offset="0" stop-color="#1d1e1e"/><stop offset="1" stop-color="#44484c"/></linearGradient><path d="m3 2h16v18h-16z" fill="url(#c)" stroke-width=".654654"/><path d="m3 2v18h2v-1h-1v-1h1v-16z" fill="url(#e)" stroke-width=".642857"/><path d="m3 17v3h16v-1h-14v-1h14v-1z" fill="url(#d)" fill-rule="evenodd" stroke-width=".642857"/><path d="m4 18h15v1h-15z" fill="#edf573" stroke-width=".807573"/><path d="m10 5c-1.104569 0-2 .895431-2 2s.895431 2 2 2 2-.895431 2-2-.895431-2-2-2zm0 1c.552285 0 1 .447715 1 1s-.447715 1-1 1-1-.447715-1-1 .447715-1 1-1zm4 1c-1.104571 0-2 .8954295-2 2v2h-1v4h6v-4h-1v-2c0-1.1045689-.895431-2-2-2zm0 1c.552284 0 1 .4477156 1 1v2h-2v-2c0-.5522844.447714-1 1-1zm-4 2c-1.65685 0-3 1.11929-3 2.5.002.16816.025359.33567.068359.5h2.931641v-1h-1.8808594c.28194-.59809 1.0350394-.99849 1.8808594-1z" fill="url(#b)"/><path d="m11.414062 5.5859375-2.414062.4140625-.4140625 2.4140625 1.5859375 1.5859375-2.171875 1-.9316406 2 3.9999996 4h7.931641v-5.828125l-3.585938-3.5859375h-2z" fill="url(#a)" opacity=".2" stroke-width=".642857"/></svg>