<svg version="1.1" viewBox="0 0 22 22" xmlns="http://www.w3.org/2000/svg" xmlns:xlink="http://www.w3.org/1999/xlink">
    <defs>
        <linearGradient id="linearGradient4149" x2="0" y1="545.79797" y2="517.79797" gradientTransform="matrix(.64285714 0 0 .64285714 138.06132 184.92822)" gradientUnits="userSpaceOnUse">
            <stop stop-color="#1d1e1e" offset="0"/>
            <stop stop-color="#44484c" offset="1"/>
        </linearGradient>
        <linearGradient id="linearGradient4274" x1="8" x2="24.00001" y1="23.999973" y2="8" gradientUnits="userSpaceOnUse" xlink:href="#linearGradient4288"/>
        <linearGradient id="linearGradient4288">
            <stop stop-color="#e81877" offset="0"/>
            <stop stop-color="#dd1d8c" offset=".312499"/>
            <stop stop-color="#6d57b1" offset=".562499"/>
            <stop stop-color="#2a78c1" offset=".75"/>
            <stop stop-color="#018dcb" offset="1"/>
        </linearGradient>
        <clipPath id="clipPath4534">
            <rect x="8.0000095" y="8" width="31.999989" height="31.999971" rx="15.999986"/>
        </clipPath>
        <linearGradient id="linearGradient4278" x1="8" x2="24.00001" y1="24.000031" y2="8" gradientTransform="matrix(1,0,0,-1,384.57143,547.798)" gradientUnits="userSpaceOnUse" xlink:href="#linearGradient4300"/>
        <linearGradient id="linearGradient4300">
            <stop stop-color="#e51561" offset="0"/>
            <stop stop-color="#e4156c" offset=".312499"/>
            <stop stop-color="#e71e2c" offset=".562499"/>
            <stop stop-color="#e8301e" offset=".75"/>
            <stop stop-color="#e6320e" offset="1"/>
        </linearGradient>
        <clipPath id="clipPath4584">
            <rect x="392.57144" y="507.798" width="31.999989" height="31.999971" rx="15.999986"/>
        </clipPath>
        <linearGradient id="linearGradient4284" x1="8" x2="24.00001" y1="23.999973" y2="8" gradientTransform="matrix(-1,0,0,1,432.57143,499.798)" gradientUnits="userSpaceOnUse" xlink:href="#linearGradient4328"/>
        <linearGradient id="linearGradient4328">
            <stop stop-color="#bec900" offset="0"/>
            <stop stop-color="#9ec80a" offset=".312499"/>
            <stop stop-color="#71b93d" offset=".562499"/>
            <stop stop-color="#35a48f" offset=".75"/>
            <stop stop-color="#018fca" offset="1"/>
        </linearGradient>
        <clipPath id="clipPath4550">
            <rect x="392.57144" y="507.798" width="31.999989" height="31.999971" rx="15.999986"/>
        </clipPath>
        <linearGradient id="linearGradient4286" x1="8" x2="24.00001" y1="24" y2="8" gradientTransform="rotate(180 216.28571 273.899)" gradientUnits="userSpaceOnUse" xlink:href="#linearGradient4316"/>
        <linearGradient id="linearGradient4316">
            <stop stop-color="#c1cc00" offset="0"/>
            <stop stop-color="#dfcd00" offset=".312499"/>
            <stop stop-color="#f0cc00" offset=".562499"/>
            <stop stop-color="#fd8c08" offset=".75"/>
            <stop stop-color="#f25c13" offset="1"/>
        </linearGradient>
        <clipPath id="clipPath4568">
            <rect x="392.57144" y="507.798" width="31.999989" height="31.999971" rx="15.999986"/>
        </clipPath>
        <clipPath id="clipPath4528">
            <rect x="8.0000095" y="8" width="31.999989" height="31.999971" rx="15.999986"/>
        </clipPath>
        <filter id="filter4390" x="-.060000001" y="-.060000001" width="1.12" height="1.12" color-interpolation-filters="sRGB">
            <feGaussianBlur stdDeviation="0.4"/>
        </filter>
        <clipPath id="clipPath4578">
            <rect x="392.57144" y="507.798" width="31.999989" height="31.999971" rx="15.999986"/>
        </clipPath>
        <clipPath id="clipPath4562">
            <rect x="392.57144" y="507.798" width="31.999989" height="31.999971" rx="15.999986"/>
        </clipPath>
        <clipPath id="clipPath4544">
            <rect x="392.57144" y="507.798" width="31.999989" height="31.999971" rx="15.999986"/>
        </clipPath>
        <clipPath id="clipPath4528-1">
            <rect x="8.0000095" y="8" width="31.999989" height="31.999971" rx="15.999986"/>
        </clipPath>
        <clipPath id="clipPath4578-8">
            <rect x="392.57144" y="507.798" width="31.999989" height="31.999971" rx="15.999986"/>
        </clipPath>
        <clipPath id="clipPath4562-8">
            <rect x="392.57144" y="507.798" width="31.999989" height="31.999971" rx="15.999986"/>
        </clipPath>
        <clipPath id="clipPath4544-1">
            <rect x="392.57144" y="507.798" width="31.999989" height="31.999971" rx="15.999986"/>
        </clipPath>
        <linearGradient id="linearGradient4314" x2="0" y1="543.79797" y2="503.798" gradientTransform="matrix(.12857147 0 0 .12857152 343.04079 -594.14351)" gradientUnits="userSpaceOnUse">
            <stop stop-color="#2a2c2f" offset="0"/>
            <stop stop-color="#424649" offset="1"/>
        </linearGradient>
        <linearGradient id="linearGradient4917" x2="0" y1="524.79797" y2="522.79797" gradientTransform="matrix(1.0000033,0,0,1.0000033,-13.001377,2.9982667)" gradientUnits="userSpaceOnUse">
            <stop stop-color="#989a9b" offset="0"/>
            <stop stop-color="#f6f6f7" offset="1"/>
        </linearGradient>
        <linearGradient id="linearGradient4499" x1="393.57144" x2="407.57147" y1="524.79797" y2="538.79797" gradientTransform="matrix(.64285714 0 0 .64285714 138.06123 184.92785)" gradientUnits="userSpaceOnUse">
            <stop stop-color="#292c2f" offset="0"/>
            <stop stop-opacity="0" offset="1"/>
        </linearGradient>
        <linearGradient id="linearGradient923" x1="8" x2="24.00001" y1="24" y2="8" gradientTransform="rotate(180,216.28571,273.899)" gradientUnits="userSpaceOnUse" xlink:href="#linearGradient4316"/>
    </defs>
    <g transform="translate(-384.57143,-515.798)">
        <rect x="386.57144" y="517.79797" width="18" height="18" rx="8.9999962" fill="url(#linearGradient4149)" stroke-width=".642857"/>
        <g transform="matrix(.42651708 .11428488 -.11428491 .42651696 281.17094 256.69573)" stroke-opacity=".550265" stroke-width="2.8">
            <path transform="translate(384.57143,499.798)" d="m24 8c-8.863992 0-16 7.136008-16 16h16z" clip-path="url(#clipPath4534)" fill="url(#linearGradient4274)"/>
            <path d="m408.57143 539.798c-8.86399 0-16-7.13601-16-16h16z" clip-path="url(#clipPath4584)" fill="url(#linearGradient4278)"/>
            <path d="m408.57143 507.798c8.86399 0 16 7.13601 16 16h-16z" clip-path="url(#clipPath4550)" fill="url(#linearGradient4284)"/>
            <path d="m408.57143 539.798c8.86399 0 16-7.13601 16-16h-16z" clip-path="url(#clipPath4568)" fill="url(#linearGradient923)"/>
        </g>
        <g transform="matrix(.44156297 0 0 .44156284 215.16141 295.50826)" opacity=".7" stroke-opacity=".550265" stroke-width="2.8">
            <path transform="translate(384.57143,499.798)" d="m24 8c-8.863992 0-16 7.136008-16 16h16z" clip-path="url(#clipPath4528)" fill="url(#linearGradient4274)" filter="url(#filter4390)" opacity="1"/>
            <path d="m408.57143 539.798c-8.86399 0-16-7.13601-16-16h16z" clip-path="url(#clipPath4578)" fill="url(#linearGradient4278)" filter="url(#filter4390)" opacity="1"/>
            <path d="m408.57143 539.798c8.86399 0 16-7.13601 16-16h-16z" clip-path="url(#clipPath4562)" fill="url(#linearGradient923)" filter="url(#filter4390)" opacity="1"/>
            <path d="m408.57143 507.798c8.86399 0 16 7.13601 16 16h-16z" clip-path="url(#clipPath4544)" fill="url(#linearGradient4284)" filter="url(#filter4390)" opacity="1"/>
        </g>
        <g stroke-opacity=".550265" stroke-width="2.8">
            <path transform="matrix(.31223216 .31223208 -.31223216 .31223208 395.57143 511.81086)" d="m24 8c-8.863992 0-16 7.136008-16 16h16z" clip-path="url(#clipPath4528)" fill="url(#linearGradient4274)" opacity=".35"/>
            <path transform="matrix(.31223216 .31223208 -.31223216 .31223208 431.54888 235.68235)" d="m408.57143 539.798c-8.86399 0-16-7.13601-16-16h16z" clip-path="url(#clipPath4578)" fill="url(#linearGradient4278)" opacity=".35"/>
            <path transform="matrix(.31223216 .31223208 -.31223216 .31223208 431.54888 235.68235)" d="m408.57143 539.798c8.86399 0 16-7.13601 16-16h-16z" clip-path="url(#clipPath4562)" fill="url(#linearGradient923)" opacity=".35"/>
            <path transform="matrix(.31223216 .31223208 -.31223216 .31223208 431.54888 235.68235)" d="m408.57143 507.798c8.86399 0 16 7.13601 16 16h-16z" clip-path="url(#clipPath4544)" fill="url(#linearGradient4284)" opacity=".35"/>
        </g>
        <g transform="matrix(.11428491 .42651696 -.42651708 .11428488 572.28667 292.67317)" stroke-opacity=".550265" stroke-width="2.8">
            <path transform="translate(384.57142,499.79801)" d="m24 8c-8.863992 0-16 7.136008-16 16h16z" clip-path="url(#clipPath4528-1)" fill="url(#linearGradient4274)" opacity=".3"/>
            <path transform="translate(-6e-6)" d="m408.57143 539.798c-8.86399 0-16-7.13601-16-16h16z" clip-path="url(#clipPath4578-8)" fill="url(#linearGradient4278)" opacity=".3"/>
            <path transform="translate(-6e-6)" d="m408.57143 539.798c8.86399 0 16-7.13601 16-16h-16z" clip-path="url(#clipPath4562-8)" fill="url(#linearGradient4286)" opacity=".3"/>
            <path transform="translate(-6e-6)" d="m408.57143 507.798c8.86399 0 16 7.13601 16 16h-16z" clip-path="url(#clipPath4544-1)" fill="url(#linearGradient4284)" opacity=".3"/>
        </g>
        <path d="m397.30665 524.86942-3.43904 3.85714 5.99163 5.99163c1.544-0.83455 2.8118-2.10729 3.64244-3.65374z" fill="url(#linearGradient4499)" fill-rule="evenodd" opacity=".2" stroke-width=".642857"/>
        <rect transform="scale(1,-1)" x="393" y="-529.36938" width="5.1428571" height="5.1428571" rx="2.5714285" fill="url(#linearGradient4314)" stroke-opacity=".550265" stroke-width="1.8"/>
        <path d="m394.57142 527.79802 1.00001-2.00002 0.99999 2.00002z" fill="url(#linearGradient4917)" fill-rule="evenodd"/>
    </g>
</svg>
