<svg height="22" width="22" xmlns="http://www.w3.org/2000/svg" xmlns:xlink="http://www.w3.org/1999/xlink"><linearGradient id="a" gradientTransform="matrix(.64285808 0 0 .64285808 -246.51057 -330.87061)" gradientUnits="userSpaceOnUse" x2="0" y1="545.79797" y2="517.79797"><stop offset="0" stop-color="#197cf1"/><stop offset="1" stop-color="#20bcfa"/></linearGradient><linearGradient id="b" gradientUnits="userSpaceOnUse" x1="11" x2="11" y1="22" y2="6"><stop offset="0" stop-color="#7cbaf8"/><stop offset="1" stop-color="#f4fcff"/></linearGradient><linearGradient id="c" gradientUnits="userSpaceOnUse" x1="6" x2="20" y1="6" y2="20"><stop offset="0"/><stop offset="1" stop-opacity="0"/></linearGradient><rect fill="url(#a)" height="18.000046" rx="9.000019" stroke-width=".642858" width="18.000032" x="2" y="2"/><path d="m12 6a1 1 0 0 0 -1 1 1 1 0 0 0 1 1 1 1 0 0 0 1-1 1 1 0 0 0 -1-1zm-2 2a4 4 0 0 0 -4 4 4 4 0 0 0 4 4 4 4 0 0 0 3.082031-1.458984l-.923828-.462891a3 3 0 0 1 -2.158203.921875 3 3 0 0 1 -3-3 3 3 0 0 1 2.7441406-2.9804688zm1.119141.5-1.2792972 4.5h4.3203122l.878906 2.189453.921876-.378906-1.121094-2.810547h-3.179688l.669922-2.3300781 1.980469.7910161.378906-.9218755-2.589844-1.0390625z" fill="url(#b)"/><path d="m12 6c-.2652 0-.519531.1054388-.707031.2929688-.1875.18754-.292969.4418112-.292969.7070312s.105469.5194913.292969.7070312l.07813.078125.628901.7148438-1.017578.4824219-.982422-.9824219c-1.06087 0-2.077975.421735-2.828125 1.171875-.75014.75015-1.171875 1.767225-1.171875 2.828125s.421735 2.078025 1.171875 2.828125l5.080078 5.082031a9 9 0 0 0 7.439453-6.634765l-6.984375-6.9824222c-.1875-.18753-.441831-.2929688-.707031-.2929688z" fill="url(#c)" opacity=".2"/><path d="m12 6c-.2652 0-.519531.1054388-.707031.2929688-.1875.18754-.292969.4418112-.292969.7070312v1c0 .26522.105469.5194913.292969.7070312.1875.1875302.441831.2929688.707031.2929688.02676 0 .05359-.00178.08008-.00391l.01953.50391 2.236329.898438-.02539.0625-1.980471-.7910161-.669922 2.3300781v1h-1.535156l.994141-3.5v-1l-1.2792972 4.5v1h4.3203122l.878906 2.189453.921876-.378906v-1l-1.121094-2.810547h-2.892578l.382812-1.330078 1.980469.791016.378906-.921876v-.9999995l-2.007812-.8066406c.0087-.00813.01693-.016926.02539-.025391.1875-.1875394.292969-.4418109.292969-.7070309v-1c0-.26522-.105469-.5194913-.292969-.7070312-.1875-.18753-.441831-.2929688-.707031-.2929688zm0 1 .03906.9980469c-.013199.0005243-.025795.0019531-.03906.0019531-.2652 0-.519531-.1054388-.707031-.2929688-.062291-.0623039-.114889-.132031-.158203-.2070312.04331-.075.09591-.1447274.158203-.2070312.1875-.18753.441831-.2929688.707031-.2929688zm.03906.00195c.250776.00996.489848.1128658.667969.2910157.06229.062304.114889.132031.158203.2070312-.04331.075-.09591.1447274-.158203.2070312-.168577.1686048-.39099.2701552-.626953.2890626zm-2.03906.99805c-1.06087 0-2.077975.421735-2.828125 1.171875-.75014.75015-1.171875 1.767225-1.171875 2.828125v1c0 1.0609.421735 2.078025 1.171875 2.828125.75015.7502 1.767255 1.171875 2.828125 1.171875 1.1936-.0021 2.323831-.537184 3.082031-1.458984v-1l-.923828-.462891c-.5644.5876-1.343503.920375-2.158203.921875-.79565 0-1.5584838-.316306-2.1210938-.878906-.4419291-.441922-.7319406-1.007316-.8359374-1.615235.2244239-1.326315 1.3201338-2.368085 2.7011718-2.486328l.2558594-1.019531zm-.2539062 1.0097656-.00195.00977c-1.5487232.1325556-2.7396838 1.4260644-2.7441438 2.9804644v1c0 .7956.3162964 1.558494.8789062 2.121094.5098654.509856 1.1842545.817936 1.8984376.871094-.9799187-.054452-1.9078371-.466385-2.6054688-1.164063-.6315166-.631483-1.0303684-1.451284-1.140625-2.328125.1102566-.876841.5091084-1.696642 1.140625-2.328125.6901367-.6901551 1.6059767-1.1005822 2.5742188-1.1621094zm4.4140622 3.9902344h.679688l.779297 1.951172-.580079.238281zm-2.001953 2.078125.238281.119141c-.644395.484438-1.426332.766171-2.24414.798828.758953-.03995 1.476734-.367094 2.005859-.917969z" opacity=".15"/><path d="m12 6a1 1 0 0 0 -1 1 1 1 0 0 0 1 1 1 1 0 0 0 1-1 1 1 0 0 0 -1-1zm-2 2a4 4 0 0 0 -4 4 4 4 0 0 0 4 4 4 4 0 0 0 3.082031-1.458984l-.923828-.462891a3 3 0 0 1 -2.158203.921875 3 3 0 0 1 -3-3 3 3 0 0 1 2.7441406-2.9804688zm1.119141.5-1.2792972 4.5h4.3203122l.878906 2.189453.921876-.378906-1.121094-2.810547h-3.179688l.669922-2.3300781 1.980469.7910161.378906-.9218755-2.589844-1.0390625z" fill="url(#b)"/></svg>