<svg height="22" width="22" xmlns="http://www.w3.org/2000/svg" xmlns:xlink="http://www.w3.org/1999/xlink"><linearGradient id="a"><stop offset="0"/><stop offset="1" stop-opacity="0"/></linearGradient><linearGradient id="b"><stop offset="0" stop-color="#18222a"/><stop offset="1" stop-color="#566069"/></linearGradient><linearGradient id="c"><stop offset="0" stop-color="#2f3943"/><stop offset="1" stop-color="#4d5662"/></linearGradient><linearGradient id="d" gradientTransform="matrix(.37499785 0 0 .37499998 -142.21407 -182.42439)" gradientUnits="userSpaceOnUse" x1="432.57199" x2="432.57199" y1="531.79797" y2="507.798"><stop offset="0" stop-color="#c6cdd1"/><stop offset="1" stop-color="#e0e5e7"/></linearGradient><linearGradient id="e" gradientTransform="matrix(.388892 0 0 .71428751 -147.8888 -358.71251)" gradientUnits="userSpaceOnUse" x1="426.57101" x2="426.57101" xlink:href="#b" y1="514.79797" y2="511.298"/><linearGradient id="f" gradientTransform="matrix(.375 0 0 .58333335 -142.214 -294.21512)" gradientUnits="userSpaceOnUse" x1="403.23801" x2="403.23801" y1="519.79797" y2="507.798"><stop offset="0" stop-color="#eef1f2"/><stop offset="1" stop-color="#f9fafb"/></linearGradient><linearGradient id="g" gradientTransform="matrix(.38888818 0 0 .28571508 -147.88855 -135.51404)" gradientUnits="userSpaceOnUse" x1="426.57101" x2="426.57101" xlink:href="#b" y1="533.79797" y2="539.04797"/><linearGradient id="h" gradientTransform="matrix(.40178334 0 0 .25000007 -153.15778 -116.44904)" gradientUnits="userSpaceOnUse" x1="396.12701" x2="421.01599" y1="539.79797" y2="539.79797"><stop offset="0" stop-color="#e74c3c"/><stop offset=".25" stop-color="#f39c1f"/><stop offset=".5" stop-color="#11d116"/><stop offset=".75" stop-color="#3498db"/><stop offset="1" stop-color="#9b59b6"/></linearGradient><linearGradient id="i" gradientTransform="matrix(.35713295 0 0 .32141709 -135.55623 -154.78662)" gradientUnits="userSpaceOnUse" x1="393.56836" x2="401.9686" xlink:href="#a" y1="534.46637" y2="543.80005"/><linearGradient id="j" gradientTransform="matrix(.59999998 0 0 .88888887 -224.54259 -462.82043)" gradientUnits="userSpaceOnUse" x1="402.57098" x2="382.57101" xlink:href="#c" y1="537.54797" y2="530.79797"/><linearGradient id="k" gradientTransform="matrix(0 -.66666668 .49999999 0 -262.399 250.38067)" gradientUnits="userSpaceOnUse" x1="352.57101" x2="361.57101" xlink:href="#c" y1="528.79797" y2="528.79797"/><linearGradient id="l" gradientUnits="userSpaceOnUse" x1="3.999997" x2="10.000005" xlink:href="#a" y1="9.000018" y2="14.999988"/><g stroke-linejoin="round"><path d="m2 8h18v9h-18z" fill="url(#d)" stroke-width=".621059"/><path d="m2 17h17.999351v1.070848h-17.999351z" fill="#737b81" stroke-width=".829685"/><path d="m4 4h14v5h-14z" fill="url(#e)" stroke-width=".661437"/><path d="m4 17h14v2h-14z" fill="url(#g)" stroke-width=".564076"/></g><path d="m3 15h16v1h-16z" fill="#99a1a7" stroke-width=".816497"/><path d="m5 9v4h12v-4z" fill="url(#j)" stroke-width=".730298"/><path d="m2 8v8h1v-8zm17 0v8h1v-8z" fill="url(#k)" stroke-width=".57735"/><path d="m4 9 6 6h9v-5l-1-1z" fill="url(#l)" fill-rule="evenodd" opacity=".2" stroke-width=".642834"/><path d="m5 2v7h12v-7zm0 15v3h12v-3z" fill="url(#f)" stroke-linejoin="round" stroke-width=".720082"/><path d="m6 17h10v2h-10z" fill="url(#h)" stroke-linejoin="round" stroke-width=".527046"/><path d="m5 17 3 3h9v-3z" fill="url(#i)" opacity=".2" stroke-width=".642834"/></svg>