<svg height="22" width="22" xmlns="http://www.w3.org/2000/svg" xmlns:xlink="http://www.w3.org/1999/xlink"><linearGradient id="a" gradientTransform="matrix(.64285673 0 0 .64285673 -246.51005 -330.8699)" gradientUnits="userSpaceOnUse" x2="0" y1="545.79797" y2="517.79797"><stop offset="0" stop-color="#197cf1"/><stop offset="1" stop-color="#20bcfa"/></linearGradient><linearGradient id="b" gradientUnits="userSpaceOnUse" x1="11" x2="11" y1="19" y2="1"><stop offset="0" stop-color="#7cbaf8"/><stop offset="1" stop-color="#f4fcff"/></linearGradient><linearGradient id="c" gradientUnits="userSpaceOnUse" x1="19.999999" x2="6.000001" y1="19" y2="5"><stop offset="0" stop-color="#292c2f"/><stop offset="1" stop-opacity="0"/></linearGradient><path d="m9.0000003 14c-.84582.0015-1.598919.40191-1.880859 1h3.7656247c-.28242-.5991-1.0375157-.99973-1.8847657-1z" fill="#292c2f"/><rect fill="url(#a)" height="18.000008" rx="9" stroke-width=".642857" width="17.999994" x="2.000006" y="1.999992"/><path d="m9 7c-1.1046 0-2 .89543-2 2 0 .530433.2108375 1.038992.5859375 1.414062l1.5976563 1.591797-.1835938-.005859c-1.6568 0-3 1.11929-3 2.5.002.16816.0253594.33567.0683594.5l4.9960936 4.996094a9 9 0 0 0 8.626953-6.71875l-4.984375-4.9843752-1.414062 1.4140624 1.292969 1.2929688h-.757813l-3.414063-3.4140625z" fill="url(#c)" opacity=".2"/><path d="m9 7c-1.1045693 0-1.9999998.8954307-2 2 0 1.104569.8954305 2 2 2 1.10457 0 2-.895431 2-2 0-1.1045692-.89543-1.9999998-2-2zm0 1c.5522845.0000002.9999998.4477155 1 1 0 .552285-.4477154 1-1 1-.5522847 0-1-.447715-1-1 .0000002-.5522846.4477154-1 1-1zm5 0a1 1 0 0 0 -1 1 1 1 0 0 0 1 1 1 1 0 0 0 1-1 1 1 0 0 0 -1-1zm-1 3v4h2v-4zm-4 1c-1.65685 0-3 1.11929-3 2.5.002.16816.0253594.33567.0683594.5h5.8632816c.0429-.16433.065759-.33184.068359-.5 0-1.38071-1.34315-2.5-3-2.5zm0 1c.84725.00027 1.602346.4009 1.884766 1h-3.7656254c.28194-.59809 1.0350394-.99849 1.8808594-1z" fill="url(#b)"/></svg>