<svg height="22" width="22" xmlns="http://www.w3.org/2000/svg" xmlns:xlink="http://www.w3.org/1999/xlink"><linearGradient id="a" gradientTransform="matrix(.64285673 0 0 .64285673 -246.51005 -330.8699)" gradientUnits="userSpaceOnUse" x2="0" y1="545.79797" y2="517.79797"><stop offset="0" stop-color="#197cf1"/><stop offset="1" stop-color="#20bcfa"/></linearGradient><linearGradient id="b" gradientUnits="userSpaceOnUse" x1="11" x2="11" y1="20" y2="2"><stop offset="0" stop-color="#7cbaf8"/><stop offset="1" stop-color="#f4fcff"/></linearGradient><linearGradient id="c" gradientUnits="userSpaceOnUse" x1="19.999999" x2="6.000001" y1="20" y2="6"><stop offset="0" stop-color="#292c2f"/><stop offset="1" stop-opacity="0"/></linearGradient><path d="m9.0000003 14c-.84582.0015-1.598919.40191-1.880859 1h3.7656247c-.28242-.5991-1.0375157-.99973-1.8847657-1z" fill="#292c2f"/><rect fill="url(#a)" height="18.000008" rx="9" stroke-width=".642857" width="17.999994" x="2.000006" y="1.999992"/><path d="m13 6c-.5304 0-1.038964.2108575-1.414062.5859375-.066141.06614-.125975.1371015-.181641.2109375l.595703 2.203125 1 1-2.585938-1.4140625-1.414062-.5859375c-1.1046 0-2 .89543-2 2 0 .530433.2108375 1.038992.5859375 1.414062l1.5976563 1.591797-.1835938-.005859c-1.6568 0-3 1.11929-3 2.5.002.16816.0253594.33567.0683594.5l3.9277344 3.927734a9 9 0 0 0 1.0039062.072266 9 9 0 0 0 1.28125-.091797 9 9 0 0 0 1.253906-.273437 9 9 0 0 0 1.203125-.447266 9 9 0 0 0 1.126953-.617188 9 9 0 0 0 1.029297-.769531 9 9 0 0 0 .90625-.90625 9 9 0 0 0 .769531-1.029297 9 9 0 0 0 .617188-1.126953 9 9 0 0 0 .447266-1.203125 9 9 0 0 0 .273437-1.253906 9 9 0 0 0 .013672-.1875l-5.507813-5.5078125c-.375097-.37508-.883662-.5859375-1.414062-.5859375z" fill="url(#c)" opacity=".2"/><path d="m13 6.0000004a2 2 0 0 0 -2 2 2 2 0 0 0 2 1.9999996 2 2 0 0 0 2-1.9999996 2 2 0 0 0 -2-2zm0 1a1 1 0 0 1 1 1 1 1 0 0 1 -1 1 1 1 0 0 1 -1-1 1 1 0 0 1 1-1zm-3.9999997 1a2 2 0 0 0 -2 1.9999996 2 2 0 0 0 2 2 2 2 0 0 0 1.9999997-2 2 2 0 0 0 -1.9999997-1.9999996zm0 1a1 1 0 0 1 .9999997.9999996 1 1 0 0 1 -.9999997 1 1 1 0 0 1 -1-1 1 1 0 0 1 1-.9999996zm3.9999997 1.9999996c-.73233 0-1.40297.21877-1.92383.58203a4 4 0 0 1 .82617.66797c.31863-.15804.69741-.24929 1.09766-.25.84725.00027 1.60235.4009 1.88477 1h-2.42188a4 4 0 0 1 .41016 1h3.05859c.0429-.16433.0658-.33184.0684-.5 0-1.38071-1.34315-2.5-3-2.5zm-3.9999997 2c-1.65685 0-3 1.11929-3 2.5.002.16816.0254.33567.0684.5h5.8632797c.0429-.16433.0658-.33184.0684-.5 0-1.38071-1.34315-2.5-2.9999997-2.5zm0 1c.84725.00027 1.6023497.4009 1.8847697 1h-3.7656297c.28194-.59809 1.03504-.99849 1.88086-1z" fill="url(#b)"/></svg>