<svg height="22" viewBox="0 0 22 22" width="22" xmlns="http://www.w3.org/2000/svg" xmlns:xlink="http://www.w3.org/1999/xlink"><linearGradient id="a"><stop offset="0" stop-color="#c6cdd1"/><stop offset="1" stop-color="#e0e5e7"/></linearGradient><linearGradient id="b"><stop offset="0"/><stop offset="1" stop-opacity="0"/></linearGradient><linearGradient id="c" gradientTransform="matrix(.41666692 0 0 .40833269 -159.23827 -203.25094)" gradientUnits="userSpaceOnUse" x2="0" xlink:href="#a" y1="543.79797" y2="502.65509"/><linearGradient id="d" gradientUnits="userSpaceOnUse" x1="5.375003" x2="14.75002" xlink:href="#b" y1="7.000012" y2="16.375009"/><linearGradient id="e" gradientTransform="matrix(.27083358 0 0 .29490694 -96.15491 -146.23679)" gradientUnits="userSpaceOnUse" x2="0" xlink:href="#a" y1="543.79797" y2="502.65509"/><linearGradient id="f" gradientUnits="userSpaceOnUse" x1="393.57144" x2="404.57144" xlink:href="#b" y1="522.79797" y2="533.79797"/><g transform="translate(-384.57143 -515.798)"><g transform="translate(384.57143 515.798)"><path d="m1.000006 2h19.999994v18h-19.999994z" fill="url(#c)" stroke-width=".633866"/><path d="m2 18 18-11 1 1v12h-17z" fill="url(#d)" fill-rule="evenodd" opacity=".2" stroke-width=".625"/><path d="m1 2h20.000002v3h-20.000002z" fill="#566069" stroke-width=".684653"/><path d="m1.000027 5h19.999973v1h-19.999973z" fill="#3daee9" stroke-width=".790569"/><path d="m2 7h18v10.999999h-18z" fill="#fff" stroke-width=".574456"/><rect fill="#eff0f1" height="1.5" rx=".75" stroke-width=".75" width="1.5" x="18.75" y="2.75"/></g><g transform="translate(381.57143 520.798)"><path d="m8 2h13v13h-13z" fill="url(#e)" stroke-width=".4343"/><path d="m9 13 11-6 1 1v7h-10z" fill="url(#d)" fill-rule="evenodd" opacity=".2" stroke-width=".625"/><path d="m8 2h13.000002v3h-13.000002z" fill="#566069" stroke-width=".551985"/><path d="m8 5h13v1h-13z" fill="#3daee9" stroke-width=".637378"/><path d="m9 7h11v6h-11z" fill="#fff" stroke-width=".331662"/><rect fill="#eff0f1" height="1.5" rx=".75" stroke-width=".75" width="1.5" x="18.75" y="2.75"/></g><path d="m402.57143 522.798 3 3v10h-3z" fill="none"/><path d="m402.57143 522.798 2 2v9h-2z" fill="none"/><path d="m402.57143 522.798 3 3v10h-3z" fill="url(#f)" opacity=".2"/></g></svg>