<svg height="22" width="22" xmlns="http://www.w3.org/2000/svg" xmlns:xlink="http://www.w3.org/1999/xlink"><linearGradient id="a" gradientTransform="matrix(.36685 0 0 .34615286 -142.9925 -173.08407)" gradientUnits="userSpaceOnUse" x1="388.423" x2="388.423" y1="557.79797" y2="505.798"><stop offset="0" stop-color="#7f8c8d"/><stop offset="1" stop-color="#afb0b3"/></linearGradient><linearGradient id="b" gradientTransform="matrix(.33540428 0 0 .34615286 -21.018857 -.076429)" gradientUnits="userSpaceOnUse" x1="3" x2="3" y1="17" y2="3"><stop offset="0" stop-color="#eef1f2"/><stop offset="1" stop-color="#f9fafb"/></linearGradient><linearGradient id="c" gradientUnits="userSpaceOnUse" x1="6" x2="18" y1="6" y2="18"><stop offset="0" stop-color="#292c2f"/><stop offset="1" stop-opacity="0"/></linearGradient><g transform="translate(1)"><path d="m2 2h15v18h-15z" fill="url(#a)" stroke-width=".633866"/><path d="m4 18h11v2h-11z" fill="#292c2e" stroke-width=".654654"/><path d="m5 19h6v1h-6zm7 0h2v1h-2z" fill="#f6b44d" stroke-width=".811273"/><path d="m15 18h2v2h-2zm-13 0h2v2h-2z" fill="#292c2f" opacity=".2" stroke-width=".654654"/><path d="m2 18 2 2v-2zm13 0v1.999996l2 .000004v-2z" opacity=".2" stroke-width=".642857"/><path d="m6 3a3 3 0 0 0 -3 3v3 .2695312a2 2 0 0 1 1 1.7304688 2 2 0 0 1 -1 1.732422v.267578 2l2 2h9l2-2v-2-.267578a2 2 0 0 1 -1-1.732422 2 2 0 0 1 1-1.7324219v-.2675781-3a3 3 0 0 0 -3-3z" fill="url(#b)"/></g><path d="m14.123047 7.8320312-7.2363282.0058594 1.2480468 2.1621094-.8167656 3.682 4.318 4.318h6.364v-6.291016z" fill="url(#c)" opacity=".2"/><g stroke-width="2"><path d="m6.3808594 8.7011719a4.5 4.5 0 0 0 -.3808594 1.7988281 4.5 4.5 0 0 0 4 4.464844v-4.175782z" fill="#224857"/><path d="m14.623047 8.6992188-3.623047 2.0898432v4.175782a4.5 4.5 0 0 0 4-4.464844 4.5 4.5 0 0 0 -.376953-1.8007812z" fill="#3bbbae"/><path d="m10.5 6a4.5 4.5 0 0 0 -3.6132812 1.8378906l3.6132812 2.0839844 3.623047-2.0898438a4.5 4.5 0 0 0 -3.623047-1.8320312z" fill="#7fc038"/></g></svg>