<svg xmlns="http://www.w3.org/2000/svg" viewBox="0 0 48 48">
  <defs id="defs3051">
    <style type="text/css" id="current-color-scheme">
      .ColorScheme-Text {
        color:#31363b;
      }
      .ColorScheme-Highlight {
        color:#3daee9;
      }
      </style>
  </defs>
  <path
     style="fill:currentColor;fill-opacity:1;stroke:none" 
     d="M 5,6 V 16 H 4 V 42 H 44 V 13 H 43 V 9 H 24 L 21,6 Z"
     class="ColorScheme-Highlight"
     />
  <path
     style="fill-opacity:0.33;fill-rule:evenodd"
     d="m 5,6 v 10 h 12 l 3,-3 H 43 V 9 H 24 L 21,6 Z"
     />
  <path
     style="fill:#ffffff;fill-opacity:0.2;fill-rule:evenodd"
     d="M 21 6 L 23 10 L 43 10 L 43 9 L 24 9 L 21 6 z M 20 13 L 17 16 L 4 16 L 4 17 L 18 17 L 20 13 z "
     />
  <path
     style="fill-opacity:0.2;fill-rule:evenodd"
     d="M 20 13 L 16 15 L 5 15 L 5 16 L 17 16 L 20 13 z M 4 41 L 4 42 C 4 42 44 42 44 42 L 44 41 L 4 41 z "
     class="ColorScheme-Text"
     />
 <path 
     style="fill:currentColor;fill-opacity:0.6;stroke:none" 
     d="M 23.5 23 A 4.5 4.5 0 0 0 19 27.5 A 4.5 4.5 0 0 0 19 28.1 A 3 3 0 0 0 17 31 A 3 3 0 0 0 20 34 L 27.5 34 A 3.5 3.5 0 0 0 31 30.5 A 3.5 3.5 0 0 0 28 27 A 4.5 4.5 0 0 0 23.5 23 z M 23.5 24 A 3.5 3.5 0 0 1 27 27.5 A 3.5 3.5 0 0 1 27 28 A 2.5 2.5 0 0 1 27.5 28 A 2.5 2.5 0 0 1 30 30.5 A 2.5 2.5 0 0 1 27.5 33 L 20 33 A 2 2 0 0 1 18 31 A 2 2 0 0 1 20 29 A 2 2 0 0 1 20.36 29 A 3.5 3.5 0 0 1 20 27.5 A 3.5 3.5 0 0 1 23.5 24 z "
     class="ColorScheme-Text"
     />
</svg>
