<svg xmlns="http://www.w3.org/2000/svg" viewBox="0 0 48 48">
  <defs id="defs3051">
    <style type="text/css" id="current-color-scheme">
      .ColorScheme-Text {
        color:#31363b;
      }
      .ColorScheme-Highlight {
        color:#3daee9;
      }
      </style>
  </defs>
  <path
     style="fill:currentColor;fill-opacity:1;stroke:none" 
     d="M 5,6 V 16 H 4 V 42 H 44 V 13 H 43 V 9 H 24 L 21,6 Z"
     class="ColorScheme-Highlight"
     />
  <path
     style="fill-opacity:0.33;fill-rule:evenodd"
     d="m 5,6 v 10 h 12 l 3,-3 H 43 V 9 H 24 L 21,6 Z"
     />
  <path
     style="fill:#ffffff;fill-opacity:0.2;fill-rule:evenodd"
     d="M 21 6 L 23 10 L 43 10 L 43 9 L 24 9 L 21 6 z M 20 13 L 17 16 L 4 16 L 4 17 L 18 17 L 20 13 z "
     />
  <path
     style="fill-opacity:0.2;fill-rule:evenodd"
     d="M 20 13 L 16 15 L 5 15 L 5 16 L 17 16 L 20 13 z M 4 41 L 4 42 C 4 42 44 42 44 42 L 44 41 L 4 41 z "
     class="ColorScheme-Text"
     />
 <path 
     style="fill:currentColor;fill-opacity:0.6;stroke:none" 
     d="M 18 22 L 18 34 L 30 34 L 30 22 L 18 22 z M 19 23 L 23 23 L 23 24 L 24 24 L 24 23 L 29 23 L 29 33 L 19 33 L 19 23 z M 24 24 L 24 25 L 25 25 L 25 24 L 24 24 z M 24 25 L 23 25 L 23 26 L 24 26 L 24 25 z M 24 26 L 24 27 L 25 27 L 25 26 L 24 26 z M 24 27 L 23 27 L 23 28 L 24 28 L 24 27 z M 24 28 L 24 29 L 23 29 L 23 30 L 25 30 L 25 28 L 24 28 z "
     class="ColorScheme-Text"
     />
</svg>
