<svg xmlns="http://www.w3.org/2000/svg" viewBox="0 0 48 48">
  <defs id="defs3051">
    <style type="text/css" id="current-color-scheme">
      .ColorScheme-Text {
        color:#31363b;
      }
      .ColorScheme-Highlight {
        color:#3daee9;
      }
      </style>
  </defs>
  <path
     style="fill:currentColor" 
     d="M 5,6 V 16 H 4 V 42 H 44 V 13 H 43 V 9 H 24 L 21,6 Z"
     class="ColorScheme-Highlight"
     />
  <path
     style="fill-opacity:0.33"
     d="m 5,6 v 10 h 12 l 3,-3 H 43 V 9 H 24 L 21,6 Z"
     />
  <path
     style="fill:#ffffff;fill-opacity:0.2"
     d="M 21 6 L 23 10 L 43 10 L 43 9 L 24 9 L 21 6 z M 20 13 L 17 16 L 4 16 L 4 17 L 18 17 L 20 13 z "
     />
  <path
     style="fill-opacity:0.2;fill-rule:evenodd"
     d="M 20 13 L 16 15 L 5 15 L 5 16 L 17 16 L 20 13 z M 4 41 L 4 42 C 4 42 44 42 44 42 L 44 41 L 4 41 z "
     class="ColorScheme-Text"
     />
 <path 
     style="fill:currentColor;fill-opacity:0.6;stroke:none"  
     d="M 27.5 22.5 C 26.7 22.5 26 23.2 26 24 C 26 24.8 26.7 25.5 27.5 25.5 C 28.3 25.5 29 24.8 29 24 C 29 23.2 28.3 22.5 27.5 22.5 z M 24.5 25 C 24.2 25 24 25.2 24 25.5 C 24 25.8 24.2 26 24.5 26 C 24.8 26 25 25.8 25 25.5 C 25 25.2 24.8 25 24.5 25 z M 22.5 26 C 22.2 26 22 26.2 22 26.5 C 22 26.8 22.2 27 22.5 27 C 22.8 27 23 26.8 23 26.5 C 23 26.2 22.8 26 22.5 26 z M 19.5 27 C 18.7 27 18 27.7 18 28.5 C 18 29.3 18.7 30 19.5 30 C 20.3 30 21 29.3 21 28.5 C 21 27.7 20.3 27 19.5 27 z M 22.5 30 C 22.2 30 22 30.2 22 30.5 C 22 30.8 22.2 31 22.5 31 C 22.8 31 23 30.8 23 30.5 C 23 30.2 22.8 30 22.5 30 z M 24.5 31 C 24.2 31 24 31.2 24 31.5 C 24 31.8 24.2 32 24.5 32 C 24.8 32 25 31.8 25 31.5 C 25 31.2 24.8 31 24.5 31 z M 27.5 31.5 C 26.7 31.5 26 32.2 26 33 C 26 33.8 26.7 34.5 27.5 34.5 C 28.3 34.5 29 33.8 29 33 C 29 32.2 28.3 31.5 27.5 31.5 z "
     class="ColorScheme-Text"
     />
</svg>
