<svg xmlns="http://www.w3.org/2000/svg" viewBox="0 0 48 48">
  <defs id="defs3051">
    <style type="text/css" id="current-color-scheme">
      .ColorScheme-Text {
        color:#31363b;
      }
      .ColorScheme-Highlight {
        color:#3daee9;
      }
      </style>
  </defs>
  <path
     style="fill:currentColor;fill-opacity:1;stroke:none" 
     d="M 5,6 V 16 H 4 V 42 H 44 V 13 H 43 V 9 H 24 L 21,6 Z"
     class="ColorScheme-Highlight"
     />
  <path
     style="fill-opacity:0.33;fill-rule:evenodd"
     d="m 5,6 v 10 h 12 l 3,-3 H 43 V 9 H 24 L 21,6 Z"
     />
  <path
     style="fill:#ffffff;fill-opacity:0.2;fill-rule:evenodd"
     d="M 21 6 L 23 10 L 43 10 L 43 9 L 24 9 L 21 6 z M 20 13 L 17 16 L 4 16 L 4 17 L 18 17 L 20 13 z "
     />
  <path
     style="fill-opacity:0.2;fill-rule:evenodd"
     d="M 20 13 L 16 15 L 5 15 L 5 16 L 17 16 L 20 13 z M 4 41 L 4 42 C 4 42 44 42 44 42 L 44 41 L 4 41 z "
     class="ColorScheme-Text"
     />
 <path 
     style="fill:currentColor;fill-opacity:0.6;stroke:none" 
     d="M 19 22 L 19 26 L 18 26 L 18 32 L 21 32 L 21 34 L 27 34 L 27 32 L 30 32 L 30 26 L 29 26 L 29 22 L 19 22 z M 20 23 L 21 23 L 21 24 L 27 24 L 27 23 L 28 23 L 28 26 L 27 26 L 27 25 L 21 25 L 21 26 L 20 26 L 20 23 z M 19 27 L 29 27 L 29 31 L 28 31 L 28 30 L 20 30 L 20 31 L 19 31 L 19 27 z M 26 28 L 26 29 L 28 29 L 28 28 L 26 28 z M 22 32 L 26 32 L 26 33 L 22 33 L 22 32 z "
     class="ColorScheme-Text"
     />
</svg>
