<svg xmlns="http://www.w3.org/2000/svg" viewBox="0 0 48 48">
  <defs id="defs3051">
    <style type="text/css" id="current-color-scheme">
      .ColorScheme-Text {
        color:#31363b;
      }
      .ColorScheme-Highlight {
        color:#3daee9;
      }
      </style>
  </defs>
  <path
     style="fill:currentColor;fill-opacity:1;stroke:none" 
     d="M 5,6 V 16 H 4 V 42 H 44 V 13 H 43 V 9 H 24 L 21,6 Z"
     class="ColorScheme-Highlight"
     />
  <path
     style="fill-opacity:0.33;fill-rule:evenodd"
     d="m 5,6 v 10 h 12 l 3,-3 H 43 V 9 H 24 L 21,6 Z"
     />
  <path
     style="fill:#ffffff;fill-opacity:0.2;fill-rule:evenodd"
     d="M 21 6 L 23 10 L 43 10 L 43 9 L 24 9 L 21 6 z M 20 13 L 17 16 L 4 16 L 4 17 L 18 17 L 20 13 z "
     />
  <path
     style="fill-opacity:0.2;fill-rule:evenodd"
     d="M 20 13 L 16 15 L 5 15 L 5 16 L 17 16 L 20 13 z M 4 41 L 4 42 C 4 42 44 42 44 42 L 44 41 L 4 41 z "
     class="ColorScheme-Text"
     />
 <path 
     style="fill:currentColor;fill-opacity:0.6;stroke:none" 
     d="M 20 24 A 2 4 0 0 0 18 28 L 18 30.5 A 1.5 1.5 0 0 0 20.6 31.6 L 21.5 30.6 A 1.5 1.5 0 0 0 22.5 31 A 1.5 1.5 0 0 0 24 29.5 A 1.5 1.5 0 0 0 26.5 30.6 L 27.4 31.6 A 1.5 1.5 0 0 0 30 30.5 L 30 28 A 2 4 0 0 0 28 24 L 20 24 z M 20 25 L 28 25 A 1 3 0 0 1 29 28 L 29 30.5 A 0.5 0.5 0 0 1 28.1 30.8 L 26.4 29.1 A 0.6 0.6 0 0 0 26.5 29.1 A 0.6 0.6 0 0 0 27.1 28.5 A 0.6 0.6 0 0 0 26.5 27.9 A 0.6 0.6 0 0 0 25.9 28.5 A 0.6 0.6 0 0 0 26.2 29 L 26 29 L 26 29.5 A 0.5 0.5 0 0 1 25 29.5 L 25 29 L 23 29 L 23 29.5 A 0.5 0.5 0 0 1 22 29.5 L 22 29 L 22 28 L 23 28 L 23 27 L 22 27 L 22 26 L 21 26 L 21 27 L 20 27 L 20 28 L 21 28 L 21 29 L 21.7 29 L 19.8 30.8 A 0.5 0.5 0 0 1 19 30.5 L 19 28 A 1 3 0 0 1 20 25 z M 26.5 25.9 A 0.6 0.6 0 0 0 25.9 26.5 A 0.6 0.6 0 0 0 26.5 27.1 A 0.6 0.6 0 0 0 27.1 26.5 A 0.6 0.6 0 0 0 26.5 25.9 z M 25.5 26.9 A 0.6 0.6 0 0 0 24.9 27.5 A 0.6 0.6 0 0 0 25.5 28.1 A 0.6 0.6 0 0 0 26.1 27.5 A 0.6 0.6 0 0 0 25.5 26.9 z M 27.5 26.9 A 0.6 0.6 0 0 0 26.9 27.5 A 0.6 0.6 0 0 0 27.5 28.1 A 0.6 0.6 0 0 0 28.1 27.5 A 0.6 0.6 0 0 0 27.5 26.9 z "
     class="ColorScheme-Text"
     />
</svg>
