<svg xmlns="http://www.w3.org/2000/svg" viewBox="0 0 48 48">
  <defs id="defs3051">
    <style type="text/css" id="current-color-scheme">
      .ColorScheme-Text {
        color:#31363b;
      }
      .ColorScheme-Highlight {
        color:#3daee9;
      }
      </style>
  </defs>
  <path
     style="fill:#a7afb4"
     d="M 5,12 V 42.6 C 5,43.4 5.6,44 6.5,44 h 27 C 34.3,44 35,43.4 35,42.6 V 12 Z"
     />
  <path
     style="fill-opacity:0.33"
     d="M 9.5,14 C 8.6,14 8,14.6 8,15.4 V 39.6 C 8,40.4 8.6,41 9.5,41 10.4,41 11,40.4 11,39.6 V 15.4 C 11,14.6 10.331,14 9.5,14 Z m 7,0 C 15.6,14 15,14.6 15,15.4 v 24.2 c 0,0.8 0.6,1.4 1.5,1.4 0.9,0 1.5,-0.6 1.5,-1.4 V 15.4 C 18,14.6 17.331,14 16.5,14 Z m 7,0 C 22.6,14 22,14.6 22,15.4 v 24.2 c 0,0.8 0.6,1.4 1.5,1.4 0.9,0 1.5,-0.6 1.5,-1.4 V 15.4 C 25,14.6 24.331,14 23.5,14 Z m 7,0 C 29.6,14 29,14.6 29,15.4 v 24.2 c 0,0.8 0.6,1.4 1.5,1.4 0.9,0 1.5,-0.6 1.5,-1.4 V 15.4 C 32,14.6 31.331,14 30.5,14 Z"
     />
  <path
     style="fill-opacity:0.33"
     d="m 5,41.5 v 1 C 5,43.3 5.6,44 6.5,44 h 27 c 0.8,0 1.5,-0.6 1.5,-1.5 v -1 C 35,42.3 34.4,43 33.5,43 H 6.5 C 5.7,43 5,42.4 5,41.5 Z"
     />
  <path
     style="fill:#ffffff;fill-opacity:0.2;"
     d="m 5,12 v 0.5 L 35,13 v -1 z"
     />
  <path
     style="fill:#8b6039"
     d="M 29,7 18,12 13,7 7,12 v 1 l 5,12 22,-13 z"
     />
  <path
     style="fill:#ffffff;fill-opacity:0.9"
     d="m 9,12 3,6 9.6,-2.9 L 26,19 32,12 Z"
     />
  <g
     transform="rotate(85,3.15,47.2)">
    <path
       d="m -22,4 c -1,0 -2,1 -2,2 v 3 h -8.5 c -0.8,0 -1.5,1.1 -1.5,2.1 V 12 H 2 V 11 C 2,10.1 1.4,9 0.5,9 H -8 V 6 C -8,5 -9,4 -10,4 Z m 1,3 h 10 v 2 h -10 z"
       style="fill:#a7afb4"
       />
    <path
       d="M -21.25,6 C -21.95,6 -22,6.3 -22,6.7 V 9 h 1 V 7 h 10 v 2 h 1 V 6.8 C -10,6.4 -10.3,6 -10.75,6 Z M -34,11 v 1 H 2 v -1 z"
       style="fill-opacity:0.33"
       />
  </g>
</svg>
