<svg xmlns="http://www.w3.org/2000/svg" viewBox="0 0 32 32">
  <defs id="defs3051">
    <style type="text/css" id="current-color-scheme">
      .ColorScheme-Text {
        color:#31363b;
      }
      .ColorScheme-Highlight {
        color:#3daee9;
      }
      </style>
  </defs>
 <path 
     style="fill:currentColor;fill-opacity:1;stroke:none" 
     d="M 2 3 L 2 10 L 1 10 L 1 29 L 12 29 L 13 29 L 31 29 L 31 8 L 30 8 L 30 5 L 16 5 L 14 3 L 2 3 z "
     class="ColorScheme-Highlight"
     />
 <path 
     style="fill-opacity:0.33;fill-rule:evenodd"
     d="m 2,3 0,7 9,0 L 13,8 30,8 30,5 16,5 14,3 2,3 Z"
     />
 <path 
     style="fill:#ffffff;fill-opacity:0.2;fill-rule:evenodd"
     d="M 14 3 L 15 6 L 30 6 L 30 5 L 16 5 L 14 3 z M 13 8 L 11 10 L 1 10 L 1 11 L 12 11 L 13 8 z "
     />
 <path 
     style="fill-opacity:0.2;fill-rule:evenodd"
     d="M 13 8 L 11 9 L 2 9 L 2 10 L 11 10 L 13 8 z M 1 28 L 1 29 L 31 29 L 31 28 L 1 28 z "
     class="ColorScheme-Text"
     />
 <path 
     style="fill:currentColor;fill-opacity:0.6;stroke:none" 
     d="M 20 13 A 1 1 0 0 0 19 14 A 1 1 0 0 0 20 15 A 1 1 0 0 0 21 14 A 1 1 0 0 0 20 13 z M 16.5 15 A 0.5 0.5 0 0 0 16 15.5 A 0.5 0.5 0 0 0 16.5 16 A 0.5 0.5 0 0 0 17 15.5 A 0.5 0.5 0 0 0 16.5 15 z M 14.5 16 A 0.5 0.5 0 0 0 14 16.5 A 0.5 0.5 0 0 0 14.5 17 A 0.5 0.5 0 0 0 15 16.5 A 0.5 0.5 0 0 0 14.5 16 z M 12 17 A 1 1 0 0 0 11 18 A 1 1 0 0 0 12 19 A 1 1 0 0 0 13 18 A 1 1 0 0 0 12 17 z M 14.5 19 A 0.5 0.5 0 0 0 14 19.5 A 0.5 0.5 0 0 0 14.5 20 A 0.5 0.5 0 0 0 15 19.5 A 0.5 0.5 0 0 0 14.5 19 z M 16.5 20 A 0.5 0.5 0 0 0 16 20.5 A 0.5 0.5 0 0 0 16.5 21 A 0.5 0.5 0 0 0 17 20.5 A 0.5 0.5 0 0 0 16.5 20 z M 20 21 A 1 1 0 0 0 19 22 A 1 1 0 0 0 20 23 A 1 1 0 0 0 21 22 A 1 1 0 0 0 20 21 z "
     class="ColorScheme-Text"
     />
</svg>
