<svg xmlns="http://www.w3.org/2000/svg" viewBox="0 0 32 32">
  <defs id="defs3051">
    <style type="text/css" id="current-color-scheme">
      .ColorScheme-Text {
        color:#31363b;
      }
      .ColorScheme-Highlight {
        color:#3daee9;
      }
      </style>
  </defs>
 <path 
     style="fill:currentColor;fill-opacity:1;stroke:none" 
     d="M 2 3 L 2 10 L 1 10 L 1 29 L 12 29 L 13 29 L 31 29 L 31 8 L 30 8 L 30 5 L 16 5 L 14 3 L 2 3 z "
     class="ColorScheme-Highlight"
     />
 <path 
     style="fill-opacity:0.33;fill-rule:evenodd"
     d="m 2,3 0,7 9,0 L 13,8 30,8 30,5 16,5 14,3 2,3 Z"
     />
 <path 
     style="fill:#ffffff;fill-opacity:0.2;fill-rule:evenodd"
     d="M 14 3 L 15 6 L 30 6 L 30 5 L 16 5 L 14 3 z M 13 8 L 11 10 L 1 10 L 1 11 L 12 11 L 13 8 z "
     />
 <path 
     style="fill-opacity:0.2;fill-rule:evenodd"
     d="M 13 8 L 11 9 L 2 9 L 2 10 L 11 10 L 13 8 z M 1 28 L 1 29 L 31 29 L 31 28 L 1 28 z "
     class="ColorScheme-Text"
     />
 <path 
     style="fill:currentColor;fill-opacity:0.6;stroke:none" 
     d="m 16,11 c -1.104569,0 -2,0.895431 -2,2 4.3e-4,0.674073 0.340383,1.302583 0.904297,1.671875 L 12.882812,19 H 12.5 c -0.277,0 -0.5,0.223 -0.5,0.5 0,0.248634 0.182806,0.444971 0.419922,0.484375 l -1.236328,2.619141 c -0.09574,0.204347 -0.04849,0.440847 0.101562,0.59375 L 10.699219,24.386719 11.625,23.384766 c 0.245788,0.0643 0.509632,-0.05327 0.621094,-0.289063 L 13.707031,20 H 16 v 0.5 c 0,0.277 0.223,0.5 0.5,0.5 0.277,0 0.5,-0.223 0.5,-0.5 V 20 h 1.166016 l 1.460937,3.095703 c 0.110033,0.237214 0.372829,0.353368 0.617188,0.289063 l 0.925781,1.001953 -0.583984,-1.189453 c 0.148616,-0.152903 0.197305,-0.387974 0.101562,-0.59375 L 19.458984,20 H 19.5 C 19.777,20 20,19.777 20,19.5 20,19.223 19.777,19 19.5,19 H 18.988281 L 17.021484,14.716797 C 17.627331,14.356882 17.999058,13.704691 18,13 18,11.895431 17.104569,11 16,11 Z m 0,1 c 0.552285,0 1,0.447715 1,1 0,0.552285 -0.447715,1 -1,1 -0.552285,0 -1,-0.447715 -1,-1 0,-0.552285 0.447715,-1 1,-1 z m 0.08398,3.587891 L 17.693359,19 H 17 V 18.5 C 17,18.223 16.777,18 16.5,18 16.223,18 16,18.223 16,18.5 V 19 h -1.822266 l 1.609375,-3.412109 c 0.08014,-0.129469 0.212891,-0.121094 0.296875,0 z"
     class="ColorScheme-Text"
     />
</svg>
