<svg xmlns="http://www.w3.org/2000/svg" viewBox="0 0 32 32">
  <defs id="defs3051">
    <style type="text/css" id="current-color-scheme">
      .ColorScheme-Text {
        color:#31363b;
      }
      .ColorScheme-Highlight {
        color:#3daee9;
      }
      </style>
  </defs>
 <path 
     style="fill:currentColor;fill-opacity:1;stroke:none" 
     d="M 2 3 L 2 10 L 1 10 L 1 29 L 12 29 L 13 29 L 31 29 L 31 8 L 30 8 L 30 5 L 16 5 L 14 3 L 2 3 z "
     class="ColorScheme-Highlight"
     />
 <path 
     style="fill-opacity:0.33;fill-rule:evenodd"
     d="m 2,3 0,7 9,0 L 13,8 30,8 30,5 16,5 14,3 2,3 Z"
     />
 <path 
     style="fill:#ffffff;fill-opacity:0.2;fill-rule:evenodd"
     d="M 14 3 L 15 6 L 30 6 L 30 5 L 16 5 L 14 3 z M 13 8 L 11 10 L 1 10 L 1 11 L 12 11 L 13 8 z "
     />
 <path 
     style="fill-opacity:0.2;fill-rule:evenodd"
     d="M 13 8 L 11 9 L 2 9 L 2 10 L 11 10 L 13 8 z M 1 28 L 1 29 L 31 29 L 31 28 L 1 28 z "
     class="ColorScheme-Text"
     />
 <path 
     style="fill:currentColor;fill-opacity:0.6;stroke:none" 
     d="M 12 15 A 2 4 0 0 0 10 19 L 10 21.5 A 1.5 1.5 0 0 0 12.6 22.6 L 13.5 21.6 A 1.5 1.5 0 0 0 14.5 22 A 1.5 1.5 0 0 0 16 20.5 A 1.5 1.5 0 0 0 18.5 21.6 L 19.4 22.6 A 1.5 1.5 0 0 0 22 21.5 L 22 19 A 2 4 0 0 0 20 15 L 12 15 z M 12 16 L 20 16 A 1 3 0 0 1 21 19 L 21 21.5 A 0.5 0.5 0 0 1 20.1 21.8 L 18.4 20.1 A 0.6 0.6 0 0 0 18.5 20.1 A 0.6 0.6 0 0 0 19.1 19.5 A 0.6 0.6 0 0 0 18.5 18.9 A 0.6 0.6 0 0 0 17.9 19.5 A 0.6 0.6 0 0 0 18.2 20 L 18 20 L 18 20.5 A 0.5 0.5 0 0 1 17 20.5 L 17 20 L 15 20 L 15 20.5 A 0.5 0.5 0 0 1 14 20.5 L 14 20 L 14 19 L 15 19 L 15 18 L 14 18 L 14 17 L 13 17 L 13 18 L 12 18 L 12 19 L 13 19 L 13 20 L 13.7 20 L 11.8 21.8 A 0.5 0.5 0 0 1 11 21.5 L 11 19 A 1 3 0 0 1 12 16 z M 18.5 16.9 A 0.6 0.6 0 0 0 17.9 17.5 A 0.6 0.6 0 0 0 18.5 18.1 A 0.6 0.6 0 0 0 19.1 17.5 A 0.6 0.6 0 0 0 18.5 16.9 z M 17.5 17.9 A 0.6 0.6 0 0 0 16.9 18.5 A 0.6 0.6 0 0 0 17.5 19.1 A 0.6 0.6 0 0 0 18.1 18.5 A 0.6 0.6 0 0 0 17.5 17.9 z M 19.5 17.9 A 0.6 0.6 0 0 0 18.9 18.5 A 0.6 0.6 0 0 0 19.5 19.1 A 0.6 0.6 0 0 0 20.1 18.5 A 0.6 0.6 0 0 0 19.5 17.9 z "
     class="ColorScheme-Text"
     />
</svg>
