<svg xmlns="http://www.w3.org/2000/svg" viewBox="0 0 32 32">
  <defs id="defs3051">
    <style type="text/css" id="current-color-scheme">
      .ColorScheme-Text {
        color:#31363b;
      }
      .ColorScheme-Highlight {
        color:#3daee9;
      }
      </style>
  </defs>
 <path 
     style="fill:currentColor;fill-opacity:1;stroke:none" 
     d="M 2 3 L 2 10 L 1 10 L 1 29 L 12 29 L 13 29 L 31 29 L 31 8 L 30 8 L 30 5 L 16 5 L 14 3 L 2 3 z "
     class="ColorScheme-Highlight"
     />
 <path 
     style="fill-opacity:0.33;fill-rule:evenodd"
     d="m 2,3 0,7 9,0 L 13,8 30,8 30,5 16,5 14,3 2,3 Z"
     />
 <path 
     style="fill:#ffffff;fill-opacity:0.2;fill-rule:evenodd"
     d="M 14 3 L 15 6 L 30 6 L 30 5 L 16 5 L 14 3 z M 13 8 L 11 10 L 1 10 L 1 11 L 12 11 L 13 8 z "
     />
 <path 
     style="fill-opacity:0.2;fill-rule:evenodd"
     d="M 13 8 L 11 9 L 2 9 L 2 10 L 11 10 L 13 8 z M 1 28 L 1 29 L 31 29 L 31 28 L 1 28 z "
     class="ColorScheme-Text"
     />
 <path 
     style="fill:currentColor;fill-opacity:0.6;stroke:none" 
     d="m 15,12 v 2 H 14 L 16.5,16.5 19,14 h -1 v -2 z m 1,5 v 1.050781 c -0.312974,0.06458 -0.610665,0.18856 -0.876953,0.365235 l -0.744141,-0.744141 -0.707031,0.707031 0.744141,0.744141 C 14.240718,19.38963 14.118068,19.687304 14.054688,20 H 13 v 1 h 1.050781 c 0.06458,0.312974 0.18856,0.610665 0.365235,0.876953 l -0.744141,0.744141 0.707031,0.707031 0.744141,-0.744141 C 15.38963,22.759282 15.687304,22.881932 16,22.945312 V 24 h 1 v -1.050781 c 0.312974,-0.06458 0.610665,-0.18856 0.876953,-0.365235 l 0.744141,0.744141 0.707031,-0.707031 -0.744141,-0.744141 C 18.759282,21.61037 18.881932,21.312696 18.945312,21 H 20 v -1 h -1.050781 c -0.06458,-0.312974 -0.18856,-0.610665 -0.365235,-0.876953 l 0.744141,-0.744141 -0.707031,-0.707031 -0.744141,0.744141 C 17.61037,18.240718 17.312696,18.118068 17,18.054688 V 17 Z m 0.5,2 c 0.405488,-1e-6 0.793703,0.164162 1.076172,0.455078 C 17.847971,19.735007 18.000001,20.109827 18,20.5 c 1e-6,0.405488 -0.164162,0.793703 -0.455078,1.076172 C 17.264993,21.847971 16.890173,22.000001 16.5,22 c -0.405488,1e-6 -0.793703,-0.164162 -1.076172,-0.455078 C 15.152029,21.264993 14.999999,20.890173 15,20.5 c -10e-7,-0.405488 0.164162,-0.793703 0.455078,-1.076172 C 15.735007,19.152029 16.109827,18.999999 16.5,19 Z"
     class="ColorScheme-Text"
     />
</svg>
