<svg xmlns="http://www.w3.org/2000/svg" viewBox="0 0 32 32">
  <defs id="defs3051">
    <style type="text/css" id="current-color-scheme">
      .ColorScheme-Text {
        color:#31363b;
      }
      .ColorScheme-Highlight {
        color:#3daee9;
      }
      </style>
  </defs>
 <path 
     style="fill:currentColor;fill-opacity:1;stroke:none" 
     d="M 2 3 L 2 10 L 1 10 L 1 29 L 12 29 L 13 29 L 31 29 L 31 8 L 30 8 L 30 5 L 16 5 L 14 3 L 2 3 z "
     class="ColorScheme-Highlight"
     />
 <path 
     style="fill-opacity:0.33;fill-rule:evenodd"
     d="m 2,3 0,7 9,0 L 13,8 30,8 30,5 16,5 14,3 2,3 Z"
     />
 <path 
     style="fill:#ffffff;fill-opacity:0.2;fill-rule:evenodd"
     d="M 14 3 L 15 6 L 30 6 L 30 5 L 16 5 L 14 3 z M 13 8 L 11 10 L 1 10 L 1 11 L 12 11 L 13 8 z "
     />
 <path 
     style="fill-opacity:0.2;fill-rule:evenodd"
     d="M 13 8 L 11 9 L 2 9 L 2 10 L 11 10 L 13 8 z M 1 28 L 1 29 L 31 29 L 31 28 L 1 28 z "
     class="ColorScheme-Text"
     />
 <path 
     style="fill:currentColor;fill-opacity:0.6;stroke:none" 
     d="M 14.779297 12.683594 C 14.231125 12.805458 13.690036 12.974576 13.181641 13.230469 C 13.193271 13.679385 13.220477 14.109961 13.279297 14.546875 C 13.08186 14.673368 12.875817 14.78161 12.691406 14.929688 C 12.504035 15.073837 12.31224 15.212273 12.142578 15.380859 C 11.80363 15.156669 11.443794 14.945738 11.074219 14.759766 C 10.675846 15.188497 10.304283 15.652107 10 16.169922 C 10.239134 16.545294 10.494882 16.922573 10.732422 17.216797 L 10.732422 19.773438 L 10.732422 20.097656 L 10.732422 20.394531 C 10.738222 20.394582 10.74424 20.393993 10.75 20.394531 L 12.699219 20.582031 C 12.801275 20.591931 12.881566 20.675075 12.888672 20.777344 L 12.947266 21.636719 L 14.648438 21.757812 L 14.765625 20.964844 C 14.780805 20.861927 14.868555 20.785156 14.972656 20.785156 L 17.027344 20.785156 C 17.131392 20.785156 17.219195 20.861933 17.234375 20.964844 L 17.351562 21.757812 L 19.052734 21.636719 L 19.111328 20.777344 C 19.118528 20.675072 19.198729 20.591935 19.300781 20.582031 L 21.248047 20.394531 C 21.253847 20.393993 21.259815 20.394584 21.265625 20.394531 L 21.265625 20.140625 L 21.267578 20.140625 L 21.267578 17.216797 C 21.541931 16.871418 21.80096 16.49045 22 16.169922 C 21.695825 15.652108 21.322201 15.188497 20.923828 14.759766 C 20.55436 14.945738 20.196371 15.156669 19.857422 15.380859 C 19.687816 15.212273 19.496235 15.073836 19.308594 14.929688 C 19.124237 14.78161 18.917764 14.673368 18.720703 14.546875 C 18.779373 14.109961 18.808633 13.679385 18.820312 13.230469 C 18.311864 12.974576 17.769145 12.805458 17.220703 12.683594 C 17.001735 13.051608 16.801352 13.450246 16.626953 13.839844 C 16.42015 13.805284 16.211947 13.791543 16.003906 13.789062 C 16.002406 13.789062 16.0013 13.789062 16 13.789062 C 15.9987 13.789062 15.997394 13.789062 15.996094 13.789062 C 15.787677 13.791562 15.579904 13.805284 15.373047 13.839844 C 15.198755 13.450246 14.998588 13.051608 14.779297 12.683594 z M 13.238281 17.332031 C 13.886787 17.332031 14.412109 17.857569 14.412109 18.505859 C 14.412109 19.154581 13.886787 19.679688 13.238281 19.679688 C 12.590097 19.679688 12.064453 19.154581 12.064453 18.505859 C 12.064453 17.857569 12.590097 17.332031 13.238281 17.332031 z M 18.761719 17.332031 C 19.409848 17.332031 19.935547 17.857569 19.935547 18.505859 C 19.935547 19.154581 19.409848 19.679688 18.761719 19.679688 C 18.113105 19.679688 17.587891 19.154581 17.587891 18.505859 C 17.587891 17.857569 18.113105 17.332031 18.761719 17.332031 z M 16 18.019531 C 16.20874 18.019531 16.378906 18.173811 16.378906 18.363281 L 16.378906 19.443359 C 16.378906 19.632991 16.20874 19.787109 16 19.787109 C 15.791259 19.787109 15.621094 19.632991 15.621094 19.443359 L 15.621094 18.363281 C 15.621094 18.173811 15.791259 18.019531 16 18.019531 z M 10.730469 20.814453 C 10.731276 21.00274 10.732422 21.20893 10.732422 21.25 C 10.732422 23.100245 13.079969 23.989772 15.996094 24 L 16 24 L 16.003906 24 C 18.92003 23.98978 21.265625 23.100245 21.265625 21.25 C 21.265625 21.20817 21.268631 21.002847 21.269531 20.814453 L 19.517578 20.984375 L 19.457031 21.847656 C 19.449831 21.951865 19.36788 22.035487 19.263672 22.042969 L 17.1875 22.191406 C 17.1824 22.191781 17.178838 22.191406 17.173828 22.191406 C 17.070696 22.191406 16.980076 22.115283 16.964844 22.011719 L 16.847656 21.205078 L 15.154297 21.205078 L 15.035156 22.011719 C 15.019176 22.120342 14.921876 22.199425 14.8125 22.191406 L 12.736328 22.042969 C 12.632119 22.035469 12.550235 21.951864 12.542969 21.847656 L 12.482422 20.984375 L 10.730469 20.814453 z "
     class="ColorScheme-Text"
     />
</svg>
