<svg xmlns="http://www.w3.org/2000/svg" viewBox="0 0 32 32">
  <defs id="defs3051">
    <style type="text/css" id="current-color-scheme">
      .ColorScheme-Text {
        color:#31363b;
      }
      .ColorScheme-Highlight {
        color:#3daee9;
      }
      </style>
  </defs>
 <path 
     style="fill:#f62459" 
     d="M 2 3 L 2 10 L 1 10 L 1 29 L 12 29 L 13 29 L 31 29 L 31 8 L 30 8 L 30 5 L 16 5 L 14 3 L 2 3 z "
     />
 <path 
     style="fill-opacity:0.33;fill-rule:evenodd"
     d="m 2,3 0,7 9,0 L 13,8 30,8 30,5 16,5 14,3 2,3 Z"
     />
 <path 
     style="fill:#ffffff;fill-opacity:0.2;fill-rule:evenodd"
     d="M 14 3 L 15 6 L 30 6 L 30 5 L 16 5 L 14 3 z M 13 8 L 11 10 L 1 10 L 1 11 L 12 11 L 13 8 z "
     />
 <path 
     style="fill-opacity:0.2;fill-rule:evenodd"
     d="M 13 8 L 11 9 L 2 9 L 2 10 L 11 10 L 13 8 z M 1 28 L 1 29 L 31 29 L 31 28 L 1 28 z "
     class="ColorScheme-Text"
     />
 <path 
     style="fill:currentColor;fill-opacity:0.6;stroke:none" 
     d="M 15.619141 12 C 15.538051 12 15.098738 12.171031 15.085938 12.207031 C 15.068407 12.256031 15.125933 12.248781 15.345703 12.175781 C 15.542823 12.110171 15.714441 12 15.619141 12 z M 19.333984 12.105469 C 19.304598 12.064266 19.277188 12.16549 19.273438 12.367188 C 19.270038 12.560808 19.277188 12.618656 19.304688 12.597656 C 19.355287 12.558046 19.389381 12.326422 19.363281 12.195312 C 19.353906 12.148257 19.34378 12.119203 19.333984 12.105469 z M 17.693359 12.150391 C 17.607923 12.154141 17.511165 12.176797 17.4375 12.216797 C 17.31468 12.283797 17.315918 12.285375 16.986328 12.234375 C 16.805058 12.206375 16.480315 12.173109 16.265625 12.162109 C 15.925675 12.145109 15.875 12.149453 15.875 12.189453 C 15.875 12.221453 15.823434 12.245578 15.714844 12.267578 C 15.626634 12.285578 15.497081 12.329281 15.425781 12.363281 C 15.354631 12.397281 15.287544 12.418203 15.277344 12.408203 C 15.267344 12.400203 15.279787 12.390925 15.304688 12.390625 C 15.341588 12.389625 15.342234 12.385375 15.302734 12.359375 C 15.263034 12.334375 15.265559 12.323984 15.318359 12.333984 C 15.395919 12.340984 15.492188 12.302625 15.492188 12.265625 C 15.492188 12.231625 15.322581 12.227859 15.212891 12.255859 C 15.168991 12.266859 15.144097 12.290453 15.154297 12.314453 C 15.165417 12.341453 15.132934 12.360047 15.052734 12.373047 C 14.987804 12.383047 14.885519 12.403969 14.824219 12.417969 C 14.716619 12.442969 14.714003 12.441484 14.783203 12.396484 C 14.822603 12.370484 14.855469 12.339219 14.855469 12.324219 C 14.855469 12.273809 14.756413 12.298387 14.533203 12.404297 C 14.409783 12.462297 14.285859 12.504141 14.255859 12.494141 C 14.145739 12.461131 12.955775 13.426376 12.703125 13.753906 C 12.645065 13.829716 12.588287 13.875234 12.554688 13.865234 C 12.519818 13.858234 12.482066 13.891078 12.447266 13.955078 C 12.417706 14.009778 12.304602 14.188196 12.195312 14.353516 C 11.946833 14.729146 11.865541 14.878546 11.806641 15.072266 C 11.780941 15.156376 11.740697 15.264453 11.716797 15.314453 C 11.692897 15.364063 11.652953 15.548689 11.626953 15.724609 C 11.579493 16.045739 11.530716 16.18725 11.478516 16.15625 C 11.463116 16.15025 11.443547 16.154016 11.435547 16.166016 C 11.393197 16.231326 11.313263 16.852107 11.289062 17.310547 C 11.263463 17.792997 11.267472 17.841608 11.326172 17.986328 C 11.360952 18.072038 11.443066 18.34592 11.509766 18.59375 C 11.778176 19.59044 11.873192 19.882226 12.044922 20.259766 C 12.561822 21.396176 13.396911 22.30552 14.675781 23.125 C 15.258081 23.49804 16.197836 23.863393 16.853516 23.970703 L 16.853516 23.964844 C 17.020666 23.987844 17.312804 24.008047 17.740234 23.998047 C 18.282674 23.992047 18.42306 23.979922 18.6875 23.919922 C 18.88865 23.873712 18.998047 23.834594 18.998047 23.808594 C 18.998047 23.772594 18.958261 23.77025 18.832031 23.78125 C 17.979391 23.85465 17.762154 23.829936 17.333984 23.603516 C 17.027354 23.441516 16.937738 23.413719 17.023438 23.511719 C 17.081497 23.577719 16.983593 23.573047 16.751953 23.498047 C 16.650083 23.465047 16.533987 23.4375 16.492188 23.4375 C 16.427087 23.4375 16.420919 23.430859 16.449219 23.380859 C 16.502689 23.286749 16.487766 23.257812 16.384766 23.257812 C 16.280066 23.257812 16.156728 23.206635 15.955078 23.078125 C 15.854008 23.010125 15.810081 23.000531 15.738281 23.019531 C 15.659911 23.039841 15.62787 23.026879 15.5 22.917969 C 15.2977 22.745559 15.241234 22.681141 15.240234 22.619141 C 15.239104 22.563141 15.1746 22.550703 15.125 22.595703 C 15.10624 22.612803 14.974937 22.525654 14.779297 22.365234 C 14.605647 22.222724 14.4797 22.10375 14.5 22.09375 C 14.56709 22.07275 14.538319 22.002703 14.449219 21.970703 C 14.305519 21.918903 14.243325 21.857016 14.265625 21.791016 C 14.281095 21.745006 14.24835 21.703469 14.125 21.605469 C 14.03719 21.535659 13.945022 21.448109 13.919922 21.412109 C 13.876422 21.349109 13.878297 21.347375 13.966797 21.359375 C 14.103907 21.378385 14.084103 21.324061 13.876953 21.119141 C 13.677623 20.921721 13.547312 20.852 13.419922 20.875 C 13.361782 20.886 13.308728 20.866594 13.236328 20.808594 C 13.092378 20.694384 12.933975 20.474031 12.984375 20.457031 C 13.010175 20.448231 12.988775 20.405844 12.921875 20.339844 C 12.848515 20.266934 12.808456 20.190229 12.785156 20.074219 C 12.765626 19.977009 12.720881 19.880938 12.675781 19.835938 C 12.483451 19.642117 12.384087 19.329068 12.210938 18.392578 C 12.068887 17.623998 12.068719 17.642053 12.199219 17.095703 C 12.288819 16.720863 12.291863 16.650391 12.226562 16.650391 C 12.164673 16.650391 12.163554 16.660202 12.277344 16.388672 C 12.532714 15.779422 13.00988 15.114544 13.28125 14.990234 C 13.40371 14.934124 13.486328 14.837953 13.486328 14.751953 C 13.486328 14.727953 13.462947 14.728281 13.435547 14.738281 C 13.396447 14.753281 13.399819 14.738828 13.449219 14.673828 C 13.572849 14.512008 13.72816 14.399785 13.96875 14.296875 C 14.11193 14.235675 14.229553 14.164 14.251953 14.125 C 14.286953 14.064 14.28325 14.058219 14.21875 14.074219 C 14.17995 14.084419 14.154156 14.095937 14.160156 14.085938 C 14.166276 14.081538 14.282632 13.980138 14.419922 13.861328 C 14.647002 13.664908 15.000821 13.443643 14.894531 13.564453 C 14.870731 13.591453 14.865512 13.618906 14.882812 13.628906 C 14.899213 13.637906 14.929872 13.625562 14.951172 13.601562 C 14.997982 13.548353 15.275031 13.424078 15.556641 13.330078 C 16.133661 13.138068 16.944815 13.090293 17.421875 13.220703 C 17.982705 13.374113 18.575545 13.720029 19.046875 14.167969 C 19.374435 14.479199 19.585308 14.76537 19.705078 15.0625 C 19.740578 15.15031 19.781975 15.228281 19.796875 15.238281 C 19.846055 15.266891 20.057125 16.089464 20.078125 16.333984 C 20.094025 16.518504 20.109784 16.575972 20.146484 16.576172 C 20.186184 16.576472 20.192594 16.618858 20.183594 16.830078 C 20.173274 17.066098 20.163419 17.093641 20.074219 17.181641 C 19.981619 17.273251 19.9797 17.284277 20 17.466797 L 20.021484 17.65625 L 19.828125 17.945312 C 19.655245 18.203443 19.320661 18.605986 19.462891 18.384766 C 19.505591 18.316766 19.507003 18.302734 19.470703 18.302734 C 19.446123 18.302734 19.365816 18.388784 19.291016 18.496094 C 19.156446 18.689014 19.040969 18.789906 18.855469 18.878906 C 18.802889 18.904016 18.680884 18.966578 18.583984 19.017578 C 18.342724 19.143898 18.080099 19.203125 17.755859 19.203125 C 17.131139 19.203125 16.473426 18.908416 16.066406 18.447266 C 15.897296 18.255746 15.652344 17.828366 15.652344 17.722656 C 15.652344 17.691656 15.635722 17.671641 15.607422 17.681641 C 15.573822 17.693741 15.556197 17.643066 15.529297 17.472656 C 15.482597 17.176826 15.483069 17.095005 15.542969 16.796875 C 15.632169 16.352435 15.884941 16.005508 16.337891 15.705078 C 16.657391 15.492748 16.877252 15.435547 17.326172 15.435547 C 17.645872 15.437547 17.736083 15.446953 17.876953 15.501953 C 17.969603 15.537953 18.062684 15.568859 18.083984 15.568359 C 18.174404 15.566559 17.879031 15.380969 17.644531 15.292969 C 17.437791 15.215059 17.330451 15.196547 17.082031 15.185547 C 16.568141 15.163447 16.173729 15.310992 15.792969 15.669922 C 15.576889 15.873542 15.365234 16.189474 15.365234 16.308594 C 15.365234 16.335994 15.336481 16.402031 15.300781 16.457031 C 15.159201 16.672151 15.076897 17.358445 15.154297 17.671875 C 15.365197 18.526555 15.789194 18.975878 16.808594 19.423828 C 17.131004 19.565138 17.222752 19.649078 16.982422 19.580078 C 16.761962 19.517178 16.457022 19.393172 16.357422 19.326172 C 16.247302 19.252172 16.226562 19.249594 16.226562 19.308594 C 16.226562 19.340104 16.168017 19.317375 16.029297 19.234375 C 15.920787 19.170265 15.818234 19.122812 15.802734 19.132812 C 15.721024 19.180313 16.255854 19.530252 16.615234 19.664062 C 17.144894 19.856982 17.743176 19.938188 18.191406 19.867188 C 18.454836 19.825187 18.899609 19.638797 18.849609 19.591797 C 18.828429 19.578797 18.787862 19.579563 18.726562 19.601562 C 18.572942 19.656683 18.233843 19.716281 17.945312 19.738281 C 17.725072 19.755281 17.634782 19.749078 17.482422 19.705078 L 17.292969 19.648438 L 17.675781 19.628906 C 18.100361 19.605996 18.353989 19.557544 18.730469 19.427734 C 19.369069 19.207314 19.932453 18.740279 20.289062 18.136719 C 20.421123 17.913109 20.464844 17.875312 20.464844 17.982422 C 20.464844 18.067842 20.540688 18.039219 20.554688 17.949219 C 20.560688 17.910119 20.548244 17.829531 20.527344 17.769531 C 20.498454 17.686921 20.499144 17.63025 20.527344 17.53125 C 20.560844 17.41325 20.568388 17.406312 20.617188 17.445312 C 20.737258 17.541632 20.751722 17.537454 20.732422 17.402344 C 20.722222 17.330634 20.735472 17.160994 20.763672 17.021484 C 20.791672 16.883364 20.817312 16.687348 20.820312 16.585938 L 20.826172 16.402344 L 20.84375 16.574219 C 20.86275 16.752219 20.917247 16.810485 20.935547 16.671875 C 20.945347 16.597665 20.910481 16.40777 20.863281 16.28125 C 20.841281 16.22425 20.841425 16.22425 20.890625 16.28125 C 20.967925 16.37066 20.980534 16.324133 20.927734 16.132812 C 20.892834 16.006802 20.883737 15.887151 20.898438 15.707031 C 20.918438 15.462611 20.903419 15.417188 20.824219 15.492188 C 20.773369 15.540087 20.679781 15.356935 20.675781 15.203125 C 20.673881 15.119305 20.653675 15.067203 20.609375 15.033203 C 20.573845 15.006003 20.516322 14.939766 20.482422 14.884766 L 20.419922 14.783203 L 20.511719 14.851562 C 20.561449 14.888563 20.607234 14.914297 20.615234 14.904297 C 20.623234 14.896797 20.588909 14.818469 20.537109 14.730469 C 20.485349 14.642769 20.423391 14.524797 20.400391 14.466797 C 20.329401 14.288677 20.172172 14.162812 20.138672 14.257812 C 20.132372 14.275123 20.097194 14.231156 20.058594 14.160156 L 19.988281 14.029297 L 20.058594 14.019531 C 20.097674 14.014531 20.146316 13.990797 20.166016 13.966797 C 20.195406 13.931097 20.232953 13.960033 20.376953 14.126953 C 20.473393 14.238763 20.650281 14.471611 20.769531 14.644531 C 20.888791 14.817341 20.991047 14.942828 20.998047 14.923828 C 21.013657 14.879728 20.947434 14.759984 20.714844 14.402344 C 20.611604 14.243734 20.527344 14.098125 20.527344 14.078125 C 20.527344 14.058325 20.505263 13.998313 20.476562 13.945312 L 20.423828 13.849609 L 20.492188 13.90625 C 20.611478 14.00656 20.604486 13.932298 20.478516 13.767578 C 19.947356 13.072808 19.231586 12.579964 18.353516 12.302734 C 18.081156 12.214734 18.009478 12.212969 18.080078 12.292969 C 18.117278 12.335969 18.111338 12.335969 18.023438 12.292969 C 17.969607 12.266969 17.907566 12.223266 17.884766 12.197266 C 17.853636 12.162266 17.778796 12.146641 17.693359 12.150391 z M 16.060547 12.283203 C 16.083547 12.272203 16.110494 12.273203 16.121094 12.283203 L 16.121094 12.285156 C 16.131594 12.291156 16.113678 12.300781 16.080078 12.300781 C 16.042978 12.299781 16.035147 12.293203 16.060547 12.283203 z M 16.283203 12.308594 C 16.358153 12.298794 16.471809 12.298594 16.537109 12.308594 C 16.602369 12.310594 16.540601 12.320412 16.400391 12.320312 C 16.260131 12.320313 16.208303 12.318594 16.283203 12.308594 z M 16.744141 12.339844 C 16.774871 12.329844 16.824869 12.329844 16.855469 12.339844 C 16.886069 12.343844 16.860128 12.353516 16.798828 12.353516 C 16.738028 12.353516 16.713541 12.349844 16.744141 12.339844 z M 15.970703 12.351562 C 16.005803 12.343563 16.027778 12.348281 16.017578 12.363281 C 16.007878 12.377281 15.978425 12.388672 15.953125 12.388672 C 15.887125 12.388672 15.896303 12.370563 15.970703 12.351562 z M 16.984375 12.373047 C 17.007375 12.362047 17.034322 12.363047 17.044922 12.373047 L 17.044922 12.375 C 17.055422 12.381 17.037506 12.390625 17.003906 12.390625 C 16.966906 12.389625 16.958875 12.383047 16.984375 12.373047 z M 15.779297 12.398438 L 15.890625 12.398438 L 15.763672 12.419922 L 15.763672 12.421875 C 15.693572 12.433875 15.607266 12.452844 15.572266 12.464844 C 15.530966 12.479844 15.536291 12.471406 15.587891 12.441406 C 15.631711 12.416406 15.717997 12.398438 15.779297 12.398438 z M 14.972656 12.519531 C 14.979606 12.525531 14.885359 12.563562 14.761719 12.601562 C 14.608729 12.650563 14.526106 12.661625 14.503906 12.640625 C 14.481746 12.620625 14.421446 12.626156 14.316406 12.660156 L 14.316406 12.658203 C 14.231526 12.685213 14.120613 12.731766 14.070312 12.759766 L 13.978516 12.8125 L 14.064453 12.746094 C 14.189093 12.650784 14.479366 12.559469 14.509766 12.605469 C 14.527746 12.632469 14.584744 12.627172 14.746094 12.576172 C 14.863554 12.540172 14.965656 12.509531 14.972656 12.519531 z M 15.390625 12.523438 C 15.397375 12.530437 15.328928 12.557984 15.236328 12.583984 C 15.050758 12.634984 15.046875 12.635188 15.046875 12.617188 C 15.046875 12.599188 15.375725 12.509438 15.390625 12.523438 z M 13.957031 12.810547 C 13.965831 12.810547 13.947816 12.838094 13.916016 12.871094 C 13.884216 12.904094 13.850797 12.929688 13.841797 12.929688 C 13.832997 12.929688 13.853066 12.904094 13.884766 12.871094 C 13.916566 12.838094 13.948031 12.810547 13.957031 12.810547 z M 13.582031 13.111328 C 13.583616 13.1129 13.571253 13.124452 13.552734 13.146484 C 13.511134 13.198484 13.486328 13.213453 13.486328 13.189453 C 13.486328 13.183453 13.510416 13.159719 13.541016 13.136719 C 13.566266 13.117719 13.580394 13.109703 13.582031 13.111328 z M 11.091797 15.886719 C 11.011777 15.883919 11.011672 15.890237 11.013672 16.060547 C 11.015072 16.157267 11.025109 16.236328 11.037109 16.236328 C 11.095369 16.236328 11.194547 16.067422 11.185547 15.982422 C 11.177747 15.906422 11.159597 15.886719 11.091797 15.886719 z M 18.705078 16.300781 C 18.675651 16.294742 18.649166 16.316939 18.634766 16.371094 C 18.620666 16.423804 18.636047 16.474109 18.685547 16.537109 C 18.806147 16.690919 18.881422 16.599607 18.794922 16.404297 C 18.767092 16.341297 18.734506 16.30682 18.705078 16.300781 z M 20.804688 16.320312 C 20.812467 16.341816 20.812981 16.367286 20.802734 16.376953 C 20.792034 16.387953 20.784156 16.369891 20.785156 16.337891 C 20.786656 16.302891 20.794487 16.296312 20.804688 16.320312 z M 11.039062 16.84375 C 11.010162 16.83475 11 16.880909 11 17.011719 C 11 17.110829 11.008931 17.214234 11.019531 17.240234 C 11.030131 17.266234 11.051959 17.287109 11.068359 17.287109 C 11.114759 17.287109 11.086362 16.85875 11.039062 16.84375 z M 18.779297 17.09375 C 18.763697 17.08475 18.740516 17.152188 18.728516 17.242188 C 18.715716 17.339198 18.680278 17.434609 18.642578 17.474609 L 18.580078 17.542969 L 18.59375 17.466797 C 18.60185 17.425487 18.620013 17.347922 18.632812 17.294922 C 18.668372 17.145702 18.604669 17.177524 18.542969 17.339844 C 18.471069 17.528664 18.474547 17.584187 18.560547 17.617188 C 18.701057 17.670497 18.734184 17.655045 18.771484 17.515625 C 18.813684 17.355915 18.818697 17.11675 18.779297 17.09375 z M 18.164062 18.023438 C 18.157142 18.017437 18.088166 18.039266 18.009766 18.072266 C 17.931316 18.105266 17.798144 18.145109 17.714844 18.162109 C 17.569914 18.191019 17.514516 18.255063 17.603516 18.289062 C 17.625426 18.296063 17.721959 18.304688 17.818359 18.304688 C 17.992599 18.306988 17.995037 18.307485 18.085938 18.171875 C 18.136238 18.096455 18.171063 18.033438 18.164062 18.023438 z M 15.583984 18.699219 C 15.515854 18.699219 15.569721 18.784703 15.738281 18.945312 L 15.738281 18.947266 C 15.838481 19.042786 15.924687 19.119141 15.929688 19.119141 C 15.934688 19.119141 15.939453 19.103031 15.939453 19.082031 C 15.939453 19.037831 15.624884 18.699219 15.583984 18.699219 z M 15.486328 19 C 15.472928 19 15.460938 19.037984 15.460938 19.083984 C 15.460938 19.170894 15.58166 19.282733 15.90625 19.501953 L 15.90625 19.503906 C 15.99027 19.557906 16.0555 19.586406 16.0625 19.566406 C 16.07437 19.532806 15.532228 19 15.486328 19 z M 16.242188 19.355469 L 16.330078 19.40625 C 16.378378 19.43425 16.417969 19.456797 16.417969 19.466797 C 16.417969 19.490797 16.389806 19.477969 16.316406 19.417969 L 16.242188 19.355469 z "
     class="ColorScheme-Text"
     />
</svg>
