<svg xmlns="http://www.w3.org/2000/svg" viewBox="0 0 32 32">
  <defs id="defs3051">
    <style type="text/css" id="current-color-scheme">
      .ColorScheme-Text {
        color:#31363b;
      }
      .ColorScheme-Highlight {
        color:#3daee9;
      }
      </style>
  </defs>
 <path 
     style="fill:#ff8b23" 
     d="M 2 3 L 2 10 L 1 10 L 1 29 L 12 29 L 13 29 L 31 29 L 31 8 L 30 8 L 30 5 L 16 5 L 14 3 L 2 3 z "
     />
 <path 
     style="fill-opacity:0.33;fill-rule:evenodd"
     d="m 2,3 0,7 9,0 L 13,8 30,8 30,5 16,5 14,3 2,3 Z"
     />
 <path 
     style="fill:#ffffff;fill-opacity:0.2;fill-rule:evenodd"
     d="M 14 3 L 15 6 L 30 6 L 30 5 L 16 5 L 14 3 z M 13 8 L 11 10 L 1 10 L 1 11 L 12 11 L 13 8 z "
     />
 <path 
     style="fill-opacity:0.2;fill-rule:evenodd"
     d="M 13 8 L 11 9 L 2 9 L 2 10 L 11 10 L 13 8 z M 1 28 L 1 29 L 31 29 L 31 28 L 1 28 z "
     class="ColorScheme-Text"
     />
 <path 
     style="fill:currentColor;fill-opacity:0.6;stroke:none" 
     d="m 15,12 v 3 h 1 v -3 z m -2,1 v 2 h 1 v -2 z m 4,0 v 2 h 1 v -2 z m -6,1 v 1 h 1 v -1 z m -1,2 v 4 c 0,1.813 1.01,3 3,3 h -2 v 1 h 8 v -1 h -2 c 1.572,0 2.507,-0.727 3,-2 h 1 c 1,0 1,-0. 1,-1.1 v -1.1 c 0,-1.8 0,-1.8 -1,-1.813 h -1 v -1 z m 1,1 h 8 v 3 c 0,1.5 -1.3,2 -3,2 h -2 c -1.662,0 -3,-0.489 -3,-2 z m 9,1 h 1 v 2 h -1 z"
     class="ColorScheme-Text"
     />
</svg>
