<svg xmlns="http://www.w3.org/2000/svg" viewBox="0 0 32 32">
  <defs id="defs3051">
    <style type="text/css" id="current-color-scheme">
      .ColorScheme-Text {
        color:#31363b;
      }
      .ColorScheme-Highlight {
        color:#3daee9;
      }
      </style>
  </defs>
 <path 
     style="fill:currentColor;fill-opacity:1;stroke:none" 
     d="M 2 3 L 2 10 L 1 10 L 1 29 L 12 29 L 13 29 L 31 29 L 31 8 L 30 8 L 30 5 L 16 5 L 14 3 L 2 3 z "
     class="ColorScheme-Highlight"
     />
 <path 
     style="fill-opacity:0.33;fill-rule:evenodd"
     d="m 2,3 0,7 9,0 L 13,8 30,8 30,5 16,5 14,3 2,3 Z"
     />
 <path 
     style="fill:#ffffff;fill-opacity:0.2;fill-rule:evenodd"
     d="M 14 3 L 15 6 L 30 6 L 30 5 L 16 5 L 14 3 z M 13 8 L 11 10 L 1 10 L 1 11 L 12 11 L 13 8 z "
     />
 <path 
     style="fill-opacity:0.2;fill-rule:evenodd"
     d="M 13 8 L 11 9 L 2 9 L 2 10 L 11 10 L 13 8 z M 1 28 L 1 29 L 31 29 L 31 28 L 1 28 z "
     class="ColorScheme-Text"
     />
 <path 
     style="fill:currentColor;fill-opacity:0.6;stroke:none" 
     d="M 19.712891 12 C 19.661024 11.999157 19.606983 12.012785 19.556641 12.044922 C 19.529751 12.063612 19.414002 12.205492 19.298828 12.359375 L 19.087891 12.640625 L 19.013672 12.587891 C 18.908452 12.516731 18.806203 12.501892 18.710938 12.544922 C 18.645097 12.574552 18.489861 12.774924 17.472656 14.130859 C 16.830711 14.985672 16.309067 15.692162 16.310547 15.703125 C 16.311747 15.712325 16.5691 15.918256 16.880859 16.158203 L 17.451172 16.597656 L 18.208984 15.583984 C 18.626386 15.02671 18.974189 14.575695 18.982422 14.582031 C 19.009132 14.602511 19.055282 15.042407 19.044922 15.183594 C 19.040622 15.260614 19.012282 15.398492 18.982422 15.490234 C 18.929152 15.654176 18.922683 15.664321 17.982422 16.923828 C 17.462404 17.620132 17.029339 18.210948 17.021484 18.234375 C 16.998974 18.298975 17.022323 18.42056 17.070312 18.490234 C 17.150453 18.607699 17.350996 18.645298 17.464844 18.5625 C 17.543494 18.50497 19.40535 15.992627 19.464844 15.861328 C 19.638582 15.486928 19.678433 15.006682 19.572266 14.533203 C 19.530326 14.345274 19.473974 14.163719 19.419922 14.035156 C 19.404162 14.000046 19.431271 13.955414 19.605469 13.720703 C 19.77009 13.496642 19.807295 13.433236 19.810547 13.375 C 19.817647 13.251062 19.781592 13.183099 19.662109 13.087891 L 19.550781 12.998047 L 19.773438 12.697266 C 19.956729 12.448278 19.996842 12.382442 20 12.324219 C 20.009217 12.138588 19.868491 12.00253 19.712891 12 z M 15.951172 16.171875 C 15.945672 16.172632 15.261325 17.083038 14.429688 18.193359 C 13.092087 19.98133 12.902996 20.246901 12.779297 20.474609 C 12.533536 20.927953 12.263237 21.619623 12.083984 22.251953 C 11.967815 22.657506 11.963666 22.620585 12.123047 22.535156 C 12.614678 22.269424 13.256597 21.837838 13.630859 21.519531 C 13.996827 21.20791 14.059024 21.127827 15.613281 19.052734 L 17.109375 17.054688 L 16.535156 16.613281 C 16.219227 16.370125 15.956627 16.171118 15.951172 16.171875 z M 15.923828 20.802734 C 15.692182 20.852904 15.435279 21.057203 15.310547 21.291016 C 15.276887 21.352226 15.224079 21.488437 15.191406 21.591797 C 15.160716 21.698166 15.130886 21.786052 15.128906 21.789062 C 15.111086 21.812143 14.668557 21.919687 14.408203 21.964844 C 13.796421 22.073221 13.630698 22.112723 13.570312 22.169922 C 13.452509 22.280306 13.542673 22.390969 13.708984 22.341797 C 13.753534 22.327747 13.942852 22.288922 14.125 22.257812 C 14.307149 22.225703 14.585751 22.168943 14.744141 22.132812 C 14.902531 22.094683 15.034086 22.069142 15.041016 22.076172 C 15.047916 22.086202 15.021086 22.210805 14.978516 22.361328 L 14.904297 22.632812 L 14.736328 22.707031 C 14.645248 22.747171 14.513617 22.81807 14.445312 22.865234 C 14.236434 23.004719 14.196249 23.179575 14.34375 23.292969 C 14.42394 23.354179 14.644611 23.352179 14.783203 23.292969 C 14.905955 23.236769 14.974289 23.157837 15.070312 22.953125 C 15.121792 22.846755 15.161677 22.790227 15.193359 22.783203 C 15.218109 22.773173 15.439079 22.730867 15.683594 22.679688 C 15.928109 22.629517 16.15098 22.582192 16.179688 22.576172 C 16.226218 22.565132 16.230657 22.567121 16.216797 22.613281 C 16.207897 22.640371 16.16756 22.719821 16.125 22.789062 C 16.08243 22.859302 16.050781 22.941493 16.050781 22.974609 C 16.050781 23.044849 16.106783 23.113766 16.154297 23.095703 C 16.172117 23.085673 16.198094 23.082031 16.208984 23.082031 C 16.219874 23.082031 16.269855 23.047103 16.318359 23.001953 C 16.409429 22.918663 16.628906 22.509124 16.628906 22.423828 C 16.628906 22.380678 16.663794 22.370177 16.683594 22.404297 C 16.690494 22.415337 16.741442 22.436169 16.796875 22.449219 C 16.875085 22.469289 16.896484 22.485364 16.896484 22.521484 C 16.896484 22.591724 17.011344 22.692821 17.111328 22.712891 C 17.189528 22.726941 17.287618 22.713176 17.394531 22.666016 C 17.432151 22.649956 17.434745 22.654691 17.421875 22.712891 C 17.412975 22.749021 17.348598 22.864333 17.279297 22.970703 C 17.132786 23.191471 16.95473 23.543678 16.908203 23.699219 C 16.870583 23.832683 16.886768 23.930348 16.955078 23.978516 C 17.017448 24.018656 17.118418 23.999616 17.171875 23.941406 C 17.218405 23.889226 17.472362 23.347471 17.566406 23.099609 C 17.632736 22.926006 17.664941 22.879363 17.816406 22.716797 C 17.941138 22.584337 17.979853 22.551335 17.953125 22.603516 C 17.908575 22.700856 17.911468 22.775155 17.960938 22.820312 C 18.065872 22.917652 18.215994 22.820915 18.347656 22.580078 C 18.425866 22.435575 18.484376 22.391384 18.773438 22.253906 L 18.923828 22.183594 L 18.908203 22.267578 C 18.899303 22.312738 18.848374 22.440397 18.794922 22.550781 C 18.689988 22.774559 18.670059 22.917641 18.732422 23.039062 C 18.774992 23.122353 18.819515 23.123984 19.023438 23.052734 C 19.30854 22.955394 19.678403 22.731963 19.773438 22.603516 C 19.905099 22.422888 19.945423 22.249608 19.865234 22.191406 C 19.783074 22.130196 19.735792 22.155002 19.630859 22.310547 C 19.490287 22.522284 19.318654 22.686241 19.152344 22.769531 C 19.074134 22.810671 19.004976 22.839061 18.998047 22.832031 C 18.989147 22.822001 19.166684 22.337168 19.261719 22.109375 C 19.281519 22.062215 19.298828 22.002599 19.298828 21.978516 C 19.298828 21.915296 19.220618 21.84375 19.154297 21.84375 C 19.123607 21.84375 18.974636 21.906154 18.828125 21.982422 C 18.523224 22.135956 18.542889 22.147377 18.621094 21.859375 C 18.667624 21.681758 18.652795 21.634085 18.546875 21.623047 C 18.444911 21.612007 18.403602 21.645867 18.310547 21.814453 C 18.250157 21.928851 18.171018 22.02542 18.017578 22.169922 C 17.81563 22.358578 17.807283 22.365146 17.759766 22.332031 C 17.688486 22.279851 17.648838 22.28669 17.474609 22.375 C 17.30533 22.4603 17.249598 22.472102 17.207031 22.419922 C 17.171391 22.376772 17.22726 22.354179 17.537109 22.292969 C 17.837061 22.233759 17.875 22.219468 17.875 22.15625 C 17.875 22.054897 17.792999 21.957805 17.646484 21.892578 C 17.393059 21.777177 17.363816 21.771679 17.251953 21.800781 C 17.13217 21.832891 16.954436 22.005907 16.929688 22.113281 C 16.904937 22.225672 16.830078 22.192799 16.830078 22.068359 C 16.830078 22.016179 16.766099 21.884409 16.730469 21.861328 C 16.655229 21.809148 16.532507 21.924137 16.439453 22.130859 L 16.367188 22.289062 L 16.203125 22.326172 C 15.989298 22.373332 15.36831 22.499569 15.285156 22.515625 C 15.231696 22.525655 15.223485 22.525401 15.234375 22.488281 C 15.243275 22.465201 15.270145 22.366978 15.296875 22.265625 C 15.366175 21.986655 15.38634 21.950188 15.486328 21.914062 C 15.606111 21.870912 16.010301 21.694813 16.115234 21.640625 C 16.163744 21.615535 16.263646 21.540893 16.337891 21.472656 C 16.562608 21.260919 16.597874 21.063421 16.4375 20.919922 C 16.39295 20.881792 16.335323 20.841108 16.308594 20.830078 C 16.226434 20.797968 16.025738 20.786571 15.927734 20.806641 L 15.923828 20.802734 z M 16.011719 21.060547 C 16.129521 21.070577 16.175326 21.079104 16.208984 21.115234 C 16.253534 21.160394 16.254494 21.161742 16.214844 21.248047 C 16.188114 21.302237 16.125085 21.365734 16.046875 21.419922 C 15.911254 21.514252 15.486515 21.687358 15.472656 21.65625 C 15.454836 21.60407 15.59062 21.295608 15.677734 21.197266 C 15.793557 21.064805 15.82759 21.049509 16.011719 21.060547 z M 14.755859 22.947266 C 14.771523 22.948646 14.770632 22.964831 14.759766 22.990234 C 14.731056 23.046434 14.654859 23.088326 14.613281 23.072266 C 14.564771 23.052196 14.57804 23.025525 14.65625 22.984375 C 14.707231 22.958285 14.738783 22.945761 14.755859 22.947266 z "
     class="ColorScheme-Text"
     />
</svg>
