<svg xmlns="http://www.w3.org/2000/svg" viewBox="0 0 32 32">
  <defs id="defs3051">
    <style type="text/css" id="current-color-scheme">
      .ColorScheme-Text {
        color:#31363b;
      }
      .ColorScheme-Highlight {
        color:#3daee9;
      }
      </style>
  </defs>
 <path 
     style="fill:currentColor;fill-opacity:1;stroke:none" 
     d="M 2 3 L 2 10 L 1 10 L 1 29 L 12 29 L 13 29 L 31 29 L 31 8 L 30 8 L 30 5 L 16 5 L 14 3 L 2 3 z "
     class="ColorScheme-Highlight"
     />
 <path 
     style="fill-opacity:0.33;fill-rule:evenodd"
     d="m 2,3 0,7 9,0 L 13,8 30,8 30,5 16,5 14,3 2,3 Z"
     />
 <path 
     style="fill:#ffffff;fill-opacity:0.2;fill-rule:evenodd"
     d="M 14 3 L 15 6 L 30 6 L 30 5 L 16 5 L 14 3 z M 13 8 L 11 10 L 1 10 L 1 11 L 12 11 L 13 8 z "
     />
 <path 
     style="fill-opacity:0.2;fill-rule:evenodd"
     d="M 13 8 L 11 9 L 2 9 L 2 10 L 11 10 L 13 8 z M 1 28 L 1 29 L 31 29 L 31 28 L 1 28 z "
     class="ColorScheme-Text"
     />
 <path 
     style="fill:currentColor;fill-opacity:0.6;stroke:none" 
     d="M 16 13 A 2.5 2.5 0 0 0 13.5 15.5 A 2.5 2.5 0 0 0 16 18 A 2.5 2.5 0 0 0 18.5 15.5 A 2.5 2.5 0 0 0 16 13 z M 16 14 A 1.5 1.5 0 0 1 17.5 15.5 A 1.5 1.5 0 0 1 16 17 A 1.5 1.5 0 0 1 14.5 15.5 A 1.5 1.5 0 0 1 16 14 z M 16 19 A 5 4.5 0 0 0 11 23 L 12 23 A 4 3.5 0 0 1 16 20 A 4 3.5 0 0 1 20 23 L 21 23 A 5 4.5 0 0 0 16 19 z "
     class="ColorScheme-Text"
     />
</svg>
