<svg xmlns="http://www.w3.org/2000/svg" viewBox="0 0 32 32">
  <defs id="defs3051">
    <style type="text/css" id="current-color-scheme">
      .ColorScheme-Text {
        color:#31363b;
      }
      .ColorScheme-Highlight {
        color:#3daee9;
      }
      </style>
  </defs>
 <path 
     style="fill:currentColor;fill-opacity:1;stroke:none" 
     d="M 2 3 L 2 10 L 1 10 L 1 29 L 12 29 L 13 29 L 31 29 L 31 8 L 30 8 L 30 5 L 16 5 L 14 3 L 2 3 z "
     class="ColorScheme-Highlight"
     />
 <path 
     style="fill-opacity:0.33;fill-rule:evenodd"
     d="m 2,3 0,7 9,0 L 13,8 30,8 30,5 16,5 14,3 2,3 Z"
     />
 <path 
     style="fill:#ffffff;fill-opacity:0.2;fill-rule:evenodd"
     d="M 14 3 L 15 6 L 30 6 L 30 5 L 16 5 L 14 3 z M 13 8 L 11 10 L 1 10 L 1 11 L 12 11 L 13 8 z "
     />
 <path 
     style="fill-opacity:0.2;fill-rule:evenodd"
     d="M 13 8 L 11 9 L 2 9 L 2 10 L 11 10 L 13 8 z M 1 28 L 1 29 L 31 29 L 31 28 L 1 28 z "
     class="ColorScheme-Text"
     />
 <path 
     style="fill:currentColor;fill-opacity:0.6;stroke:none" 
     d="M 11.001953 13 C 9.8973834 13 9.0019531 13.89543 9.0019531 15 C 9.0132731 15.703054 9.3929594 16.347737 10.001953 16.699219 L 10.001953 21.199219 C 9.3616314 21.568352 8.9770843 22.261316 9.0019531 23 C 9.0019531 24.10457 9.8973834 25 11.001953 25 C 12.106522 25 13.001953 24.104569 13.001953 23 C 12.990633 22.296946 12.610948 21.652263 12.001953 21.300781 L 12.001953 16.730469 C 12.620121 16.37357 13.001221 15.713798 13.001953 15 C 13.001953 13.895431 12.106522 13 11.001953 13 z M 13.001953 15 L 16.001953 17.099609 L 16.001953 16 L 18.001953 16 C 19.109953 16 20.001953 16.45656 20.001953 18 L 20.001953 21.269531 C 19.383785 21.62643 19.002685 22.286202 19.001953 23 C 19.001953 24.104569 19.897384 25 21.001953 25 C 22.106522 25 23.001953 24.104569 23.001953 23 C 22.990633 22.296946 22.610948 21.652263 22.001953 21.300781 L 22.001953 17 C 22.001953 15.3 20.601953 14.033 19.001953 14 L 16.001953 14 L 16.001953 13 L 13.001953 15 z M 11.001953 14 C 11.554238 14 12.001953 14.447715 12.001953 15 C 12.001953 15.552285 11.554238 16 11.001953 16 C 10.449668 16 10.001953 15.552285 10.001953 15 C 10.001953 14.447715 10.449668 14 11.001953 14 z M 11.001953 22 C 11.554238 22 12.001953 22.447715 12.001953 23 C 12.001953 23.552285 11.554238 24 11.001953 24 C 10.449668 24 10.001953 23.552285 10.001953 23 C 10.001953 22.447715 10.449668 22 11.001953 22 z M 21.001953 22 C 21.554238 22 22.001953 22.447715 22.001953 23 C 22.001953 23.552285 21.554238 24 21.001953 24 C 20.449668 24 20.001953 23.552285 20.001953 23 C 20.001953 22.447715 20.449668 22 21.001953 22 z "
     class="ColorScheme-Text"
     />
</svg>
