<svg xmlns="http://www.w3.org/2000/svg" viewBox="0 0 64 64">
  <defs id="defs3051">
    <style type="text/css" id="current-color-scheme">
      .ColorScheme-Text {
        color:#232629;
      }
      .ColorScheme-Highlight {
        color:#3daee9;
      }
      </style>
  </defs>
 <path 
     style="fill:currentColor" 
     d="M 4 6 L 4 11 L 4 20 L 3 20 L 3 21 L 3 21 C 3 21 3 21 3 21 L 3 57 L 3 58 L 4 58 L 60 58 L 61 58 L 61 57 L 61 21 L 61 21 L 61 16 L 60 16 L 60 11 C 60 11 60 11 60 11 L 60 11 L 60 10 L 32 10 L 28 6 L 4 6 z "
     class="ColorScheme-Highlight"
     />
 <path 
     style="fill-opacity:0.33"
     d="M 4 6 L 4 11 L 4 20 L 22 20 L 26 16 L 60 16 L 60 11 C 60 11 60 11 60 11 L 60 11 L 60 10 L 32 10 L 28 6 L 4 6 z "
     />
 <path 
     style="fill:#ffffff;fill-opacity:0.2"
     d="M 28 6 L 31 11 L 33 11 L 60 11 L 60 10 L 33 10 L 32 10 L 28 6 z M 26 16 L 22 20 L 3 20 L 3 21 L 23 21 L 26 16 z "
     />
 <path 
     style="fill-opacity:0.2;fill-rule:evenodd"
     d="M 26 16 L 20 19 L 4 19 L 4 20 L 22 20 L 26 16 z M 3 57 L 3 58 L 4 58 L 60 58 L 61 58 L 61 57 L 60 57 L 4 57 L 3 57 z "
     class="ColorScheme-Text"
     />
 <path 
     style="fill:currentColor;fill-opacity:0.6;stroke:none"  
     d="m 30,26 v 4 H 28 L 32,34.367188 36,30 h -2 v -4 z m 1,10 v 1.101562 c -0.626,0.129 -1.220906,0.377469 -1.753906,0.730469 l -0.78125,-0.78125 -1.414063,1.414063 0.78125,0.78125 C 27.480031,39.779094 27.233469,40.374 27.105469,41 H 26 v 2 h 1.101562 c 0.129001,0.626 0.377469,1.220906 0.730469,1.753906 l -0.78125,0.78125 1.414063,1.414063 0.78125,-0.78125 c 0.533,0.352 1.127906,0.598562 1.753906,0.726562 V 48 h 2 v -1.101562 c 0.626,-0.129 1.220906,-0.377469 1.753906,-0.730469 l 0.78125,0.78125 1.414063,-1.414063 -0.78125,-0.78125 C 36.519969,44.220906 36.766531,43.626 36.894531,43 H 38 v -2 h -1.101562 c -0.129,-0.626 -0.377469,-1.220906 -0.730469,-1.753906 l 0.78125,-0.78125 -1.414063,-1.414063 -0.78125,0.78125 C 34.220906,37.480031 33.626,37.233469 33,37.105469 V 36 Z m 1,3 c 1.656854,0 3,1.343146 3,3 0,1.656854 -1.343146,3 -3,3 -1.656854,0 -3,-1.343146 -3,-3 0,-1.656854 1.343146,-3 3,-3 z"
     class="ColorScheme-Text"
     />
</svg>
