<svg xmlns="http://www.w3.org/2000/svg" viewBox="0 0 64 64">
  <defs id="defs3051">
    <style type="text/css" id="current-color-scheme">
      .ColorScheme-Text {
        color:#232629;
      }
      .ColorScheme-Highlight {
        color:#3daee9;
      }
      </style>
  </defs>
 <path 
     style="fill:currentColor" 
     d="M 4 6 L 4 11 L 4 20 L 3 20 L 3 21 L 3 21 C 3 21 3 21 3 21 L 3 57 L 3 58 L 4 58 L 60 58 L 61 58 L 61 57 L 61 21 L 61 21 L 61 16 L 60 16 L 60 11 C 60 11 60 11 60 11 L 60 11 L 60 10 L 32 10 L 28 6 L 4 6 z "
     class="ColorScheme-Highlight"
     />
 <path 
     style="fill-opacity:0.33"
     d="M 4 6 L 4 11 L 4 20 L 22 20 L 26 16 L 60 16 L 60 11 C 60 11 60 11 60 11 L 60 11 L 60 10 L 32 10 L 28 6 L 4 6 z "
     />
 <path 
     style="fill:#ffffff;fill-opacity:0.2"
     d="M 28 6 L 31 11 L 33 11 L 60 11 L 60 10 L 33 10 L 32 10 L 28 6 z M 26 16 L 22 20 L 3 20 L 3 21 L 23 21 L 26 16 z "
     />
 <path 
     style="fill-opacity:0.2;fill-rule:evenodd"
     d="M 26 16 L 20 19 L 4 19 L 4 20 L 22 20 L 26 16 z M 3 57 L 3 58 L 4 58 L 60 58 L 61 58 L 61 57 L 60 57 L 4 57 L 3 57 z "
     class="ColorScheme-Text"
     />
 <path 
     style="fill:currentColor;fill-opacity:0.6;stroke:none"  
     d="M 26.5 27 A 1.5 1.5 0 0 0 25 28.5 A 1.5 1.5 0 0 0 26.5 30 A 1.5 1.5 0 0 0 28 28.5 A 1.5 1.5 0 0 0 26.5 27 z M 35 27 L 32.1 29.8 L 36.5 34.2 L 32 39.4 L 35 42 L 42 34 L 35 27 z M 24.5 34 A 2.5 2.5 0 0 0 22 36.5 A 2.5 2.5 0 0 0 24.5 39 A 2.5 2.5 0 0 0 27 36.5 A 2.5 2.5 0 0 0 24.5 34 z M 29 41 A 3 3 0 0 0 26 44 A 3 3 0 0 0 29 47 A 3 3 0 0 0 32 44 A 3 3 0 0 0 29 41 z "
     class="ColorScheme-Text"
     />
</svg>
