<svg xmlns="http://www.w3.org/2000/svg" viewBox="0 0 64 64">
  <defs id="defs3051">
    <style type="text/css" id="current-color-scheme">
      .ColorScheme-Text {
        color:#232629;
      }
      .ColorScheme-Highlight {
        color:#3daee9;
      }
      </style>
  </defs>
 <path 
     style="fill:currentColor" 
     d="M 4 6 L 4 11 L 4 20 L 3 20 L 3 21 L 3 21 C 3 21 3 21 3 21 L 3 57 L 3 58 L 4 58 L 60 58 L 61 58 L 61 57 L 61 21 L 61 21 L 61 16 L 60 16 L 60 11 C 60 11 60 11 60 11 L 60 11 L 60 10 L 32 10 L 28 6 L 4 6 z "
     class="ColorScheme-Highlight"
     />
 <path 
     style="fill-opacity:0.33"
     d="M 4 6 L 4 11 L 4 20 L 22 20 L 26 16 L 60 16 L 60 11 C 60 11 60 11 60 11 L 60 11 L 60 10 L 32 10 L 28 6 L 4 6 z "
     />
 <path 
     style="fill:#ffffff;fill-opacity:0.2"
     d="M 28 6 L 31 11 L 33 11 L 60 11 L 60 10 L 33 10 L 32 10 L 28 6 z M 26 16 L 22 20 L 3 20 L 3 21 L 23 21 L 26 16 z "
     />
 <path 
     style="fill-opacity:0.2;fill-rule:evenodd"
     d="M 26 16 L 20 19 L 4 19 L 4 20 L 22 20 L 26 16 z M 3 57 L 3 58 L 4 58 L 60 58 L 61 58 L 61 57 L 60 57 L 4 57 L 3 57 z "
     class="ColorScheme-Text"
     />
 <path 
     style="fill:currentColor;fill-opacity:0.6;stroke:none"  
     d="M 21 26 L 21 27 L 43 27 L 43 26 L 21 26 z M 21 28 L 21 29 L 22 29 L 22 28 L 21 28 z M 25 31 C 24.4 31 24 31.4 24 32 C 24 32.55 24.4 33 25 33 C 25.55 33 26 32.55 26 32 C 26 31.4 25.55 31 25 31 z M 28 31 L 28 32 L 39 32 L 39 31 L 28 31 z M 28 33 L 28 34 L 32 34 L 32 33 L 28 33 z M 25 39 C 24.4 39 24 39.4 24 40 C 24 40.55 24.4 41 25 41 C 25.55 41 26 40.55 26 40 C 26 39.4 25.55 39 25 39 z M 28 39 L 28 40 L 33 40 L 33 39 L 28 39 z M 28 41 L 28 42 L 35 42 L 35 41 L 28 41 z M 28 43 L 28 44 L 42 44 L 42 43 L 28 43 z M 21 45 L 21 46 L 22 46 L 22 45 L 21 45 z M 21 47 L 21 48 L 43 48 L 43 47 L 21 47 z "
     class="ColorScheme-Text"
     />
</svg>
