<svg xmlns="http://www.w3.org/2000/svg" viewBox="0 0 64 64">
  <defs id="defs3051">
    <style type="text/css" id="current-color-scheme">
      .ColorScheme-Text {
        color:#232629;
      }
      .ColorScheme-Highlight {
        color:#3daee9;
      }
      </style>
  </defs>
 <path 
     style="fill:currentColor" 
     d="M 4 6 L 4 11 L 4 20 L 3 20 L 3 21 L 3 21 C 3 21 3 21 3 21 L 3 57 L 3 58 L 4 58 L 60 58 L 61 58 L 61 57 L 61 21 L 61 21 L 61 16 L 60 16 L 60 11 C 60 11 60 11 60 11 L 60 11 L 60 10 L 32 10 L 28 6 L 4 6 z "
     class="ColorScheme-Highlight"
     />
 <path 
     style="fill-opacity:0.33"
     d="M 4 6 L 4 11 L 4 20 L 22 20 L 26 16 L 60 16 L 60 11 C 60 11 60 11 60 11 L 60 11 L 60 10 L 32 10 L 28 6 L 4 6 z "
     />
 <path 
     style="fill:#ffffff;fill-opacity:0.2"
     d="M 28 6 L 31 11 L 33 11 L 60 11 L 60 10 L 33 10 L 32 10 L 28 6 z M 26 16 L 22 20 L 3 20 L 3 21 L 23 21 L 26 16 z "
     />
 <path 
     style="fill-opacity:0.2;fill-rule:evenodd"
     d="M 26 16 L 20 19 L 4 19 L 4 20 L 22 20 L 26 16 z M 3 57 L 3 58 L 4 58 L 60 58 L 61 58 L 61 57 L 60 57 L 4 57 L 3 57 z "
     class="ColorScheme-Text"
     />
 <path 
     style="fill:currentColor;fill-opacity:0.6;stroke:none"  
     d="M 25 30 C 22.79 30 21 32.7 21 36 L 21 43 C 21 44.8 23.1 45.7 24.4 44.4 L 26.8 42 L 27.5 42 A 2.5 2.5 0 0 0 29.5 43 A 2.5 2.5 0 0 0 31.5 42 L 32.4 42 A 2.5 2.5 0 0 0 34.4 43 A 2.5 2.5 0 0 0 36.4 42 L 37.2 42 L 39.6 44.4 C 40.8 45.7 43 44.8 43 43 L 43 36 C 43 32.7 41.21 30 39 30 L 25 30 z M 25 31 L 25 31 L 39 31 C 40.6 31 42 33.2 42 36 L 42 43 C 42 43.9 40.9 44.3 40.3 43.7 L 37.6 41 L 35.8 41 A 1.5 1.5 0 0 1 34.4 42 A 1.5 1.5 0 0 1 33 41 L 33 41 L 30.9 41 A 1.5 1.5 0 0 1 29.5 42 A 1.5 1.5 0 0 1 28.1 41 L 26.4 41 L 23.7 43.7 C 23.1 44.3 22 43.9 22 43 L 22 36 C 22 33.2 23.3 31 25 31 z M 25 32 L 25 34 L 23 34 L 23 36 L 25 36 L 25 38 L 27 38 L 27 36 L 29 36 L 29 34 L 27 34 L 27 32 L 25 32 z M 38 32 A 1 1 0 0 0 37 33 A 1 1 0 0 0 38 34 A 1 1 0 0 0 39 33 A 1 1 0 0 0 38 32 z M 36 34 A 1 1 0 0 0 35 35 A 1 1 0 0 0 36 36 A 1 1 0 0 0 37 35 A 1 1 0 0 0 36 34 z M 40 34 A 1 1 0 0 0 39 35 A 1 1 0 0 0 40 36 A 1 1 0 0 0 41 35 A 1 1 0 0 0 40 34 z M 38 36 A 1 1 0 0 0 37 37 A 1 1 0 0 0 38 38 A 1 1 0 0 0 39 37 A 1 1 0 0 0 38 36 z M 29.5 38 A 1.5 1.5 0 0 0 28 39.5 A 1.5 1.5 0 0 0 29.5 41 A 1.5 1.5 0 0 0 31 39.5 A 1.5 1.5 0 0 0 29.5 38 z M 34.5 38 A 1.5 1.5 0 0 0 33 39.5 A 1.5 1.5 0 0 0 34.5 41 A 1.5 1.5 0 0 0 36 39.5 A 1.5 1.5 0 0 0 34.5 38 z "
     class="ColorScheme-Text"
     />
</svg>
