<svg xmlns="http://www.w3.org/2000/svg" viewBox="0 0 64 64">
  <defs id="defs3051">
    <style type="text/css" id="current-color-scheme">
      .ColorScheme-Text {
        color:#232629;
      }
      .ColorScheme-Highlight {
        color:#3daee9;
      }
      </style>
  </defs>
 <path 
     style="fill:#9bd916" 
     d="M 4 6 L 4 11 L 4 20 L 3 20 L 3 21 L 3 21 C 3 21 3 21 3 21 L 3 57 L 3 58 L 4 58 L 60 58 L 61 58 L 61 57 L 61 21 L 61 21 L 61 16 L 60 16 L 60 11 C 60 11 60 11 60 11 L 60 11 L 60 10 L 32 10 L 28 6 L 4 6 z "
     />
 <path 
     style="fill-opacity:0.33"
     d="M 4 6 L 4 11 L 4 20 L 22 20 L 26 16 L 60 16 L 60 11 C 60 11 60 11 60 11 L 60 11 L 60 10 L 32 10 L 28 6 L 4 6 z "
     />
 <path 
     style="fill:#ffffff;fill-opacity:0.2"
     d="M 28 6 L 31 11 L 33 11 L 60 11 L 60 10 L 33 10 L 32 10 L 28 6 z M 26 16 L 22 20 L 3 20 L 3 21 L 23 21 L 26 16 z "
     />
 <path 
     style="fill-opacity:0.2;fill-rule:evenodd"
     d="M 26 16 L 20 19 L 4 19 L 4 20 L 22 20 L 26 16 z M 3 57 L 3 58 L 4 58 L 60 58 L 61 58 L 61 57 L 60 57 L 4 57 L 3 57 z "
     class="ColorScheme-Text"
     />
 <path 
     style="fill:currentColor;fill-opacity:0.6;stroke:none"  
     d="m 31.5,28 c -3,7.5e-4 -5.8,1.2 -7.9,3.4 l -2.7,-2.7 c -0.1,-0.1 -0.2,-0.2 -0.4,-0.2 -0.4,9e-5 -0.7,0.5 -0.3,0.9 L 23,32.2 c -1.6,2 -2.4,4.4 -2.4,6.9 v 7 h 22 v -7 c -0,-2.5 -0.9,-4.9 -2.4,-6.9 l 2.8,-2.8 c 0.3,-0.3 0.1,-0.8 -0.3,-0.9 -0.1,0 -0.3,0 -0.4,0.2 l -2.7,2.7 C 37.3,29.2 34.5,28 31.5,28 Z m 0,1 c 5.5,0 10,4.47715 10,10 v 6 h -20 v -6 c 0,-5.5 4.47715,-10 10,-10 z M 27,34 c -0.8,0 -1.5,0.7 -1.5,1.5 0,0.8 0.7,1.5 1.5,1.5 0.8,0 1.5,-0.7 1.5,-1.5 C 28.5,34.7 27.8,34 27,34 Z m 9,0 c -0.8,0 -1.5,0.7 -1.5,1.5 0,0.8 0.7,1.5 1.5,1.5 0.8,0 1.5,-0.7 1.5,-1.5 C 37.5,34.7 36.8,34 36,34 Z"
     class="ColorScheme-Text"
     />
</svg>
