<svg xmlns="http://www.w3.org/2000/svg" viewBox="0 0 64 64">
  <defs id="defs3051">
    <style type="text/css" id="current-color-scheme">
      .ColorScheme-Text {
        color:#232629;
      }
      .ColorScheme-Highlight {
        color:#3daee9;
      }
      </style>
  </defs>
 <path 
     style="fill:currentColor" 
     d="M 4 6 L 4 11 L 4 20 L 3 20 L 3 21 L 3 21 C 3 21 3 21 3 21 L 3 57 L 3 58 L 4 58 L 60 58 L 61 58 L 61 57 L 61 21 L 61 21 L 61 16 L 60 16 L 60 11 C 60 11 60 11 60 11 L 60 11 L 60 10 L 32 10 L 28 6 L 4 6 z "
     class="ColorScheme-Highlight"
     />
 <path 
     style="fill-opacity:0.33"
     d="M 4 6 L 4 11 L 4 20 L 22 20 L 26 16 L 60 16 L 60 11 C 60 11 60 11 60 11 L 60 11 L 60 10 L 32 10 L 28 6 L 4 6 z "
     />
 <path 
     style="fill:#ffffff;fill-opacity:0.2"
     d="M 28 6 L 31 11 L 33 11 L 60 11 L 60 10 L 33 10 L 32 10 L 28 6 z M 26 16 L 22 20 L 3 20 L 3 21 L 23 21 L 26 16 z "
     />
 <path 
     style="fill-opacity:0.2;fill-rule:evenodd"
     d="M 26 16 L 20 19 L 4 19 L 4 20 L 22 20 L 26 16 z M 3 57 L 3 58 L 4 58 L 60 58 L 61 58 L 61 57 L 60 57 L 4 57 L 3 57 z "
     class="ColorScheme-Text"
     />
 <path 
     style="fill:currentColor;fill-opacity:0.6;stroke:none"  
     d="M 45.7 20.8 C 43.9 21 29.5 36.1 29.5 36.1 L 24.9 41.2 C 24.3 41.4 23.152 41.222 22.5 41.5 C 20.9 42.1 19.9 42.779 19.1 45 C 18.4 46.9 20.4 50.16 22.1 49.6 C 21.3 49.6 20.3 48.5 20.8 47.7 C 21.8 45.8 25.75 46.217 25.6 42 L 30.6 37.3 C 30.6 37.3 46.9 22 45.9 21 L 45.8 21 L 45.7 20.8 z M 40.4 36.1 C 39.8 36.1 38.8 37.1 36.8 40.1 C 34.9 43.3 29.9 45.5 30.2 42.4 C 30.3 41.6 28.4 41.9 26.6 41.9 C 26.6 47.3 23.531172 45.9 21.7 48.2 C 21.5 50 29.9 51.077 34.4 48 C 39.8 44.3 40.9 39.3 41 37.6 C 41 36.7 40.8 36.1 40.4 36.1 z M 33.3 40 C 33.3 40.3 32.6 40.1 32.3 40.3 C 31.6 40.7 31.276 41.299219 31.5 41.7 C 31.7 42.1 32.4 42.1 33.1 41.7 C 33.8 41.3 34.124391 40.7 33.9 40.3 C 33.8 40.1 33.6 40 33.3 40 z "
     class="ColorScheme-Text"
     />
</svg>
