<svg xmlns="http://www.w3.org/2000/svg" viewBox="0 0 64 64">
  <defs id="defs3051">
    <style type="text/css" id="current-color-scheme">
      .ColorScheme-Text {
        color:#232629;
      }
      .ColorScheme-Highlight {
        color:#3daee9;
      }
      </style>
  </defs>
 <path 
     style="fill:currentColor" 
     d="M 4 6 L 4 11 L 4 20 L 3 20 L 3 21 L 3 21 C 3 21 3 21 3 21 L 3 57 L 3 58 L 4 58 L 60 58 L 61 58 L 61 57 L 61 21 L 61 21 L 61 16 L 60 16 L 60 11 C 60 11 60 11 60 11 L 60 11 L 60 10 L 32 10 L 28 6 L 4 6 z "
     class="ColorScheme-Highlight"
     />
 <path 
     style="fill-opacity:0.33"
     d="M 4 6 L 4 11 L 4 20 L 22 20 L 26 16 L 60 16 L 60 11 C 60 11 60 11 60 11 L 60 11 L 60 10 L 32 10 L 28 6 L 4 6 z "
     />
 <path 
     style="fill:#ffffff;fill-opacity:0.2"
     d="M 28 6 L 31 11 L 33 11 L 60 11 L 60 10 L 33 10 L 32 10 L 28 6 z M 26 16 L 22 20 L 3 20 L 3 21 L 23 21 L 26 16 z "
     />
 <path 
     style="fill-opacity:0.2;fill-rule:evenodd"
     d="M 26 16 L 20 19 L 4 19 L 4 20 L 22 20 L 26 16 z M 3 57 L 3 58 L 4 58 L 60 58 L 61 58 L 61 57 L 60 57 L 4 57 L 3 57 z "
     class="ColorScheme-Text"
     />
 <path 
     style="fill:currentColor;fill-opacity:0.6;stroke:none"  
     d="M 32 27 C 31.6 27 31.3 27 31 27 C 30.3 27.1 29.6 27.2 29 27.4 C 25.9 28.4 23.4 30.9 22.4 34 C 22.2 34.6 22.1 35.3 22 36 C 22 36.3 22 36.6 22 37 C 22 37.3 22 37.7 22 38 C 22.1 38.7 22.2 39.3 22.4 40 C 23.4 43.1 25.9 45.6 29 46.6 C 29.6 46.7 30.3 46.9 31 46.9 C 31.3 47 31.6 47 32 47 C 32.3 47 32.7 47 33 46.9 C 33.7 46.9 34.3 46.7 35 46.6 C 35.6 46.4 36.2 46.1 36.8 45.8 C 39 44.5 40.8 42.5 41.6 40 C 41.7 39.3 41.9 38.7 41.9 38 C 42 37.7 42 37.3 42 37 C 42 36.6 42 36.3 41.9 36 C 41.9 35.3 41.7 34.6 41.6 34 C 41.2 32.8 40.5 31.6 39.72 30.6 C 39.5 30.4 39.3 30.2 39 29.9 C 38.2 29 37.1 28.3 35.9 27.8 C 35.6 27.7 35.3 27.5 35 27.4 C 34.3 27.2 33.7 27.1 33 27 C 32.7 27 32.3 27 32 27 z M 32 28 C 33.5 28 34.9 28.4 36.2 29 C 36.2 29 36.2 29.1 36.3 29.09 C 36.3 29.1 36.3 29.2 36.34 29.2 C 36.4 29.2 36.4 29.2 36.4 29.25 C 36.5 29.3 36.5 29.3 36.5 29.375 C 36.5 29.4 36.4 29.4 36.34 29.5 C 36.3 29.6 36.3 29.6 36.3 29.66 C 36.3 29.7 36.3 29.7 36.34 29.75 C 36.3 29.8 36.3 29.8 36.3 29.9 C 36.4 30 36.5 29.9 36.6 29.9 C 36.8 29.8 36.9 29.9 37 29.8 C 37 29.7 37.1 29.7 37.16 29.6 C 37.2 29.7 37.3 29.7 37.34 29.8 C 37.3 29.8 37.2 29.8 37.2 29.84 C 37.1 29.9 37.1 29.9 37 30 C 37 30 37 30.09 36.9 30.09 C 36.8 30.09 36.7 30 36.69 30 C 36.6 30.1 36.6 30.1 36.59 30.2 C 36.5 30.2311 36.3 30.1 36.22 30.25 C 36.3 30.3536 36.4 30.3 36.5 30.375 C 36.6 30.4114 36.7 30.6 36.69 30.66 C 36.7 30.70715 36.7 30.9 36.69 30.9 C 36.6311 31.1 36.47975 31 36.3125 31 C 36.267 31 36.2 31.1 36.2 31 C 35.9 31 35.6 31 35.5 31.16 C 35.509 31.3 35.5 31.4 35.5 31.5 C 35.4746 31.6 35.4 31.7 35.375 31.8 C 35.377 31.8 35.5 31.9 35.5 32 C 35.5 32 35.4 32 35.469 32.09 C 35.51605 32.2 35.6 32.07925 35.72 32.09 C 35.799 32.1 35.9 32.2 35.9 32.3 C 35.9 32.3761 35.8 32.5 35.8 32.6 C 35.7325 32.68245 35.6 32.6 35.469 32.72 C 35.4 32.77325 35.3 32.9 35.3 33 C 35.2 33.1 35.1 33.1 35.2 33.3 C 35.1057 33.4 35 33.5 34.84 33.6 C 34.8 33.6 34.7 33.7 34.69 33.72 C 34.6 33.74415 34.6 33.8 34.6 33.84 C 34.5 33.91465 34.40954 34 34.375 34 C 34.3495 34.0418 34.4 34.1 34.34 34.2 C 34.3 34.2 34.2 34.3 34.2 34.4 C 34.1639 34.4 34.11915 34.5 34.09 34.5 C 34 34.63667 34 34.7 34 34.8 C 34 34.9016 34.1 34.9 34.09 35 C 34.1 35.0436 34 35.1 34 35.125 C 34 35.2 34.1 35.2 34.09 35.3 C 34.1 35.4 34.0254 35.5 34 35.6 C 33.9873 35.6061 34.0109 35.65297 34 35.69 C 33.9782 35.7548 33.87682 35.79503 33.9 35.9 C 33.873 35.9314 34 35.98257 34 36 C 33.97275 36.117 33.9266 36.16786 33.9 36.22 C 33.9575 36.31695 34.1424 36.45491 34.22 36.5 C 34.32238 36.63486 34.42331 36.70344 34.469 36.8 C 34.5 36.9052 34.5229 37.05593 34.59 37.125 C 34.64645 37.1759 34.74524 37.19733 34.8 37.25 C 34.8761 37.2991 34.96398 37.32226 35 37.375 C 35.14215 37.4623 35.29239 37.63773 35.469 37.6 C 35.56145 37.618 35.64637 37.5806 35.75 37.6 C 35.85726 37.5443 36 37.5 36.09 37.5 C 36.2 37.509 36.2 37.568 36.34 37.6 C 36.43465 37.5575 36.55263 37.51415 36.66 37.469 C 36.83624 37.39055 37.11321 37.2 37.375 37.3 C 37.6 37.3 37.6 37.53594 37.72 37.6 C 37.87873 37.6395 37.99774 37.5941 38.125 37.6 C 38.2214 37.6486 38.33466 37.82992 38.34 37.906 C 38.35275 38 38.3 38 38.3 38.09 C 38.25585 38.19917 38.23685 38.339 38.22 38.406 C 38.20425 38.45895 38.1857 38.50979 38.2 38.6 C 38.2 38.6098 38.26336 38.71945 38.3125 38.8 C 38.4 38.8 38.45853 38.91639 38.5 39 C 38.66397 39.15267 38.71978 39.36074 38.8 39.6 C 38.8361 39.6134 38.7907 39.62387 38.8 39.69 C 38.7725 39.99286 38.66873 40.19318 38.469 40.5 C 38.4 40.6403 38.27943 40.76994 38.3 40.906 C 38.27425 41.23341 38.45205 41.40249 38.4 41.72 C 38.4048 42.14406 38.43905 42.21031 38.406 42.4 C 38.54988 42.5102 38.4793 42.72414 38.4 42.9 C 38.3757 43.05493 38.31579 43.09879 38.3 43.22 C 38.355809 43.250997 38.418288 43.259077 38.5 43.25 C 36.8645 44.95242 34.548632 46 32 46 C 30.807001 46 29.66687 45.765291 28.6 45.34 C 28.621504 45.342335 28.628494 45.313919 28.6 45.3125 C 28.7195 45.2725 28.89967 45.3827 28.969 45.25 C 29.00335 45.1864 28.92325 45.06362 28.969 45 C 29.00145 44.9564 29.21399 44.91715 29.3 44.906 C 29.37765 44.88985 29.47671 44.9096 29.5 44.9 C 29.59125 44.8368 29.66716 44.73769 29.66 44.6 C 29.65125 44.5723 29.6042 44.54724 29.6 44.5 C 29.528 44.46 29.55485 44.41137 29.5 44.375 C 29.48765 44.3114 29.42443 44.28026 29.406 44.2 C 29.53715 44.1621 29.71718 44.33399 29.906 44.3 C 29.99535 44.25575 30.14568 44.0836 30.2 44 C 30.2002 43.9745 30.173 43.8747 30.2 43.84 C 30.2039 43.80925 30.2445 43.79935 30.25 43.8 C 30.2627 43.73215 30.2391 43.7183 30.25 43.69 C 30.2827 43.5948 30.38295 43.536 30.4 43.469 C 30.4793 43.41785 30.52427 43.36521 30.6 43.3125 C 30.6061 43.2561 30.62725 43.23665 30.66 43.2 C 30.68355 43.0221 30.55375 42.8954 30.59 42.75 C 30.63735 42.58642 30.87309 42.48077 31 42.406 C 31.08575 42.38075 31.14205 42.3288 31.2 42.3125 C 31.29658 42.2743 31.42944 42.2863 31.5 42.25 C 31.70215 42.1882 31.76011 42.00005 31.84 41.84 C 31.88375 41.77105 31.9302 41.70896 31.9 41.66 C 31.9445 41.60895 31.9285 41.55456 31.9 41.5 C 31.9465 41.4455 31.95425 41.40373 32 41.34 C 31.989 41.26555 32 41.11849 32 41 C 32 40.95855 31.97055 40.94043 32 40.9 C 31.95605 40.63872 32.03775 40.62904 32.125 40.5 C 32.1686 40.4364 32.18795 40.32668 32.22 40.3 C 32.36601 40.06314 32.61193 39.95579 32.59 39.6 C 32.58675 39.51594 32.54871 39.28454 32.469 39.25 C 32.42325 39.23 32.31727 39.24415 32.25 39.22 C 32.03547 39.139 31.87986 38.89317 31.66 38.9 C 31.60895 38.873 31.58399 38.877 31.5 38.9 C 31.44395 38.873 31.34817 38.79215 31.25 38.8 C 31.1882 38.77425 31.06761 38.79945 31 38.8 C 30.97485 38.75395 30.9829 38.6559 30.9 38.6 C 30.9011 38.5995 30.8376 38.5825 30.8 38.6 C 30.69215 38.528 30.63488 38.5073 30.5 38.5 C 30.49855 38.498 30.41133 38.505 30.375 38.5 C 30.3186 38.491 30.27147 38.43895 30.22 38.406 C 30.15335 38.366 30.12102 38.33761 30.09 38.3 C 30.15375 38.08495 29.946 38.052 29.906 37.9 C 29.88805 37.8848 29.92445 37.79726 29.906 37.75 C 29.88265 37.6827 29.82455 37.65008 29.75 37.59 C 29.6191 37.49196 29.49976 37.39862 29.3125 37.375 C 29.2289 37.366 29.13124 37.382 29 37.375 C 28.92581 37.368 28.79874 37.30961 28.72 37.22 C 28.64235 37.12965 28.62976 37.0418 28.6 37 C 28.4989 36.96 28.38738 36.94795 28.34 36.906 C 28.32375 36.88805 28.3307 36.8542 28.3125 36.8 C 28.2798 36.747 28.21 36.73618 28.25 36.66 C 28.1773 36.61985 28.20317 36.7021 28.125 36.69 C 28.0541 36.59 28.00373 36.5316 27.84 36.6 C 27.77105 36.577 27.71045 36.68569 27.6 36.69 C 27.5541 36.6895 27.49897 36.57522 27.406 36.6 C 27.33535 36.5535 27.23659 36.6359 27.2 36.6 C 27.1093 36.6105 27.10211 36.51609 27 36.469 C 26.97855 36.43415 26.87284 36.34194 26.84 36.34 C 26.75285 36.34575 26.68794 36.536 26.6 36.469 C 26.5007 36.39055 26.66651 36.38516 26.59 36.3125 C 26.53925 36.258 26.51241 36.31475 26.469 36.34 C 26.41785 36.37825 26.36885 36.4176 26.3125 36.4 C 26.18705 36.4848 26.09817 36.48045 26 36.5 C 25.9091 36.57855 25.89647 36.6573 25.84 36.75 C 25.80195 36.8264 25.71988 36.93386 25.66 36.9 C 25.57985 36.9425 25.50659 36.84157 25.4 36.8 C 25.22843 36.7216 25.11021 36.8732 24.9 36.9 C 24.77751 36.877 24.55523 36.61962 24.6 36.469 C 24.5675 36.37605 24.6141 36.2395 24.6 36.125 C 24.634 36.0341 24.71705 35.95861 24.72 35.9 C 24.72075 35.76413 24.54147 35.66898 24.469 35.66 C 24.29785 35.635 24.06953 35.73265 23.9 35.66 C 23.8386 35.59445 23.94695 35.55999 24 35.5 C 23.98145 35.4655 23.95605 35.44445 24 35.406 C 23.99055 35.34805 24.06649 35.3118 24.09 35.25 C 24.11375 35.2027 24.105 35.12067 24.125 35 C 24.1486 34.997 24.21325 34.95351 24.22 34.906 C 24.22575 34.84445 24.174 34.75874 24.125 34.72 C 23.9741 34.72775 23.86852 34.74165 23.8 34.8 C 23.58491 34.87035 23.63567 35.12571 23.4 35.2 C 23.3702 35.2093 23.26386 35.2373 23.2 35.25 C 23.316813 34.595726 23.518453 33.969954 23.8 33.375 C 23.85035 33.3877 23.90876 33.432 24 33.4 C 24.13601 33.4502 24.14307 33.3227 24.3 33.25 C 24.42306 33.27 24.49592 33.2355 24.6 33.25 C 24.7123 33.259 24.83717 33.36955 24.906 33.375 C 24.96445 33.377 24.9767 33.3034 25 33.3125 C 25.08575 33.3215 25.17841 33.43456 25.2 33.5 C 25.1965 33.5818 25.13255 33.65912 25.16 33.75 C 25.24175 33.8373 25.40944 33.88661 25.5 33.9 C 25.61125 33.872 25.54395 33.71952 25.5 33.6 C 25.52925 33.5832 25.536 33.53824 25.5 33.5 C 25.52225 33.4346 25.5 33.36884 25.5 33.3125 C 25.5 33.05259 25.70047 32.94554 25.9 32.84 C 25.9495 32.80015 26.0283 32.72022 26.09 32.69 C 26.18645 32.642 26.23614 32.63735 26.3125 32.59 C 26.45066 32.51555 26.58023 32.43282 26.69 32.34 C 26.7366 32.22562 26.6825 32.08507 26.69 32 C 26.7366 31.93785 26.75983 31.97375 26.8 32 C 26.8961 31.95055 26.92147 31.8285 26.969 31.8 C 26.99605 31.75395 27.09224 31.74595 27.125 31.72 C 27.2086 31.65325 27.2085 31.56034 27.3 31.5 C 27.30675 31.52225 27.3662 31.5109 27.406 31.5 C 27.46085 31.4855 27.53774 31.43705 27.6 31.406 C 27.6814 31.386 27.82193 31.3968 27.84 31.375 C 27.87105 31.3477 27.83675 31.22931 27.84 31.2 C 27.88735 30.98212 28.19138 30.97533 28.375 30.906 C 28.50226 30.85715 28.63944 30.75398 28.8 30.8 C 28.75395 30.87935 28.63261 30.85059 28.66 31 C 28.68715 31.13415 28.87932 30.92985 28.9 30.906 C 29.0484 30.85895 29.2608 30.83399 29.406 30.8 C 29.53351 30.73585 29.74498 30.64722 29.6 30.5 C 29.525 30.493 29.49351 30.58864 29.406 30.6 C 29.3 30.634 29.33212 30.59735 29.3 30.59 C 29.23215 30.59175 29.20539 30.6341 29.16 30.6 C 29.10715 30.616 29.03852 30.52691 29 30.469 C 29.01125 30.31608 29.1882 30.26894 29.25 30.16 C 29.2082 30.01811 29.0226 30.14825 28.906 30.09 C 28.91895 30.01195 28.96615 29.92262 29 29.906 C 29.1407 29.89355 29.32773 29.93095 29.375 30 C 29.4023 29.99235 29.36454 30.0555 29.406 30.09 C 29.45355 30.13555 29.53194 30.10275 29.59 30.09 C 29.61555 29.99015 29.45057 30.036 29.469 30 C 29.59237 29.889 29.81785 29.926 30 29.906 C 30.05605 29.89355 30.14057 29.82308 30.22 29.8 C 30.29145 29.73945 30.36114 29.68089 30.4 29.75 C 30.4593 29.8245 30.38545 29.86808 30.34 29.906 C 30.20376 30.02984 30.07783 30.16892 30 30.3125 C 30.03605 30.378 30.13728 30.33105 30.25 30.34 C 30.2936 30.349 30.36079 30.3678 30.406 30.375 C 30.46085 30.384 30.51886 30.366 30.6 30.375 C 30.6389 30.3932 30.6424 30.5 30.72 30.5 C 30.84238 30.5 30.8522 30.39611 30.8 30.3125 C 30.80305 30.227 30.8435 30.15374 30.8 30.09 C 30.7561 29.98106 30.54216 30.11229 30.5 30 C 30.52425 29.87785 30.62351 29.85033 30.66 29.8 C 30.64175 29.60677 30.79943 29.59563 30.8 29.4 C 30.77225 29.372 30.70172 29.37424 30.66 29.3125 C 30.63265 29.2798 30.62095 29.21113 30.59 29.2 C 30.49925 29.1075 30.32341 29.12144 30.3125 28.969 C 30.3075 28.87785 30.3252 28.81689 30.3125 28.72 C 30.2998 28.62605 30.20496 28.36193 30.125 28.34 C 30.02319 28.32195 29.96556 28.50616 29.84 28.6 C 29.77835 28.5934 29.66101 28.60655 29.59 28.59 C 29.55015 28.58475 29.47421 28.5523 29.469 28.469 C 29.46425 28.4206 29.479838 28.403505 29.5 28.375 C 29.504744 28.368293 29.495114 28.350807 29.5 28.34 C 30.290994 28.116421 31.135895 28 32 28 z M 28.3 28.8 C 28.192533 29.096611 27.935719 29.258803 27.59 29.25 C 27.51015 29.33 27.5454 29.48287 27.5 29.59 C 27.4618 29.68645 27.34271 29.75728 27.25 29.75 C 27.1827 29.745 27 29.65736 27 29.59 C 27 29.541617 27.112911 29.482727 27.125 29.4 C 27.493045 29.19953 27.878877 28.995578 28.3 28.8 z M 35.9 29.125 C 35.904 29.131 35.87325 29.13895 35.84 29.16 C 35.77465 29.19805 35.77149 29.26126 35.72 29.3 C 35.64425 29.30855 35.54216 29.3078 35.5 29.375 C 35.52225 29.4314 35.59565 29.44912 35.59 29.5 C 35.56645 29.5673 35.5146 29.5744 35.5 29.66 C 35.5927 29.80711 35.82297 29.6578 35.9 29.6 C 35.9884 29.6105 36.03523 29.63335 36 29.59 C 36.0934 29.54465 36.07015 29.44407 36.09 29.375 C 36.11925 29.2986 36.1966 29.31724 36.2 29.25 C 36.1805 29.1827 36.05022 29.1141 35.9 29.125 z M 26 30.3 C 26.097911 30.361706 26.153711 30.478596 26 30.5 C 26.01305 30.54025 25.79363 30.5716 25.75 30.6 C 25.736462 30.560577 25.730896 30.539692 25.72 30.5 C 25.814324 30.438424 25.931643 30.369794 26 30.3 z M 26.3 30.59 C 26.32485 30.59575 26.35531 30.6839 26.406 30.69 C 26.45535 30.6915 26.53336 30.64715 26.6 30.66 C 26.6389 30.676 26.66651 30.81865 26.59 30.9 C 26.53375 30.882 26.51232 30.8034 26.469 30.8 C 26.34512 30.8343 26.31147 31.06977 26.22 31 C 26.13145 31.0535 26.06712 30.87612 26.16 30.8 C 26.15825 30.7579 26.1213 30.74205 26.125 30.69 C 26.1523 30.653 26.20849 30.58835 26.3 30.59 z M 25.9 30.66 C 25.9005 30.66 25.89715 30.64535 25.906 30.66 C 25.89355 30.75255 25.85572 30.76706 25.8 30.8 C 25.65217 30.8907 25.57307 30.98903 25.5 31.16 C 25.51855 31.20535 25.37431 31.35646 25.3125 31.34 C 25.16887 31.31285 25.37355 31.0418 25.406 31 C 25.44265 30.9545 25.48948 30.92595 25.5 30.9 C 25.57305 30.8241 25.5851 30.71658 25.6 30.69 C 25.6686 30.6566 25.79865 30.65255 25.9 30.66 z M 38.2 30.906 C 38.33112 30.89725 38.4033 31.069 38.469 31.16 C 38.52325 31.22715 38.69215 31.32592 38.8 31.375 C 38.83215 31.4023 38.88114 31.44335 38.9 31.469 C 38.99658 31.4951 39.086475 31.52965 39.16 31.59 C 39.226025 31.65785 39.27852 31.75434 39.3 31.8 C 39.28325 31.8707 39.2409 31.91422 39.25 32 C 39.312984 31.979 39.345647 31.914902 39.375 31.84 C 39.610639 32.179878 39.811319 32.538592 40 32.906 C 39.961721 32.929959 39.945246 32.953158 39.9 33 C 39.9193 33.10178 39.99645 33.23183 39.84 33.25 C 39.74745 33.2627 39.63271 33.15404 39.5 33.125 C 39.4455 33.1123 39.35613 33.1395 39.3125 33.125 C 39.2125 33.0905 39.24171 32.96623 39.16 32.906 C 39.10715 32.87165 38.98443 32.8215 38.906 32.8 C 38.85715 32.8075 38.83211 32.8195 38.8 32.8 C 38.71945 32.8055 38.6134 32.81215 38.6 32.8 C 38.5134 32.75035 38.38773 32.69809 38.375 32.66 C 38.355 32.58895 38.52762 32.49385 38.5 32.4 C 38.53525 32.3939 38.47785 32.37793 38.469 32.3125 C 38.46175 32.2725 38.47775 32.21296 38.469 32.2 C 38.45605 32.1402 38.38702 32.09555 38.3125 32.09 C 38.247 32.09 38.18136 32.125 38.125 32.125 C 38.045 32.127 37.88124 32.08465 37.8 32.09 C 37.72125 32.099 37.68136 32.1214 37.6 32.125 C 37.46683 32.1377 37.37363 32.116 37.25 32.125 C 37.1609 32.13 36.98988 32.18065 36.906 32.22 C 36.86445 32.239 36.8358 32.2853 36.8 32.3125 C 36.75585 32.3252 36.7203 32.32925 36.69 32.34 C 36.6366 32.36735 36.54909 32.4248 36.5 32.4 C 36.4291 32.4557 36.34783 32.4325 36.22 32.4 C 36.12605 32.4425 35.97057 32.42334 36 32.3125 C 35.96675 32.14347 36.27752 32.21654 36.4 32.2 C 36.4975 32.1748 36.521 32.10427 36.59 32 C 36.62835 32.0425 36.6548 32.0218 36.69 32 C 36.742 31.9618 36.83466 31.88738 36.84 31.84 C 36.85075 31.80375 36.807 31.74778 36.8 31.72 C 36.8195 31.68055 36.88842 31.64282 36.9 31.59 C 37.0139 31.51735 37.06171 31.42407 37.16 31.375 C 37.21985 31.3405 37.34591 31.33205 37.375 31.3 C 37.382 31.22305 37.373 31.20899 37.375 31.16 C 37.415 31.11985 37.4048 31.10095 37.4 31.09 C 37.5357 31.07195 37.63547 31.1305 37.75 31.125 C 37.7991 31.123 37.85353 31.12855 37.906 31.09 C 37.94985 31.06465 37.98761 31.0218 38 31 C 38.07855 30.9745 38.12926 30.90985 38.2 30.906 z M 26.72 31 C 26.742805 30.996162 26.78338 31.0027 26.8 31 C 26.8543 30.998 26.89205 31 26.9 31 C 26.983 31 27.04432 30.9818 27 31 C 27.0334 31.11996 26.75079 31.07495 26.66 31 C 26.659 31.0085 26.694695 31.003838 26.72 31 z M 26.375 31.22 C 26.4059 31.22 26.43605 31.20605 26.469 31.22 C 26.38515 31.28965 26.27045 31.32956 26.125 31.375 C 26.0559 31.3968 25.95023 31.42005 25.9 31.34 C 25.9229 31.24925 26.00066 31.259 26 31.25 C 26.1425 31.241 26.28228 31.22055 26.375 31.22 z M 38.22 31.22 C 38.159 31.239 38.12965 31.35865 38.22 31.375 C 38.26055 31.3496 38.261 31.2951 38.25 31.22 C 38.2264 31.19335 38.23685 31.21175 38.22 31.22 z M 38.2 31.469 C 38.1584 31.47775 38.12455 31.4672 38.09 31.5 C 38.09575 31.60178 38.11375 31.66094 38.09 31.75 C 38.15195 31.86269 38.28342 31.79505 38.3125 31.72 C 38.3471 31.52972 38.27476 31.44512 38.2 31.469 z M 38.969 32 C 38.889 31.96475 38.82852 31.99345 38.8 32 C 38.84855 32.14031 38.9741 32.16023 39.125 32.2 C 39.1795 32.1475 39.1621 32.03782 39.2 32 C 39.122 32 39.07999 31.97275 39 32 L 38.969 32 z M 23.09 35.8 C 23.157613 35.893874 23.226645 35.988767 23.3125 36 C 23.358 36.05485 23.41057 36.0498 23.469 36 C 23.51605 36.0715 23.54832 36.1105 23.59 36.125 C 23.69015 36.1577 23.8299 36.153 23.906 36.2 C 24.02261 36.2384 24.09 36.44183 24.2 36.5 C 24.1925 36.5582 24.1693 36.61263 24.2 36.66 C 24.2348 36.71985 24.32988 36.73949 24.406 36.8 C 24.49895 36.83215 24.53774 36.96001 24.6 37 C 24.6559 37.0127 24.70266 36.9855 24.75 37 C 24.86999 37.0364 24.89637 37.21839 25 37.2 C 25.0673 37.1675 25.08285 37.06543 25.09 37 C 25.13925 36.9509 25.17904 36.9 25.25 36.9 C 25.36271 36.873 25.39568 37.01414 25.4 37.125 C 25.4611 37.1868 25.51495 37.24707 25.5 37.3125 C 25.55855 37.42519 25.55485 37.74525 25.5 37.8 C 25.50215 37.8961 25.38159 37.94037 25.3125 38 C 25.2798 38.07485 25.24415 38.12721 25.22 38.16 C 25.17515 38.21075 25.12652 38.23221 25.09 38.3 C 25.07555 38.30855 25.0788 38.36809 25 38.406 C 25.0079 38.52257 24.92327 38.61004 25 38.75 C 24.98695 38.8064 25 38.87026 25 38.9 C 25 39.0175 24.88773 39.03776 24.9 39.125 C 24.866 39.1886 24.94885 39.32082 25 39.406 C 24.98325 39.46985 25.08682 39.52069 25.125 39.6 C 25.1886 39.6334 25.25432 39.72162 25.3125 39.8 C 25.42703 39.9888 25.48105 40.20233 25.59 40.375 C 25.6 40.4641 25.7725 40.53049 25.8 40.6 C 25.8325 40.6723 25.7943 40.76889 25.8 40.8 C 25.8779 40.95973 26.19649 41.1148 26.34 41.2 C 26.41285 41.2221 26.46763 41.24485 26.5 41.3 C 26.62765 41.33585 26.82592 41.44583 26.9 41.5 C 26.9186 41.60765 26.94695 41.78448 26.969 41.906 C 26.99605 42.0662 26.96175 42.20232 26.969 42.375 C 26.97375 42.4695 27 42.53048 27 42.6 C 27 42.6577 27.002 42.71727 27 42.75 C 26.998 42.86269 27.009 42.97925 27 43.09 C 26.995 43.15555 26.996 43.22854 27 43.3 C 27.005 43.33765 27.0589 43.35719 27 43.406 C 27.0665 43.45895 26.9945 43.5207 27 43.6 C 27.0127 43.67701 27.13443 43.76958 27.16 43.9 C 27.17445 43.9586 27.1984 44.15003 27.2 44.25 C 27.1805 44.3027 27.16355 44.37934 27.16 44.4 C 27.15125 44.483 27.16325 44.52073 27.16 44.6 C 24.664537 42.961964 23 40.18145 23 37 C 23 36.592124 23.041191 36.205995 23.09 35.8 z M 26.5 36.72 C 26.61855 36.679 26.60215 36.83284 26.5 36.84 C 26.46395 36.85275 26.46585 36.7497 26.5 36.72 z "
     class="ColorScheme-Text"
     />
</svg>
