<svg xmlns="http://www.w3.org/2000/svg" viewBox="0 0 64 64">
  <defs id="defs3051">
    <style type="text/css" id="current-color-scheme">
      .ColorScheme-Text {
        color:#232629;
      }
      .ColorScheme-Highlight {
        color:#3daee9;
      }
      </style>
  </defs>
 <path 
     style="fill:currentColor" 
     d="M 4 6 L 4 11 L 4 20 L 3 20 L 3 21 L 3 21 C 3 21 3 21 3 21 L 3 57 L 3 58 L 4 58 L 60 58 L 61 58 L 61 57 L 61 21 L 61 21 L 61 16 L 60 16 L 60 11 C 60 11 60 11 60 11 L 60 11 L 60 10 L 32 10 L 28 6 L 4 6 z "
     class="ColorScheme-Highlight"
     />
 <path 
     style="fill-opacity:0.33"
     d="M 4 6 L 4 11 L 4 20 L 22 20 L 26 16 L 60 16 L 60 11 C 60 11 60 11 60 11 L 60 11 L 60 10 L 32 10 L 28 6 L 4 6 z "
     />
 <path 
     style="fill:#ffffff;fill-opacity:0.2"
     d="M 28 6 L 31 11 L 33 11 L 60 11 L 60 10 L 33 10 L 32 10 L 28 6 z M 26 16 L 22 20 L 3 20 L 3 21 L 23 21 L 26 16 z "
     />
 <path 
     style="fill-opacity:0.2;fill-rule:evenodd"
     d="M 26 16 L 20 19 L 4 19 L 4 20 L 22 20 L 26 16 z M 3 57 L 3 58 L 4 58 L 60 58 L 61 58 L 61 57 L 60 57 L 4 57 L 3 57 z "
     class="ColorScheme-Text"
     />
 <path 
     style="fill:currentColor;fill-opacity:0.6;stroke:none"  
     d="m 32,25 a 11,3 0 0 0 -11,3 v 16 a 11,3 0 0 0 11,3 11,3 0 0 0 11,-3 V 28 A 11,3 0 0 0 32,25 m 0,1 A 10,2 0 0 1 42,28 10,2 0 0 1 32,30 10,2 0 0 1 22,28 10,2 0 0 1 32,26 M 22,29.24219 A 11,3 0 0 0 32,31 11,3 0 0 0 42,29.24219 v 3.758 a 10,2 0 0 1 -10,2 10,2 0 0 1 -10,-2 z m 0,5 A 11,3 0 0 0 32,36 11,3 0 0 0 42,34.24219 v 4.758 a 10,2 0 0 1 -10,2 10,2 0 0 1 -10,-2 z m 0,6 A 11,3 0 0 0 32,42 11,3 0 0 0 42,40.24219 v 3.758 a 10,2 0 0 1 -10,2 10,2 0 0 1 -10,-2 v -1 z"
     class="ColorScheme-Text"
     />
</svg>
