<svg xmlns="http://www.w3.org/2000/svg" viewBox="0 0 64 64">
  <defs id="defs3051">
    <style type="text/css" id="current-color-scheme">
      .ColorScheme-Text {
        color:#232629;
      }
      .ColorScheme-Highlight {
        color:#3daee9;
      }
      </style>
  </defs>
 <path 
     style="fill:currentColor" 
     d="M 4 6 L 4 11 L 4 20 L 3 20 L 3 21 L 3 21 C 3 21 3 21 3 21 L 3 57 L 3 58 L 4 58 L 60 58 L 61 58 L 61 57 L 61 21 L 61 21 L 61 16 L 60 16 L 60 11 C 60 11 60 11 60 11 L 60 11 L 60 10 L 32 10 L 28 6 L 4 6 z "
     class="ColorScheme-Highlight"
     />
 <path 
     style="fill-opacity:0.33"
     d="M 4 6 L 4 11 L 4 20 L 22 20 L 26 16 L 60 16 L 60 11 C 60 11 60 11 60 11 L 60 11 L 60 10 L 32 10 L 28 6 L 4 6 z "
     />
 <path 
     style="fill:#ffffff;fill-opacity:0.2"
     d="M 28 6 L 31 11 L 33 11 L 60 11 L 60 10 L 33 10 L 32 10 L 28 6 z M 26 16 L 22 20 L 3 20 L 3 21 L 23 21 L 26 16 z "
     />
 <path 
     style="fill-opacity:0.2;fill-rule:evenodd"
     d="M 26 16 L 20 19 L 4 19 L 4 20 L 22 20 L 26 16 z M 3 57 L 3 58 L 4 58 L 60 58 L 61 58 L 61 57 L 60 57 L 4 57 L 3 57 z "
     class="ColorScheme-Text"
     />
 <path 
     style="fill:currentColor;fill-opacity:0.6;stroke:none"  
     d="m 24,26 v 3 h 1 v 5.057 a 2.5,2.5 0 0 0 -2,2.4 2.5,2.5 0 0 0 2,2.4 v 5.05 h -1 v 3 h 3 v -3 h -1 v -3.5 a 13,10.5 0 0 0 12,6.5 13,10.5 0 0 0 1,-0.041 V 46 A 12,9.5 0 0 1 38,46 12,9.5 0 0 1 26.4,38.8 2.5,2.5 0 0 0 28,36.5 2.5,2.5 0 0 0 26.4,34.1572 12,9.5 0 0 1 38,27 a 12,9.5 0 0 1 1,0.0391 v -1.01 a 13,10.5 0 0 0 -1,-0 13,10.5 0 0 0 -12,6.5 v -3.512 h 1 v -3 z m 1,1 h 1 v 1 h -1 z m 0.5,8 a 1.5,1.5 0 0 1 1.5,1.5 1.5,1.5 0 0 1 -1.5,1.5 1.5,1.5 0 0 1 -1.5,-1.5 1.5,1.5 0 0 1 1.5,-1.5 m -0.5,10 h 1 v 1 h -1 z"
     class="ColorScheme-Text"
     />
</svg>
