<svg xmlns="http://www.w3.org/2000/svg" viewBox="0 0 22 22">
    <defs id="defs3051">
        <style type="text/css" id="current-color-scheme">
            .ColorScheme-Text {
                color:#232629;
            }
        </style>
    </defs>
    <path style="fill:currentColor;fill-opacity:1;stroke:none"
        d="M 11 11 m -9 0 a 8 8 0 1 0 18 0 a 8 8 0 1 0 -18 0 z M 11 11 m -8 0 a 7 7 0 1 1 16 0 a 7 7 0 1 1 -16 0 z M 16.4 5.6 L 9.4 9.4 L 5.6 16.4 L 12.6 12.6 z M 11 11 m -1 0 a 0.5 0.5 0 1 1 2 0 a 0.5 0.5 0 1 1 -2 0 z M 2.5 11 L 2.5 12 L 5 11 z M 11 2.5 L 10 2.5 L 11 5 z M 19.5 11 L 19.5 10 L 17 11 z M 11 19.5 L 12 19.5 L 11 17 z"
        class="ColorScheme-Text"
        />
</svg>
