<!DOCTYPE svg>
<svg viewBox="0 0 22 22" version="1.1" xmlns="http://www.w3.org/2000/svg">
    <defs>
        <style type="text/css" id="current-color-scheme">
            .ColorScheme-Text {
                color:#232629;
            }
        </style>
    </defs>
    <path class="ColorScheme-Text" style="fill:currentColor; fill-opacity:1; stroke:none" d="M 4 3 L 4 4 L 4 11 L 4 13 L 6 13 L 6 11 L 5 11 L 5 4 L 13 4 L 13 8 L 17 8 L 17 11 L 18 11 L 18 7 L 14 3 L 5 3 L 4 3 Z M 8 11 L 8 13 L 10 13 L 10 11 L 8 11 Z M 15.5 13 C 14.669 13 14 13.669 14 14.5 L 14 16 L 13 16 L 13 19 L 18 19 L 18 16 L 17 16 L 17 14.5 C 17 13.669 16.331 13 15.5 13 Z M 6 14 L 6 16 L 8 16 L 8 14 L 6 14 Z M 15.5 14 C 15.777 14 16 14.223 16 14.5 L 16 16 L 15 16 L 15 14.5 C 15 14.223 15.223 14 15.5 14 Z M 4 17 L 4 19 L 5 19 L 6 19 L 6 17 L 4 17 Z M 8 17 L 8 19 L 10 19 L 10 17 L 8 17 Z"/>
</svg>
