<svg xmlns="http://www.w3.org/2000/svg" viewBox="0 0 22 22">
  <defs id="defs3051">
    <style type="text/css" id="current-color-scheme">
      .ColorScheme-Text {
        color:#232629;
      }
      </style>
  </defs>
 <path 
    style="fill:currentColor;fill-opacity:1;stroke:none" 
    d="M 4.5 3 C 3.8 3 3 3.7 3 4.5 C 3 5.3 3.8 6 4.5 6 C 5.33 6 6 5.3 6 4.5 C 6 3.7 5.33 3 4.5 3 z M 8 3 L 8 4 L 19 4 L 19 3 L 8 3 z M 8 5 L 8 6 L 12 6 L 12 5 L 8 5 z M 4.5 9 C 3.7 9 3 9.71 3 10.5 C 3 11.3 3.7 12 4.5 12 C 5.3 12 6 11.3 6 10.5 C 6 9.71 5.3 9 4.5 9 z M 8 9 L 8 10 L 15 10 L 15 9 L 8 9 z M 17 10 L 17 15.3 C 16.7 15.1 16.4 15 16 15 C 14.9 15 14 15.9 14 17 C 14 18.1 14.9 19 16 19 C 17.1 19 18 18.1 18 17 L 18 11 L 19 11 L 18 10 L 17 10 z M 8 11 L 8 12 L 13 12 L 13 11 L 8 11 z M 4.5 15 C 3.7 15 3 15.7 3 16.5 C 3 17.3 3.7 18 4.5 18 C 5.3 18 6 17.3 6 16.5 C 6 15.7 5.3 15 4.5 15 z M 8 15 L 8 16 L 13 16 L 13 15 L 8 15 z M 8 17 L 8 18 L 12 18 L 12 17 L 8 17 z "
	class="ColorScheme-Text"
    />  
</svg>
