<svg id="svg24" version="1.1" viewBox="0 0 22 22" xmlns="http://www.w3.org/2000/svg">
    <style id="current-color-scheme" type="text/css">
        .ColorScheme-Text {
            color:#232629;
        }
        .ColorScheme-NegativeText {
            color:#da4453;
        }</style>
    <g stroke-linecap="square">
        <g id="g10" class="ColorScheme-Text" fill="currentColor">
            <path id="path2" d="M 5.5,3 A 2.5,2.5 0 0 0 3,5.5 2.5,2.5 0 0 0 5.5,8 2.5,2.5 0 0 0 8,5.5 2.5,2.5 0 0 0 5.5,3 Z m 0,1 A 1.5,1.5 0 0 1 7,5.5 1.5,1.5 0 0 1 5.5,7 1.5,1.5 0 0 1 4,5.5 1.5,1.5 0 0 1 5.5,4 Z"/>
            <path id="path4" d="m5.5 14a2.5 2.5 0 0 0-2.5 2.5 2.5 2.5 0 0 0 2.5 2.5 2.5 2.5 0 0 0 2.5-2.5 2.5 2.5 0 0 0-2.5-2.5zm0 1a1.5 1.5 0 0 1 1.5 1.5 1.5 1.5 0 0 1-1.5 1.5 1.5 1.5 0 0 1-1.5-1.5 1.5 1.5 0 0 1 1.5-1.5z"/>
            <path id="path6" d="m5 7h1v8h-1z"/>
            <path id="path8" d="m15 7v2a1 1 0 0 1-1 1h-7a2 2 0 0 0-0.0488281 0 2 2 0 0 0-1.9511719 2h1a1 1 0 0 1 1-1h7a2 2 0 0 0 0.04883 0 2 2 0 0 0 1.95117-2v-2z"/>
        </g>
        <path id="path12" class="ColorScheme-NegativeText" d="m15.5 3a2.5 2.5 0 0 0-2.5 2.5 2.5 2.5 0 0 0 2.5 2.5 2.5 2.5 0 0 0 2.5-2.5 2.5 2.5 0 0 0-2.5-2.5zm0 1a1.5 1.5 0 0 1 1.5 1.5 1.5 1.5 0 0 1-1.5 1.5 1.5 1.5 0 0 1-1.5-1.5 1.5 1.5 0 0 1 1.5-1.5z" fill="currentColor"/>
        <g id="g18" shape-rendering="auto">
            <g id="path14">
                <path id="path871" d="m11.500107 12.500107 6 6" color="#da4453" color-rendering="auto" dominant-baseline="auto" image-rendering="auto" solid-color="#000000" stop-color="#da4453"/>
                <path id="path873" class="ColorScheme-NegativeText" d="m11.5 11.792969-0.707031 0.707031 0.353515 0.353516 6 6 0.353516 0.353515 0.707031-0.707031-0.353515-0.353516-6-6-0.353516-0.353515z" color="#da4453" color-rendering="auto" dominant-baseline="auto" fill="currentColor" image-rendering="auto" solid-color="#000000" stop-color="#000000"/>
            </g>
            <g id="path16">
                <path id="path877" d="m17.500107 12.500107-6 6" color="#da4453" color-rendering="auto" dominant-baseline="auto" image-rendering="auto" solid-color="#000000" stop-color="#da4453"/>
                <path id="path879" class="ColorScheme-NegativeText" d="m17.5 11.792969-0.353516 0.353515-6 6-0.353515 0.353516 0.707031 0.707031 0.353516-0.353515 6-6 0.353515-0.353516-0.707031-0.707031z" color="#da4453" color-rendering="auto" dominant-baseline="auto" fill="currentColor" image-rendering="auto" solid-color="#da4453" stop-color="#000000"/>
            </g>
        </g>
    </g>
</svg>
