<svg id="svg15" version="1.1" viewBox="0 0 22 22" xmlns="http://www.w3.org/2000/svg">
    <style id="current-color-scheme" type="text/css">.ColorScheme-Text {
            color:#232629;
        }</style>
    <path id="path3" class="ColorScheme-Text" d="m5.5 4a2.5 2.5 0 0 0-2.5 2.5 2.5 2.5 0 0 0 2.5 2.5 2.5 2.5 0 0 0 2.5-2.5 2.5 2.5 0 0 0-2.5-2.5zm0 1a1.5 1.5 0 0 1 1.5 1.5 1.5 1.5 0 0 1-1.5 1.5 1.5 1.5 0 0 1-1.5-1.5 1.5 1.5 0 0 1 1.5-1.5z" fill="currentColor"/>
    <path id="path5" class="ColorScheme-Text" d="m5 8v6a2 2 0 0 0 1.9511719 2 2 2 0 0 0 0.0488281 0h4v-1h-4a1 1 0 0 1-1-1v-6z" fill="currentColor"/>
    <path id="path7" d="m8.5 11.792969-0.7070312 0.707031 0.3535156 0.353516 2.6464846 2.646484-2.6464846 2.646484-0.3535156 0.353516 0.7070312 0.707031 0.3535156-0.353515 3.3535154-3.353516-3.3535154-3.353516-0.3535156-0.353515z" class="ColorScheme-Text" fill="currentColor"/>
    <path id="path9" class="ColorScheme-Text" d="m15.5 18a2.5 2.5 0 0 0 2.5-2.5 2.5 2.5 0 0 0-2.5-2.5 2.5 2.5 0 0 0-2.5 2.5 2.5 2.5 0 0 0 2.5 2.5zm0-1a1.5 1.5 0 0 1-1.5-1.5 1.5 1.5 0 0 1 1.5-1.5 1.5 1.5 0 0 1 1.5 1.5 1.5 1.5 0 0 1-1.5 1.5z" fill="currentColor"/>
    <path id="path11" class="ColorScheme-Text" d="m16 14v-6.0000002a2 2 0 0 0-1.951172-2 2 2 0 0 0-0.04883 0h-3.9999981v1h4.0000001a1 1 0 0 1 1 1v6.0000002z" fill="currentColor"/>
    <path id="path13" d="M 12.5 2.7929688 L 12.146484 3.1464844 L 8.7929688 6.5 L 12.146484 9.8535156 L 12.5 10.207031 L 13.207031 9.5 L 12.853516 9.1464844 L 10.207031 6.5 L 12.853516 3.8535156 L 13.207031 3.5 L 12.5 2.7929688 z " class="ColorScheme-Text" fill="currentColor"/>
</svg>
