<svg viewBox="0 0 22 22" xmlns="http://www.w3.org/2000/svg">
    <style type="text/css" id="current-color-scheme">
        .ColorScheme-Text {
            color:#232629;
        }
        .ColorScheme-Highlight {
            color:#3daee9;
        }
    </style>
    <g stroke-linecap="square">
        <g class="ColorScheme-Text" fill="currentColor">
            <path d="m5.5 3a2.5 2.5 0 0 0 -2.5 2.5 2.5 2.5 0 0 0 2.5 2.5 2.5 2.5 0 0 0 2.5-2.5 2.5 2.5 0 0 0 -2.5-2.5zm0 1a1.5 1.5 0 0 1 1.5 1.5 1.5 1.5 0 0 1 -1.5 1.5 1.5 1.5 0 0 1 -1.5-1.5 1.5 1.5 0 0 1 1.5-1.5z"/>
            <path d="m5.5 14a2.5 2.5 0 0 0 -2.5 2.5 2.5 2.5 0 0 0 2.5 2.5 2.5 2.5 0 0 0 2.5-2.5 2.5 2.5 0 0 0 -2.5-2.5zm0 1a1.5 1.5 0 0 1 1.5 1.5 1.5 1.5 0 0 1 -1.5 1.5 1.5 1.5 0 0 1 -1.5-1.5 1.5 1.5 0 0 1 1.5-1.5z"/>
            <path d="m5 7h1v8h-1z"/>
            <path d="m15 7v2a1 1 0 0 1 -1 1h-7a2 2 0 0 0 -.0488281 0 2 2 0 0 0 -1.9511719 2h1a1 1 0 0 1 1-1h7a2 2 0 0 0 .048828 0 2 2 0 0 0 1.951172-2v-2z"/>
        </g>
        <path d="m15.5 3a2.5 2.5 0 0 0 -2.5 2.5 2.5 2.5 0 0 0 2.5 2.5 2.5 2.5 0 0 0 2.5-2.5 2.5 2.5 0 0 0 -2.5-2.5zm0 1a1.5 1.5 0 0 1 1.5 1.5 1.5 1.5 0 0 1 -1.5 1.5 1.5 1.5 0 0 1 -1.5-1.5 1.5 1.5 0 0 1 1.5-1.5z" class="ColorScheme-Highlight" fill="currentColor"/>
    </g>
</svg>
