<svg xmlns="http://www.w3.org/2000/svg" viewBox="0 0 16 16">
  <defs id="defs3051">
    <style type="text/css" id="current-color-scheme">
      .ColorScheme-Text {
        color:#eff0f1;
      }
      </style>
  </defs>
    <path 
        style="fill:currentColor"
        d="M 6.5 2 C 5.1 2 4 3.1 4 4.5 C 4 5.9 5.1 7 6.5 7 C 7.9 7 9 5.9 9 4.5 C 9 3.1 7.9 2 6.5 2 z M 6.5 3 C 7.3 3 8 3.7 8 4.5 C 8 5.3 7.3 6 6.5 6 C 5.7 6 5 5.3 5 4.5 C 5 3.7 5.7 3 6.5 3 z M 12 4 C 10.9 4 10 4.9 10 6 C 10 7.1 10.9 8 12 8 C 13.1 8 14 7.1 14 6 C 14 4.9 13.1 4 12 4 z M 12 5 C 12.5 5 13 5.4 13 6 C 13 6.5 12.5 7 12 7 C 11.4 7 11 6.5 11 6 C 11 5.4 11.4 5 12 5 z M 6.5 8 C 4 8 2 10 2 12.5 L 2 13 L 2 14 L 2.3 14 L 3 14 L 3.3 14 L 9.7 14 L 10.7 14 L 11 14 L 11 13 L 11 12.5 C 11 10 9 8 6.5 8 z M 6.5 9 C 8.4 9 10 10.6 10 12.5 L 10 13 L 3 13 L 3 12.5 C 3 10.6 4.6 9 6.5 9 z M 12 9 C 11.4 9 10.9 9.1 10.5 9.4 C 10.7 9.7 11 10 11.1 10.2 C 11.4 10.1 11.7 10 12 10 C 13.1 10 14 10.9 14 12 L 11.9 12 C 12 12.3 12 12.7 12 13 L 13.7 13 L 14.8 13 L 15 13 L 15 12 C 15 10.3 13.7 9 12 9 z " 
        class="ColorScheme-Text"/>
</svg>
