<svg xmlns="http://www.w3.org/2000/svg" viewBox="0 0 16 16">
  <defs id="defs3051">
    <style type="text/css" id="current-color-scheme">
      .ColorScheme-Text {
        color:#eff0f1;
      }
      </style>
  </defs>
    <path 
        style="fill:currentColor"
        d="M 8 2 L 7.3 2.7 L 7.3 2.7 L 2 8 L 2 8 L 2 9 L 3 9 L 3 13 L 3 13 L 3 14 L 13 14 L 13 13 L 13 9 L 14 9 L 14 8 L 14 8 L 12.9 6.9 L 12.1 7.5 L 12.6 8 L 12 8 L 12 13 L 9 13 L 9 10 L 7 10 L 7 13 L 4 13 L 4 9 L 4 8 L 3.4 8 L 8 3.4 L 8 3.4 L 8 3.4 L 9.4 4.8 L 10.1 4.1 L 8.7 2.7 L 8.7 2.7 L 8 2 z M 11 3 L 11 6 L 12 6 L 12 3 L 11 3 z " 
        class="ColorScheme-Text"/>
</svg>
