<svg height="22" viewBox="0 0 22 22" width="22" xmlns="http://www.w3.org/2000/svg" xmlns:xlink="http://www.w3.org/1999/xlink"><radialGradient id="a" cx="11" cy="12" gradientUnits="userSpaceOnUse" r="6"><stop offset="0" stop-color="#3dd425" stop-opacity=".954751"/><stop offset="1" stop-color="#59f07c"/></radialGradient><linearGradient id="b" gradientUnits="userSpaceOnUse" x1="8.999999" x2="16.052055" y1="11" y2="18.052055"><stop offset="0"/><stop offset="1" stop-opacity="0"/></linearGradient><linearGradient id="c" gradientTransform="matrix(2.4295641 2.4295641 -2.4295641 2.4295641 1.364305 -972.83339)" gradientUnits="userSpaceOnUse" x1="204.86578" x2="204.86578" y1="197.19539" y2="198.84178"><stop offset="0" stop-color="#9b9ea2"/><stop offset="1" stop-color="#1a1b1e"/></linearGradient><g stroke-width="3"><path d="m11 6h4l2-2 2.5 2.5-1.5 1.63v3.87h-7z" fill="url(#c)"/><path d="m7 2v2h4 4v-2zm4 2a8 8 0 0 0 -8 8 8 8 0 0 0 8 8 8 8 0 0 0 8-8 8 8 0 0 0 -8-8z" fill="#686b6f"/><circle cx="11" cy="12" fill="#eff8ff" r="6"/></g><path d="m11 11-1.4140625 2.414062 5.4140625 5.585938h4v-6l-2-2z" fill="url(#b)" opacity=".2"/><g stroke-width="3"><path d="m11 6a6 6 0 0 0 -6 6 6 6 0 0 0 6 6 6 6 0 0 0 6-6 6 6 0 0 0 -6-6zm0 1a5 5 0 0 1 5 5 5 5 0 0 1 -5 5 5 5 0 0 1 -5-5 5 5 0 0 1 5-5z" opacity=".15"/><path d="m11 6v6h6a6 6 0 0 0 -6-6z" fill="url(#a)"/><path d="m11 11h6v2h-6z" fill="#00223e"/><path d="m1.2928932 16.263456c0 1.104569-.89543048 2-1.99999997 2-1.10456953 0-1.99969803-.89543-1.99969803-2s.8951285-2 1.99969803-2c1.10456949 0 1.99999997.895431 1.99999997 2z" fill="#686b6f" transform="matrix(.70710678 -.70710678 .70710678 .70710678 0 0)"/><circle cx="11" cy="12" fill="#9b9ea2" r="1"/></g></svg>