<svg height="48" viewBox="0 0 48 48" width="48" xmlns="http://www.w3.org/2000/svg" xmlns:xlink="http://www.w3.org/1999/xlink"><linearGradient id="a" gradientUnits="userSpaceOnUse" x1="4" x2="4" y1="44" y2="4"><stop offset="0" stop-color="#be1111"/><stop offset="1" stop-color="#e74c3c"/></linearGradient><linearGradient id="b" gradientUnits="userSpaceOnUse" x1="9" x2="64" y1="13" y2="68"><stop offset="0" stop-color="#fcfcfc"/><stop offset="1" stop-color="#e74c3c"/></linearGradient><linearGradient id="c" gradientUnits="userSpaceOnUse" x1="20" x2="40" y1="24" y2="44"><stop offset="0"/><stop offset="1" stop-opacity="0"/></linearGradient><rect fill="url(#a)" height="40" ry="5" width="40" x="4" y="4"/><path d="m20 35 9 9h15v-15l-5-5-6 2-2-2z" fill="url(#c)" opacity=".2"/><path d="m20 13-11 11 11 11 11-11zm8 0-2 2 9 9-9 9 2 2 11-11z" fill="url(#b)"/><path d="m4 37.871094v1c0 2.841025 2.2878805 5.128906 5.1289062 5.128906h29.7421878c2.841025 0 5.128906-2.287881 5.128906-5.128906v-1c0 2.841025-2.287881 5.128906-5.128906 5.128906h-29.7421878c-2.8410257 0-5.1289062-2.287881-5.1289062-5.128906z" fill="#8e0d0d"/></svg>