<svg xmlns="http://www.w3.org/2000/svg" xmlns:xlink="http://www.w3.org/1999/xlink" viewBox="0 0 48 48"><defs><linearGradient id="a" y1="30" x1="24" y2="44" x2="38" gradientUnits="userSpaceOnUse"><stop/><stop offset="1" stop-opacity="0"/></linearGradient><linearGradient id="g" y1="37" y2="4" x2="0" gradientUnits="userSpaceOnUse" gradientTransform="matrix(-.76605 .42072 -.44228 -.72871 49.154 32.593)"><stop stop-color="#da4453"/><stop offset="1" stop-color="#ff7336"/></linearGradient><linearGradient xlink:href="#a" id="h" y1="22.313" x1="20.438" y2="25.406" x2="23.531" gradientUnits="userSpaceOnUse" gradientTransform="matrix(-.76605 .42072 -.44228 -.72871 49.154 32.593)"/><linearGradient id="f" x1="15.233" x2="39.609" y1="11.995" y2="36.37" gradientUnits="userSpaceOnUse"><stop offset="0"/><stop stop-opacity="0" offset="1"/></linearGradient><linearGradient id="c"><stop style="stop-color:#7cbaf8"/><stop offset="1" style="stop-color:#f4fcff"/></linearGradient><linearGradient id="b"><stop style="stop-color:#197cf1"/><stop offset="1" style="stop-color:#20bcfa"/></linearGradient><linearGradient xlink:href="#b" id="d" x1="45" y1="43" x2="5" y2="3" gradientUnits="userSpaceOnUse"/><linearGradient xlink:href="#c" id="e" x1="45" y1="43" x2="5" y2="3" gradientUnits="userSpaceOnUse"/></defs><path d="M23.986 44A20 20 0 0 0 24 44a20 20 0 0 0 20-20A20 20 0 0 0 24 4a20 20 0 0 0-.012 0z" style="fill:url(#d);fill-opacity:1"/><path d="m23.986 44 .002-40A20 20 0 0 0 4 24a20 20 0 0 0 19.986 20z" style="fill:url(#e);fill-opacity:1"/><path d="m24.104 9.892-.364 4.189L21 44l3.038.05c10.162-.442 16.726-6.904 19.1-14.216z" style="opacity:.2;fill:url(#f)"/><path d="M43.979 23.418A20 20 0 0 1 24 43 20 20 0 0 1 4.021 23.582 20 20 0 0 0 4 24a20 20 0 0 0 20 20 20 20 0 0 0 20-20 20 20 0 0 0-.021-.582z" style="opacity:.2"/><path d="m36.87 33.07-2.54-2.51.03-.03c1.74-1.94 2.98-4.17 3.71-6.53H41v-2h-7v-2h-2v2h-7v1.99h11.17c-.67 1.93-1.73 3.76-3.17 5.36-.93-1.03-1.7-2.16-2.31-3.35h-2a17.14 17.14 0 0 0 3 4.56l-5.11 5.02L28 37l5-5 3.11 3.11.76-2.04z" style="fill:#fff;fill-opacity:1;stroke-width:1.77980602;opacity:.8"/><path d="M16.455 13h-2.91L7 30h2.91l1.628-4.25h6.91L20.09 30H23zm-3.811 9.917L15 16.783l2.356 6.134z" style="opacity:.8;fill:#156bc0;fill-opacity:1;stroke-width:2.55486727"/><path style="fill:url(#g);fill-rule:evenodd;stroke-width:.86273021" d="m21.34 43.981 1.28-1.813c1.28-1.815 2.014-4.75 2.014-4.75l-1.583-1.99c.017-.205.034-.422.05-.64l1.616.918.363-2.238-1.815-.987.003-.035 1.89.607s.24-1.241.638-5.598c.398-4.357.091-9.006.091-9.006l-1.577-2.406c.017-.24.034-.498.052-.733l1.58 1.813.034-1.686-.533-1.315.136-.754s-.855-3.027-1.283-3.424c-.429-.397-1.732 1.562-1.732 1.562l.28.679-1.232 1.293 1.877-.605c0 .087-.003.193-.005.281a8.275 8.275 0 0 0-1.007.283c-1.179.401-1.673 1.165-1.673 1.165l-.203 1.348s.356-.721.957-1.204c.59-.477 1.872-.83 1.91-.84-.002.125-.004.26-.008.387-.241.224-2.41 2.26-3.3 4.091-.94 1.938-2.096 6.957-2.096 6.957s.764-.41 2.416-1.287c1.553-.823 2.913-1.584 3.064-1.683-.006.148.442.73.442.73l-5.983 4.59s.041.998.141 2.579c.1 1.581.306 5.586.306 5.586s1.138-.585 2.218-1.004c1.03-.398 2.066-.676 2.164-.702l-.005.07c-.101.138-.756 1.018-1.302 1.581-.59.608-2.604 2.107-2.604 2.107s.162.305.371.997c.21.693.74 2.259.74 2.259l2.574-4.14c-.033.297-.071.568-.108.852l-2.308 3.856s.223.445.49 1.04c.268.595.663 1.211.663 1.211"/><path style="fill:#31363b;fill-rule:evenodd;stroke-width:.86273021" d="M21.339 43.982s1.355-5.544 2.078-12.096c.723-6.551 1.13-13.736 1.085-21.66C24.464 3.343 24 4 24 4s-.463 1.056-.461 6.474c.001 5.179.066 11.833-.722 21.485-.376 4.6-1.48 12.02-1.48 12.02"/><path style="opacity:.2;fill:url(#h);fill-rule:evenodd;stroke-width:.86273021" d="m21.34 43.981.152-.94.515-3.488.818-5.336c-.101.137-.756 1.017-1.303 1.58-.59.609-2.603 2.108-2.603 2.108s.16.305.37.997c.21.693.74 2.258.74 2.258l2.23-3.565c-.034.299-.073.568-.11.853l-1.963 3.28s.224.444.491 1.04c.268.595.662 1.211.662 1.211m1.486-9.763 1.158-11.121L18 27.687s.04.998.14 2.579c.1 1.581.306 5.586.306 5.586s1.138-.585 2.218-1.004c1.031-.398 2.068-.676 2.165-.703l-.005.071m1.158-11.12.122-13.204c-.534.096-1.541 1.61-1.541 1.61l.28.677-1.234 1.294 1.878-.605c0 .087-.004.192-.005.28a8.314 8.314 0 0 0-1.007.284c-1.18.4-1.672 1.163-1.672 1.163l-.21 1.352s.357-.72.956-1.204c.59-.477 1.872-.828 1.91-.839l-.006.386c-.242.224-2.41 2.26-3.3 4.092-.942 1.937-2.096 6.956-2.096 6.956s.764-.41 2.415-1.286c1.553-.824 2.913-1.585 3.064-1.683-.005.148.442.729.442.729"/></svg>