<svg id="svg8" version="1.1" viewBox="0 0 48 48" xmlns="http://www.w3.org/2000/svg" xmlns:xlink="http://www.w3.org/1999/xlink">
    <defs id="defs2">
        <linearGradient id="linearGradient1363">
            <stop id="stop1359" stop-color="#7f8c8d" offset="0"/>
            <stop id="stop1361" stop-color="#bdc3c7" offset="1"/>
        </linearGradient>
        <linearGradient id="linearGradient1261">
            <stop id="stop1257" offset="0"/>
            <stop id="stop1259" stop-opacity="0" offset="1"/>
        </linearGradient>
        <linearGradient id="linearGradient1220">
            <stop id="stop1216" stop-color="#667071" offset="0"/>
            <stop id="stop1218" stop-color="#596364" offset="1"/>
        </linearGradient>
        <linearGradient id="linearGradient845" x1="4" x2="4" y1="41" gradientUnits="userSpaceOnUse">
            <stop id="stop839" stop-color="#f39c1f" offset="0"/>
            <stop id="stop841" stop-color="#fdbc4b" offset="1"/>
        </linearGradient>
        <linearGradient id="linearGradient941" x1="7" x2="7" y1="27" y2="19" gradientUnits="userSpaceOnUse">
            <stop id="stop935" stop-color="#cacaca" offset="0"/>
            <stop id="stop937" stop-color="#eff0f1" offset="1"/>
        </linearGradient>
        <linearGradient id="linearGradient1006" x1="14" x2="14" y1="24" y2="20" gradientUnits="userSpaceOnUse">
            <stop id="stop1000" stop-color="#e74c3c" offset="0"/>
            <stop id="stop1002" stop-color="#c0392b" offset="1"/>
        </linearGradient>
        <linearGradient id="linearGradient1027" x1="7" x2="18" y1="27" y2="38" gradientUnits="userSpaceOnUse">
            <stop id="stop1021" stop-color="#95a5a6" offset="0"/>
            <stop id="stop1023" stop-color="#7f8c8d" offset="1"/>
        </linearGradient>
        <linearGradient id="linearGradient1235" x1="12.49489" x2="12.49489" y1="24.723755" y2="40.280102" gradientTransform="rotate(-45,12.495117,32.494796)" gradientUnits="userSpaceOnUse" xlink:href="#linearGradient1220"/>
        <linearGradient id="linearGradient1263" x1="7" x2="20" y1="27" y2="40" gradientUnits="userSpaceOnUse" xlink:href="#linearGradient1261"/>
        <linearGradient id="linearGradient1274" x1="40" x2="44" y1="27" y2="27" gradientUnits="userSpaceOnUse">
            <stop id="stop1268" stop-color="#1f8b4d" offset="0"/>
            <stop id="stop1270" stop-color="#27ae60" offset="1"/>
        </linearGradient>
        <linearGradient id="linearGradient1303" x1="40" x2="44" y1="27" y2="27" gradientTransform="translate(0,2)" gradientUnits="userSpaceOnUse">
            <stop id="stop1306" stop-color="#a1a52f" offset="0"/>
            <stop id="stop1308" stop-color="#fdbc4b" offset="1"/>
        </linearGradient>
        <linearGradient id="linearGradient1339" x1="40" x2="44" y1="27" y2="27" gradientTransform="translate(0,4)" gradientUnits="userSpaceOnUse">
            <stop id="stop1342" stop-color="#832932" offset="0"/>
            <stop id="stop1344" stop-color="#c0392b" offset="1"/>
        </linearGradient>
        <linearGradient id="linearGradient1365" x1="21" x2="21" y1="39" y2="18" gradientUnits="userSpaceOnUse" xlink:href="#linearGradient1363"/>
        <linearGradient id="linearGradient1414" x1="21" x2="21" y1="39" y2="18" gradientTransform="matrix(.65656568 0 0 .65656568 -22.803139 -61.138529)" gradientUnits="userSpaceOnUse" xlink:href="#linearGradient1363"/>
        <linearGradient id="linearGradient925" x1="21.999609" x2="40.999611" y1="18.999609" y2="37.999607" gradientTransform="translate(3.9020774e-4,3.9100774e-4)" gradientUnits="userSpaceOnUse" xlink:href="#linearGradient1220"/>
        <linearGradient id="linearGradient1089" x1="13" x2="27" y1="26" y2="40" gradientTransform="translate(16)" gradientUnits="userSpaceOnUse" xlink:href="#linearGradient1261"/>
        <linearGradient id="linearGradient1102" x1="5" x2="5" y1="12" y2="11" gradientTransform="translate(-1.1755406,6.7163796)" gradientUnits="userSpaceOnUse">
            <stop id="stop1096" stop-color="#95a5a6" offset="0"/>
            <stop id="stop1098" stop-color="#bdc3c7" offset="1"/>
        </linearGradient>
    </defs>
    <g id="g931" transform="translate(0,-1.0002082)" stroke-miterlimit="0">
        <rect id="rect1094" transform="rotate(-15)" x="3.8244593" y="17.716379" width="24" height="1" fill="url(#linearGradient1102)" stop-color="#000000" stroke-width=".388604"/>
        <g stroke-width=".377953">
            <rect id="rect837" x="4" y="16" width="40" height="25" rx="3" ry="3" fill="url(#linearGradient845)"/>
            <path id="rect837-0" d="m4 37v1c0 1.662 1.338 3 3 3h34c1.662 0 3-1.338 3-3v-1c0 1.662-1.338 3-3 3h-34c-1.662 0-3-1.338-3-3z" fill="#c27d19"/>
            <path id="rect837-0-0" d="m44 20v-1c0-1.662-1.338-3-3-3h-34c-1.662 0-3 1.338-3 3v1c0-1.662 1.338-3 3-3h34c1.662 0 3 1.338 3 3z" fill="#fdbc4b"/>
        </g>
    </g>
    <g id="g1016" transform="translate(0,-1.0002082)" stroke-miterlimit="0" stroke-width=".377953">
        <rect id="rect933" x="7" y="19" width="11" height="5" rx="1" ry="1" fill="url(#linearGradient941)"/>
        <g>
            <path id="rect933-7" d="m8 19c-0.554 0-1 0.446-1 1v1c0-0.554 0.446-1 1-1h9c0.554 0 1 0.446 1 1v-1c0-0.554-0.446-1-1-1z" fill="#18465d" opacity=".35" stop-color="#000000" style="font-variation-settings:normal"/>
            <path id="rect933-7-2" d="m17 25c0.554 0 1-0.446 1-1v-1c0 0.554-0.446 1-1 1h-9c-0.554 0-1-0.446-1-1v1c0 0.554 0.446 1 1 1z" opacity=".15" stop-color="#000000" style="font-variation-settings:normal"/>
            <path id="rect957" d="m8 20v2h1v-2zm2 0v2h1v-2zm2 0v2h1v-2zm4 0v2h1v-2z" fill="#45443f" stop-color="#000000" style="font-variation-settings:normal"/>
            <rect id="rect998" x="14" y="20" width="1" height="4" fill="url(#linearGradient1006)" stop-color="#000000" style="font-variation-settings:normal"/>
            <rect id="rect1008" x="14" y="19" width="1" height="1" fill="#9a2e22" stop-color="#000000" style="font-variation-settings:normal"/>
        </g>
    </g>
    <g id="g1351" transform="translate(0,-1.0002082)">
        <rect id="rect1266" x="40" y="25" width="4" height="2" fill="url(#linearGradient1274)" stop-color="#000000" style="font-variation-settings:normal"/>
        <rect id="rect1266-8" x="40" y="27" width="4" height="2" fill="url(#linearGradient1303)" stop-color="#000000" style="font-variation-settings:normal"/>
        <rect id="rect1266-8-1" x="40" y="29" width="4" height="2" fill="url(#linearGradient1339)" stop-color="#000000" style="font-variation-settings:normal"/>
    </g>
    <g id="g1240" transform="translate(0,-1.0002082)">
        <path id="path1242" d="m16.5 28.5-8 8 3.5 3.5h16z" fill="url(#linearGradient1263)" opacity=".25"/>
        <g stroke-miterlimit="0" stroke-width=".388604">
            <path id="path1018" d="m16.422954 36.563194a5.6549999 5.6549999 0 0 1-7.9961476-0.14024 5.6549999 5.6549999 0 0 1 0.1402393-7.996148 5.6549999 5.6549999 0 0 1 7.9961473 0.14024 5.6549999 5.6549999 0 0 1-0.140239 7.996148z" fill="url(#linearGradient1027)" stop-color="#000000" style="font-variation-settings:normal"/>
            <path id="path1018-8" d="m8.5372034 28.4554a5.6549999 5.6549999 0 0 0-0.3756505 0.406033l0.7098688 0.709869 0.8024007 0.802401 0.7071066 0.707107 0.707107-0.707107-0.707107-0.707107-0.8010189-0.801019-0.7098694-0.709869a5.6549999 5.6549999 0 0 0-0.3328373 0.299692zm-0.9556987 1.240199a5.6549999 5.6549999 0 0 0-0.7402529 2.701368 5.6549999 5.6549999 0 0 0 5.5560362 5.752148 5.6549999 5.6549999 0 0 0 5.752148-5.556036 5.6549999 5.6549999 0 0 0-5.556036-5.752148 5.6549999 5.6549999 0 0 0-2.887813 0.736109l0.738871 0.738872a4.6550001 4.6550001 0 0 1 2.132369-0.475088 4.6550001 4.6550001 0 0 1 4.572716 4.735682 4.6550001 4.6550001 0 0 1-4.735682 4.572716 4.6550001 4.6550001 0 0 1-4.572716-4.735682 4.6550001 4.6550001 0 0 1 0.4792312-1.97907z" fill="url(#linearGradient1235)" stop-color="#000000" style="font-variation-settings:normal"/>
            <path id="path1018-3" d="m6.9296875 32.492a5.6549999 5.6549999 0 0 0 1.4980469 4.93164 5.6549999 5.6549999 0 0 0 7.9960936 0.138672 5.6549999 5.6549999 0 0 0 1.636719-5.070312 5.6549999 5.6549999 0 0 1-1.636719 3.070312 5.6549999 5.6549999 0 0 1-7.9960936-0.138672 5.6549999 5.6549999 0 0 1-1.4980469-2.93164z" opacity=".15" stop-color="#000000" style="font-variation-settings:normal"/>
        </g>
    </g>
    <g id="g1449" transform="translate(0,-1.0002082)">
        <path id="path1242-5" d="m39 22-14 14 4 4h15v-13z" fill="url(#linearGradient1089)" opacity=".25"/>
        <circle id="path1357" cx="31.5" cy="28.5" r="9.8999996" fill="url(#linearGradient1365)" stop-color="#000000" style="font-variation-settings:normal"/>
        <circle id="path1357-9" transform="rotate(135)" cx="-2.1213202" cy="-42.426407" r="6.5" fill="url(#linearGradient1414)" stop-color="#000000" style="font-variation-settings:normal"/>
        <circle id="path1357-9-7" transform="rotate(135)" cx="-2.121321" cy="-42.426407" r="2.5" fill="#45443f" stop-color="#000000" style="font-variation-settings:normal"/>
        <path id="path1357-3" d="m 21.650391,28.5 a 9.8999996,9.8999996 0 0 0 -0.05078,1 A 9.8999996,9.8999996 0 0 0 31.5,39.400391 9.8999996,9.8999996 0 0 0 41.400391,29.5 9.8999996,9.8999996 0 0 0 41.349609,28.501953 9.8999996,9.8999996 0 0 1 31.5,37.400391 9.8999996,9.8999996 0 0 1 21.650391,28.5 Z" opacity=".15" stop-color="#000000" style="font-variation-settings:normal"/>
        <path id="path1357-5" d="m31.500391 18.6a9.8999996 9.8999996 0 0 0-9.900391 9.900391 9.8999996 9.8999996 0 0 0 9.900391 9.900391 9.8999996 9.8999996 0 0 0 9.900391-9.900391 9.8999996 9.8999996 0 0 0-9.900391-9.900391zm0 1a8.8999996 8.8999996 0 0 1 8.900391 8.900391 8.8999996 8.8999996 0 0 1-8.900391 8.900391 8.8999996 8.8999996 0 0 1-8.900391-8.900391 8.8999996 8.8999996 0 0 1 8.900391-8.900391z" fill="url(#linearGradient925)" stop-color="#000000" style="font-variation-settings:normal"/>
    </g>
</svg>
