<svg xmlns="http://www.w3.org/2000/svg" xmlns:xlink="http://www.w3.org/1999/xlink" width="48" height="48">
  <defs
     id="defs24">
    <linearGradient
       gradientTransform="matrix(0.32328364,0,0,0.32374027,3.1228967,3.0084954)"
       xlink:href="#linearGradient3347"
       id="linearGradient3359"
       x1="-23.688"
       y1="-24.028"
       x2="146.725"
       y2="140.728"
       gradientUnits="userSpaceOnUse" />
    <linearGradient
       id="linearGradient3347">
      <stop
         style="stop-color:#006680;stop-opacity:1;"
         offset="0"
         id="stop3" />
      <stop
         offset=".252"
         style="stop-color:#80b3ff;stop-opacity:1"
         id="stop5" />
      <stop
         style="stop-color:#0066ff;stop-opacity:1"
         offset=".459"
         id="stop7" />
      <stop
         offset=".899"
         style="stop-color:#002255;stop-opacity:1"
         id="stop9" />
      <stop
         style="stop-color:#006680;stop-opacity:0;"
         offset="1"
         id="stop11" />
    </linearGradient>
    <linearGradient
       gradientTransform="matrix(0.32328364,0,0,0.32374027,1.481112,-6.5171135)"
       xlink:href="#linearGradient3347"
       id="linearGradient3359-3"
       x1="-23.688"
       y1="-24.028"
       x2="146.72501"
       y2="140.728"
       gradientUnits="userSpaceOnUse" />
  </defs>
  <g
     id="g1009">
    <path
       style="fill:#6d3976;fill-opacity:1;stroke-width:0.7"
       d="m 19.703779,22.028411 a 2.1307217,2.891317 6.7054403 0 1 -4.266178,-0.138257 2.1307217,2.891317 6.7054403 1 1 4.266178,0.138257 z"
       />
    <path
       style="fill:#6d3976;fill-opacity:1;stroke-width:0.7"
       d="m 31.066728,22.156575 a 2.0568156,2.942189 16.608392 0 1 -4.135605,-0.390207 2.0568156,2.942189 16.608392 1 1 4.135605,0.390207 z"
       />
    <path
       d="M 22.450727,4.0000399 C 12.555088,4 4.4067494,7.774143 4.3693124,13 c -0.049196,2 -0.00915,-2.257097 0.00161,4.411355 0.009,5.589656 0.02244,6.070188 0.186888,6.880108 0.585374,2.881504 2.4705079,5.141628 5.147927,6.255393 0.289935,0.120618 0.5880766,0.241155 0.8959796,0.333872 0.117187,0.03535 0.253868,0.05642 0.371902,0.104321 0.258633,0.10511 0.480911,0.251899 0.588465,0.345246 0.770995,0.669092 2.077058,-0.521454 2.340338,-1.256761 0.008,-0.02247 0.01635,-0.291972 0.02403,-0.601309 -0.08107,-0.447269 -0.128634,-0.90772 -0.126281,-1.379065 l 0.05814,-11.638286 c 0.003,-0.557082 0.06133,-1.099356 0.173626,-1.621868 L 13.85514,14.666724 c -0.366338,-0.344616 -0.002,-1.080353 -0.784547,-1.083977 -0.647358,-0.003 -0.80464,0.03085 -1.308914,0.281367 -0.315183,0.156466 -0.865896,0.368871 -1.223687,0.472323 -0.9766996,0.282476 -2.1437186,0.908969 -3.0244617,1.623136 -0.4329477,0.351058 -0.8095059,0.638007 -0.8366287,0.638007 -0.027023,0 -0.03869,-0.944907 -0.025228,-2.100533 l 0.024032,1.898859 0.270889,-0.02966 c 0.1489161,-0.01628 0.2660527,-0.07789 0.2986499,-0.11129 0.032507,-0.03345 0.076215,-0.543708 0.1571446,-1.1153 C 7.4769149,7.9640454 16,7 22.542023,7 29,7 37.007096,8.3113232 37.631093,14 c 0.07937,0.718121 -0.149022,2.171437 -0.0597,2.250544 0.0352,0.03106 0.05813,0.068 0.118702,0.07579 0.420473,0.05472 0.439828,-3.800126 0.438213,-1.812222 -6.39e-4,1.021847 -0.03829,1.915128 -0.08267,1.985447 -0.06372,0.100776 -0.195583,0.02387 -0.623834,-0.364218 -0.795077,-0.720439 -1.93599,-1.366374 -3.013732,-1.705958 -0.50956,-0.16055 -1.141401,-0.394325 -1.403645,-0.519756 -0.925346,-0.442576 -0.867103,-0.347061 -1.431037,0.180414 0.161111,5.270152 -0.01404,14.61584 -0.07369,17.132828 1.18811,-0.09162 1.805148,-0.09387 2.998041,-0.460431 1.3491,-0.458094 2.242288,-1.024254 3.316181,-2.103039 1.066226,-1.071086 1.638407,-1.970758 2.112707,-3.321494 0.699509,-2.405136 0.334657,-5.069891 0.349814,-7.565537 0.01954,-2.149217 0.04693,-3.370911 0.04715,-4.817311 C 40.323591,5.9550568 29,4 22.450727,4.0000399 Z"
       style="fill:url(#linearGradient3359-3);fill-opacity:1;stroke-width:0.99786574"
       />
    <path
       d="m 32.291777,31.66155 c -0.170624,-0.04324 -0.396362,-0.143055 -0.551151,-0.258689 l -0.240924,-0.179992 -0.01695,-2.932212 c -0.009,-1.612721 -0.06541,-5.39871 -0.124635,-8.413343 -0.08067,-4.104993 -0.08147,-5.530302 -0.003,-5.676992 0.3653,-0.683172 2.426952,-0.861656 3.17254,-0.274666 l 0.237434,0.186922 -0.01087,8.360669 c -0.006,4.425034 -0.03739,8.180157 -0.0713,8.579645 -9.27e-4,0.01308 -0.003,0.02247 -0.003,0.02826 -2.6e-4,9.29e-4 -3.19e-4,0.003 -6.39e-4,0.003 -0.002,0.006 -0.004,0.01348 -0.006,0.02017 -0.107264,0.34938 -0.634314,0.575956 -1.420387,0.608729 -0.268625,0.01128 -0.579191,9.18e-4 -0.789612,-0.02317 -0.07,-0.008 -0.103665,-0.01258 -0.146274,-0.02327 z"
       style="fill:#0f2d61;stroke:#0f2d61;stroke-width:0.65421981;stroke-miterlimit:4;stroke-dasharray:none;stroke-opacity:1"
       />
    <path
       d="m 12.473654,31.517257 c -0.661368,-0.184995 -0.614531,0.198486 -0.708573,-5.802022 -0.08007,-5.107457 -0.0691,-11.175659 0.02054,-11.486673 0.142026,-0.492215 2.023012,-0.739052 2.893345,-0.379687 0.816037,0.336958 0.771594,-0.0692 0.659951,6.03447 -0.05445,2.971995 -0.09942,6.685867 -0.09989,8.253063 -9.18e-4,1.666344 -0.04039,2.917982 -0.09583,3.014494 -0.160553,0.280019 -0.81475,0.46064 -1.637558,0.452102 -0.414421,-0.005 -0.878829,-0.04294 -1.032023,-0.08578 z"
       style="fill:#0f2d61;stroke:#0f2d61;stroke-width:0.67141956;stroke-miterlimit:4;stroke-dasharray:none;stroke-opacity:1"
       />
    <path
       d="m 4.6410025,13.276422 c 0.990562,0.0058 1.727578,0.02452 2.7028264,0.02452 C 7.0512366,14.390063 7.1834965,14.889222 7,16 6.0985323,16.721178 5.4321549,17.699457 4.890876,18.648733 4.800036,18.865882 4.757845,19.231219 4.683815,19.043547 4.677735,16.865562 4.5296598,15.528197 4.6410025,13.276422 Z"
       style="fill:#0f2d61;stroke:#0f2d61;stroke-width:0.60980511;stroke-miterlimit:4;stroke-dasharray:none;stroke-opacity:1"
       />
    <path
       d="m 40.019598,15.787939 -0.0083,-3.221629 -1.026198,0.009 -1.376735,0.06292 0.341614,1.753718 -0.02872,1.795199 0.483095,0.496869 c 0.545527,0.561077 1.136525,1.355639 1.383113,1.922048 C 39.878855,18.815774 39.902019,18.955244 40,19 c 9.27e-4,3.19e-4 0.002,6.29e-4 0.003,6.29e-4 1.39e-4,0 2.89e-4,-4e-5 3.29e-4,-1.4e-4 0.02353,-0.05912 0.03101,-1.455486 0.01675,-3.21251 z"
       style="fill:#0f2d61;stroke:#0f2d61;stroke-width:0.61382139;stroke-miterlimit:4;stroke-dasharray:none;stroke-opacity:1"
       />
    <g
       id="g1030"
       transform="matrix(0.71429796,0,0,0.72002376,1.1428098,12.31896)">
      <path
         d="m 30.172873,-5.9975802 c -0.979371,0.03772 -1.839903,0.558095 -2.515577,1.329088 -0.675594,0.770993 -1.209269,1.797824 -1.658765,3.002973 -0.898992,2.410378 -1.451667,7.5539672 -1.757724,10.8053382 -0.306057,3.25137 -0.358397,4.604202 -0.218738,7.407177 0.139659,2.802974 0.412436,4.984355 0.989531,6.202344 0.504755,1.06523 1.09117,3.282411 1.343688,4.382002 0.252517,1.099589 0.199698,1.975901 -0.447896,2.684776 -0.647594,0.708772 -2.076181,1.346267 -4.822757,1.493545 C 18.33826,31.456962 14.324897,30.324972 8.634748,29.266002 7.7182364,29.095443 6.9536433,29.080203 6.2885693,29.300482 5.6234353,29.52078 5.10274,30.010756 4.7860429,30.62957 4.1526286,31.86718 4.0956892,35.369323 4.00223,37.721701 c -0.03022,0.760653 0.2491177,1.485787 0.7395533,2.079781 0.4904356,0.594055 1.1771094,1.081011 2.0285816,1.506827 1.7028846,0.851632 4.0875631,1.465546 7.0491361,1.902103 5.922947,0.873072 14.146472,1.01067 23.487788,0.469555 l 0.0078,-0.0026 h 0.0104 c 3.438169,-0.283137 8.87692,-0.481755 13.567078,-1.673945 2.344978,-0.596094 4.513359,-1.435827 6.168944,-2.719175 1.655545,-1.283348 2.789375,-3.065172 2.900974,-5.337552 0.103759,-2.11278 -0.0054,-4.329075 -0.429677,-5.345666 -0.424316,-1.016611 -1.333667,-1.558926 -2.268179,-1.578446 -1.868903,-0.03904 -4.070963,0.984551 -6.929337,1.655345 C 47.055321,29.447681 44.741142,30.119399 43.166357,30 41.591551,29.880581 40.804378,29.012195 40.317582,28.386111 39.830786,27.760017 39.612068,26.833845 39.510329,25.656335 39.40861,24.478807 39.420469,22.084927 39.265551,20.61634 38.967554,17.802365 38.405559,13.212363 37.13557,7.326416 36.501576,4.384043 35.695583,-0.3851502 34.613593,-2.4677312 c -0.541995,-1.041191 -1.14999,-1.916783 -1.879983,-2.549377 -0.729993,-0.632394 -1.609985,-1.0155908 -2.561977,-0.978791 z"
         style="fill:#974fa4"
         />
      <path
         d="M 27.972893,10.300102 A 5.9821459,12.001091 2.5216 1 1 16.024401,9.698108 5.9821459,12.001091 2.5216 1 1 27.972893,10.300102 Z"
         style="fill:#ffffff"
         />
      <path
         d="m 25.984911,12.096086 a 2.9826253,4.0160341 6.8892 0 1 -5.972546,-0.192018 2.9826253,4.0160341 6.8892 1 1 5.972546,0.192018 z"
         style="fill:#4d4d4d"
         />
      <path
         d="M 45.872731,9.366111 A 12.052057,6.9014327 83.212 0 1 32.124855,10.633159 12.052057,6.9014327 83.212 1 1 45.872731,9.366111 Z"
         style="fill:#ffffff"
         />
      <path
         d="m 41.892767,12.274085 a 2.877574,4.088963 16.98 0 1 -5.789748,-0.541936 2.877574,4.088963 16.98 1 1 5.789748,0.541936 z"
         style="fill:#4d4d4d"
         />
    </g>
    <path
       style="fill:#ffffff;stroke-width:0.7"
       d="m 21.12379,19.735278 a 4.2730998,8.6409389 2.4885557 1 1 -8.534783,-0.43345 4.2730998,8.6409389 2.4885557 1 1 8.534783,0.43345 z"
       />
    <path
       style="fill:#4d4d4d;stroke-width:0.7"
       d="m 19.275968,21.187229 a 2.1307217,2.891317 6.7054403 0 1 -4.266178,-0.138257 2.1307217,2.891317 6.7054403 1 1 4.266178,0.138257 z"
       />
    <path
       style="fill:#ffffff;stroke-width:0.7"
       d="m 33.909608,19.062782 a 8.6768147,4.9302209 83.316681 0 1 -9.82008,0.912305 8.6768147,4.9302209 83.316681 1 1 9.82008,-0.912305 z"
       />
    <path
       style="fill:#4d4d4d;stroke-width:0.7"
       d="m 30.207995,21.328935 a 2.0568156,2.942189 16.608392 0 1 -4.135605,-0.390207 2.0568156,2.942189 16.608392 1 1 4.135605,0.390207 z"
       />
    <path
       style="fill:#6d3976;fill-opacity:1;stroke-width:0.7"
       d="m 43.986328,35.24019 c -0.0044,0.174423 -0.0032,0.347608 -0.01172,0.521485 -0.07972,1.636168 -0.889713,2.919709 -2.072265,3.84375 -1.182581,0.924041 -2.731237,1.527829 -4.40625,1.957031 -3.350171,0.858405 -7.235529,1.001213 -9.691406,1.205078 h -0.0078 l -0.0059,0.002 C 21.118533,43.159103 15.244421,43.06023 11.013672,42.431597 8.8982265,42.117266 7.1948826,41.675651 5.9785156,41.062456 5.3703108,40.755858 4.8796141,40.404252 4.5292969,39.976518 c -0.2592268,-0.31648 -0.4344015,-0.684181 -0.5,-1.076171 -0.00668,0.186015 -0.020581,0.406545 -0.027344,0.578125 -0.02159,0.547688 0.1770268,1.070356 0.5273438,1.498046 0.350317,0.427734 0.8410137,0.77934 1.4492187,1.085938 1.216367,0.613195 2.9197113,1.05481 5.0351566,1.369141 4.230749,0.628633 10.104861,0.727506 16.777344,0.33789 l 0.0059,-0.002 h 0.0078 c 2.455877,-0.203865 6.341235,-0.346673 9.691406,-1.205078 1.675013,-0.429202 3.223669,-1.03299 4.40625,-1.957031 1.182552,-0.924041 1.99255,-2.207582 2.072265,-3.84375 0.02506,-0.514419 0.02427,-1.026304 0.01172,-1.521485 z"
       />
    <path
       style="fill:#d6d6d6;fill-opacity:1;stroke-width:0.7"
       d="m 18.433594,11.195312 a 4.2730998,8.6409389 2.4885557 0 1 1.689453,7.541016 4.2730998,8.6409389 2.4885557 0 1 -6.048828,7.908203 4.2730998,8.6409389 2.4885557 0 0 7.048828,-6.910156 4.2730998,8.6409389 2.4885557 0 0 -2.689453,-8.539063 z m 12.085937,0.539063 a 8.6768147,4.9302209 83.316681 0 1 2.390625,6.328125 8.6769988,4.9303255 83.316681 0 1 -6.429687,8.240234 8.6769988,4.9303255 83.316681 0 0 7.429687,-7.240234 8.6768147,4.9302209 83.316681 0 0 -3.390625,-7.328125 z"
       />
  </g>
</svg>
