<svg height="48" viewBox="0 0 48 48" width="48" xmlns="http://www.w3.org/2000/svg" xmlns:xlink="http://www.w3.org/1999/xlink"><linearGradient id="a" gradientUnits="userSpaceOnUse" x1="4" x2="44" y1="4" y2="44"><stop offset="0" stop-color="#3498db"/><stop offset="1" stop-color="#0352b5"/></linearGradient><linearGradient id="b" gradientUnits="userSpaceOnUse" x1="4" x2="44" y1="39.5" y2="39.5"><stop offset="0" stop-color="#194f95"/><stop offset="1" stop-color="#114795"/></linearGradient><linearGradient id="c" gradientUnits="userSpaceOnUse" x1="15" x2="38" y1="13" y2="36"><stop offset="0" stop-color="#194f95"/><stop offset="1" stop-color="#194f95" stop-opacity="0"/></linearGradient><g stroke-width="2"><rect fill="url(#a)" height="40" ry="8" width="40" x="4" y="4"/><path d="m4 35v1c0 4.432 3.568 8 8 8h24c4.432 0 8-3.568 8-8v-1c0 4.432-3.568 8-8 8h-24c-4.432 0-8-3.568-8-8z" fill="url(#b)"/><path d="m23 11v4l3 3v3.888672 3.111328l-4-4c-2.3869 0-4.675381.896134-6.363281 2.490234-1.6878 1.5941-2.636719 3.755466-2.636719 6.009766 0 2.1732.881531 4.260435 2.457031 5.835938l8.664063 8.664062h19.878906v-23l-10-10z" fill="url(#c)"/><path d="m23 11v4l.707031.707031h2.292969v6.181641 7.111328c0 1.0609-.421675 2.078025-1.171875 2.828125-.7501.7502-1.767225 1.171875-2.828125 1.171875-.892784 0-1.755328-.298175-2.453125-.839844-.541668-.697796-.839844-1.560341-.839844-2.453125 0-1.0609.421675-2.078025 1.171875-2.828125.7501-.7502 1.767225-1.171875 2.828125-1.171875v-4l-.707031-.707031c-2.3869 0-4.675381.896134-6.363281 2.490234-1.6878 1.5941-2.636719 3.755466-2.636719 6.009766 0 2.1732.881531 4.260437 2.457031 5.835938l.08789.08789c.0017.0016.0042.0023.0059.0039l.466797.466797.146484.148438c.0588.0588.118988.116428.179688.173828 1.6879 1.5941 3.976381 2.490234 6.363281 2.490234 2.387 0 4.675382-.896134 6.363281-2.490234 1.687801-1.594 2.636719-3.755466 2.636719-6.009766-.0072-.167-.01951-.3337-.03711-.5h.03711v-14h3v-4l-.707071-.707025zm.707031.707031h10.292969v3.292969h-3v14h-.03711c.0176.1663.02991.333.03711.5 0 2.2543-.948919 4.415666-2.636719 6.009766-1.6879 1.5941-3.976381 2.490234-6.363281 2.490234-2.302279 0-4.513068-.832697-6.181641-2.322266-1.358304-1.525672-2.111328-3.461842-2.111328-5.470703 0-2.2543.948919-4.415665 2.636719-6.009765 1.520309-1.435822 3.528292-2.304468 5.65625-2.462891v3.265625c-1.0609 0-2.078025.421675-2.828125 1.171875-.7502.7501-1.171875 1.767225-1.171875 2.828125s.421675 2.078025 1.171875 2.828125l.636719.636719.07031.07031c.7501.7502 1.767225 1.171875 2.828125 1.171875s2.078025-.421675 2.828125-1.171875c.7502-.7501 1.171875-1.767225 1.171875-2.828125v-7.111326-6.888672l-.707029-.707031h-2.292969z" fill="#194f95" opacity=".65"/><path d="m23 11v4h3v6.888672 7.111328a4 4 0 0 1 -4 4 4 4 0 0 1 -4-4 4 4 0 0 1 4-4v-4a9 8.5 0 0 0 -9 8.5 9 8.5 0 0 0 9 8.5 9 8.5 0 0 0 9-8.5 9 8.5 0 0 0 -.03711-.5h.03711v-14h3v-4z" fill="#fcfcfc"/></g></svg>
