<?xml version="1.0" encoding="UTF-8" standalone="no"?>
<!DOCTYPE svg PUBLIC "-//W3C//DTD SVG 1.0//EN"
"http://www.w3.org/TR/2001/REC-SVG-20010904/DTD/svg10.dtd">
<!-- Created with Sodipodi ("http://www.sodipodi.com/") -->
<svg
   xmlns="http://www.w3.org/2000/svg"
   xmlns:xlink="http://www.w3.org/1999/xlink"
   version="1.0"
   x="0"
   y="0"
   width="160"
   height="160"
   id="svg559">
  <defs
     id="defs561">
    <linearGradient
       id="linearGradient576">
      <stop
         style="stop-color:#02000d;stop-opacity:0.6039;"
         offset="0"
         id="stop577" />
      <stop
         style="stop-color:#970000;stop-opacity:0;"
         offset="1"
         id="stop578" />
    </linearGradient>
    <linearGradient
       id="linearGradient570">
      <stop
         style="stop-color:#4c0000;stop-opacity:0.6039;"
         offset="0"
         id="stop571" />
      <stop
         style="stop-color:#970000;stop-opacity:0;"
         offset="1"
         id="stop572" />
    </linearGradient>
    <linearGradient
       x1="0.438462"
       y1="0.968750"
       x2="0.423077"
       y2="0.328125"
       id="linearGradient573"
       xlink:href="#linearGradient570" />
    <radialGradient
       cx="0.500000"
       cy="0.953125"
       r="0.745410"
       fx="0.500000"
       fy="0.953125"
       id="radialGradient574"
       xlink:href="#linearGradient570" />
    <radialGradient
       cx="0.500000"
       cy="0.953125"
       r="0.745410"
       fx="0.500000"
       fy="0.953125"
       id="radialGradient579"
       xlink:href="#linearGradient576" />
  </defs>
  <g
     transform="matrix(1.095346,0,0,1.095346,-287.5354,-381.0181)"
     style="font-size:12.000;"
     id="g597">
    <g
       transform="translate(3.526687,-2.015259)"
       id="g583">
      <ellipse
         cx="297.5000"
         cy="418.6122"
         rx="30.00000"
         ry="30.00000"
         transform="translate(72.49998,-36.25000)"
         style="fill:#0000b3;fill-rule:evenodd;stroke-width:1.000000;"
         id="path564" />
      <ellipse
         cx="297.5000"
         cy="418.6122"
         rx="30.00000"
         ry="30.00000"
         transform="matrix(0.441423,0.123349,-8.410152e-2,0.300970,280.1325,205.3008)"
         style="fill:#ffffff;fill-opacity:0.456700;fill-rule:evenodd;stroke-width:1.000000;"
         id="path565" />
      <ellipse
         cx="297.5000"
         cy="418.6122"
         rx="30.00000"
         ry="30.00000"
         transform="translate(71.47330,-36.59851)"
         style="fill:url(#radialGradient579);fill-rule:evenodd;stroke-width:1.000000;"
         id="path575" />
    </g>
    <path
       d="M 350.8661 383.4841 L 306.1411 407.7528 C 306.6755 414.7234 310.5121 419.3290 314.9940 423.0112 L 359.9215 398.0594 C 359.3197 391.3165 357.2246 387.1034 350.8661 383.4841 z "
       style="fill:#040000;fill-rule:evenodd;stroke-width:1.000000;"
       id="path582" />
    <g
       id="g587">
      <ellipse
         cx="297.5000"
         cy="418.6122"
         rx="30.00000"
         ry="30.00000"
         style="fill-rule:evenodd;stroke-width:1.000000;"
         id="path562" />
      <ellipse
         cx="297.5000"
         cy="418.6122"
         rx="30.00000"
         ry="30.00000"
         transform="matrix(0.441423,0.123349,-8.410151e-2,0.300970,206.5758,241.2266)"
         style="fill:#ffffff;fill-opacity:0.456700;fill-rule:evenodd;stroke-width:1.000000;"
         id="path568" />
    </g>
    <path
       d="M 386.3464 448.6343 L 384.5892 397.7795 C 378.1128 395.1467 372.2790 396.5246 366.9836 398.8921 L 369.2618 450.2329 C 375.5645 452.7037 380.2698 452.7091 386.3464 448.6343 z "
       style="fill:#040000;fill-rule:evenodd;stroke-width:1.000000;"
       id="path596" />
    <g
       transform="translate(3.022880,2.015137)"
       id="g590">
      <ellipse
         cx="297.5000"
         cy="418.6122"
         rx="30.00000"
         ry="30.00000"
         transform="translate(74.99999,42.49994)"
         style="fill:#ab0000;fill-rule:evenodd;stroke-width:1.000000;"
         id="path563" />
      <ellipse
         cx="297.5000"
         cy="418.6122"
         rx="30.00000"
         ry="30.00000"
         transform="matrix(0.441423,0.123349,-8.410151e-2,0.300970,280.1325,284.0507)"
         style="fill:#ffffff;fill-opacity:0.456700;fill-rule:evenodd;stroke-width:1.000000;"
         id="path566" />
      <ellipse
         cx="297.5000"
         cy="418.6122"
         rx="30.00000"
         ry="30.00000"
         transform="matrix(0.441423,0.123349,-8.410151e-2,0.300970,280.1325,284.0507)"
         style="fill:#ffffff;fill-opacity:0.456700;fill-rule:evenodd;stroke-width:1.000000;"
         id="path567" />
      <ellipse
         cx="297.5000"
         cy="418.6122"
         rx="30.00000"
         ry="30.00000"
         transform="translate(74.99999,42.49994)"
         style="fill:url(#radialGradient574);fill-rule:evenodd;stroke-width:1.000000;"
         id="path569" />
    </g>
    <path
       d="M 356.3334 448.0147 L 311.4055 424.1236 C 305.8887 428.4177 304.1670 434.1594 303.5714 439.9293 L 349.1806 463.6121 C 354.4703 459.3875 356.8263 455.3145 356.3334 448.0147 z "
       style="fill:#040000;fill-rule:evenodd;stroke-width:1.000000;"
       id="path595" />
  </g>
</svg>
