<svg viewBox="0 0 48 48" xmlns="http://www.w3.org/2000/svg" xmlns:xlink="http://www.w3.org/1999/xlink">
    <linearGradient id="a" gradientUnits="userSpaceOnUse" x1="45" x2="0" y1="45" y2="3">
        <stop offset="0" stop-color="#b0b8b8"/>
        <stop offset="1" stop-color="#eff1f1"/>
        </linearGradient>
    <linearGradient id="b" gradientUnits="userSpaceOnUse" x1="4" x2="4" y1="45" y2="3">
        <stop offset="0" stop-color="#197cf1"/>
        <stop offset="1" stop-color="#21c9fb"/>
        </linearGradient>
    <linearGradient id="e" gradientUnits="userSpaceOnUse" x1="4" x2="4" y1="3" y2="45">
        <stop offset="0" stop-color="#292c2f"/>
        <stop offset="1" stop-opacity="0"/>
        </linearGradient>
    <linearGradient id="f" gradientUnits="userSpaceOnUse" x1="4" x2="4" y1="45" y2="3">
        <stop offset="0" stop-color="#7cbaf8"/>
        <stop offset="1" stop-color="#f4fcff"/>
        </linearGradient>
  <path
     style="fill:url(#c)"
     d="M 23.9 9.1 A 15 15 0 0 0 9.5 20.1 A 15 15 0 0 0 20.1 38.5 A 15 15 0 0 0 38.5 27.9 A 15 15 0 0 0 27.9 9.5 A 15 15 0 0 0 23.9 9.1 z "
     />
  <path
     style="fill:url(#a)"
     d="M 24 4 A 20 20 0 0 0 21.95 4.1 L 21.5 7.2 A 17 17 0 0 0 17.8 8.2 L 15.8 5.76 A 20 20 0 0 0 12.3 7.8 L 13.4 10.7 A 17 17 0 0 0 10.7 13.4 L 7.8 12.3 A 20 20 0 0 0 5.8 15.8 L 8.1875 17.8 A 17 17 0 0 0 7.6 19.6 A 17 17 0 0 0 7.2 21.5 L 4.1 21.95 A 20 20 0 0 0 4.1 26 L 7.2 26.5 A 17 17 0 0 0 8.2 30.2 L 5.76 32.2 A 20 20 0 0 0 7.8 35.7 L 10.7 34.6 A 17 17 0 0 0 13.4 37.3 L 12.3 40.2 A 20 20 0 0 0 15.84 42.23 L 17.8 39.8 A 17 17 0 0 0 19.6 40.4 A 17 17 0 0 0 21.5 40.8 L 21.95 43.9 A 20 20 0 0 0 26 43.9 L 26.5 40.8 A 17 17 0 0 0 30.2 39.8 L 32.17 42.25 A 20 20 0 0 0 35.716797 40.2 L 34.6 37.3 A 17 17 0 0 0 37.3 34.6 L 40.2 35.7 A 20 20 0 0 0 42.23 32.16 L 39.8 30.2 A 17 17 0 0 0 40.4 28.4 A 17 17 0 0 0 40.8 26.5 L 43.9 26 A 20 20 0 0 0 43.9 21.95 L 40.8 21.5 A 17 17 0 0 0 39.8 17.8 L 42.25 15.8 A 20 20 0 0 0 40.2 12.3 L 37.3 13.4 A 17 17 0 0 0 34.6 10.7 L 35.7 7.8 A 20 20 0 0 0 32.2 5.8 L 30.2 8.1875 A 17 17 0 0 0 28.4 7.6 A 17 17 0 0 0 26.5 7.2 L 26 4.1 A 20 20 0 0 0 24 4 z M 23.875 10 A 14 14 0 0 1 27.6 10.5 A 14 14 0 0 1 37.5 27.6 A 14 14 0 0 1 20.4 37.5 A 14 14 0 0 1 10.5 20.4 A 14 14 0 0 1 23.875 10 z "
     />
  <path
     d="m33.19 14.8-18.387 18.387 10.736 10.734c.169-.013.338-.02.5-.037l.475-3.102c1.262-.2 2.5-.5 3.7-.984l1.957 2.441c1.25-.6 2.4-1.25 3.549-2.055l-1.135-2.91c1-.794 1.91-1.698 2.709-2.695l2.893 1.127c.803-1.111 1.491-2.3 2-3.553l-2.422-1.941c.237-.594.4-1.2.6-1.818.158-.618.283-1.245.371-1.877l3.092-.475c.018-.17.028-.34.041-.51z"
     fill="url(#e)"
     fill-rule="evenodd"
     opacity=".2"
     />
  <path
     d="M 23.9 11. A 13. 13. 0 0 0 11.4 20.64 A 13. 13. 0 0 0 20.634766 36.56 A 13. 13. 0 0 0 36.56 27.36 A 13. 13. 0 0 0 27.4 11.4 A 13. 13. 0 0 0 23.9 11. z "
     style="fill:#798086" />
  <path
     style="fill:url(#b)"
     d="M 23.9 12. A 12. 12. 0 0 0 12.4 20.9 A 12. 12. 0 0 0 20.9 35.6 A 12. 12. 0 0 0 35.6 27.1 A 12. 12. 0 0 0 27.1 12.4 A 12. 12. 0 0 0 23.9 12. z "
     />
  <path
     style="fill:url(#f)"
     d="M 19 17 L 19 31 L 31 24 L 19 17 z "
     />
</svg>
