<svg height="48" viewBox="0 0 12.7 12.7" width="48" xmlns="http://www.w3.org/2000/svg" xmlns:xlink="http://www.w3.org/1999/xlink">
    <linearGradient id="a">
        <stop offset="0"/>
        <stop offset="1" stop-opacity="0"/>
    </linearGradient>
    <linearGradient id="b" gradientUnits="userSpaceOnUse" x1="7.408333" x2="11.641666" xlink:href="#a" y1="4.7625" y2="8.995833"/>
    <linearGradient id="c" gradientUnits="userSpaceOnUse" x1="5.291666" x2="8.731249" xlink:href="#a" y1="5.027083" y2="8.466666"/>
    <path d="m1.0583333 6.35v4.7625c0 .29316.236007.529167.529166.529167h9.5249997c.293159 0 .529167-.236007.529167-.529167v-4.7625z" fill="#f2f1ed"/>
    <path d="m1.5874993 1.0583333c-.293158 0-.529166.2360084-.529166.5291667v4.7625h10.5833327v-4.7625c0-.2931583-.236009-.5291667-.529167-.5291667z" fill="#cbcac4"/>
    <g fill-rule="evenodd">
        <path d="m3.6852433 2.1166667h1.606424l-.529167 4.2333353-1.5875-.000002z" fill="#f2f1ed"/>
        <path d="m4.7624993 6.35-1.587499-.0000021.529167 4.2333361 1.606376.000001z" fill="#cbcac4"/>
        <path d="m5.2916673 2.1166667-.529167 4.2333353.548043 4.233332.51029-4.233334z" fill="#5a5a5a"/>
        <path d="m9.5250003 2.1166667-3.175 4.2333328 3.175 4.2333345-2.116667-4.233334z" fill="#5a5a5a"/>
        <path d="m1.0769363 10.980209c-.01093.04249-.0186.0863-.0186.132291 0 .293158.236008.529167.529166.529167h9.5249997c.293158 0 .529167-.236009.529167-.529167 0-.04599-.0077-.0898-.0186-.132291-.05872.228333-.263399.396875-.510564.396875h-9.5249997c-.247164 0-.451838-.168542-.510563-.396875z" fill="#cbcac4" stroke-width=".264583"/>
    </g>
    <path d="m9.5250003 2.1166667 2.1166657 2.1166663v7.143751h-1.322916l-.7937507-.79375-2.116666-4.233334z" fill="url(#b)" opacity=".2"/>
    <path d="m5.2916673 2.1166667 1.587499 1.5874993-.79375 2.645834 1.852083 4.233334.79375.79375h-2.645833l-.79375-.79375.529167-4.233334z" fill="url(#c)" opacity=".2"/>
    <g fill-rule="evenodd">
        <path d="m7.9338283 2.1166667h1.591172l-3.175 4.2333333h-1.587501z" fill="#f2f1ed"/>
        <path d="m6.3500003 6.3499995-1.5875.0000005 3.174998 4.233334h1.587502z" fill="#cbcac4"/>
    </g>
</svg>
