<?xml version="1.0" encoding="UTF-8" standalone="no"?>
<!-- Created with Inkscape (http://www.inkscape.org/) -->
<svg
   xmlns:dc="http://purl.org/dc/elements/1.1/"
   xmlns:cc="http://creativecommons.org/ns#"
   xmlns:rdf="http://www.w3.org/1999/02/22-rdf-syntax-ns#"
   xmlns:svg="http://www.w3.org/2000/svg"
   xmlns="http://www.w3.org/2000/svg"
   xmlns:xlink="http://www.w3.org/1999/xlink"
   xmlns:sodipodi="http://sodipodi.sourceforge.net/DTD/sodipodi-0.dtd"
   xmlns:inkscape="http://www.inkscape.org/namespaces/inkscape"
   width="100"
   height="100"
   id="svg2"
   sodipodi:version="0.32"
   inkscape:version="0.46"
   version="1.0"
   sodipodi:docbase="/home/it-s/Media/Pictures/Images/Vector/KDE4"
   sodipodi:docname="hisc-app-kmahjongg.svgz"
   inkscape:output_extension="org.inkscape.output.svgz.inkscape"
   inkscape:export-filename="/home/it-s/hi128-app-kmahjongg.png"
   inkscape:export-xdpi="115.2"
   inkscape:export-ydpi="115.2">
  <defs
     id="defs4">
    <linearGradient
       inkscape:collect="always"
       id="linearGradient20837">
      <stop
         style="stop-color:#ffffff;stop-opacity:1;"
         offset="0"
         id="stop20839" />
      <stop
         id="stop20847"
         offset="0.20930226"
         style="stop-color:#ffffff;stop-opacity:0.9004329" />
      <stop
         id="stop20845"
         offset="0.53488368"
         style="stop-color:#ff0942;stop-opacity:0" />
      <stop
         style="stop-color:#ffffff;stop-opacity:0;"
         offset="1"
         id="stop20841" />
    </linearGradient>
    <inkscape:perspective
       sodipodi:type="inkscape:persp3d"
       inkscape:vp_x="0 : 50 : 1"
       inkscape:vp_y="0 : 1000 : 0"
       inkscape:vp_z="100 : 50 : 1"
       inkscape:persp3d-origin="50 : 33.333333 : 1"
       id="perspective15896" />
    <linearGradient
       id="linearGradient3596"
       inkscape:collect="always">
      <stop
         id="stop3598"
         offset="0"
         style="stop-color:#9f1701;stop-opacity:1" />
      <stop
         id="stop3600"
         offset="1"
         style="stop-color:#9f1701;stop-opacity:0" />
    </linearGradient>
    <linearGradient
       inkscape:collect="always"
       id="linearGradient3486">
      <stop
         style="stop-color:#0c0000;stop-opacity:1"
         offset="0"
         id="stop3488" />
      <stop
         style="stop-color:#3b0300;stop-opacity:0;"
         offset="1"
         id="stop3490" />
    </linearGradient>
    <linearGradient
       inkscape:collect="always"
       id="linearGradient3464">
      <stop
         style="stop-color:#600b01;stop-opacity:1;"
         offset="0"
         id="stop3466" />
      <stop
         style="stop-color:#600b01;stop-opacity:0;"
         offset="1"
         id="stop3468" />
    </linearGradient>
    <linearGradient
       id="linearGradient3331">
      <stop
         style="stop-color:#ffebf2;stop-opacity:1;"
         offset="0"
         id="stop3333" />
      <stop
         style="stop-color:#fe005d;stop-opacity:0;"
         offset="1"
         id="stop3335" />
    </linearGradient>
    <linearGradient
       inkscape:collect="always"
       id="linearGradient3312">
      <stop
         style="stop-color:#795a5a;stop-opacity:1;"
         offset="0"
         id="stop3314" />
      <stop
         style="stop-color:#795a5a;stop-opacity:0;"
         offset="1"
         id="stop3316" />
    </linearGradient>
    <linearGradient
       id="linearGradient3286">
      <stop
         style="stop-color:#600b01;stop-opacity:1;"
         offset="0"
         id="stop3288" />
      <stop
         id="stop3296"
         offset="0.05720339"
         style="stop-color:#9f1701;stop-opacity:1;" />
      <stop
         style="stop-color:#6d0d00;stop-opacity:1;"
         offset="0.43245476"
         id="stop3298" />
      <stop
         id="stop3294"
         offset="0.5"
         style="stop-color:#9f1701;stop-opacity:1;" />
      <stop
         style="stop-color:#6d0d00;stop-opacity:1;"
         offset="0.61419129"
         id="stop3300" />
      <stop
         id="stop3302"
         offset="0.94915253"
         style="stop-color:#540800;stop-opacity:1;" />
      <stop
         style="stop-color:#3b0300;stop-opacity:1"
         offset="1"
         id="stop3290" />
    </linearGradient>
    <linearGradient
       inkscape:collect="always"
       xlink:href="#linearGradient3286"
       id="linearGradient3415"
       gradientUnits="userSpaceOnUse"
       gradientTransform="translate(-12,-6)"
       x1="53.26244"
       y1="8.8552914"
       x2="21.69101"
       y2="90.266426" />
    <radialGradient
       inkscape:collect="always"
       xlink:href="#linearGradient3312"
       id="radialGradient3417"
       gradientUnits="userSpaceOnUse"
       gradientTransform="matrix(1.1143882e-2,0.9999379,-1.7243426,1.9217064e-2,44.720729,-18.022868)"
       cx="24.648008"
       cy="18.759262"
       fx="24.648008"
       fy="18.759262"
       r="35" />
    <radialGradient
       inkscape:collect="always"
       xlink:href="#linearGradient3331"
       id="radialGradient3419"
       gradientUnits="userSpaceOnUse"
       gradientTransform="matrix(3.2888129e-2,0.999459,-1.9517213,6.4223206e-2,46.170182,-14.296561)"
       cx="19.309795"
       cy="20.236214"
       fx="19.309795"
       fy="20.236214"
       r="29.265625" />
    <linearGradient
       inkscape:collect="always"
       xlink:href="#linearGradient3331"
       id="linearGradient3421"
       gradientUnits="userSpaceOnUse"
       x1="23.824764"
       y1="11.478929"
       x2="25.351994"
       y2="15.086097" />
    <linearGradient
       inkscape:collect="always"
       xlink:href="#linearGradient3331"
       id="linearGradient3425"
       gradientUnits="userSpaceOnUse"
       x1="23.824764"
       y1="11.478929"
       x2="25.351994"
       y2="15.086097" />
    <linearGradient
       inkscape:collect="always"
       xlink:href="#linearGradient3331"
       id="linearGradient3427"
       gradientUnits="userSpaceOnUse"
       x1="23.824764"
       y1="11.478929"
       x2="25.351994"
       y2="15.086097" />
    <linearGradient
       inkscape:collect="always"
       xlink:href="#linearGradient3286"
       id="linearGradient3440"
       gradientUnits="userSpaceOnUse"
       x1="78.849602"
       y1="16.027075"
       x2="43.563725"
       y2="96.220436" />
    <linearGradient
       inkscape:collect="always"
       xlink:href="#linearGradient3464"
       id="linearGradient3452"
       x1="76.406433"
       y1="87.774971"
       x2="28.61768"
       y2="38.874859"
       gradientUnits="userSpaceOnUse" />
    <linearGradient
       inkscape:collect="always"
       xlink:href="#linearGradient3464"
       id="linearGradient3470"
       x1="70.849594"
       y1="41.931114"
       x2="72.238808"
       y2="41.931114"
       gradientUnits="userSpaceOnUse"
       spreadMethod="reflect" />
    <linearGradient
       inkscape:collect="always"
       xlink:href="#linearGradient3464"
       id="linearGradient3476"
       gradientUnits="userSpaceOnUse"
       spreadMethod="reflect"
       x1="70.849594"
       y1="41.931114"
       x2="72.238808"
       y2="41.931114"
       gradientTransform="translate(-154.45694,0.856484)" />
    <radialGradient
       inkscape:collect="always"
       xlink:href="#linearGradient3486"
       id="radialGradient3496"
       gradientUnits="userSpaceOnUse"
       gradientTransform="matrix(0,0.3683372,-1.4362017,0,182.04734,15.25095)"
       cx="208.50966"
       cy="106.87013"
       fx="208.50966"
       fy="106.87013"
       r="41.786453" />
    <linearGradient
       inkscape:collect="always"
       xlink:href="#linearGradient3486"
       id="linearGradient3498"
       x1="83.572906"
       y1="44.366917"
       x2="69.402992"
       y2="46.033966"
       gradientUnits="userSpaceOnUse" />
    <radialGradient
       inkscape:collect="always"
       xlink:href="#linearGradient3464"
       id="radialGradient3561"
       cx="62.57476"
       cy="56.654064"
       fx="62.57476"
       fy="56.654064"
       r="32.273457"
       gradientTransform="matrix(0.7531466,0.3270109,-0.6398814,1.4737263,57.644341,-47.559567)"
       gradientUnits="userSpaceOnUse" />
    <radialGradient
       inkscape:collect="always"
       xlink:href="#linearGradient3596"
       id="radialGradient3588"
       cx="71.397865"
       cy="88.997154"
       fx="71.397865"
       fy="88.997154"
       r="41.786453"
       gradientTransform="matrix(0.2697932,-0.3717979,0.2784105,0.2020311,35.371405,94.839033)"
       gradientUnits="userSpaceOnUse" />
    <radialGradient
       inkscape:collect="always"
       xlink:href="#linearGradient3486"
       id="radialGradient3622"
       cx="76.546875"
       cy="86.796875"
       fx="76.546875"
       fy="86.796875"
       r="4.546875"
       gradientTransform="matrix(1,0,0,0.6151203,0,33.406357)"
       gradientUnits="userSpaceOnUse" />
    <radialGradient
       inkscape:collect="always"
       xlink:href="#linearGradient3596"
       id="radialGradient3642"
       cx="87.171638"
       cy="84.320442"
       fx="87.171638"
       fy="84.320442"
       r="35.224953"
       gradientTransform="matrix(2.372004,1.4291419e-7,-1.584155e-7,2.6135768,-119.59982,-129.12448)"
       gradientUnits="userSpaceOnUse" />
    <radialGradient
       inkscape:collect="always"
       xlink:href="#linearGradient3596"
       id="radialGradient3723"
       cx="79.879448"
       cy="83.607346"
       fx="83.769226"
       fy="94.333191"
       r="15.142365"
       gradientTransform="matrix(1,0,0,0.8807339,0,9.9715183)"
       gradientUnits="userSpaceOnUse" />
    <radialGradient
       inkscape:collect="always"
       xlink:href="#linearGradient3596"
       id="radialGradient16756"
       gradientUnits="userSpaceOnUse"
       gradientTransform="matrix(1.9622241,1.288743e-7,-1.3104814e-7,2.356819,-82.90595,-109.64684)"
       cx="87.171638"
       cy="84.320442"
       fx="87.171638"
       fy="84.320442"
       r="35.224953" />
    <linearGradient
       inkscape:collect="always"
       xlink:href="#linearGradient3464"
       id="linearGradient16759"
       gradientUnits="userSpaceOnUse"
       gradientTransform="matrix(0.90176,0,0,0.8272432,-146.07554,16.740702)"
       spreadMethod="reflect"
       x1="70.849594"
       y1="41.931114"
       x2="72.238808"
       y2="41.931114" />
    <linearGradient
       inkscape:collect="always"
       xlink:href="#linearGradient3464"
       id="linearGradient16762"
       gradientUnits="userSpaceOnUse"
       spreadMethod="reflect"
       x1="70.849594"
       y1="41.931114"
       x2="72.238808"
       y2="41.931114"
       gradientTransform="matrix(0.8272432,0,0,0.90176,16.032182,6.7924528)" />
    <linearGradient
       inkscape:collect="always"
       xlink:href="#linearGradient3486"
       id="linearGradient16775"
       gradientUnits="userSpaceOnUse"
       x1="83.572906"
       y1="44.366917"
       x2="69.402992"
       y2="46.033966"
       gradientTransform="matrix(0.8272432,0,0,0.90176,16.032182,6.7924528)" />
    <radialGradient
       inkscape:collect="always"
       xlink:href="#linearGradient3464"
       id="radialGradient16778"
       gradientUnits="userSpaceOnUse"
       gradientTransform="matrix(0.6230354,0.2948853,-0.5293376,1.3289474,63.718069,-36.094862)"
       cx="62.57476"
       cy="56.654064"
       fx="62.57476"
       fy="56.654064"
       r="32.273457" />
    <radialGradient
       inkscape:collect="always"
       xlink:href="#linearGradient3486"
       id="radialGradient16781"
       gradientUnits="userSpaceOnUse"
       gradientTransform="matrix(0,0.3321518,-1.188088,0,166.6296,20.54515)"
       cx="208.50966"
       cy="106.87013"
       fx="208.50966"
       fy="106.87013"
       r="41.786453" />
    <radialGradient
       inkscape:collect="always"
       xlink:href="#linearGradient3596"
       id="radialGradient16784"
       gradientUnits="userSpaceOnUse"
       gradientTransform="matrix(0.2231846,-0.3352725,0.2303132,0.1821836,45.292935,92.314499)"
       cx="71.397865"
       cy="88.997154"
       fx="71.397865"
       fy="88.997154"
       r="41.786453" />
    <linearGradient
       inkscape:collect="always"
       xlink:href="#linearGradient3464"
       id="linearGradient16787"
       gradientUnits="userSpaceOnUse"
       x1="76.406433"
       y1="87.774971"
       x2="28.61768"
       y2="38.874859"
       gradientTransform="matrix(0.8272432,0,0,0.90176,16.032182,6.7924528)" />
    <linearGradient
       inkscape:collect="always"
       xlink:href="#linearGradient3286"
       id="linearGradient16790"
       gradientUnits="userSpaceOnUse"
       x1="78.849602"
       y1="16.027075"
       x2="43.563725"
       y2="96.220436"
       gradientTransform="matrix(0.8272432,0,0,0.90176,16.032182,6.7924528)" />
    <radialGradient
       inkscape:collect="always"
       xlink:href="#linearGradient3331"
       id="radialGradient16833"
       gradientUnits="userSpaceOnUse"
       gradientTransform="matrix(0,2.1008005,-1.7609368,0,52.830344,-30.654682)"
       cx="19.309795"
       cy="20.236214"
       fx="19.309795"
       fy="20.236214"
       r="29.265625" />
    <radialGradient
       inkscape:collect="always"
       xlink:href="#linearGradient3286"
       id="radialGradient16836"
       gradientUnits="userSpaceOnUse"
       gradientTransform="matrix(9.2187002e-3,0.901704,-1.4264506,1.732918e-2,50.984842,-12.024229)"
       cx="85.843369"
       cy="-8.9043465"
       fx="85.843369"
       fy="-8.9043465"
       r="35" />
    <linearGradient
       inkscape:collect="always"
       xlink:href="#linearGradient3286"
       id="linearGradient16841"
       gradientUnits="userSpaceOnUse"
       gradientTransform="matrix(0.8272432,0,0,0.90176,4.0630072,-1.1824872)"
       x1="53.26244"
       y1="8.8552914"
       x2="21.69101"
       y2="90.266426" />
    <filter
       inkscape:collect="always"
       id="filter16939">
      <feGaussianBlur
         inkscape:collect="always"
         stdDeviation="0.70230257"
         id="feGaussianBlur16941" />
    </filter>
    <linearGradient
       inkscape:collect="always"
       xlink:href="#linearGradient3331"
       id="linearGradient16975"
       gradientUnits="userSpaceOnUse"
       x1="23.824764"
       y1="11.478929"
       x2="25.351994"
       y2="15.086097" />
    <linearGradient
       inkscape:collect="always"
       xlink:href="#linearGradient3331"
       id="linearGradient16977"
       gradientUnits="userSpaceOnUse"
       x1="23.824764"
       y1="11.478929"
       x2="25.351994"
       y2="15.086097" />
    <linearGradient
       inkscape:collect="always"
       xlink:href="#linearGradient3331"
       id="linearGradient16979"
       gradientUnits="userSpaceOnUse"
       x1="23.824764"
       y1="11.478929"
       x2="25.351994"
       y2="15.086097" />
    <linearGradient
       inkscape:collect="always"
       xlink:href="#linearGradient3286"
       id="linearGradient16987"
       gradientUnits="userSpaceOnUse"
       gradientTransform="matrix(0.90176,0,0,0.90176,12.830189,8.792453)"
       x1="78.849602"
       y1="16.027075"
       x2="43.563725"
       y2="96.220436" />
    <filter
       inkscape:collect="always"
       id="filter17025"
       x="-0.11266472"
       width="1.2253294"
       y="-0.10230283"
       height="1.2046057">
      <feGaussianBlur
         inkscape:collect="always"
         stdDeviation="3.5377989"
         id="feGaussianBlur17027" />
    </filter>
    <filter
       inkscape:collect="always"
       id="filter19243">
      <feGaussianBlur
         inkscape:collect="always"
         stdDeviation="0.35112687"
         id="feGaussianBlur19245" />
    </filter>
    <filter
       inkscape:collect="always"
       id="filter19251">
      <feGaussianBlur
         inkscape:collect="always"
         stdDeviation="0.35208422"
         id="feGaussianBlur19253" />
    </filter>
    <filter
       inkscape:collect="always"
       id="filter20569">
      <feGaussianBlur
         inkscape:collect="always"
         stdDeviation="1.2138547"
         id="feGaussianBlur20571" />
    </filter>
    <filter
       inkscape:collect="always"
       id="filter20766">
      <feGaussianBlur
         inkscape:collect="always"
         stdDeviation="0.49516509"
         id="feGaussianBlur20768" />
    </filter>
    <radialGradient
       inkscape:collect="always"
       xlink:href="#linearGradient3331"
       id="radialGradient20816"
       gradientUnits="userSpaceOnUse"
       gradientTransform="matrix(0,2.1008005,-1.7609368,0,52.830344,-30.654682)"
       cx="19.309795"
       cy="20.236214"
       fx="19.309795"
       fy="20.236214"
       r="29.265625" />
    <radialGradient
       inkscape:collect="always"
       xlink:href="#linearGradient20837"
       id="radialGradient20843"
       cx="25.112688"
       cy="11.544944"
       fx="25.112688"
       fy="11.544944"
       r="12.304717"
       gradientTransform="matrix(1,0,0,0.618034,0,4.409776)"
       gradientUnits="userSpaceOnUse" />
    <filter
       inkscape:collect="always"
       id="filter20873"
       x="-0.11648845"
       width="1.2329769"
       y="-0.18848227"
       height="1.3769645">
      <feGaussianBlur
         inkscape:collect="always"
         stdDeviation="1.1944645"
         id="feGaussianBlur20875" />
    </filter>
    <filter
       inkscape:collect="always"
       id="filter20877">
      <feGaussianBlur
         inkscape:collect="always"
         stdDeviation="0.6068963"
         id="feGaussianBlur20879" />
    </filter>
  </defs>
  <sodipodi:namedview
     id="base"
     pagecolor="#ffffff"
     bordercolor="#666666"
     borderopacity="1.0"
     gridtolerance="10000"
     guidetolerance="10"
     objecttolerance="10"
     inkscape:pageopacity="0.0"
     inkscape:pageshadow="2"
     inkscape:zoom="3.7476659"
     inkscape:cx="10.292495"
     inkscape:cy="71.266752"
     inkscape:document-units="px"
     inkscape:current-layer="layer1"
     width="100px"
     height="100px"
     inkscape:window-width="1270"
     inkscape:window-height="741"
     inkscape:window-x="0"
     inkscape:window-y="0"
     showguides="true"
     inkscape:guide-bbox="true"
     showgrid="false" />
  <metadata
     id="metadata7">
    <rdf:RDF>
      <cc:Work
         rdf:about="">
        <dc:format>image/svg+xml</dc:format>
        <dc:type
           rdf:resource="http://purl.org/dc/dcmitype/StillImage" />
      </cc:Work>
    </rdf:RDF>
  </metadata>
  <g
     inkscape:label="Layer 1"
     inkscape:groupmode="layer"
     id="layer1">
    <path
       sodipodi:nodetypes="ccccccccccc"
       id="path16985"
       d="M 24.02186,12.629332 L 76.017578,8.959655 C 77.694329,8.054376 82.04926,11.394659 86.01882,12.629332 C 87.09798,13.067788 88.19289,13.598968 88.19289,14.803404 L 88.19289,89.62793 C 88.19289,90.83236 87.22326,91.802 86.01882,91.802 L 22.21834,91.802 C 21.013905,91.802 19.869301,90.206 18.867115,89.37738 C 13.846533,84.53993 12.91681,84.9998 12.830189,82.38269 L 20.044269,14.803404 C 20.044269,13.598968 22.817425,12.629332 24.02186,12.629332 z"
       style="fill:url(#linearGradient16987);fill-opacity:1;fill-rule:nonzero;stroke:none;stroke-width:1;stroke-linecap:butt;stroke-linejoin:round;stroke-miterlimit:4;stroke-dashoffset:0;stroke-opacity:1;filter:url(#filter17025)"
       transform="matrix(0.9433497,0,0,1,3.9288277,0)" />
    <path
       style="fill:url(#linearGradient16790);fill-opacity:1;fill-rule:nonzero;stroke:none;stroke-width:1;stroke-linecap:butt;stroke-linejoin:round;stroke-miterlimit:4;stroke-dashoffset:0;stroke-opacity:1"
       d="M 26.299031,10.629332 L 73.998088,6.9596554 C 75.536281,6.0543762 79.531347,9.3946586 83.17288,10.629332 C 84.162866,11.067788 85.167297,11.598968 85.167297,12.803404 L 85.167297,87.627927 C 85.167297,88.832363 84.277787,89.801998 83.17288,89.801998 L 24.644544,89.801998 C 23.539638,89.801998 22.489618,88.205997 21.570247,87.37738 C 16.96454,82.539933 16.111645,82.9998 16.032182,80.382695 L 22.650127,12.803404 C 22.650127,11.598968 25.194124,10.629332 26.299031,10.629332 z"
       id="rect3429"
       sodipodi:nodetypes="ccccccccccc" />
    <path
       sodipodi:nodetypes="ccccccccc"
       id="path3442"
       d="M 73.998088,6.9596554 C 75.536281,6.0543762 79.531347,9.3946586 83.17288,10.629332 C 84.162866,11.067788 85.167297,11.598968 85.167297,12.803404 L 85.167297,87.627927 C 85.167297,88.832363 84.277787,89.801998 83.17288,89.801998 L 24.644544,89.801998 C 23.539638,89.801998 22.489618,88.205997 21.570247,87.37738 C 16.96454,82.539933 16.111645,82.9998 16.032182,80.382695 L 73.998088,6.9596554 z"
       style="fill:url(#linearGradient16787);fill-opacity:1;fill-rule:nonzero;stroke:none;stroke-width:1;stroke-linecap:butt;stroke-linejoin:round;stroke-miterlimit:4;stroke-dashoffset:0;stroke-opacity:1" />
    <path
       sodipodi:nodetypes="ccccccccc"
       id="path3586"
       d="M 72.668648,7.3139815 C 74.20684,6.4087023 78.201907,7.9454647 81.84344,9.1801382 C 82.833426,9.6185943 83.837857,10.149774 83.837857,11.35421 L 83.837857,86.178733 C 83.837857,87.383169 82.948347,88.352804 81.84344,88.352804 L 23.315104,88.352804 C 22.210198,88.352804 21.160178,86.756803 20.240807,85.928186 C 15.6351,81.090739 16.436691,81.550606 16.357228,78.933501 L 72.668648,7.3139815 z"
       style="fill:url(#radialGradient16784);fill-opacity:1;fill-rule:nonzero;stroke:none;stroke-width:1;stroke-linecap:butt;stroke-linejoin:round;stroke-miterlimit:4;stroke-dashoffset:0;stroke-opacity:1" />
    <path
       sodipodi:nodetypes="ccccccccc"
       id="path3494"
       d="M 73.998088,6.9596554 C 75.536281,6.0543762 79.531347,9.3946586 83.17288,10.629332 C 84.162866,11.067788 85.167297,11.598968 85.167297,12.803404 L 85.167297,87.627927 C 85.167297,88.832363 84.277787,89.801998 83.17288,89.801998 L 24.644544,89.801998 C 23.539638,89.801998 22.489618,88.205997 21.570247,87.37738 C 16.96454,82.539933 16.111645,82.9998 16.032182,80.382695 L 73.998088,6.9596554 z"
       style="fill:url(#radialGradient16781);fill-opacity:1;fill-rule:nonzero;stroke:none;stroke-width:1;stroke-linecap:butt;stroke-linejoin:round;stroke-miterlimit:4;stroke-dashoffset:0;stroke-opacity:1" />
    <path
       style="fill:url(#radialGradient16778);fill-opacity:1;fill-rule:nonzero;stroke:none;stroke-width:1px;stroke-linecap:butt;stroke-linejoin:miter;stroke-opacity:1"
       d="M 72.90515,15.781873 C 68.749118,16.738995 77.261328,22.060008 72.652726,19.745655 C 71.711328,18.705428 68.025709,19.028217 70.689789,20.311729 C 74.171289,21.39167 77.841983,22.880185 79.455798,26.759969 C 81.288658,28.617711 81.36011,33.672833 83.989637,33.610047 C 84.229837,30.64648 81.781195,27.990558 80.670165,25.330847 C 79.136987,22.120283 82.552503,27.83381 82.949999,28.940696 C 83.907411,30.297122 85.542561,35.84032 85.179531,31.415858 C 86.188103,28.932374 81.8159,25.940366 83.269933,24.513749 C 85.467061,25.606952 85.415789,23.715006 83.377814,23.520226 C 79.861512,23.147202 79.47854,17.633341 75.946027,16.701416 C 74.429219,17.035721 74.092711,16.847575 72.90515,15.781873 z M 74.197717,17.529033 C 75.93927,18.11797 78.788373,21.141832 78.502175,22.006875 C 76.965721,20.635439 75.577585,19.081668 74.197717,17.529033 z M 71.224812,33.591633 C 68.969996,33.334466 69.286551,35.125174 71.276151,34.908139 C 74.040952,36.310716 75.894509,39.172804 77.377543,41.975042 C 74.651171,40.177734 71.945809,35.37432 68.437281,36.99885 C 71.028002,38.80761 73.82014,40.825548 76.351303,43.050538 C 77.726244,43.619291 81.107436,47.532218 77.736362,45.909675 C 73.911378,44.46116 70.592527,41.865881 67.239626,39.4605 C 63.916238,39.729824 69.235095,42.504196 70.148835,43.329906 C 73.242833,45.60202 76.777727,47.086069 80.402041,47.991613 C 78.931782,49.379817 75.570972,46.729702 73.389006,46.726505 C 72.140079,45.866004 69.002203,46.959225 72.054522,47.512183 C 76.109511,48.551502 80.110955,49.886355 84.155702,50.84217 C 86.270181,51.137052 85.150954,46.803141 83.207401,47.221286 C 80.281768,44.450592 79.348268,40.026766 76.496739,37.14261 C 75.167765,35.394773 73.469249,33.546634 71.224812,33.591633 z M 83.06473,49.118813 C 83.798306,49.261552 82.947846,49.588808 83.06473,49.118813 z M 67.192001,49.795133 C 64.321109,51.462259 71.490891,51.282015 72.888542,51.61745 C 77.0107,52.056 81.120266,52.699304 85.158689,53.712153 C 83.999595,51.048109 80.197027,52.446985 77.941641,51.412775 C 74.353753,50.913081 70.7539,50.492275 67.192001,49.795133 z M 62.56461,55.064793 C 61.79798,57.336622 66.64583,57.465987 67.975615,58.979644 C 71.652545,60.872294 75.385895,62.713408 79.342135,63.800593 C 79.529208,65.812522 82.284468,69.042499 81.280632,70.080046 C 76.752947,68.496916 72.564978,65.89315 68.869549,62.661476 C 65.562834,62.495321 70.007703,65.583776 71.082293,66.317283 C 75.383317,69.411304 80.351152,71.073376 85.158689,72.959093 C 85.729773,71.410197 83.33768,71.295054 84.159054,69.799375 C 82.831332,67.789811 80.481269,63.188877 84.636587,64.159583 C 85.661528,62.82242 80.542039,64.150937 80.560265,61.706903 C 79.435742,59.394099 74.796445,56.586408 73.803093,58.796642 C 75.176156,59.245323 78.614632,61.399375 77.741436,62.088836 C 72.569422,60.409424 67.934309,57.225688 62.963912,55.077809 C 62.832398,55.047558 62.6975,55.072595 62.56461,55.064793 z M 69.311812,66.364973 C 66.318058,67.667747 72.169022,68.0346 72.750041,69.521133 C 77.736345,73.195465 81.425182,78.475648 85.158689,83.526593 C 85.928416,79.492679 82.129733,77.288907 80.259168,74.413933 C 77.296042,71.095714 74.009339,67.593248 69.804827,66.362458 L 69.311812,66.364973 L 69.311812,66.364973 z M 52.482584,72.846373 C 50.770302,73.863531 51.300887,77.896951 48.949156,75.052649 C 47.111853,73.045858 45.778695,75.686457 47.852335,76.953051 C 48.37525,78.997883 47.933768,80.933419 49.472924,82.838234 C 51.003573,85.127515 51.875884,89.038637 54.364049,89.810733 C 56.339995,90.103657 57.487452,89.791931 55.988484,87.749611 C 54.62366,84.522718 57.906642,89.45065 59.051795,89.562151 C 60.466786,90.472179 62.681712,89.502213 60.189571,88.473589 C 57.693718,86.911922 55.865253,84.401767 53.965011,82.097144 C 52.469519,80.515428 52.92791,77.321161 55.395165,79.077118 C 59.078125,80.43778 62.802476,81.713662 65.805389,84.582841 C 68.968917,86.603614 72.131644,88.901621 75.751917,89.810733 C 77.072959,90.034102 78.774347,89.655142 76.528463,89.184018 C 73.208649,88.396721 70.835994,85.687092 68.193209,83.617909 C 65.024043,81.215257 61.148588,80.180201 58.315055,77.233348 C 56.398452,75.855648 54.65303,73.597108 52.482584,72.846373 z M 31.982464,73.691773 C 31.436919,76.393535 35.874872,77.238159 37.174335,79.306397 C 41.557074,82.892041 46.012146,86.371182 50.49203,89.810733 C 54.465997,90.231105 49.324862,87.71849 48.356205,86.602179 C 43.069622,82.521426 37.969951,78.135045 32.809414,73.89092 C 32.564923,73.696164 32.265773,73.738637 31.982464,73.691773 z M 53.18057,74.621713 C 54.42123,75.832449 57.78729,78.018244 57.644875,78.599291 C 55.873336,77.879416 51.766028,77.943256 53.18057,74.621713 z M 60.212137,74.621713 C 59.041621,76.040253 62.209912,77.718798 62.953881,78.732197 C 68.716393,81.903914 73.626632,86.581061 79.360409,89.810733 C 83.493637,90.162096 78.055445,87.975751 76.977187,86.982705 C 74.79492,85.55903 72.654088,84.058357 70.578528,82.455753 C 73.077278,81.200009 67.687833,80.285897 66.827268,79.413498 C 64.495541,78.040138 62.658748,75.780958 60.212137,74.621713 z M 50.285219,77.524253 C 51.75534,77.650514 50.938068,79.459292 50.285219,77.524253 z M 50.311071,80.144993 C 51.615951,80.891998 53.235502,85.511362 52.704877,84.684463 C 51.893759,83.179712 51.065532,81.684947 50.311071,80.144993 z"
       id="path3502" />
    <path
       style="fill:url(#linearGradient16775);fill-opacity:1;fill-rule:nonzero;stroke:none;stroke-width:1;stroke-linecap:butt;stroke-linejoin:round;stroke-miterlimit:4;stroke-dashoffset:0;stroke-opacity:1"
       d="M 73.998088,6.9596554 C 75.536281,6.0543762 79.531347,9.3946586 83.17288,10.629332 C 84.162866,11.067788 85.167297,11.598968 85.167297,12.803404 L 85.167297,87.627927 C 85.167297,88.832363 84.277787,89.801998 83.17288,89.801998 L 24.644544,89.801998 C 23.539638,89.801998 22.489618,88.205997 21.570247,87.37738 C 16.96454,82.539933 16.111645,82.9998 16.032182,80.382695 L 73.998088,6.9596554 z"
       id="path3484"
       sodipodi:nodetypes="ccccccccc" />
    <rect
       style="fill:url(#linearGradient16841);fill-opacity:1;fill-rule:nonzero;stroke:none;stroke-width:1;stroke-linecap:butt;stroke-linejoin:round;stroke-miterlimit:4;stroke-dasharray:none;stroke-dashoffset:0;stroke-opacity:1"
       id="rect2160"
       width="58.782513"
       height="75.76342"
       x="16.033913"
       y="6.8028603"
       rx="2.4109206"
       ry="2.4109206" />
    <path
       style="fill:#3b0300;fill-opacity:0.51807232999999997;fill-rule:nonzero;stroke:none;stroke-width:1px;stroke-linecap:butt;stroke-linejoin:miter;stroke-opacity:1;filter:url(#filter19243)"
       d="M 24.975769,6.7924528 C 24.719008,7.0803875 24.534994,7.5437893 24.440349,8.2578128 C 32.200772,10.704011 40.42138,11.738468 48.280629,14.006533 C 50.438363,14.623845 56.964809,17.003159 51.380429,16.458193 C 38.424134,14.841295 25.393022,12.475373 13.168349,7.7787528 C 12.947367,8.1192402 12.830189,8.5526414 12.830189,8.9904928 L 12.830189,9.6386328 C 16.560953,10.723428 21.12491,10.497269 24.243089,12.963873 C 30.028347,15.452515 36.443277,17.202575 41.263809,21.361513 C 33.960756,19.508654 26.759665,16.725384 19.311589,15.190093 C 17.827145,14.222099 15.093653,12.667338 12.830189,11.864853 L 12.830189,14.091073 C 22.295553,17.6042 30.778842,23.514564 40.108429,27.392033 C 48.744858,31.810911 57.196292,36.686593 64.878649,42.637413 C 61.499087,38.229514 55.994456,36.317079 51.634049,33.084393 C 41.848713,27.281565 31.52476,22.467566 21.650529,16.824533 C 27.450416,16.740025 32.533566,20.175156 38.135829,21.220613 C 48.792793,24.692523 56.743961,32.86493 65.667689,39.227633 C 69.409485,42.070164 73.147271,44.896712 76.911509,47.709813 L 76.911509,47.005313 C 75.243707,45.845674 73.624862,44.624232 72.149089,43.229193 C 64.515528,37.515371 56.982488,31.665272 49.520549,25.729413 C 58.529377,28.850071 66.652807,34.57145 76.263369,35.846033 C 76.439488,36.029635 76.672611,36.172169 76.911509,36.296913 L 76.911509,35.028813 C 67.271695,33.156478 58.576346,28.141386 49.436009,24.714933 C 42.203433,20.995902 35.86918,15.541848 27.991029,13.104773 C 24.36677,11.673235 32.129702,14.0935 33.598849,14.147433 C 42.207905,15.849046 50.964364,16.659386 59.580809,18.318073 C 61.098399,19.998311 68.444806,22.458468 63.920529,19.163473 C 67.669702,17.366419 72.541927,20.746708 76.601529,21.361513 C 76.691133,21.413566 76.808656,21.482414 76.911509,21.530593 L 76.911509,19.783433 C 70.761392,18.092422 64.091176,18.7999 58.002729,16.627273 C 50.025574,14.06242 42.104783,11.260613 33.852469,9.6949928 C 31.804842,10.119917 29.117402,7.7316156 27.117449,6.7924528 L 24.975769,6.7924528 z M 40.192969,6.7924528 C 43.635035,9.8849702 47.152441,13.40313 52.366729,12.682073 C 57.480376,12.026431 62.107139,14.157832 66.963969,15.246453 C 70.233904,15.959286 73.568557,16.468035 76.911509,16.683633 L 76.911509,15.838233 C 71.927477,15.50384 66.952445,13.628706 62.060649,12.851153 C 60.076919,12.073461 61.50501,11.540116 62.765149,11.780313 C 67.44641,12.677492 72.207793,13.160174 76.911509,13.921993 L 76.911509,10.455853 C 72.013199,10.09221 66.86863,11.428543 62.286089,9.0750328 C 59.914743,8.3908639 57.58513,7.5795815 55.241089,6.7924528 L 50.478669,6.7924528 C 53.917263,7.5329074 57.47174,8.0503205 60.369849,10.117693 C 55.539424,9.5889729 50.914903,7.9926476 46.223489,6.7924528 L 40.192969,6.7924528 z M 44.419969,8.0323728 C 46.343673,8.1409041 54.228434,10.474497 50.788649,11.695773 C 48.32888,11.366492 45.641896,10.362036 44.419969,8.0323728 z M 55.241089,10.371313 C 58.948415,10.353346 58.443215,12.18435 55.241089,10.371313 z M 71.331869,11.132173 C 73.898789,11.08625 77.399515,11.302064 75.812489,12.400273 C 73.60399,12.290172 71.397107,11.976369 69.302909,11.244893 C 69.725649,11.192735 70.476229,11.14748 71.331869,11.132173 z M 12.830189,25.785773 L 12.830189,27.673833 C 16.244964,30.567756 21.710212,31.156536 24.778509,34.718833 C 29.714187,37.888015 34.501523,41.271338 39.263029,44.694553 C 29.965954,40.727813 20.866733,36.079086 12.830189,29.900053 L 12.830189,32.379893 C 14.900914,34.579677 20.190087,35.337511 22.214129,37.536833 C 23.996742,38.435439 29.608006,41.168326 24.975769,39.086733 C 20.895474,37.270833 16.879314,35.277316 12.830189,33.394373 L 12.830189,34.267953 C 17.799972,37.128785 23.455815,38.783274 28.554629,41.397493 C 40.164576,45.692107 51.120186,51.54796 61.468869,58.305493 C 66.038237,60.981214 70.640548,63.576899 75.305249,66.083173 C 68.434103,60.449981 59.914447,57.429925 52.592169,52.500413 C 50.267255,51.538814 46.9178,48.367152 51.464969,50.865973 C 57.213938,53.616888 62.663986,56.958292 68.260249,59.996293 C 65.401214,56.132079 59.865856,55.810135 56.706449,52.444053 C 63.45138,54.67145 70.177442,56.918988 76.911509,59.179073 L 76.911509,57.600993 C 74.678263,57.231198 72.123345,57.025142 70.768269,55.882013 C 58.094087,51.66318 44.376742,48.800478 33.908829,39.960313 C 27.134078,34.894823 20.314286,29.764493 12.830189,25.785773 z M 12.858369,48.667933 C 12.848586,48.6782 12.839819,48.685863 12.830189,48.696113 L 12.830189,52.979473 C 14.724226,55.116991 18.759769,56.957153 19.987909,59.038173 C 26.841215,64.537618 35.120709,67.827156 42.447369,72.592753 C 31.362072,68.864709 22.08415,61.753965 12.830189,54.782993 L 12.830189,56.051093 C 15.860366,58.038203 19.031164,59.889509 21.396909,62.645213 C 18.470185,61.265891 15.617451,59.756807 12.830189,58.136413 L 12.830189,59.066353 C 20.879025,63.59791 29.109112,67.799247 36.980449,72.620933 C 41.039824,75.461282 44.880201,78.704881 47.998829,82.568473 L 51.154989,82.568473 C 50.749319,81.160451 49.405978,79.455502 47.998829,79.525033 C 46.021226,77.250975 39.895551,73.6946 40.023889,72.620933 C 46.986669,75.369907 53.541628,78.92437 60.059869,82.568473 L 61.553409,82.568473 C 59.310045,81.347199 57.388482,79.190648 61.694309,80.680413 C 66.302817,81.269663 70.947684,82.543044 75.615229,82.089413 C 70.360248,79.345197 63.985475,81.997864 58.707229,79.045973 C 46.369282,75.212766 35.785598,67.51124 24.919409,60.785333 C 20.27703,57.447993 15.902135,53.557897 12.858369,48.667933 z M 12.830189,69.521133 L 12.830189,70.169273 C 15.801975,75.613625 23.162593,76.770993 26.412949,82.061233 C 22.106206,79.625415 17.666236,76.997551 12.830189,75.777093 L 12.830189,78.735993 C 15.573374,80.299545 18.624597,81.339377 21.509629,82.568473 L 29.879089,82.568473 C 29.689381,81.319903 28.501766,79.931636 26.328409,79.412313 C 21.844956,76.104058 17.918855,71.931784 12.830189,69.521133 z M 17.930769,79.186873 C 18.440147,79.365478 17.424975,79.384436 17.930769,79.186873 z"
       id="path3247"
       transform="matrix(0.8849523,0,0,0.9601606,6.7551292,3.2894749)" />
    <path
       style="fill:#9f1701;fill-opacity:0.53614454000000000;fill-rule:nonzero;stroke:none;stroke-width:1px;stroke-linecap:butt;stroke-linejoin:miter;stroke-opacity:1;filter:url(#filter19251)"
       d="M 15.000049,6.7924528 C 14.480561,6.7924528 14.020576,6.9978912 13.647409,7.2996928 C 21.417143,10.220263 29.995992,9.7239907 37.854029,12.428453 C 40.149687,13.099832 46.328696,14.912271 45.969869,15.330993 C 34.743549,14.190069 23.76729,11.502873 13.027449,8.0887328 C 12.961593,8.2374213 12.917886,8.4035607 12.886549,8.5677928 C 24.164517,12.197817 35.816598,14.75376 47.632489,15.753693 C 50.09584,17.280933 43.718845,15.646311 42.672809,15.697333 C 32.694247,14.11826 22.419957,13.090128 13.111989,8.8777728 L 12.858369,8.6805128 C 12.844627,8.7796848 12.830189,8.8874207 12.830189,8.9904928 L 12.830189,10.681293 C 15.169789,11.408093 17.472837,12.246143 19.706109,13.302033 C 32.356626,17.196139 46.516252,16.310828 58.059089,23.559553 C 64.743736,27.061678 70.909824,31.378777 76.911509,35.930573 L 76.911509,35.479693 C 75.543379,34.498528 74.194275,33.512863 72.909949,32.436253 C 61.519787,24.133907 48.49345,17.299453 34.246989,16.007313 C 28.360319,15.033158 22.411617,13.910151 16.972649,11.357613 C 29.32109,15.016689 42.226738,16.152759 54.705669,19.191653 C 61.889303,22.060426 67.960892,27.013192 74.488029,31.055433 C 75.305518,31.624168 76.103909,32.219461 76.911509,32.802593 L 76.911509,32.295353 C 74.383025,30.604077 71.82438,28.966401 69.387449,27.194773 C 65.194844,24.452752 60.905778,21.82587 56.481009,19.473453 C 63.547059,21.023715 71.327147,22.048792 76.911509,27.053873 L 76.911509,25.391253 C 75.084156,24.167154 72.550825,22.817367 71.585489,22.545073 C 66.220002,20.214414 60.297341,19.932259 54.705669,18.402613 C 52.91931,16.454809 60.016263,18.82183 61.637949,18.571693 C 66.792439,19.283251 71.949661,20.18622 76.911509,21.784213 L 76.911509,20.882453 C 68.167093,18.47538 58.996367,18.236929 50.112329,16.514553 C 54.538087,15.399055 59.193694,17.016574 63.723269,16.768173 C 68.129909,17.062047 72.520303,17.451299 76.911509,17.923553 L 76.911509,17.106333 C 73.440128,16.471663 69.620995,17.305591 66.146749,16.486373 C 60.004415,16.179704 53.851401,15.947547 47.717029,15.500073 C 38.13692,11.327912 27.653249,10.0702 17.564429,7.8351128 C 17.238628,7.5437682 16.414948,7.1604086 15.479109,6.7924528 L 15.000049,6.7924528 z M 29.766369,14.006533 C 37.014021,15.48384 44.423439,15.888143 51.662229,17.416313 C 47.165663,17.532502 42.721796,15.89605 38.192189,15.612793 C 35.366354,15.173661 32.547656,14.676823 29.766369,14.006533 z M 12.830189,20.487933 L 12.830189,21.079713 C 16.935217,23.067029 21.421479,24.289756 25.511189,26.321193 C 41.708052,32.672366 58.487458,37.34056 75.192529,42.130173 C 75.489772,42.600743 76.167231,42.906421 76.911509,43.088293 L 76.911509,41.848373 C 56.249615,36.764311 35.773106,30.703081 16.324509,21.981473 C 15.159152,21.487072 13.995598,20.982213 12.830189,20.487933 z M 12.830189,23.362293 L 12.830189,24.686753 C 15.005291,25.751011 17.378248,26.581506 19.283409,27.842913 C 33.279956,33.717098 47.315446,39.535332 61.158889,45.765393 C 66.364198,47.999313 71.602168,50.158934 76.911509,52.134073 L 76.911509,51.598653 C 72.162576,49.597959 67.097917,48.334404 62.483349,45.990833 C 46.935104,39.435698 31.629243,32.321321 16.127249,25.673053 C 14.963691,24.997116 13.897445,24.183599 12.830189,23.362293 z M 16.972649,25.165813 C 22.734626,28.33066 29.377113,29.250776 35.458729,31.647213 C 49.084611,36.027398 62.786222,40.320511 75.840669,46.244453 C 76.041754,46.606324 76.439603,46.897502 76.911509,47.146213 L 76.911509,45.624493 C 57.491799,37.267498 36.958626,31.944075 16.972649,25.165813 z M 12.830189,25.983033 L 12.830189,28.124713 C 14.04872,28.593347 15.063345,29.335907 14.943689,30.886353 C 19.413792,37.960869 25.978393,43.394759 30.414509,50.499633 C 34.140932,55.241759 38.608328,59.36426 43.236409,63.208813 C 32.02717,54.873985 21.851384,44.861511 14.577349,32.858953 C 14.656825,31.998198 13.813393,31.03668 12.830189,30.266393 L 12.830189,32.915313 C 16.492072,37.42541 19.3422,42.573728 23.566769,46.638973 C 36.084001,60.062298 51.637823,70.121883 66.963969,80.004093 C 68.435695,80.886097 69.916671,81.736035 71.416409,82.568473 L 73.022669,82.568473 C 67.486685,79.55324 62.08124,76.288332 56.931889,72.649113 C 63.288388,75.966818 69.804869,78.954557 76.404269,81.751253 C 76.480766,81.657575 76.569526,81.575278 76.629709,81.469453 C 75.679755,81.066161 74.752832,80.629838 73.839889,80.144993 C 61.144321,74.977358 48.838355,68.263407 39.065769,58.502753 C 34.568432,54.292442 30.444451,49.647767 27.089269,44.469113 C 36.498875,51.537222 46.285998,58.236591 56.988249,63.208813 C 46.086726,57.158522 35.185029,50.860611 25.792989,42.581053 C 22.061704,37.407869 19.50084,31.071823 13.985569,27.448393 C 13.605535,26.979485 13.228453,26.473978 12.830189,25.983033 z M 17.226269,31.985373 C 18.699163,33.504146 21.201213,37.591402 18.438009,33.704353 C 18.02258,33.136614 17.613134,32.573038 17.226269,31.985373 z M 12.830189,37.114133 L 12.830189,42.327433 C 14.322108,44.210439 15.957482,46.024766 16.972649,47.991613 C 22.474576,54.56711 27.870061,61.282067 32.753449,68.309393 C 33.763813,71.251122 29.256676,65.668541 28.103749,64.984153 C 22.240255,59.458975 16.588361,53.455824 12.999269,46.159913 C 13.24662,45.443773 13.121432,44.877622 12.830189,44.469113 L 12.830189,48.555213 C 18.553309,57.59068 26.610584,64.884537 34.585149,71.916433 C 37.374478,74.653356 38.715863,80.56581 41.320169,82.568473 L 42.278289,82.568473 C 42.310657,79.876546 35.913053,75.280866 40.052069,75.410753 C 44.020803,78.038875 48.160146,80.38707 52.394909,82.568473 L 53.663009,82.568473 C 52.425742,81.97609 51.222864,81.330435 50.140509,80.595873 C 43.85819,77.092882 40.62492,70.284356 35.120569,65.857733 C 26.256613,57.695124 17.64098,48.713922 12.999269,37.395933 C 12.948399,37.297635 12.883294,37.211622 12.830189,37.114133 z M 27.145629,59.207253 C 32.829999,64.776184 38.773995,70.176974 43.461849,76.650673 C 35.588776,73.625911 32.535772,64.971925 27.145629,59.207253 z M 12.830189,59.883573 L 12.830189,62.786113 C 14.818704,65.708581 18.015807,68.222066 18.409829,71.916433 C 19.869123,74.002831 18.965278,76.66993 17.226269,73.381793 C 16.0081,71.239659 14.766102,66.707488 12.830189,64.984153 L 12.830189,67.294913 C 14.262451,69.750196 15.15526,72.532234 17.085369,74.734433 C 19.574768,77.927117 22.728814,80.525568 26.215689,82.568473 L 27.737409,82.568473 C 26.714772,81.293823 22.762247,79.600773 22.355029,77.552433 C 18.948623,72.362657 17.977533,65.860891 13.703769,61.179853 C 13.402428,60.754666 13.123149,60.315056 12.830189,59.883573 z"
       id="path3154"
       transform="matrix(0.8849523,0,0,1,6.7551292,0)" />
    <g
       inkscape:label="#g14211"
       transform="matrix(0.8042047,0,0,0.8042047,-134.00349,-427.00424)"
       id="g18331"
       style="fill:#44000d;fill-opacity:1;display:inline;stroke:#53000b;stroke-opacity:1;stroke-width:2.48692901;stroke-miterlimit:4;stroke-dasharray:none;stroke-linejoin:round;stroke-linecap:round">
      <path
         id="path18333"
         d="M 217.76855,549.60638 C 215.29017,549.14581 217.39344,551.08609 217.82498,552.1362 C 220.10949,555.72008 219.34204,560.10758 219.64696,564.13014 C 219.70612,565.79329 219.74888,567.45654 219.69235,569.12042 C 214.61649,570.05504 209.55527,571.08289 204.44485,571.81573 C 203.21379,571.18928 203.15419,568.80987 201.43358,569.23573 C 199.96309,569.83895 198.4764,570.40236 196.99925,570.9892 C 199.40667,573.07567 200.49938,576.04921 201.72685,578.88418 C 203.84613,583.0865 205.72394,587.41275 206.99119,591.94891 C 208.05617,595.26234 213.10089,593.51568 210.87262,590.26982 C 210.15097,589.36209 212.60063,589.8703 213.19776,589.54014 C 215.14155,589.27568 217.09766,589.12991 219.05106,588.95795 C 218.9674,593.93051 218.81304,598.90102 218.48105,603.86182 C 218.54535,608.36005 218.35062,612.87311 218.5817,617.36178 C 218.68031,618.44646 218.73626,619.69259 219.69235,620.40326 C 222.15518,619.41571 222.45602,616.34156 222.83165,614.00718 C 223.40825,610.52017 223.107,606.95443 223.29653,603.43271 C 223.40137,598.41612 223.50621,593.39953 223.61105,588.38293 C 229.6166,587.73481 235.65122,587.31449 241.63734,586.51416 C 243.28374,586.0148 243.88692,583.52751 241.82991,583.10911 C 239.81671,583.0357 242.15537,581.32838 242.49426,580.36425 C 243.9751,578.28942 245.25556,576.03246 246.86142,574.07127 C 248.14879,572.92713 250.47494,571.89924 249.15425,569.80326 C 247.91941,567.95217 245.77893,566.98677 244.13104,565.52667 C 241.74615,562.87412 238.78723,565.0394 236.45986,566.39727 C 232.52827,567.52737 228.4457,567.85056 224.39485,568.29388 C 224.47779,564.03666 224.93135,559.79189 225.0561,555.5336 C 225.53886,554.27267 227.44577,552.44554 225.17518,551.62393 C 222.99078,550.1683 220.38261,549.48061 217.76855,549.60638 z M 239.39294,570.77356 C 239.8643,573.32179 239.02238,576.16526 238.38475,578.70498 C 237.62262,580.60229 237.57561,583.63234 234.91518,583.34744 C 231.19973,584.03244 227.42779,584.31687 223.68234,584.78918 C 223.91985,580.57251 224.15735,576.35583 224.39485,572.13916 C 229.39156,571.62998 234.3562,570.7128 239.39294,570.77356 z M 219.44295,572.89386 C 219.31232,577.01471 219.18169,581.13556 219.05106,585.25641 C 215.79732,585.63973 212.54359,586.02305 209.28986,586.40637 C 208.04299,582.53711 206.79612,578.66785 205.54926,574.79858 C 210.18049,574.16368 214.81172,573.52877 219.44295,572.89386 z"
         style="fill:#44000d;fill-opacity:1;stroke:#53000b;stroke-opacity:1;stroke-width:2.48692901;stroke-miterlimit:4;stroke-dasharray:none;stroke-linejoin:round;stroke-linecap:round" />
      <use
         style="fill:#44000d;fill-opacity:1;display:inline;stroke:#53000b;stroke-opacity:1;stroke-width:2.48692901;stroke-miterlimit:4;stroke-dasharray:none;stroke-linejoin:round;stroke-linecap:round"
         x="0"
         y="0"
         inkscape:tiled-clone-of="#facesize"
         xlink:href="#facesize"
         transform="translate(172.25,424.5)"
         id="use18335"
         width="774"
         height="1060" />
    </g>
    <g
       style="fill:#eeeeec;fill-opacity:1;display:inline"
       id="DRAGON_3"
       transform="matrix(0.8042047,0,0,0.8042047,-132.40248,-425.9369)"
       inkscape:label="#g14211">
      <path
         style="fill:#eeeeec;fill-opacity:1"
         d="M 217.76855,549.60638 C 215.29017,549.14581 217.39344,551.08609 217.82498,552.1362 C 220.10949,555.72008 219.34204,560.10758 219.64696,564.13014 C 219.70612,565.79329 219.74888,567.45654 219.69235,569.12042 C 214.61649,570.05504 209.55527,571.08289 204.44485,571.81573 C 203.21379,571.18928 203.15419,568.80987 201.43358,569.23573 C 199.96309,569.83895 198.4764,570.40236 196.99925,570.9892 C 199.40667,573.07567 200.49938,576.04921 201.72685,578.88418 C 203.84613,583.0865 205.72394,587.41275 206.99119,591.94891 C 208.05617,595.26234 213.10089,593.51568 210.87262,590.26982 C 210.15097,589.36209 212.60063,589.8703 213.19776,589.54014 C 215.14155,589.27568 217.09766,589.12991 219.05106,588.95795 C 218.9674,593.93051 218.81304,598.90102 218.48105,603.86182 C 218.54535,608.36005 218.35062,612.87311 218.5817,617.36178 C 218.68031,618.44646 218.73626,619.69259 219.69235,620.40326 C 222.15518,619.41571 222.45602,616.34156 222.83165,614.00718 C 223.40825,610.52017 223.107,606.95443 223.29653,603.43271 C 223.40137,598.41612 223.50621,593.39953 223.61105,588.38293 C 229.6166,587.73481 235.65122,587.31449 241.63734,586.51416 C 243.28374,586.0148 243.88692,583.52751 241.82991,583.10911 C 239.81671,583.0357 242.15537,581.32838 242.49426,580.36425 C 243.9751,578.28942 245.25556,576.03246 246.86142,574.07127 C 248.14879,572.92713 250.47494,571.89924 249.15425,569.80326 C 247.91941,567.95217 245.77893,566.98677 244.13104,565.52667 C 241.74615,562.87412 238.78723,565.0394 236.45986,566.39727 C 232.52827,567.52737 228.4457,567.85056 224.39485,568.29388 C 224.47779,564.03666 224.93135,559.79189 225.0561,555.5336 C 225.53886,554.27267 227.44577,552.44554 225.17518,551.62393 C 222.99078,550.1683 220.38261,549.48061 217.76855,549.60638 z M 239.39294,570.77356 C 239.8643,573.32179 239.02238,576.16526 238.38475,578.70498 C 237.62262,580.60229 237.57561,583.63234 234.91518,583.34744 C 231.19973,584.03244 227.42779,584.31687 223.68234,584.78918 C 223.91985,580.57251 224.15735,576.35583 224.39485,572.13916 C 229.39156,571.62998 234.3562,570.7128 239.39294,570.77356 z M 219.44295,572.89386 C 219.31232,577.01471 219.18169,581.13556 219.05106,585.25641 C 215.79732,585.63973 212.54359,586.02305 209.28986,586.40637 C 208.04299,582.53711 206.79612,578.66785 205.54926,574.79858 C 210.18049,574.16368 214.81172,573.52877 219.44295,572.89386 z"
         id="path2463" />
      <use
         height="1060"
         width="774"
         id="use8916"
         transform="translate(172.25,424.5)"
         xlink:href="#facesize"
         inkscape:tiled-clone-of="#facesize"
         y="0"
         x="0"
         style="fill:#eeeeec;fill-opacity:1;display:inline" />
    </g>
    <path
       style="fill:url(#radialGradient16836);fill-opacity:1;fill-rule:nonzero;stroke:none;stroke-width:0.97125797999999997;stroke-linecap:butt;stroke-linejoin:round;stroke-miterlimit:4;stroke-dasharray:none;stroke-dashoffset:0;stroke-opacity:1"
       d="M 18.824128,7.4405928 C 17.535366,7.4405928 16.471655,8.6001218 16.471655,10.004973 L 16.471655,79.355953 C 16.471655,80.760804 17.535366,81.92033 18.824128,81.920333 L 72.026204,81.920333 C 73.314965,81.920333 74.378677,80.760805 74.378676,79.355953 L 74.378676,10.004973 C 74.378676,8.6001218 73.314962,7.4405928 72.026204,7.4405928 L 18.824128,7.4405928 z M 18.824128,8.3423528 L 72.026204,8.3423528 C 72.883739,8.3423528 73.577285,9.0701885 73.577285,10.004973 L 73.577285,79.355953 C 73.577286,80.290738 72.883742,81.046753 72.026204,81.046753 L 18.824128,81.046753 C 17.966588,81.046751 17.273047,80.290737 17.273047,79.355953 L 17.273047,10.004973 C 17.273047,9.0701876 17.966589,8.3423528 18.824128,8.3423528 z"
       id="rect3306" />
    <path
       sodipodi:type="inkscape:offset"
       inkscape:radius="0"
       inkscape:original="M 61.78125 8.28125 C 59.521014 8.4212747 57.072796 8.7521029 55.25 8.40625 C 42.451418 8.4062497 29.673583 8.40625 16.875 8.40625 C 18.307149 13.895364 24.729407 9.2457942 28.375 9.9375 C 41.173583 9.9374999 54.482667 9.3125 67.28125 9.3125 C 66.126719 8.1964941 64.041486 8.1412253 61.78125 8.28125 z M 14.5 10.46875 C 14.5 32.327036 14.5 54.204214 14.5 76.0625 C 16.824862 72.801621 14.647759 65.586976 15.40625 60.96875 C 15.40625 44.14307 16.40625 29.450681 16.40625 12.625 L 14.5 10.46875 z "
       style="fill:url(#radialGradient20816);fill-opacity:1;fill-rule:evenodd;stroke:none;stroke-width:1px;stroke-linecap:butt;stroke-linejoin:miter;stroke-opacity:1;filter:url(#filter20877)"
       id="path20814"
       d="M 61.78125,8.28125 C 59.521014,8.4212747 57.072796,8.7521029 55.25,8.40625 C 42.451418,8.4062497 29.673583,8.40625 16.875,8.40625 C 18.307149,13.895364 24.729407,9.2457942 28.375,9.9375 C 41.173583,9.9374999 54.482667,9.3125 67.28125,9.3125 C 66.126719,8.1964941 64.041486,8.1412253 61.78125,8.28125 z M 14.5,10.46875 C 14.5,32.327036 14.5,54.204214 14.5,76.0625 C 16.824862,72.801621 14.647759,65.586976 15.40625,60.96875 C 15.40625,44.14307 16.40625,29.450681 16.40625,12.625 L 14.5,10.46875 z"
       transform="matrix(0.9173651,0,0,1,4.2622142,0)" />
    <path
       sodipodi:type="arc"
       style="fill:url(#linearGradient16979);fill-opacity:1;fill-rule:nonzero;stroke:none;stroke-width:1;stroke-linecap:butt;stroke-linejoin:round;stroke-miterlimit:4;stroke-dasharray:none;stroke-dashoffset:0;stroke-opacity:1;"
       id="path3339"
       sodipodi:cx="23.824764"
       sodipodi:cy="12.642531"
       sodipodi:rx="2.7490113"
       sodipodi:ry="2.4435656"
       d="M 26.573776,12.642531 A 2.7490113,2.4435656 0 1 1 21.075753,12.642531 A 2.7490113,2.4435656 0 1 1 26.573776,12.642531 z"
       transform="matrix(0.8272432,0,0,0.59178,3.1342331,2.3902755)" />
    <path
       sodipodi:nodetypes="csssccccccc"
       style="fill:#ffcedc;fill-opacity:0.53846157;fill-rule:evenodd;stroke:none;stroke-width:1px;stroke-linecap:butt;stroke-linejoin:miter;stroke-opacity:1;filter:url(#filter16939)"
       d="M 73.487883,43.93729 C 73.146606,45.293172 72.8069,46.768313 72.617156,47.906779 C 72.161769,50.639097 71.480102,54.732431 66.470849,57.920137 C 61.461598,61.107842 20.24318,63.853185 17.966247,63.170107 C 15.689314,62.487027 16.597765,58.379255 15.686992,54.053086 L 15.251628,52.234803 L 15.251628,78.038297 C 15.251628,79.132872 16.128992,80.010235 17.223568,80.010237 L 71.515943,80.010237 C 72.610518,80.010237 73.487885,79.13287 73.487883,78.038297 L 73.487883,43.93729 z"
       id="path3359"
       transform="matrix(0.9173651,0,0,1,4.2622142,0)" />
    <path
       transform="matrix(0.6600248,0,0,0.472158,12.59385,3.5768896)"
       d="M 26.573776,12.642531 A 2.7490113,2.4435656 0 1 1 21.075753,12.642531 A 2.7490113,2.4435656 0 1 1 26.573776,12.642531 z"
       sodipodi:ry="2.4435656"
       sodipodi:rx="2.7490113"
       sodipodi:cy="12.642531"
       sodipodi:cx="23.824764"
       id="path3396"
       style="fill:url(#linearGradient16977);fill-opacity:1;fill-rule:nonzero;stroke:none;stroke-width:1;stroke-linecap:butt;stroke-linejoin:round;stroke-miterlimit:4;stroke-dasharray:none;stroke-dashoffset:0;stroke-opacity:1;"
       sodipodi:type="arc" />
    <path
       sodipodi:type="arc"
       style="fill:url(#linearGradient16975);fill-opacity:1;fill-rule:nonzero;stroke:none;stroke-width:1;stroke-linecap:butt;stroke-linejoin:round;stroke-miterlimit:4;stroke-dasharray:none;stroke-dashoffset:0;stroke-opacity:1;"
       id="path3400"
       sodipodi:cx="23.824764"
       sodipodi:cy="12.642531"
       sodipodi:rx="2.7490113"
       sodipodi:ry="2.4435656"
       d="M 26.573776,12.642531 A 2.7490113,2.4435656 0 1 1 21.075753,12.642531 A 2.7490113,2.4435656 0 1 1 26.573776,12.642531 z"
       transform="matrix(0.3733648,0,0,0.2670918,32.104441,5.7506756)" />
    <rect
       style="fill:url(#linearGradient16762);fill-opacity:1;fill-rule:nonzero;stroke:none;stroke-width:1;stroke-linecap:butt;stroke-linejoin:round;stroke-miterlimit:4;stroke-dasharray:none;stroke-dashoffset:0;stroke-opacity:1"
       id="rect3454"
       width="2.2984254"
       height="75.163925"
       x="73.492813"
       y="7.0222921"
       rx="2.4109206"
       ry="2.4109206" />
    <rect
       ry="2.4109206"
       rx="1.1159954"
       y="16.951548"
       x="-83.438942"
       height="57.46064"
       width="2.5054607"
       id="rect3474"
       style="fill:url(#linearGradient16759);fill-opacity:1;fill-rule:nonzero;stroke:none;stroke-width:1;stroke-linecap:butt;stroke-linejoin:round;stroke-miterlimit:4;stroke-dasharray:none;stroke-dashoffset:0;stroke-opacity:1"
       transform="matrix(0,-1,1,0,0,0)" />
    <path
       style="fill:url(#radialGradient16756);fill-opacity:1;fill-rule:evenodd;stroke:none;stroke-width:1px;stroke-linecap:butt;stroke-linejoin:miter;stroke-opacity:1"
       d="M 83.193986,13.048413 C 83.193986,37.348967 83.193986,61.649519 83.193986,85.950073 C 85.278532,83.085294 83.318809,79.012657 84.02123,75.653078 C 84.02123,54.784857 84.02123,33.916634 84.02123,13.048413 C 83.745482,13.048413 83.469734,13.048413 83.193986,13.048413 z M 25.907397,88.007213 C 28.075697,90.235759 31.4722,88.185596 34.146192,88.908973 C 49.94396,88.908973 65.741731,88.908973 81.5395,88.908973 C 79.371199,86.680426 75.974696,88.730589 73.300705,88.007213 C 57.502936,88.007213 41.705167,88.007213 25.907397,88.007213 z"
       id="path3624" />
    <path
       style="fill:#888a85;fill-opacity:1;filter:url(#filter20766)"
       d="M 42.15625 16 C 41.459775 16.042947 41.884875 16.684078 42.3125 17.3125 C 42.331138 17.09103 42.564864 16.997677 43.25 17.125 C 45.35224 17.023855 47.462045 17.579376 49.21875 18.75 C 49.332876 18.791296 49.442271 18.827695 49.53125 18.875 C 49.627427 18.394975 49.469125 17.97033 48.6875 17.6875 C 46.930793 16.516875 44.82099 15.961355 42.71875 16.0625 C 42.469609 16.016201 42.30007 15.991132 42.15625 16 z M 43.375 19.25 C 44.457923 21.885827 44.037125 24.94172 44.25 27.75 C 44.297574 29.087513 44.326712 30.4119 44.28125 31.75 C 40.199221 32.501625 36.109824 33.316896 32 33.90625 C 31.009978 33.402456 30.977472 31.501272 29.59375 31.84375 C 28.411175 32.328864 27.219181 32.778061 26.03125 33.25 C 26.359455 33.53445 26.664385 33.834816 26.9375 34.15625 C 28.000696 33.737422 29.067838 33.339914 30.125 32.90625 C 31.508722 32.563772 31.541225 34.496205 32.53125 35 C 36.641074 34.410646 40.730469 33.564126 44.8125 32.8125 C 44.857962 31.4744 44.828826 30.150014 44.78125 28.8125 C 44.538706 25.612825 45.139601 22.114569 43.375 19.25 z M 61.625 27.84375 C 60.295108 27.929083 58.919801 28.879996 57.75 29.5625 C 54.77052 30.418924 51.697171 30.703452 48.625 31.03125 C 48.611248 31.406685 48.601068 31.780602 48.59375 32.15625 C 51.851463 31.79973 55.119448 31.533831 58.28125 30.625 C 60.152932 29.532994 62.550813 27.804307 64.46875 29.9375 C 65.699589 31.028075 67.267852 31.768902 68.28125 33.0625 C 68.248442 32.827559 68.143385 32.589651 67.96875 32.3125 C 66.975689 30.823845 65.262741 30.049219 63.9375 28.875 C 63.218273 28.075052 62.422935 27.79255 61.625 27.84375 z M 60.21875 34.15625 C 60.264609 35.912617 59.738112 37.773512 59.3125 39.46875 C 58.699593 40.994575 58.67078 43.416618 56.53125 43.1875 C 53.749105 43.700433 50.9008 43.944874 48.09375 44.28125 C 48.072592 44.656879 48.052408 45.030621 48.03125 45.40625 C 51.043359 45.026416 54.074517 44.800881 57.0625 44.25 C 59.20203 44.479118 59.23084 42.057074 59.84375 40.53125 C 60.356535 38.488795 61.035318 36.205548 60.65625 34.15625 C 60.511587 34.154505 60.363269 34.15604 60.21875 34.15625 z M 44.59375 35.84375 C 44.406624 35.869404 44.218376 35.880596 44.03125 35.90625 C 43.938087 38.845128 43.843162 41.77987 43.75 44.71875 C 41.196226 45.019606 38.647518 45.324142 36.09375 45.625 C 36.210896 45.988524 36.320354 46.355226 36.4375 46.71875 C 39.054165 46.410482 41.664576 46.089519 44.28125 45.78125 C 44.386303 42.467243 44.488697 39.157758 44.59375 35.84375 z M 29.09375 37.875 C 29.345201 38.446016 29.565716 39.023776 29.8125 39.59375 C 31.516834 42.973277 33.043371 46.476998 34.0625 50.125 C 34.169558 50.458085 34.310601 50.725989 34.5 50.9375 C 33.482437 47.382577 32.039438 43.956664 30.375 40.65625 C 29.967998 39.716237 29.545607 38.795089 29.09375 37.875 z M 62.3125 43.0625 C 61.911558 43.592166 61.7073 44.029037 62.625 44.0625 C 62.831782 44.10456 62.982532 44.193568 63.125 44.28125 C 63.171325 43.767681 62.943225 43.274636 62.3125 43.0625 z M 44.28125 48.78125 C 44.093104 48.797813 43.906937 48.796341 43.71875 48.8125 C 43.647515 52.444715 43.555024 56.063554 43.3125 59.6875 C 43.364212 63.305 43.189165 66.952691 43.375 70.5625 C 43.445629 71.339394 43.51066 72.194312 44.0625 72.78125 C 43.976133 72.394616 43.941173 72.009139 43.90625 71.625 C 43.720415 68.015191 43.895459 64.367499 43.84375 60.75 C 44.110738 56.760501 44.213969 52.780208 44.28125 48.78125 z "
       id="path20743" />
    <use
       height="1060"
       width="774"
       id="use20745"
       transform="matrix(0.8042047,0,0,0.8042047,6.1217796,-84.552005)"
       xlink:href="#facesize"
       inkscape:tiled-clone-of="#facesize"
       y="0"
       x="0"
       style="fill:#eeeeec;fill-opacity:1;display:inline" />
    <use
       style="fill:#eeeeec;fill-opacity:1;display:inline"
       x="0"
       y="0"
       inkscape:tiled-clone-of="#facesize"
       xlink:href="#facesize"
       transform="matrix(0.8042047,0,0,0.8042047,6.6554496,-83.484665)"
       id="use20751"
       width="774"
       height="1060" />
  </g>
</svg>
