<?xml version="1.0" encoding="UTF-8" standalone="no"?>
<!DOCTYPE svg PUBLIC "-//W3C//DTD SVG 1.0//EN"
"http://www.w3.org/TR/2001/REC-SVG-20010904/DTD/svg10.dtd">
<!-- Created with Sodipodi ("http://www.sodipodi.com/") -->
<svg
   xmlns="http://www.w3.org/2000/svg"
   xmlns:xlink="http://www.w3.org/1999/xlink"
   version="1.0"
   x="0"
   y="0"
   width="1050"
   height="1050"
   id="svg602"
   xml:space="preserve"><defs
   id="defs604"><linearGradient
   id="linearGradient2086"><stop
   style="stop-color:#3f627d;stop-opacity:1;"
   offset="0"
   id="stop2088" /><stop
   style="stop-color:#000000;stop-opacity:1;"
   offset="1"
   id="stop2087" /></linearGradient><linearGradient
   id="linearGradient641"><stop
   style="stop-color:#ffffff;stop-opacity:1;"
   offset="0"
   id="stop642" /><stop
   style="stop-color:#ffffff;stop-opacity:0;"
   offset="1"
   id="stop643" /></linearGradient><linearGradient
   id="linearGradient638"><stop
   style="stop-color:#ffff00;stop-opacity:0.6353;"
   offset="0"
   id="stop640" /><stop
   style="stop-color:#ffc200;stop-opacity:0;"
   offset="1"
   id="stop641" /></linearGradient><linearGradient
   id="linearGradient649"><stop
   style="stop-color:#ff97ff;stop-opacity:1;"
   offset="0"
   id="stop650" /><stop
   style="stop-color:#ff0000;stop-opacity:1;"
   offset="1"
   id="stop651" /></linearGradient><linearGradient
   id="linearGradient643"><stop
   style="stop-color:#ffffff;stop-opacity:1;"
   offset="0"
   id="stop644" /><stop
   style="stop-color:#1d9dff;stop-opacity:1;"
   offset="1"
   id="stop645" /></linearGradient><linearGradient
   id="linearGradient637"><stop
   style="stop-color:#ffffff;stop-opacity:0.6353;"
   offset="0"
   id="stop638" /><stop
   style="stop-color:#ffffff;stop-opacity:0.2392;"
   offset="1"
   id="stop639" /></linearGradient><linearGradient
   id="linearGradient717"><stop
   style="stop-color:#5ed7ff;stop-opacity:0.7294;"
   offset="0"
   id="stop718" /><stop
   style="stop-color:#005f8d;stop-opacity:0.7098;"
   offset="1"
   id="stop719" /></linearGradient><linearGradient
   id="linearGradient607"><stop
   style="stop-color:#3f627d;stop-opacity:1;"
   offset="0"
   id="stop608" /><stop
   style="stop-color:#000000;stop-opacity:1;"
   offset="1"
   id="stop609" /></linearGradient><radialGradient
   cx="0.49999952"
   cy="0.96875095"
   r="0.66996443"
   fx="0.49999952"
   fy="0.96875095"
   id="radialGradient610"
   xlink:href="#linearGradient2086" /><radialGradient
   cx="0.49999928"
   cy="0.55468845"
   r="0.48581648"
   fx="0.49999928"
   fy="0.55468845"
   id="radialGradient715"
   xlink:href="#linearGradient649" /><radialGradient
   cx="0.49999952"
   cy="0.96875095"
   r="0.66996443"
   fx="0.49999952"
   fy="0.96875095"
   id="radialGradient716"
   xlink:href="#linearGradient2086" /><linearGradient
   x1="0.48333815"
   y1="-2.95510262e-7"
   x2="0.48333344"
   y2="0.875"
   id="linearGradient636"
   xlink:href="#linearGradient637" /><radialGradient
   cx="1.12068939"
   cy="0.51562464"
   r="1.59203696"
   fx="1.12068939"
   fy="0.51562464"
   id="radialGradient641"
   xlink:href="#linearGradient717" /><radialGradient
   cx="0.49999917"
   cy="0.55468839"
   r="0.48581648"
   fx="0.49999917"
   fy="0.55468839"
   id="radialGradient642"
   xlink:href="#linearGradient638" /><radialGradient
   cx="0.50704247"
   cy="0.92968756"
   r="0.7386201"
   fx="0.50704247"
   fy="0.92968756"
   id="radialGradient646"
   xlink:href="#linearGradient717" /><linearGradient
   id="linearGradient708"
   xlink:href="#linearGradient641" /><linearGradient
   id="linearGradient2089"
   xlink:href="#linearGradient2086" /></defs><g
   transform="translate(11.86039,11.86043)"
   style="font-size:12;fill-opacity:0.2314;stroke-width:6.9375;"
   id="g2127"><defs
   id="defs2128"><linearGradient
   id="linearGradient2129"><stop
   style="stop-color:#ffffff;stop-opacity:1;"
   offset="0"
   id="stop2130" /><stop
   style="stop-color:#ffffff;stop-opacity:0;"
   offset="1"
   id="stop2131" /></linearGradient><linearGradient
   id="linearGradient2132"><stop
   style="stop-color:#ffff00;stop-opacity:0.6353;"
   offset="0"
   id="stop2133" /><stop
   style="stop-color:#ffc200;stop-opacity:0;"
   offset="1"
   id="stop2134" /></linearGradient><linearGradient
   id="linearGradient2135"><stop
   style="stop-color:#ff97ff;stop-opacity:1;"
   offset="0"
   id="stop2136" /><stop
   style="stop-color:#ff0000;stop-opacity:1;"
   offset="1"
   id="stop2137" /></linearGradient><linearGradient
   id="linearGradient2138"><stop
   style="stop-color:#ffffff;stop-opacity:1;"
   offset="0"
   id="stop2139" /><stop
   style="stop-color:#1d9dff;stop-opacity:1;"
   offset="1"
   id="stop2140" /></linearGradient><linearGradient
   id="linearGradient2141"><stop
   style="stop-color:#ffffff;stop-opacity:0.6353;"
   offset="0"
   id="stop2142" /><stop
   style="stop-color:#ffffff;stop-opacity:0.2392;"
   offset="1"
   id="stop2143" /></linearGradient><linearGradient
   id="linearGradient2144"><stop
   style="stop-color:#5ed7ff;stop-opacity:0.7294;"
   offset="0"
   id="stop2145" /><stop
   style="stop-color:#005f8d;stop-opacity:0.7098;"
   offset="1"
   id="stop2146" /></linearGradient><linearGradient
   x1="0"
   y1="0"
   x2="1"
   y2="0"
   id="linearGradient2147"
   xlink:href="#linearGradient2086"
   gradientUnits="objectBoundingBox"
   spreadMethod="pad" /><radialGradient
   cx="0.49999943"
   cy="0.97656167"
   r="0.70301467"
   fx="0.49999943"
   fy="0.97656167"
   id="radialGradient2148"
   xlink:href="#linearGradient607" /><radialGradient
   cx="0.49999928"
   cy="0.55468845"
   r="0.48581648"
   fx="0.49999928"
   fy="0.55468845"
   id="radialGradient2149"
   xlink:href="#linearGradient649" /><radialGradient
   cx="0.99137914"
   cy="0.50781262"
   r="1.81188881"
   fx="0.99137914"
   fy="0.50781262"
   id="radialGradient2150"
   xlink:href="#linearGradient717" /><linearGradient
   x1="0.48333815"
   y1="-2.95510262e-7"
   x2="0.48333344"
   y2="0.875"
   id="linearGradient2151"
   xlink:href="#linearGradient637" /><radialGradient
   cx="1.12068939"
   cy="0.51562464"
   r="1.59203696"
   fx="1.12068939"
   fy="0.51562464"
   id="radialGradient2152"
   xlink:href="#linearGradient717" /><radialGradient
   cx="0.49999917"
   cy="0.55468839"
   r="0.48581648"
   fx="0.49999917"
   fy="0.55468839"
   id="radialGradient2153"
   xlink:href="#linearGradient638" /><radialGradient
   cx="0.50704247"
   cy="0.92968756"
   r="0.7386201"
   fx="0.50704247"
   fy="0.92968756"
   id="radialGradient2154"
   xlink:href="#linearGradient717" /><linearGradient
   x1="0.46323583"
   y1="3.90625857e-2"
   x2="0.45588252"
   y2="0.76562494"
   id="linearGradient2155"
   xlink:href="#linearGradient641" /></defs><path
   d="M 186.875 20.6875 C 159.9375 20.6875 138.25 42.375 138.25 69.375 L 138.25 963.5 C 138.25 990.4375 159.9375 1012.125 186.875 1012.125 L 849.4375 1012.125 C 876.375 1012.125 898.0625 990.4375 898.0625 963.5 L 898.0625 69.375 C 898.0625 42.375 876.375 20.6875 849.4375 20.6875 L 186.875 20.6875 z M 733.75 50.75 L 733.75 129.875 L 865.625 129.875 L 865.625 50.75 L 733.75 50.75 z M 733.75 172.25 L 733.75 251.375 L 865.625 251.375 L 865.625 172.25 L 733.75 172.25 z M 733.75 293.75 L 733.75 372.875 L 865.625 372.875 L 865.625 293.75 L 733.75 293.75 z M 733.75 415.25 L 733.75 494.3125 L 733.75 494.4375 L 865.625 494.4375 L 865.625 494.3125 L 865.625 415.25 L 865.625 415.1875 L 733.75 415.1875 L 733.75 415.25 z M 733.75 536.75 L 733.75 615.8125 L 733.75 615.9375 L 865.625 615.9375 L 865.625 615.8125 L 865.625 536.75 L 865.625 536.6875 L 733.75 536.6875 L 733.75 536.75 z M 169.625 50.75 L 169.625 129.875 L 301.5 129.875 L 301.5 50.75 L 169.625 50.75 z M 169.625 172.25 L 169.625 251.375 L 301.5 251.375 L 301.5 172.25 L 169.625 172.25 z M 169.625 293.75 L 169.625 372.875 L 301.5 372.875 L 301.5 293.75 L 169.625 293.75 z M 169.625 415.25 L 169.625 494.3125 L 169.625 494.4375 L 301.5 494.4375 L 301.5 494.3125 L 301.5 415.25 L 301.5 415.1875 L 169.625 415.1875 L 169.625 415.25 z M 169.625 536.75 L 169.625 615.8125 L 169.625 615.9375 L 301.5 615.9375 L 301.5 615.8125 L 301.5 536.75 L 301.5 536.6875 L 169.625 536.6875 L 169.625 536.75 z M 144.6875 400.375 L 144.6875 404.0625 C 145.375 402.8125 146.0625 401.625 146.75 400.375 L 144.6875 400.375 z M 169.625 901.1875 L 169.625 980.375 L 301.5 980.375 L 301.5 901.1875 L 169.625 901.1875 z M 169.625 779.6875 L 169.625 858.875 L 301.5 858.875 L 301.5 779.6875 L 169.625 779.6875 z M 733.75 658.1875 L 733.75 737.3125 L 865.625 737.3125 L 865.625 658.1875 L 733.75 658.1875 z M 733.75 779.6875 L 733.75 858.875 L 865.625 858.875 L 865.625 779.6875 L 733.75 779.6875 z M 733.75 901.1875 L 733.75 980.375 L 865.625 980.375 L 865.625 901.1875 L 733.75 901.1875 z M 169.625 658.1875 L 169.625 737.3125 L 301.5 737.3125 L 301.5 658.1875 L 169.625 658.1875 z "
   style="fill-rule:evenodd;"
   id="path2157" /></g><g
   style="font-size:12;fill:url(#radialGradient610);stroke:#000000;stroke-width:6.9375;"
   id="g2052"><defs
   id="defs2053"><linearGradient
   id="linearGradient2054"><stop
   style="stop-color:#ffffff;stop-opacity:1;"
   offset="0"
   id="stop2055" /><stop
   style="stop-color:#ffffff;stop-opacity:0;"
   offset="1"
   id="stop2056" /></linearGradient><linearGradient
   id="linearGradient2057"><stop
   style="stop-color:#ffff00;stop-opacity:0.6353;"
   offset="0"
   id="stop2058" /><stop
   style="stop-color:#ffc200;stop-opacity:0;"
   offset="1"
   id="stop2059" /></linearGradient><linearGradient
   id="linearGradient2060"><stop
   style="stop-color:#ff97ff;stop-opacity:1;"
   offset="0"
   id="stop2061" /><stop
   style="stop-color:#ff0000;stop-opacity:1;"
   offset="1"
   id="stop2062" /></linearGradient><linearGradient
   id="linearGradient2063"><stop
   style="stop-color:#ffffff;stop-opacity:1;"
   offset="0"
   id="stop2064" /><stop
   style="stop-color:#1d9dff;stop-opacity:1;"
   offset="1"
   id="stop2065" /></linearGradient><linearGradient
   id="linearGradient2066"><stop
   style="stop-color:#ffffff;stop-opacity:0.6353;"
   offset="0"
   id="stop2067" /><stop
   style="stop-color:#ffffff;stop-opacity:0.2392;"
   offset="1"
   id="stop2068" /></linearGradient><linearGradient
   id="linearGradient2069"><stop
   style="stop-color:#5ed7ff;stop-opacity:0.7294;"
   offset="0"
   id="stop2070" /><stop
   style="stop-color:#005f8d;stop-opacity:0.7098;"
   offset="1"
   id="stop2071" /></linearGradient><linearGradient
   x1="0"
   y1="0"
   x2="1"
   y2="0"
   id="linearGradient2072"
   xlink:href="#linearGradient2086"
   gradientUnits="objectBoundingBox"
   spreadMethod="pad" /><radialGradient
   cx="0.49999943"
   cy="0.97656167"
   r="0.70301467"
   fx="0.49999943"
   fy="0.97656167"
   id="radialGradient2075"
   xlink:href="#linearGradient607" /><radialGradient
   cx="0.49999928"
   cy="0.55468845"
   r="0.48581648"
   fx="0.49999928"
   fy="0.55468845"
   id="radialGradient2076"
   xlink:href="#linearGradient649" /><radialGradient
   cx="0.99137914"
   cy="0.50781262"
   r="1.81188881"
   fx="0.99137914"
   fy="0.50781262"
   id="radialGradient2077"
   xlink:href="#linearGradient717" /><linearGradient
   x1="0.48333815"
   y1="-2.95510262e-7"
   x2="0.48333344"
   y2="0.875"
   id="linearGradient2078"
   xlink:href="#linearGradient637" /><radialGradient
   cx="1.12068939"
   cy="0.51562464"
   r="1.59203696"
   fx="1.12068939"
   fy="0.51562464"
   id="radialGradient2079"
   xlink:href="#linearGradient717" /><radialGradient
   cx="0.49999917"
   cy="0.55468839"
   r="0.48581648"
   fx="0.49999917"
   fy="0.55468839"
   id="radialGradient2080"
   xlink:href="#linearGradient638" /><radialGradient
   cx="0.50704247"
   cy="0.92968756"
   r="0.7386201"
   fx="0.50704247"
   fy="0.92968756"
   id="radialGradient2081"
   xlink:href="#linearGradient717" /><linearGradient
   x1="0.46323583"
   y1="3.90625857e-2"
   x2="0.45588252"
   y2="0.76562494"
   id="linearGradient2082"
   xlink:href="#linearGradient641" /></defs><path
   d="M 186.875 20.6875 C 159.9375 20.6875 138.25 42.375 138.25 69.375 L 138.25 963.5 C 138.25 990.4375 159.9375 1012.125 186.875 1012.125 L 849.4375 1012.125 C 876.375 1012.125 898.0625 990.4375 898.0625 963.5 L 898.0625 69.375 C 898.0625 42.375 876.375 20.6875 849.4375 20.6875 L 186.875 20.6875 z M 733.75 50.75 L 733.75 129.875 L 865.625 129.875 L 865.625 50.75 L 733.75 50.75 z M 733.75 172.25 L 733.75 251.375 L 865.625 251.375 L 865.625 172.25 L 733.75 172.25 z M 733.75 293.75 L 733.75 372.875 L 865.625 372.875 L 865.625 293.75 L 733.75 293.75 z M 733.75 415.25 L 733.75 494.3125 L 733.75 494.4375 L 865.625 494.4375 L 865.625 494.3125 L 865.625 415.25 L 865.625 415.1875 L 733.75 415.1875 L 733.75 415.25 z M 733.75 536.75 L 733.75 615.8125 L 733.75 615.9375 L 865.625 615.9375 L 865.625 615.8125 L 865.625 536.75 L 865.625 536.6875 L 733.75 536.6875 L 733.75 536.75 z M 169.625 50.75 L 169.625 129.875 L 301.5 129.875 L 301.5 50.75 L 169.625 50.75 z M 169.625 172.25 L 169.625 251.375 L 301.5 251.375 L 301.5 172.25 L 169.625 172.25 z M 169.625 293.75 L 169.625 372.875 L 301.5 372.875 L 301.5 293.75 L 169.625 293.75 z M 169.625 415.25 L 169.625 494.3125 L 169.625 494.4375 L 301.5 494.4375 L 301.5 494.3125 L 301.5 415.25 L 301.5 415.1875 L 169.625 415.1875 L 169.625 415.25 z M 169.625 536.75 L 169.625 615.8125 L 169.625 615.9375 L 301.5 615.9375 L 301.5 615.8125 L 301.5 536.75 L 301.5 536.6875 L 169.625 536.6875 L 169.625 536.75 z M 144.6875 400.375 L 144.6875 404.0625 C 145.375 402.8125 146.0625 401.625 146.75 400.375 L 144.6875 400.375 z M 169.625 901.1875 L 169.625 980.375 L 301.5 980.375 L 301.5 901.1875 L 169.625 901.1875 z M 169.625 779.6875 L 169.625 858.875 L 301.5 858.875 L 301.5 779.6875 L 169.625 779.6875 z M 733.75 658.1875 L 733.75 737.3125 L 865.625 737.3125 L 865.625 658.1875 L 733.75 658.1875 z M 733.75 779.6875 L 733.75 858.875 L 865.625 858.875 L 865.625 779.6875 L 733.75 779.6875 z M 733.75 901.1875 L 733.75 980.375 L 865.625 980.375 L 865.625 901.1875 L 733.75 901.1875 z M 169.625 658.1875 L 169.625 737.3125 L 301.5 737.3125 L 301.5 658.1875 L 169.625 658.1875 z "
   style="fill-rule:evenodd;"
   id="path2015" /></g><polygon
   points="730.4266,485.4909 440.6412,693.7411 553.0117,1028.471 265.4054,817.2211 -18.2169,1027.529 93.81801,688.7194 -193.8406,483.9672 163.007,485.8209 268.8465,148.9693 377.3556,488.9245 730.4266,485.4909 "
   transform="matrix(0.411655,0,0,0.411654,405.2331,264.1889)"
   style="font-size:12;fill:url(#radialGradient715);fill-rule:evenodd;stroke:#ff7d00;stroke-width:21.447;"
   id="polygon648" /><path
   d="M 184.0762 31.15779 C 164.7292 31.15779 149.1532 46.7336 149.1532 66.08119 L 149.1532 520.9549 C 149.1532 540.3019 164.9582 558.8489 184.0762 555.8779 C 346.6662 530.6159 512.4172 480.0909 671.8472 480.0909 C 734.2512 480.0909 790.3352 530.6159 849.5802 555.8779 C 867.3772 563.4669 884.5032 540.3019 884.5032 520.9549 L 884.5032 66.08119 C 884.5032 46.7336 868.9272 31.15779 849.5802 31.15779 L 184.0762 31.15779 z "
   style="font-size:12;fill:url(#linearGradient636);fill-rule:evenodd;"
   id="path647" /></svg>
