<?xml version="1.0" encoding="UTF-8" standalone="no"?>
<svg
   xmlns:dc="http://purl.org/dc/elements/1.1/"
   xmlns:cc="http://creativecommons.org/ns#"
   xmlns:rdf="http://www.w3.org/1999/02/22-rdf-syntax-ns#"
   xmlns:svg="http://www.w3.org/2000/svg"
   xmlns="http://www.w3.org/2000/svg"
   xmlns:xlink="http://www.w3.org/1999/xlink"
   xmlns:sodipodi="http://sodipodi.sourceforge.net/DTD/sodipodi-0.dtd"
   xmlns:inkscape="http://www.inkscape.org/namespaces/inkscape"
   height="48"
   width="48"
   version="1.1"
   id="svg24"
   sodipodi:docname="luabackend.svg"
   inkscape:version="0.92.3 (2405546, 2018-03-11)">
  <metadata
     id="metadata30">
    <rdf:RDF>
      <cc:Work
         rdf:about="">
        <dc:format>image/svg+xml</dc:format>
        <dc:type
           rdf:resource="http://purl.org/dc/dcmitype/StillImage" />
      </cc:Work>
    </rdf:RDF>
  </metadata>
  <defs
     id="defs28">
    <linearGradient
       id="a-3">
      <stop
         id="stop851"
         stop-color="#ffffff" />
      <stop
         id="stop853"
         stop-opacity="0"
         stop-color="#ffffff"
         offset="1" />
    </linearGradient>
    <linearGradient
       x2="0"
       gradientUnits="userSpaceOnUse"
       y2="4"
       y1="44"
       id="b-6">
      <stop
         id="stop856"
         stop-color="#0d4687" />
      <stop
         id="stop858"
         stop-color="#0b60c2"
         offset=".051" />
      <stop
         id="stop860"
         stop-color="#1b88f4"
         offset=".275" />
      <stop
         id="stop862"
         stop-color="#1b90f4"
         offset=".725" />
      <stop
         id="stop864"
         stop-color="#0d6ad6"
         offset=".962" />
      <stop
         id="stop866"
         stop-color="#115fbc"
         offset="1" />
    </linearGradient>
    <linearGradient
       x2="41.821"
       gradientUnits="userSpaceOnUse"
       y2="14.867"
       x1="7.18"
       y1="34.867"
       id="c">
      <stop
         id="stop869"
         stop-color="#440d7f" />
      <stop
         id="stop871"
         stop-color="#500e9a"
         offset="1" />
    </linearGradient>
    <linearGradient
       x2="5.47"
       gradientUnits="userSpaceOnUse"
       y2="14.217"
       x1="40.82"
       y1="34.867"
       id="d">
      <stop
         id="stop874"
         stop-color="#1a7c69" />
      <stop
         id="stop876"
         stop-color="#218b7b"
         offset=".05" />
      <stop
         id="stop878"
         stop-color="#208c7a"
         offset=".157" />
      <stop
         id="stop880"
         stop-color="#124a45"
         offset=".312" />
      <stop
         id="stop882"
         stop-color="#1bcaa3"
         offset=".952" />
      <stop
         id="stop884"
         stop-color="#20a386"
         offset="1" />
    </linearGradient>
    <linearGradient
       gradientUnits="userSpaceOnUse"
       x2="36.526"
       y2="23.462"
       x1="26.967"
       y1="15.587"
       id="e">
      <stop
         id="stop887" />
      <stop
         id="stop889"
         stop-opacity="0"
         offset="1" />
    </linearGradient>
    <linearGradient
       x2="18.13"
       gradientUnits="userSpaceOnUse"
       y2="20.699"
       x1="23.708"
       y1="30.889"
       id="f">
      <stop
         id="stop892"
         stop-opacity=".309" />
      <stop
         id="stop894"
         stop-opacity="0"
         stop-color="#ffffff"
         offset="1" />
    </linearGradient>
    <linearGradient
       x2="15.379"
       gradientUnits="userSpaceOnUse"
       y2="9.313"
       x1="40.839"
       y1="37.972"
       id="g"
       xlink:href="#f" />
    <radialGradient
       gradientTransform="matrix(-.92086.01412-.23425-15.27373 39.23 385.35)"
       gradientUnits="userSpaceOnUse"
       r="1.656"
       id="h"
       xlink:href="#a-3"
       cy="24.836"
       cx="16.09" />
    <radialGradient
       gradientTransform="matrix(.44045-.23427.13081.24593 6.648 19.865)"
       gradientUnits="userSpaceOnUse"
       r="17.37"
       id="i"
       xlink:href="#a-3"
       cy="26.579"
       cx="11.182" />
    <path
       d="m39.821 11.402l3 5.196c2 3.464-32.641 23.464-34.641 20l-3-5.196c-2-3.464 32.641-23.464 34.641-20"
       color="#000000"
       id="j" />
    <path
       d="m21 4h6c4 0 4 40 0 40h-6c-4 0-4-40 0-40"
       color="#000000"
       id="k" />
    <linearGradient
       inkscape:collect="always"
       xlink:href="#b-6"
       id="linearGradient977"
       x1="-31"
       y1="9"
       x2="-1"
       y2="39"
       gradientUnits="userSpaceOnUse"
       gradientTransform="translate(40)" />
    <linearGradient
       id="a-35"
       gradientUnits="userSpaceOnUse"
       x1="44"
       x2="4"
       y1="1048.3621"
       y2="1008.362"
       gradientTransform="translate(0,-1004.362)"
       xlink:href="#a-3">
      <stop
         offset="0"
         stop-color="#73ba25"
         id="stop2-6"
         style="stop-color:#e6f1fd;stop-opacity:1" />
      <stop
         offset="1"
         stop-color="#35b9ab"
         id="stop4-2"
         style="stop-color:#d2e8fd;stop-opacity:1" />
    </linearGradient>
    <linearGradient
       id="a-35-7"
       gradientUnits="userSpaceOnUse"
       x1="44"
       x2="4"
       y1="1048.3621"
       y2="1008.362"
       gradientTransform="matrix(0.95,0,0,0.95,1.2,-952.94396)"
       xlink:href="#a-3">
      <stop
         offset="0"
         stop-color="#73ba25"
         id="stop2-6-0"
         style="stop-color:#e6f1fd;stop-opacity:1" />
      <stop
         offset="1"
         stop-color="#35b9ab"
         id="stop4-2-9"
         style="stop-color:#d2e8fd;stop-opacity:1" />
    </linearGradient>
  </defs>
  <sodipodi:namedview
     pagecolor="#ffffff"
     bordercolor="#666666"
     borderopacity="1"
     objecttolerance="10"
     gridtolerance="10"
     guidetolerance="10"
     inkscape:pageopacity="0"
     inkscape:pageshadow="2"
     inkscape:window-width="2560"
     inkscape:window-height="1245"
     id="namedview26"
     showgrid="true"
     inkscape:zoom="19.666667"
     inkscape:cx="18.708355"
     inkscape:cy="21.272298"
     inkscape:window-x="0"
     inkscape:window-y="36"
     inkscape:window-maximized="1"
     inkscape:current-layer="svg24">
    <inkscape:grid
       type="xygrid"
       id="grid967" />
  </sodipodi:namedview>
  <linearGradient
     id="a"
     gradientUnits="userSpaceOnUse"
     x1="44"
     x2="4"
     y1="1048.3621"
     y2="1008.362"
     gradientTransform="translate(0,-1004.362)"
     xlink:href="#a-3">
    <stop
       offset="0"
       stop-color="#73ba25"
       id="stop2"
       style="stop-color:#e6f1fd;stop-opacity:1" />
    <stop
       offset="1"
       stop-color="#35b9ab"
       id="stop4"
       style="stop-color:#d2e8fd;stop-opacity:1" />
  </linearGradient>
  <linearGradient
     id="b"
     gradientUnits="userSpaceOnUse"
     x1="19"
     x2="37"
     y1="1021.362"
     y2="1039.362"
     gradientTransform="translate(0,-1004.362)">
    <stop
       offset="0"
       stop-color="#292c2f"
       id="stop7" />
    <stop
       offset="1"
       stop-opacity="0"
       id="stop9" />
  </linearGradient>
  <path
     inkscape:connector-curvature="0"
     style="fill:#eaeaea;fill-opacity:0.29803923"
     d="M 24,5 C 34.49341,5 43,13.50659 43,24 43,34.49341 34.49341,43 24,43 13.50659,43 5,34.49341 5,24 5,13.50659 13.50659,5 24,5 Z"
     id="circle12-2-6"
     sodipodi:nodetypes="sssss" />
  <path
     style="fill:#000000;fill-opacity:0.29803923"
     d="M 24 4 A 20 20 0 0 0 4 24 A 20 20 0 0 0 24 44 A 20 20 0 0 0 44 24 A 20 20 0 0 0 24 4 z M 24 5 A 19 19 0 0 1 43 24 A 19 19 0 0 1 24 43 A 19 19 0 0 1 5 24 A 19 19 0 0 1 24 5 z "
     id="circle12-2" />
  <path
     inkscape:connector-curvature="0"
     style="opacity:0.2;fill:url(#b)"
     id="path16"
     d="M 36,15 C 35,29 14,35 14,35 l 9,9 C 32.497532,42.885903 43.266639,32.53449 44,23 Z"
     sodipodi:nodetypes="ccccc" />
  <path
     style="opacity:1;fill:url(#linearGradient977);fill-opacity:1;stroke-width:1.03448272"
     d="M 38.648438 5.0019531 A 4.5 4.5 0 0 0 38.199219 5.0097656 A 4.5 4.5 0 0 0 34.003906 9.7011719 A 4.5 4.5 0 0 0 38.599609 13.998047 A 4.5 4.5 0 0 0 43 9.5 L 42.982422 9.0996094 A 4.5 4.5 0 0 0 38.648438 5.0019531 z M 24.496094 9.0078125 A 15 15 0 0 0 22.996094 9.0332031 A 15 15 0 0 0 9.015625 24.669922 A 15 15 0 0 0 24.333984 38.996094 A 15 15 0 0 0 39 24 L 38.939453 22.662109 A 15 15 0 0 0 24.496094 9.0078125 z M 29.648438 14.001953 A 4.5 4.5 0 0 1 33.982422 18.099609 L 34 18.5 A 4.5 4.5 0 0 1 29.599609 22.998047 A 4.5 4.5 0 0 1 25.003906 18.701172 A 4.5 4.5 0 0 1 29.199219 14.009766 A 4.5 4.5 0 0 1 29.648438 14.001953 z "
     id="path969" />
</svg>
