<svg xmlns="http://www.w3.org/2000/svg" height="48" width="48">
  <defs
     id="defs17">
    <linearGradient
       id="yellow">
      <stop
         style="stop-color:#ffa92d;stop-opacity:1;"
         offset="0"
         id="stop7" />
      <stop
         style="stop-color:#ffe569;stop-opacity:1"
         offset="1"
         id="stop9" />
    </linearGradient>
    <linearGradient
       id="yellow"
       x1="12.5"
       y1="4.8" 
       x2="41.9"
       y2="41.7" />
    <linearGradient
       id="linearGradient1085-0"
       x1="25.9"
       y1="43.5"
       x2="26.4"
       y2="12.1"
       gradientUnits="userSpaceOnUse" />
    <linearGradient
       id="green"
       y1="44"
       y2="8"
       x2="0"
       gradientUnits="userSpaceOnUse">
      <stop
         stop-color="#42a603"
         id="stop2-5-3" />
      <stop
         offset="1"
         stop-color="#78da06"
         id="stop8" />
    </linearGradient>
    <linearGradient
       gradientTransform="translate(-384.57-499.8)"
       gradientUnits="userSpaceOnUse"
       x2="387.6"
       y2="521.8"
       x1="408.6"
       y1="542.8"
       id="blue">
      <stop
         stop-color="#197cf1"
         id="stop11" />
      <stop
         stop-color="#20bcfa"
         offset="1"
         id="stop13" />
    </linearGradient>
    <linearGradient
       id="blue"
       x1="35"
       y1="33"
       x2="19"
       y2="17"
       gradientUnits="userSpaceOnUse" />
  </defs>
  <path
     d="m 24,18 c -10.4,0 -20,5.4 -20,9 0,1.7 6.8,1.5 7,3 l 1.7,10.7 c 0.1,1.2 0.6,1.7 1.3,2 6.8,1.75 13.4,1.7 19.9,0 C 34.6,42.5 35,42 35.3,40.7 L 37,30 c 0.3,-1.2 7,-1.3 7,-3 0,-3.6 -9.6,-9 -20,-9 z"
     style="fill:url(#green)"
     />
  <path
     style="fill:#000000;opacity:0.15"
     d="M 4.1,26.3 C 4,26.56 4,26.8 4,27 c 0,1.7 6.8,1.5 7,3 l 1.7,10.7 c 0.1,1.26 0.65,1.7 1.3,2 6.8,1.8 13.4,1.7 19.9,0 0.7,-0.2 1,-0.7 1.35,-2 L 37,30 c 0.3,-1.23 7,-1.33 7,-3 0,-0.2 -0,-0.4 -0.1,-0.7 C 43.1,27.7 37.3,27.8 37,29 l -1.7,10.7 c -0.3,1.26 -0.65,1.8 -1.3,2 -6.5,1.7 -13.1,1.75 -19.9,0 -0.7,-0.2 -1.2,-0.7 -1.3,-2 L 11,29 C 10.8,27.6 4.9,27.66 4.1,26.3 Z"
     />
  <path
     d="m 24,4 c -5.5,0 -10,4.6 -10,10 0,3.4 1.8,6.5 4.6,7.9 1.8,3 1,1.3 1.3,3.8 0,0.65 0.55,1.2 1.2,1.2 2.1,1.6 4,1.4 5.8,0 0.7,0 1.2,-0.5 1.2,-1.2 0.35,-2.4 -0.16,-2.1 1.1,-3.7 C 32.1,20.3 34,17.5 34,14 34,8.64 29.5,4 24,4 Z"
     style="fill:url(#yellow)" />
  <path
     style="fill:url(#blue)"
     d="m 18.6,21.9 c 0.4,0.7 0.8,1.7 1,3.55 0,0.7 0.8,1.4 1.5,1.4 2.3,1.8 3.95,1.6 5.8,0 0.7,0 1.5,-0.7 1.5,-1.4 0.24,-1.74 0.6,-2.9 0.84,-3.469542 l -2,1 h -6.55 z" />
  <path
     style="fill:#fbfeff"
     d="M 20 9 C 18.892 9 18 9.892 18 11 C 18 12.108 18.892 13 20 13 C 21.108 13 22 12.108 22 11 C 22 9.892 21.108 9 20 9 z "
     />
</svg>
