<?xml version="1.0" encoding="UTF-8" standalone="no"?>
<svg
   xmlns:dc="http://purl.org/dc/elements/1.1/"
   xmlns:cc="http://creativecommons.org/ns#"
   xmlns:rdf="http://www.w3.org/1999/02/22-rdf-syntax-ns#"
   xmlns:svg="http://www.w3.org/2000/svg"
   xmlns="http://www.w3.org/2000/svg"
   xmlns:xlink="http://www.w3.org/1999/xlink"
   xmlns:sodipodi="http://sodipodi.sourceforge.net/DTD/sodipodi-0.dtd"
   xmlns:inkscape="http://www.inkscape.org/namespaces/inkscape"
   width="48"
   height="48"
   version="1.0"
   id="svg87"
   sodipodi:docname="qalculate.svg"
   style="enable-background:new"
   inkscape:version="0.92.3 (2405546, 2018-03-11)">
  <sodipodi:namedview
     pagecolor="#ffffff"
     bordercolor="#666666"
     borderopacity="1"
     objecttolerance="10"
     gridtolerance="10"
     guidetolerance="10"
     inkscape:pageopacity="0"
     inkscape:pageshadow="2"
     inkscape:window-width="2560"
     inkscape:window-height="1245"
     id="namedview89"
     showgrid="true"
     inkscape:zoom="20.85965"
     inkscape:cx="30.36188"
     inkscape:cy="19.811983"
     inkscape:window-x="0"
     inkscape:window-y="36"
     inkscape:window-maximized="1"
     inkscape:current-layer="svg87">
    <inkscape:grid
       type="xygrid"
       id="grid1017" />
  </sodipodi:namedview>
  <title
     id="title2">Yaru Icon Theme Template</title>
  <defs
     id="defs29">
    <linearGradient
       id="linearGradient943-0"
       x1="216"
       x2="216"
       y1="28"
       y2="284"
       gradientTransform="matrix(0.20834171,0,0,0.22990894,-7.6681956,-11.866889)"
       gradientUnits="userSpaceOnUse">
      <stop
         stop-color="#d4279f"
         offset="0"
         id="stop13" />
      <stop
         stop-color="#fa3da3"
         offset="1"
         id="stop15" />
    </linearGradient>
    <linearGradient
       id="linearGradient1694-7"
       x1="38.310001"
       x2="264"
       y1="270.69"
       y2="268"
       gradientTransform="matrix(0,0.16314207,-0.16292331,0,49.414836,-0.96115588)"
       gradientUnits="userSpaceOnUse">
      <stop
         stop-color="#4d4d4d"
         offset="0"
         id="stop18" />
      <stop
         stop-color="#4d4d4d"
         offset="1"
         id="stop20" />
    </linearGradient>
    <linearGradient
       inkscape:collect="always"
       xlink:href="#linearGradient4145"
       id="linearGradient1015"
       x1="42.101719"
       y1="42.004982"
       x2="5.8400807"
       y2="6.0049806"
       gradientUnits="userSpaceOnUse"
       gradientTransform="matrix(-1.096102,0,0,1.096102,50.306083,-2.1261801)" />
    <linearGradient
       inkscape:collect="always"
       xlink:href="#linearGradient1694-7"
       id="linearGradient1055"
       x1="42"
       y1="42"
       x2="6"
       y2="6"
       gradientUnits="userSpaceOnUse"
       gradientTransform="matrix(1.096102,0,0,1.096102,-2.3068681,-2.12618)" />
    <linearGradient
       id="linearGradient4145">
      <stop
         id="stop1072"
         style="stop-color:#a0a0a0;stop-opacity:1;"
         offset="0" />
      <stop
         id="stop1074"
         style="stop-color:#555555;stop-opacity:1;"
         offset="1" />
    </linearGradient>
  </defs>
  <metadata
     id="metadata31">
    <rdf:RDF>
      <cc:Work
         rdf:about="">
        <dc:format>image/svg+xml</dc:format>
        <dc:type
           rdf:resource="http://purl.org/dc/dcmitype/StillImage" />
        <dc:creator>
          <cc:Agent>
            <dc:title>Yaru Team, based on the Suru template by Sam Hewitt and original Suru designs by Matthieu James</dc:title>
          </cc:Agent>
        </dc:creator>
        <dc:source />
        <cc:license
           rdf:resource="http://creativecommons.org/licenses/by-sa/4.0/" />
        <dc:title>Yaru Icon Theme Template</dc:title>
        <dc:subject>
          <rdf:Bag />
        </dc:subject>
        <dc:date />
        <dc:rights>
          <cc:Agent>
            <dc:title />
          </cc:Agent>
        </dc:rights>
        <dc:publisher>
          <cc:Agent>
            <dc:title />
          </cc:Agent>
        </dc:publisher>
        <dc:identifier />
        <dc:relation />
        <dc:language />
        <dc:coverage />
        <dc:description />
        <dc:contributor>
          <cc:Agent>
            <dc:title />
          </cc:Agent>
        </dc:contributor>
      </cc:Work>
      <cc:Work
         rdf:about="">
        <dc:format>image/svg+xml</dc:format>
        <dc:type
           rdf:resource="http://purl.org/dc/dcmitype/StillImage" />
      </cc:Work>
      <cc:License
         rdf:about="http://creativecommons.org/licenses/by-sa/4.0/">
        <cc:permits
           rdf:resource="http://creativecommons.org/ns#Reproduction" />
        <cc:permits
           rdf:resource="http://creativecommons.org/ns#Distribution" />
        <cc:requires
           rdf:resource="http://creativecommons.org/ns#Notice" />
        <cc:requires
           rdf:resource="http://creativecommons.org/ns#Attribution" />
        <cc:permits
           rdf:resource="http://creativecommons.org/ns#DerivativeWorks" />
        <cc:requires
           rdf:resource="http://creativecommons.org/ns#ShareAlike" />
      </cc:License>
    </rdf:RDF>
  </metadata>
  <g
     style="display:none"
     id="g51"
     display="none"
     transform="translate(0,-252)">
    <text
       xml:space="preserve"
       style="line-height:0%;font-family:'DejaVu Sans';display:inline;fill:#000000;enable-background:new"
       display="inline"
       y="-8.2548828"
       x="19.006836"
       id="context"><tspan
         id="tspan33"
         style="font-size:18px;line-height:1.25;font-family:'DejaVu Sans'"
         font-size="18px"
         y="-8.2548828"
         x="19.006836">apps</tspan></text>
    <text
       xml:space="preserve"
       style="font-weight:bold;line-height:0%;font-family:'DejaVu Sans';display:inline;fill:#000000;enable-background:new"
       font-weight="bold"
       display="inline"
       y="-8.2548828"
       x="146.48828"
       id="icon-name"><tspan
         id="tspan36"
         style="font-weight:bold;font-size:18px;line-height:1.25;font-family:'DejaVu Sans'"
         font-weight="bold"
         font-size="18px"
         y="-8.2548828"
         x="146.48828">calculator-app</tspan></text>
    <g
       style="fill:#cdcdcd"
       id="g49">
      <rect
         style="display:inline;enable-background:accumulate"
         id="rect39"
         display="inline"
         height="16"
         width="16"
         y="236"
         x="320" />
      <rect
         style="display:inline;enable-background:accumulate"
         id="rect41"
         display="inline"
         height="24"
         width="24"
         y="188"
         x="320" />
      <rect
         style="display:inline;enable-background:accumulate"
         id="rect43"
         display="inline"
         height="32"
         width="32"
         y="132"
         x="320" />
      <rect
         style="display:inline;enable-background:accumulate"
         id="rect45"
         display="inline"
         height="48"
         width="48"
         y="60"
         x="320" />
      <rect
         style="display:inline;enable-background:accumulate"
         id="rect47"
         display="inline"
         height="256"
         width="256"
         y="28"
         x="24" />
    </g>
  </g>
  <path
     d="M 23.999608,3.9728352 V 44.027745 H 37.049567 C 43.352846,44.027745 44,43.379426 44,37.054703 V 10.945192 C 44,4.6206745 43.352627,3.9721501 37.049567,3.9721501 Z"
     id="path61"
     style="fill:url(#linearGradient943-0);stroke-width:0.6851092;enable-background:new"
     inkscape:connector-curvature="0" />
  <path
     style="fill:url(#linearGradient1015);fill-opacity:1.0;stroke-width:0.6851092;enable-background:new"
     d="m 4.0000001,24.180268 v 12.874918 c 10e-8,6.324722 0.6458362,6.972664 6.9491159,6.972664 H 23.99958 V 24.180268 Z"
     id="path61-5"
     inkscape:connector-curvature="0" />
  <path
     style="opacity:1;fill:url(#linearGradient1055);fill-opacity:1;stroke:none;stroke-width:2.192204;stroke-linecap:round;stroke-linejoin:round;stroke-miterlimit:4;stroke-dasharray:none;stroke-opacity:1"
     d="m 10.949116,3.9730282 c -6.3030604,0 -6.9491159,0.6481476 -6.9491159,6.9726648 V 24.180268 H 23.99958 V 3.9730282 Z"
     id="rect1019"
     inkscape:connector-curvature="0" />
  <path
     style="font-variant-ligatures:normal;font-variant-caps:normal;font-variant-numeric:normal;font-feature-settings:normal;fill:#f2f2f2;stroke-width:0.17869967px"
     d="m 13.588752,9.7768028 c -0.496303,0 -1.186157,0.1734987 -2.524031,0.6272622 -0.129468,0.0432 -0.129737,0.0424 -0.237632,0.08563 l 0.08563,0.325405 c 0.841573,-0.216077 0.993764,-0.237632 1.209565,-0.237632 0.539456,0 0.667678,0.193538 0.969794,1.490014 l 0.627262,2.658904 -1.770463,2.526173 c -0.453143,0.648231 -0.863016,1.038299 -1.100383,1.038299 -0.129468,0 -0.345116,-0.0652 -0.560896,-0.194815 -0.280516,-0.151254 -0.4973131,-0.216224 -0.6914861,-0.216224 -0.431563,0 -0.732162,0.323558 -0.732162,0.755711 0,0.561806 0.410024,0.90771 1.078975,0.90771 0.6689511,0 0.9270121,-0.193531 2.0059521,-1.490014 0.58261,-0.713081 1.057023,-1.361321 1.941729,-2.549722 l 0.648669,2.592539 c 0.280515,1.123612 0.559738,1.447197 1.250242,1.447197 0.820006,0 1.381671,-0.517213 2.633213,-2.461947 l -0.301853,-0.173408 c -0.172628,0.194474 -0.281056,0.323015 -0.475263,0.582304 -0.496303,0.648238 -0.755815,0.864894 -1.01475,0.864894 -0.302095,0 -0.495475,-0.281283 -0.64653,-0.886302 -0.06474,-0.237686 -0.06405,-0.27985 -0.08563,-0.344672 -0.539456,-2.204031 -0.777118,-3.19751 -0.777118,-3.521657 0.971039,-1.685383 1.724591,-2.616086 2.112993,-2.616086 0.129467,0 0.323878,0.06534 0.518079,0.173407 0.258941,0.151255 0.411653,0.194814 0.605854,0.194814 0.431563,0 0.732161,-0.323369 0.732161,-0.777119 0,-0.475372 -0.366283,-0.8006682 -0.88416,-0.8006682 -0.949473,0 -1.747858,0.7792702 -3.258334,3.0913512 L 14.710544,11.677855 C 14.408449,10.2085 14.171368,9.7768028 13.588752,9.7768028 Z M 29.030518,20.209039 v 1.896771 h 9.907734 v -1.896771 z m 0,5.68817 v 1.89463 h 9.907734 v -1.89463 z m -14.964362,2.288542 c -1.495458,0 -2.708596,0.441865 -3.639401,1.323029 -0.9257391,0.881164 -1.3893961,1.946201 -1.3893961,3.19411 0,1.125645 0.333418,2.057355 0.9997661,2.795916 0.666301,0.738563 1.402717,1.187873 2.211471,1.35086 l 0.01713,0.513798 h -2.083023 c -0.4221681,0 -0.7315491,-0.07147 -0.9248361,-0.214083 -0.193278,-0.142593 -0.298632,-0.396218 -0.318982,-0.757851 h -0.282589 v 2.391301 h 4.2730861 l -0.145577,-2.305668 c -0.76296,-0.280178 -1.280373,-0.76602 -1.549956,-1.45362 -0.269584,-0.692673 -0.404616,-1.458804 -0.404616,-2.299245 0,-1.161296 0.301077,-2.114365 0.901287,-2.858 0.605276,-0.748755 1.367868,-1.121792 2.28854,-1.121793 0.864713,1e-6 1.617691,0.350375 2.25857,1.053286 0.645991,0.702912 0.969794,1.714338 0.969794,3.033548 0,2.016975 -0.657267,3.233254 -1.969558,3.645824 l -0.196957,2.305668 h 4.270945 V 36.39153 h -0.280448 c -0.01017,0.280136 -0.09494,0.5124 -0.252617,0.695768 -0.152586,0.183363 -0.471582,0.276166 -0.954808,0.276166 h -2.119416 l 0.07493,-0.513798 c 0.976632,-0.28525 1.75098,-0.792965 2.320654,-1.526407 0.574787,-0.738562 0.860612,-1.636672 0.860612,-2.691016 0,-1.298825 -0.460159,-2.361722 -1.380831,-3.19197 -0.920672,-0.83532 -2.104136,-1.254522 -3.553769,-1.254522 z"
     id="path67"
     inkscape:connector-curvature="0" />
</svg>
