<svg id="svg72" fill="none" version="1.1" viewBox="0 0 48 48" xmlns="http://www.w3.org/2000/svg" xmlns:xlink="http://www.w3.org/1999/xlink">
    <defs id="defs76">
        <linearGradient id="linearGradient887" x1="5" x2="43" y1="5" y2="43" gradientUnits="userSpaceOnUse">
            <stop id="stop19" stop-color="#eff0f1" offset="0"/>
            <stop id="stop21" stop-color="#e3e5e7" offset="1"/>
        </linearGradient>
    </defs>
    <linearGradient id="a" x1="15" x2="33" y1="15" y2="33" gradientUnits="userSpaceOnUse">
        <stop id="stop894" stop-color="#fceaca" offset="0"/>
        <stop id="stop896" stop-color="#fdcf7e" offset="1"/>
    </linearGradient>
    <linearGradient id="b" x1="23" x2="36.8307" y1="23" y2="36.8307" gradientUnits="userSpaceOnUse">
        <stop id="stop3" offset="0"/>
        <stop id="stop5" stop-opacity="0" offset="1"/>
    </linearGradient>
    <linearGradient id="c" x1="14.9" x2="33.1" y1="14.9" y2="33.1" gradientUnits="userSpaceOnUse">
        <stop id="stop8" stop-color="#fdbd4c" offset="0"/>
        <stop id="stop10" stop-color="#f6cd7b" offset=".25"/>
        <stop id="stop12" stop-color="#f0b754" offset=".5"/>
        <stop id="stop14" stop-color="#e9b969" offset=".75"/>
        <stop id="stop16" stop-color="#fdbc4b" offset="1"/>
    </linearGradient>
    <radialGradient id="e" cx="0" cy="0" r="1" gradientTransform="matrix(20.00002 20.00002 -20.00002 20.00002 19 17)" gradientUnits="userSpaceOnUse">
        <stop id="stop24" stop-color="#c9963c" stop-opacity=".8" offset="0"/>
        <stop id="stop26" stop-color="#c9963c" stop-opacity=".6" offset=".499181"/>
        <stop id="stop28" stop-color="#ca973c" stop-opacity="0" offset="1"/>
    </radialGradient>
    <linearGradient id="f" x1="11" x2="37" y1="11" y2="37" gradientUnits="userSpaceOnUse">
        <stop id="stop31" offset="0"/>
        <stop id="stop33" stop-opacity=".05" offset="1"/>
    </linearGradient>
    <linearGradient id="g" x1="10" x2="38" y1="10" y2="38" gradientUnits="userSpaceOnUse">
        <stop id="stop36" stop-color="#d6d9dc" offset="0"/>
        <stop id="stop38" stop-color="#c9cdd1" offset="1"/>
    </linearGradient>
    <linearGradient id="h" x1="10" x2="38" y1="10" y2="38" gradientUnits="userSpaceOnUse">
        <stop id="stop41" stop-color="#fff" stop-opacity="0" offset="0"/>
        <stop id="stop43" stop-color="#fff" stop-opacity=".25" offset=".25"/>
        <stop id="stop45" stop-color="#fff" stop-opacity=".06" offset=".5"/>
        <stop id="stop47" stop-color="#fff" stop-opacity=".13" offset=".75"/>
        <stop id="stop49" stop-color="#fff" stop-opacity="0" offset="1"/>
    </linearGradient>
    <path id="path52" d="m43.9883 24.123c-.0325 5.281-2.1524 10.3348-5.8971 14.0586-3.7446 3.7238-8.8102 5.8154-14.0912 5.8184-5.2579-.0058-10.3021-2.0818-14.04074-5.7788-3.73868-3.697-5.87113-8.7176-5.93582-13.9751-.00833.0846-.01614.1692-.02344.2539 0 5.4369 2.10714 10.6512 5.85786 14.4957 3.75074 3.8445 8.83784 6.0043 14.14214 6.0043s10.3914-2.1598 14.1421-6.0043c3.7508-3.8445 5.8579-9.0588 5.8579-14.4957-.0028-.1257-.0067-.2513-.0117-.377z" clip-rule="evenodd" fill="#8e98a2" fill-rule="evenodd"/>
    <path id="path54" d="m24 37c7.1797 0 13-5.8203 13-13s-5.8203-13-13-13-13 5.8203-13 13 5.8203 13 13 13z" fill="url(#c)"/>
    <path id="path56" d="M 24,5 C 18.96201,5 14.126829,7.0020895 10.564453,10.564453 7.0020895,14.126829 5,18.96201 5,24 5,29.03799 7.0020895,33.873171 10.564453,37.435547 14.126831,40.997925 18.962014,43 24,43 29.037986,43 33.873169,40.997925 37.435547,37.435547 40.997925,33.873169 43,29.037986 43,24 43,18.962014 40.997925,14.126831 37.435547,10.564453 33.873171,7.0020895 29.03799,5 24,5 Z m 0,6 c 3.44901,0 6.754535,1.369777 9.193359,3.808594 C 35.632181,17.247415 37,20.550986 37,24 37,27.449014 35.630228,30.752585 33.191406,33.191406 30.752585,35.630228 27.449014,37 24,37 20.550986,37 17.247415,35.630228 14.808594,33.191406 12.369777,30.752582 11,27.44901 11,24 11,20.55099 12.367824,17.247418 14.806641,14.808594 17.245465,12.369777 20.55099,11 24,11 Z" color="#000000" color-rendering="auto" dominant-baseline="auto" fill="url(#linearGradient887)" image-rendering="auto" shape-rendering="auto" solid-color="#000000" style="font-feature-settings:normal;font-variant-alternates:normal;font-variant-caps:normal;font-variant-ligatures:normal;font-variant-numeric:normal;font-variant-position:normal;isolation:auto;mix-blend-mode:normal;shape-padding:0;text-decoration-color:#000000;text-decoration-line:none;text-decoration-style:solid;text-indent:0;text-orientation:mixed;text-transform:none;white-space:normal"/>
    <path id="path58" d="m22 14.5-1 7.5-6 1 2 2-2 1 4 4v3l3.957031 3.957031c.346941.028281.694878.042615 1.042969.042969h.107422c7.137716-.058982 12.892822-5.862041 12.892578-13 .000148-.03581.000148-.07162 0-.107422-.0025-.311589-.01616-.622988-.04102-.933594l-6.80318-6.814884-2.6558 3.8559z" fill="url(#e)"/>
    <path id="path60" d="m22 14.5-3 0.5v7h-4v1h4v2h-4v1h4v7l3-0.5v-6.5l7.009766 7 1.849609-1.900391-4.519531-4.480468-0.619141-0.619141h7.279297v-1h-8.279297l-1.005859-1.003906 0.996094-0.996094h8.289062v-1h-7.289062l5.148437-5.150391-1.849609-1.849609-7.009766 7z" fill="url(#a)"/>
    <path id="path62" d="m14.041016 9.2109375c-.5915.03679-1.148475.3034575-1.546875.7421875-.1987.2188-.358891.480944-.462891.777344-.1041.2964-.141447.599531-.123047.894531.0198.3188.1053.628703.25.908203.0636.123.13941.23971.224609.349609.095801.1008.200501.191938.3125.273438.254401.1852.545322.319019.857422.386719.2889.0627.595597.069819.904297.011719.3088-.0581.591591-.176444.837891-.339844.4939-.3276.84315-.838869.96875-1.417969-.1936-.1733-.463181-.256778-.738281-.205078l-2.09961.394531.707031-2.0156249c.092701-.26414.050204-.5421956-.091796-.7597656zm19.917968 0c-.1421.21757-.184497.4956256-.091796.7597656l.707031 2.0156249-2.09961-.394531c-.2752-.0517-.544581.031778-.738281.205078.1257.5791.47495 1.090369.96875 1.417969.2463.1634.529191.281744.837891.339844.3088.0581.615497.050981.904297-.011719.3122-.0677.603022-.201519.857422-.386719.112-.0815.2167-.172638.3125-.273438.0852-.109899.160909-.226609.224609-.349609.1447-.2795.2302-.589403.25-.908203.0184-.295-.019047-.598131-.123047-.894531s-.264291-.558544-.462891-.777344c-.3984-.43873-.955375-.7053975-1.546875-.7421875zm-23.9863278 3.7812505c-.5512399.217499-.9986574.643393-1.2421874 1.183593-.1214701.2695-.1917288.568713-.1992188.882813-.00748.314.04776.613772.15625.888672.11724.2971.2957213.563956.5195312.785156.0985201.0973.2072757.187325.3222657.265625.12223.0663.2491894.121062.3808593.164062.2991498.0976.6177468.133463.9355468.101563.2941-.0295.587481-.117078.863281-.267578.2757-.1506.507507-.350631.691407-.582032.3686-.464.543575-1.056884.484375-1.646484-.2377-.1051-.519925-.10285-.765625.03125l-1.875 1.023438.050781-2.134766c.0067-.2799-.119966-.532212-.3222658-.695312zm28.0546878 0c-.2023.1631-.328866.415412-.322266.695312l.050781 2.134766-1.875-1.023438c-.2457-.1341-.527925-.13635-.765625-.03125-.0592.5896.115675 1.182484.484375 1.646484.1838.231401.415707.431432.691407.582032.2757.1505.569181.238078.863281.267578.3178.0319.636447-.003963.935547-.101563.1317-.043.260512-.097762.382812-.164062.1149-.0783.221713-.168325.320313-.265625.2238-.2212.402331-.488056.519531-.785156.1085-.2749.16375-.574672.15625-.888672-.0075-.3141-.077719-.613313-.199219-.882813-.2435-.5402-.690987-.966094-1.242187-1.183593zm-30.7695315 4.875c-.45699.3773-.7498631.920665-.8144531 1.509765-.03221.2938-.0079488.599391.0820312.900391.08997.301.2376013.568975.4257813.796875.20334.2464.4550981.444737.7363281.585937.12379.0621.2531788.113444.3867188.152344.13676.0253.2755625.038863.4140624.039062.31466.0003.6275419-.064759.9199219-.193359.27056-.119.5225613-.293084.7382809-.521484.2156-.2284.375216-.490678.478516-.767578.2071-.5552.189772-1.172444-.048828-1.714844-.2585-.0265-.52658.064078-.7187501.267578l-1.4648438 1.550781-.6132812-2.044922c-.08017-.2682-.2786744-.467946-.5214844-.560546zm33.4843755 0c-.242801.092599-.441385.292346-.521485.560546l-.613281 2.044922-1.464844-1.550781c-.1921-.2035-.46025-.294078-.71875-.267578-.2387.5424-.256028 1.159644-.048828 1.714844.1033.2769.262816.539178.478516.767578s.467681.402484.738281.521484c.2923.1286.605222.193659.919922.193359.1385-.0002.277262-.013762.414062-.039062.1335-.0389.262919-.090244.386719-.152344.2812-.1412.533028-.339537.736328-.585937.1882-.2279.335781-.495875.425781-.796875s.114232-.606591.082032-.900391c-.0646-.5891-.357453-1.132465-.814453-1.509765zm-31.1582036 5.167968c-.25414.0542-.4811525.22191-.6015625.47461l-.9179688 1.927734-1.2109375-1.759766c-.15865-.2307-.4084687-.359446-.6679687-.373046-.31907.4994-.43192 1.1071-.3125 1.6875.05956.2895.1774187.573231.3554687.832031s.3993675.467853.6484375.626953c.26916.172.5698794.284131.8808594.332031.13688.0211.2750325.029491.4140625.025391.13793-.0179.27439-.047444.40625-.089844.29957-.0963.5795994-.254597.8183594-.466797.22094-.1963.4058856-.439056.5410156-.722656.13511-.2836.207403-.581753.220703-.876953.0267-.592-.1805786-1.174188-.5742186-1.617188zm28.8320316 0c-.3936.443-.600819 1.025188-.574219 1.617188.0133.2952.085603.593353.220703.876953s.320116.526356.541016.722656c.2388.2122.518859.370497.818359.466797.1319.0424.26825.071944.40625.089844.139.0041.277262-.004291.414063-.025391.310999-.0479.611759-.160031.880859-.332031.2491-.1591.47229-.368153.650391-.626953.178-.2588.294015-.542531.353515-.832031.1194-.5804.0066-1.1881-.3125-1.6875-.2595.013599-.509269.142346-.667969.373046l-1.210937 1.759766-.917969-1.927734c-.1204-.2527-.347362-.42041-.601562-.47461zm-28.4238285 4.503906c-.22495.130101-.3893813.361172-.4257813.638672l-.2773437 2.117188-1.6953125-1.298828c-.22218-.1703-.49902-.217691-.75-.150391-.14909.5736-.0683806 1.188025.2246094 1.703125.14614.2569.34441.488488.59375.679688.24934.1911.52643.322184.8125.396484.30913.0804.6288831.095422.9394531.044922.13671-.0222.2713738-.056716.4023437-.103516.1256401-.0596.2451218-.13189.3574218-.21289.2552-.1842.473266-.419813.634766-.695313.1494-.2551.250215-.543969.291015-.855469.0409-.3114.018053-.617443-.060547-.902343-.1577-.5712-.535594-1.061729-1.0468745-1.361329zm28.0156245 0c-.5113.2996-.889274.790129-1.046874 1.361329-.0787.2849-.101447.590943-.060547.902343.0408.3115.141615.600369.291015.855469.1615.2755.379666.511113.634766.695313.1123.081.231722.15329.357422.21289.1309.0468.265643.081316.402344.103516.310599.0505.630353.035478.939453-.044922.2861-.0743.5631-.205384.8125-.396484.2493-.1912.44765-.422788.59375-.679688.293-.5151.373609-1.129525.224609-1.703125-.251-.0673-.5278-.019909-.75.150391l-1.695312 1.298828-.277344-2.117188c-.0364-.2775-.200882-.508572-.425782-.638672zm-26.251953 4.13086c-.1741.1929-.259684.461028-.208984.736328l.386719 2.101562-2.0136721-.716796c-.26374-.0938-.5415956-.051357-.7597657.089843.0342901.5916.2992882 1.150582.7363282 1.550782.2179996.1996.4793906.359543.7753906.464843.2959.1053.599431.146007.894531.128907.3189-.0185.628203-.104647.908203-.248047.1233-.0632.23931-.137857.34961-.222656.1012-.0954.19339-.198847.27539-.310547.1863-.2536.321525-.545622.390625-.857422.0639-.2886.072425-.595297.015625-.904297-.0568-.3089-.173637-.590891-.335937-.837891-.3255-.4952-.835463-.846509-1.414063-.974609zm24.488282 0c-.5786.1281-1.088563.479409-1.414063.974609-.1623.247-.277184.528991-.333984.837891-.0568.309-.050228.615697.013672.904297.069.3118.204325.603822.390625.857422.0819.1117.17419.215147.27539.310547.1103.084799.22631.159456.34961.222656.28.1434.589403.229547.908203.248047.2951.0171.598531-.023607.894531-.128907s.557391-.265243.775391-.464843c.437-.4002.702028-.959182.736328-1.550782-.2182-.1412-.496066-.183643-.759766-.089843l-2.013672.716796.386719-2.101562c.0506-.2753-.034884-.543428-.208984-.736328zm-21.519532 3.408203c-.106.2373-.103903.519425.029297.765625l1.015625 1.878906-2.132812-.058594c-.2798-.0078-.533366.11676-.697266.31836.2155.5521.640388 1.002447 1.179688 1.248047.269.1224.566859.194425.880859.203125.314.0086.615325-.046897.890625-.154297.2976-.1161.565109-.292725.787109-.515625.0977-.0982.187025-.205613.265625-.320313.0669-.122.122616-.249359.166016-.380859.0988-.2988.134216-.617647.103516-.935547-.0285-.2942-.114172-.588934-.263672-.865234s-.347425-.50866-.578125-.69336c-.4626-.3704-1.056685-.547234-1.646485-.490234zm18.109375 0c-.43724.042956-.858203.212434-1.205078.490234-.2308.1847-.428625.41706-.578125.69336-.1496.2763-.235272.571034-.263672.865234-.0307.3179.004816.636747.103516.935547.0435.1315.099216.258859.166016.380859.0787.1147.167925.222113.265625.320313.222.2229.489609.399525.787109.515625.2754.1074.576525.162897.890625.154297.314-.0087.611859-.080725.880859-.203125.5394-.2456.964288-.695947 1.179688-1.248047-.1638-.2016-.415513-.32616-.695313-.31836l-2.134765.058594 1.015625-1.878906c.1332-.2462.135297-.528325.029297-.765625-.147475-.01425-.29566-.014319-.441407 0z" fill="#000" opacity=".25"/>
    <path id="path64" d="m24 36c6.6274 0 12-5.3726 12-12s-5.3726-12-12-12-12 5.3726-12 12 5.3726 12 12 12zm0 1c7.1797 0 13-5.8203 13-13s-5.8203-13-13-13-13 5.8203-13 13 5.8203 13 13 13z" clip-rule="evenodd" fill="url(#f)" fill-opacity=".15" fill-rule="evenodd"/>
    <path id="path66" d="m24 4c-2.6264 0-5.2272.51732-7.6537 1.52241s-4.6313 2.47828-6.48844 4.33545c-3.75072 3.75074-5.85786 8.83784-5.85786 14.14214s2.10714 10.3914 5.85786 14.1421c1.85714 1.8572 4.06194 3.3304 6.48844 4.3355s5.0273 1.5224 7.6537 1.5224c5.3043 0 10.3914-2.1071 14.1421-5.8579 3.7508-3.7507 5.8579-8.8378 5.8579-14.1421 0-2.6264-.5173-5.2272-1.5224-7.6537s-2.4783-4.6313-4.3355-6.48844c-1.8571-1.85717-4.0619-3.33036-6.4884-4.33545s-5.0273-1.52241-7.6537-1.52241zm0 1c5.0391 0 9.8718 2.00178 13.435 5.565 3.5632 3.5632 5.565 8.3959 5.565 13.435s-2.0018 9.8718-5.565 13.435-8.3959 5.565-13.435 5.565-9.8718-2.0018-13.435-5.565c-3.56322-3.5632-5.565-8.3959-5.565-13.435s2.00178-9.8718 5.565-13.435c3.5632-3.56322 8.3959-5.565 13.435-5.565z" clip-rule="evenodd" fill="url(#g)" fill-rule="evenodd"/>
    <path id="path68" d="m24 44c11.0457 0 20-8.9543 20-20s-8.9543-20-20-20-20 8.9543-20 20 8.9543 20 20 20z" display="none" fill="url(#h)"/>
    <path id="path70" d="m36.947266 22.935547c.028563.35175.052734.705343.052734 1.064453 0 7.1797-5.8203 13-13 13-.355166 0-.704761-.024789-1.052734-.052734l6.339843 6.339843a20 20 0 0 0 14.001953-14.009765z" fill="url(#b)" fill-rule="evenodd" opacity=".15" stroke-linejoin="round" stroke-width=".1"/>
</svg>
