<?xml version="1.0" encoding="UTF-8" standalone="no"?>
<svg
   xmlns:dc="http://purl.org/dc/elements/1.1/"
   xmlns:cc="http://creativecommons.org/ns#"
   xmlns:rdf="http://www.w3.org/1999/02/22-rdf-syntax-ns#"
   xmlns:svg="http://www.w3.org/2000/svg"
   xmlns="http://www.w3.org/2000/svg"
   xmlns:xlink="http://www.w3.org/1999/xlink"
   xmlns:sodipodi="http://sodipodi.sourceforge.net/DTD/sodipodi-0.dtd"
   xmlns:inkscape="http://www.inkscape.org/namespaces/inkscape"
   width="48"
   height="48"
   version="1.1"
   id="svg61"
   sodipodi:docname="maximabackend.svg"
   inkscape:version="0.92.3 (2405546, 2018-03-11)">
  <metadata
     id="metadata65">
    <rdf:RDF>
      <cc:Work
         rdf:about="">
        <dc:format>image/svg+xml</dc:format>
        <dc:type
           rdf:resource="http://purl.org/dc/dcmitype/StillImage" />
      </cc:Work>
    </rdf:RDF>
  </metadata>
  <sodipodi:namedview
     pagecolor="#ffffff"
     bordercolor="#666666"
     borderopacity="1"
     objecttolerance="10"
     gridtolerance="10"
     guidetolerance="10"
     inkscape:pageopacity="0"
     inkscape:pageshadow="2"
     inkscape:window-width="2560"
     inkscape:window-height="1245"
     id="namedview63"
     showgrid="true"
     inkscape:zoom="27.812867"
     inkscape:cx="23.087653"
     inkscape:cy="25.987311"
     inkscape:window-x="0"
     inkscape:window-y="36"
     inkscape:window-maximized="1"
     inkscape:current-layer="svg61">
    <inkscape:grid
       type="xygrid"
       id="grid1019" />
  </sodipodi:namedview>
  <defs
     id="defs17">
    <linearGradient
       id="a"
       y1="543.8"
       y2="503.8"
       x1="434.57"
       gradientUnits="userSpaceOnUse"
       x2="384.57"
       gradientTransform="translate(-384.57,-499.8)">
      <stop
         stop-color="#343b40"
         id="stop2" />
      <stop
         offset="1"
         stop-color="#555e63"
         id="stop4" />
    </linearGradient>
    <linearGradient
       id="b"
       y1="44"
       y2="4"
       gradientUnits="userSpaceOnUse"
       x2="0">
      <stop
         stop-color="#bd8d48"
         id="stop7" />
      <stop
         offset="1"
         stop-color="#e8b971"
         id="stop9" />
    </linearGradient>
    <linearGradient
       id="c"
       y1="17"
       x1="17"
       y2="40"
       x2="40"
       gradientUnits="userSpaceOnUse">
      <stop
         stop-color="#383e51"
         id="stop12" />
      <stop
         offset="1"
         stop-color="#655c6f"
         stop-opacity="0"
         id="stop14" />
    </linearGradient>
    <filter
       id="emboss">
      <feGaussianBlur
         in="SourceAlpha"
         stdDeviation="2"
         result="blur"
         id="feGaussianBlur11" />
      <feSpecularLighting
         in="blur"
         surfaceScale="-3"
         specularConstant="1"
         specularExponent="16"
         result="spec"
         kernelUnitLength="1"
         id="feSpecularLighting15">
        <feDistantLight
           azimuth="45"
           elevation="45"
           id="feDistantLight13" />
      </feSpecularLighting>
      <feComposite
         in="spec"
         in2="SourceGraphic"
         operator="in"
         result="specOut"
         id="feComposite17" />
    </filter>
    <filter
       id="filter886">
      <feGaussianBlur
         in="SourceAlpha"
         stdDeviation="2"
         result="blur"
         id="feGaussianBlur878" />
      <feSpecularLighting
         in="blur"
         surfaceScale="-3"
         specularConstant="1"
         specularExponent="16"
         result="spec"
         kernelUnitLength="1"
         id="feSpecularLighting882">
        <feDistantLight
           azimuth="45"
           elevation="45"
           id="feDistantLight880" />
      </feSpecularLighting>
      <feComposite
         in="spec"
         in2="SourceGraphic"
         operator="in"
         result="specOut"
         id="feComposite884" />
    </filter>
    <filter
       id="filter896">
      <feGaussianBlur
         in="SourceAlpha"
         stdDeviation="2"
         result="blur"
         id="feGaussianBlur888" />
      <feSpecularLighting
         in="blur"
         surfaceScale="-3"
         specularConstant="1"
         specularExponent="16"
         result="spec"
         kernelUnitLength="1"
         id="feSpecularLighting892">
        <feDistantLight
           azimuth="45"
           elevation="45"
           id="feDistantLight890" />
      </feSpecularLighting>
      <feComposite
         in="spec"
         in2="SourceGraphic"
         operator="in"
         result="specOut"
         id="feComposite894" />
    </filter>
    <linearGradient
       id="a-3"
       gradientUnits="userSpaceOnUse"
       x1="4"
       x2="4"
       y1="3"
       y2="45"
       gradientTransform="translate(-60)">
      <stop
         offset="0"
         stop-color="#977a5c"
         id="stop2-6" />
      <stop
         offset="1"
         stop-color="#9d8062"
         id="stop4-7" />
    </linearGradient>
    <linearGradient
       id="b-5"
       gradientUnits="userSpaceOnUse"
       x1="4"
       x2="4"
       y1="3"
       y2="45">
      <stop
         offset="0"
         stop-color="#383e51"
         id="stop7-3" />
      <stop
         offset="1"
         stop-opacity="0"
         id="stop9-5" />
    </linearGradient>
    <linearGradient
       id="c-6"
       gradientUnits="userSpaceOnUse"
       x1="4"
       x2="4"
       y1="3"
       y2="45"
       gradientTransform="translate(-60)">
      <stop
         offset="0"
         stop-color="#21c9fb"
         id="stop12-2" />
      <stop
         offset="1"
         stop-color="#197cf1"
         id="stop14-9" />
    </linearGradient>
    <linearGradient
       gradientUnits="userSpaceOnUse"
       x2="0"
       y2="503.8"
       y1="543.8"
       id="a-0">
      <stop
         id="stop1041"
         stop-color="#2a2c2f" />
      <stop
         id="stop1043"
         stop-color="#536161"
         offset="1" />
    </linearGradient>
    <linearGradient
       gradientTransform="translate(379.57 499.8)"
       gradientUnits="userSpaceOnUse"
       x2="0"
       y2="14"
       y1="34"
       id="b-9">
      <stop
         id="stop1046"
         stop-color="#b40000" />
      <stop
         id="stop1048"
         stop-color="#b40000"
         offset="1" />
    </linearGradient>
    <linearGradient
       gradientUnits="userSpaceOnUse"
       x2="416.57"
       y2="536.8"
       x1="403.57"
       y1="523.8"
       id="c-3">
      <stop
         id="stop1051"
         stop-color="#292c2f" />
      <stop
         id="stop1053"
         stop-opacity="0"
         offset="1" />
    </linearGradient>
    <linearGradient
       gradientTransform="translate(379.57 499.8)"
       x2="0"
       gradientUnits="userSpaceOnUse"
       y2="14"
       y1="34"
       id="d">
      <stop
         id="stop1056"
         stop-color="#ec0000" />
      <stop
         id="stop1058"
         stop-color="#ff2020"
         offset="1" />
    </linearGradient>
    <linearGradient
       inkscape:collect="always"
       xlink:href="#d"
       id="linearGradient1108"
       x1="39"
       y1="38"
       x2="8"
       y2="9"
       gradientUnits="userSpaceOnUse" />
    <linearGradient
       gradientTransform="translate(379.57,499.8)"
       x2="0"
       gradientUnits="userSpaceOnUse"
       y2="14"
       y1="34"
       id="d-0">
      <stop
         id="stop1056-6"
         stop-color="#ec0000" />
      <stop
         id="stop1058-2"
         stop-color="#ff2020"
         offset="1" />
    </linearGradient>
    <linearGradient
       gradientTransform="translate(379.57,499.8)"
       x2="0"
       gradientUnits="userSpaceOnUse"
       y2="14"
       y1="34"
       id="d-8">
      <stop
         id="stop1056-7"
         stop-color="#ec0000" />
      <stop
         id="stop1058-9"
         stop-color="#ff2020"
         offset="1" />
    </linearGradient>
  </defs>
  <rect
     width="48"
     x="7.6293945e-06"
     y="3.9999878"
     height="40"
     id="rect19"
     style="fill:#343b40;stroke-width:2.79999995;stroke-opacity:0.55;fill-opacity:1" />
  <path
     d="M 0,4 V 44 H 48 V 4 H 2 Z M 2,6 H 46 V 42 H 2 Z"
     id="path21"
     style="fill:url(#b);stroke-width:2.79999995;stroke-opacity:0.55"
     inkscape:connector-curvature="0" />
  <rect
     width="48"
     x="7.6293945e-06"
     y="42.999989"
     height="1"
     id="rect27"
     style="fill:#aa7f41;stroke-width:2.79999995;stroke-opacity:0.55" />
  <path
     d="M 2,6 V 42 H 46 V 6 H 3 Z M 3,7 H 45 V 41 H 3 Z"
     id="path29"
     inkscape:connector-curvature="0"
     style="color:#000000;color-interpolation:sRGB;color-interpolation-filters:linearRGB;fill:#aa7f41;fill-opacity:0.49800002;color-rendering:auto;image-rendering:auto;shape-rendering:auto;text-rendering:auto" />
  <path
     style="fill:#d6d6d6;fill-opacity:1;stroke-width:0.27158287"
     d="M 15.263672 8 C 13.78801 8 12.311578 9.166205 12.082031 10.494141 C 11.885276 11.692521 12.442718 12.403981 13.951172 12.857422 C 13.032982 13.63475 12.442849 14.606954 12.246094 15.675781 C 12.04934 16.90655 12.409625 17.943383 13.458984 19.109375 C 12.180077 19.95148 11.557783 20.438165 10.869141 21.085938 C 9.4590636 22.446261 8.4103664 24.420286 8.1152344 26.298828 C 7.6561394 28.857533 8.6065702 31.2217 10.410156 32.193359 C 11.39393 32.711579 12.607082 32.90625 14.607422 32.90625 C 15.197687 32.90625 15.920103 32.875327 17.494141 32.810547 C 18.773048 32.745767 19.624489 33.684107 19.427734 34.947266 C 19.230979 36.178035 18.182071 37.085938 16.96875 37.085938 C 16.804788 37.085938 16.181651 37.020177 15.558594 36.890625 C 14.804367 36.793455 14.541227 36.761719 14.246094 36.761719 C 13.426283 36.761719 12.771795 37.311377 12.640625 38.121094 C 12.44387 39.222309 13.426372 40 15.033203 40 C 16.574449 40 17.854317 39.351697 19.166016 37.958984 C 20.313752 36.728215 21.067739 35.237925 21.330078 33.748047 C 21.37709 33.486859 21.396925 33.240199 21.404297 33 L 38.242188 33 L 40 27.115234 L 39.154297 27.115234 C 38.1132 29.730389 37.137254 30.287109 33.363281 30.287109 L 24.675781 30.287109 L 31.541016 20.9375 L 26.271484 12.339844 L 31.769531 12.339844 C 35.543504 12.339844 36.550434 13.09187 37.103516 16.328125 L 37.951172 16.328125 L 37.625 11 L 21.552734 11 L 28.646484 22.539062 L 21.386719 32.470703 C 21.301563 31.615358 20.940887 30.912845 20.3125 30.380859 C 19.656651 29.797862 18.936598 29.634766 17.460938 29.634766 L 14.607422 29.634766 C 13.197345 29.634766 12.116066 29.505204 11.558594 29.246094 C 10.279687 28.630709 9.5583836 27.109993 9.8535156 25.425781 C 10.247025 23.126185 11.985045 21.181609 15.001953 19.626953 C 15.854557 19.95084 16.508825 20.048828 17.525391 20.048828 C 20.115996 20.048828 21.789573 19.367978 21.986328 18.234375 C 22.117498 17.489436 21.329587 17.068359 19.886719 17.068359 C 18.607813 17.068359 17.361779 17.425639 14.902344 18.429688 C 13.65623 17.425639 13.328226 16.776671 13.492188 15.740234 C 13.656151 14.736185 14.443028 13.764305 15.820312 12.857422 C 17.459936 12.792642 18.608024 12.599926 19.591797 12.146484 C 20.772327 11.595877 21.657482 10.785955 21.755859 10.041016 C 21.887028 9.4256314 21.394752 9.0683594 20.476562 9.0683594 C 19.263241 9.0683594 17.788381 9.8140019 15.394531 11.660156 C 14.345172 11.627766 13.754007 11.012027 13.917969 10.169922 C 14.016349 9.4573714 14.673398 8.9723243 15.886719 8.6484375 L 15.984375 8.0644531 C 15.689242 8.0320641 15.427634 8 15.263672 8 z "
     id="use27" />
  <path
     inkscape:connector-curvature="0"
     style="opacity:0.2;fill:url(#b-5)"
     d="M 36,14 31,15 23.618844,31 16,16 12,33.425982 26,44 H 48 V 29 Z"
     id="path21-1"
     sodipodi:nodetypes="ccccccccc" />
  <path
     style="fill:url(#linearGradient1108);stroke-width:0.30405742;fill-opacity:1"
     d="M 12.056641 14 L 12 34 L 16 34 L 16 17 L 23.054688 34 L 24.945312 34 L 32 17 L 32 34 L 36 34 L 35.943359 14 L 30 14 L 24 28 L 18 14 L 12.056641 14 z "
     id="use39" />
  <path
     style="fill:#ffffff;fill-opacity:0.29411765;stroke-width:0.30405742"
     d="M 35.001953 14 L 35.056641 33 L 32 33 L 32 34 L 36 34 L 35.943359 14 L 35.001953 14 z M 15 17 L 15.056641 33 L 12.001953 33 L 12 34 L 16 34 L 16 17 L 15 17 z M 31 17 L 24.001953 33 L 22.640625 33 L 23.054688 34 L 24.945312 34 L 32 17 L 31 17 z M 11.056641 32 L 11.056641 33 L 11.058594 32 L 11.056641 32 z "
     id="use39-6" />
</svg>
