<svg id="svg24" version="1.1" viewBox="0 0 48 48" xmlns="http://www.w3.org/2000/svg" xmlns:xlink="http://www.w3.org/1999/xlink">
    <defs id="defs14">
        <linearGradient id="linearGradient4225" x1="15.233" x2="39.609" y1="11.995" y2="36.37" gradientUnits="userSpaceOnUse">
            <stop id="stop2" offset="0"/>
            <stop id="stop4" stop-opacity="0" offset="1"/>
        </linearGradient>
    </defs>
    <g>
        <path id="circle16" d="m23.986328 44a20 20 0 0 0 0.013672 0 20 20 0 0 0 20-20 20 20 0 0 0-20-20 20 20 0 0 0-0.011719 0l-0.001953 40z" fill="#39fea0"/>
        <path id="path915" d="m23.986328 44 0.001953-40a20 20 0 0 0-19.988281 20 20 20 0 0 0 19.986328 20z" fill="#1f4855"/>
        <path id="path18" d="m25.36621 11.777344-1.626185 2.303609-10.373815 21.596781 10.672128 8.371718c10.161958-0.441672 16.725711-6.903696 19.099443-14.215309z" fill="url(#linearGradient4225)" opacity=".2"/>
        <path id="path22" d="M 43.978516 23.417969 A 20 20 0 0 1 24 43 A 20 20 0 0 1 4.0214844 23.582031 A 20 20 0 0 0 4 24 A 20 20 0 0 0 24 44 A 20 20 0 0 0 44 24 A 20 20 0 0 0 43.978516 23.417969 z" opacity=".2"/>
        <g id="flowRoot853" transform="translate(2.36321,-3.8828224)" aria-label="A">
            <path id="path869" transform="translate(-1.2548115,3.8828224)" d="m22.789062 28.310547h4.769532l2.867187 7.367187h3.09961l-9.267579-23.90039h-1.46875v3.351562c0.02238-0.08504 0.04828-0.166575 0.07031-0.251953 0.08889 0.266667 0.198698 0.654905 0.332031 1.166016 0.155556 0.488888 0.311242 0.966927 0.466797 1.433593s0.267318 0.789019 0.333985 0.966797l2.666015 7.199219h-3.869141z" fill="#1f4855"/>
            <path id="path875" transform="translate(-1.2548115,3.8828224)" d="m22.878119 28.307248-1e-6 -2.66467h-3.753118l2.701172-7.199219c0.133333-0.377777 0.289019-0.888759 0.466797-1.533203 0.175213-0.584042 0.408246-1.432104 0.566403-2.033203l0.02088-3.099609h-1.321658l-9.300782 23.90039h3.035157l2.832031-7.367187z" fill="#39fea0"/>
        </g>
    </g>
</svg>
