<?xml version="1.0" encoding="UTF-8" standalone="no"?>      <svg xmlns="http://www.w3.org/2000/svg" viewBox="0 0 48 48">
  <path
     d="M4 9C4 6.23858 6.23858 4 9 4H39C41.7614 4 44 6.23858 44 9V39C44 41.7614 41.7614 44 39 44H9C6.23858 44 4 41.7614 4 39V9Z"
     fill="url(#paint0_linear)"
     />
  <path
     d="M4 38V39C4 41.7614 6.23858 44 9 44H39C41.7614 44 44 41.7614 44 39V38C44 40.7614 41.7614 43 39 43H9C6.23858 43 4 40.7614 4 38Z"
     fill-opacity="0.3"
     />
  <path
     d="M 32,11 12.6045,31 26,44 H 44 V 43.0868 23 Z"
     style="fill:url(#paint1_linear)"
     />
  <path
     style="fill:#ffffff"
     d="M 15 13 L 15 29 L 31 29 L 31 13 L 15 13 z "
     />
  <path
     d="M8 38C8 36.8954 8.71634 36 9.6 36H38.4C39.2837 36 40 36.8954 40 38C40 39.1046 39.2837 40 38.4 40H9.6C8.71634 40 8 39.1046 8 38Z"
     fill="#152940"
     fill-opacity="0.2"
     />
  <path
     d="M38.4 35.5H9.6C8.34185 35.5 7.5 36.7292 7.5 38C7.5 39.2708 8.34185 40.5 9.6 40.5H38.4C39.6581 40.5 40.5 39.2708 40.5 38C40.5 36.7292 39.6581 35.5 38.4 35.5Z"
     stroke="black"
     stroke-opacity="0.02"
     style="fill:#e1dedb;fill-opacity:1" />
  <path
     d="M8 38C8 36.8954 8.74619 36 9.66667 36H26.3333C27.2538 36 28 36.8954 28 38C28 39.1046 27.2538 40 26.3333 40H9.66667C9.2058 40 8.78862 39.7755 8.48692 39.4127C8.18604 39.0509 8 38.5515 8 38Z"
     fill="url(#paint2_linear)"
     />
  <defs>
    <linearGradient
       id="paint0_linear"
       x1="4"
       y1="4"
       x2="44"
       y2="44"
       gradientUnits="userSpaceOnUse">
      <stop
         stop-color="white"
         id="stop20" />
      <stop
         offset="1"
         stop-color="#EFF0F1"
         id="stop22" />
    </linearGradient>
    <linearGradient
       id="paint1_linear"
       x1="13.26"
       y1="11.1229"
       x2="44.327"
       y2="43.6881"
       gradientUnits="userSpaceOnUse">
      <stop
         offset="0.046875"
         stop-color="#00022F"
         stop-opacity="0.4"
         id="stop25" />
      <stop
         offset="0.630208"
         stop-color="#00022F"
         stop-opacity="0"
         id="stop27" />
    </linearGradient>
    <linearGradient
       id="paint2_linear"
       x1="18"
       y1="36"
       x2="18"
       y2="40"
       gradientUnits="userSpaceOnUse">
      <stop
         stop-color="#5DC6FF"
         id="stop30" />
      <stop
         offset="1"
         stop-color="#3DAEE9"
         id="stop32" />
    </linearGradient>
  </defs>
  <path
     style="fill:#51a2da"
     d="M 24.000069,8 C 17.375582,8 12.005065,13.367948 12,20 v 9.3 C 12,30.781843 13.223126,32 14.7,32 c 0,0 0,-4.62e-4 0,-4.62e-4 V 32 h 9.3 C 30.629423,31.9968 36,26.626064 36,20.000159 36,13.372773 30.627414,8 23.999928,8 Z m 3.000243,4.937443 v 0.06256 c 2.015229,0 4.045423,1.482827 4.045423,3.611032 0,0.197415 -0.0022,0.393667 -0.03374,0.61824 -0.05576,0.566017 -0.572744,0.850672 -1.135974,0.770728 -0.563789,-0.08073 -0.819516,-0.417348 -0.841871,-1.053075 0.0088,-0.06308 0.01293,-0.163672 0.01293,-0.335893 0,-1.206428 -1.1127,-1.672789 -2.046905,-1.672789 -0.933646,0 -1.996983,0.775498 -2.000175,1.662965 V 20 l 1.73223,-0.01261 c 1.352301,-0.0284 1.36614,2.010229 0.01388,2.000643 l -1.746062,0.0095 -0.01262,2.865876 c -0.208964,2.249306 -2.249897,4.055824 -4.550494,4.055824 -2.438394,0 -4.449965,-1.994746 -4.449965,-4.439137 0.07342,-2.51459 2.082778,-4.491894 4.606972,-4.46821 L 22,20.002386 V 22 l -1.417763,0.01261 c -1.387601,0.04101 -2.574024,0.981952 -2.59675,2.467729 0,1.354553 1.094835,2.438521 2.452208,2.438521 1.356061,0 2.56459,-0.994011 2.56459,-2.443173 v -7.883151 c 6.45e-4,-0.140022 0.0073,-0.25229 0.02334,-0.406976 C 23.253542,14.336704 25.1284,13 27,13 Z"
     />
</svg>
