<?xml version="1.0" encoding="UTF-8" standalone="no"?>
<!-- Created with Inkscape (http://www.inkscape.org/) -->
<svg
   xmlns:svg="http://www.w3.org/2000/svg"
   xmlns="http://www.w3.org/2000/svg"
   xmlns:inkscape="http://www.inkscape.org/namespaces/inkscape"
   version="1.0"
   width="128"
   height="128"
   id="svg8890">
  <defs
     id="defs8892">
    <filter
       id="filter7522">
      <feGaussianBlur
         id="feGaussianBlur7524"
         stdDeviation="1.0592676"
         inkscape:collect="always" />
    </filter>
    <filter
       id="filter8029">
      <feGaussianBlur
         id="feGaussianBlur8031"
         stdDeviation="0.82381001"
         inkscape:collect="always" />
    </filter>
    <filter
       id="filter9531">
      <feGaussianBlur
         inkscape:collect="always"
         stdDeviation="0.35452"
         id="feGaussianBlur9533" />
    </filter>
  </defs>
  <g
     transform="translate(-109.17962,-91.593498)"
     id="layer1">
    <g
       transform="matrix(0.9830109,0,0,0.9951024,123.99873,-33.44828)"
       id="g8856">
      <rect
         width="91.958"
         height="49.849998"
         x="8.3760004"
         y="14.414724"
         transform="matrix(1.2535842,-0.2210407,0.2517837,1.4279363,-29.204635,146.3453)"
         style="fill:#000000;fill-opacity:1;fill-rule:evenodd;stroke:none;stroke-width:0.25;stroke-miterlimit:4;stroke-dasharray:none;stroke-dashoffset:0;stroke-opacity:1;filter:url(#filter9531)"
         id="rect8814" />
      <rect
         width="109.22"
         height="55.542"
         x="367.99844"
         y="359.93045"
         transform="matrix(1.0559399,-0.1861907,0.2259806,1.2816001,-484.93024,-227.31284)"
         style="fill:#2e3436;fill-opacity:1;fill-rule:evenodd;stroke:none;stroke-width:0.25;stroke-miterlimit:4;stroke-dasharray:none;stroke-dashoffset:0;stroke-opacity:1;filter:url(#filter8029)"
         id="rect8816" />
      <rect
         width="116.3792"
         height="71.427658"
         x="-43.146927"
         y="160.19618"
         transform="matrix(0.9848078,-0.1736482,0.1736482,0.9848078,0,0)"
         style="fill:#002c63;fill-opacity:1;fill-rule:evenodd;stroke:none;stroke-width:0.68054122;stroke-miterlimit:4;stroke-dasharray:none;stroke-dashoffset:0;stroke-opacity:1"
         id="rect8818" />
      <g
         transform="matrix(1.2535842,-0.2210407,0.2510283,1.4236525,-34.284436,147.57541)"
         id="g8820">
        <rect
           width="90.867905"
           height="0.42620751"
           x="12.995816"
           y="-18.646544"
           transform="scale(1,-1)"
           style="fill:#ff80df;fill-opacity:1;fill-rule:evenodd;stroke:none;stroke-width:2;stroke-miterlimit:4;stroke-dasharray:none;stroke-dashoffset:0;stroke-opacity:1"
           id="rect8822" />
        <rect
           width="90.867905"
           height="0.42620751"
           x="12.995816"
           y="-23.099457"
           transform="scale(1,-1)"
           style="fill:#80b3ff;fill-opacity:1;fill-rule:evenodd;stroke:none;stroke-width:2;stroke-miterlimit:4;stroke-dasharray:none;stroke-dashoffset:0;stroke-opacity:1"
           id="rect8824" />
        <rect
           width="90.867905"
           height="0.42620751"
           x="12.995816"
           y="-27.668182"
           transform="scale(1,-1)"
           style="fill:#80b3ff;fill-opacity:1;fill-rule:evenodd;stroke:none;stroke-width:2;stroke-miterlimit:4;stroke-dasharray:none;stroke-dashoffset:0;stroke-opacity:1"
           id="rect8826" />
        <rect
           width="90.867905"
           height="0.42620751"
           x="12.995816"
           y="-32.121063"
           transform="scale(1,-1)"
           style="fill:#80b3ff;fill-opacity:1;fill-rule:evenodd;stroke:none;stroke-width:2;stroke-miterlimit:4;stroke-dasharray:none;stroke-dashoffset:0;stroke-opacity:1"
           id="rect8828" />
        <rect
           width="90.867905"
           height="0.42620751"
           x="12.995816"
           y="-36.64389"
           transform="scale(1,-1)"
           style="fill:#80b3ff;fill-opacity:1;fill-rule:evenodd;stroke:none;stroke-width:2;stroke-miterlimit:4;stroke-dasharray:none;stroke-dashoffset:0;stroke-opacity:1"
           id="rect8830" />
        <rect
           width="90.867905"
           height="0.42620751"
           x="12.995816"
           y="-41.096802"
           transform="scale(1,-1)"
           style="fill:#80b3ff;fill-opacity:1;fill-rule:evenodd;stroke:none;stroke-width:2;stroke-miterlimit:4;stroke-dasharray:none;stroke-dashoffset:0;stroke-opacity:1"
           id="rect8832" />
        <rect
           width="90.867905"
           height="0.42620751"
           x="12.995816"
           y="-45.665554"
           transform="scale(1,-1)"
           style="fill:#80b3ff;fill-opacity:1;fill-rule:evenodd;stroke:none;stroke-width:2;stroke-miterlimit:4;stroke-dasharray:none;stroke-dashoffset:0;stroke-opacity:1"
           id="rect8834" />
        <rect
           width="90.867905"
           height="0.42620751"
           x="12.995816"
           y="-50.118465"
           transform="scale(1,-1)"
           style="fill:#80b3ff;fill-opacity:1;fill-rule:evenodd;stroke:none;stroke-width:2;stroke-miterlimit:4;stroke-dasharray:none;stroke-dashoffset:0;stroke-opacity:1"
           id="rect8836" />
        <rect
           width="90.867905"
           height="0.42620751"
           x="12.995816"
           y="-54.746643"
           transform="scale(1,-1)"
           style="fill:#80b3ff;fill-opacity:1;fill-rule:evenodd;stroke:none;stroke-width:2;stroke-miterlimit:4;stroke-dasharray:none;stroke-dashoffset:0;stroke-opacity:1"
           id="rect8838" />
        <rect
           width="90.867905"
           height="0.42620751"
           x="12.995816"
           y="-59.199554"
           transform="scale(1,-1)"
           style="fill:#80b3ff;fill-opacity:1;fill-rule:evenodd;stroke:none;stroke-width:2;stroke-miterlimit:4;stroke-dasharray:none;stroke-dashoffset:0;stroke-opacity:1"
           id="rect8840" />
      </g>
    </g>
    <g
       transform="matrix(0.9830109,0,0,0.9951024,123.99804,-33.44828)"
       id="g8796">
      <rect
         width="91.958"
         height="49.849998"
         x="8.3760004"
         y="14.414724"
         transform="matrix(1.2680789,-0.1109425,0.1263727,1.444447,-20.30158,143.77038)"
         style="fill:#000000;fill-opacity:1;fill-rule:evenodd;stroke:none;stroke-width:0.25;stroke-miterlimit:4;stroke-dasharray:none;stroke-dashoffset:0;stroke-opacity:1;filter:url(#filter9531)"
         id="rect7765" />
      <rect
         width="109.22"
         height="55.542"
         x="367.99844"
         y="359.93045"
         transform="matrix(1.0681493,-9.3450959e-2,0.1134219,1.2964187,-441.72656,-268.18498)"
         style="fill:#2e3436;fill-opacity:1;fill-rule:evenodd;stroke:none;stroke-width:0.25;stroke-miterlimit:4;stroke-dasharray:none;stroke-dashoffset:0;stroke-opacity:1;filter:url(#filter8029)"
         id="rect7767" />
      <rect
         width="116.37919"
         height="71.427658"
         x="-21.728121"
         y="162.59941"
         transform="matrix(0.9961947,-8.7155743e-2,8.7155743e-2,0.9961947,0,0)"
         style="fill:#ffffff;fill-opacity:1;fill-rule:evenodd;stroke:none;stroke-width:0.68054122;stroke-miterlimit:4;stroke-dasharray:none;stroke-dashoffset:0;stroke-opacity:1"
         id="rect7769" />
      <g
         transform="matrix(1.2680789,-0.1109425,0.1259936,1.4401136,-25.469262,144.55308)"
         id="g7777">
        <rect
           width="90.867905"
           height="0.42620751"
           x="12.995816"
           y="-18.646544"
           transform="scale(1,-1)"
           style="fill:#ff80df;fill-opacity:1;fill-rule:evenodd;stroke:none;stroke-width:2;stroke-miterlimit:4;stroke-dasharray:none;stroke-dashoffset:0;stroke-opacity:1"
           id="rect7779" />
        <rect
           width="90.867905"
           height="0.42620751"
           x="12.995816"
           y="-23.099457"
           transform="scale(1,-1)"
           style="fill:#80b3ff;fill-opacity:1;fill-rule:evenodd;stroke:none;stroke-width:2;stroke-miterlimit:4;stroke-dasharray:none;stroke-dashoffset:0;stroke-opacity:1"
           id="rect7781" />
        <rect
           width="90.867905"
           height="0.42620751"
           x="12.995816"
           y="-27.668182"
           transform="scale(1,-1)"
           style="fill:#80b3ff;fill-opacity:1;fill-rule:evenodd;stroke:none;stroke-width:2;stroke-miterlimit:4;stroke-dasharray:none;stroke-dashoffset:0;stroke-opacity:1"
           id="rect7783" />
        <rect
           width="90.867905"
           height="0.42620751"
           x="12.995816"
           y="-32.121063"
           transform="scale(1,-1)"
           style="fill:#80b3ff;fill-opacity:1;fill-rule:evenodd;stroke:none;stroke-width:2;stroke-miterlimit:4;stroke-dasharray:none;stroke-dashoffset:0;stroke-opacity:1"
           id="rect7785" />
        <rect
           width="90.867905"
           height="0.42620751"
           x="12.995816"
           y="-36.64389"
           transform="scale(1,-1)"
           style="fill:#80b3ff;fill-opacity:1;fill-rule:evenodd;stroke:none;stroke-width:2;stroke-miterlimit:4;stroke-dasharray:none;stroke-dashoffset:0;stroke-opacity:1"
           id="rect7787" />
        <rect
           width="90.867905"
           height="0.42620751"
           x="12.995816"
           y="-41.096802"
           transform="scale(1,-1)"
           style="fill:#80b3ff;fill-opacity:1;fill-rule:evenodd;stroke:none;stroke-width:2;stroke-miterlimit:4;stroke-dasharray:none;stroke-dashoffset:0;stroke-opacity:1"
           id="rect7789" />
        <rect
           width="90.867905"
           height="0.42620751"
           x="12.995816"
           y="-45.665554"
           transform="scale(1,-1)"
           style="fill:#80b3ff;fill-opacity:1;fill-rule:evenodd;stroke:none;stroke-width:2;stroke-miterlimit:4;stroke-dasharray:none;stroke-dashoffset:0;stroke-opacity:1"
           id="rect7791" />
        <rect
           width="90.867905"
           height="0.42620751"
           x="12.995816"
           y="-50.118465"
           transform="scale(1,-1)"
           style="fill:#80b3ff;fill-opacity:1;fill-rule:evenodd;stroke:none;stroke-width:2;stroke-miterlimit:4;stroke-dasharray:none;stroke-dashoffset:0;stroke-opacity:1"
           id="rect7793" />
        <rect
           width="90.867905"
           height="0.42620751"
           x="12.995816"
           y="-54.746643"
           transform="scale(1,-1)"
           style="fill:#80b3ff;fill-opacity:1;fill-rule:evenodd;stroke:none;stroke-width:2;stroke-miterlimit:4;stroke-dasharray:none;stroke-dashoffset:0;stroke-opacity:1"
           id="rect7795" />
        <rect
           width="90.867905"
           height="0.42620751"
           x="12.995816"
           y="-59.199554"
           transform="scale(1,-1)"
           style="fill:#80b3ff;fill-opacity:1;fill-rule:evenodd;stroke:none;stroke-width:2;stroke-miterlimit:4;stroke-dasharray:none;stroke-dashoffset:0;stroke-opacity:1"
           id="rect7797" />
      </g>
    </g>
    <g
       transform="matrix(0.9830109,0,0,0.9951024,116.67534,17.096607)"
       id="g7744">
      <rect
         width="91.958"
         height="49.849998"
         x="8.3760004"
         y="14.414724"
         transform="matrix(1.2729228,0,0,1.4499646,-5.4180019,94.853337)"
         style="fill:#000000;fill-opacity:1;fill-rule:evenodd;stroke:none;stroke-width:0.25;stroke-miterlimit:4;stroke-dasharray:none;stroke-dashoffset:0;stroke-opacity:1;filter:url(#filter9531)"
         id="rect9529" />
      <rect
         width="109.22"
         height="55.542"
         x="367.99844"
         y="359.93045"
         transform="matrix(1.0722295,0,0,1.3013708,-389.33506,-352.26402)"
         style="fill:#2e3436;fill-opacity:1;fill-rule:evenodd;stroke:none;stroke-width:0.25;stroke-miterlimit:4;stroke-dasharray:none;stroke-dashoffset:0;stroke-opacity:1;filter:url(#filter8029)"
         id="rect2490" />
      <rect
         width="116.37919"
         height="71.427658"
         x="5.6086173"
         y="115.99885"
         style="fill:#6193cf;fill-opacity:1;fill-rule:evenodd;stroke:none;stroke-width:0.68054122;stroke-miterlimit:4;stroke-dasharray:none;stroke-dashoffset:0;stroke-opacity:1"
         id="rect2492" />
      <g
         transform="matrix(1.6347849,0,0,1,-48.305035,61.340768)"
         id="g8494">
        <rect
           width="62.413342"
           height="69.755798"
           x="37.170719"
           y="55.308022"
           style="opacity:0.9;fill:#a4c0e4;fill-opacity:1;fill-rule:evenodd;stroke:none;stroke-width:2.34292865;stroke-miterlimit:4;stroke-dasharray:none;stroke-dashoffset:0;stroke-opacity:1"
           id="rect4777" />
      </g>
      <path
         d="M 58.849632,115.89269 C 55.418995,115.88785 51.600244,116.04443 51.600244,116.29894 C 51.600244,116.48361 51.524796,116.84089 51.445999,117.08019 C 51.33017,117.43205 51.378773,117.47595 51.754489,117.36144 C 52.06848,117.26573 52.21721,117.34286 52.21721,117.58019 C 52.21721,117.77332 52.378409,117.92184 52.5257,117.92394 C 52.733365,117.9269 52.688409,117.98436 52.47429,118.14269 C 52.144127,118.38683 52.488112,119.52713 52.937011,119.73644 C 53.091897,119.80867 52.959966,119.88185 52.628521,119.89269 C 52.130406,119.90899 52.00758,120.02203 52.062965,120.48644 C 52.121201,120.97441 52.02854,121.04894 51.394589,121.04894 C 50.993139,121.04894 50.622196,121.18977 50.571968,121.36144 C 50.521741,121.5331 50.591603,121.67394 50.726199,121.67394 C 50.860795,121.67394 50.901105,121.788 50.829034,121.92394 C 50.756948,122.05988 51.148182,122.61571 51.651655,123.17394 C 52.392387,123.99522 52.472081,124.23829 52.21721,124.42394 C 51.999956,124.58216 51.902907,124.53951 51.85731,124.29894 C 51.820961,124.10709 51.569866,123.79258 51.291754,123.58019 C 50.805067,123.20852 50.743982,123.20131 50.314888,124.04894 C 50.069706,124.53331 49.903578,125.0285 49.903578,125.14269 C 49.903578,125.42551 51.217674,125.71179 51.651655,125.51769 C 52.401293,125.18241 51.999158,125.64246 51.086099,126.14269 C 50.555881,126.43318 50.109233,126.84022 50.109233,127.04894 C 50.109233,127.26528 49.835909,127.50009 49.492267,127.58019 C 49.085488,127.67501 48.824176,127.94674 48.669632,128.42394 C 48.528382,128.86014 48.08256,129.31919 47.538521,129.64269 C 46.901934,130.02122 46.664489,130.3329 46.664489,130.73644 C 46.664489,131.04394 46.488828,131.43991 46.253179,131.61144 C 45.984187,131.80722 45.790444,132.18657 45.790444,132.64269 C 45.790444,133.96227 45.680499,134.15081 44.967823,133.73644 C 44.217088,133.29991 43.476811,132.26303 43.476811,131.64269 C 43.476811,131.39466 43.367935,131.11866 43.271156,131.04894 C 42.959289,130.8243 43.043258,127.60598 43.373977,127.01769 C 43.721053,126.4003 43.583564,125.73644 43.116911,125.73644 C 42.945225,125.73644 42.808421,125.84506 42.808421,125.95519 C 42.808421,126.06532 42.681776,126.09901 42.499945,126.01769 C 42.201971,125.88442 42.201971,125.80769 42.499945,125.42394 C 42.922926,124.87918 42.929238,124.49095 42.499945,124.29894 C 42.231637,124.17894 42.180113,123.96142 42.29429,123.17394 C 42.37387,122.62492 42.343264,122.17394 42.242865,122.17394 C 42.032821,122.17394 41.317424,120.33387 41.31741,119.79894 C 41.317424,119.60199 41.220517,119.37728 41.111754,119.29894 C 41.00302,119.2206 40.880608,118.83435 40.803278,118.42394 C 40.642222,117.56934 40.376636,117.52704 38.900956,118.04894 C 38.341286,118.24689 37.89062,118.33287 37.872666,118.23644 C 37.854726,118.14001 37.834108,117.90334 37.821256,117.73644 C 37.808403,117.56954 37.59283,117.28245 37.358521,117.08019 C 36.933488,116.71327 36.931037,116.71136 37.358521,116.33019 C 37.753915,115.97764 37.652747,115.93126 36.021754,115.92394 C 34.981794,115.91926 34.222253,116.02701 34.222267,116.17394 C 34.222267,116.31127 34.361508,116.42394 34.479332,116.42394 C 34.777677,116.42394 34.739219,117.2486 34.427922,117.61144 C 34.066127,118.03312 33.399632,117.99698 33.399632,117.54894 C 33.399632,117.10808 33.271106,117.0872 32.731255,117.42394 C 32.459328,117.59357 32.310697,117.60045 32.21711,117.42394 C 32.141149,117.28065 31.877315,117.21543 31.651555,117.29894 C 31.366319,117.40447 31.240244,117.35219 31.240244,117.08019 C 31.240244,116.86494 31.37199,116.67394 31.548734,116.67394 C 31.725464,116.67394 31.908634,116.50269 31.90862,116.29894 C 31.908634,115.97677 30.588026,115.92659 21.831455,115.92394 L 11.754275,115.92394 L 11.754275,151.51769 L 11.754275,187.08019 L 64.248122,187.08019 L 116.22782,187.08019 L 116.22782,128.98644 C 115.90352,128.45765 115.49762,128.62945 115.35378,129.39269 C 115.27832,129.7932 115.05861,130.1615 114.89106,130.23644 C 114.72085,130.31255 114.66618,130.55317 114.73681,130.76769 C 114.82221,131.02707 114.69706,131.16857 114.42832,131.17394 C 113.96077,131.18327 113.29724,131.71096 113.29721,132.08019 C 113.29721,132.451 112.83089,132.63456 112.1661,132.48644 C 111.81948,132.40921 111.60054,132.44353 111.60054,132.61144 C 111.60054,132.76478 111.32538,132.89269 111.03499,132.89269 C 110.36996,132.89269 110.05144,133.60939 110.16096,134.76769 C 110.20695,135.25419 110.16627,135.72106 110.05812,135.79894 C 109.95,135.87683 109.86189,136.05841 109.90388,136.20519 C 109.94587,136.35198 109.76398,136.7701 109.49257,137.11144 C 109.22117,137.45278 109.02985,137.863 109.02985,138.04894 C 109.02985,138.59717 108.65595,138.44023 108.5157,137.83019 C 108.16877,136.32124 108.36535,135.4791 109.54399,133.76769 C 110.23453,132.76503 110.61312,131.42394 110.21237,131.42394 C 110.09439,131.42394 109.90617,131.58986 109.74965,131.83019 C 109.57585,132.09705 109.44529,132.1458 109.44116,131.95519 C 109.43738,131.78353 109.31353,131.64269 109.18408,131.64269 C 108.90984,131.64269 107.74449,133.09484 107.74449,133.42394 C 107.74449,133.7269 107.34421,133.70442 107.17894,133.39269 C 107.09921,133.24238 106.49159,133.19079 105.63651,133.26769 C 104.34269,133.38404 104.11514,133.48789 103.63136,134.20519 C 103.33677,134.64192 102.87569,135.35087 102.55166,135.76769 C 101.8926,136.61549 101.79545,136.89269 102.24318,136.89269 C 102.41012,136.89269 102.6049,137.03353 102.65449,137.20519 C 102.72427,137.44689 102.83436,137.44612 103.11721,137.17394 C 103.39387,136.90772 103.49495,136.8925 103.68277,137.11144 C 103.87063,137.33037 103.87745,137.39269 103.68277,137.39269 C 103.54136,137.39269 103.4257,137.5617 103.4257,137.76769 C 103.4257,137.97368 103.56275,138.14269 103.68277,138.14269 C 104.00858,138.14269 103.70762,139.27978 102.86015,141.33019 C 102.13398,143.08705 101.97399,143.25098 101.26631,143.17394 C 101.08264,143.15394 100.65399,143.61348 100.28943,144.20519 C 99.657663,145.23055 99.643129,145.31743 99.929547,146.11144 C 100.28567,147.09864 100.32168,147.39269 100.03237,147.39269 C 99.914543,147.39269 99.775302,147.22916 99.775302,147.01769 C 99.775302,146.51974 98.964665,144.64269 98.747012,144.64269 C 98.655135,144.64269 98.470525,144.76682 98.335701,144.92394 C 98.151747,145.13835 98.142713,145.07578 98.232881,144.67394 C 98.393737,143.95707 98.032882,144.00198 97.461656,144.76769 C 97.205516,145.11101 96.916049,145.39269 96.79328,145.39269 C 96.643708,145.39269 96.632836,145.54328 96.79328,145.89269 C 96.980995,146.30149 97.167685,146.39872 97.615901,146.26769 L 98.181456,146.11144 L 97.667325,146.73644 C 97.303107,147.18847 97.233273,147.47725 97.358835,147.79894 C 97.455415,148.04626 97.541892,148.38036 97.56449,148.51769 C 97.587104,148.65503 97.64494,148.82402 97.667325,148.89269 C 97.888854,149.57346 97.813064,150.39971 97.51308,151.04894 C 97.135611,151.86587 96.082698,152.74653 95.764989,152.51769 C 95.66432,152.44518 95.371148,152.61259 95.148023,152.86144 C 94.834574,153.21105 94.665112,153.22554 94.376812,153.01769 C 94.077199,152.80171 93.921871,152.90678 93.451356,153.45519 C 93.129031,153.83085 92.991357,154.11144 93.142881,154.11144 C 93.294461,154.11144 93.323116,154.24671 93.245701,154.39269 C 93.168315,154.53868 93.271278,154.84826 93.451356,155.08019 C 93.631463,155.31211 93.845924,155.8074 93.965502,156.17394 C 94.153047,156.74888 94.146164,156.90216 93.708436,157.23644 C 93.228759,157.60276 93.17041,157.56317 92.525901,156.86144 C 92.150953,156.45318 91.806827,156.14269 91.75469,156.14269 C 91.702539,156.14269 91.497524,156.46544 91.343379,156.89269 L 91.086314,157.67394 L 90.932069,156.39269 C 90.794894,155.18741 90.726413,155.10109 90.263678,155.23644 C 89.849831,155.35751 89.755717,155.24082 89.646712,154.67394 C 89.574413,154.29789 89.305521,153.68418 89.029747,153.29894 C 88.577285,152.6669 88.45785,152.62299 87.950046,152.89269 C 87.640459,153.05707 86.959016,153.70044 86.407624,154.29894 C 85.856161,154.89747 85.326584,155.36144 85.225088,155.36144 C 85.123636,155.36144 85.019433,155.70839 85.019433,156.11144 C 85.019447,156.95642 84.697392,158.11841 84.453878,158.11144 C 84.188576,158.10382 82.860031,154.50153 82.860046,153.76769 C 82.860046,153.21431 82.804218,153.13618 82.448735,153.26769 C 82.168529,153.37133 82.038379,153.29531 82.037425,153.08019 C 82.036627,152.89928 81.707034,152.5142 81.317624,152.20519 C 80.757611,151.76085 80.291471,151.64269 79.158222,151.64269 C 77.995436,151.64269 77.718635,151.5565 77.718635,151.23644 C 77.718635,150.93274 77.571857,150.86609 77.101655,150.98644 C 76.621807,151.1093 76.426012,151.01401 76.021969,150.51769 C 74.761548,148.96933 74.342187,150.49099 75.559234,152.20519 C 75.895181,152.67839 76.78671,152.79275 76.998835,152.39269 C 77.076392,152.24644 77.358094,152.36328 77.718635,152.67394 L 78.335601,153.17394 L 77.924291,153.98644 C 77.386492,155.04886 73.956567,157.16309 73.656912,156.61144 C 73.552182,156.41859 73.453052,156.09834 73.451256,155.92394 C 73.449447,155.74954 73.209722,155.12985 72.885701,154.54894 C 72.561679,153.96801 72.2267,153.34867 72.1659,153.14269 C 71.996437,152.56839 70.779134,150.40162 70.623478,150.39269 C 70.079567,150.36154 70.430932,152.75689 71.034789,153.20519 C 71.182722,153.315 71.291855,153.60341 71.291869,153.86144 C 71.291869,154.11947 71.475011,154.4992 71.651755,154.70519 C 71.828499,154.91119 71.960245,155.24873 71.960245,155.45519 C 71.960245,155.66166 72.223751,156.06808 72.577211,156.36144 C 72.930685,156.6548 73.245601,157.05449 73.245601,157.23644 C 73.245601,157.7286 73.849401,157.91847 74.890857,157.73644 C 75.486621,157.63233 75.816313,157.66064 75.816313,157.83019 C 75.816299,158.32563 74.863328,159.98635 73.965402,161.11144 C 72.39139,163.08365 72.106254,163.74056 72.268735,164.86144 C 72.347902,165.40768 72.521155,165.86145 72.628635,165.86144 C 72.736101,165.86144 72.782866,166.23306 72.782866,166.70519 C 72.78288,167.43421 72.661422,167.68849 71.857424,168.36144 C 70.978677,169.09698 70.921382,169.23444 71.034789,170.04894 C 71.126666,170.70882 71.095162,170.96915 70.829134,171.14269 C 70.634593,171.26959 70.469233,171.59969 70.469233,171.86144 C 70.469233,172.28348 69.973811,173.23608 69.081057,174.70519 C 68.807149,175.15593 66.709987,175.69711 66.304689,175.42394 C 66.216303,175.36437 66.150444,174.99615 66.150444,174.61144 C 66.150444,174.22672 65.924855,173.51327 65.636313,173.01769 C 65.347757,172.52212 65.049185,171.6932 64.967923,171.17394 C 64.886661,170.65473 64.621702,169.94473 64.402367,169.58019 C 63.92108,168.78032 63.928276,168.06407 64.350957,167.11144 C 64.627472,166.48822 64.6168,166.26601 64.350957,165.23644 C 64.183389,164.58747 63.787411,163.73919 63.476911,163.36144 C 62.973253,162.74871 62.930407,162.58666 63.117011,161.79894 C 63.277868,161.11985 63.25581,160.79474 63.014191,160.39269 C 62.841379,160.10515 62.621033,159.93053 62.500045,160.01769 C 62.379043,160.10484 62.017803,160.04169 61.728834,159.86144 C 61.308618,159.59932 61.003064,159.59165 60.237823,159.83019 C 59.711552,159.99425 58.812428,160.11144 58.232666,160.11144 C 57.235994,160.11144 57.145641,160.03131 56.073279,158.73644 L 54.942168,157.39269 L 54.890743,155.45519 C 54.866263,153.82815 54.972105,153.3457 55.404888,152.45519 C 55.688543,151.87153 55.97385,151.39269 56.073279,151.39269 C 56.172722,151.39269 56.430472,150.97016 56.638834,150.45519 C 57.233515,148.98526 58.031998,147.89019 58.386911,148.04894 C 58.560065,148.12638 59.212981,148.02095 59.826512,147.79894 C 60.440059,147.57692 61.352861,147.36544 61.883079,147.33019 C 62.815232,147.26819 62.859931,147.29091 62.859946,147.98644 C 62.859931,148.38205 62.991677,148.78454 63.168421,148.89269 C 64.140742,149.48773 65.741371,150.39269 65.841968,150.39269 C 65.905961,150.39269 66.033888,150.09372 66.150444,149.73644 C 66.308736,149.25111 66.489555,149.1325 66.767424,149.26769 C 67.863625,149.80102 70.281788,149.91338 70.674889,149.45519 C 70.778749,149.33413 70.90055,148.75272 70.931969,148.14269 L 70.983379,147.01769 L 69.903678,147.01769 C 68.81178,147.0078 68.066858,146.59488 68.155601,146.04894 C 68.181292,145.89087 68.654471,145.49334 69.235302,145.17394 C 70.098219,144.69943 70.401907,144.65826 70.777724,144.89269 C 71.030714,145.05049 71.556885,145.15624 71.960245,145.11144 C 73.037295,144.99178 73.06139,144.16945 72.011655,143.29894 C 71.56599,142.92933 71.300219,142.64269 71.4461,142.64269 C 71.591966,142.64269 71.75459,142.40212 71.75459,142.11144 C 71.75459,141.68522 71.629185,141.61502 71.240444,141.73644 C 70.975328,141.81925 70.630247,141.89081 70.469233,141.89269 C 70.276701,141.89492 70.236804,142.07543 70.314988,142.42394 L 70.417823,142.95519 L 70.006513,142.42394 C 69.773528,142.13247 69.488335,141.89269 69.389533,141.89269 C 69.053115,141.89269 68.676586,142.65573 68.412666,143.83019 C 68.261542,144.50285 68.046725,144.99596 67.898535,144.95519 C 67.393167,144.81616 66.818835,145.16757 66.818835,145.64269 C 66.818835,146.4285 66.398604,146.21557 66.047624,145.23644 C 65.690274,144.23968 65.27295,143.64269 64.916513,143.64269 C 64.790281,143.64269 64.659433,143.4781 64.659433,143.26769 C 64.659447,142.88078 63.824572,142.34563 63.528322,142.54894 C 63.04447,142.881 63.596617,144.10462 64.608023,144.92394 C 64.911554,145.16981 65.05581,145.41733 64.916513,145.51769 C 64.790879,145.60819 64.182235,145.09491 63.579746,144.39269 C 62.595243,143.24521 62.456629,143.15544 62.140145,143.48644 C 61.924629,143.71186 61.523877,143.78662 61.163279,143.70519 C 60.716488,143.60429 60.597723,143.68031 60.597723,143.98644 C 60.597723,144.20845 60.411546,144.59904 60.186413,144.86144 C 59.961265,145.12384 59.612621,145.75152 59.415188,146.23644 C 59.009534,147.23281 58.435443,147.44428 57.56429,146.95519 C 57.040641,146.6612 56.963639,146.5284 56.998735,145.33019 L 57.050145,144.01769 L 57.821356,143.98644 C 59.35718,143.92099 59.312367,143.92791 59.312367,143.01769 C 59.312367,142.4525 59.17183,142.05126 58.901057,141.83019 C 58.505334,141.50714 58.501558,141.49087 59.055302,141.20519 C 59.372313,141.04163 60.173475,140.33194 60.803379,139.64269 C 61.43324,138.95344 62.07963,138.39269 62.242965,138.39269 C 62.406316,138.39269 62.54966,138.19551 62.551456,137.95519 C 62.553507,137.682 62.607311,137.62469 62.705701,137.79894 C 62.799345,137.96477 63.302319,138.04131 63.939646,137.98644 C 64.52877,137.93571 65.152376,137.89896 65.379233,137.89269 C 65.926223,137.87754 66.347678,137.18445 66.356099,136.29894 C 66.36187,135.69259 66.446481,135.63198 66.716,135.89269 C 67.069972,136.2351 67.163332,136.04461 67.281555,134.89269 C 67.330315,134.41744 67.490787,134.27729 67.898535,134.26769 C 68.193104,134.26076 68.590907,134.13983 68.823977,133.98644 C 69.229446,133.71959 69.228947,133.68966 68.669746,133.39269 C 68.225934,133.157 67.943391,133.14648 67.538635,133.36144 C 66.800482,133.75344 66.424395,133.51359 66.304689,132.58019 C 66.226391,131.96989 66.346296,131.56016 66.818835,130.86144 C 67.494164,129.86283 67.609196,129.37159 67.178735,128.95519 C 66.780191,128.5697 65.944789,129.28628 65.944789,130.01769 C 65.944789,130.32928 65.730599,130.84554 65.430644,131.17394 C 64.977042,131.67062 64.843928,131.97233 64.865088,133.01769 C 64.910457,135.25704 64.437705,136.87595 63.733977,136.89269 C 63.645619,136.8948 63.579746,136.67176 63.579746,136.39269 C 63.579746,135.67833 63.027,134.14269 62.757111,134.14269 C 62.633287,134.14269 62.500045,134.29514 62.500045,134.48644 C 62.500045,134.9045 61.874259,135.24454 61.626,134.95519 C 61.528993,134.84214 61.390635,134.26443 61.317524,133.64269 C 61.196279,132.61193 61.266869,132.4466 61.831655,131.89269 C 62.37152,131.36325 62.817142,130.6464 63.991057,128.51769 C 64.141269,128.2453 64.46995,127.54586 64.710857,126.95519 C 65.127255,125.9342 65.921022,125.27069 66.561755,125.39269 C 66.709032,125.42074 66.818835,125.26906 66.818835,125.04894 C 66.818835,124.82883 66.901507,124.71035 67.02449,124.79894 C 67.147487,124.88753 67.377536,124.82976 67.538635,124.67394 C 67.749947,124.46954 67.896569,124.4763 68.001356,124.67394 C 68.104005,124.86753 68.212625,124.84058 68.464091,124.61144 C 68.78351,124.32038 68.834692,124.33878 68.566911,124.73644 C 68.402835,124.98009 68.263594,125.22347 68.309846,125.26769 C 68.708104,125.64845 69.897978,126.11345 70.212168,126.01769 C 70.627397,125.89114 72.1659,127.34439 72.1659,127.86144 C 72.165914,128.47589 71.33956,128.69774 70.520644,128.29894 C 70.087475,128.08799 69.702867,127.95213 69.646612,128.01769 C 69.590372,128.08324 69.711516,128.5457 69.903678,129.01769 C 70.095839,129.48968 70.212168,129.96537 70.212168,130.11144 C 70.212168,130.39388 70.910324,130.89268 71.291869,130.89269 C 71.417431,130.89269 71.497524,130.73891 71.497524,130.54894 C 71.497524,130.35896 71.709306,130.15668 71.960245,130.08019 C 72.25403,129.99065 72.398828,129.81918 72.320145,129.58019 C 72.161939,129.09963 72.642499,128.59819 73.091356,128.79894 C 73.348792,128.91409 73.451256,128.8341 73.451256,128.42394 C 73.451256,128.0042 73.559221,127.89399 73.862567,127.98644 C 74.119746,128.06483 74.467065,127.85252 74.839433,127.39269 C 75.483002,126.59798 75.816313,126.48098 75.816313,127.04894 C 75.816299,127.53044 76.088697,127.53289 76.433279,127.04894 C 76.581768,126.84041 77.065392,126.4868 77.461556,126.26769 C 77.857705,126.04859 78.181356,125.76437 78.181356,125.64269 C 78.181356,125.52101 78.36712,125.42394 78.644091,125.42394 C 79.317882,125.42394 80.494989,125.89266 80.494989,126.17394 C 80.495003,126.29784 80.678145,126.42394 80.854889,126.42394 C 81.233869,126.42394 81.273167,125.75396 80.906313,125.61144 C 80.53869,125.46861 80.506374,123.98379 80.854889,123.20519 C 81.019735,122.83695 81.162667,122.35177 81.163379,122.11144 C 81.164291,121.81938 81.340209,121.67394 81.677524,121.67394 C 82.165836,121.67394 82.1911,121.72718 82.191655,123.67394 C 82.191969,124.79263 82.267474,125.80383 82.397311,125.95519 C 82.565947,126.15172 82.573927,126.44126 82.3459,126.95519 C 82.106033,127.49588 81.852972,127.67394 81.369034,127.67394 C 80.580383,127.67394 80.561232,128.08876 81.317624,128.42394 C 82.12564,128.78201 82.664664,128.49289 83.014291,127.51769 C 83.410113,126.41351 83.550807,126.44872 83.425601,127.61144 C 83.357349,128.24491 83.397175,128.71109 83.631257,129.04894 C 83.880457,129.40863 84.019541,129.43751 84.093977,129.20519 C 84.174256,128.95475 84.267986,128.94435 84.505302,129.17394 C 85.020687,129.67246 85.072055,129.27655 84.608123,128.26769 C 84.36542,127.74001 84.145402,127.02907 84.145402,126.70519 C 84.145402,126.33455 83.992867,126.06532 83.734091,125.98644 C 83.4204,125.89083 83.321641,125.56201 83.219946,124.58019 C 83.146607,123.87233 83.027229,122.87643 82.962866,122.36144 C 82.888914,121.76966 82.918395,121.42394 83.065701,121.42394 C 83.193885,121.42394 83.322766,121.66452 83.322766,121.95519 C 83.322781,122.36108 83.404413,122.46192 83.734091,122.36144 C 83.972206,122.28887 84.355902,122.40463 84.608123,122.64269 C 85.006509,123.01865 85.061596,123.14891 84.813778,123.61144 C 84.474083,124.24542 84.797506,125.42394 85.327923,125.42394 C 85.71085,125.42394 85.720297,125.30448 85.430758,124.67394 C 85.287185,124.36123 85.287171,124.15237 85.430758,124.04894 C 85.778917,123.79817 85.700363,123.03441 85.225088,122.33019 C 84.721872,121.58455 84.716344,120.3063 85.225088,120.26769 C 85.967915,120.21131 86.099134,120.1454 86.099134,119.79894 C 86.099134,119.59859 86.252852,119.06311 86.459034,118.58019 C 86.733697,117.9369 86.992102,117.68493 87.38449,117.67394 C 87.679045,117.66569 88.135325,117.50953 88.412767,117.33019 C 89.047173,116.92015 89.885596,117.09556 90.212268,117.70519 C 90.719104,118.65112 91.25599,118.05793 91.137724,116.67394 L 91.086314,116.04894 L 85.790658,115.98644 C 80.871888,115.92445 80.484031,115.9521 80.392168,116.36144 C 80.337694,116.60419 80.279074,116.87854 80.289333,116.98644 C 80.319584,117.305 79.714502,117.92394 79.363878,117.92394 C 79.185652,117.92394 78.973997,118.03661 78.901157,118.17394 C 78.828359,118.31127 78.638377,118.42394 78.438422,118.42394 C 78.236699,118.42394 77.935832,118.76867 77.770046,119.20519 C 77.605755,119.63784 77.307125,120.18445 77.101655,120.42394 C 76.617604,120.98812 76.357916,122.62494 76.638934,123.48644 C 76.909252,124.31514 76.828902,124.34075 76.124789,123.58019 C 75.663436,123.08183 75.592975,122.88843 75.764889,122.36144 C 75.877769,122.01538 76.094496,121.64484 76.227624,121.54894 C 76.360752,121.45304 76.447457,121.21699 76.381869,121.01769 C 76.316238,120.81839 76.401974,120.37903 76.587524,120.04894 C 76.773088,119.71885 76.858739,119.32885 76.793179,119.20519 C 76.600761,118.84237 78.429787,117.31284 78.952567,117.39269 C 79.379651,117.45792 80.083678,116.64484 80.083678,116.11144 C 80.083678,116.00466 76.569371,115.92394 72.268735,115.92394 C 66.630007,115.92394 64.453778,116.00308 64.453778,116.20519 C 64.453778,116.40926 64.361188,116.41403 64.145302,116.20519 C 63.942297,116.00883 61.517921,115.89645 58.849632,115.89269 z M 94.890958,115.92394 L 94.890958,117.08019 C 94.890958,118.05971 94.747057,118.37038 94.068322,119.20519 C 93.631663,119.74229 93.097213,120.17394 92.885801,120.17394 C 92.492686,120.17394 92.397503,120.56532 92.628735,121.26769 C 92.833023,121.88822 93.287907,121.73273 94.016912,120.79894 L 94.685302,119.95519 L 96.124889,120.54894 C 97.656054,121.22066 98.328463,121.32058 98.695602,120.89269 C 98.831964,120.73376 99.15543,120.6766 99.466812,120.76769 C 99.928251,120.90267 100.03237,121.06405 100.03237,121.79894 C 100.03237,122.73568 100.58939,123.99605 100.90641,123.76769 C 101.01134,123.6921 101.06066,123.40924 101.06066,123.14269 C 101.06066,122.65726 101.37643,122.48736 101.57479,122.86144 C 101.63287,122.97095 101.97348,123.05545 102.29459,123.04894 C 102.7342,123.04003 102.96344,122.8432 103.22005,122.23644 C 103.60139,121.33485 104.47954,121.11278 104.96812,121.79894 C 105.11925,122.01118 105.37205,122.12123 105.53368,122.04894 C 105.70997,121.9701 105.87818,122.18647 105.99641,122.54894 C 106.26944,123.38599 106.89555,123.68433 108.10439,123.61144 C 109.05007,123.55442 109.11719,123.59075 109.18408,124.14269 C 109.27457,124.88897 109.87512,125.6964 110.00671,125.23644 C 110.14903,124.73867 111.47887,124.86993 111.90903,125.42394 C 112.37496,126.02397 112.62884,125.83975 112.62884,124.98644 C 112.62885,124.50888 112.73441,124.40392 112.98874,124.51769 C 113.17515,124.60104 113.47728,124.67393 113.65711,124.67394 C 113.83699,124.67394 114.45862,125.23657 115.0453,125.92394 C 115.53133,126.49343 116.01862,126.92753 116.22782,127.01769 L 116.22782,126.20519 C 116.19082,126.16601 116.12071,126.11516 116.07358,126.04894 C 115.85251,125.73848 115.89857,125.68043 116.22782,125.67394 L 116.22782,115.92394 L 105.79076,115.92394 L 94.890958,115.92394 z M 21.934289,116.73644 C 22.140201,116.71599 22.24684,116.82996 22.191355,117.14269 C 22.152698,117.36049 21.97336,117.52449 21.780044,117.48644 C 21.554198,117.44199 21.413205,117.62111 21.368734,117.98644 C 21.324833,118.34703 21.098274,118.59371 20.803178,118.64269 C 20.430881,118.70449 20.353866,118.60368 20.443278,118.20519 C 20.602738,117.49446 21.481272,116.78143 21.934289,116.73644 z M 102.91156,116.89269 C 103.06051,116.90083 103.25825,117.10833 103.63136,117.48644 C 104.03764,117.89816 104.07838,118.0239 103.83701,118.11144 C 103.66461,118.17398 103.4545,118.33461 103.32288,118.45519 C 102.99296,118.75738 102.61743,118.19435 102.65449,117.42394 C 102.67166,117.06717 102.76255,116.88454 102.91156,116.89269 z M 28.720956,117.17394 C 28.760511,117.15495 28.846803,117.21633 29.080842,117.29894 C 29.375411,117.40292 29.698179,117.52629 29.749233,117.58019 C 29.800301,117.63408 29.713624,117.78565 29.594988,117.92394 C 29.45019,118.09271 29.255036,118.00414 28.978022,117.64269 C 28.746148,117.34014 28.670087,117.19835 28.720956,117.17394 z M 104.40257,117.17394 C 104.44891,117.17394 104.5404,117.34295 104.60822,117.54894 C 104.67609,117.75493 104.61956,117.92394 104.5054,117.92394 C 104.3913,117.92394 104.29975,117.75493 104.29975,117.54894 C 104.29975,117.34294 104.35629,117.17394 104.40257,117.17394 z M 105.53368,117.92394 C 105.63609,117.92394 105.78665,118.01593 105.99641,118.17394 C 106.27336,118.38253 106.30861,118.42065 105.99641,118.42394 C 105.79718,118.42605 105.55508,118.31127 105.48227,118.17394 C 105.39848,118.01593 105.43129,117.92394 105.53368,117.92394 z M 24.710643,118.01769 C 24.74125,118.02215 24.780163,118.14016 24.864888,118.36144 C 24.981088,118.66495 25.220314,118.92394 25.379033,118.92394 C 25.537781,118.92394 25.687509,119.14928 25.687509,119.42394 C 25.687509,119.77913 25.525185,119.92394 25.173378,119.92394 C 24.901337,119.92394 24.476646,120.09731 24.247922,120.29894 C 23.565938,120.90015 23.46648,120.72645 24.093677,120.04894 C 24.492876,119.61774 24.659233,119.15761 24.659233,118.61144 C 24.659233,118.20065 24.671301,118.01195 24.710643,118.01769 z M 22.808321,118.11144 L 23.373876,118.83019 L 23.990842,119.54894 L 23.528121,119.70519 C 22.442692,120.06041 22.34929,119.9703 22.654076,118.70519 L 22.808321,118.11144 z M 26.561555,118.23644 C 26.580762,118.23801 26.691049,118.32454 26.81862,118.48644 C 27.168204,118.93004 27.194721,118.94953 27.538421,118.54894 C 27.88212,118.14834 27.894659,118.14517 28.052566,118.64269 C 28.144742,118.93319 28.171744,119.3431 28.103976,119.54894 C 27.970891,119.9532 27.589831,120.06955 27.589845,119.70519 C 27.589831,119.58275 27.375085,119.41776 27.0757,119.33019 C 26.776315,119.24261 26.590494,119.03201 26.664389,118.89269 C 26.738242,118.75337 26.711482,118.5023 26.612965,118.33019 C 26.576017,118.26564 26.550027,118.23549 26.561555,118.23644 z M 30.417623,118.45519 C 30.524875,118.43646 30.660896,118.56709 30.983179,118.83019 C 31.331566,119.1146 31.752879,119.17687 32.371355,119.08019 C 33.338147,118.92905 34.016597,119.23207 34.016612,119.79894 C 34.016612,120.1641 33.814476,120.25077 33.142566,120.17394 C 32.9468,120.15155 32.704724,120.24879 32.628421,120.39269 C 32.454826,120.72008 31.513425,120.74522 31.343065,120.42394 C 31.27343,120.29261 31.095688,120.25688 30.931754,120.33019 C 30.575929,120.48934 30.163179,119.70995 30.211953,118.95519 C 30.232828,118.63219 30.310371,118.47391 30.417623,118.45519 z M 29.132267,119.48644 C 29.254922,119.47605 29.419341,119.60679 29.492167,119.86144 C 29.538804,120.02452 29.453438,120.17394 29.286512,120.17394 C 29.119571,120.17394 28.978022,120.00875 28.978022,119.79894 C 28.978022,119.61009 29.036856,119.49452 29.132267,119.48644 z M 29.954888,121.42394 C 30.050156,121.42949 30.150084,121.46702 30.263378,121.51769 C 30.516425,121.63087 30.546605,121.77494 30.366198,122.23644 C 30.240708,122.55746 29.976518,122.94601 29.749233,123.11144 C 29.370324,123.38724 29.337922,123.35943 29.337922,122.54894 C 29.337922,121.80504 29.542053,121.39991 29.954888,121.42394 z M 20.494688,121.58019 C 20.552097,121.58269 20.625793,121.60383 20.700344,121.61144 C 22.221492,121.76659 22.676518,122.06892 22.08852,122.54894 C 21.860451,122.73513 21.56849,123.22523 21.420144,123.64269 C 21.21637,124.2161 20.971658,124.42394 20.546099,124.42394 C 19.998767,124.42394 19.995405,124.38137 20.031953,122.98644 C 20.06437,121.74865 20.092853,121.56265 20.494688,121.58019 z M 32.371355,121.67394 C 32.780685,121.67394 32.793424,121.70509 32.474176,121.98644 C 31.93679,122.46003 31.692919,123.40813 31.960045,124.08019 C 32.270501,124.86127 32.796729,124.86167 32.628421,124.08019 C 32.550963,123.72038 32.639977,123.33767 32.834076,123.11144 C 33.00864,122.90799 33.188277,122.47396 33.245401,122.14269 C 33.302511,121.81142 33.313767,122.26452 33.296811,123.14269 C 33.275965,124.22259 33.372772,124.75609 33.553877,124.83019 C 33.717953,124.8973 33.808933,124.71842 33.810956,124.36144 C 33.813478,123.91494 33.867468,123.86796 34.016612,124.14269 C 34.174704,124.43391 34.266025,124.46127 34.530743,124.20519 C 34.954293,123.79549 35.861339,123.94171 35.867509,124.42394 C 35.870288,124.63919 36.014729,124.74736 36.227409,124.70519 C 36.434589,124.66412 36.58731,124.78696 36.58731,124.98644 C 36.58731,125.3187 37.349643,125.75728 37.769845,125.67394 C 37.97238,125.63377 37.842729,126.75193 37.564176,127.51769 C 37.415958,127.92513 37.455713,127.95726 37.872666,127.83019 C 38.218944,127.72464 38.530911,127.86767 38.900956,128.29894 C 39.187888,128.63337 39.511809,128.92394 39.672167,128.92394 C 40.137111,128.92394 39.844209,129.75931 39.260843,130.08019 C 38.97233,130.23889 38.710006,130.26709 38.695287,130.14269 C 38.637707,129.65625 38.602312,129.50644 38.438221,129.20519 C 38.178192,128.72789 37.404074,128.81261 37.564176,129.29894 C 37.63572,129.51616 37.667011,129.87769 37.667011,130.08019 C 37.667011,130.28269 37.959129,130.77337 38.335401,131.17394 C 39.060987,131.94636 39.032061,132.49972 38.283976,131.95519 C 37.628211,131.47787 37.29289,131.97113 37.924076,132.48644 C 38.465209,132.92819 38.289918,133.00591 37.512766,132.64269 C 37.151341,132.47377 37.057981,132.27237 37.152865,131.92394 C 37.256042,131.54507 37.131905,131.42519 36.638734,131.29894 C 36.089622,131.15837 35.985248,130.98763 35.867509,129.98644 C 35.79397,129.36117 35.794098,128.42769 35.867509,127.89269 C 35.970472,127.1422 35.95021,126.92394 35.713278,126.92394 C 35.544343,126.92394 35.069653,126.6297 34.684988,126.29894 C 34.173763,125.85933 33.758549,125.72377 33.039731,125.73644 C 32.258218,125.75021 31.972171,125.63544 31.651555,125.17394 C 31.429656,124.85457 31.275012,124.41191 31.343065,124.20519 C 31.411132,123.99848 31.37464,123.73952 31.240244,123.64269 C 30.681756,123.24039 31.58135,121.67394 32.371355,121.67394 z M 27.641255,121.76769 C 27.693749,121.75137 27.754349,121.77212 27.846911,121.76769 C 27.899803,121.76516 27.985325,121.76769 28.052566,121.76769 C 28.651849,121.76769 28.646662,121.77113 28.309631,122.20519 C 27.977887,122.63246 27.993504,122.70057 28.361056,123.17394 C 28.702575,123.61379 28.730147,123.74403 28.463876,124.04894 C 28.199544,124.35161 28.045598,124.32746 27.538421,123.89269 C 26.8431,123.29665 26.788327,122.92394 27.384176,122.92394 C 27.8676,122.92394 27.929113,122.8321 27.641255,122.20519 C 27.528062,121.95867 27.483762,121.81666 27.641255,121.76769 z M 34.427922,121.92394 C 34.659439,121.92394 34.970181,122.14928 35.096298,122.42394 C 35.302196,122.87234 35.268825,122.92394 34.684988,122.92394 C 34.177596,122.92394 34.016597,122.81363 34.016612,122.42394 C 34.016612,122.094 34.149825,121.92394 34.427922,121.92394 z M 23.065401,122.64269 L 23.168221,123.26769 C 23.243897,123.61907 23.499951,123.92393 23.682366,123.92394 C 23.923715,123.92394 23.935257,123.7702 23.836611,123.36144 C 23.799151,123.20623 23.82943,123.10176 23.836611,123.04894 C 23.847498,123.05924 23.873545,123.05751 23.888022,123.08019 C 23.984102,123.2307 24.335211,123.42526 24.659233,123.51769 C 25.11396,123.6474 25.224788,123.57182 25.224788,123.26769 C 25.224788,123.05098 25.364029,122.96407 25.481854,123.04894 C 25.599693,123.13381 25.687509,123.40778 25.687509,123.67394 C 25.687509,123.9401 25.968897,124.59606 26.355899,125.11144 C 27.225941,126.27008 27.266579,127.31775 26.407309,126.86144 C 25.988404,126.63897 25.718386,126.65493 25.121953,126.98644 C 24.28135,127.45365 23.744136,127.51087 23.425287,127.14269 C 23.307462,127.00663 23.04397,126.71372 22.808321,126.51769 C 22.409891,126.18624 22.424354,126.18132 23.271056,126.17394 C 23.934516,126.16815 24.196512,126.07186 24.196512,125.79894 C 24.196497,125.42308 23.999648,125.34258 22.808321,125.36144 C 22.454847,125.36703 22.293648,125.33747 22.499845,125.26769 C 23.001565,125.0979 22.9769,124.74126 22.448421,124.58019 C 21.876111,124.40575 21.929516,123.88596 22.551255,123.20519 L 23.065401,122.64269 z M 29.389332,124.76769 C 29.468029,124.76525 29.575581,124.84397 29.697822,124.98644 C 29.857567,125.17264 30.004802,125.57254 30.057723,125.89269 C 30.110615,126.21283 30.288627,126.66036 30.469033,126.89269 C 30.649411,127.12502 30.828934,127.45059 30.828934,127.61144 C 30.828934,127.77229 30.974415,127.92394 31.137409,127.92394 C 31.300403,127.92394 31.435697,128.14928 31.49731,128.42394 C 31.558951,128.6986 31.729938,128.92394 31.85721,128.92394 C 32.187914,128.92394 32.737383,127.24935 32.57701,126.73644 C 32.450622,126.33214 32.49961,126.31159 32.885501,126.70519 C 33.171976,126.9974 33.296811,127.45368 33.296811,128.20519 C 33.296811,129.23968 33.244717,129.2864 32.57701,129.36144 C 32.135378,129.41106 31.908634,129.56456 31.90862,129.79894 C 31.908634,130.07098 31.660802,130.16534 31.085999,130.11144 C 30.110601,130.01996 29.905971,130.52129 30.828934,130.73644 C 31.401514,130.86991 31.465734,130.98225 31.240244,131.29894 C 31.093522,131.50499 30.836984,131.64269 30.674688,131.64269 C 30.307307,131.64269 30.32311,131.94864 30.674688,132.36144 C 30.889392,132.61355 30.872436,132.65107 30.571854,132.51769 C 30.311126,132.402 30.160543,132.48863 30.160543,132.76769 C 30.160543,132.98837 30.11261,133.14269 30.006298,133.14269 C 29.8559,133.14269 29.337922,134.42555 29.337922,134.79894 C 29.337922,134.84003 29.56478,135.1564 29.852067,135.51769 C 30.139341,135.87899 30.327598,136.35383 30.263378,136.54894 C 30.18015,136.80172 30.311981,136.89269 30.726099,136.89269 C 31.045717,136.89269 31.558552,137.17436 31.90862,137.51769 C 32.258689,137.86101 32.76172,138.14269 32.988321,138.14269 C 33.246811,138.14269 33.379484,138.32939 33.399632,138.64269 C 33.4173,138.91735 33.439272,139.28353 33.451056,139.45519 C 33.474952,139.8034 34.36403,140.39269 34.839233,140.39269 C 35.064366,140.39269 35.101043,140.07304 35.096298,139.20519 C 35.092765,138.55288 35.098934,137.62334 35.096298,137.14269 C 35.093648,136.66204 35.111744,135.95484 35.096298,135.54894 C 35.080852,135.14304 35.168455,134.75706 35.301954,134.70519 C 35.608819,134.58597 35.606468,133.89269 35.301954,133.89269 C 35.177175,133.89269 35.166489,134.04664 35.250543,134.20519 C 35.338089,134.37028 35.272914,134.42036 35.147723,134.33019 C 35.02749,134.24358 34.99221,133.90137 35.044888,133.58019 C 35.125936,133.08612 35.241752,133.02581 35.816099,133.11144 C 36.587823,133.2265 37.872666,134.67061 37.872666,135.42394 C 37.872666,135.99641 38.923954,136.10369 39.106612,135.54894 C 39.334595,134.85651 39.76205,134.92896 39.672167,135.64269 C 39.578352,136.38771 40.466917,137.89269 41.008934,137.89269 C 41.175191,137.89269 41.317424,138.04646 41.31741,138.23644 C 41.317424,138.42641 41.493085,138.66462 41.728734,138.73644 C 42.200503,138.88023 42.331836,139.64269 41.882965,139.64269 C 41.728449,139.64269 41.422567,139.89228 41.163179,140.17394 C 40.903791,140.4556 40.598963,140.624 40.494788,140.54894 C 40.154666,140.30394 39.020904,140.67705 38.386811,141.26769 C 37.706765,141.90109 37.776585,142.33746 38.489632,141.89269 C 38.827788,141.68175 38.952367,141.69595 38.952367,141.92394 C 38.952367,142.41519 39.603929,143.13193 39.929233,142.98644 C 40.098069,142.91092 40.241499,142.984 40.237723,143.17394 C 40.229857,143.56947 39.158022,144.53102 39.158022,144.14269 C 39.158022,143.99895 39.245853,143.89269 39.363677,143.89269 C 39.481502,143.89268 39.620757,143.70169 39.620743,143.48644 C 39.620743,142.63942 37.831372,143.96292 37.461355,145.08019 C 37.353291,145.40642 37.096254,145.64269 36.844389,145.64269 C 36.605791,145.64269 36.381654,145.79646 36.381654,145.98644 C 36.381654,146.17642 36.165156,146.38014 35.918934,146.45519 C 35.476575,146.59002 35.516073,146.79689 35.918934,148.04894 C 35.969104,148.20491 35.531134,148.80533 34.993478,149.39269 C 34.455807,149.98004 34.016597,150.57706 34.016612,150.70519 C 34.016612,150.8333 34.24156,151.25349 34.479332,151.64269 C 34.746201,152.0795 34.819612,152.38947 34.684988,152.48644 C 34.56504,152.57286 34.48308,152.50997 34.479332,152.33019 C 34.456577,151.2384 32.297175,150.22604 31.754389,151.04894 C 31.592592,151.29422 31.322674,151.37426 31.034589,151.26769 C 30.78774,151.17637 30.308946,151.24207 29.954888,151.42394 C 28.70333,152.06681 28.629136,154.86501 29.852067,155.79894 C 30.479207,156.2779 31.33195,156.0575 31.651555,155.36144 C 31.776917,155.08839 32.044512,154.89269 32.21711,154.89269 C 32.574773,154.89269 32.640718,155.25536 32.319945,155.48644 C 32.20212,155.57131 32.11429,155.93247 32.11429,156.26769 C 32.11429,156.81499 32.198017,156.86145 32.988321,156.86144 C 33.831803,156.86144 33.843658,156.88827 33.708122,157.51769 C 33.602979,158.00596 33.713493,158.32786 34.068022,158.76769 C 34.428449,159.21483 34.465995,159.36144 34.222267,159.36144 C 34.044896,159.36144 33.760102,159.10479 33.605287,158.76769 C 33.317914,158.14179 32.228538,157.36144 31.600144,157.36144 C 31.40804,157.36144 31.154009,157.19297 31.085999,156.98644 C 30.999337,156.72316 30.702303,156.6455 30.057723,156.67394 C 29.096687,156.71631 27.076783,155.72142 27.02429,155.17394 C 27.00957,155.02034 26.987584,154.75466 26.972865,154.61144 C 26.928936,154.18425 24.975289,151.89269 24.659233,151.89269 C 24.294815,151.89269 24.309178,152.17895 24.659233,152.61144 C 24.874891,152.87788 24.854828,152.91778 24.607822,152.83019 C 24.439143,152.77038 23.999591,152.06271 23.630956,151.26769 C 23.262307,150.47267 22.709917,149.64522 22.39701,149.42394 C 22.084103,149.20265 21.719729,148.68502 21.574389,148.26769 C 21.429021,147.85034 21.126259,147.36003 20.905999,147.17394 C 20.598136,146.91382 20.506501,146.56557 20.546099,145.67394 C 20.574425,145.03605 20.710047,144.25931 20.803178,143.95519 C 20.899558,143.6405 20.868994,143.35216 20.751754,143.26769 C 20.638432,143.18606 20.546099,142.86212 20.546099,142.54894 C 20.546099,142.18388 20.323914,141.85629 19.980543,141.67394 C 19.48874,141.41277 19.375831,141.02029 19.466398,140.20519 C 19.485406,140.03411 19.287146,139.65174 19.055087,139.36144 C 18.823057,139.07114 18.683731,138.67737 18.746611,138.48644 C 18.813054,138.2846 18.728814,138.14269 18.540942,138.14269 C 18.363229,138.14269 18.01306,137.74834 17.769731,137.26769 C 17.307309,136.35418 17.000344,136.17865 16.792865,136.70519 C 16.725211,136.87685 16.727092,136.76418 16.792865,136.45519 C 16.957227,135.683 16.631481,135.75213 15.867409,136.64269 C 15.477116,137.0976 15.090655,137.32594 14.890543,137.23644 C 14.490703,137.05761 13.823039,138.21871 13.450942,139.76769 C 13.153495,141.00602 12.307548,141.75113 12.26842,140.79894 C 12.25638,140.50567 12.263105,140.40853 12.319831,140.58019 C 12.50682,141.14606 12.790175,140.90564 13.039631,139.95519 C 13.174811,139.44021 13.378372,138.7834 13.502366,138.48644 C 13.626389,138.18948 13.70654,137.18191 13.656611,136.26769 C 13.574794,134.77025 13.474267,134.55483 12.885386,134.01769 C 12.325316,133.50681 12.230361,133.21962 12.114175,131.92394 C 12.00889,130.74978 12.064062,130.29177 12.319831,129.95519 C 12.50102,129.71676 12.78325,129.27808 12.988221,128.95519 C 13.2897,128.48027 13.632189,128.33728 14.633477,128.26769 C 15.698203,128.19369 15.965,128.06239 16.690044,127.29894 C 17.153606,126.81082 17.67422,126.4104 17.821155,126.39269 C 19.055301,126.24396 19.358476,126.31142 19.620643,126.73644 C 19.848697,127.10612 19.99378,127.12856 20.237623,126.89269 C 20.478473,126.6597 20.732147,126.68735 21.420144,127.04894 C 21.902372,127.30239 22.471005,127.50703 22.7055,127.48644 C 23.112892,127.45067 23.113519,127.46467 22.756911,127.92394 C 22.41361,128.36608 22.432048,128.40365 22.756911,128.54894 C 22.951124,128.6358 23.42342,128.67332 23.785187,128.61144 C 24.300586,128.52327 24.504788,128.62257 24.762067,129.08019 C 25.249624,129.94748 25.474473,129.78644 25.379033,128.67394 C 25.293796,127.68063 25.749421,127.05003 25.995999,127.79894 C 26.060946,127.99626 26.277744,128.14269 26.510144,128.14269 C 26.742545,128.14269 27.012648,128.24252 27.0757,128.36144 C 27.219144,128.63195 28.258221,128.44262 28.258221,128.14269 C 28.258221,127.75674 29.104325,127.90812 29.132267,128.29894 C 29.182523,129.00184 29.233762,129.11762 29.389332,129.29894 C 29.474926,129.3987 29.574042,129.27767 29.646398,129.01769 C 29.718797,128.7577 29.886764,128.31031 30.006298,128.01769 C 30.284025,127.33781 30.055714,126.48839 29.543577,126.29894 C 29.023775,126.10665 28.813062,125.43473 29.132267,124.98644 C 29.238764,124.83687 29.310621,124.77013 29.389332,124.76769 z M 28.463876,126.67394 C 28.665941,126.64827 28.892457,126.78905 28.978022,127.04894 C 29.045847,127.25493 29.011293,127.40862 28.926612,127.39269 C 28.321544,127.27885 28.050699,127.09011 28.155401,126.89269 C 28.226646,126.75832 28.342632,126.68934 28.463876,126.67394 z M 31.343065,126.95519 C 31.357684,126.94892 31.376692,126.9657 31.394489,126.98644 C 31.465677,127.06941 31.456372,127.27494 31.394489,127.45519 C 31.326094,127.65437 31.250532,127.58981 31.240244,127.29894 C 31.233276,127.10153 31.299235,126.974 31.343065,126.95519 z M 14.736298,127.67394 C 14.854123,127.67394 14.941953,127.70713 14.941953,127.76769 C 14.941953,127.82824 14.854123,127.96406 14.736298,128.04894 C 14.618473,128.13381 14.530643,128.06937 14.530643,127.92394 C 14.530643,127.7785 14.618473,127.67394 14.736298,127.67394 z M 54.530857,129.26769 C 55.238432,129.22294 54.972048,130.41089 53.965302,131.01769 C 53.621161,131.22511 53.280796,131.39479 53.245501,131.39269 C 53.012516,131.37881 52.784433,130.96843 52.731356,130.51769 C 52.674374,130.03391 52.789178,129.81855 53.399746,129.64269 C 53.517571,129.60875 53.886177,129.48764 54.170957,129.36144 C 54.311979,129.29895 54.429775,129.27408 54.530857,129.26769 z M 32.474176,130.29894 C 32.569259,130.27746 32.76068,130.45153 32.936911,130.70519 C 33.228031,131.12419 33.275666,131.36597 33.091156,131.83019 C 32.963485,132.15136 32.807003,132.39162 32.731255,132.39269 C 32.401606,132.39735 32.186731,130.66524 32.474176,130.33019 C 32.483381,130.31948 32.460596,130.30201 32.474176,130.29894 z M 35.456199,130.39269 C 35.740864,130.39269 35.726045,130.46094 35.507623,130.76769 C 35.360944,130.97369 35.243604,131.14269 35.199133,131.14269 C 35.154634,131.14269 35.096298,130.97369 35.096298,130.76769 C 35.096298,130.5617 35.265049,130.39269 35.456199,130.39269 z M 12.885386,134.70519 C 12.923117,134.68857 12.952157,134.72823 13.039631,134.83019 C 13.170722,134.98296 13.239045,135.23476 13.193876,135.39269 C 13.087408,135.76495 12.833976,135.42029 12.833976,134.92394 C 12.833976,134.78342 12.847683,134.72182 12.885386,134.70519 z M 58.181256,135.29894 C 58.19968,135.30717 58.227522,135.34986 58.232666,135.45519 C 58.244407,135.69551 58.336855,135.89269 58.438322,135.89269 C 58.539817,135.89269 58.546058,136.17437 58.489746,136.51769 C 58.433434,136.86102 58.479544,137.14269 58.592567,137.14269 C 58.705575,137.14269 58.987462,137.53704 59.209532,138.01769 C 59.431631,138.49834 59.687756,138.89269 59.775088,138.89269 C 59.862434,138.89269 59.887413,139.05145 59.826512,139.23644 C 59.765598,139.42142 59.410742,139.68465 59.003877,139.83019 C 58.481439,140.01707 58.287439,140.01773 58.386911,139.83019 C 58.611717,139.40619 58.694603,137.39269 58.489746,137.39269 C 58.161478,137.39269 57.865998,136.28729 58.027011,135.64269 C 58.089649,135.39192 58.150535,135.28523 58.181256,135.29894 z M 62.29439,136.14269 C 62.35596,136.14552 62.449718,136.21161 62.551456,136.33019 C 62.705202,136.50941 62.738259,136.73569 62.602866,137.01769 C 62.420664,137.39719 62.358496,137.40752 62.242965,136.89269 C 62.137309,136.42176 62.158925,136.13646 62.29439,136.14269 z M 57.358635,137.64269 C 57.622682,137.64269 57.404103,138.96987 57.101555,139.20519 C 56.715522,139.50543 56.620895,139.42257 56.638834,138.83019 C 56.65666,138.24152 57.018199,137.64269 57.358635,137.64269 z M 104.40257,137.67394 C 104.45569,137.67124 104.52787,137.74117 104.60822,137.89269 C 104.67602,138.02053 104.62518,138.18143 104.5054,138.26769 C 104.38568,138.35394 104.29975,138.26304 104.29975,138.04894 C 104.29975,137.80223 104.33433,137.6774 104.40257,137.67394 z M 14.633477,137.95519 C 14.648097,137.94892 14.667091,137.93445 14.684888,137.95519 C 14.756075,138.03816 14.746771,138.27494 14.684888,138.45519 C 14.616507,138.65437 14.54093,138.58982 14.530643,138.29894 C 14.523675,138.10153 14.589633,137.974 14.633477,137.95519 z M 104.71106,139.29894 C 104.83589,139.26824 104.91671,139.38911 104.91671,139.64269 C 104.91671,139.75722 104.82303,139.91336 104.65965,139.98644 C 104.45164,140.07947 104.3789,139.97727 104.45399,139.64269 C 104.49815,139.44581 104.61397,139.32281 104.71106,139.29894 z M 41.6259,141.08019 C 41.721496,141.06779 41.880286,141.12339 42.088635,141.23644 C 42.374027,141.39129 42.648277,141.65852 42.7056,141.83019 C 42.776745,142.04324 42.544445,142.14269 42.03721,142.14269 C 41.294226,142.14269 41.195082,142.01408 41.420244,141.33019 C 41.468406,141.18387 41.530318,141.09258 41.6259,141.08019 z M 75.662068,141.58019 C 75.235996,141.57642 74.736612,141.70104 74.736612,141.89269 C 74.736598,141.99841 74.520114,142.16139 74.273877,142.23644 C 73.754802,142.39465 73.874208,143.03355 74.582367,144.20519 C 74.894819,144.72214 74.940073,145.14247 74.839433,145.76769 C 74.733563,146.42544 74.799251,146.65979 75.096513,146.86144 C 75.306542,147.00391 75.785792,147.13852 76.124789,147.14269 C 76.737053,147.15024 76.691057,147.11743 76.587524,145.86144 C 76.525,145.10317 76.30766,144.31179 76.021969,143.86144 L 75.559234,143.11144 L 76.021969,142.95519 C 76.494379,142.8112 76.594677,142.16426 76.227624,141.73644 C 76.137029,141.63084 75.917709,141.58245 75.662068,141.58019 z M 104.45399,142.58019 C 104.53172,142.58597 104.64761,142.62161 104.76247,142.70519 C 105.04176,142.90852 105.05484,143.06478 104.8653,143.20519 C 104.7227,143.31081 104.45552,143.39059 104.24832,143.39269 C 103.93185,143.3959 103.88078,143.32208 104.09409,142.92394 C 104.22132,142.68653 104.32435,142.57055 104.45399,142.58019 z M 103.93985,144.42394 C 103.95273,144.4172 103.97644,144.40666 103.99126,144.42394 C 104.05056,144.49305 104.01544,145.09388 103.93985,145.73644 C 103.8231,146.72949 103.7471,146.91447 103.27146,147.04894 C 102.96372,147.13596 102.52701,147.36345 102.29459,147.54894 C 102.06219,147.73445 101.65943,147.8663 101.42054,147.86144 C 101.02965,147.85349 101.0438,147.82706 101.52338,147.51769 C 101.81647,147.32861 102.10109,147.23361 102.19177,147.29894 C 102.28245,147.36426 102.42956,147.23239 102.50025,147.01769 C 102.57091,146.80299 102.75046,146.64269 102.91156,146.64269 C 103.23968,146.64268 103.88842,145.39567 103.88844,144.73644 C 103.88842,144.55966 103.90118,144.44416 103.93985,144.42394 z M 66.870245,146.48644 C 66.947061,146.47138 67.02449,146.50236 67.02449,146.61144 C 67.02449,146.75687 66.936659,146.89269 66.818835,146.89269 C 66.70101,146.89269 66.613165,146.82825 66.613179,146.76769 C 66.613165,146.70713 66.70101,146.60256 66.818835,146.51769 C 66.848287,146.49647 66.844639,146.49145 66.870245,146.48644 z M 24.813478,153.14269 C 24.824535,153.12979 24.900653,153.17489 25.070543,153.33019 C 25.27674,153.51865 25.481854,153.7471 25.481854,153.79894 C 25.481854,154.00445 25.298997,153.87111 25.019133,153.45519 C 24.885905,153.25718 24.80242,153.15557 24.813478,153.14269 z M 97.975801,154.76769 C 98.0037,154.75791 97.99991,154.805 98.027211,154.95519 C 98.073577,155.21011 98.03861,155.54078 97.924391,155.67394 C 97.790265,155.8303 97.741847,155.66082 97.821556,155.20519 C 97.872995,154.91123 97.939936,154.78022 97.975801,154.76769 z M 37.461355,155.11144 C 37.57918,155.11144 37.667011,155.17587 37.667011,155.23644 C 37.667011,155.29699 37.57918,155.40157 37.461355,155.48644 C 37.343531,155.57131 37.2557,155.53812 37.2557,155.39269 C 37.2557,155.24726 37.343531,155.11144 37.461355,155.11144 z M 98.387112,156.42394 C 98.401731,156.41767 98.420739,156.43444 98.438536,156.45519 C 98.509724,156.53817 98.500405,156.7437 98.438536,156.92394 C 98.370155,157.12313 98.345975,157.05855 98.335701,156.76769 C 98.328705,156.57028 98.343282,156.44275 98.387112,156.42394 z M 99.158322,158.11144 C 99.272442,158.11144 99.363992,158.28044 99.363992,158.48644 C 99.363992,158.69242 99.307424,158.86144 99.261157,158.86144 C 99.214834,158.86144 99.123298,158.69242 99.055502,158.48644 C 98.987663,158.28044 99.044202,158.11144 99.158322,158.11144 z M 37.512766,158.23644 C 37.64766,158.20973 37.643771,158.3192 37.564176,158.61144 C 37.406725,159.1897 37.993454,159.33787 38.181156,158.76769 C 38.260622,158.52631 38.627946,158.46826 39.415088,158.51769 C 40.321835,158.57461 40.610761,158.70614 41.163179,159.33019 C 41.536088,159.75144 42.193607,160.17699 42.602766,160.26769 C 44.087237,160.59671 44.787531,161.45053 44.299432,162.36144 C 43.974214,162.96841 44.162343,163.29245 44.607922,162.86144 C 44.8104,162.66558 44.967823,162.66603 44.967823,162.83019 C 44.967823,162.97581 45.121526,163.0863 45.327723,163.08019 C 45.533905,163.07408 46.002525,163.18488 46.355999,163.33019 C 46.709473,163.47549 47.57155,163.78883 48.258321,164.01769 C 49.439575,164.41133 49.462957,164.45847 49.338022,165.08019 C 49.265381,165.44166 49.003556,165.97292 48.721056,166.26769 C 48.431019,166.57033 48.131164,167.22429 48.052666,167.76769 C 47.761546,169.78241 47.521265,170.36927 46.76731,170.73644 C 45.813698,171.20085 45.24468,171.82873 45.070643,172.67394 C 44.992887,173.05159 44.831574,173.36144 44.659333,173.36144 C 44.487091,173.36144 44.273599,173.67128 44.196612,174.04894 C 43.973388,175.14402 43.440491,175.67702 42.757011,175.51769 C 42.126679,175.37075 42.049806,175.57382 42.39711,176.33019 C 42.630423,176.83829 42.181524,177.41689 41.368834,177.70519 C 41.10805,177.79771 40.892049,178.11778 40.854689,178.42394 C 40.817755,178.72644 40.620122,178.99919 40.443378,179.01769 C 40.266634,179.03617 40.032025,179.06436 39.929233,179.08019 C 39.826427,179.09604 39.891616,179.25797 40.032068,179.45519 C 40.309823,179.84532 40.08449,180.53111 39.415088,181.42394 C 39.097877,181.84701 39.077701,181.91765 39.415088,182.20519 C 39.755225,182.49507 39.752717,182.5844 39.260843,183.36144 C 38.969351,183.82192 38.750459,184.36654 38.746711,184.58019 C 38.742964,184.79384 38.594746,185.15237 38.438221,185.39269 C 38.05709,185.97789 37.667011,185.94617 37.667011,185.33019 C 37.667011,185.05553 37.601138,184.83016 37.512766,184.83019 C 37.424393,184.83023 37.385323,184.2387 37.409945,183.51769 C 37.434553,182.7967 37.463906,180.99708 37.512766,179.48644 C 37.561639,177.97582 37.739951,176.40428 37.872666,176.01769 C 38.005381,175.63109 38.078321,174.8796 38.078321,174.33019 C 38.078321,173.7808 38.178306,173.12399 38.283976,172.89269 C 38.389675,172.66141 38.532721,171.85828 38.592466,171.11144 C 38.693178,169.85258 38.665207,169.71915 38.078321,169.08019 C 37.730133,168.70111 37.229069,168.32169 36.99862,168.23644 C 36.7682,168.15121 36.372193,167.53545 36.124589,166.89269 C 35.876956,166.24992 35.488358,165.50721 35.250543,165.20519 C 34.956259,164.83145 34.8797,164.51128 34.993478,164.20519 C 35.085398,163.95789 35.172972,163.5375 35.147723,163.29894 C 35.122459,163.06037 35.308722,162.50998 35.610444,162.04894 C 36.176655,161.18372 36.292741,160.48582 35.970344,159.89269 C 35.74967,159.48667 36.220028,158.88537 37.101455,158.42394 C 37.31147,158.314 37.431831,158.25247 37.512766,158.23644 z M 91.8061,158.86144 C 91.850956,158.86144 92.028982,159.21795 92.217425,159.64269 C 92.572324,160.44258 92.54109,160.88833 92.166,160.33019 C 91.940881,159.99523 91.666503,158.86144 91.8061,158.86144 z M 96.79328,159.08019 C 96.806517,159.07699 96.842951,159.10122 96.84469,159.11144 C 96.976806,159.889 96.858055,161.13667 96.639035,161.79894 C 96.24545,162.98888 95.337036,162.92577 94.736713,161.67394 C 94.394524,160.96039 94.355567,160.86144 94.736713,160.86144 C 94.908512,160.86144 95.442948,160.45199 95.919234,159.92394 C 96.335959,159.46189 96.700718,159.10255 96.79328,159.08019 z M 90.058023,159.58019 L 90.674989,160.01769 C 91.673043,160.70108 93.142881,162.60893 93.142881,163.23644 C 93.142881,163.44087 93.081311,163.61144 92.988636,163.61144 C 92.779618,163.61144 91.240544,161.21573 91.240544,160.89269 C 91.240559,160.76324 90.947586,160.41205 90.623579,160.11144 L 90.058023,159.58019 z M 97.87298,161.76769 C 97.927782,161.76036 97.989665,161.77181 98.078636,161.79894 C 98.471879,161.91879 98.470796,162.61144 98.078636,162.61144 C 97.982071,162.61144 97.87546,162.80861 97.821556,163.04894 C 97.767681,163.28927 97.681004,163.08232 97.667325,162.58019 C 97.651281,161.99104 97.70859,161.78964 97.87298,161.76769 z M 101.78044,161.86144 C 101.94924,161.86144 102.17538,162.03044 102.24318,162.23644 C 102.39918,162.7102 102.14214,162.71444 101.78044,162.23644 C 101.55327,161.93627 101.52808,161.86144 101.78044,161.86144 z M 103.4257,162.23644 C 103.60031,162.22299 103.913,162.32778 104.40257,162.58019 C 105.48426,163.13789 105.82983,163.50296 106.04782,164.17394 C 106.16947,164.54853 106.14966,164.5602 105.79076,164.29894 C 105.46526,164.062 105.32812,164.05914 105.12237,164.29894 C 104.97804,164.46717 104.77586,164.62228 104.71106,164.61144 C 104.05709,164.50202 102.96815,162.86779 103.22005,162.39269 C 103.26992,162.29869 103.32094,162.24455 103.4257,162.23644 z M 106.61338,164.61144 C 106.75369,164.60934 106.90048,164.72412 106.97328,164.86144 C 107.13767,165.17144 107.07636,165.17144 106.66479,164.86144 C 106.47173,164.71601 106.46006,164.61373 106.61338,164.61144 z M 101.9861,166.08019 C 102.0863,166.08695 102.2142,166.12298 102.346,166.20519 C 102.60801,166.36862 102.73114,166.58461 102.65449,166.67394 C 102.48357,166.87314 102.94158,167.43118 103.63136,167.86144 C 104.07622,168.13894 104.20761,168.0979 104.45399,167.70519 C 104.6106,167.45557 104.75315,166.9941 104.76247,166.64269 C 104.76764,166.4472 104.78903,166.31414 104.81388,166.26769 C 104.82682,166.28716 104.85071,166.31815 104.8653,166.36144 C 104.93388,166.56499 105.11881,166.86501 105.27661,167.04894 C 105.43442,167.23286 105.5851,167.5436 105.5851,167.73644 C 105.58509,167.9293 105.93916,168.45025 106.35631,168.89269 C 107.58727,170.19825 107.93239,171.05986 107.84733,172.51769 C 107.73098,174.51107 107.18559,176.18374 106.51054,176.54894 C 105.41883,177.13956 104.39395,176.83272 104.09409,175.83019 C 103.7486,174.67505 103.01439,173.92462 103.01439,174.73644 C 103.01438,175.01757 102.79739,174.89746 102.19177,174.33019 C 101.39257,173.58166 101.29276,173.59619 100.44368,173.89269 C 99.95739,174.0625 99.494826,174.33391 99.363992,174.51769 C 99.233144,174.70144 98.874512,174.86144 98.592767,174.86144 C 98.311051,174.86144 97.885748,174.98368 97.667325,175.14269 C 97.026236,175.60933 96.595846,175.24365 96.741869,174.39269 C 96.810578,173.99227 96.726153,173.41308 96.587624,173.11144 C 96.20675,172.28196 96.111923,170.22139 96.433379,169.92394 C 96.58191,169.78647 97.049262,169.54993 97.461656,169.39269 C 97.874049,169.2354 98.594477,168.65694 99.055502,168.11144 C 99.683539,167.36834 99.929647,167.1938 100.1352,167.39269 C 100.34026,167.59101 100.62504,167.41392 101.16348,166.76769 C 101.60223,166.2411 101.76574,166.06528 101.9861,166.08019 z M 75.610644,167.04894 C 75.648532,167.03955 75.648959,167.05549 75.662068,167.08019 C 75.760315,167.26545 75.078046,170.41146 74.839433,170.86144 C 74.61923,171.27672 74.130291,171.1484 74.016812,170.64269 C 73.958605,170.38324 74.01647,170.01706 74.119647,169.83019 C 74.222809,169.64333 74.239124,169.17661 74.171057,168.79894 C 74.09397,168.37133 74.175203,168.11144 74.325302,168.11144 C 74.457832,168.11144 74.758157,167.8209 75.045088,167.48644 C 75.260319,167.23561 75.496994,167.07716 75.610644,167.04894 z M 114.58257,176.26769 C 114.80193,176.26134 115.01284,176.55399 114.89106,176.92394 C 114.81554,177.15328 114.68087,177.36144 114.58257,177.36144 C 114.27946,177.36144 114.14108,176.87051 114.3255,176.48644 C 114.39945,176.33244 114.48288,176.27058 114.58257,176.26769 z M 113.86277,177.86144 C 114.04349,177.86144 113.70014,178.94915 113.40005,179.29894 C 113.23886,179.48682 113.09156,179.79026 113.09156,179.98644 C 113.09156,180.18263 112.91426,180.33019 112.73166,180.33019 C 112.51564,180.33019 112.46363,180.22078 112.57743,180.01769 C 112.67361,179.84603 112.971,179.28268 113.2458,178.76769 C 113.52058,178.25271 113.80755,177.86144 113.86277,177.86144 z M 106.04782,178.36144 C 106.09854,178.3467 106.17646,178.36144 106.25348,178.36144 C 106.49759,178.36144 106.66047,178.47803 106.61338,178.64269 C 106.48116,179.10501 106.08534,179.16261 105.94499,178.73644 C 105.87838,178.53403 105.89569,178.40566 106.04782,178.36144 z M 39.055187,185.83019 C 39.099673,185.83019 39.216998,185.99918 39.363677,186.20519 C 39.5821,186.51196 39.596933,186.58019 39.312267,186.58019 C 39.121103,186.58019 38.952367,186.41117 38.952367,186.20519 C 38.952367,185.99918 39.010702,185.83019 39.055187,185.83019 z "
         style="fill:#6193cf;fill-opacity:1;stroke:none"
         id="path4773" />
      <g
         transform="matrix(1.2729228,0,0,1.4456146,-10.634236,95.182663)"
         id="g14351">
        <rect
           width="90.867905"
           height="0.42620751"
           x="12.995816"
           y="-18.646544"
           transform="scale(1,-1)"
           style="fill:#ff80df;fill-opacity:1;fill-rule:evenodd;stroke:none;stroke-width:2;stroke-miterlimit:4;stroke-dasharray:none;stroke-dashoffset:0;stroke-opacity:1"
           id="rect2494" />
        <rect
           width="90.867905"
           height="0.42620751"
           x="12.995816"
           y="-23.099457"
           transform="scale(1,-1)"
           style="fill:#80b3ff;fill-opacity:1;fill-rule:evenodd;stroke:none;stroke-width:2;stroke-miterlimit:4;stroke-dasharray:none;stroke-dashoffset:0;stroke-opacity:1"
           id="rect2496" />
        <rect
           width="90.867905"
           height="0.42620751"
           x="12.995816"
           y="-27.668182"
           transform="scale(1,-1)"
           style="fill:#80b3ff;fill-opacity:1;fill-rule:evenodd;stroke:none;stroke-width:2;stroke-miterlimit:4;stroke-dasharray:none;stroke-dashoffset:0;stroke-opacity:1"
           id="rect2498" />
        <rect
           width="90.867905"
           height="0.42620751"
           x="12.995816"
           y="-32.121063"
           transform="scale(1,-1)"
           style="fill:#80b3ff;fill-opacity:1;fill-rule:evenodd;stroke:none;stroke-width:2;stroke-miterlimit:4;stroke-dasharray:none;stroke-dashoffset:0;stroke-opacity:1"
           id="rect2500" />
        <rect
           width="90.867905"
           height="0.42620751"
           x="12.995816"
           y="-36.64389"
           transform="scale(1,-1)"
           style="fill:#80b3ff;fill-opacity:1;fill-rule:evenodd;stroke:none;stroke-width:2;stroke-miterlimit:4;stroke-dasharray:none;stroke-dashoffset:0;stroke-opacity:1"
           id="rect2502" />
        <rect
           width="90.867905"
           height="0.42620751"
           x="12.995816"
           y="-41.096802"
           transform="scale(1,-1)"
           style="fill:#80b3ff;fill-opacity:1;fill-rule:evenodd;stroke:none;stroke-width:2;stroke-miterlimit:4;stroke-dasharray:none;stroke-dashoffset:0;stroke-opacity:1"
           id="rect2504" />
        <rect
           width="90.867905"
           height="0.42620751"
           x="12.995816"
           y="-45.665554"
           transform="scale(1,-1)"
           style="fill:#80b3ff;fill-opacity:1;fill-rule:evenodd;stroke:none;stroke-width:2;stroke-miterlimit:4;stroke-dasharray:none;stroke-dashoffset:0;stroke-opacity:1"
           id="rect2506" />
        <rect
           width="90.867905"
           height="0.42620751"
           x="12.995816"
           y="-50.118465"
           transform="scale(1,-1)"
           style="fill:#80b3ff;fill-opacity:1;fill-rule:evenodd;stroke:none;stroke-width:2;stroke-miterlimit:4;stroke-dasharray:none;stroke-dashoffset:0;stroke-opacity:1"
           id="rect2508" />
        <rect
           width="90.867905"
           height="0.42620751"
           x="12.995816"
           y="-54.746643"
           transform="scale(1,-1)"
           style="fill:#80b3ff;fill-opacity:1;fill-rule:evenodd;stroke:none;stroke-width:2;stroke-miterlimit:4;stroke-dasharray:none;stroke-dashoffset:0;stroke-opacity:1"
           id="rect2510" />
        <rect
           width="90.867905"
           height="0.42620751"
           x="12.995816"
           y="-59.199554"
           transform="scale(1,-1)"
           style="fill:#80b3ff;fill-opacity:1;fill-rule:evenodd;stroke:none;stroke-width:2;stroke-miterlimit:4;stroke-dasharray:none;stroke-dashoffset:0;stroke-opacity:1"
           id="rect2512" />
      </g>
    </g>
    <rect
       width="128"
       height="128"
       x="109.17962"
       y="91.593498"
       style="opacity:0;fill:#002c63;fill-opacity:1;fill-rule:evenodd;stroke:none;stroke-width:0.99900001;stroke-miterlimit:4;stroke-dasharray:none;stroke-dashoffset:0;stroke-opacity:1"
       id="rect8950" />
    <g
       transform="translate(287.75264,169.4215)"
       id="g11412">
      <path
         d="M -104.7674,9.6172579 C -105.91298,10.158118 -106.48574,10.625218 -106.4857,11.018538 C -106.48574,11.313548 -106.21299,11.583978 -105.66746,11.829808 C -105.12202,12.075658 -104.41288,12.296908 -103.54005,12.493568 C -102.66731,12.641078 -101.65815,12.763998 -100.51257,12.862318 C -99.367094,12.960678 -98.167014,13.009838 -96.912334,13.009828 C -90.802894,13.009838 -85.566194,12.198568 -81.202204,10.576018 C -74.820034,8.3143279 -71.628914,4.4792579 -71.628834,-0.92920206 C -71.628914,-6.9276321 -75.120054,-12.655662 -82.102264,-18.113312 C -84.720684,-20.276642 -87.475404,-22.218762 -90.366454,-23.939682 C -93.257604,-25.709662 -96.339624,-27.332192 -99.612514,-28.807282 C -103.92194,-30.675592 -108.23131,-32.12604 -112.54065,-33.158622 C -116.79551,-34.240247 -121.13216,-34.879428 -125.55061,-35.076162 C -130.73279,-35.371104 -135.26036,-34.461501 -139.13333,-32.347357 C -142.51538,-30.478922 -144.4246,-28.192632 -144.86098,-25.488462 C -145.02464,-24.750892 -145.10646,-23.939632 -145.10645,-23.054662 C -145.10646,-20.497892 -144.69734,-18.014932 -143.8791,-15.605762 C -142.89722,-12.753992 -141.61532,-10.688952 -140.03339,-9.4106321 C -139.76065,-9.0172521 -139.48791,-8.8205821 -139.21515,-8.8206221 C -139.21516,-8.8205821 -139.16061,-8.8697521 -139.05151,-8.9681221 C -139.05152,-9.1647621 -139.18789,-9.4597621 -139.46063,-9.8531421 C -141.91534,-13.147342 -143.14269,-17.400332 -143.14269,-22.612152 C -143.14269,-23.546292 -143.06087,-24.505062 -142.89722,-25.488462 C -141.80624,-31.093522 -136.97865,-33.896074 -128.41443,-33.896137 C -124.48692,-33.896074 -120.55939,-33.47815 -116.63183,-32.642363 C -112.64978,-31.806452 -108.55861,-30.528092 -104.35828,-28.807282 C -100.5399,-27.233862 -96.912384,-25.365492 -93.475744,-23.202172 C -90.039214,-21.087912 -86.766264,-18.727862 -83.656914,-16.122022 C -77.929324,-11.156052 -75.065504,-5.9196921 -75.065424,-0.41295206 C -75.065504,4.0613279 -77.220184,7.2818079 -81.529494,9.2484979 C -83.384234,10.133528 -85.511644,10.821878 -87.911734,11.313538 C -90.257404,11.805238 -92.875764,12.051068 -95.766804,12.051058 C -98.876154,12.051068 -101.30358,11.657728 -103.04911,10.871028 C -103.97648,10.625218 -104.54925,10.207288 -104.7674,9.6172579 M -134.71486,32.258958 C -134.00573,32.504808 -133.18749,32.627728 -132.26015,32.627728 C -131.22373,32.627728 -130.24185,32.529388 -129.31449,32.332728 C -128.33263,32.136048 -127.43257,31.816468 -126.61431,31.373938 C -120.61394,28.473068 -114.2317,21.048748 -107.46758,9.1010079 C -103.37645,1.9225379 -99.803484,-5.5755221 -96.748694,-13.393212 C -96.585094,-13.737352 -96.557824,-14.376522 -96.666864,-15.310752 C -96.776014,-16.195732 -96.912384,-16.638242 -97.075984,-16.638282 C -97.021484,-16.638242 -97.103314,-16.539902 -97.321454,-16.343282 C -100.2126,-8.5255821 -105.04019,0.66877794 -111.80424,11.239788 C -119.22294,22.843358 -124.84149,29.284318 -128.6599,30.562688 C -129.75091,30.808528 -130.73279,30.956018 -131.60556,31.005198 C -132.42381,31.103528 -133.16022,31.029778 -133.81479,30.783938 C -135.39673,30.193918 -136.65136,29.382648 -137.57868,28.350138 C -138.06963,27.907638 -138.4242,27.686378 -138.64239,27.686378 C -138.91514,27.686378 -139.05152,27.833888 -139.05151,28.128888 C -139.05152,28.423898 -138.88787,28.792648 -138.56056,29.235158 C -137.63324,30.513518 -136.35134,31.521458 -134.71486,32.258958"
         style="font-size:56.39134598px;font-style:normal;font-variant:normal;font-weight:normal;font-stretch:normal;text-align:start;line-height:125%;writing-mode:lr-tb;text-anchor:start;fill:#00438a;fill-opacity:1;stroke:none;stroke-width:1px;stroke-linecap:butt;stroke-linejoin:miter;stroke-opacity:1;filter:url(#filter7522);font-family:Scriptina"
         id="path6543" />
      <path
         d="M -104.76694,9.6175291 C -105.91252,10.158389 -106.48528,10.625489 -106.48524,11.018809 C -106.48528,11.313819 -106.21254,11.584249 -105.667,11.830079 C -105.12156,12.075929 -104.41242,12.297179 -103.53959,12.493839 C -102.66685,12.641349 -101.65769,12.764269 -100.51211,12.862589 C -99.36663,12.960949 -98.16655,13.010109 -96.91187,13.010099 C -90.80243,13.010109 -85.56572,12.198839 -81.20174,10.576289 C -74.81957,8.3145991 -71.62845,4.4795261 -71.62837,-0.92893592 C -71.62845,-6.9273599 -75.11959,-12.655389 -82.1018,-18.113043 C -84.72022,-20.276372 -87.47494,-22.218492 -90.36598,-23.939412 C -93.25714,-25.709394 -96.33916,-27.331924 -99.61205,-28.807014 C -103.92148,-30.675323 -108.23085,-32.125769 -112.54019,-33.158351 C -116.79505,-34.239976 -121.1317,-34.879157 -125.55015,-35.075891 C -130.73233,-35.370833 -135.2599,-34.46123 -139.13287,-32.347086 C -142.51492,-30.478655 -144.42414,-28.19236 -144.86052,-25.488195 C -145.02417,-24.750625 -145.106,-23.939359 -145.106,-23.054395 C -145.106,-20.497625 -144.69688,-18.01466 -143.87864,-15.605491 C -142.89676,-12.753724 -141.61486,-10.688685 -140.03293,-9.4103649 C -139.76019,-9.0169839 -139.48745,-8.8203139 -139.21469,-8.8203529 C -139.2147,-8.8203139 -139.16015,-8.8694829 -139.05105,-8.9678549 C -139.05106,-9.1644879 -139.18743,-9.4594929 -139.46016,-9.8528739 C -141.91488,-13.147067 -143.14223,-17.400065 -143.14223,-22.611884 C -143.14223,-23.546017 -143.06041,-24.504787 -142.89676,-25.488195 C -141.80578,-31.093249 -136.97819,-33.895803 -128.41397,-33.895866 C -124.48646,-33.895803 -120.55893,-33.477879 -116.63137,-32.642092 C -112.64932,-31.806179 -108.55814,-30.527821 -104.35782,-28.807014 C -100.53944,-27.23359 -96.91192,-25.365221 -93.47528,-23.201898 C -90.03875,-21.087637 -86.7658,-18.727591 -83.65644,-16.121753 C -77.92886,-11.155778 -75.06504,-5.9194239 -75.06496,-0.41267792 C -75.06504,4.0615991 -77.21972,7.2820801 -81.52903,9.2487691 C -83.38376,10.133799 -85.51118,10.822149 -87.91127,11.313809 C -90.25694,11.805509 -92.8753,12.051339 -95.76634,12.051329 C -98.87569,12.051339 -101.30312,11.657999 -103.04865,10.871299 C -103.97602,10.625489 -104.54879,10.207559 -104.76694,9.6175291 M -134.71439,32.259229 C -134.00527,32.505079 -133.18703,32.627999 -132.25968,32.627999 C -131.22327,32.627999 -130.24139,32.529659 -129.31403,32.332999 C -128.33217,32.136319 -127.43211,31.816739 -126.61385,31.374209 C -120.61348,28.473339 -114.23124,21.049019 -107.46712,9.1012791 C -103.37599,1.9228131 -99.80302,-5.5752509 -96.74823,-13.392945 C -96.58463,-13.737077 -96.55736,-14.376255 -96.6664,-15.310485 C -96.77555,-16.195458 -96.91192,-16.637967 -97.07552,-16.638012 C -97.02102,-16.637967 -97.10285,-16.539632 -97.32099,-16.343006 C -100.21214,-8.5253079 -105.03973,0.66904508 -111.80378,11.240059 C -119.22248,22.843629 -124.84103,29.284589 -128.65945,30.562959 C -129.75044,30.808799 -130.73233,30.956289 -131.6051,31.005469 C -132.42335,31.103799 -133.15976,31.030049 -133.81433,30.784209 C -135.39627,30.194189 -136.6509,29.382919 -137.57822,28.350409 C -138.06917,27.907909 -138.42374,27.686649 -138.64193,27.686649 C -138.91468,27.686649 -139.05106,27.834159 -139.05105,28.129159 C -139.05106,28.424169 -138.88741,28.792919 -138.5601,29.235429 C -137.63278,30.513789 -136.35088,31.521729 -134.71439,32.259229"
         style="font-size:56.39134598px;font-style:normal;font-variant:normal;font-weight:normal;font-stretch:normal;text-align:start;line-height:125%;writing-mode:lr-tb;text-anchor:start;fill:#000000;fill-opacity:1;stroke:none;stroke-width:1px;stroke-linecap:butt;stroke-linejoin:miter;stroke-opacity:1;font-family:Scriptina"
         id="text6117" />
    </g>
  </g>
</svg>
