<svg height="48" viewBox="0 0 48 48" width="48" xmlns="http://www.w3.org/2000/svg" xmlns:xlink="http://www.w3.org/1999/xlink"><linearGradient id="a" gradientUnits="userSpaceOnUse" x1="4" x2="4" xlink:href="#e" y1="44" y2="9"/><linearGradient id="b" gradientUnits="userSpaceOnUse" x1="24" x2="44" y1="4" y2="44"><stop offset="0" stop-color="#000010"/><stop offset="1" stop-color="#000010" stop-opacity="0"/></linearGradient><linearGradient id="c" gradientUnits="userSpaceOnUse" x1="6" x2="6" xlink:href="#e" y1="39" y2="14"/><linearGradient id="d" gradientTransform="matrix(.9999956 0 0 1 5.964663 4.953027)" gradientUnits="userSpaceOnUse" x1="4" x2="4" y1="44" y2="-20"><stop offset="0" stop-color="#2980b9"/><stop offset=".453125" stop-color="#3daee9"/><stop offset="1" stop-color="#fff"/></linearGradient><linearGradient id="e" gradientUnits="userSpaceOnUse" x1="8" x2="8" y1="41" y2="9"><stop offset="0" stop-color="#216694"/><stop offset="1" stop-color="#216694" stop-opacity=".35"/></linearGradient><path d="m24 4a20 20 0 0 0 -20 20 20 20 0 0 0 20 20 20 20 0 0 0 20-20 20 20 0 0 0 -20-20z" fill="url(#d)" stroke-width="1.25"/><path d="m24 9a16 16 0 0 0 -16 16 16 16 0 0 0 16 16 16 16 0 0 0 16-16 16 16 0 0 0 -16-16zm0 2a14 14 0 0 1 11.994141 6.789062l-9.40625 8.242188-16.365235 1.365234a14 14 0 0 1 -.222656-2.396484 14 14 0 0 1 14-14zm12.927734 8.628906a14 14 0 0 1 1.072266 5.371094 14 14 0 0 1 -4.195312 9.982422l-5.470704-7.822266zm7.054688 3.621094a20 20 0 0 1 -19.982422 19.75 20 20 0 0 1 -19.9648438-19.5 20 20 0 0 0 -.0351562.5 20 20 0 0 0 20 20 20 20 0 0 0 20-20 20 20 0 0 0 -.017578-.75zm-17.47461 4.794922 5.767579 8.240234a14 14 0 0 1 -8.275391 2.714844 14 14 0 0 1 -13.298828-9.634766z" fill="url(#a)"/><path d="m24 8a16 16 0 0 0 -16 16 16 16 0 0 0 16 16 16 16 0 0 0 16-16 16 16 0 0 0 -16-16zm0 2a14 14 0 0 1 11.996094 6.787109l-9.408203 8.244141-16.365235 1.365234a14 14 0 0 1 -.222656-2.396484 14 14 0 0 1 14-14zm12.923828 8.632812a14 14 0 0 1 1.076172 5.367188 14 14 0 0 1 -4.195312 9.982422l-5.470704-7.822266zm-10.416016 8.41211 5.767579 8.240234a14 14 0 0 1 -8.275391 2.714844 14 14 0 0 1 -13.298828-9.634766z" fill="#eff0f1" stroke-width="1.29032"/><g stroke-width="1.25"><path d="m37.310547 14c-.7956 0-1.558494.316306-2.121094.878906s-.878906 1.325494-.878906 2.121094.316306 1.558494.878906 2.121094l8.449219 8.451172a20 20 0 0 0 .361328-3.572266 20 20 0 0 0 -.710938-5.263672l-3.857421-3.857422c-.5626-.5626-1.325394-.878906-2.121094-.878906zm-10.310547 9c-.7956 0-1.558494.316306-2.121094.878906s-.878906 1.325494-.878906 2.121094.316306 1.558494.878906 2.121094l6.089844 6.091797c-.186683.396217-.289063.831006-.289062 1.277343 0 .7957.316306 1.558394.878906 2.121094l3.226562 3.226563a20 20 0 0 0 5.708985-5.585938l-11.373047-11.373047c-.5626-.5626-1.325494-.878906-2.121094-.878906zm-17.5605469 1.470703c-.79565 0-1.5584837.316306-2.1210937.878906s-.8789063 1.325494-.8789063 2.121094c0 .7957.3162963 1.558494.8789063 2.121094l14.2343746 14.234375a20 20 0 0 0 2.447266.173828 20 20 0 0 0 5.443359-.769531l-17.882812-17.88086c-.5429-.5429-1.292644-.878906-2.1210939-.878906z" fill="url(#b)" opacity=".1"/><path d="m37.236328 14c-.768611.01907-1.501856.333887-2.046875.878906-.5626.5626-.878906 1.325494-.878906 2.121094s.316306 1.558494.878906 2.121094l.654297.654297.05273.05273c.5626.5626 1.325394.878906 2.121094.878906.7956 0 1.558494-.316306 2.121094-.878906s.878906-1.325394.878906-2.121094c0-.7956-.316306-1.558493-.878906-2.121093l-.05273-.05274-.654297-.654297c-.5626-.562591-1.325394-.878897-2.121094-.878897-.02486 0-.04942-.000615-.07422 0zm.78125.707031c.627189 0 1.233791.195904 1.738281.554688.358758.50449.554688 1.111092.554688 1.738281 0 .7956-.316306 1.558494-.878906 2.121094s-1.325394.878906-2.121094.878906c-.627189 0-1.233791-.195903-1.738281-.554688-.358758-.504467-.554688-1.111013-.554688-1.738281 0-.7956.316306-1.558493.878906-2.121093s1.325394-.878907 2.121094-.878907zm-11.091797 8.292969c-.768611.01907-1.501856.333887-2.046875.878906-.5626.5626-.878906 1.325494-.878906 2.121094s.316306 1.558494.878906 2.121094l.654297.654297.05273.05273c.5626.5626 1.325493.878906 2.121093.878906.7957 0 1.558494-.316306 2.121094-.878906s.878906-1.325394.878906-2.121094c0-.7956-.316306-1.558494-.878906-2.121093l-.05273-.05273-.654297-.654297c-.562599-.562601-1.325493-.878907-2.121093-.878907-.02486 0-.04942-.000615-.07422 0zm.78125.707031c.627268 0 1.233814.195904 1.738281.554688.358785.50449.554688 1.111092.554688 1.738281 0 .7956-.316306 1.558494-.878906 2.121094s-1.325494.878906-2.121094.878906c-.627189 0-1.233791-.195903-1.738281-.554688-.358784-.504467-.554688-1.111013-.554688-1.738281 0-.7956.316307-1.558493.878907-2.121093.562599-.5626 1.325493-.878907 2.121093-.878907zm-18.3417966.763672c-.7686539.01907-1.5018466.333888-2.046875.878906-.56261.5626-.8789063 1.325494-.8789063 2.121094 0 .7957.3162963 1.558494.8789063 2.121094l.6542968.654297.052734.05273c.56261.5626 1.3254038.878906 2.1210938.878906 1.6568 0 3-1.3431 3-3 0-.8284-.336006-1.578193-.878906-2.121093l-.05078-.05078-.65625-.65625c-.5429-.5429-1.292644-.878906-2.1210943-.878906-.024864 0-.049423-.000615-.074219 0zm.7812496.707031c.647188 0 1.248166.206145 1.738282.554688 0 0 .002.002.002.002.348543.490115.552734 1.089141.552734 1.736328 0 1.6569-1.34315 3-2.9999999 3-.6272282 0-1.2337944-.195903-1.7382812-.554687-.3587812-.504468-.5546875-1.111014-.5546875-1.738282 0-.7956.3162962-1.558493.8789062-2.121093s1.3254038-.878907 2.1210934-.878907zm23.458985 7.3125c-.768696.01907-1.501856.333888-2.046875.878907-.5626.5626-.878907 1.325493-.878906 2.121093 0 .7957.316306 1.558394.878906 2.121094l.654297.654297.05273.05273c.5626.5626 1.325394.878907 2.121094.878907.7956 0 1.558493-.316307 2.121093-.878907.562601-.5626.878907-1.325393.878907-2.121093 0-.7956-.316306-1.558494-.878907-2.121094l-.05273-.05273-.654297-.654297c-.5626-.5626-1.325493-.878907-2.121093-.878907-.02487 0-.04942-.000615-.07422 0zm.707031.707032c.0248-.000616.04935 0 .07422 0 .627189 0 1.23379.195903 1.738281.554687.358784.504491.554688 1.111093.554688 1.738281-.000001.7957-.316307 1.558394-.878907 2.121094-.5626.5626-1.325493.878906-2.121093.878906-.627268 0-1.233814-.195929-1.738282-.554687-.358784-.504494-.554687-1.111014-.554687-1.738281 0-.7956.316306-1.558494.878906-2.121094.545019-.545019 1.278179-.859833 2.046874-.878906z" fill="url(#c)" opacity=".35"/><path d="m37.310547 14a3 3 0 0 0 -3 3 3 3 0 0 0 3 3 3 3 0 0 0 3-3 3 3 0 0 0 -3-3zm-10.310547 9a3 3 0 0 0 -3 3 3 3 0 0 0 3 3 3 3 0 0 0 3-3 3 3 0 0 0 -3-3zm-17.5605469 1.470703a3 3 0 0 0 -3 3 3 3 0 0 0 3 3 3 3 0 0 0 2.9999999-3 3 3 0 0 0 -2.9999999-3zm24.2402349 8.019531a3 3 0 0 0 -3 3 3 3 0 0 0 3 3 3 3 0 0 0 3-3 3 3 0 0 0 -3-3z" fill="#fcfcfc"/></g></svg>