<?xml version="1.0" encoding="UTF-8" standalone="no"?>
<svg xmlns:dc="http://purl.org/dc/elements/1.1/" xmlns:cc="http://creativecommons.org/ns#" xmlns:rdf="http://www.w3.org/1999/02/22-rdf-syntax-ns#" xmlns:svg="http://www.w3.org/2000/svg" xmlns="http://www.w3.org/2000/svg" xmlns:xlink="http://www.w3.org/1999/xlink" width="48" height="48" version="1.1" id="svg30">
    <metadata id="metadata34">
        <rdf:RDF>
            <cc:Work rdf:about="">
                <dc:format>image/svg+xml</dc:format>
                <dc:type rdf:resource="http://purl.org/dc/dcmitype/StillImage" />
                <dc:title></dc:title>
            </cc:Work>
        </rdf:RDF>
    </metadata>
    <defs id="defs18">
        <linearGradient gradientTransform="translate(-384.57146,-499.79345)" xlink:href="#d" id="linearGradient4205" x1="388.571" y1="523.798" x2="428.571" y2="523.798" gradientUnits="userSpaceOnUse" />
        <linearGradient gradientTransform="matrix(1.25 0 0 1.26667-92.14-151.08)" gradientUnits="userSpaceOnUse" x2="392.9" y2="546.58" x1="400.57" y1="537.6" id="d">
            <stop stop-color="#ffc35a" id="stop3" />
            <stop stop-color="#faae2a" offset="1" id="stop5" />
        </linearGradient>
        <linearGradient gradientTransform="matrix(1.25,0,0,1.26667,-92.14,-151.08)" gradientUnits="userSpaceOnUse" x2="386.57" y2="540.75" x1="390.57" y1="535.36" id="f">
            <stop stop-color="#fdbc4b" id="stop8" />
            <stop stop-color="#dde341" offset="1" id="stop10" />
        </linearGradient>
        <linearGradient id="c-5" y1="13" x1="13" y2="31" x2="31" gradientUnits="userSpaceOnUse" gradientTransform="translate(10.66882,-5.018895)" xlink:href="#f">
            <stop stop-color="#383e51" id="stop13" />
            <stop offset="1" stop-color="#655c6f" stop-opacity="0" id="stop15" />
        </linearGradient>
        <linearGradient gradientUnits="userSpaceOnUse" y2="523.79797" x2="428.57101" y1="523.79797" x1="388.57101" id="linearGradient4205-3" xlink:href="#d" gradientTransform="translate(-384.57682,-479.79344)" />
        <linearGradient gradientTransform="translate(-384.57682,-499.79344)" xlink:href="#d" id="linearGradient4205-3-3" x1="388.57101" y1="523.79797" x2="428.57101" y2="523.79797" gradientUnits="userSpaceOnUse" />
    </defs>
    <rect id="rect20" width="40" x="4.0053625" y="4" rx="20" height="40" style="opacity:0.9;fill:url(#linearGradient4205);fill-opacity:1;stroke-width:2.8;stroke-opacity:0.550265" ry="20" />
    <path id="path22" style="opacity:0.15;fill:#000000;fill-opacity:1;stroke-width:2.8;stroke-opacity:0.550265" d="m 4.0117,23.504555 c -0.004,0.16686 -0.0117,0.33212 -0.0117,0.5 0,11.07999 8.92001,20 20,20 11.07999,0 20,-8.92001 20,-20 0,-0.16788 -0.008,-0.33315 -0.0117,-0.5 -0.26418,10.84657 -9.07584,19.5 -19.98828,19.5 -10.91244,0 -19.7241,-8.65343 -19.98828,-19.5 z" />
    <path id="path24" style="opacity:0.2;fill:url(#c-5);fill-opacity:1;fill-rule:evenodd" d="M 36.888672 8.6953125 L 29.136719 32.917969 L 24.136719 19.917969 L 22.136719 21.917969 L 15.136719 37.917969 L 19.84375 43.566406 C 20.623276 43.729984 21.419806 43.847472 22.230469 43.917969 L 25.769531 43.917969 C 36.013761 43.027115 44 34.483015 44 24 C 44 17.841944 41.238784 12.358417 36.888672 8.6953125 z " />
    <path id="path26" d="m 36.82839,7.918015 c 0.65902,3e-5 1.0273,0.49696 1.10487,1.4908 l -0.55245,4.68038 h 0.20353 l 0.43614,-0.34669 h 0.11631 v 0.104 c -0.60092,0.43918 -1.18244,1.64106 -1.74454,3.60564 -0.21326,1.68728 -0.57185,3.2474 -1.07582,4.68039 -0.44585,1.47924 -0.66876,2.84291 -0.66873,4.09101 l -0.84321,2.46153 c -2e-5,0.20802 0.31981,0.41605 0.95951,0.62405 -0.11633,0.48538 -0.29078,0.72806 -0.52337,0.72806 v 0.13868 h 0.20353 v 0.104 c -2e-5,0.25425 -0.32955,0.38137 -0.98857,0.38136 l 0.11629,0.13869 v 0.48535 h -0.20352 c 0.13566,0.4854 0.42642,0.72809 0.87227,0.72807 v 0.24269 h -0.87227 v 0.13867 c 0.29073,0 0.43611,0.20803 0.43613,0.62406 l -1.22117,0.48537 0.1163,0.13868 v 0.104 c -3e-5,0.1618 -0.1454,0.2427 -0.43614,0.2427 v 0.13867 c 0.36826,0 0.55241,0.081 0.55244,0.24269 -0.52338,0.20803 -1.2115,1.23656 -2.06439,3.08559 -0.87228,1.64103 -1.62825,2.46154 -2.26791,2.46154 h -0.2326 c -0.48462,-0.36982 -0.88198,-1.59482 -1.1921,-3.67498 -1.2406,-3.16647 -1.86088,-5.02708 -1.86087,-5.5818 -10e-6,-1.43299 -0.39738,-2.95845 -1.1921,-4.57637 -0.21323,-0.71647 -0.35861,-1.61789 -0.43613,-2.70423 l -0.52337,-0.13867 c -1.31812,2.38066 -2.00626,4.24126 -2.06438,5.5818 -0.36832,0.78586 -0.65906,1.73348 -0.87228,2.8429 0.79473,0.25426 1.1921,0.49693 1.19211,0.72805 v 0.13868 c -0.62029,-0.0925 -1.05645,-0.26579 -1.30841,-0.52004 -0.27138,0.62406 -0.62999,2.35753 -1.0758,5.20043 -0.34892,1.31745 -0.78506,1.97617 -1.30841,1.97617 -1.47318,-0.57783 -2.70407,-1.52545 -3.69264,-2.84289 -0.15507,0 -0.40707,-0.65874 -0.75597,-1.97618 -0.21323,0 -0.35861,-0.65873 -0.43614,-1.97617 -0.73658,-1.87215 -1.24056,-4.01009 -1.51193,-6.41386 v -3.60562 h -0.1163 l -0.52338,0.13866 v -0.13866 c 0,-0.1618 0.17446,-0.24268 0.52338,-0.24269 l -0.11631,-2.08018 v -1.62945 l -0.8432,-5.20044 v -2.21886 c 0.3683,-1.38674 1.00796,-2.08014 1.91901,-2.08017 0,0 0.081,-0.005 0.34893,0.34669 l -0.34889,-0.104 c 1.41501,1.84907 2.24851,3.40919 2.50051,4.68039 h 0.98859 v 0.24269 h -0.75598 v 0.27737 c 0.29076,1.06322 0.50398,1.59481 0.63966,1.59479 h 0.23261 l 0.52337,-0.13869 0.1163,0.13869 0.1163,-0.13869 0.11631,0.13869 v 0.104 c -0.38768,0.27737 -0.64936,0.65873 -0.78505,1.1441 h -0.0872 v 0.24268 h 0.20354 c 0.27137,3.85989 0.77534,6.78368 1.51193,8.77139 l 0.43615,0.34669 h 0.23259 c 0.29076,10e-6 0.90136,-1.35209 1.83179,-4.05634 0.6009,-1.22497 1.03702,-2.29973 1.30841,-3.22425 l -0.11631,-0.38138 c 0.60089,-0.90138 1.22118,-1.35208 1.86085,-1.35211 h 0.20353 c 0.40705,3e-5 0.69781,0.25427 0.87228,0.76272 0.54274,0.76276 0.97887,1.90686 1.3084,3.4323 l 1.62826,3.60562 c 0.21321,0.25427 0.31981,0.54318 0.31983,0.86675 0.60089,1.36369 1.14364,2.26508 1.62825,2.70423 h 0.34889 c 0.40705,0 0.94981,-1.68724 1.62827,-5.06177 0.11628,2e-5 0.4361,-0.90139 0.95949,-2.70421 v -0.13868 l -1.83178,-0.2427 -0.43614,0.13869 h -0.55242 v -0.27737 l 1.10487,-0.104 h 2.15161 c 0.83348,-2.98157 1.59914,-5.29286 2.29699,-6.93392 0.23258,-3.37446 0.55241,-5.06171 0.95951,-5.06175 l 1.30841,-0.62405 m -11.0779,2.98159 h 0.31984 v 0.104 c -2e-5,0.16182 -0.10662,0.24272 -0.31984,0.2427 l -0.11629,0.13866 v 0.13869 l -0.31985,-0.13869 v -0.24268 l 0.43614,-0.24268 m -1.62824,1.35211 v 0.13866 c -10e-6,0.18494 -0.46521,0.38141 -1.39564,0.5894 v -0.24269 l 0.63968,-0.34671 0.11629,0.104 h 0.0872 l 0.55243,-0.24269 m -3.14017,1.2481 v 0.104 c -0.40708,0.36984 -1.06613,0.70498 -1.97717,1.00543 v -0.24269 c 0.15507,2e-5 0.23259,-0.1271 0.2326,-0.38136 l 1.74457,-0.48538 m 5.52438,1.21343 0.11631,0.13868 v 0.104 l -0.20353,0.27735 h -0.1163 l -0.23261,-0.27735 v -0.104 l 0.43613,-0.13868 m 4.01247,0.13868 h 0.1163 v 0.104 l -0.20353,0.27735 h -0.1163 v -0.13868 l 0.20353,-0.24268 m -1.83178,1.73348 0.43615,0.34669 c -0.0775,0.25426 -0.29079,0.38138 -0.63968,0.38136 l -0.2326,-0.38136 c -2e-5,-0.11554 0.14536,-0.23111 0.43613,-0.34669 m 2.61682,1.59479 0.0872,0.13868 v 0.104 l -0.0872,0.13867 h -0.23259 v -0.13867 l 0.23259,-0.24269 m -4.12876,1.2481 v 0.104 l -0.55244,0.52004 h -0.31983 v -0.13868 c -2e-5,-0.208 0.29073,-0.36978 0.87227,-0.48537 m -3.80892,10.60887 h 0.11629 v 0.24269 l -0.87227,0.52005 -0.1163,-0.13868 v -0.24269 l 0.87228,-0.38137 m -0.31985,3.22427 h 0.0872 l 0.34891,0.38135 -0.11629,0.104 h -0.11631 l -0.20354,-0.34669 v -0.13867" style="font-style:normal;font-variant:normal;font-weight:bold;font-stretch:normal;font-size:medium;line-height:125%;letter-spacing:0px;word-spacing:0px;fill:#ffffff;fill-opacity:1;stroke:none" />
</svg>
