<?xml version="1.0" encoding="UTF-8" standalone="no"?>
<svg xmlns:dc="http://purl.org/dc/elements/1.1/" xmlns:cc="http://creativecommons.org/ns#" xmlns:rdf="http://www.w3.org/1999/02/22-rdf-syntax-ns#" xmlns:svg="http://www.w3.org/2000/svg" xmlns="http://www.w3.org/2000/svg" xmlns:xlink="http://www.w3.org/1999/xlink" xmlns:sodipodi="http://sodipodi.sourceforge.net/DTD/sodipodi-0.dtd" xmlns:inkscape="http://www.inkscape.org/namespaces/inkscape" sodipodi:docname="application-pgp-signature.svg" inkscape:version="1.1-dev (d80adc983d, 2020-06-15)" version="1.1" id="svg2" height="32" width="32">
    <metadata id="metadata47">
        <rdf:RDF>
            <cc:Work rdf:about="">
                <dc:format>image/svg+xml</dc:format>
                <dc:type rdf:resource="http://purl.org/dc/dcmitype/StillImage" />
            </cc:Work>
        </rdf:RDF>
    </metadata>
    <sodipodi:namedview inkscape:current-layer="svg2" inkscape:window-maximized="1" inkscape:window-y="26" inkscape:window-x="0" inkscape:cy="10.187698" inkscape:cx="3.0816749" inkscape:zoom="5.2149125" showgrid="false" id="namedview45" inkscape:window-height="1025" inkscape:window-width="1920" inkscape:pageshadow="2" inkscape:pageopacity="0" guidetolerance="10" gridtolerance="10" objecttolerance="10" borderopacity="1" bordercolor="#666666" pagecolor="#ffffff" />
    <defs id="defs4">
        <linearGradient gradientTransform="matrix(0.5,0,0,-0.48276,0,31.45)" gradientUnits="userSpaceOnUse" x2="0" y2="61" y1="3" id="a">
            <stop id="stop7" stop-color="#5e6b78" />
            <stop id="stop9" stop-color="#768492" offset="1" />
        </linearGradient>
        <linearGradient gradientTransform="translate(-384.57,-515.8)" gradientUnits="userSpaceOnUse" x2="0" y2="524.8" y1="518.04" id="b">
            <stop id="stop12" stop-color="#dedede" />
            <stop id="stop14" stop-color="#fbfbfb" offset="1" />
        </linearGradient>
        <linearGradient gradientTransform="translate(-384.57,-515.8)" gradientUnits="userSpaceOnUse" x2="411.57" y2="531.8" x1="404.57" y1="524.8" id="c">
            <stop id="stop17" stop-color="#383e51" />
            <stop id="stop19" stop-opacity="0" stop-color="#655c6f" offset="1" />
        </linearGradient>
        <linearGradient id="linearGradient6251" inkscape:collect="always">
            <stop id="stop6253" offset="0" style="stop-color:#ffffff;stop-opacity:0" />
            <stop id="stop6255" offset="1" style="stop-color:#ffffff;stop-opacity:0.2" />
        </linearGradient>
        <linearGradient gradientUnits="userSpaceOnUse" y2="2.1016948" x2="15.542373" y1="30.101694" x1="15.169492" id="linearGradient4247" xlink:href="#linearGradient6251" inkscape:collect="always" />
    </defs>
    <path d="m 5,30 0,-28 15,0 7,7 0,21 -7,0 z" id="path23" style="fill:#2cbd2c;fill-opacity:1" inkscape:connector-curvature="0" />
    <rect transform="scale(1,-1)" style="fill:#ffffff;fill-opacity:0.41199999" id="rect27" height="1" y="-2.9999878" x="5.0000072" width="15" />
    <rect transform="scale(1,-1)" style="fill:#2e3132;fill-opacity:0.294" id="rect29" height="1" y="-29.999989" x="5.0000072" width="22" />
    <path inkscape:connector-curvature="0" style="opacity:0.6;fill:#ffffff;fill-opacity:1;fill-rule:evenodd" id="path33" d="M 27,9 20,2 v 7 z" />
    <path inkscape:connector-curvature="0" style="opacity:0.2;fill:url(#c);fill-rule:evenodd" id="path35" d="M 27,16 20,9 27,9 Z" />
    <path id="path39" d="M 20.910156 10.525391 C 20.841766 10.524311 20.771448 10.542166 20.705078 10.583984 C 20.669628 10.608294 20.515097 10.791984 20.363281 10.992188 L 20.087891 11.359375 L 19.988281 11.291016 C 19.849518 11.198486 19.715445 11.178373 19.589844 11.234375 C 19.503034 11.272935 19.299803 11.534736 17.958984 13.298828 C 17.112809 14.410953 16.423826 15.32949 16.425781 15.34375 C 16.427381 15.35565 16.766578 15.623535 17.177734 15.935547 L 17.929688 16.505859 L 18.929688 15.189453 C 19.479882 14.464431 19.938362 13.876527 19.949219 13.884766 C 19.984449 13.911396 20.04486 14.482361 20.03125 14.666016 C 20.02565 14.766205 19.988569 14.947061 19.949219 15.066406 C 19.879039 15.279673 19.870249 15.293004 18.630859 16.931641 C 17.945402 17.837542 17.375584 18.606244 17.365234 18.636719 C 17.335574 18.720749 17.366308 18.878137 17.429688 18.96875 C 17.5354 19.121519 17.799129 19.170245 17.949219 19.0625 C 18.052907 18.98765 20.507532 15.719638 20.585938 15.548828 C 20.814902 15.061763 20.864752 14.436163 20.724609 13.820312 C 20.669239 13.575874 20.5967 13.341041 20.525391 13.173828 C 20.504601 13.128168 20.539913 13.069037 20.769531 12.763672 C 20.986523 12.472166 21.036747 12.390205 21.041016 12.314453 C 21.050416 12.153236 21.001329 12.063256 20.84375 11.939453 L 20.697266 11.824219 L 20.992188 11.431641 C 21.23379 11.107705 21.284918 11.023001 21.289062 10.947266 C 21.301153 10.705801 21.115327 10.52863 20.910156 10.525391 z M 15.951172 15.953125 C 15.943972 15.954111 15.043481 17.139439 13.947266 18.583984 C 12.184122 20.910161 11.932563 21.254545 11.769531 21.550781 C 11.445624 22.140557 11.091622 23.040707 10.855469 23.863281 C 10.702423 24.390849 10.696116 24.341645 10.90625 24.230469 C 11.554416 23.884651 12.401142 23.324323 12.894531 22.910156 C 13.376985 22.504689 13.459084 22.400899 15.507812 19.701172 L 17.478516 17.101562 L 16.720703 16.525391 C 16.304048 16.209206 15.958364 15.952139 15.951172 15.953125 z M 16.167969 21.978516 C 16.072317 21.973057 15.972731 21.976992 15.908203 21.990234 C 15.603643 22.05486 15.265256 22.318617 15.101562 22.623047 C 15.057562 22.702047 14.987359 22.880625 14.943359 23.015625 C 14.902359 23.153625 14.864328 23.268484 14.861328 23.271484 C 14.838328 23.300484 14.254109 23.441 13.912109 23.5 C 13.106109 23.641 12.885641 23.693578 12.806641 23.767578 C 12.651641 23.911578 12.772187 24.054234 12.992188 23.990234 C 13.051187 23.972234 13.299062 23.923812 13.539062 23.882812 C 13.779063 23.841812 14.147469 23.76575 14.355469 23.71875 C 14.563469 23.66875 14.739047 23.635531 14.748047 23.644531 C 14.757047 23.653531 14.722016 23.821578 14.666016 24.017578 L 14.566406 24.369141 L 14.345703 24.466797 C 14.225703 24.519797 14.053891 24.610875 13.962891 24.671875 C 13.687891 24.853875 13.633172 25.081516 13.826172 25.228516 C 13.932172 25.307516 14.22525 25.303609 14.40625 25.224609 C 14.56725 25.151609 14.659156 25.04825 14.785156 24.78125 C 14.852156 24.64325 14.904312 24.5715 14.945312 24.5625 C 14.977313 24.5535 15.268797 24.495734 15.591797 24.427734 C 15.913797 24.363734 16.206141 24.301969 16.244141 24.292969 C 16.306141 24.277969 16.311922 24.283844 16.294922 24.339844 C 16.282922 24.374844 16.228828 24.477359 16.173828 24.568359 C 16.117828 24.659359 16.074219 24.766547 16.074219 24.810547 C 16.074219 24.901547 16.150891 24.99275 16.212891 24.96875 C 16.236891 24.95975 16.26725 24.951172 16.28125 24.951172 C 16.29625 24.951172 16.360781 24.904703 16.425781 24.845703 C 16.545781 24.737703 16.835937 24.206703 16.835938 24.095703 C 16.835938 24.039703 16.88025 24.024359 16.90625 24.068359 C 16.91525 24.083359 16.981687 24.110906 17.054688 24.128906 C 17.157688 24.154906 17.1875 24.175656 17.1875 24.222656 C 17.1875 24.313656 17.33675 24.444703 17.46875 24.470703 C 17.57175 24.488703 17.70275 24.467203 17.84375 24.408203 C 17.89375 24.388203 17.896906 24.393703 17.878906 24.470703 C 17.866906 24.517703 17.780453 24.666687 17.689453 24.804688 C 17.496453 25.091687 17.262172 25.548953 17.201172 25.751953 C 17.151172 25.924953 17.172672 26.054234 17.263672 26.115234 C 17.345672 26.168234 17.480781 26.144359 17.550781 26.068359 C 17.612781 26.001359 17.945359 25.294656 18.068359 24.972656 C 18.156359 24.746656 18.197484 24.685609 18.396484 24.474609 C 18.560484 24.301609 18.613125 24.259172 18.578125 24.326172 C 18.519125 24.452172 18.522891 24.549422 18.587891 24.607422 C 18.725891 24.733422 18.924656 24.611922 19.097656 24.294922 C 19.200656 24.106922 19.277203 24.050094 19.658203 23.871094 L 19.857422 23.78125 L 19.835938 23.888672 C 19.823937 23.947672 19.7575 24.114813 19.6875 24.257812 C 19.5495 24.547812 19.523469 24.732625 19.605469 24.890625 C 19.661469 24.998625 19.718281 25.001203 19.988281 24.908203 C 20.363281 24.782203 20.854469 24.493172 20.980469 24.326172 C 21.153469 24.092172 21.205609 23.865062 21.099609 23.789062 C 20.991609 23.710062 20.930969 23.743313 20.792969 23.945312 C 20.607969 24.220312 20.378203 24.433969 20.158203 24.542969 C 20.055203 24.595969 19.966031 24.630094 19.957031 24.621094 C 19.945031 24.609094 20.180641 23.979594 20.306641 23.683594 C 20.332641 23.621594 20.353516 23.545672 20.353516 23.513672 C 20.353516 23.431672 20.249109 23.337891 20.162109 23.337891 C 20.121109 23.337891 19.928375 23.417578 19.734375 23.517578 C 19.332375 23.716578 19.360891 23.734375 19.462891 23.359375 C 19.524891 23.128375 19.502328 23.065781 19.361328 23.050781 C 19.226328 23.035781 19.173781 23.080781 19.050781 23.300781 C 18.971781 23.449781 18.866063 23.572766 18.664062 23.759766 C 18.397063 24.005766 18.386219 24.014703 18.324219 23.970703 C 18.230219 23.903703 18.177219 23.912344 17.949219 24.027344 C 17.726219 24.138344 17.653656 24.152937 17.597656 24.085938 C 17.550656 24.029937 17.62325 24.000875 18.03125 23.921875 C 18.42725 23.845875 18.476563 23.824187 18.476562 23.742188 C 18.476562 23.610187 18.367828 23.485391 18.173828 23.400391 C 17.839828 23.251391 17.801297 23.241297 17.654297 23.279297 C 17.496297 23.320297 17.262469 23.5475 17.230469 23.6875 C 17.198469 23.8345 17.097656 23.790906 17.097656 23.628906 C 17.097656 23.561906 17.01575 23.391328 16.96875 23.361328 C 16.86875 23.294328 16.708938 23.440938 16.585938 23.710938 L 16.488281 23.917969 L 16.271484 23.964844 C 15.990484 24.026844 15.172453 24.190938 15.064453 24.210938 C 14.994453 24.222938 14.981094 24.216781 14.996094 24.175781 C 15.008094 24.146781 15.043125 24.018719 15.078125 23.886719 C 15.169125 23.523719 15.196125 23.476687 15.328125 23.429688 C 15.486125 23.373687 16.01925 23.145219 16.15625 23.074219 C 16.22125 23.042219 16.352219 22.941516 16.449219 22.853516 C 16.745219 22.578516 16.793031 22.324719 16.582031 22.136719 C 16.523031 22.086719 16.447109 22.033531 16.412109 22.019531 C 16.358109 21.999031 16.264344 21.984016 16.167969 21.978516 z M 16.023438 22.324219 C 16.178438 22.333219 16.239203 22.347531 16.283203 22.394531 C 16.342203 22.453531 16.342063 22.457359 16.289062 22.568359 C 16.254062 22.638359 16.171359 22.720016 16.068359 22.791016 C 15.889359 22.914016 15.3305 23.140609 15.3125 23.099609 C 15.2885 23.032609 15.467031 22.630953 15.582031 22.501953 C 15.734031 22.328953 15.779437 22.310219 16.023438 22.324219 z M 14.369141 24.777344 C 14.390748 24.778792 14.390084 24.797944 14.373047 24.832031 C 14.335047 24.905031 14.234687 24.959453 14.179688 24.939453 C 14.115687 24.913453 14.133328 24.876219 14.236328 24.824219 C 14.303828 24.790719 14.346766 24.775844 14.369141 24.777344 z " style="fill:#ffffff;fill-opacity:1;opacity:0.8" />
    <path d="M 5,30 V 2 h 15 l 7,7 v 21 h -7 z" id="path23-5" style="fill:url(#linearGradient4247);fill-opacity:1" inkscape:connector-curvature="0" />
</svg>
