<?xml version="1.0" encoding="UTF-8" standalone="no"?>
<svg xmlns:svg="http://www.w3.org/2000/svg" xmlns="http://www.w3.org/2000/svg" xmlns:sodipodi="http://sodipodi.sourceforge.net/DTD/sodipodi-0.dtd" xmlns:inkscape="http://www.inkscape.org/namespaces/inkscape" inkscape:version="1.1-dev (d80adc983d, 2020-06-15)" sodipodi:docname="application-certificate.svg" id="svg37" version="1.1" height="32" width="32">
    <sodipodi:namedview inkscape:current-layer="svg37" showgrid="false" id="namedview39" inkscape:window-height="480" inkscape:window-width="640" inkscape:pageshadow="2" inkscape:pageopacity="0" guidetolerance="10" gridtolerance="10" objecttolerance="10" borderopacity="1" bordercolor="#666666" pagecolor="#ffffff" />
    <defs id="defs17">
        <linearGradient gradientTransform="matrix(.5 0 0-.48276 384.57 547.25)" gradientUnits="userSpaceOnUse" x2="0" y2="3" y1="61" id="a">
            <stop offset="0" stop-color="#d91e18" id="stop4" />
            <stop offset="1" stop-color="#cf000f" id="stop2" />
        </linearGradient>
        <linearGradient gradientUnits="userSpaceOnUse" x2="0" y2="524.8" y1="518.04" id="b">
            <stop offset="0" stop-color="#fcbcbe" id="stop9" />
            <stop offset="1" stop-color="#fb7d80" id="stop7" />
        </linearGradient>
        <linearGradient gradientUnits="userSpaceOnUse" x2="411.57" y2="531.8" x1="404.57" y1="524.8" id="c">
            <stop id="stop12" stop-color="#383e51" />
            <stop id="stop14" stop-opacity="0" stop-color="#655c6f" offset="1" />
        </linearGradient>
    </defs>
    <g id="g35" transform="translate(-384.57-515.8)">
        <path id="path19" d="m389.57 545.8v-28h15l7 7v21h-7z" fill="url(#a)" />
        <g id="g25" transform="scale(1-1)">
            <rect id="rect21" fill-opacity=".412" height="1" fill="#ffffff" y="-518.8" x="389.57" width="15" />
            <rect id="rect23" fill-opacity=".294" height="1" fill="#2e3132" y="-545.8" x="389.57" width="22" />
        </g>
        <g id="g31" fill-rule="evenodd">
            <path id="path27" d="m411.57 524.8l-7-7v7z" fill="url(#b)" />
            <path id="path29" d="m411.57 531.8l-7-7h7z" fill="url(#c)" opacity=".2" />
        </g>
        <path id="path33" d="m400.64 526.65c-2.02 0-3.644 1.625-3.644 3.644 0 1.178.556 2.218 1.417 2.883v5.62l2.227-1.62 2.227 1.62v-5.62c.862-.665 1.417-1.706 1.417-2.883 0-2.02-1.625-3.644-3.644-3.644" fill="#fcbcbe" />
    </g>
</svg>
