<svg width="32" xmlns="http://www.w3.org/2000/svg" height="32" xmlns:xlink="http://www.w3.org/1999/xlink">
  <defs
     id="defs13">
    <linearGradient
       id="a"
       y1="392.36"
       y2="365.36"
       x2="0"
       gradientUnits="userSpaceOnUse"
       gradientTransform="translate(309.57,152.44)">
      <stop
         stop-color="#ffffff"
         stop-opacity="0"
         id="stop2" />
      <stop
         offset="1"
         stop-color="#ffffff"
         stop-opacity=".2"
         id="stop4" />
    </linearGradient>
    <linearGradient
       id="b"
       y1="17"
       y2="24"
       x1="47"
       x2="54"
       gradientUnits="userSpaceOnUse"
       gradientTransform="translate(-27,-8)">
      <stop
         stop-color="#060606"
         id="stop7" />
      <stop
         offset="1"
         stop-opacity="0"
         id="stop9" />
    </linearGradient>
    <path
       id="c"
       d="m389.57 545.8v-28h15l7 7v21h-14z" />
  </defs>
  <use
     xlink:href="#c"
     style="color:#000000;color-interpolation:sRGB;color-interpolation-filters:linearRGB;fill:#209ae7;color-rendering:auto;image-rendering:auto;shape-rendering:auto;text-rendering:auto"
     x="0"
     y="0"
     width="100%"
     height="100%"
     transform="translate(-384.57,-515.8)" />
  <g
     style="color:#000000;color-interpolation:sRGB;color-interpolation-filters:linearRGB;color-rendering:auto;image-rendering:auto;shape-rendering:auto;text-rendering:auto"
     transform="matrix(1,0,0,-1,-384.57,-515.8)"
     >
    <rect
       x="389.6"
       y="-518.8"
       width="15"
       height="1"
       id="rect17"
       style="opacity:0.5;fill:#ffffff" />
    <rect
       x="389.6"
       y="-545.8"
       width="22"
       height="1"
       style="opacity:0.25" />
  </g>
  <path
     d="M 27,9 20,2 v 7 z"
     id="path23"
     style="color:#000000;opacity:0.5;color-interpolation:sRGB;color-interpolation-filters:linearRGB;fill:#ffffff;fill-rule:evenodd;color-rendering:auto;image-rendering:auto;shape-rendering:auto;text-rendering:auto" />
  <path
     style="opacity:0.2;fill:url(#b);fill-rule:evenodd"
     d="m 20,9 7,7 V 9 Z" />
  <use
     height="100%"
     width="100%"
     y="0"
     x="0"
     style="fill:url(#a)"
     xlink:href="#c"
     transform="translate(-384.57,-515.8)" />
  <path
     style="color:#31363b;fill:#ffffff;fill-opacity:0.75"
     d="m 16,11 -6,2 v 8 l 6,2 6,-2 v -8 z m 0,1 v 2.836291 L 15.5,15.1 11,13.56 Z m 5,2 v 6.4 L 16,22 v -6 z"
     />
</svg>
