<?xml version="1.0" encoding="UTF-8" standalone="no"?>
<svg
   xmlns:dc="http://purl.org/dc/elements/1.1/"
   xmlns:cc="http://creativecommons.org/ns#"
   xmlns:rdf="http://www.w3.org/1999/02/22-rdf-syntax-ns#"
   xmlns:svg="http://www.w3.org/2000/svg"
   xmlns="http://www.w3.org/2000/svg"
   xmlns:xlink="http://www.w3.org/1999/xlink"
   xmlns:sodipodi="http://sodipodi.sourceforge.net/DTD/sodipodi-0.dtd"
   xmlns:inkscape="http://www.inkscape.org/namespaces/inkscape"
   viewBox="0 0 32 32"
   version="1.1"
   id="svg33"
   sodipodi:docname="application-x-godot-scene.svg"
   inkscape:version="1.0.2 (e86c870879, 2021-01-15)">
  <metadata
     id="metadata37">
    <rdf:RDF>
      <cc:Work
         rdf:about="">
        <dc:format>image/svg+xml</dc:format>
        <dc:type
           rdf:resource="http://purl.org/dc/dcmitype/StillImage" />
      </cc:Work>
    </rdf:RDF>
  </metadata>
  <sodipodi:namedview
     pagecolor="#ffffff"
     bordercolor="#666666"
     borderopacity="1"
     objecttolerance="10"
     gridtolerance="10"
     guidetolerance="10"
     inkscape:pageopacity="0"
     inkscape:pageshadow="2"
     inkscape:window-width="1366"
     inkscape:window-height="712"
     id="namedview35"
     showgrid="false"
     inkscape:zoom="12.131301"
     inkscape:cx="8.8832433"
     inkscape:cy="20.090558"
     inkscape:window-x="0"
     inkscape:window-y="0"
     inkscape:window-maximized="1"
     inkscape:current-layer="svg33"
     inkscape:document-rotation="0" />
  <defs
     id="defs13">
    <linearGradient
       id="a"
       gradientTransform="translate(309.57,152.44)"
       gradientUnits="userSpaceOnUse"
       x2="0"
       y1="392.36"
       y2="365.36">
      <stop
         offset="0"
         stop-color="#fff"
         stop-opacity="0"
         id="stop2" />
      <stop
         offset="1"
         stop-color="#fff"
         stop-opacity=".2"
         id="stop4" />
    </linearGradient>
    <linearGradient
       id="b"
       gradientUnits="userSpaceOnUse"
       x1="404.57"
       x2="411.57"
       y1="524.8"
       y2="531.8"
       gradientTransform="translate(-384.57,-515.8)">
      <stop
         offset="0"
         stop-color="#060606"
         id="stop7" />
      <stop
         offset="1"
         stop-opacity="0"
         id="stop9" />
    </linearGradient>
    <path
       id="c"
       d="m389.57 545.8v-28h15l7 7v21h-14z" />
  </defs>
  <use
     fill="#209ae7"
     xlink:href="#c"
     id="use15"
     x="0"
     y="0"
     width="100%"
     height="100%"
     transform="translate(-384.57,-515.8)"
     style="fill:#8542c2;fill-opacity:1" />
  <g
     transform="matrix(1,0,0,-1,-384.57,-515.8)"
     id="g21">
    <path
       d="m 389.57,-518.8 h 15 v 1 h -15 z"
       fill="#ffffff"
       opacity="0.5"
       id="path17" />
    <path
       d="m 389.57,-545.8 h 22 v 1 h -22 z"
       opacity="0.25"
       id="path19" />
  </g>
  <path
     d="M 27,9 20,2 v 7 z"
     fill="#ffffff"
     fill-rule="evenodd"
     opacity="0.5"
     id="path23" />
  <path
     d="m 20,9 7,7 V 9 Z"
     fill="url(#b)"
     fill-rule="evenodd"
     opacity="0.2"
     id="path25"
     style="fill:url(#b)" />
  <g
     id="g44"
     style="opacity:0.75">
    <path
       id="path84-6-5-6"
       style="fill:#ffffff;fill-opacity:1;fill-rule:nonzero;stroke:none;stroke-width:0.02"
       d="m 14.584232,9.4365623 c -0.63588,0.1413623 -1.264901,0.338174 -1.854639,0.6350097 0.01349,0.520743 0.04716,1.019695 0.115401,1.526514 -0.229027,0.146732 -0.469756,0.272663 -0.683672,0.444433 -0.217351,0.167212 -0.439315,0.327185 -0.636123,0.522745 -0.39318,-0.26006 -0.80932,-0.504449 -1.238027,-0.720176 -0.4621128,0.497328 -0.8941998,1.0341 -1.2471684,1.634765 0.2773957,0.435432 0.5749423,0.873086 0.8504883,1.214385 v 2.966748 0.376817 0.342919 c 0.00674,6e-5 0.013475,3.14e-4 0.020156,9.38e-4 l 2.2600491,0.21791 c 0.118385,0.01143 0.211191,0.106717 0.219433,0.225352 l 0.06967,0.997646 1.971446,0.140684 0.13582,-0.920801 c 0.01761,-0.119384 0.120004,-0.207861 0.240762,-0.207861 h 2.384414 c 0.120695,0 0.223095,0.08848 0.240703,0.207861 l 0.13582,0.920801 1.971504,-0.140684 0.06964,-0.997646 c 0.0083,-0.118635 0.10102,-0.213863 0.219404,-0.225352 l 2.25917,-0.21791 c 0.0067,-6.24e-4 0.01336,-8.76e-4 0.0201,-9.38e-4 v -0.294169 l 9.3e-4,-2.93e-4 v -3.392022 c 0.318248,-0.400639 0.619602,-0.842572 0.850488,-1.214385 -0.352843,-0.600664 -0.785172,-1.137437 -1.247284,-1.634765 -0.428583,0.215727 -0.844878,0.460116 -1.238058,0.720176 -0.196744,-0.19556 -0.418343,-0.355533 -0.636006,-0.522745 -0.213854,-0.17177 -0.454847,-0.297701 -0.683437,-0.444433 0.06806,-0.506819 0.101704,-1.005771 0.115254,-1.526514 -0.5898,-0.2968354 -1.218739,-0.4936474 -1.854932,-0.6350097 -0.254002,0.4268966 -0.486291,0.8891887 -0.688594,1.3411227 -0.239891,-0.04009 -0.480899,-0.05493 -0.722226,-0.0578 v -3.81e-4 c -0.0017,0 -0.0033,3.81e-4 -0.0047,3.81e-4 -0.0015,0 -0.0031,-3.81e-4 -0.0046,-3.81e-4 v 3.81e-4 c -0.241764,0.0029 -0.482595,0.01772 -0.722549,0.0578 -0.202178,-0.451934 -0.434304,-0.9142261 -0.688681,-1.3411227 z m -1.787988,5.3928517 c 0.752267,0 1.361982,0.609262 1.361982,1.361279 0,0.752517 -0.609715,1.362129 -1.361982,1.362129 -0.751893,0 -1.361807,-0.609612 -1.361807,-1.362129 0,-0.752017 0.609914,-1.361279 1.361807,-1.361279 z m 6.407695,0 c 0.75183,0 1.36166,0.609262 1.36166,1.361279 0,0.752517 -0.60983,1.362129 -1.36166,1.362129 -0.752392,0 -1.362129,-0.609612 -1.362129,-1.362129 0,-0.752017 0.609737,-1.361279 1.362129,-1.361279 z m -3.204023,0.79664 c 0.242139,0 0.438808,0.178623 0.438808,0.398409 v 1.253847 c 0,0.219973 -0.196669,0.398438 -0.438808,0.398438 -0.242139,0 -0.438399,-0.178465 -0.438399,-0.398438 v -1.253847 c 0,-0.219786 0.19626,-0.398409 0.438399,-0.398409 z" />
    <path
       d="m 20.08108,19.064285 -0.06999,1.00296 c -0.0084,0.120882 -0.104585,0.217101 -0.225467,0.22578 l -2.407342,0.17177 c -0.0059,4.36e-4 -0.01174,6.24e-4 -0.01755,6.24e-4 -0.119633,0 -0.222845,-0.08779 -0.240515,-0.207922 l -0.138053,-0.936213 h -1.964274 l -0.138053,0.936213 c -0.01854,0.126002 -0.131185,0.216601 -0.258061,0.207298 l -2.407342,-0.17177 c -0.120882,-0.0087 -0.217039,-0.104898 -0.225468,-0.22578 l -0.07,-1.00296 -2.0322077,-0.195935 c 9.36e-4,0.218413 0.00375,0.45768 0.00375,0.505321 0,2.146283 2.7226597,3.177903 6.1053647,3.189767 h 0.0041 0.0042 c 3.382704,-0.01186 6.104428,-1.043484 6.104428,-3.189767 0,-0.04852 0.0029,-0.286783 0.0039,-0.50532 z"
       style="fill:#ffffff;fill-opacity:1;fill-rule:nonzero;stroke:none;stroke-width:0.02"
       id="path88-5-2-7"
       inkscape:connector-curvature="0" />
  </g>
  <use
     fill="url(#a)"
     height="100%"
     width="100%"
     xlink:href="#c"
     id="use27"
     style="fill:url(#a)"
     x="0"
     y="0"
     transform="translate(-384.57,-515.8)" />
</svg>
