<?xml version="1.0" encoding="UTF-8" standalone="no"?>
<svg xmlns:dc="http://purl.org/dc/elements/1.1/" xmlns:cc="http://creativecommons.org/ns#" xmlns:rdf="http://www.w3.org/1999/02/22-rdf-syntax-ns#" xmlns:svg="http://www.w3.org/2000/svg" xmlns="http://www.w3.org/2000/svg" xmlns:xlink="http://www.w3.org/1999/xlink" xmlns:sodipodi="http://sodipodi.sourceforge.net/DTD/sodipodi-0.dtd" xmlns:inkscape="http://www.inkscape.org/namespaces/inkscape" sodipodi:docname="application-x-font-otf.svg" inkscape:version="1.1-dev (d80adc983d, 2020-06-15)" id="svg2" height="32" version="1.1" width="32">
    <sodipodi:namedview inkscape:current-layer="layer1" inkscape:window-maximized="1" inkscape:window-y="30" inkscape:window-x="0" inkscape:cy="16" inkscape:cx="16" inkscape:zoom="7.375" showgrid="false" id="namedview26" inkscape:window-height="1021" inkscape:window-width="1920" inkscape:pageshadow="2" inkscape:pageopacity="0" guidetolerance="10" gridtolerance="10" objecttolerance="10" borderopacity="1" bordercolor="#666666" pagecolor="#ffffff" />
    <defs id="defs5455">
        <linearGradient gradientTransform="matrix(0.49999977,0,0,-0.48275841,384.57144,547.24623)" gradientUnits="userSpaceOnUse" x2="0" y2="3" y1="61" id="linearGradient4306-3" xlink:href="#linearGradient4300" inkscape:collect="always" />
        <linearGradient id="linearGradient4300" inkscape:collect="always">
            <stop offset="0" style="stop-color:#19b5fe" id="stop4304" />
            <stop offset="1" style="stop-color:#22a7f0" id="stop4302" />
        </linearGradient>
        <linearGradient gradientTransform="matrix(0.48275841,0,0,-0.48275841,385.26109,547.48761)" gradientUnits="userSpaceOnUse" x2="0" y2="47" y1="61" id="linearGradient4357-7" xlink:href="#linearGradient4351" inkscape:collect="always" />
        <linearGradient id="linearGradient4351" inkscape:collect="always">
            <stop offset="0" style="stop-color:#ffffff" id="stop4355" />
            <stop offset="1" style="stop-color:#c8e3fe" id="stop4353" />
        </linearGradient>
        <linearGradient gradientTransform="matrix(0,-0.48275841,-0.48275841,0,419.53694,550.86696)" gradientUnits="userSpaceOnUse" x2="39.500008" y2="16.500048" x1="54" y1="31" id="linearGradient4427-3" xlink:href="#linearGradient4410" inkscape:collect="always" />
        <linearGradient id="linearGradient4410" inkscape:collect="always">
            <stop id="stop4412" style="stop-color:#383e51" />
            <stop id="stop4414" style="stop-color:#655c6f;stop-opacity:0" offset="1" />
        </linearGradient>
    </defs>
    <metadata id="metadata5458">
        <rdf:RDF>
            <cc:Work rdf:about="">
                <dc:format>image/svg+xml</dc:format>
                <dc:type rdf:resource="http://purl.org/dc/dcmitype/StillImage" />
            </cc:Work>
        </rdf:RDF>
    </metadata>
    <g transform="matrix(1 0 0 1 -384.57143 -515.798)" id="layer1" inkscape:groupmode="layer" inkscape:label="Capa 1">
        <path d="m 389.57144,545.79796 0,-27.99999 14.99999,0 7.00003,7 -3e-5,14.24137 0,6.75862 -7,0 z" id="rect3500-2" style="fill:url(#linearGradient4306-3);fill-opacity:1" inkscape:connector-curvature="0" />
        <rect transform="scale(1,-1)" id="rect4169-9" style="fill:#ffffff;fill-opacity:0.41176471" height="0.999973" y="-518.79797" x="389.57144" width="14.999983" />
        <rect transform="scale(1,-1)" id="rect4236-1" style="fill:#2e3132;fill-opacity:0.29411765" height="1.00003" y="-545.79797" x="389.57144" width="21.999994" />
        <path d="m 411.57144,524.79797 -7.00001,-7 0,7 z" id="path4314-2" style="fill:url(#linearGradient4357-7);fill-opacity:1;fill-rule:evenodd" inkscape:connector-curvature="0" />
        <path d="m 411.5714,531.798 -6.99997,-7 7,0 z" id="path4320-7" style="opacity:0.2;fill:url(#linearGradient4427-3);fill-rule:evenodd" inkscape:connector-curvature="0" />
        <path d="m 398.77076,538.35976 c -1.01917,0 -1.71406,-0.49427 -1.52876,-1.75267 0.23164,-1.57312 1.20448,-2.09002 4.28518,-2.517 0.0231,0 0.97285,-0.15721 0.97285,-0.15721 l -0.39378,2.78656 c -0.83387,1.01117 -2.33947,1.64032 -3.33549,1.64032 z m 3.17335,-0.13468 0.0463,1.30326 1.32028,0 1.20449,-8.42698 c 0.37061,-2.56176 -1.13499,-3.30336 -3.24284,-3.30336 -1.5056,0 -2.98804,0.42698 -3.86823,0.92144 l 0.2548,1.39318 c 0.94968,-0.4494 2.24681,-0.76393 3.42813,-0.76393 1.45928,0 1.99203,0.69654 1.80672,2.04486 l -0.20846,1.28093 -1.08867,0.13479 c -2.80273,0.42697 -5.53598,0.85395 -5.97607,3.86511 -0.32429,2.15732 0.99601,3.12362 2.7564,3.12362 1.11183,0 2.47845,-0.40445 3.56711,-1.57292 z" style="font-style:italic;font-variant:normal;font-weight:normal;font-stretch:normal;font-size:medium;line-height:125%;font-family:Oxygen;-inkscape-font-specification:'Oxygen Italic';letter-spacing:0px;word-spacing:0px;fill:#ffffff;fill-opacity:1;stroke:none" id="path4124" inkscape:connector-curvature="0" />
    </g>
</svg>
