<svg viewBox="0 0 32 32" xmlns="http://www.w3.org/2000/svg">
    <linearGradient id="a" x2="0" y1="61" y2="3" gradientTransform="matrix(.5 0 0 -.48276 0 31.448)" gradientUnits="userSpaceOnUse">
        <stop stop-color="#8e44ad" offset="0"/>
        <stop stop-color="#9b59b6" offset="1"/>
    </linearGradient>
    <linearGradient id="b" x2="0" y1="2.241" y2="9" gradientUnits="userSpaceOnUse">
        <stop stop-color="#d3bdd7" offset="0"/>
        <stop stop-color="#e8d9eb" offset="1"/>
    </linearGradient>
    <linearGradient id="c" x1="20" x2="27" y1="9" y2="16" gradientUnits="userSpaceOnUse">
        <stop stop-color="#383e51" offset="0"/>
        <stop stop-color="#655c6f" stop-opacity="0" offset="1"/>
    </linearGradient>
    <path d="m5 30v-28h15l7 7v21h-7z" fill="url(#a)"/>
    <g transform="scale(1 -1)">
        <path d="m5-3h15v1h-15z" fill="#fff" fill-opacity=".412"/>
        <path d="m5-30h22v1h-22z" fill="#2e3132" fill-opacity=".294"/>
    </g>
    <g fill-rule="evenodd">
        <path d="m27 9-7-7v7z" fill="url(#b)"/>
        <path d="m27 16-7-7h7z" fill="url(#c)" opacity=".2"/>
    </g>
    <path d="m10 14v2h2v6h-2v2h6v-2h-2l.002-2h2.998v1.5c.000071.94068.378795 1.841734 1.050781 2.5h3.898438c.671986-.658266 1.05071-1.55932 1.050781-2.5v-1.5h-2v1c0 .552285-.447715 1-1 1s-1-.447715-1-1v-1a1 1 0 0 0 -1-1h-.5c1.380712 0 2.5-1.119288 2.5-2.5s-1.119288-2.5-2.5-2.5zm4.001953 2h2.998047c.552285 0 1 .447715 1 1 0 .552284-.447715 1-1 1h-3z" fill="#e8d9eb" stroke-width=".190476"/>
</svg>
