<svg xmlns="http://www.w3.org/2000/svg" xmlns:xlink="http://www.w3.org/1999/xlink" viewBox="0 0 128 128">
  <defs id="defs3051">
    <style type="text/css" id="current-color-scheme">
      .ColorScheme-Text {
        color:#4d4d4d;
      }
      .ColorScheme-Highlight {
        color:#3daee9;
      }
      </style>
    <linearGradient
       id="linearGradient853-6">
      <stop
         style="stop-color:#000000;stop-opacity:1"
         offset="0"
         id="stop849" />
      <stop
         style="stop-color:#000000;stop-opacity:0"
         offset="1"
         id="stop851" />
    </linearGradient>
    <linearGradient
       xlink:href="#linearGradient4213"
       id="linearGradient6632"
       gradientUnits="userSpaceOnUse"
       x1="60.000046"
       y1="982.36224"
       x2="115"
       y2="1037.3622"
       gradientTransform="matrix(1.2800007,0,0,1.28,-7e-5,-1219.0238)" />
    <linearGradient
       gradientTransform="translate(0,-924.36216)"
       xlink:href="#linearGradient853-6"
       id="linearGradient855"
       x1="76.799972"
       y1="996.68221"
       x2="128"
       y2="1052.3622"
       gradientUnits="userSpaceOnUse" />
    <linearGradient
       gradientTransform="translate(0,-924.36216)"
       xlink:href="#linearGradient853-6"
       id="linearGradient868"
       x1="63.999966"
       y1="980.68219"
       x2="94.964981"
       y2="1011.6497"
       gradientUnits="userSpaceOnUse" />
  </defs>
  <path
     id="rect5879"
     d="M 0,0 V 128 H 128 V 0 Z"
     class="ColorScheme-Highlight"
     style="fill:currentColor;fill-opacity:1;stroke:none" />
  <path
     id="path6"
     style="opacity:0.2;fill:url(#linearGradient855);fill-opacity:1;fill-rule:evenodd;stroke:none;stroke-width:1px;stroke-linecap:butt;stroke-linejoin:miter;stroke-opacity:1"
     d="M 89.599979,16.64006 128,55.04001 v 72.96003 H 76.799972 Z" />
  <path
     style="color:#eff0f1;fill:currentColor;fill-opacity:1;stroke:none"
     d="m 89.599979,128.00004 c -6.400003,-12.8 -3.840002,-30.72 -3.840002,-30.72 H 42.239953 c 0,0 2.560001,17.92 -3.840002,30.72 z"
     id="path6510" />
  <path
     id="path6512"
     d="m 64,12.800781 c -15.360008,0 -38.400391,6.79969 -38.400391,47.59961 0,22.80001 12.799761,38.160547 21.759766,44.560549 8.960005,6.4 11.093956,8.47851 16.640625,8.47851 5.546669,0 7.68062,-2.07851 16.640625,-8.47851 8.135113,-5.810794 19.433505,-19.009616 21.445315,-38.455081 2.61807,-0.740441 2.88559,-2.558246 3.42578,-4.939453 0.53061,-2.33907 2.54942,-3.890855 1.95117,-11.265625 -0.37392,-4.60929 -1.52512,-6.716777 -5.45703,-6.779297 -0.38212,-0.0058 -0.78504,0.01514 -1.19727,0.05078 C 95.342085,17.632961 76.944615,12.800781 64,12.800781 Z m -39.285156,32 c -3.931915,0.06251 -5.083119,2.170007 -5.457032,6.779297 -0.598258,7.37473 1.418605,8.926555 1.949219,11.265625 0.55221,2.43418 0.804614,4.286811 3.589844,4.994141 -0.181961,-2.94132 -0.19328,-6.077253 0.0039,-9.445313 0.28858,-4.92928 1.010733,-9.384674 2.080078,-13.433593 -0.761382,-0.107751 -1.490465,-0.170357 -2.166015,-0.160157 z"
     style="color:#eff0f1;fill:currentColor;fill-opacity:1;stroke:none" />
  <path
     id="path10"
     style="opacity:0.1;fill:url(#linearGradient868);fill-opacity:1;fill-rule:evenodd;stroke:none;stroke-width:1px;stroke-linecap:butt;stroke-linejoin:miter;stroke-opacity:1"
     d="m 63.999965,56.32003 -5.368003,21.76001 23.280013,23.28 13.053007,-14.0725 z" />
  <path
     id="path6520"
     d="M 78.640625,7.6796875 61.439453,12.800781 c 3.344082,13.376322 23.190046,43.108936 35.023438,38.853516 -0.749384,2.261243 -0.4332,4.620167 0.05469,5.318359 -1.454884,1.20153 -3.843234,9.276309 -2.761719,10.824219 -1.454912,1.20115 -2.202632,6.699997 -1.121093,8.248047 -1.454878,1.2015 -2.292481,7.260694 -1.210938,8.808594 -1.454956,1.2014 -3.396082,5.063334 0.591797,5.490234 6.507922,0.6982 9.272832,-1.916316 9.458982,-3.291016 1.45496,-1.2017 6.19286,-7.555715 5.11133,-9.103515 1.45493,-1.2014 6.19287,-7.561465 5.11133,-9.109375 1.45498,-1.20153 4.9353,-7.73148 3.8457,-9.28125 1.45494,-1.20153 0.55581,-11.237452 -9.92188,-12.544922 -1.76454,-0.220091 -3.21865,-0.122157 -4.41992,0.191406 C 111.16534,29.496031 78.640625,7.6796875 78.640625,7.6796875 Z M 46.080078,10.240234 C 36.986099,10.532664 27.714469,9.4391906 20.925781,27.712891 l 5.289063,19.720703 c -1.059018,-0.187008 -2.288541,-0.220627 -3.728516,-0.04102 -10.477693,1.30755 -11.376824,11.341449 -9.921875,12.542969 -1.08962,1.54978 2.38881,8.081673 3.84375,9.283203 -1.081522,1.54778 3.658342,7.907875 5.113281,9.109375 -1.081523,1.5478 3.656401,7.901916 5.111328,9.103516 0.186172,1.3748 2.949111,3.989215 9.457032,3.291015 3.987879,-0.4269 2.04677,-4.288734 0.591797,-5.490234 1.081543,-1.5479 0.243923,-7.607194 -1.210938,-8.808594 1.081539,-1.54808 0.335786,-7.046767 -1.119141,-8.248047 1.081514,-1.54791 -1.306829,-9.622698 -2.761718,-10.824219 0.646551,-0.925247 0.991089,-4.761886 -1.058594,-7.425781 C 30.066399,46.928728 28.696322,36.404901 32,32 35.840003,26.88 61.440861,24.320781 58.880859,12.800781 Z m 0.957031,40.966797 c -1.695253,0.08095 -3.382211,0.865145 -3.757812,2.435547 -0.500769,2.09381 0.634723,3.073045 2.710937,3.578125 2.076205,0.50502 5.089043,0.345733 5.589844,-1.748047 0.500801,-2.09386 -0.81831,-3.610174 -2.894531,-4.115234 -0.519056,-0.126268 -1.083353,-0.177374 -1.648438,-0.150391 z m 33.925782,0 c -0.565085,-0.02698 -1.131335,0.02412 -1.650391,0.150391 -2.076221,0.50506 -3.395332,2.021374 -2.894531,4.115234 0.500801,2.09378 3.513638,2.253067 5.589843,1.748047 2.076215,-0.50508 3.21366,-1.484315 2.712891,-3.578125 -0.375601,-1.570402 -2.062559,-2.354596 -3.757812,-2.435547 z"
     class="ColorScheme-Highlight"
     style="fill:currentColor;fill-opacity:1;stroke:none" />
  <path
     id="ellipse6528"
     d="m 61.923828,11.445312 c -0.612241,0.01149 -1.22877,0.03674 -1.849609,0.07813 -19.674709,1.31166 -31.539063,13.169921 -31.539063,13.169921 a 1.2809411,1.2809404 0 0 0 1.810547,1.8125 c 0,0 11.173126,-11.181347 29.898438,-12.429687 18.533172,-1.23555 33.611328,12.466797 33.611328,12.466797 a 1.2801918,1.2801911 0 0 0 1.730469,-1.886719 c -10e-7,0 -14.682634,-13.56709 -33.66211,-13.210938 z m -1.265625,4.482422 c -0.603008,0.0088 -1.20901,0.03347 -1.820312,0.07422 -19.439244,1.29595 -29.875,13.011719 -29.875,13.011719 a 0.6404421,0.64044175 0 0 0 0.955078,0.853516 c 0,0 10.043129,-11.323841 29.003906,-12.587891 18.838335,-1.25588 34.066406,13.892578 34.066406,13.892578 a 0.64012558,0.64012523 0 1 0 0.904297,-0.90625 c 0,0 -14.541125,-14.610327 -33.234375,-14.337892 z m 43.021487,5.832032 a 3.2000017,3.8399999 0 0 0 -3.19922,3.839843 3.2000017,3.8399999 0 0 0 3.19922,3.839844 3.2000017,3.8399999 0 0 0 3.20117,-3.839844 3.2000017,3.8399999 0 0 0 -3.20117,-3.839843 z m -6.400393,6.40039 A 3.2000017,3.8399999 0 0 0 94.080078,32 3.2000017,3.8399999 0 0 0 97.279297,35.839844 3.2000017,3.8399999 0 0 0 100.48047,32 3.2000017,3.8399999 0 0 0 97.279297,28.160156 Z m 7.041013,2.560547 a 3.2000017,3.8399999 0 0 0 -3.20117,3.839844 3.2000017,3.8399999 0 0 0 3.20117,3.839844 3.2000017,3.8399999 0 0 0 3.19922,-3.839844 3.2000017,3.8399999 0 0 0 -3.19922,-3.839844 z"
     style="fill:#2ecc71;fill-opacity:1;stroke:none" />
  <path
     id="path14"
     d="m 63.999965,56.32 c 1.920001,0 1.463101,8.13772 3.840002,14.08 2.560001,6.40004 3.840002,8.96004 -3.840002,8.96004 -7.680004,0 -6.400004,-2.56 -3.840002,-8.96004 2.376901,-5.94228 1.920001,-14.08 3.840002,-14.08 z"
     style="fill:#2ecc71;fill-opacity:1;stroke:none" />
  <path
     id="path16"
     d="M 59.621094,86.943359 C 58.456249,86.994962 57.2,87.442797 56,88.591797 c -1.600001,1.532 -4.800781,0.640625 -4.800781,0.640625 1.600001,3.0639 6.400777,8.046875 12.800781,8.046875 6.400003,0 11.20078,-4.982975 12.800781,-8.046875 0,0 -3.20078,0.891375 -4.800781,-0.640625 -3.200001,-3.064 -6.799999,-1.1489 -8,0 -0.750001,-0.718063 -2.437499,-1.734443 -4.378906,-1.648438 z m -5.861328,3.296875 c 6.960101,1.055993 13.379804,0.666984 20.480468,0 0,0 -3.840231,3.839844 -10.240234,3.839844 -6.400004,0 -10.240234,-3.839844 -10.240234,-3.839844 z"
     class="ColorScheme-Highlight"
     style="fill:currentColor;fill-opacity:1;stroke:none" />
</svg>
