<?xml version="1.0" encoding="UTF-8" standalone="no"?><!DOCTYPE svg PUBLIC "-//W3C//DTD SVG 1.1//EN" "http://www.w3.org/Graphics/SVG/1.1/DTD/svg11.dtd"><svg width="100%" height="100%" viewBox="0 0 512 512" version="1.1" xmlns="http://www.w3.org/2000/svg" xmlns:xlink="http://www.w3.org/1999/xlink" xml:space="preserve" xmlns:serif="http://www.serif.com/" style="fill-rule:evenodd;clip-rule:evenodd;stroke-linecap:round;stroke-linejoin:round;stroke-miterlimit:1.5;"><g transform="matrix(1.030181,0,0,1.030181,-18.918107,-20.157008)"><path d="M515.364,84.176L515.364,451.956C515.364,487.616 486.413,516.566 450.754,516.566L82.974,516.566C47.315,516.566 18.364,487.616 18.364,451.956L18.364,84.176C18.364,48.517 47.315,19.566 82.974,19.566L450.754,19.566C486.413,19.566 515.364,48.517 515.364,84.176Z" style="fill:url(#_Linear1);"/><clipPath id="_clip2"><path d="M515.364,84.176L515.364,451.956C515.364,487.616 486.413,516.566 450.754,516.566L82.974,516.566C47.315,516.566 18.364,487.616 18.364,451.956L18.364,84.176C18.364,48.517 47.315,19.566 82.974,19.566L450.754,19.566C486.413,19.566 515.364,48.517 515.364,84.176Z"/></clipPath><g clip-path="url(#_clip2)"><g transform="matrix(1.000503,0,0,1.000503,10.860084,12.062688)"><path d="M259.592,238.229C257.815,238.499 256.035,237.764 254.965,236.319C213.393,180.476 148.598,145.925 75.667,138.159C70.571,137.636 66.695,133.343 66.695,128.22C66.687,117.405 66.687,99.426 66.687,87.948C66.687,85.143 67.865,82.467 69.933,80.573C72.002,78.679 74.77,77.74 77.564,77.986C175.63,87.013 261.748,137.062 313.285,214.947C314.044,216.104 314.273,217.53 313.913,218.867C313.553,220.203 312.64,221.322 311.402,221.942C307.241,224.013 302.796,226.061 298.095,228.014C281.679,234.835 268.898,236.838 259.592,238.229ZM261.903,378.566C260.907,383.046 256.911,386.386 252.143,386.386L214.502,386.387C211.822,386.387 209.254,385.311 207.374,383.401C205.494,381.49 204.46,378.905 204.503,376.225C204.522,375.351 204.53,374.476 204.53,373.599C204.53,299.906 147.913,239.333 75.842,233.04C70.674,232.601 66.702,228.278 66.702,223.091C66.687,212.706 66.687,195.071 66.687,184.314C66.687,181.548 67.833,178.905 69.852,177.014C71.872,175.123 74.584,174.154 77.345,174.336C147.249,179.189 207.25,220.256 238.69,278.884C239.466,320.675 248.882,353.884 261.903,378.566ZM112.939,298.667C137.805,298.667 157.993,318.855 157.993,343.721C157.993,368.587 137.805,388.776 112.939,388.776C88.073,388.776 67.885,368.587 67.885,343.721C67.885,318.855 88.073,298.667 112.939,298.667ZM445.089,259.242C456.173,409.547 349.52,438.9 349.52,438.9C349.52,438.9 242.839,409.547 253.923,259.242M253.923,259.242C254.959,245.191 271.216,253.845 304.401,240.056C325.086,231.461 340.138,220.786 346.356,215.997C348.193,214.499 350.83,214.499 352.666,215.999C358.883,220.787 373.927,231.462 394.611,240.056C427.796,253.845 444.053,245.191 445.089,259.242" style="fill:url(#_Linear3);"/><clipPath id="_clip4"><path d="M259.592,238.229C257.815,238.499 256.035,237.764 254.965,236.319C213.393,180.476 148.598,145.925 75.667,138.159C70.571,137.636 66.695,133.343 66.695,128.22C66.687,117.405 66.687,99.426 66.687,87.948C66.687,85.143 67.865,82.467 69.933,80.573C72.002,78.679 74.77,77.74 77.564,77.986C175.63,87.013 261.748,137.062 313.285,214.947C314.044,216.104 314.273,217.53 313.913,218.867C313.553,220.203 312.64,221.322 311.402,221.942C307.241,224.013 302.796,226.061 298.095,228.014C281.679,234.835 268.898,236.838 259.592,238.229ZM261.903,378.566C260.907,383.046 256.911,386.386 252.143,386.386L214.502,386.387C211.822,386.387 209.254,385.311 207.374,383.401C205.494,381.49 204.46,378.905 204.503,376.225C204.522,375.351 204.53,374.476 204.53,373.599C204.53,299.906 147.913,239.333 75.842,233.04C70.674,232.601 66.702,228.278 66.702,223.091C66.687,212.706 66.687,195.071 66.687,184.314C66.687,181.548 67.833,178.905 69.852,177.014C71.872,175.123 74.584,174.154 77.345,174.336C147.249,179.189 207.25,220.256 238.69,278.884C239.466,320.675 248.882,353.884 261.903,378.566ZM112.939,298.667C137.805,298.667 157.993,318.855 157.993,343.721C157.993,368.587 137.805,388.776 112.939,388.776C88.073,388.776 67.885,368.587 67.885,343.721C67.885,318.855 88.073,298.667 112.939,298.667ZM445.089,259.242C456.173,409.547 349.52,438.9 349.52,438.9C349.52,438.9 242.839,409.547 253.923,259.242M253.923,259.242C254.959,245.191 271.216,253.845 304.401,240.056C325.086,231.461 340.138,220.786 346.356,215.997C348.193,214.499 350.83,214.499 352.666,215.999C358.883,220.787 373.927,231.462 394.611,240.056C427.796,253.845 444.053,245.191 445.089,259.242"/></clipPath><g clip-path="url(#_clip4)"><g transform="matrix(0.379669,0,0,0.790969,216.270046,72.730839)"><rect x="348.636" y="176.956" width="270.08" height="290.68" style="fill:url(#_Linear5);"/></g></g><path d="M259.592,238.229C257.815,238.499 256.035,237.764 254.965,236.319C213.393,180.476 148.598,145.925 75.667,138.159C70.571,137.636 66.695,133.343 66.695,128.22C66.687,117.405 66.687,99.426 66.687,87.948C66.687,85.143 67.865,82.467 69.933,80.573C72.002,78.679 74.77,77.74 77.564,77.986C175.63,87.013 261.748,137.062 313.285,214.947C314.044,216.104 314.273,217.53 313.913,218.867C313.553,220.203 312.64,221.322 311.402,221.942C307.241,224.013 302.796,226.061 298.095,228.014C281.679,234.835 268.898,236.838 259.592,238.229ZM261.903,378.566C260.907,383.046 256.911,386.386 252.143,386.386L214.502,386.387C211.822,386.387 209.254,385.311 207.374,383.401C205.494,381.49 204.46,378.905 204.503,376.225C204.522,375.351 204.53,374.476 204.53,373.599C204.53,299.906 147.913,239.333 75.842,233.04C70.674,232.601 66.702,228.278 66.702,223.091C66.687,212.706 66.687,195.071 66.687,184.314C66.687,181.548 67.833,178.905 69.852,177.014C71.872,175.123 74.584,174.154 77.345,174.336C147.249,179.189 207.25,220.256 238.69,278.884C239.466,320.675 248.882,353.884 261.903,378.566ZM112.939,298.667C137.805,298.667 157.993,318.855 157.993,343.721C157.993,368.587 137.805,388.776 112.939,388.776C88.073,388.776 67.885,368.587 67.885,343.721C67.885,318.855 88.073,298.667 112.939,298.667ZM445.089,259.242C456.173,409.547 349.52,438.9 349.52,438.9C349.52,438.9 242.839,409.547 253.923,259.242M253.923,259.242C254.959,245.191 271.216,253.845 304.401,240.056C325.086,231.461 340.138,220.786 346.356,215.997C348.193,214.499 350.83,214.499 352.666,215.999C358.883,220.787 373.927,231.462 394.611,240.056C427.796,253.845 444.053,245.191 445.089,259.242" style="fill:none;stroke:#696969;stroke-width:2.43px;"/></g></g><path d="M515.364,84.176L515.364,451.956C515.364,487.616 486.413,516.566 450.754,516.566L82.974,516.566C47.315,516.566 18.364,487.616 18.364,451.956L18.364,84.176C18.364,48.517 47.315,19.566 82.974,19.566L450.754,19.566C486.413,19.566 515.364,48.517 515.364,84.176ZM513.422,84.176C513.422,49.589 485.342,21.508 450.754,21.508L82.974,21.508C48.386,21.508 20.305,49.589 20.305,84.176L20.305,451.956C20.305,486.544 48.386,514.625 82.974,514.625L450.754,514.625C485.342,514.625 513.422,486.544 513.422,451.956L513.422,84.176Z" style="fill:#696969;"/></g><defs><linearGradient id="_Linear1" x1="0" y1="0" x2="1" y2="0" gradientUnits="userSpaceOnUse" gradientTransform="matrix(0,-496.999985,496.999985,0,266.988921,516.566455)"><stop offset="0" style="stop-color:#ac0000;stop-opacity:1"/><stop offset="0.43" style="stop-color:#ba2600;stop-opacity:1"/><stop offset="1" style="stop-color:#d97b00;stop-opacity:1"/></linearGradient><linearGradient id="_Linear3" x1="0" y1="0" x2="1" y2="0" gradientUnits="userSpaceOnUse" gradientTransform="matrix(-3.330347,-364.951833,386.914072,-3.530762,268.527725,438.89967)"><stop offset="0" style="stop-color:#fbefe3;stop-opacity:1"/><stop offset="0.48" style="stop-color:#fef9f2;stop-opacity:1"/><stop offset="1" style="stop-color:#fffcf6;stop-opacity:1"/></linearGradient><linearGradient id="_Linear5" x1="0" y1="0" x2="1" y2="0" gradientUnits="userSpaceOnUse" gradientTransform="matrix(0,-223.034183,240.045264,0,348.63627,438.89967)"><stop offset="0" style="stop-color:#f6eadf;stop-opacity:1"/><stop offset="1" style="stop-color:#fbf4ea;stop-opacity:1"/></linearGradient></defs></svg>