<?xml version="1.0" encoding="UTF-8"?>
<svg xmlns="http://www.w3.org/2000/svg" xmlns:xlink="http://www.w3.org/1999/xlink" xmlns:cc="http://creativecommons.org/ns#" xmlns:dc="http://purl.org/dc/elements/1.1/" xmlns:rdf="http://www.w3.org/1999/02/22-rdf-syntax-ns#" xmlns:inkscape="http://www.inkscape.org/namespaces/inkscape" xmlns:sodipodi="http://sodipodi.sourceforge.net/DTD/sodipodi-0.dtd" width="32" height="32">
    <style type="text/css" id="current-color-scheme">
      .ColorScheme-Text {
        color:#31363b;
      }
      </style>
    <g id="amarok" transform="translate(-22,0)">
    <path id="path12" class="ColorScheme-Text" d="m 38,4.0015187 c -6.627417,0 -12,5.371263 -12,11.9983393 C 26,22.626935 31.372583,28 38,28 c 6.627417,0 12,-5.373065 12,-12.000142 0,-1.91819 -0.450828,-3.732117 -1.251202,-5.340208 -0.0095,-0.0169 -0.03518,-0.04135 -0.04326,-0.05769 7.05e-4,-3.46e-4 0.0076,-0.0036 0.009,-0.0036 0.27756,-0.327823 0.421875,-0.7015459 0.421875,-1.0655172 0,-0.2628315 -0.103652,-0.5344819 -0.194711,-0.7391914 4.35e-4,3.9e-4 0.009,0.00541 0.009,0.00541 0,0 -0.0012,-0.1846343 -0.113582,-0.4471207 -0.1125,-0.2624865 -0.261418,-0.4507265 -0.261418,-0.4507265 0,0 -0.35625,0.056253 -0.5625,0.093751 C 47.81867,8.030354 47.30411,8.3144267 47.24339,8.348325 44.674273,5.8323072 42.126075,3.9386923 38,4.0015187 Z m 0.299279,0.6003678 c 3.233029,0.0049 6.303703,1.4188549 8.408654,3.8726419 -1.157611,0.2860654 -2.980604,0.9511482 -3.61839,1.11059 C 42.347074,9.7707189 41.999445,9.9377292 40.808894,9.824905 39.45186,9.6963616 38.843734,9.6865492 38.486779,9.6968987 37.952269,9.6496513 37.68089,9.5328342 37.68089,9.5328342 l 0.04687,0.5264488 c -0.35536,0.270929 -1.070666,0.6643 -2.540261,1.063714 -0.9546,0.106045 -1.749278,-0.185798 -2.226562,0.07933 -0.4773,0.265156 -1.991241,0.926791 -2.760217,1.112394 -0.76899,0.185599 -1.337357,0.535848 -1.801082,0.686906 -0.732585,0.238638 1.451564,3.740834 2.39964,4.20077 0,0 -0.326131,0.338655 -0.600361,0.623806 -0.659535,0.450592 -1.180889,0.479573 -1.180889,0.479573 l 0.03425,0.360581 c -0.314537,0.167099 -0.608561,0.282747 -0.881611,0.378611 -0.440134,-1.216598 -0.666868,-2.501364 -0.670673,-3.795117 0.0059,-2.062066 0.578304,-4.082755 1.655048,-5.8414158 2.070985,-3.0094277 5.490935,-4.8063437 9.144231,-4.8065472 z m 9.97536,6.2488715 c 0.737638,1.511022 1.122319,3.170183 1.125,4.85162 -0.0022,3.727217 -1.875697,7.203239 -4.986778,9.25612 -0.965996,0.563881 -2.010238,0.981079 -3.099159,1.236793 0.04584,-0.351769 0.09178,-0.711688 0.126201,-1.069123 0.26049,-0.382735 0.609376,-0.389428 0.609376,-0.389428 0,0 -0.448383,-1.273846 -0.403846,-2.808927 0.0558,-0.364091 0.148739,-0.708589 0.268629,-1.034869 l 0.454328,0 c 0,0 -0.0576,-0.625481 0.198317,-1.262033 0.843105,-1.28131 1.99341,-2.13629 2.484375,-2.513252 0.463169,-0.355631 2.599685,-0.901779 3.05048,-1.007823 0.45078,-0.106046 0.876726,-0.822748 0.903246,-1.034869 0.02655,-0.212119 -0.135216,-0.609382 -0.135216,-0.609382 L 48.23137,14.321353 c 0.158763,0.112494 0.06688,0.225156 -0.20012,0.272239 -0.0855,0.01515 -0.2043,0.02224 -0.33714,0.02344 0,0 -0.139288,-0.544886 -0.290264,-0.591353 -0.129149,-0.03975 -0.46718,0.387284 -0.461538,0.53366 -0.144451,-0.02445 -0.282344,-0.05716 -0.393029,-0.09736 -0.412527,-0.150006 -0.861779,-0.243392 -0.861779,-0.243392 0,0 0.449639,-1.012935 1.087139,-2.006635 0.40638,-0.633447 1.06194,-1.094282 1.5,-1.361194 z m -8.226562,0.234378 c 0.728925,-0.006 1.271033,0.21094 1.271033,0.21094 0,0 0.07056,0.683268 -1.977764,1.907475 -0.627975,0.375296 -2.278846,0.623805 -2.278846,0.623805 0,0 -0.03585,-0.863471 0.591346,-1.611797 0.748935,-0.893655 1.665321,-1.123733 2.394231,-1.130423 z m -9.407452,1.900263 c 0.06765,-0.0015 0.12111,0.0057 0.158654,0.01623 0.3,0.09375 0.955995,1.285363 0.60036,1.797498 L 32,15.39949 c 1.2,-1.199937 2.991103,-0.362753 3.299279,0.45253 0.427095,1.129876 0.337591,0.994688 -1.433294,1.25302 -0.750449,0.109494 -2.28025,-0.162991 -2.884615,-0.627412 -0.604365,-0.464421 -2.159495,-2.922879 -2.028245,-3.054123 0.1149,-0.114894 1.213785,-0.425341 1.6875,-0.438106 z m 17.260817,0.89965 c -0.10125,0.03615 -0.192908,0.463348 -0.192908,0.463348 0,0 0.07807,0.04107 0.483173,-0.01262 0.109051,-0.02715 -0.188982,-0.486841 -0.290265,-0.450727 z" style="fill:currentColor;fill-opacity:1;stroke:none"/>
  </g>
</svg>
