<?xml version="1.0" encoding="UTF-8" standalone="no"?>
<svg
   xmlns:dc="http://purl.org/dc/elements/1.1/"
   xmlns:cc="http://creativecommons.org/ns#"
   xmlns:rdf="http://www.w3.org/1999/02/22-rdf-syntax-ns#"
   xmlns:svg="http://www.w3.org/2000/svg"
   xmlns="http://www.w3.org/2000/svg"
   xmlns:xlink="http://www.w3.org/1999/xlink"
   xmlns:sodipodi="http://sodipodi.sourceforge.net/DTD/sodipodi-0.dtd"
   xmlns:inkscape="http://www.inkscape.org/namespaces/inkscape"
   width="64"
   viewBox="0 0 64 64"
   height="64"
   id="svg2"
   version="1.1"
   inkscape:version="0.91 r13725"
   sodipodi:docname="vnd.ms-publisher.svg">
  <metadata
     id="metadata37">
    <rdf:RDF>
      <cc:Work
         rdf:about="">
        <dc:format>image/svg+xml</dc:format>
        <dc:type
           rdf:resource="http://purl.org/dc/dcmitype/StillImage" />
      </cc:Work>
    </rdf:RDF>
  </metadata>
  <sodipodi:namedview
     pagecolor="#ffffff"
     bordercolor="#666666"
     borderopacity="1"
     objecttolerance="10"
     gridtolerance="10"
     guidetolerance="10"
     inkscape:pageopacity="0"
     inkscape:pageshadow="2"
     inkscape:window-width="640"
     inkscape:window-height="480"
     id="namedview35"
     showgrid="false"
     inkscape:snap-bbox="true"
     inkscape:bbox-nodes="true"
     inkscape:zoom="1"
     inkscape:cx="45.214441"
     inkscape:cy="31.011312"
     inkscape:current-layer="svg2">
    <inkscape:grid
       type="xygrid"
       id="grid4221" />
  </sodipodi:namedview>
  <defs
     id="defs4">
    <linearGradient
       id="a"
       y1="17"
       x1="40"
       y2="31"
       x2="54"
       gradientUnits="userSpaceOnUse">
      <stop
         stop-color="#383e51"
         id="stop7" />
      <stop
         offset="1"
         stop-color="#655c6f"
         stop-opacity="0"
         id="stop9" />
    </linearGradient>
    <linearGradient
       id="b"
       y1="61"
       y2="3"
       x2="0"
       gradientUnits="userSpaceOnUse"
       gradientTransform="matrix(1,0,0,-1,0,64)">
      <stop
         stop-color="#ffffff"
         stop-opacity="0"
         id="stop12" />
      <stop
         offset="1"
         stop-color="#ffffff"
         stop-opacity=".2"
         id="stop14" />
    </linearGradient>
    <path
       id="c"
       d="m10 61v-58h30l14 14v44h-14z" />
    <linearGradient
       gradientTransform="translate(110,296.36)"
       x2="54"
       gradientUnits="userSpaceOnUse"
       y2="31"
       x1="40"
       y1="17"
       id="a-3">
      <stop
         id="stop4170"
         stop-color="#060606" />
      <stop
         id="stop4172"
         stop-opacity="0"
         offset="1" />
    </linearGradient>
    <linearGradient
       gradientTransform="translate(62,-36)"
       x2="0"
       gradientUnits="userSpaceOnUse"
       y2="336.36"
       y1="392.36"
       id="b-6">
      <stop
         id="stop4175"
         stop-opacity="0"
         stop-color="#ffffff" />
      <stop
         id="stop4177"
         stop-opacity=".2"
         stop-color="#ffffff"
         offset="1" />
    </linearGradient>
    <path
       d="m120 357.36v-58h30l14 14v44h-14z"
       id="c-7" />
  </defs>
  <use
     height="100%"
     width="100%"
     y="0"
     x="0"
     style="fill:#4bc94b;fill-opacity:1"
     xlink:href="#c-7"
     id="use4182"
     transform="translate(-110,-296.36)" />
  <path
     opacity=".75"
     fill="#ffffff"
     d="m35 21c-.554 0-1 .446-1 1v2h-12c-.554 0-1 .446-1 1v17c0 .554.446 1 1 1h17c.554 0 1-.446 1-1v-4h2c.554 0 1-.446 1-1v-15c0-.554-.446-1-1-1h-2zm0 1h7v15h-2v-12c0-.554-.446-1-1-1-1.556-.611-4.061-.985-4-2m-13 3h17v17h-17zm1 2v4h15v-4zm0 6v1h7v-1zm8 0v1h7v-1zm-8 3v1h7v-1zm8 0v1h7v-1zm-8 3v1h7v-1zm8 0v1h7v-1z"
     id="path31"
     style="color:#000000;clip-rule:nonzero;display:inline;overflow:visible;visibility:visible;opacity:0.9;isolation:auto;mix-blend-mode:normal;color-interpolation:sRGB;color-interpolation-filters:linearRGB;solid-color:#000000;solid-opacity:1;fill:#ffffff;fill-opacity:1;fill-rule:nonzero;stroke-width:2;stroke-linecap:butt;stroke-linejoin:miter;stroke-miterlimit:4;stroke-dasharray:none;stroke-dashoffset:0;stroke-opacity:1;filter-blend-mode:normal;filter-gaussianBlur-deviation:0;color-rendering:auto;image-rendering:auto;shape-rendering:auto;text-rendering:auto;enable-background:accumulate" />
  <g
     style="color:#000000;color-interpolation:sRGB;color-interpolation-filters:linearRGB;color-rendering:auto;image-rendering:auto;shape-rendering:auto;text-rendering:auto"
     transform="matrix(1,0,0,-1,-110,-296.36)"
     id="g4184">
    <rect
       style="opacity:0.5;fill:#ffffff"
       x="120"
       y="-300.35999"
       width="30"
       height="1"
       id="rect4186" />
    <rect
       style="opacity:0.25"
       x="120"
       y="-357.35999"
       width="44"
       height="1"
       id="rect4188" />
  </g>
  <g
     style="fill-rule:evenodd"
     id="g4190"
     transform="translate(-110,-296.36)">
    <path
       style="opacity:0.5;fill:#ffffff"
       inkscape:connector-curvature="0"
       d="m 164,313.36 -14,-14 0,14 z"
       id="path4192" />
    <path
       inkscape:connector-curvature="0"
       d="m 150,313.36 14,14 0,-14 z"
       id="path4194"
       style="opacity:0.2;fill:url(#a-3)" />
  </g>
  <use
     height="100%"
     width="100%"
     y="0"
     x="0"
     xlink:href="#c-7"
     id="use4198"
     style="fill:url(#b-6)"
     transform="translate(-110,-296.36)" />
</svg>
