<?xml version="1.0" encoding="UTF-8"?>
<svg xmlns="http://www.w3.org/2000/svg" xmlns:xlink="http://www.w3.org/1999/xlink" xmlns:cc="http://creativecommons.org/ns#" xmlns:dc="http://purl.org/dc/elements/1.1/" xmlns:rdf="http://www.w3.org/1999/02/22-rdf-syntax-ns#" xmlns:inkscape="http://www.inkscape.org/namespaces/inkscape" xmlns:sodipodi="http://sodipodi.sourceforge.net/DTD/sodipodi-0.dtd" width="32" height="32">
    <style type="text/css" id="current-color-scheme">
      .ColorScheme-Text {
        color:#31363b;
      }
      .ColorScheme-Background{
        color:#E9E8E8;
      }
      .ColorScheme-ButtonText {
        color:#31363b;
      }
</style>
    <g transform="matrix(1.0000028,0,0,1.0000009,-398.71551,-516.79118) translate(-22,-1.83917e-05)" id="applications-other">
    <rect style="opacity:0.01000001;fill:#000000;fill-opacity:0.00392157;stroke:none" id="rect2994" width="32" height="32" x="-7.1557004e-08" y="-7.9999948" transform="matrix(0.99999706,0,0,0.99999899,420.71433,524.79072)"/>
    <path style="fill:currentColor;fill-opacity:1;stroke:none" d="m 424.71433,520.79075 0,9.99995 9.99995,10e-6 0,-9.99994 z m 13.99994,2e-5 0,9.99994 9.99998,-10e-6 0,-9.99995 z m -12.99995,0.99994 7.99998,0 0,7.99999 -7.99998,0 z m 13.99996,0 7.99998,0 0,7.99999 -7.99998,0 z m -14.99995,13 0,9.99998 9.99995,2e-5 0,-9.99998 z m 13.99994,2e-5 0,9.99998 1.99999,-2e-5 5.99999,0 2,0 0,-1.99998 0,-5.99999 0,-2.00001 -2,0 -5.99999,0 z m -12.99995,0.99997 7.99998,0 0,7.99999 -7.99998,0 z m 13.99996,0 7.99998,0 0,7.99999 -7.99998,0 z" id="path2996" class="ColorScheme-Text"/>
  </g>
</svg>
