<svg version="1.1" viewBox="0 0 32 32" xmlns="http://www.w3.org/2000/svg" xmlns:xlink="http://www.w3.org/1999/xlink">
    <defs>
        <linearGradient id="linearGradient5849" x2="0" y1="394.54437" y2="335.43387" gradientTransform="matrix(.48 0 0 .40601922 362.65134 385.60567)" gradientUnits="userSpaceOnUse">
            <stop stop-color="#fff" stop-opacity="0" offset="0"/>
            <stop stop-color="#fff" stop-opacity=".2" offset="1"/>
        </linearGradient>
    </defs>
    <g transform="translate(-384.57143 -515.798)">
        <rect x="388.57144" y="521.79797" width="23.999989" height="23.999989" color="#000000" color-rendering="auto" fill="#209ae7" image-rendering="auto" shape-rendering="auto" solid-color="#000000" isolation="auto" mix-blend-mode="normal"/>
        <path class="ColorScheme-Text" d="m391.57143 532.798v3h-1v7c0 0.554 0.44763 0.95751 1 1h12v-7c0-0.554-0.446-1-1-1h-2v-3zm1 1h7v2h-1.50781c-0.47049-0.62732-1.20805-0.99755-1.99219-1-0.78621 6.1e-4 -1.52632 0.37103-1.99805 1h-1.50195zm-1 3h11v1h-4c-1.108 0-2 0.892-2 2s0.892 2 2 2h4v1h-11zm8 2c0.55228 0 1 0.44771 1 1 0 0.55228-0.44772 1-1 1s-1-0.44772-1-1c0-0.55229 0.44772-1 1-1z" fill="#fff" fill-opacity=".941176" opacity=".75"/>
        <g shape-rendering="auto">
            <rect x="388.57144" y="544.79797" width="24.00001" height=".999974" color="#000000" color-rendering="auto" image-rendering="auto" opacity=".25" solid-color="#000000" isolation="auto" mix-blend-mode="normal"/>
            <rect x="388.57144" y="521.79797" width="23.999989" height="1.00003" color="#000000" color-rendering="auto" fill="#fff" image-rendering="auto" opacity=".5" solid-color="#000000" isolation="auto" mix-blend-mode="normal"/>
            <path d="m404.57143 522.79812v1h1v-1zm1 1v1h1v-1zm0 1h-1v1h1zm0 1v1h1v-1zm0 1h-1v1h1zm0 1v1h1v-1zm0 1h-1v2h2v-1h-1z" color="#000000" color-rendering="auto" fill="#fff" image-rendering="auto" opacity=".8" solid-color="#000000" stroke-linecap="square" stroke-width="2" isolation="auto" mix-blend-mode="normal"/>
            <rect x="388.57144" y="521.79797" width="24" height="24" color="#000000" color-rendering="auto" fill="url(#linearGradient5849)" image-rendering="auto" solid-color="#000000" isolation="auto" mix-blend-mode="normal"/>
        </g>
    </g>
</svg>
