<svg xmlns="http://www.w3.org/2000/svg" fill="none" viewBox="0 0 24 24" width="24" height="24">
  <defs>
    <style type="text/css" id="current-color-scheme">
      .ColorScheme-Text { color: #232629; }
    </style>
  </defs>
  <g transform="translate(1,1)">
    <path d="M7.5 5c-1.821 0-3.213.39-4.152 1.258C2.408 7.125 2 8.417 2 10v4.75c0 .577.219 1.155.656 1.592a2.257 2.257 0 0 0 3.182 0l.01-.012.01-.01s.262-.258.423-.613c.232-.472.62-1.309.889-1.889a2 2 0 0 1-.797-.662c-.216.469-.741 1.61-.994 2.123-.073.136-.18.253-.256.36a1.24 1.24 0 0 1-1.76-.004A1.241 1.241 0 0 1 3 14.75V10c0-1.417.342-2.375 1.027-3.008C4.713 6.36 5.821 6 7.5 6h7c1.678 0 2.787.36 3.473.992C18.658 7.625 19 8.583 19 10v4.75c0 .32-.117.639-.363.885a1.24 1.24 0 0 1-1.76.004c-.076-.107-.183-.224-.256-.36-.253-.514-.778-1.654-.994-2.123a2.001 2.001 0 0 1-.797.662c.268.58.657 1.417.889 1.889.161.355.424.613.424.613l.01.01.01.012a2.257 2.257 0 0 0 3.18 0A2.245 2.245 0 0 0 20 14.75V10c0-1.583-.408-2.875-1.348-3.742C17.713 5.39 16.322 5 14.5 5zm8.01 1.9a.6.6 0 1 0 0 1.2.6.6 0 0 0 0-1.2M6 7v1H5v1h1v1h1V9h1V8H7V7zm8.5.9a.6.6 0 1 0 0 1.2.6.6 0 0 0 0-1.2m2.01 0a.6.6 0 1 0 0 1.2.6.6 0 0 0 0-1.2m-1.01 1a.6.6 0 1 0 0 1.2.6.6 0 0 0 0-1.2M8 11a1 1 0 1 0 0 2 1 1 0 0 0 0-2m6 0a1 1 0 1 0 0 2 1 1 0 0 0 0-2m-4 1a2 2 0 0 1-.273 1h2.546A2 2 0 0 1 12 12z" style="fill:currentColor" class="ColorScheme-Text"/>
  </g>
</svg>
