<svg xmlns="http://www.w3.org/2000/svg" fill="none" viewBox="0 0 24 24" width="24" height="24">
  <defs>
    <style type="text/css" id="current-color-scheme">
      .ColorScheme-Text { color: #232629; }
    </style>
  </defs>
  <g transform="translate(1,1)">
    <path fill-rule="evenodd" d="M11 16c-.842 0-1.563-1.3-1.857-3.143C7.3 12.563 6 11.842 6 11c0-.565.585-1.075 1.527-1.439-.409-.922-.462-1.697-.063-2.097.4-.399 1.175-.346 2.097.063C9.925 6.585 10.435 6 11 6c.842 0 1.563 1.3 1.857 3.143C14.7 9.437 16 10.158 16 11c0 .565-.585 1.075-1.527 1.439.409.922.462 1.697.063 2.097-.4.399-1.174.346-2.097-.063C12.075 15.415 11.565 16 11 16m.723-1.898a4.9 4.9 0 0 1-.052.136c-.158.397-.327.664-.474.82a.62.62 0 0 1-.158.128.154.154 0 0 1-.039.014l-.008-.001a.154.154 0 0 1-.03-.013.62.62 0 0 1-.16-.129c-.146-.155-.315-.422-.473-.819a6.866 6.866 0 0 1-.357-1.28l.21.015c.518.454 1.041.834 1.541 1.13m.233-.794a8.834 8.834 0 0 1-.47-.317c.184-.007.365-.018.542-.033-.022.12-.046.236-.072.35M11 12.2c.398 0 .781-.02 1.144-.056a11.444 11.444 0 0 0 .046-1.637 11.734 11.734 0 0 0-.697-.697 11.798 11.798 0 0 0-1.637.046 11.447 11.447 0 0 0-.046 1.637 11.781 11.781 0 0 0 .697.697c.162.007.326.01.493.01m1.682 1.505c.069-.266.128-.55.175-.848.298-.047.582-.106.848-.175l.06.133c.168.393.237.701.243.915a.623.623 0 0 1-.02.203.154.154 0 0 1-.014.03l-.004.007-.006.004a.154.154 0 0 1-.031.014.623.623 0 0 1-.203.02c-.214-.005-.522-.075-.915-.243a5.127 5.127 0 0 1-.133-.06m.276-1.677c.12-.022.236-.046.35-.072a8.834 8.834 0 0 0-.317-.47c-.007.184-.018.365-.033.542m1.28-.357a4.9 4.9 0 0 1-.136.053c-.294-.5-.675-1.024-1.129-1.541-.004-.071-.01-.142-.015-.211.488.09.921.213 1.28.357.397.158.664.327.82.474a.62.62 0 0 1 .128.158.154.154 0 0 1 .014.037V11l-.001.008a.154.154 0 0 1-.013.03.62.62 0 0 1-.129.16c-.155.146-.422.315-.819.473m-2.42-2.644.21.015a6.864 6.864 0 0 0-.357-1.28c-.158-.397-.327-.664-.474-.82a.62.62 0 0 0-.158-.128A.152.152 0 0 0 11 6.8l-.008.001a.152.152 0 0 0-.03.013.62.62 0 0 0-.16.129c-.146.155-.315.422-.473.819a4.9 4.9 0 0 0-.053.135c.5.295 1.024.676 1.541 1.13m-1.846.015c.177-.015.358-.026.542-.033a8.76 8.76 0 0 0-.47-.317 8.45 8.45 0 0 0-.072.35m-.654-.747c-.069.266-.128.55-.175.848a9.286 9.286 0 0 0-.848.175l-.06-.133c-.168-.393-.238-.701-.243-.915a.622.622 0 0 1 .02-.203.153.153 0 0 1 .014-.03l.004-.007.006-.004a.152.152 0 0 1 .031-.013.622.622 0 0 1 .203-.021c.214.005.522.075.915.243zm-.291 3.522a10.354 10.354 0 0 1-1.13-1.54 4.9 4.9 0 0 0-.135.052c-.397.158-.664.327-.82.474a.62.62 0 0 0-.128.158A.152.152 0 0 0 6.8 11l.001.008a.152.152 0 0 0 .013.03.62.62 0 0 0 .129.16c.155.146.422.315.819.473.359.144.792.267 1.28.357zm.015-1.845a8.45 8.45 0 0 0-.35.072c.097.154.203.311.317.47.007-.184.018-.365.033-.542" clip-rule="evenodd" style="fill:currentColor" class="ColorScheme-Text"/>
    <path fill-rule="evenodd" d="M2 19V3h18v16zM3 4h16v14H3z" clip-rule="evenodd" style="fill:currentColor" class="ColorScheme-Text"/>
  </g>
</svg>
