<svg xmlns="http://www.w3.org/2000/svg" fill="none" viewBox="0 0 24 24" width="24" height="24">
  <defs>
    <style type="text/css" id="current-color-scheme">
      .ColorScheme-Text { color: #232629; }
    </style>
  </defs>
  <g transform="translate(1,1)">
    <path d="M12.35 2.75C10.8 2.75 9 4 8.2 6.2l1.8-.8 1.8 1.8L8 11H6.5l-5 5L5 19.5l5-5V13l3.8-3.8.2.2v1l2 2.1L20.5 8l-2.1-2h-1l-1.55-1.55c-1.45-1.45-2.15-1.7-3.5-1.7m0 .9C13.5 3.65 14 4 15 5l2 2h1l1 1-3 3-1-1V9l-1.244-1.256L9 12.5V14l-3.85 4-.429-.596a5 5 0 0 0-1.124-1.128l-.588-.426L7 12h1.5l4.756-4.756-2.807-2.805c.55-.44 1.2-.789 1.9-.789" style="fill:currentColor" class="ColorScheme-Text"/>
  </g>
</svg>
