<svg version="1.1" viewBox="0 0 64 64" xmlns="http://www.w3.org/2000/svg">
    <defs>
        <linearGradient id="a" x2="0" y1="3" y2="61" gradientTransform="matrix(1 0 0-1 0 64)" gradientUnits="userSpaceOnUse">
            <stop stop-color="#bdc3c7" offset="0"/>
            <stop stop-color="#dadfe1" offset="1"/>
        </linearGradient>
        <linearGradient id="b" x2="0" y1="61" y2="47" gradientTransform="matrix(1 0 0-1 0 64)" gradientUnits="userSpaceOnUse">
            <stop stop-color="#566472" offset="0"/>
            <stop stop-color="#5e6b78" offset="1"/>
        </linearGradient>
        <linearGradient id="c" x1="40" x2="54" y1="17" y2="31" gradientUnits="userSpaceOnUse">
            <stop stop-color="#383e51" offset="0"/>
            <stop stop-color="#655c6f" stop-opacity="0" offset="1"/>
        </linearGradient>
    </defs>
    <path d="m10 61v-58h30l14 14v44h-14z" fill="url(#a)"/>
    <g transform="scale(1-1)">
        <rect x="10" y="-4" width="30" height="1" fill="#fff" fill-opacity=".412"/>
        <rect x="10" y="-61" width="44" height="1" fill="#2e3132" fill-opacity=".294"/>
    </g>
    <g fill-rule="evenodd">
        <path d="m54 17-14-14v14z" fill="url(#b)"/>
        <path d="m40 17 14 14v-14z" fill="url(#c)" opacity=".2"/>
    </g>
    <g transform="matrix(.06526253 0 0 .06518519 19.133492 22.011852)" fill="#5e6b78">
        <path d="m28.6 30.5 76.61363 0.0045v30.677311h-45.968179v276.13634h45.968179v30.68185h-76.61363z"/>
        <path d="m273.76364 91.863627v30.681813h-61.29091v184.0909h-30.64545v-184.0909h-61.29128v-30.681813z"/>
        <path d="m365.7 368h-76.61363v-30.68185h45.96819v-276.13634h-45.96819v-30.681811h76.61363z"/>
    </g>
</svg>
