<svg version="1.1" viewBox="0 0 64 64" xmlns="http://www.w3.org/2000/svg" xmlns:xlink="http://www.w3.org/1999/xlink">
    <defs>
        <linearGradient id="linearGradient4850" x1="58" x2="58" y1="393.95328" y2="324.65894" gradientTransform="matrix(1 0 0 .84587337 -46.999997 -272.73456)" gradientUnits="userSpaceOnUse">
            <stop stop-color="#fff" stop-opacity="0" offset="0"/>
            <stop stop-color="#fff" stop-opacity=".2" offset="1"/>
        </linearGradient>
    </defs>
    <g shape-rendering="auto">
        <rect x="7" y="10.999992" width="49.999977" height="49.999977" color="#000000" color-rendering="auto" fill="#209ae7" image-rendering="auto" solid-color="#000000" style="isolation:auto;mix-blend-mode:normal"/>
        <rect x="7" y="59.999992" width="50" height="1.0000085" color="#000000" color-rendering="auto" image-rendering="auto" opacity=".25" solid-color="#000000" style="isolation:auto;mix-blend-mode:normal"/>
        <rect x="7" y="10.999992" width="50" height="1.0000085" color="#000000" color-rendering="auto" fill="#fff" image-rendering="auto" opacity=".5" solid-color="#000000" style="isolation:auto;mix-blend-mode:normal"/>
    </g>
    <path d="m40 12v2h2v-2zm2 2v2h2v-2zm0 2h-2v2h2zm0 2v2h2v-2zm0 2h-2v2h2zm0 2v2h2v-2zm0 2h-2v2h2zm-2 3v4h1v4h2v-4h1v-4zm1 1h2v2h-2z" fill="#fff" opacity=".75"/>
    <path d="m13 35v6h-2v15c0 0.76175 0.26134 1 1 1h23v-15c0-0.76175-0.26135-1-1-1h-6v-6zm1 1h13v5h-4c-0.62732-0.86256-1.45448-1.49663-2.5-1.5-1.04829 8.5e-4 -1.87103 0.63517-2.5 1.5h-4zm-2 6h22v4h-9.666016c-1.47733 0-2.833984 1.4765-2.833984 3s1.360792 3.1105 2.833984 3h9.666016v4h-22zm14 5.5c0.73636 0 1.5 0.7406 1.5 1.5 0 0.75939-0.76364 1.5-1.5 1.5-0.7364 0-1.5-0.74061-1.5-1.5 0-0.7594 0.7636-1.5 1.5-1.5z" fill="#fff" opacity=".75"/>
    <rect x="7" y="11" width="50" height="49.999977" color="#000000" color-rendering="auto" fill="url(#linearGradient4850)" image-rendering="auto" opacity=".552" shape-rendering="auto" solid-color="#000000" style="isolation:auto;mix-blend-mode:normal"/>
</svg>
