<svg xmlns="http://www.w3.org/2000/svg" viewBox="0 0 24 24" width="24" height="24">
  <style type="text/css" id="current-color-scheme">
        .ColorScheme-Text {
            color:#232629;
        }
        .ColorScheme-NegativeText {
            color:#da4453;
        }
    </style>
  <g transform="translate(1,1)">
    <path d="m5.1210938 3 2 2h.8789062v.8789062l1 1v-1.8789062h4v3h-2.878906l1 1h3.171875l1 1h.707031v3h-.707031l-.085938.085938.707031.707031.085938-.085938v.171875l1 1v-9.5859372l-2.292969-2.2929688zm8.8789062 2h1c.554 0 1 .446 1 1v3.2929688l-1.292969-1.2929688h-.707031zm-9 2.1210938v11.8789062h11.878906l-1.24414-1.244141c-.173646.145663-.38935.244141-.634766.244141h-1v-1.878906l-1-1v2.878906h-4v-3h3.878906l-1-1h-4.1718748l-1-1h-.7070312v-3h.7070312l.5859376-.5859375-.7070313-.7070313-.5859375.5859376v-1.171875zm1 6.5859372 1.2929688 1.292969h.7070312v3h-1c-.554 0-1-.446-1-1z" class="ColorScheme-Text" fill="currentColor"/>
    <path d="m3.5 2.7929688-.7070312.7070312 15.353516 15.353516.353516.353515.707031-.707031-.353515-.353516-15-15z" class="ColorScheme-NegativeText" fill="currentColor" stroke-linecap="square" stroke-miterlimit="0"/>
  </g>
</svg>
