<svg xmlns="http://www.w3.org/2000/svg" id="svg6" version="1.1" viewBox="0 0 24 24" width="24" height="24">
  <defs id="defs3051">
    <style type="text/css" id="current-color-scheme">
        .ColorScheme-Text {            color:#232629;        }
    </style>
  </defs>
  <g transform="translate(1,1)">
    <path id="path347" d="m11 3a8 8 0 0 0-8 8 8 8 0 0 0 8 8 8 8 0 0 0 4.892578-1.693359l3.400391 3.40039a1 1 0 0 0 1.414062 0 1 1 0 0 0 0-1.414062l-3.40039-3.400391a8 8 0 0 0 1.693359-4.892578 8 8 0 0 0-8-8zm0 1a7 7 0 0 1 7 7 7 7 0 0 1-7 7 7 7 0 0 1-7-7 7 7 0 0 1 7-7zm-4 3v1 1h1v-1h6v1h1v-1-1h-8zm0 6v1 1h8v-1-1h-1v1h-6v-1h-1z" class="ColorScheme-Text" fill="currentColor" stroke-linecap="square" stroke-width="2" style="paint-order:markers stroke fill"/>
  </g>
</svg>
