<svg xmlns="http://www.w3.org/2000/svg" version="1.1" viewBox="0 0 24 24" width="24" height="24">
  <style type="text/css" id="current-color-scheme">.ColorScheme-Text {
    color:#232629;
}</style>
  <g transform="translate(1,1)">
    <path class="ColorScheme-Text " d="m11 3c-0.276142 0-0.5 0.2238578-0.5 0.5s0.223858 0.5 0.5 0.5 0.5-0.2238578 0.5-0.5-0.223858-0.5-0.5-0.5zm-3.7636719 1.0058594c-0.080598 0.0020933-0.1615949 0.0232589-0.2363281 0.0664062-0.2391463 0.1380709-0.3216651 0.4424944-0.1835938 0.6816406 0.1380709 0.2391462 0.4444475 0.3216649 0.6835938 0.1835938 0.2391463-0.138071 0.3216651-0.4444475 0.1835938-0.6835938-0.0949238-0.164413-0.2699501-0.2526522-0.4472657-0.2480468zm7.4785159 0c-0.160109 0.011315-0.312143 0.0985804-0.398438 0.2480468-0.138071 0.2391463-0.055552 0.5455228 0.183594 0.6835938 0.239146 0.1380711 0.545523 0.0555524 0.683594-0.1835938s0.055552-0.5435697-0.183594-0.6816406c-0.08968-0.0517767-0.189091-0.0731952-0.285156-0.0664062zm-3.714844 1.4941406c-0.552284 0-1 0.4477159-1 1s0.447716 1 1 1 1-0.4477159 1-1-0.447716-1-1-1zm-6.4824219 1.25c-0.1773156-0.0046052-0.3503888 0.0855871-0.4453125 0.25-0.1380713 0.2391461-0.0575056 0.5455227 0.1816406 0.6835938 0.2391463 0.138071 0.5455229 0.0555523 0.6835938-0.1835938 0.1380714-0.2391461 0.0555525-0.5455227-0.1835938-0.6835938-0.0747332-0.0431472-0.1557301-0.0643129-0.2363281-0.0664062zm12.964844 0c-0.080598 0.0020933-0.161595 0.023259-0.236328 0.0664062-0.239146 0.1380711-0.321665 0.4444477-0.183594 0.6835938s0.444448 0.3216648 0.683594 0.1835938c0.239146-0.1380711 0.319711-0.4444477 0.18164-0.6835938-0.094923-0.1644129-0.267997-0.2546052-0.445312-0.25zm-9.7128908 0.0683594c-0.2397047 0.0114411-0.475145 0.1099106-0.6582031 0.2929687-0.3905239 0.3905239-0.3905239 1.0235386 0 1.4140625s1.0235386 0.3905239 1.4140625 0 0.3905239-1.0235386 0-1.4140625c-0.2074658-0.2074658-0.4841939-0.3059353-0.7558594-0.2929687zm6.3652348 0c-0.239705 0.0114411-0.477099 0.1099106-0.660157 0.2929687-0.390524 0.3905239-0.390524 1.0235386 0 1.4140625s1.023539 0.3905239 1.414063 0 0.390524-1.0235386 0-1.4140625c-0.207466-0.2074658-0.482241-0.3059353-0.753906-0.2929687zm-3.134766 2.6816406a1.5 1.5 0 0 0-1.5 1.5 1.5 1.5 0 0 0 1.5 1.5 1.5 1.5 0 0 0 1.5-1.5 1.5 1.5 0 0 0-1.5-1.5zm-4.5 0.5c-0.5522841 0-1 0.447716-1 1s0.4477159 1 1 1 1-0.447716 1-1-0.4477159-1-1-1zm9 0c-0.552284 0-1 0.447716-1 1s0.447716 1 1 1 1-0.447716 1-1-0.447716-1-1-1zm-12 0.5c-0.2761422 0-0.5 0.223858-0.5 0.5s0.2238578 0.5 0.5 0.5 0.5-0.223858 0.5-0.5-0.2238578-0.5-0.5-0.5zm15 0c-0.276142 0-0.5 0.223858-0.5 0.5s0.223858 0.5 0.5 0.5 0.5-0.223858 0.5-0.5-0.223858-0.5-0.5-0.5zm-10.681641 2.681641c-0.2559221 0-0.5117693 0.097706-0.7070313 0.292968-0.3905239 0.390524-0.3905239 1.023539 0 1.414063s1.0235386 0.390524 1.4140625 0 0.3905239-1.023539 0-1.414063c-0.1952619-0.195262-0.4511092-0.292968-0.7070312-0.292968zm6.3632816 0c-0.255922 0-0.51177 0.097706-0.707032 0.292968-0.390524 0.390524-0.390524 1.023539 0 1.414063s1.023539 0.390524 1.414063 0 0.390524-1.023539 0-1.414063c-0.195262-0.195262-0.451109-0.292968-0.707031-0.292968zm-9.6894535 1.068359c-0.080598 0.002093-0.163548 0.023259-0.2382813 0.066406-0.2391462 0.138071-0.3197119 0.444448-0.1816406 0.683594 0.1380709 0.239146 0.4424944 0.321665 0.6816406 0.183594 0.2391463-0.138071 0.3216652-0.444448 0.1835938-0.683594-0.0949237-0.164413-0.2679969-0.254605-0.4453125-0.25zm13.015624 0c-0.177315-0.004605-0.350388 0.085587-0.445312 0.25-0.138071 0.239146-0.055552 0.545523 0.183594 0.683594s0.543569 0.055552 0.68164-0.183594 0.057506-0.545523-0.18164-0.683594c-0.074733-0.043147-0.157683-0.064313-0.238282-0.066406zm-6.507812 0.25c-0.552284 0-1 0.447716-1 1s0.447716 1 1 1 1-0.447716 1-1-0.447716-1-1-1zm-3.7851562 2.496094c-0.1601088 0.011315-0.3121433 0.100533-0.3984376 0.25-0.1380713 0.239146-0.0555525 0.54357 0.1835938 0.68164 0.2391463 0.138072 0.5455229 0.057506 0.6835938-0.18164 0.1380713-0.239147 0.0555525-0.545523-0.1835938-0.683594-0.0896798-0.051777-0.189091-0.073195-0.2851562-0.066406zm7.5214842 0c-0.080598 0.002093-0.161595 0.023259-0.236328 0.066406-0.239146 0.138071-0.321665 0.444447-0.183594 0.683594 0.138071 0.239146 0.444448 0.319712 0.683594 0.18164 0.239146-0.13807 0.321665-0.442494 0.183594-0.68164-0.094924-0.164413-0.26995-0.254606-0.447266-0.25zm-3.736328 1.003906c-0.276142 0-0.5 0.223858-0.5 0.5s0.223858 0.5 0.5 0.5 0.5-0.223858 0.5-0.5-0.223858-0.5-0.5-0.5z" fill="currentColor"/>
  </g>
</svg>
