<svg viewBox="0 0 48 48" xmlns="http://www.w3.org/2000/svg" xmlns:xlink="http://www.w3.org/1999/xlink">
    <linearGradient id="a" gradientUnits="userSpaceOnUse" x1="4" x2="4" y1="3" y2="45">
        <stop offset="0" stop-color="#f10000"/>
        <stop offset="1" stop-color="#b20000"/>
    </linearGradient>
    <path d="m6.4003906 4c-1.3296 0-2.4003906 1.0707906-2.4003906 2.4003906v7.1992184c0 1.3296 1.0707906 2.400391 2.4003906 2.400391h14.199218c1.3296 0 2.400391-1.070791 2.400391-2.400391v-7.1992184c0-1.3296-1.070791-2.4003906-2.400391-2.4003906zm21 0c-1.3296 0-2.400391 1.0707906-2.400391 2.4003906v7.1992184c0 1.3296 1.070791 2.400391 2.400391 2.400391h14.199218c1.3296 0 2.400391-1.070791 2.400391-2.400391v-7.1992184c0-1.3296-1.070791-2.4003906-2.400391-2.4003906zm-12 14c-1.3296 0-2.400391 1.070791-2.400391 2.400391v7.199218c0 1.3296 1.070791 2.400391 2.400391 2.400391h14.199218c1.3296 0 2.400391-1.070791 2.400391-2.400391v-7.199218c0-1.3296-1.070791-2.400391-2.400391-2.400391zm21 0c-1.3296 0-2.400391 1.070791-2.400391 2.400391v7.199218c0 1.3296 1.070791 2.400391 2.400391 2.400391h7.599609v-12zm-30 14c-1.3296 0-2.4003906 1.070791-2.4003906 2.400391v7.199218c0 1.3296 1.0707906 2.400391 2.4003906 2.400391h14.199218c1.3296 0 2.400391-1.070791 2.400391-2.400391v-7.199218c0-1.3296-1.070791-2.400391-2.400391-2.400391zm21 0c-1.3296 0-2.400391 1.070791-2.400391 2.400391v7.199218c0 1.3296 1.070791 2.400391 2.400391 2.400391h14.199218c1.3296 0 2.400391-1.070791 2.400391-2.400391v-7.199218c0-1.3296-1.070791-2.400391-2.400391-2.400391z" fill="url(#a)"/>
    <path d="m21 4.0410156v7.9589844c0 1.108-.892 2-2 2h-14.958984c.190671 1.136455 1.16718 2 2.359375 2h14.199218c1.3296 0 2.400391-1.070791 2.400391-2.400391v-7.1992184c0-1.1921945-.863545-2.1687041-2-2.359375zm21 0v7.9589844c0 1.108-.892 2-2 2h-14.958984c.190671 1.136455 1.16718 2 2.359375 2h14.199218c1.3296 0 2.400391-1.070791 2.400391-2.400391v-7.1992184c0-1.1921945-.863545-2.1687041-2-2.359375zm-12 14v7.958984c0 1.108-.892 2-2 2h-14.958984c.190671 1.136455 1.16718 2 2.359375 2h14.199218c1.3296 0 2.400391-1.070791 2.400391-2.400391v-7.199218c0-1.192195-.863545-2.168704-2-2.359375zm4.041016 9.958984c.190671 1.136455 1.16718 2 2.359375 2h7.599609v-2zm-13.041016 4.041016v7.958984c0 1.108-.892 2-2 2h-14.958984c.190671 1.136455 1.16718 2 2.359375 2h14.199218c1.3296 0 2.400391-1.070791 2.400391-2.400391v-7.199218c0-1.192195-.863545-2.168704-2-2.359375zm21 0v7.958984c0 1.108-.892 2-2 2h-14.958984c.190671 1.136455 1.16718 2 2.359375 2h14.199218c1.3296 0 2.400391-1.070791 2.400391-2.400391v-7.199218c0-1.192195-.863545-2.168704-2-2.359375z" fill="#101010" opacity=".23"/>
</svg>
