<?xml version="1.0" encoding="UTF-8"?>
<svg xmlns="http://www.w3.org/2000/svg" xmlns:xlink="http://www.w3.org/1999/xlink" xmlns:cc="http://creativecommons.org/ns#" xmlns:dc="http://purl.org/dc/elements/1.1/" xmlns:rdf="http://www.w3.org/1999/02/22-rdf-syntax-ns#" xmlns:inkscape="http://www.inkscape.org/namespaces/inkscape" xmlns:sodipodi="http://sodipodi.sourceforge.net/DTD/sodipodi-0.dtd" width="32" height="32">
    <style type="text/css" id="current-color-scheme">
      .ColorScheme-Text {
        color:#31363b;
      }
      .ColorScheme-Background {
        color:#eff0f1;
      }
      .ColorScheme-Accent {
        color:#3daee9;
      }
      .ColorScheme-ButtonText {
        color:#31363b;
      }
      .ColorScheme-NegativeText {
        color:#da4453;
      }
  </style>
    <g transform="translate(27,27) translate(-22,-22)" id="document-open-recent">
    <path id="path14" d="m 0,-3 0,28 10,0 0,-1 -9,0 0,-26 20,0 0,15 1,0 0,-16 -22,0 z m 16,16 a 6,6 0 0 0 -6,6 6,6 0 0 0 6,6 6,6 0 0 0 6,-6 6,6 0 0 0 -6,-6 z m 0,1 a 5,5 0 0 1 5,5 5,5 0 0 1 -5,5 5,5 0 0 1 -5,-5 5,5 0 0 1 5,-5 z m -1,1 0,5 1,0 3,0 0,-1 -3,0 0,-4 -1,0 z" style="opacity:1;fill:currentColor" class="ColorScheme-Text"/>
    <rect id="rect23" width="32" height="32" x="-5" y="-5" style="opacity:1;fill:none"/>
  </g>
</svg>
