<svg xmlns="http://www.w3.org/2000/svg" id="svg1" version="1.1" viewBox="0 0 24 24" width="24" height="24">
  <defs id="defs3051">
    <style id="current-color-scheme" type="text/css">.ColorScheme-Text {
        color:#232629;
      }</style>
  </defs>
  <g transform="translate(1,1)">
    <path id="path1" class="ColorScheme-Text" d="m11 3c-4.4319982 0-8 3.568-8 8 0 4.092537 3.0443284 7.441581 7 7.931641v-1.009766c-3.3993571-0.483816-6-3.384659-6-6.921875 0-0.242375 0.0113433-0.480906 0.0351562-0.716797 0.357195-3.5383664 3.32922-6.283203 6.9648438-6.283203 3.877999 0 7 3.122 7 7 0 0.340784-0.03151 0.672498-0.07813 1h1.009766c0.040654-0.32811 0.068364-0.660537 0.068364-1 0-4.432-3.568002-8-8-8zm-1 2v7h6v-1h-5v-6zm4.932039 8.400485v4.292969l-2.292969-2.292969-0.707031 0.707031 3.5 3.5 3.5-3.5-0.707031-0.707031-2.292969 2.292969v-4.292969z" fill="currentColor"/>
  </g>
</svg>
