<svg xmlns="http://www.w3.org/2000/svg" height="24" width="24" viewBox="0 0 24 24">
  <style type="text/css" id="current-color-scheme">
        .ColorScheme-Text {
            color:#232629;
        }
    </style>
  <g transform="translate(1,1)">
    <path d="m11 3c-4.418278 0-8 3.581722-8 8s3.581722 8 8 8 8-3.581722 8-8-3.581722-8-8-8zm-2.70703125 4h.70703125v7h1.5.54882813c.07407592-.37807234.23136603-.71008946.45898438-.98046875.32336176-.3841093.74406322-.65503168 1.234375-.94921875 1.21344986-.72806991 1.77682031-1.28324216 2.02539063-1.66796875s.23242188-.58704229.23242188-.90234375c0-.8343436-.6656564-1.5-1.5-1.5s-1.5.6656564-1.5 1.5v.5h-1v-.5c0-1.37477993 1.12522007-2.5 2.5-2.5s2.5 1.12522007 2.5 2.5c0 .31530146-.01615157.86269544-.39257813 1.4453125s-1.06307173 1.21245241-2.34960938 1.984375c-.46838966.2810338-.79741587.51034014-.984375.73242188-.07533505.08948768-.06584076.23935432-.109375.33789063h3.8359375v1h-10v-1h2v-5.29296875l-1.5 1.5-.70703125-.70703125z" class="ColorScheme-Text" fill="currentColor" fill-rule="evenodd"/>
  </g>
</svg>
