<svg xmlns="http://www.w3.org/2000/svg" version="1.1" viewBox="0 0 24 24" width="24" height="24">
  <style type="text/css" id="current-color-scheme">
        .ColorScheme-NeutralText {
            color:#f67400;
        }
        .ColorScheme-Text {
            color:#232629;
        }</style>
  <g transform="translate(1,1)">
    <rect class="ColorScheme-NeutralText" width="22" height="22" rx="2" fill="currentColor"/>
    <path class="ColorScheme-Text" d="M2 0C.892 0 0 .892 0 2v18c0 1.108.892 2 2 2h18c1.108 0 2-.892 2-2V2c0-1.108-.892-2-2-2zm0 1h18c.554 0 1 .446 1 1v18c0 .554-.446 1-1 1H2c-.554 0-1-.446-1-1V2c0-.554.446-1 1-1z" fill="currentColor" fill-opacity=".6"/>
    <path d="m11 3c-2.216 0-4 1.784-4 4v1h1v-0.5c0-1.939 1.338-3.5 3-3.5s3 1.561 3 3.5v3.5h-9v8h12v-8h-2v-4c0-2.216-1.784-4-4-4zm-5 9h10v6h-10v-6z" fill="#fff"/>
  </g>
</svg>
