<svg xmlns="http://www.w3.org/2000/svg" viewBox="0 0 24 24" width="24" height="24">
  <style type="text/css" id="current-color-scheme">
        .ColorScheme-Accent {
            color:#3daee9;
        }
        .ColorScheme-Text {
            color:#232629;
        }
    </style>
  <g transform="translate(1,1)">
    <rect style="fill:currentColor;fill-opacity:1;stroke:none" class="ColorScheme-Accent" height="22" rx="2" width="22"/>
    <path d="M3 10v2h16v-2z" fill="#fff"/>
    <path d="M2 0C.892 0 0 .892 0 2v18c0 1.108.892 2 2 2h18c1.108 0 2-.892 2-2V2c0-1.108-.892-2-2-2zm0 1h18c.554 0 1 .446 1 1v18c0 .554-.446 1-1 1H2c-.554 0-1-.446-1-1V2c0-.554.446-1 1-1z" style="fill:currentColor;fill-opacity:0.6;stroke:none" class="ColorScheme-Text"/>
  </g>
</svg>
