<svg xmlns="http://www.w3.org/2000/svg" xmlns:xlink="http://www.w3.org/1999/xlink" xmlns:cc="http://creativecommons.org/ns#" xmlns:dc="http://purl.org/dc/elements/1.1/" xmlns:rdf="http://www.w3.org/1999/02/22-rdf-syntax-ns#" xmlns:inkscape="http://www.inkscape.org/namespaces/inkscape" xmlns:sodipodi="http://sodipodi.sourceforge.net/DTD/sodipodi-0.dtd" width="24" height="24" viewBox="0 0 24 24">
  <style type="text/css" id="current-color-scheme">
      .ColorScheme-Text {
        color:#31363b;
      }
      .ColorScheme-Background {
        color:#eff0f1;
      }
      .ColorScheme-Accent {
        color:#3daee9;
      }
      .ColorScheme-ButtonText {
        color:#31363b;
      }
      </style>
  <g transform="translate(1,1)">
    <g id="fcitx-anthy" transform="translate(0,-103.99999) translate(2.47097e-09,-66)">
      <rect style="fill:none;fill-opacity:1;stroke:none" id="rect4431" width="22" height="22" x="-2.4709701e-09" y="170"/>
      <path class="ColorScheme-Text" style="fill:currentColor;fill-opacity:1;stroke:none" d="m 11,173 c -1.0986472,0 -2,0.90135 -2,2 l 0,0.002 c 0.00127,0.60896 0.3333856,1.12216 0.7949219,1.4961 -0.1451277,0.97576 -0.372921,2.23303 -0.7695313,3.25586 -0.211868,0.54639 -0.4670557,1.01446 -0.734375,1.3164 C 8.0236963,181.37225 7.783792,181.5 7.5,181.5 7.2018151,181.5 6.9605212,181.38854 6.7070312,181.15234 6.4535413,180.91615 6.211675,180.55139 6.0058594,180.11523 5.6264439,179.3112 5.398232,178.29965 5.2441406,177.4707 5.6835044,177.09584 5.9995503,176.5918 6,176 c 0,-1.09865 -0.9013528,-2 -2,-2 -1.0986472,0 -2,0.90135 -2,2 9.876e-4,0.82143 0.564308,1.45548 1.2988281,1.75781 L 5.0800781,188 l 11.8398439,0 1.78125,-10.24023 C 19.436582,177.45711 20.000082,176.82244 20,176 c 0,-1.09865 -0.901353,-2 -2,-2 -1.098647,0 -2,0.90135 -2,2 4.5e-4,0.5918 0.316496,1.09584 0.755859,1.4707 -0.154091,0.82895 -0.382303,1.8405 -0.761718,2.64453 -0.205816,0.43616 -0.447682,0.80092 -0.701172,1.03711 C 15.039479,181.38854 14.798185,181.5 14.5,181.5 c -0.283716,0 -0.52375,-0.12794 -0.791016,-0.42969 -0.267266,-0.30174 -0.522495,-0.77029 -0.734375,-1.3164 C 12.577992,178.73163 12.3503,177.47582 12.205078,176.5 12.667324,176.12551 12.999524,175.6099 13,175 c 0,-1.09865 -0.901353,-2 -2,-2 z m 0,1 c 0.558207,0 1,0.44179 1,1 -3e-4,0.3835 -0.21765,0.73066 -0.5625,0.89844 l -0.326172,0.1582 0.04883,0.36133 c 0.145112,1.03434 0.406928,2.47067 0.882813,3.69726 0.237942,0.6133 0.527371,1.17816 0.917969,1.61914 0.390597,0.44099 0.920669,0.76563 1.539062,0.76563 0.575171,0 1.084763,-0.25198 1.474609,-0.61523 0.389847,-0.36326 0.683068,-0.83355 0.923829,-1.34375 0.403261,-0.85457 0.595886,-1.78757 0.759765,-2.61524 L 16.080078,187 5.9199219,187 4.34375,177.92773 c 0.1638928,0.82721 0.3549092,1.75948 0.7578125,2.61329 0.2407609,0.5102 0.5339819,0.98049 0.9238281,1.34375 C 6.4152368,182.24802 6.9248292,182.5 7.5,182.5 c 0.6185835,0 1.1503906,-0.32637 1.5410156,-0.76758 0.390625,-0.44121 0.6800565,-1.00363 0.9179688,-1.61719 0.4758246,-1.22711 0.7358526,-2.66508 0.8808596,-3.69921 l 0.04883,-0.36133 -0.326172,-0.15821 C 10.218615,175.72917 10.001472,175.38231 10,175 l 0,-0.002 C 10.001,174.44077 10.442451,174 11,174 Z m -7,1 c 0.5582071,0 1,0.44179 1,1 -2.85e-4,0.375 -0.2077182,0.71484 -0.5410156,0.88672 l -0.2929688,0.15234 -0.328125,-0.0547 C 3.3513935,176.90478 3.0005927,176.49296 3,176 c 0,-0.55821 0.4417929,-1 1,-1 z m 14,0 c 0.558207,0 1,0.44179 1,1 4.9e-5,0.49347 -0.350892,0.90665 -0.837891,0.98633 l -0.326171,0.0547 -0.294922,-0.1543 C 17.207718,176.71484 17.000285,176.375 17,176 c 0,-0.55821 0.441793,-1 1,-1 z" id="circle4437"/>
    </g>
  </g>
</svg>
