<svg xmlns="http://www.w3.org/2000/svg" xmlns:xlink="http://www.w3.org/1999/xlink" xmlns:cc="http://creativecommons.org/ns#" xmlns:dc="http://purl.org/dc/elements/1.1/" xmlns:rdf="http://www.w3.org/1999/02/22-rdf-syntax-ns#" xmlns:inkscape="http://www.inkscape.org/namespaces/inkscape" xmlns:sodipodi="http://sodipodi.sourceforge.net/DTD/sodipodi-0.dtd" width="24" height="24" viewBox="0 0 24 24">
  <style type="text/css" id="current-color-scheme">
      .ColorScheme-Text {
        color:#31363b;
      }
      .ColorScheme-Background {
        color:#eff0f1;
      }
      .ColorScheme-Accent {
        color:#3daee9;
      }
      .ColorScheme-ButtonText {
        color:#31363b;
      }
      </style>
  <g transform="translate(1,1)">
    <g id="fcitx" transform="translate(132,88.000028) translate(-132,-66)">
      <rect y="-22" x="0" height="22" width="22" id="rect4204" style="fill:none;fill-opacity:1;stroke:none"/>
      <path id="path106-4-1" d="m 9.5699535,-18.999593 c -0.936717,-0.01763 -1.836619,0.535755 -2.183677,1.437843 -0.414242,1.076717 -0.296362,2.243636 -0.279067,3.367572 0.0056,0.363889 -0.09182,0.69603 -0.240698,1.009167 -0.07123,0.08142 -0.141942,0.1585 -0.209783,0.223033 -0.735867,0.813102 -2.564955,2.949954 -1.982451,5.1394121 -0.146743,0.06455 -0.316807,0.07221 -0.502928,0.09385 -0.219333,0.0255 -0.463753,0.08135 -0.657229,0.311638 -0.172866,0.200234 -0.198882,0.474233 -0.218892,0.732309 -0.02004,0.258368 -0.03562,0.505944 -0.125594,0.658333 -0.262172,0.407987 -0.35179,0.709296 -0.292317,0.955065 0.05964,0.246447 0.265427,0.400191 0.514245,0.519214 0.497638,0.238045 1.217196,0.381587 1.711114,0.823674 l 2.83e-4,2.83e-4 c 0.524909,0.464756 1.105612,0.724621 1.614502,0.728167 0.422739,0.003 0.795783,-0.187398 1.009167,-0.571383 0.189498,0.03399 0.387165,0.03033 0.587669,-0.02677 0.675857,-0.192494 1.387743,-0.202406 2.0787865,-0.05934 0.414121,0.08573 0.827404,0.0534 1.218951,-0.06542 0.166472,0.316276 0.450025,0.530318 0.792759,0.622448 0.495727,0.133256 1.109484,0.02504 1.697588,-0.332891 l 2.82e-4,-2.83e-4 5.52e-4,0 c 0.568855,-0.353785 1.299426,-0.322554 1.82677,-0.436128 0.263671,-0.05679 0.494609,-0.161691 0.589601,-0.396379 0.09495,-0.234577 0.04967,-0.556185 -0.147952,-1.038152 -0.06706,-0.166538 -0.03891,-0.415498 -0.01076,-0.67793 0.02812,-0.262231 0.05545,-0.542386 -0.07894,-0.77675 -0.149053,-0.267741 -0.379882,-0.37224 -0.591534,-0.441925 -0.211773,-0.06972 -0.405153,-0.114845 -0.547645,-0.25312 l -2.83e-4,-2.83e-4 c -0.155067,-0.159085 -0.308034,-0.375097 -0.502098,-0.545712 -0.0018,-0.0016 -0.004,-0.0031 -0.0058,-0.0047 -0.0073,-0.30084 -0.0568,-0.609146 -0.136911,-0.917525 0.426116,-0.56551 0.857948,-1.1995591 1.179203,-1.8179381 0.001,-1.41e-4 0.002,-1.29e-4 0.0031,-2.81e-4 l 0.240423,-0.03395 -0.06321,-0.298941 0.0381,-0.02981 0.786134,-1.478972 c 0.430419,0.02259 0.900407,-0.186938 1.175614,-0.686212 0.593777,-1.077211 1.283266,-2.057531 1.283266,-2.057531 -1.886364,0.268423 -3.349095,0.242135 -3.429402,1.685995 -0.0092,0.164039 0.0157,0.310662 0.06514,0.439716 l -1.087284,1.273881 -0.01,0.04279 -0.333445,0.05299 0.09992,0.235455 c -0.239887,0.281967 -0.471858,0.595247 -0.690628,0.918076 -0.06382,0.09418 -0.126282,0.18931 -0.187701,0.284589 0.06114,-0.09511 0.123722,-0.190177 0.187701,-0.284589 -0.05471,-0.09665 -0.109888,-0.192817 -0.166447,-0.285967 -0.318101,-0.648396 -0.731472,-1.247763 -1.136693,-1.842228 -0.487727,-0.715502 -0.575096,-1.589942 -0.582976,-2.461639 -0.01639,-1.813131 -0.209532,-3.693439 -2.2985075,-3.73276 z m 0.8948925,2.266486 c 0.164697,-0.0098 0.334488,0.07422 0.461247,0.251465 0.126759,0.177246 0.209143,0.513955 0.210334,0.706085 0.0016,0.260604 -0.0921,0.522711 -0.198189,0.713539 -0.02794,0.05027 -0.06106,0.09177 -0.09578,0.130011 -0.11233,-0.06565 -0.206181,-0.119836 -0.262229,-0.151817 -0.03878,-0.02213 -0.04391,-0.02557 -0.06045,-0.03533 a 0.32649912,0.59361268 8.7269718 0 0 0.226897,-0.474772 0.32649912,0.59361268 8.7269718 0 0 -0.2614,-0.630177 0.32649912,0.59361268 8.7269718 0 0 -0.386444,0.547369 0.32649912,0.59361268 8.7269718 0 0 0.0019,0.292592 c -0.05501,-0.02357 -0.1144435,-0.04406 -0.1785925,-0.05797 -0.01848,-0.004 -0.03821,-0.0062 -0.05741,-0.0092 -0.01919,-0.08129 -0.03466,-0.164404 -0.03947,-0.249807 -0.01469,-0.260352 0.03854,-0.427807 0.14464,-0.61886 0.1060975,-0.191053 0.3302245,-0.403452 0.4949225,-0.413218 z m -2.1389615,0.161478 a 0.93040342,0.70688963 82.236562 0 1 0.02926,8.34e-4 0.93040342,0.70688963 82.236562 0 1 0.72044,0.806285 0.93051529,0.70697463 82.236562 0 1 -0.05328,0.570279 c -0.03865,0.02844 -0.07728,0.05746 -0.117037,0.09136 l 0,2.83e-4 -2.82e-4,0 c -0.07827,0.06751 -0.156009,0.107131 -0.259193,0.158993 a 0.55303345,0.34788413 80.265788 0 0 0.160097,-0.592361 0.55303345,0.34788413 80.265788 0 0 -0.38451,-0.472565 0.55303345,0.34788413 80.265788 0 0 -0.295352,0.62245 0.55303345,0.34788413 80.265788 0 0 0.47698,0.464007 c -0.07033,0.0356 -0.149256,0.07658 -0.2545,0.139395 -0.02391,0.01382 -0.04402,0.02886 -0.06514,0.04361 a 0.93051529,0.70697463 82.236562 0 1 -0.601747,-0.786411 0.93040342,0.70688963 82.236562 0 1 0.644255,-1.046155 z m 1.382637,1.207358 c 0.06853,-0.0017 0.132715,0.0055 0.192669,0.01849 0.2398155,0.05197 0.4130545,0.202051 0.5194905,0.282379 0.02,0.0151 0.04657,0.02884 0.110688,0.06542 0.06411,0.03658 0.160405,0.09163 0.299217,0.173071 0.124161,0.07286 0.175728,0.183063 0.152368,0.321852 -0.02336,0.138788 -0.12996,0.307575 -0.342277,0.468424 l -2.83e-4,2.83e-4 -5.51e-4,2.81e-4 c -0.130752,0.102592 -0.213083,0.229275 -0.313018,0.334826 -0.09993,0.105551 -0.21443,0.192755 -0.4181865,0.231038 -0.239417,0.04463 -0.425688,-0.0071 -0.593466,-0.07895 -0.167779,-0.07179 -0.314004,-0.166444 -0.472013,-0.197639 l -2.83e-4,0 -2.81e-4,0 c -0.324544,-0.06036 -0.571692,-0.233085 -0.665234,-0.417082 -0.03621,-0.07124 -0.04975,-0.14295 -0.03947,-0.213647 0.05835,0.01 0.136871,0.04119 0.22883,0.08777 0.110886,0.05618 0.240705,0.131562 0.382854,0.206194 0.284298,0.149264 0.618474,0.296939 0.960035,0.27962 0.3412395,-0.01731 0.6036585,-0.192329 0.7916555,-0.360773 0.094,-0.08422 0.169898,-0.167145 0.227725,-0.228277 0.02892,-0.03057 0.05351,-0.05565 0.07232,-0.07204 0.0188,-0.01639 0.03403,-0.02074 0.02788,-0.02043 l -0.0039,-0.0737 c -0.0315,0.0016 -0.0498,0.01849 -0.0726,0.03837 -0.0228,0.01988 -0.04801,0.04606 -0.07729,0.07702 -0.05855,0.0619 -0.132546,0.142815 -0.223309,0.224137 -0.181524,0.162644 -0.428043,0.325872 -0.7461105,0.342001 -0.317745,0.01611 -0.641402,-0.123903 -0.922218,-0.271338 -0.140408,-0.07372 -0.270092,-0.148784 -0.383958,-0.20647 -0.09089,-0.04604 -0.170576,-0.08084 -0.242356,-0.09385 0.03396,-0.08691 0.108319,-0.17384 0.240975,-0.250359 l 2.83e-4,0 2.83e-4,-2.83e-4 c 0.285916,-0.170642 0.416016,-0.196855 0.570278,-0.329857 0.288726,-0.246244 0.533622,-0.331308 0.739211,-0.336481 z m 1.2622875,1.13338 c 0.03637,0.08682 0.06752,0.179883 0.08778,0.28514 0.188419,0.979064 0.396586,1.58485 1.344545,3.200298 0.09792,0.246672 0.172052,0.422925 0.255879,0.627141 -0.06526,-0.486405 -0.257728,-0.923756 -0.392238,-1.184446 -0.579853,-1.225341 -0.0019,-0.469614 0.25864,0.07646 0.190312,0.355478 0.413171,0.966446 0.547644,1.6506631 -0.575138,1.004157 -0.957921,1.861844 -0.963898,1.875351 -0.08366,0.135859 -0.130485,0.270707 -0.12725,0.405765 0.002,0.08606 0.03116,0.169622 0.07673,0.24125 -0.515323,0.379904 -0.539653,1.125899 0.0022,1.396162 -0.05453,0.0786 -0.107046,0.153059 -0.160098,0.233246 -0.07723,0.116728 -0.150541,0.235228 -0.215855,0.354423 -1.138671,0.809478 -2.9580535,0.912295 -4.3088375,-0.556201 -0.127351,-0.276716 -0.242806,-0.53909 -0.286243,-0.741695 l -2.83e-4,-8.33e-4 0,-2.83e-4 c -0.09753,-0.481264 -0.19942,-0.925163 -0.349455,-1.284369 -0.02476,-0.05926 -0.05139,-0.115626 -0.07923,-0.170312 0.105195,-0.249066 0.157515,-0.510867 0.138016,-0.669649 -0.0723,-0.42313 -0.383689,-0.509181 -1.085628,-0.348074 -0.596292,0.143833 -0.957559,0.428038 -0.808217,0.858178 -0.02686,0.02279 -0.05355,0.04287 -0.08005,0.06348 -0.197474,-0.50429 0.210522,-0.836854 0.895719,-1.005579 -0.100451,-0.931345 0.444535,-1.8766771 0.962518,-2.4911751 0.01507,0.01955 -0.02245,0.130597 -0.155405,0.402176 -0.293348,0.503509 -0.5817,1.3242931 -0.450482,2.0222001 0.09891,-0.01377 0.191761,-0.02349 0.272718,-0.02374 0.04724,-0.50565 0.171927,-0.982439 0.385615,-1.3666271 0.409008,-0.869278 1.462283,-2.337139 1.492497,-3.554445 0.14116,0.136614 0.348884,0.242417 0.59595,0.288451 0.130573,0.02577 0.275398,0.115944 0.452138,0.191566 0.17674,0.07562 0.388289,0.133921 0.650604,0.08501 0.2246865,-0.04222 0.3636755,-0.146456 0.4714605,-0.260297 0.107596,-0.113642 0.187219,-0.234091 0.301977,-0.324336 l 5.51e-4,-5.52e-4 c 0.117056,-0.08878 0.20651,-0.181473 0.269958,-0.274374 z m 5.077029,1.411069 c 0.05583,0.0464 0.11714,0.08588 0.18218,0.119245 l -0.690628,1.299552 -0.162306,0.127526 c -0.05451,-0.0273 -0.109055,-0.05157 -0.164238,-0.09357 -0.07252,-0.05521 -0.09308,-0.103568 -0.149609,-0.166447 l 0.04251,-0.18218 0.942092,-1.104122 z m -1.329915,1.619471 c 0.06727,0.06791 0.139768,0.133524 0.219996,0.194601 0.08348,0.06356 0.17213,0.123792 0.265818,0.171691 -0.881529,1.6222131 -2.581211,3.4403731 -2.59579,3.4559021 -0.103472,0.09069 -0.170166,0.07293 -0.172244,0.07481 2e-6,-0.0014 3.26e-4,8.2e-5 2.83e-4,-0.0019 -5.09e-4,-0.02122 0.0097,-0.0818 0.06735,-0.171138 l 0.0094,-0.01463 0.0072,-0.01573 c 0,0 1.036728,-2.277129 2.19803,-3.6935651 z m -0.422326,2.5400321 c -0.0791,0.10159 -0.156348,0.198869 -0.23297,0.293973 0.07642,-0.09479 0.154074,-0.192703 0.23297,-0.293973 z m -9.3063695,0.857075 c 0.238077,0.421613 0.752471,0.771882 1.162365,0.595122 0.158785,-0.06666 0.294906,-0.216875 0.401072,-0.396104 0.0037,0.0085 0.0077,0.0162 0.01132,0.02484 0.140297,0.335893 0.241724,0.771274 0.338689,1.249866 l 2.83e-4,5.51e-4 0,2.83e-4 c 0.07918,0.37081 0.326015,0.821822 0.521145,1.26836 0.195131,0.44654 0.328468,0.881235 0.231038,1.172302 l -2.83e-4,0.0011 -2.82e-4,0.0011 c -0.152127,0.491143 -0.492249,0.697861 -0.93602,0.694769 -0.443621,-0.0031 -0.990089,-0.238618 -1.488632,-0.679864 -0.545964,-0.488671 -1.298763,-0.634845 -1.755831,-0.853485 -0.228533,-0.10932 -0.370723,-0.225488 -0.411009,-0.391965 -0.04028,-0.166475 0.01778,-0.420008 0.268854,-0.809873 l 0.0011,-0.0016 8.35e-4,-0.0016 c 0.127247,-0.21553 0.132159,-0.487072 0.151816,-0.74059 0.01966,-0.253518 0.05273,-0.483719 0.173071,-0.622725 l 5.52e-4,-5.52e-4 5.5e-4,-5.5e-4 c 0.15418,-0.183806 0.327065,-0.221105 0.533567,-0.245115 0.206503,-0.02401 0.442913,-0.02478 0.659989,-0.162307 l 0.0011,-8.33e-4 0.0011,-5.52e-4 c 0.04599,-0.03092 0.09014,-0.06527 0.133599,-0.100471 z m 9.6414705,0.06045 c 0.125739,0.133354 0.24532,0.289158 0.376782,0.423707 l 8.33e-4,8.34e-4 0.0011,8.33e-4 c 0.188005,0.182686 0.42132,0.232072 0.621069,0.297838 0.199749,0.06576 0.36502,0.137768 0.484987,0.353871 l 2.83e-4,8.33e-4 5.64e-4,5.52e-4 c 0.09436,0.164187 0.08237,0.40316 0.05465,0.661644 -0.02772,0.258483 -0.07194,0.531968 0.02374,0.769572 l 0,2.83e-4 2.83e-4,2.83e-4 c 0.189984,0.463161 0.21024,0.740042 0.147676,0.894615 -0.06257,0.154572 -0.212417,0.229744 -0.452967,0.28155 -0.481097,0.103615 -1.253361,0.06621 -1.88722,0.460419 -0.551912,0.335745 -1.116184,0.427157 -1.547979,0.311088 -0.431939,-0.116111 -0.736698,-0.426784 -0.801041,-0.944301 l 0,-0.0011 -2.82e-4,-0.0011 c -0.04571,-0.311251 0.149928,-0.698646 0.406869,-1.08701 0.06056,-0.09154 0.123695,-0.180295 0.187148,-0.270785 0.264155,0.06491 0.618971,0.04005 1.070999,-0.131115 0.895718,-0.51308 1.264212,-1.233264 1.312525,-2.022474 z m -1.186932,0.11538 c -0.0307,0.0352 -0.05261,0.0601 -0.08115,0.09247 0.02649,-0.03 0.05281,-0.06003 0.08115,-0.09247 z m -0.318262,0.35746 c -0.115531,0.12683 -0.197087,0.214476 -0.197087,0.214476 0,0 0.110614,-0.120398 0.197087,-0.214476 z m -1.02021,0.279343 c 0.01956,0.02132 0.03986,0.042 0.06321,0.05852 -0.02345,-0.01658 -0.0442,-0.0366 -0.06321,-0.05852 z" class="ColorScheme-Text" style="fill:currentColor;fill-opacity:1;stroke:none"/>
    </g>
  </g>
</svg>
