<svg xmlns="http://www.w3.org/2000/svg" xmlns:xlink="http://www.w3.org/1999/xlink" xmlns:cc="http://creativecommons.org/ns#" xmlns:dc="http://purl.org/dc/elements/1.1/" xmlns:rdf="http://www.w3.org/1999/02/22-rdf-syntax-ns#" xmlns:inkscape="http://www.inkscape.org/namespaces/inkscape" xmlns:sodipodi="http://sodipodi.sourceforge.net/DTD/sodipodi-0.dtd" width="24" height="24" viewBox="0 0 24 24">
  <style type="text/css" id="current-color-scheme">
      .ColorScheme-Text {
        color:#31363b;
      }
      .ColorScheme-Background {
        color:#eff0f1;
      }
      .ColorScheme-Accent {
        color:#3daee9;
      }
      .ColorScheme-ButtonText {
        color:#31363b;
      }
      </style>
  <g transform="translate(1,1)">
    <g id="fcitx-quanpin" transform="translate(22,8e-6) translate(-22,-8e-06)">
      <path class="ColorScheme-Text" style="fill:currentColor;fill-opacity:1;stroke:none" d="M 3,3 3,19 19,19 19,3 3,3 Z M 4,4 18,4 18,18 4,18 4,4 Z m 6.509766,0.9023438 C 10.323881,5.8317693 8.9615007,6.9634215 7.5664062,7.7519531 6.1713119,8.5404847 4.8300781,9.0292969 4.8300781,9.0292969 l 0.3398438,0.9414062 c 0,0 0.8013817,-0.2932064 1.8300781,-0.7949219 L 7,10 l 3.5,0 0,2 -2.5,0 0,1 2.5,0 0,3 -4.5,0 0,1 10,0 0,-1 -4.5,0 0,-3 2.5,0 0,-1 -2.5,0 0,-2 3.5,0 0,-0.8691406 C 16.015788,9.6469945 16.824219,9.96875 16.824219,9.96875 l 0.351562,-0.9375 c 0,0 -3.856017,-1.4980606 -5.732422,-3.7871094 0.01285,-0.049766 0.03674,-0.095781 0.04687,-0.1464844 L 10.509766,4.9023438 Z M 11,6.2324219 C 12.116196,7.4472455 13.543014,8.3695184 14.734375,9 L 7.3378906,9 C 7.5754268,8.8790495 7.8107881,8.7631109 8.0585938,8.6230469 9.1538606,8.0039829 10.332412,7.2293319 11,6.2324219 Z" id="path4261"/>
      <rect y="0" x="0" height="22" width="22" id="rect4263" style="fill:none;fill-opacity:1;stroke:none;stroke-linejoin:miter"/>
    </g>
  </g>
</svg>
