<svg xmlns="http://www.w3.org/2000/svg" xmlns:xlink="http://www.w3.org/1999/xlink" xmlns:cc="http://creativecommons.org/ns#" xmlns:dc="http://purl.org/dc/elements/1.1/" xmlns:rdf="http://www.w3.org/1999/02/22-rdf-syntax-ns#" xmlns:inkscape="http://www.inkscape.org/namespaces/inkscape" xmlns:sodipodi="http://sodipodi.sourceforge.net/DTD/sodipodi-0.dtd" width="24" height="24" viewBox="0 0 24 24">
  <style type="text/css" id="current-color-scheme">
      .ColorScheme-Text {
        color:#31363b;
      }
      .ColorScheme-Background {
        color:#eff0f1;
      }
      .ColorScheme-Accent {
        color:#3daee9;
      }
      .ColorScheme-ButtonText {
        color:#31363b;
      }
      </style>
  <g transform="translate(1,1)">
    <g id="fcitx-hangul" transform="translate(0,-81.999992) translate(2.47097e-09,-88)">
      <rect style="fill:none;fill-opacity:1;stroke:none" id="rect4504" width="22" height="22" x="-2.4709701e-09" y="170"/>
      <path class="ColorScheme-Text" style="fill:currentColor;fill-opacity:1;stroke:none" d="m 3,103 0,0.5 0,15.5 16,0 0,-16 -16,0 z m 1,1 14,0 0,14 -14,0 0,-14 z m 4,1 0,1 2,0 0,-1 -2,0 z m 6,1 0,8 1,0 0,-4 2,0 0,-1 -2,0 0,-3 -1,0 z m -8,1 0,1 6,0 0,-1 -6,0 z m 3,2 c -1.5968879,0 -3,1.05766 -3,2.5 0,1.44234 1.4031121,2.5 3,2.5 1.596888,0 3,-1.05766 3,-2.5 0,-1.44234 -1.403112,-2.5 -3,-2.5 z m 0,1 c 1.164536,0 2,0.73321 2,1.5 0,0.76679 -0.835464,1.5 -2,1.5 -1.1645358,0 -2,-0.73321 -2,-1.5 0,-0.76679 0.8354642,-1.5 2,-1.5 z m -1,5 0,2 8,0 0,-1 -7,0 0,-1 -1,0 z" transform="translate(0,70)" id="path4506"/>
    </g>
  </g>
</svg>
