<svg xmlns="http://www.w3.org/2000/svg" xmlns:xlink="http://www.w3.org/1999/xlink" xmlns:cc="http://creativecommons.org/ns#" xmlns:dc="http://purl.org/dc/elements/1.1/" xmlns:rdf="http://www.w3.org/1999/02/22-rdf-syntax-ns#" xmlns:inkscape="http://www.inkscape.org/namespaces/inkscape" xmlns:sodipodi="http://sodipodi.sourceforge.net/DTD/sodipodi-0.dtd" width="24" height="24" viewBox="0 0 24 24">
  <style type="text/css" id="current-color-scheme">
      .ColorScheme-Text {
        color:#31363b;
      }
      .ColorScheme-Background {
        color:#eff0f1;
      }
      .ColorScheme-Accent {
        color:#3daee9;
      }
      .ColorScheme-ButtonText {
        color:#31363b;
      }
      </style>
  <g transform="translate(1,1)">
    <g id="fcitx-handwriting-active" transform="translate(-198,-110)">
      <path class="ColorScheme-Text" style="fill:currentColor;fill-opacity:1;stroke:none" d="M 213.13672 112.56836 L 209.86523 124.77539 L 210.93555 128.51367 L 213.73047 125.81055 L 217 113.60352 L 216.51758 113.47266 L 213.13672 112.56836 z M 213.84375 113.79102 L 215.77539 114.30859 L 215.51562 115.27734 L 213.58398 114.75781 L 213.84375 113.79102 z M 213.32617 115.72461 L 215.25781 116.24219 L 212.83594 125.28516 L 211.43945 126.63672 L 210.9043 124.76758 L 213.32617 115.72461 z M 202.32227 119.45117 C 202.12908 119.45542 201.91662 119.47481 201.67773 119.50781 A 0.50078273 0.50078273 0 1 0 201.81445 120.5 C 202.23319 120.4422 202.52454 120.444 202.68555 120.4707 C 202.84655 120.4974 202.84968 120.52812 202.83789 120.51172 C 202.82609 120.49532 202.84403 120.50272 202.83203 120.60352 C 202.82063 120.70461 202.77383 120.86783 202.70703 121.05469 C 202.57339 121.42841 202.35575 121.87805 202.29688 122.38086 C 202.26747 122.63227 202.28198 122.92038 202.42969 123.1875 C 202.57742 123.45462 202.84925 123.65478 203.16797 123.76172 C 203.3205 123.81282 203.38126 123.80234 203.47656 123.80664 C 203.57186 123.81064 203.67731 123.8125 203.79297 123.8125 C 204.02428 123.81257 204.29652 123.80941 204.55078 123.81641 C 204.58278 123.81729 204.59751 123.82222 204.62891 123.82422 C 204.53821 123.87962 204.48332 123.92242 204.37695 123.98242 C 203.84414 124.28309 203.15898 124.62677 202.5957 125.00391 C 202.31407 125.19247 202.05958 125.38667 201.85938 125.625 C 201.65917 125.86333 201.48995 126.2011 201.57227 126.57422 C 201.65457 126.94734 201.94235 127.20603 202.30273 127.40039 C 202.66312 127.59475 203.13618 127.75197 203.7832 127.89844 C 204.83439 128.1364 206.14352 128.06689 207.32617 128.11914 C 208.50883 128.17144 209.49456 128.37936 209.87891 128.82227 A 0.50005 0.50005 0 1 0 210.63281 128.16602 C 209.87673 127.29474 208.61694 127.17419 207.37109 127.11914 C 206.12525 127.06404 204.82125 127.10884 204.00391 126.92383 C 203.40819 126.78897 203.00455 126.64402 202.77734 126.52148 C 202.55013 126.39894 202.54155 126.32639 202.54883 126.35938 C 202.55583 126.39238 202.5303 126.38223 202.625 126.26953 C 202.7197 126.15679 202.91174 125.99703 203.15234 125.83594 C 203.63355 125.51375 204.30372 125.17258 204.86914 124.85352 C 205.15185 124.69398 205.40754 124.54128 205.62109 124.375 C 205.83465 124.20872 206.087 124.04488 206.09766 123.62305 C 206.10366 123.37711 205.93339 123.15262 205.79297 123.05859 C 205.65255 122.96459 205.52552 122.92803 205.39648 122.89844 C 205.1384 122.83924 204.86027 122.82421 204.57812 122.81641 C 204.296 122.80841 204.01555 122.8125 203.79492 122.8125 C 203.68461 122.81247 203.58855 122.81166 203.52344 122.80859 C 203.49592 122.80733 203.47379 122.80359 203.45898 122.80078 C 203.47099 122.8053 203.47205 122.80771 203.48633 122.8125 C 203.43594 122.79559 203.43876 122.79694 203.45898 122.80078 C 203.3447 122.75773 203.31651 122.72446 203.30469 122.70312 C 203.29159 122.67952 203.27446 122.62262 203.28906 122.49805 C 203.31826 122.24888 203.49456 121.82289 203.64844 121.39258 C 203.72534 121.17742 203.79696 120.95654 203.82422 120.71484 C 203.85152 120.47314 203.83022 120.17951 203.64844 119.92773 C 203.46689 119.67596 203.17008 119.53754 202.84961 119.48438 C 202.68937 119.45777 202.51546 119.44692 202.32227 119.45117 z " id="path4530"/>
      <rect y="110.00002" x="198" height="22" width="22" id="rect4532" style="fill:none;fill-opacity:1;stroke:none;stroke-linecap:round;stroke-linejoin:miter"/>
      <rect style="fill:none;fill-opacity:1;stroke:none;stroke-linecap:round;stroke-linejoin:miter" id="rect4545" width="22" height="22" x="198" y="110.00002"/>
      <ellipse style="fill:#11d116;fill-opacity:1;stroke:none;stroke-linecap:round;stroke-linejoin:miter" id="path4601" cx="202.5" cy="114.50002" rx="2.5" ry="2.5000026"/>
    </g>
  </g>
</svg>
