<svg xmlns="http://www.w3.org/2000/svg" xmlns:xlink="http://www.w3.org/1999/xlink" xmlns:cc="http://creativecommons.org/ns#" xmlns:dc="http://purl.org/dc/elements/1.1/" xmlns:rdf="http://www.w3.org/1999/02/22-rdf-syntax-ns#" xmlns:inkscape="http://www.inkscape.org/namespaces/inkscape" xmlns:sodipodi="http://sodipodi.sourceforge.net/DTD/sodipodi-0.dtd" width="24" height="24" viewBox="0 0 24 24">
  <style type="text/css" id="current-color-scheme">
      .ColorScheme-Text {
        color:#31363b;
      }
      .ColorScheme-Background {
        color:#eff0f1;
      }
      .ColorScheme-Accent {
        color:#3daee9;
      }
      .ColorScheme-ButtonText {
        color:#31363b;
      }
      </style>
  <g transform="translate(1,1)">
    <g id="fcitx-kbd" transform="translate(154,66.000027) translate(-154,-66)">
      <rect style="fill:none;fill-rule:evenodd;stroke:none;stroke-width:1px;stroke-linecap:butt;stroke-linejoin:miter;stroke-opacity:1" id="rect4209" width="22" height="22" x="0" y="0"/>
      <path style="fill:currentColor;fill-opacity:1;stroke:none" d="m 13,1033.3622 0,1 0,1 c 0,0.554 -0.446,1 -1,1 -1.108,0 -2,0.892 -2,2 l -8,0 0,11 18,0 0,-11 -9,0 c 0,-0.554 0.446,-1 1,-1 1.108,0 2,-0.892 2,-2 l 0,-1 0,-1 -1,0 z m -10,6 7,0 1,0 8,0 0,1 -16,0 0,-1 z m 0,2 16,0 0,7 -4,0 -8,0 -4,0 0,-7 z m 1,1 0,1 2,0 0,-1 -2,0 z m 3,0 0,1 2,0 0,-1 -2,0 z m 3,0 0,1 2,0 0,-1 -2,0 z m 3,0 0,1 2,0 0,-1 -2,0 z m 3,0 0,1 2,0 0,-1 -2,0 z m -12,2 0,1 2,0 0,-1 -2,0 z m 3,0 0,1 2,0 0,-1 -2,0 z m 3,0 0,1 2,0 0,-1 -2,0 z m 3,0 0,1 2,0 0,-1 -2,0 z m 3,0 0,1 2,0 0,-1 -2,0 z m -12,2 0,1 2,0 0,-1 -2,0 z m 3,0 0,1 8,0 0,-1 -8,0 z m 9,0 0,1 2,0 0,-1 -2,0 z" transform="translate(0,-1030.3622)" class="ColorScheme-Text" id="path4211"/>
    </g>
  </g>
</svg>
