<svg xmlns="http://www.w3.org/2000/svg" xmlns:xlink="http://www.w3.org/1999/xlink" xmlns:cc="http://creativecommons.org/ns#" xmlns:dc="http://purl.org/dc/elements/1.1/" xmlns:rdf="http://www.w3.org/1999/02/22-rdf-syntax-ns#" xmlns:inkscape="http://www.inkscape.org/namespaces/inkscape" xmlns:sodipodi="http://sodipodi.sourceforge.net/DTD/sodipodi-0.dtd" width="24" height="24" viewBox="0 0 24 24">
  <style type="text/css" id="current-color-scheme">
      .ColorScheme-Text {
        color:#31363b;
      }
      .ColorScheme-Background {
        color:#eff0f1;
      }
      .ColorScheme-Accent {
        color:#3daee9;
      }
      .ColorScheme-ButtonText {
        color:#31363b;
      }
      </style>
  <g transform="translate(1,1)">
    <g id="fcitx-chttrans-active" transform="translate(154,-37.999975) translate(-154,-132)">
      <rect style="fill:none;fill-opacity:1;stroke:none" id="rect4343" width="22" height="22" x="-2.4709701e-09" y="170"/>
      <path class="ColorScheme-Text" style="fill:currentColor;fill-opacity:1;stroke:none" d="m 160.01953,113.46484 c -0.3125,0.70313 -0.89844,1.38672 -1.75781,2.05078 l 0.82031,0.64454 c 0.39063,-0.27344 0.76172,-0.64453 1.11328,-1.11328 l 5.44922,0 0,-0.87891 -4.86328,0 c 0.0391,-0.11719 0.0977,-0.2539 0.17578,-0.41016 l -0.9375,-0.29297 z m 7.14844,0 c -0.39063,1.25 -1.01563,2.36328 -1.875,3.33985 l 0.70312,0.76172 0.58594,-0.70313 c 0.35156,0.58594 0.76172,1.09375 1.23047,1.52344 -0.625,0.50781 -1.36719,0.95704 -2.22656,1.34766 l 0.82031,0.8789 c 0.85938,-0.46875 1.60156,-0.95703 2.22656,-1.46484 0.70313,0.54687 1.48438,1.03515 2.34375,1.46484 l 0.76172,-0.9375 c -0.9375,-0.39063 -1.73828,-0.82031 -2.40234,-1.28906 0.66406,-0.74219 1.13281,-1.58203 1.40625,-2.51953 l 0.82031,0 0,-0.9961 -3.86719,0 0.46875,-1.11328 -0.99609,-0.29297 z m -7.26563,2.28516 -0.35156,1.69922 -1.17187,0 0,0.9375 0.99609,0 -0.35156,1.75781 4.39453,0 0,0.35156 0.99609,0 0.0586,-0.35156 0.52734,0 0,-0.87891 -0.46875,0 0.11719,-0.8789 0.9375,0 0,-0.9375 -0.82032,0 L 165,115.75 l -5.09766,0 z m 7.32422,0.11719 2.40235,0 c -0.19532,0.66406 -0.54688,1.28906 -1.05469,1.875 -0.50781,-0.50782 -0.97656,-1.09375 -1.40625,-1.75781 0.0391,-0.0391 0.0586,-0.0781 0.0586,-0.11719 z m -6.44531,0.70312 0.76172,0 c 0.19531,0.23438 0.39062,0.52734 0.58594,0.87891 l -1.52344,0 0.17578,-0.87891 z m 1.69922,0 1.46484,0 -0.11719,0.87891 -0.76171,0 -0.58594,-0.87891 z m -1.99219,1.81641 0.76172,0 c 0.19531,0.23437 0.41016,0.52735 0.64453,0.8789 l -1.58203,0 0.17578,-0.8789 z m 1.75781,0 1.46485,0 -0.17578,0.8789 -0.76172,0 c -0.15625,-0.3125 -0.33203,-0.60547 -0.52735,-0.8789 z m 5.6836,1.93359 c -1.25,0.74219 -2.10938,1.15234 -2.57813,1.23047 -0.70312,0.11719 -1.95312,0.19531 -3.75,0.23438 0.625,-0.19532 1.25,-0.48828 1.875,-0.87891 l -0.76172,-0.52734 c -0.78125,0.54687 -1.75781,0.97656 -2.92968,1.28906 l 0.11718,0.82031 c 1.17188,0 2.36328,-0.0391 3.57422,-0.11719 -1.25,0.46876 -2.77344,0.87891 -4.57031,1.23047 l 0.17578,0.9375 c 1.75781,0 3.53516,-0.0586 5.33203,-0.17578 l 0,1.23047 c 0,0.3125 -0.11718,0.46875 -0.35156,0.46875 -0.42969,0 -0.85937,-0.0586 -1.28906,-0.17578 l 0.17578,1.05469 c 0.35156,0.0781 0.72265,0.11718 1.11328,0.11718 0.625,0 1.03516,-0.0977 1.23047,-0.29297 0.19531,-0.1953 0.29297,-0.52734 0.29297,-0.99609 l 0,-1.52344 c 1.32812,-0.11718 2.65625,-0.27343 3.98437,-0.46875 0.3125,0.3125 0.58594,0.64453 0.82031,0.9961 l 1.11329,-0.52735 c -0.78125,-0.9375 -1.71875,-1.79687 -2.8125,-2.57812 l -1.05469,0.46875 c 0.42969,0.27343 0.82031,0.58593 1.17187,0.9375 -1.5625,0.3125 -3.96484,0.52734 -7.20703,0.64453 2.61719,-0.58594 5.03906,-1.50391 7.26563,-2.75391 l -0.9375,-0.64453 z m -0.87891,4.27735 -0.46875,0.9375 c 1.28906,0.3125 2.57813,0.74219 3.86719,1.28906 l 0.46875,-0.9961 c -1.21094,-0.46874 -2.5,-0.8789 -3.86719,-1.23046 z m -4.6875,0.11718 c -1.13281,0.46876 -2.38281,0.83985 -3.75,1.11328 l 0.70313,0.9961 c 1.48437,-0.39063 2.7539,-0.89844 3.80859,-1.52344 l -0.76172,-0.58594 z M 157,128 l 0,1 16,0 0,-1 -16,0 z" transform="translate(-154,59.999974)" id="path4357"/>
    </g>
  </g>
</svg>
