<svg xmlns="http://www.w3.org/2000/svg" xmlns:xlink="http://www.w3.org/1999/xlink" xmlns:cc="http://creativecommons.org/ns#" xmlns:dc="http://purl.org/dc/elements/1.1/" xmlns:rdf="http://www.w3.org/1999/02/22-rdf-syntax-ns#" xmlns:inkscape="http://www.inkscape.org/namespaces/inkscape" xmlns:sodipodi="http://sodipodi.sourceforge.net/DTD/sodipodi-0.dtd" width="24" height="24" viewBox="0 0 24 24">
  <style type="text/css" id="current-color-scheme">
      .ColorScheme-Text {
        color:#31363b;
      }
      .ColorScheme-Background {
        color:#eff0f1;
      }
      .ColorScheme-Accent {
        color:#3daee9;
      }
      .ColorScheme-ButtonText {
        color:#31363b;
      }
      </style>
  <g transform="translate(1,1)">
    <g style="fill:#cccccc" transform="translate(66,0) translate(-66,0)" id="fcitx-bopomofo">
      <rect style="fill:none;fill-rule:evenodd;stroke:none;stroke-width:1px;stroke-linecap:butt;stroke-linejoin:miter;stroke-opacity:1" id="rect4212" width="22" height="22" x="0" y="0"/>
      <path class="ColorScheme-Text" style="fill:currentColor;fill-opacity:1;stroke:none" d="m 91,37 0,16 16,0 0,-16 -16,0 z m 1,1 14,0 0,14 -14,0 0,-14 z m 7.300781,0.599609 -0.601562,0.800782 2.000001,1.5 0.60156,-0.800782 -1.999999,-1.5 z m -5.947265,0.04687 -0.707032,0.707032 2,2 0.707032,-0.707032 -2,-2 z M 96,41 l 0,1 4,0 0,3 -3,0 0,1 3,0 0,4 -4,0 0,1 9,0 0,-1 -4,0 0,-4 3,0 0,-1 -3,0 0,-3 4,0 0,-1 -9,0 z m -2.646484,0.646484 -0.707032,0.707032 2,2 0.707032,-0.707032 -2,-2 z m 1.171875,3.195313 -2,6 0.949218,0.316406 2,-6 -0.949218,-0.316406 z" transform="translate(-88,-33.999992)" id="path4214"/>
    </g>
  </g>
</svg>
