<svg xmlns="http://www.w3.org/2000/svg" xmlns:xlink="http://www.w3.org/1999/xlink" xmlns:cc="http://creativecommons.org/ns#" xmlns:dc="http://purl.org/dc/elements/1.1/" xmlns:rdf="http://www.w3.org/1999/02/22-rdf-syntax-ns#" xmlns:inkscape="http://www.inkscape.org/namespaces/inkscape" xmlns:sodipodi="http://sodipodi.sourceforge.net/DTD/sodipodi-0.dtd" width="24" height="24" viewBox="0 0 24 24">
  <style type="text/css" id="current-color-scheme">
      .ColorScheme-Text {
        color:#31363b;
      }
      .ColorScheme-Background {
        color:#eff0f1;
      }
      .ColorScheme-Accent {
        color:#3daee9;
      }
      .ColorScheme-ButtonText {
        color:#31363b;
      }
      </style>
  <g transform="translate(1,1)">
    <g id="fcitx-chewing-libpinyin" transform="translate(88,22.000008) translate(-88,-22)">
      <path class="ColorScheme-Text" style="fill:currentColor;fill-opacity:1;stroke:none" d="m 91,37 0,0.5 0,15.5 16,0 0,-16 -16,0 z m 2,2 6,0 0,1 -2,0 0,3 1.5,0 0.5,0 -0.400391,-0.300781 C 98.599609,42.699219 100,40.75 100,39 l 1,0 c 0,0.708749 -0.16537,1.388658 -0.38281,2 L 102,41 l 0,-2 1,0 0,2 2,0 0,1 -2,0 0,2 2,0 0,1 -5,0 0,-1 2,0 0,-2 -1.80273,0 c -0.398628,0.789612 -0.796879,1.300781 -0.796879,1.300781 L 99,43 l 0,8 -0.5,0 -4.5,0 -1,0 0,-8 1,0 0,-3 -1,0 0,-1 z m 2,1 0,3 1,0 0,-3 -1,0 z m 0,4 0,3 -1,0 0,1 3,0 0,1 -3,0 0,1 4,0 0,-6 -1,0 0,3 -1,0 0,-3 -1,0 z m 5,2 5,0 0,5 -5,0 0,-4.5 0,-0.5 z m 1,1 0,3 3,0 0,-3 -3,0 z" transform="translate(-88,-34)" id="path4360"/>
      <rect y="0" x="0" height="22" width="22" id="rect4353" style="fill:none;fill-opacity:1;stroke:none;stroke-linejoin:miter"/>
    </g>
  </g>
</svg>
