<svg xmlns="http://www.w3.org/2000/svg" xmlns:xlink="http://www.w3.org/1999/xlink" xmlns:cc="http://creativecommons.org/ns#" xmlns:dc="http://purl.org/dc/elements/1.1/" xmlns:rdf="http://www.w3.org/1999/02/22-rdf-syntax-ns#" xmlns:inkscape="http://www.inkscape.org/namespaces/inkscape" xmlns:sodipodi="http://sodipodi.sourceforge.net/DTD/sodipodi-0.dtd" width="24" height="24" viewBox="0 0 24 24">
  <style type="text/css" id="current-color-scheme">
      .ColorScheme-Text {
        color:#31363b;
      }
      .ColorScheme-Background {
        color:#eff0f1;
      }
      .ColorScheme-Accent {
        color:#3daee9;
      }
      .ColorScheme-ButtonText {
        color:#31363b;
      }
      </style>
  <g transform="translate(1,1)">
    <g id="fcitx-emoji" transform="translate(0,-37.999992) translate(2.47097e-09,-132)">
      <rect style="fill:none;fill-opacity:1;stroke:none" id="rect4372" width="22" height="22" x="-2.4709701e-09" y="170"/>
      <path class="ColorScheme-Text" style="fill:currentColor;fill-opacity:1;stroke:none" d="m 3.2226562,150.05273 -0.4453124,0.89454 4,2 0.4453124,-0.89454 -4,-2 z m 15.5546878,0 -4,2 0.445312,0.89454 4,-2 -0.445312,-0.89454 z M 4,153 a 1,1 0 0 0 -1,1 1,1 0 0 0 1,1 1,1 0 0 0 1,-1 1,1 0 0 0 -1,-1 z m 14,0 a 1,1 0 0 0 -1,1 1,1 0 0 0 1,1 1,1 0 0 0 1,-1 1,1 0 0 0 -1,-1 z m -9.9003906,1.69922 c -0.81,1.08 -1.2349527,2.28879 -1.1601563,3.33594 0.037398,0.52357 0.2100311,1.02143 0.5683594,1.39062 C 7.8661408,159.79497 8.3958333,160 9,160 c 0.9612309,0 1.638831,-0.68084 2,-1.45703 0.361169,0.77619 1.038769,1.45703 2,1.45703 0.604167,0 1.133858,-0.20503 1.492188,-0.57422 0.358328,-0.36919 0.530961,-0.86705 0.568359,-1.39062 0.0748,-1.04715 -0.350156,-2.25594 -1.160156,-3.33594 l -0.800782,0.60156 c 0.69,0.92 1.015048,1.96121 0.964844,2.66406 -0.0251,0.35143 -0.13372,0.60357 -0.291015,0.76563 C 13.616141,158.89253 13.395833,159 13,159 12.472222,159 12.15973,158.6932 11.892578,158.10547 11.625426,157.51773 11.5,156.69444 11.5,156 l -1,0 c 0,0.69444 -0.125426,1.51773 -0.392578,2.10547 C 9.84027,158.6932 9.5277778,159 9,159 c -0.3958333,0 -0.6161408,-0.10747 -0.7734375,-0.26953 -0.1572967,-0.16206 -0.2659138,-0.4142 -0.2910156,-0.76563 -0.050204,-0.70285 0.2748437,-1.74406 0.9648437,-2.66406 l -0.8007812,-0.60156 z" transform="translate(0,26)" id="path4549"/>
    </g>
  </g>
</svg>
