<!DOCTYPE svg>
<svg xmlns="http://www.w3.org/2000/svg" viewBox="0 0 24 24" version="1.1" width="24" height="24">
  <defs>
    <style type="text/css" id="current-color-scheme">
            .ColorScheme-Text {
                color:#232629;
            }
        </style>
  </defs>
  <g transform="translate(1,1)">
    <path class="ColorScheme-Text" style="fill:currentColor; fill-opacity:1; stroke:none" d="M 3 3 L 3 17 L 7 17 L 7 19 L 12 19 L 12 18 L 8 18 L 8 7 L 12 7 L 12 11 L 16 11 L 16 12 L 17 12 L 17 10 L 13 6 L 12 6 L 9 3 L 3 3 Z M 4 4 L 8 4 L 8 6 L 7 6 L 7 16 L 4 16 L 4 4 Z M 14 13 L 14 14 L 13 14 L 13 15 L 14 15 L 14 17 L 13 17 L 13 18 L 14 18 L 14 19 L 15 19 L 15 18 L 17 18 L 17 19 L 18 19 L 18 18 L 19 18 L 19 17 L 18 17 L 18 15 L 19 15 L 19 14 L 18 14 L 18 13 L 17 13 L 17 14 L 15 14 L 15 13 L 14 13 Z M 15 15 L 17 15 L 17 17 L 15 17 L 15 15 Z"/>
  </g>
</svg>
