<svg xmlns="http://www.w3.org/2000/svg" width="24" height="24" version="1.1" viewBox="0 0 24 24">
  <defs>
    <style id="current-color-scheme" type="text/css">
        .ColorScheme-Text {
            color:#232629;
        }
        </style>
  </defs>
  <g transform="translate(1,1)">
    <path class="ColorScheme-Text" style="fill:currentColor;stroke:none" d="m5.8027344 2.9921875 0.2304687 1.8535156s0.099972 0.7498162-0.1816406 2.0664063c-0.2816126 1.3165893-0.9434407 3.1528916-1.9882813 4.7675786-1.1698408 1.724061-0.8837334 2.841426-0.4296874 4.039062s1.2160972 2.395185 2.0761718 3.419922l0.6894532 0.820312 0.2460937-1.048828s0.16218-0.772614 1.1640625-1.666015c1.0018809-0.893401 2.838939-1.863446 6.269531-1.947266h0.158203l0.126953-0.08594c4.797971-3.156433 4.794922-9.4492193 4.794922-9.4492192l0.0078-1.6582032-0.982422 1.3457032c-1.554178 1.9119257-3.996094 2.5957031-3.996094 2.5957031l0.333985 0.9628906s2.117244-0.7222974 3.439453-1.7714844c-0.319133 1.3841911-0.794219 4.6785509-4.191407 7.0898439-3.363439 0.158632-5.5237157 1.096358-6.6816401 2.128906-0.056539 0.05042-0.082192 0.08352-0.1230469 0.125 0.00542-0.01973 0.00604-0.03285 0.011719-0.05273 0.2128629-0.744692 0.60499-1.582818 1.2988281-2.177735 0.6689816-0.573606 1.4519814-0.952789 2.2285161-1.373047 0.776534-0.420258 1.552857-0.895265 2.103515-1.697265h0.0078c2.1737828-3.2606347 0.3320568-7.0488293 0.3320568-7.0488292l-0.560547-1.1738282-0.369141 1.2402344s-0.634863 2.1165897-2.7617184 3.0410156l0.4003906 0.921875c2.0078748-0.8727118 2.5077478-1.7811228 2.8051848-2.506357 0.131854 0.9831958 0.69678 2.7319273-0.680185 4.9731534-0.401613 0.580282-1.013236 0.963329-1.7558591 1.365235-0.7460799 0.403776-1.6147514 0.817719-2.4082031 1.498047-0.1231754 0.105614-0.2171916 0.225798-0.3242188 0.339844 0.3403307-0.670263 0.7711239-1.397241 1.4042969-2.230469 0.5570007-0.732989 0.7176985-1.601428 0.6582031-2.4257815-0.0594947-0.8243546-0.3294808-1.6220785-0.6503906-2.3300781-0.6418194-1.4160004-1.5214844-2.4960938-1.5214844-2.4960938zm1.2519531 3.4960937c0.2425285 0.3791203 0.2394727 0.3616874 0.4765625 0.8847657 0.28752 0.634334 0.508245 1.3350284 0.5546875 1.9785156 0.0464428 0.6434876-0.0660011 1.2084905-0.4433594 1.7050785-1.6524151 2.174508-2.2973564 3.912659-2.4726562 5.234375-0.019767 0.148947 0.023437 0.296875 0.023437 0.296875s-0.5957901-0.819267-0.7539063-1.236329c-0.3974217-1.048279-0.4772921-2.011359 0.3710943-3.216796 0.848386-1.205438 1.9439943-3.5799668 2.2441406-5.6464848z"/>
  </g>
</svg>
