<svg xmlns="http://www.w3.org/2000/svg" xmlns:xlink="http://www.w3.org/1999/xlink" xmlns:cc="http://creativecommons.org/ns#" xmlns:dc="http://purl.org/dc/elements/1.1/" xmlns:rdf="http://www.w3.org/1999/02/22-rdf-syntax-ns#" xmlns:inkscape="http://www.inkscape.org/namespaces/inkscape" xmlns:sodipodi="http://sodipodi.sourceforge.net/DTD/sodipodi-0.dtd" width="24" height="24" viewBox="0 0 24 24">
  <style type="text/css" id="current-color-scheme">
      .ColorScheme-Text {
        color:#31363b;
      }
      .ColorScheme-Background {
        color:#eff0f1;
      }
      .ColorScheme-Accent {
        color:#3498db;
      }
      .ColorScheme-ButtonText {
        color:#31363b;
      }
      .ColorScheme-NegativeText{
        color:#e74c3c;
      }
      </style>
  <g transform="translate(1,1)">
    <g transform="translate(54,-34) translate(88,0)" id="flightmode-off">
      <path id="path1816" d="M -127.15155,47.999854 -128,48.848291 l 2.15156,2.151563 -2.15156,2.151563 0.84845,0.848437 2.15156,-2.151564 2.15154,2.151564 0.84845,-0.848437 -2.15156,-2.151563 2.15156,-2.151563 -0.84845,-0.848437 -2.15154,2.151563 z" class="ColorScheme-NegativeText" style="fill:currentColor;fill-opacity:1;stroke:none;stroke-width:1.19999874" inkscape:connector-curvature="0"/>
      <rect style="opacity:1;fill:none;fill-opacity:1;stroke:none" id="rect1818" width="22" height="22" x="-142" y="34"/>
      <path inkscape:connector-curvature="0" class="ColorScheme-Text" id="path1820" d="m -134,37 c -2.76142,0 -5,2.238576 -5,5 h 1 c 0,-2.209139 1.79086,-4 4,-4 z m 3,0 c 0,0 -1,0 -1,3 v 2.5 l -1.09961,0.550781 V 43 h -0.80078 v 0.550781 H -134 V 43.75 l -2,1 v -0.5 h -0.0996 v -0.550781 h -0.80078 V 44.25 H -137 v 1 l -2,1 v 1 l 2.1914,-0.273438 0.10938,0.273438 h 0.39844 l 0.14257,-0.355469 2.75196,-0.34375 h 0.10547 l 0.006,-0.01367 L -132,46.125 V 49 c 0,0.487991 0.24052,0.971967 0.48438,1.34375 L -134,52 v 1 l 3,-1 2,0.671875 v -1.34375 l -1.48437,-0.984375 C -130.24052,49.971967 -130,49.487991 -130,49 v -2.875 l 1.29492,0.162109 0.006,0.01367 h 0.10547 l 2.75195,0.34375 0.14258,0.355469 h 0.39844 L -125.19136,46.72656 -123,47 v -1 l -2,-1 v -1 h -0.0996 v -0.550781 h -0.80078 V 44 H -126 v 0.5 l -2,-1 v -0.199219 h -0.0996 V 42.75 h -0.80078 v 0.05078 L -130,42.5 V 40 c 0,-3 -1,-3 -1,-3 z m -3,2 c -1.65685,0 -3,1.343146 -3,3 h 1 c 0,-1.104569 0.89543,-2 2,-2 z m 0,2 c 0,0 -1,0 -1,1 h 1 z" style="opacity:0.35;fill:currentColor;fill-opacity:1;fill-rule:evenodd;stroke:none;stroke-width:1px;stroke-linecap:butt;stroke-linejoin:miter;stroke-opacity:1" sodipodi:nodetypes="ccccccscccccccccccccccccccccccccscccccccscccccccccccccccccccccccccscccccccccc"/>
    </g>
  </g>
</svg>
