<svg viewBox="0 0 96 96" xmlns="http://www.w3.org/2000/svg">

  <!-- style definitions -->
  <defs>
    <style type="text/css" id="current-color-scheme">
      .ColorScheme-Text {
        color:#232629;
      }
      .ColorScheme-Accent {
        color:#3daee9;
      }
    </style>
  </defs>

  <!-- folder bg -->
  <path
    style="fill:currentColor"
    class="ColorScheme-Accent"
    d="m6 9v21h-1v57h86v-63h-1v-9h-42l-6-6z" />

  <!-- folder fg -->
  <path
    d="m6 9v21h27l6-6h51v-9h-42l-6-6z"
    fill-opacity=".33" />

  <!-- folder highlight -->
  <path
    d="m42 9 5 7h43v-1h-42zm-3 15-6 6h-28v1h29z"
    fill="#fff"
    fill-opacity=".2" />

  <!-- folder shadow -->
  <path
    d="m39 24-7 5h-26v1h27zm-34 62v1h86v-1z"
    fill-opacity=".2" />

  <!-- snap logo -->
  <path
    d="m31.5 42.5 17.5 17.541016v-10.96875zm19.689453 6.5 13.125 6.199219-3.814453-6.199219zm-1.189453.544922v10.292969l6.933594-7.017579zm-5.160156 7.751953-8.339844 16.203125 12.197266-12.345703z"
    style="fill:currentColor;fill-opacity:0.6"
    class="ColorScheme-Text" />

</svg>
