<svg xmlns="http://www.w3.org/2000/svg" version="1.1" viewBox="0 0 24 24" width="24" height="24">
  <defs>
    <style type="text/css" id="current-color-scheme">
            .ColorScheme-Text {
                color:#232629;
            }
        </style>
  </defs>
  <g transform="translate(1,1)">
    <path class="ColorScheme-Text" style="fill:currentColor;fill-opacity:1;stroke:none" d="m5 11v2h2v-2h-2zm4 0v2h2v-2h-2zm7.5 1c-0.830996 0-1.5 0.669004-1.5 1.5v0.5h1v-0.5c0-0.277 0.223-0.5 0.5-0.5s0.5 0.223 0.5 0.5v1.5h-1-1-1v4h5v-4h-1v-1.5c0-0.830996-0.669004-1.5-1.5-1.5zm-9.5 2v2h2v-2h-2zm8 2h3v2h-3v-2zm-10 1v2h2v-2h-2zm4 0v2h2v-2h-2z"/>
    <path class="ColorScheme-Text" style="fill:currentColor;fill-opacity:1;stroke:none" d="m3 3v16h1v-9h3v-0.00781l0.0078125 0.00781 2-2h8.9921875v4h1v-7h-6.992188l-2-2-0.007812 0.0078125v-0.0078125h-6z"/>
  </g>
</svg>
