<svg xmlns="http://www.w3.org/2000/svg" id="svg1" version="1.1" viewBox="0 0 24 24" width="24" height="24">
  <!--
SPDX-FileCopyrightText: 2024 g10 Code GmbH
SPDX-Contributor: Carl Schwan <carlschwan@gnupg.com>
SPDX-License-Identifier: LGPL-2.1-or-later
-->
  <defs id="defs1">
    <style id="current-color-scheme" type="text/css">.ColorScheme-Text {
                color:#232629;
            }</style>
  </defs>
  <g transform="translate(1,1)">
    <path id="path1" class="ColorScheme-Text" d="m5 11v2h2v-2zm4 0v2h2v-2zm7.5 1c-0.831 0-1.5 0.669-1.5 1.5v1.5h-1v4h5v-4h-1v-1.5c0-0.831-0.669-1.5-1.5-1.5zm-9.5 2v2h2v-2zm9.5-1c0.277 0 0.5 0.223 0.5 0.5v1.5h-1v-1.5c0-0.277 0.223-0.5 0.5-0.5zm-11.5 4v2h2v-2zm4 0v2h2v-2z" fill="currentColor"/>
    <path id="path1-5" class="ColorScheme-Text" d="m3 3v16h1v-9h3v-0.00781l0.0078125 0.00781 2-2h8.9921875v4h1v-7h-6.992188l-2-2-0.007812 0.0078125v-0.0078125h-6z" fill="currentColor"/>
  </g>
</svg>
