<svg viewBox="0 0 96 96" xmlns="http://www.w3.org/2000/svg">

  <!-- style definitions -->
  <defs>
    <style type="text/css" id="current-color-scheme">
      .ColorScheme-Text {
        color:#232629;
      }
      .ColorScheme-Accent {
        color:#3daee9;
      }
    </style>
  </defs>

  <!-- folder bg -->
  <path
    style="fill:currentColor"
    class="ColorScheme-Accent"
    d="m6 9v21h-1v57h86v-63h-1v-9h-42l-6-6z" />

  <!-- folder fg -->
  <path
    d="m6 9v21h27l6-6h51v-9h-42l-6-6z"
    fill-opacity=".33" />

  <!-- folder highlight -->
  <path
    d="m42 9 5 7h43v-1h-42zm-3 15-6 6h-28v1h29z"
    fill="#fff"
    fill-opacity=".2" />

  <!-- folder shadow -->
  <path
    d="m39 24-7 5h-26v1h27zm-34 62v1h86v-1z"
    fill-opacity=".2" />

  <!-- log -->
  <path
    d="m33 42v1h30v-1zm5.5 5.75a1.75 1.75 0 0 0 -1.75 1.75 1.75 1.75 0 0 0 1.75 1.75 1.75 1.75 0 0 0 1.75-1.75 1.75 1.75 0 0 0 -1.75-1.75zm3.5.25v2h15v-2zm0 3v2h6v-2zm-3.5 6.75a1.75 1.75 0 0 0 -1.75 1.75 1.75 1.75 0 0 0 1.75 1.75 1.75 1.75 0 0 0 1.75-1.75 1.75 1.75 0 0 0 -1.75-1.75zm3.5.25v2h8v-2zm0 4v2h17v-2zm-9 7v1h30v-1z"
    style="fill:currentColor;fill-opacity:0.6"
    class="ColorScheme-Text" />

</svg>
