<svg viewBox="0 0 96 96" xmlns="http://www.w3.org/2000/svg">

  <!-- style definitions -->
  <defs>
    <style type="text/css" id="current-color-scheme">
      .ColorScheme-Text {
        color:#232629;
      }
      .ColorScheme-Accent {
        color:#3daee9;
      }
    </style>
  </defs>

  <!-- folder bg -->
  <path
    style="fill:currentColor"
    class="ColorScheme-Accent"
    d="m6 9v21h-1v57h86v-63h-1v-9h-42l-6-6z" />

  <!-- folder fg -->
  <path
    d="m6 9v21h27l6-6h51v-9h-42l-6-6z"
    fill-opacity=".33" />

  <!-- folder highlight -->
  <path
    d="m42 9 5 7h43v-1h-42zm-3 15-6 6h-28v1h29z"
    fill="#fff"
    fill-opacity=".2" />

  <!-- folder shadow -->
  <path
    d="m39 24-7 5h-26v1h27zm-34 62v1h86v-1z"
    fill-opacity=".2" />

  <!-- docker -->
  <path
    d="m43 42v5h5v-5zm6 0v5h5v-5zm-5 1h3v3h-3zm6 0h3v3h-3zm13.078125 2.046875a4.6545455 4.6545455 0 0 0 -3.001953 4.828125 4.6545455 4.6545455 0 0 0 3.923828 4.125h-35c0 12.999948 11.000028 15 18 15 10.64986 0 17.006319-6.004768 17.888672-13.246094a4.6545455 4.6545455 0 0 0 3.609375 1.736328 4.6545455 4.6545455 0 0 0 4.501953-3.507812 4.6545455 4.6545455 0 0 0 -4.501953-3.472656 4.6545455 4.6545455 0 0 0 -1.605469.298828 4.6545455 4.6545455 0 0 0 .128906-1.634766 4.6545455 4.6545455 0 0 0 -3.943359-4.126953zm.117187 1.126953c1.502485.356193 2.668659 1.542037 2.830079 3.101563.153206 1.55483-.745267 2.944831-2.138672 3.597656-1.495801-.361035-2.655597-1.543641-2.816407-3.097656v-.001953c-.155949-1.551451.73708-2.942181 2.125-3.59961zm-27.195312 1.826172v5h5v-5zm6 0v5h5v-5zm6 0v5h5v-5zm6 0v5h5v-5zm-17 1h3v3h-3zm6 0h3v3h-3zm6 0h3v3h-3zm6 0h3v3h-3zm13.498047 2.509766h.001953c1.559266.00073 2.852546 1.029606 3.367188 2.476562-.505363 1.459087-1.80129 2.500009-3.369141 2.503906-1.56231-.0038-2.855725-1.038281-3.365235-2.490234.50951-1.451953 1.802925-2.486388 3.365235-2.490234zm-38.390625 3.490234h33.792969c-.512414 7.027436-6.31192 13-16.900391 13-3.404747 0-7.746603-.511278-11.119141-2.488281-3.1691-1.85775-5.494723-4.992357-5.773437-10.511719zm5.892578 2a2 2 0 0 0 -2 2 2 2 0 0 0 2 2 2 2 0 0 0 2-2 2 2 0 0 0 -2-2zm0 1a1 1 0 0 1 1 1 1 1 0 0 1 -1 1 1 1 0 0 1 -1-1 1 1 0 0 1 1-1z"
    style="fill:currentColor;fill-opacity:0.6"
    class="ColorScheme-Text" />

</svg>
