<svg viewBox="0 0 96 96" xmlns="http://www.w3.org/2000/svg">

  <!-- style definitions -->
  <defs>
    <style type="text/css" id="current-color-scheme">
      .ColorScheme-Text {
        color:#232629;
      }
      .ColorScheme-Accent {
        color:#3daee9;
      }
    </style>
  </defs>

  <!-- folder bg -->
  <path
    style="fill:currentColor"
    class="ColorScheme-Accent"
    d="m6 9v21h-1v57h86v-63h-1v-9h-42l-6-6z" />

  <!-- folder fg -->
  <path
    d="m6 9v21h27l6-6h51v-9h-42l-6-6z"
    fill-opacity=".33" />

  <!-- folder highlight -->
  <path
    d="m42 9 5 7h43v-1h-42zm-3 15-6 6h-28v1h29z"
    fill="#fff"
    fill-opacity=".2" />

  <!-- folder shadow -->
  <path
    d="m39 24-7 5h-26v1h27zm-34 62v1h86v-1z"
    fill-opacity=".2" />

  <!-- OSX logo in a window -->
  <path
    d="m32 43v26h32v-26zm23 2.5c0 1.999998-3 1.999998-3 0 0-2 3-2 3 0zm4 0c0 1.999998-3 1.999998-3 0 0-2 3-2 3 0zm4 0c0 1.999998-3 1.999998-3 0 0-2 3-2 3 0zm-30 2.5h30v20h-30zm9.3125 2 4.953125 8-4.953125 8h1.46875l4.21875-6.814453 4.21875 6.814453h1.46875l-4.953125-8 4.953125-8h-1.46875l-4.21875 6.814453-4.21875-6.814453z"
    style="fill:currentColor;fill-opacity:0.6"
    class="ColorScheme-Text" />

</svg>
