<svg viewBox="0 0 96 96" xmlns="http://www.w3.org/2000/svg">
  
  <!-- style definitions -->
  <defs>
    <style type="text/css" id="current-color-scheme">
      .ColorScheme-Text {
        color:#232629;
      }
      .ColorScheme-Accent {
        color:#3daee9;
      }
    </style>
  </defs>

  <!-- folder bg -->
  <path
    fill="#f62459"
    d="m6 9v21h-1v57h86v-63h-1v-9h-42l-6-6z" />

  <!-- folder fg -->
  <path
    d="m6 9v21h27l6-6h51v-9h-42l-6-6z"
    fill-opacity=".33" />

  <!-- folder highlight -->
  <path
    d="m42 9 5 7h43v-1h-42zm-3 15-6 6h-28v1h29z"
    fill="#fff"
    fill-opacity=".2" />

  <!-- folder shadow -->
  <path
    d="m39 24-7 5h-26v1h27zm-34 62v1h86v-1z"
    fill-opacity=".2" />

  <!-- debian logo -->
  <path
    d="m50.107725 71.341827c-1.635168-.272528-3.951657-1.226376-5.314297-2.112093-3.134074-2.04396-5.185434-4.31758-6.453276-7.155268-.408791-.953849-.651355-1.635169-1.36264-4.087922-.136264-.613188-.367408-1.300318-.45271-1.514436-.143882-.361182-.150204-.48302-.08748-1.687716.05955-1.090113.272527-2.725281.408792-2.856085.02016-.03161.06759-.03911.105468-.01663.128089.07603.246529-.275509.362912-1.07737.06377-.439316.163953-.900014.222642-1.023786.05873-.123728.158108-.396924.220939-.60701.14459-.48355.341736-.855236.951218-1.793297.268045-.412552.546678-.8619.61917-.998536.08531-.160769.178507-.239533.26408-.223195.08244.01567.218499-.08858.36099-.276612.619675-.817886 3.538329-3.230905 3.808417-3.14864.07372.02248.381703-.0789.684414-.225171.547522-.264606.788778-.325818.788778-.200137 0 .03624-.07917.118549-.175862.182914-.169745.112963-.166338.11487.0977.05355.150463-.03502.403859-.08476.563111-.110648.196752-.03202.276753-.07917.249609-.14702-.02385-.05955.03284-.118549.140324-.146229.269067-.06908.688338-.05778.688338.01867 0 .09171-.239729.184318-.429886.166221-.129723-.01226-.136345-.0013-.03911.06227.09674.06377.09797.07739.0068.07835-.06091.000627-.09062.0203-.06623.04388.02453.02343.187472-.02725.362163-.112828.174704-.08557.494666-.191948.711026-.23648.266341-.05478.393394-.118414.393394-.196909 0-.100972.123728-.109556.95746-.06649.526619.02725 1.321284.106421 1.765927.176044.8084.126589.808468.126589 1.109734-.03979.361345-.199578.942553-.225552 1.095277-.04892.05587.06459.20967.171085.341764.236631.215487.106967.229741.107103.138663.0013-.173016-.200178-.0012-.195137.666862.01963 2.153749.692232 3.909552 1.925069 5.212413 3.659893.308965.411395.327675.596476.03502.346055l-.167495-.143314.127951.240065c.07031.132039.127952.280413.127952.329729 0 .04933.207121.413863.460245.810077.570511.892982.730104 1.193837.691827 1.304052-.01649.04728-.269162-.267264-.561667-.698937-.292491-.431645-.725334-1.013241-.961861-1.292414-.353223-.4169-.445733-.488209-.517804-.399104-.04824.05969-.166119.119232-.261925.132585l-.174174.02411.172307.324169c.0947.178295.184869.287991.200239.243771.08231-.236794.46526.07454.639419.519703.05642.14439.206631.441742.333684.660781.126998.219038.214984.413589.195443.432354-.01948.0188-.135447-.04129-.257389-.133403l-.221837-.167474.151294.249276c.08325.137115.22256.304821.309646.37271.108602.08476.160573.218519.165424.426535.0095.384058.238204.837766.362872.718122.194216-.186389.234156-.06991.185278.540497-.03598.449713-.01689.746126.06854 1.060798.129722.477731.101787.595644-.08789.372367-.120594-.141993-.12182-.141897-.06786.0055.115824.315885.202298.788452.178247.973927-.04483.34611-.180304.20221-.226893-.241155l-.04552-.432735-.01362.460521c-.0068.253296-.06923.742732-.137723 1.087642-.06923.348385-.104378.770532-.07904.949779.04756.337212.0139.35028-.279778.108739-.119502-.09838-.14012-.07849-.222218.214134-.06908.246209-.06854.386388.0027.592591.05109.14856.0808.350048.06595.447739-.0342.225457-.222397.295758-.222397.08312 0-.267372-.106013-.172215-.429886.385968-.874651 1.507297-2.258603 2.673798-3.824959 3.22401-.923447.324388-1.542822.444672-2.58422.501879l-.937932.05151.463419.137196c.373677.110646.593117.127134 1.133322.0853.707729-.05491 1.538708-.202264 1.915505-.339745.150381-.05491.251938-.05737.30391-.0081.122501.117595-.965976.57996-1.612127.684722-1.099459.178267-2.571194-.01444-3.870348-.506647-.881451-.333981-2.189478-1.203798-1.989033-1.322679.03802-.02248.286822.09116.553001.252723.340237.206448.483954.260819.483954.183051 0-.146884.05028-.13984.32063.04483.244103.16682.994932.476559 1.535695.633541.589479.171112.360923-.03624-.429885-.390111-2.500404-1.118684-3.53841-2.237601-4.055736-4.371815-.189707-.782619.01362-2.498339.359532-3.035659.08775-.136128.15943-.303608.15943-.37211 0-.297256.516508-1.082628 1.046507-1.591264.933914-.896255 1.90489-1.268337 3.165346-1.21297.609319.02685.869556.07821 1.376649.271992.57517.219828 1.2994.680008 1.077603.684737-.05219.0011-.280772-.07235-.508046-.16325-.345484-.138163-.56701-.165839-1.351168-.168768-1.101136-.0041-1.639338.145807-2.422993.674952-1.111015.750201-1.728823 1.614295-1.947621 2.724012-.146812.744628-.151309.950952-.03679 1.68957.06596.425608.112827.550499.195403.520112.06936-.02549.108603.01226.108603.103288 0 .26379.59809 1.333826 1.012877 1.812156.998366 1.151377 2.613313 1.88611 4.145643 1.88611.795318 0 1.438213-.146501 2.029994-.462578.237645-.126998.537602-.282103.666562-.344841.455028-.221342.737325-.474174 1.06737-.955926.18348-.267822.382944-.486942.443254-.486942.08911 0 .08531.0387-.02058.206269-.348877.552556.469893-.452125.893892-1.096854l.474908-.722129-.05178-.474366c-.04973-.455833-.04251-.483657.184706-.712589.218868-.220457.23853-.285716.263753-.875078.02262-.527482.0068-.636989-.08994-.637588-.09021-.000518-.128906-.139444-.167742-.600795-.05137-.610567-.569406-2.665119-.690013-2.73666-.03638-.02152-.137422-.219146-.224468-.439017-.293785-.74201-.809082-1.455514-1.612535-2.232804-1.156091-1.118412-2.612387-1.982043-3.987999-2.364999-1.170127-.32575-3.157116-.20751-4.572408.272074-.690737.234069-1.371308.543999-1.486151.676793-.05205.06022-.127679.09007-.167877.06623-.04238-.02507-.03066-.09239.02779-.159966.260728-.301495-.604467.250311-1.16146.740758-.336735.296506-.624525.548127-.639528.55915-.01499.0109.05056.000518.145653-.0233.158271-.03966.164975-.02916.07917.124818-.05506.09865-.341559.276067-.69278.428961-.590119.256879-.971794.539201-1.275036.943157-.121002.161287-.128088.196021-.03229.160756.06717-.02481.12223-.0095.12223.03448 0 .214215-.202816.45338-.503238.593465-.665608.310337-1.834877 1.968007-2.461215 3.489311-.279123.677925-.274694.654377-.12291.654377.159961 0 .148828.174341-.07086 1.110862-.320071 1.364174-.320452 1.320527.02807 3.239696.424694 2.338344.672804 3.119465 1.14455 3.603477.110646.113508.218227.355062.266178.597703.05723.289721.153379.480933.333274.662906.164008.165909.218705.267659.155696.289708-.123592.04319.263371.596966.616431.882067.177621.143423.309251.191636.451837.165472.312523-.05737.630713.115416 1.119642.6078.508101.511703.55901.649265.222764.601912-.216878-.03052-.221838-.02494-.115143.131495.06145.08994.28783.306059.503223.480346.30252.244821.380435.35073.342459.465563-.05464.165131.101107.319183.453527.448474.2185.08012.288907.253065.124409.305665-.04973.01595.257989.319918.683897.675552.479853.40067.802635.620282.848638.577385.121548-.113236.277284-.07876.280077.062.0027.153602.140993.314971.637266.745417.313612.272007.391895.306238.584123.255423.176026-.0466.286728-.01663.534633.144158.494598.320873.794501.448952 1.051291.448952.252674 0 .288648.06963.157452.304969-.0695.124546-.05464.145086.10506.145086.102201 0 .390369.06745.640264.150018.568194.187615.805212.200369.662802.03571-.210365-.243253.01226-.17678.764346.227691 1.050228.565203 1.581507.629767 3.672848.446376.309701-.02715.410414-.01093.410414.06456 0 .06513-.268672.16295-.76207.277498-.648603.150577-.994796.179712-2.325278.195668-1.048402.01226-1.764538-.01485-2.174529-.08312zm-1.069154-11.244599c0-.01595-.09674-.08544-.214943-.154475l-.214943-.125635.184528.154474c.18006.150726.245358.184153.245358.125636zm10.761426-7.861196c-.02494-.05982-.04347-.0421-.04728.04538-.0041.07903.01513.123319.04102.09838.02603-.02494.02876-.08966.0055-.143763zm-17.737178-7.866907c.09729-.118958.09443-.121684-.02957-.02834-.07522.05669-.136782.115688-.136782.131222 0 .06173.06418.02194.166297-.102881zm.888877-.693838c.07781-.08257.123864-.150019.102334-.150019-.02154 0-.102747.06745-.180537.150019-.07781.08257-.123864.150017-.102334.150017.02154 0 .102746-.06745.18055-.150017zm.983854-.527294c.257648-.08367.40405-.09852.458378-.04633.05437.05219.255945.02126.631189-.09689.303243-.09538.537412-.186837.520378-.203191-.01703-.01635-.266722.04578-.554839.138124-.395725.126861-.538134.145672-.58227.07713-.07454-.115824-.78578.112418-1.091475.350333l-.208893.162542.224481-.129315c.123456-.07112.39484-.184698.603051-.252343zm2.253344-.190408c.226989-.06472.399158-.130677.382616-.146488-.03652-.03502-.845096.187178-.845096.232256 0 .04537.0068.04429.46248-.08571zm1.29613-.408914.312657-.05478-.273563-.0068c-.150462-.0041-.361495.0451-.468966.108329-.126453.07454-.140284.0962-.03911.06145.08599-.02943.297001-.07822.468953-.10833zm.620791-.141557c.02411-.03734-.02657-.05028-.11269-.02875-.182512.04578-.205581.09674-.04374.09674.062 0 .132311-.03066.15643-.068zm2.523557.02262c-.02602-.02494-.09334-.02753-.149809-.0055-.06241.02398-.04387.0417.04728.04538.08244.0027.128497-.01444.102603-.03938zm-.467332-.08134c-.07522-.0188-.198332-.0188-.273563 0-.07522.0188-.01362.03433.136781.03433.150463 0 .212013-.0154.136782-.03433zm-.779539-.07781c-.16007-.01608-.441455-.01635-.625288-.00049-.183835.01581-.05287.02902.291032.02929.343917.000272.494325-.01226.334256-.02876zm-1.019787-.06581c-.02602-.02494-.09334-.02766-.149809-.0055-.06241.02398-.04387.0417.04728.04538.08244.0027.128498-.01444.102603-.03938zm-.529072 18.029006c-.796151-.547447-1.091134-.8306-1.091134-1.047417 0-.115007.02712-.209131.06023-.209131.11269 0 1.44369 1.333294 1.414584 1.417085-.01689.04851-.177457-.01867-.383706-.160537zm-.409678-1.389996c-.413479-.400986-.545969-.616657-.378855-.616657.100426 0 .869801.845397.869801.955733 0 .05192-.0095.09443-.02194.09443-.01226 0-.223119-.195056-.468966-.433471zm4.574862-1.641454c-.218296-.08448-.08203-.241168.273563-.314385.204191-.0421.528691-.144104.721096-.226806.192404-.08272.363729-.137019.380707-.12073.01704.01635-.07017.183009-.193507.370473-.223024.338765-.227017.340809-.654273.335058-.236446-.0027-.473858-.02275-.527586-.04361zm2.344817-1.677877c-.210977-.08135-.219712-.21987-.04361-.69151.151295-.405099.308216-.485021.220926-.112554-.03148.134084-.07331.328175-.09321.431304l-.03611.187532.1562-.170717c.09239-.100973.177987-.338124.209533-.580478.02929-.225375.08448-.391268.122637-.368675.09674.05737.08639.650424-.01812 1.049148-.09143.348288-.173601.388869-.518308.255898zm-18.496223-.941424c-.026027-.065271-.04742-.321226-.04742-.568826 0-.326665.02685-.441661.0977-.419163.116097.03679.184188 1.106638.07044 1.106638-.04034 0-.09457-.05342-.12073-.118686zm18.803281-1.754516c-.121412-.157649-.158871-.282102-.124409-.413806.07072-.270466.255767-.231997.392276.08149.212368.487788.02807.716393-.267854.33225zm-18.81936-1.190879c-.0055-.425336-.000042-.438486.196152-.431304.166365.0055.206535.0481.225721.236425.02167.212363-.21899.633582-.361958.633582-.02957 0-.05655-.197412-.05995-.438703zm20.260161-9.221103c.0109-.671274.12877-.898679.220598-.428688.06404.327481-.01744.905765-.141428 1.004545-.06745.05368-.08762-.09266-.07917-.575857zm-10.270153-.402266c.031477-.090479 1.109625-.514265 1.308517-.514265.233664 0-.185497.274773-.668949.438513-.539032.182573-.682574.199565-.639568.07576z"
    style="fill:currentColor;fill-opacity:0.6"
    class="ColorScheme-Text" />

</svg>
