<svg viewBox="0 0 96 96" xmlns="http://www.w3.org/2000/svg">

  <!-- style definitions -->
  <defs>
    <style type="text/css" id="current-color-scheme">
      .ColorScheme-Text {
        color:#232629;
      }
      .ColorScheme-Accent {
        color:#3daee9;
      }
    </style>
  </defs>

  <!-- folder bg -->
  <path
    fill="#eb0a42"
    d="m6 9v21h-1v57h86v-63h-1v-9h-42l-6-6z" />

  <!-- folder fg -->
  <path
    d="m6 9v21h27l6-6h51v-9h-42l-6-6z"
    fill-opacity=".33" />

  <!-- folder highlight -->
  <path
    d="m42 9 5 7h43v-1h-42zm-3 15-6 6h-28v1h29z"
    fill="#fff"
    fill-opacity=".2" />

  <!-- folder shadow -->
  <path
    d="m39 24-7 5h-26v1h27zm-34 62v1h86v-1z"
    fill-opacity=".2" />

  <!-- drkonqi -->
  <path
    d="m34 42v28h28v-28zm1 1h26v26h-26zm4 6v1h1v-1zm1 1v3h3v-3zm3 0h1v-1h-1zm0 3v1h1v-1zm-3 0h-1v1h1zm12-4v1h1v-1zm1 1v3h3v-3zm3 0h1v-1h-1zm0 3v1h1v-1zm-3 0h-1v1h1zm-9 7v1.5h8v-1.5zm8 1.5v1.5h2v-1.5zm2 1.5v2h2v-2zm-10-1.5h-2v1.5h2zm-2 1.5h-2v2h2z"
    style="fill:currentColor;fill-opacity:0.6"
    class="ColorScheme-Text" />
</svg>
