<?xml version="1.0" encoding="UTF-8"?>
<svg width="32" height="32" version="1.1" viewBox="0 0 32 32" xmlns="http://www.w3.org/2000/svg">
    <defs>
        <style id="current-color-scheme" type="text/css">.ColorScheme-Text {
            color:#232629;
            }</style>
    </defs>
    <path class="ColorScheme-Text" d="m10.182 4.3636c-4.0166 0-7.2727 3.2561-7.2727 7.2727 0 7.2727 10.182 13.091 13.091 16 2.9091-2.9091 13.091-8.7273 13.091-16 0-4.0166-3.2561-7.2727-7.2727-7.2727-2.3849 0-4.4919 1.1357-5.8182 2.9091-1.3263-1.7734-3.4333-2.9091-5.8182-2.9091zm0 1.4545c1.9231 0 3.5913 0.90648 4.6534 2.3267l1.1648 1.5568 1.1648-1.5568c1.0621-1.4202 2.7303-2.3267 4.6534-2.3267 3.2305 0 5.8182 2.5877 5.8182 5.8182 0 2.9576-2.1999 5.9541-4.9943 8.5739-2.4197 2.2685-4.851 3.9725-6.642 5.5398-1.7911-1.5673-4.2224-3.2713-6.642-5.5398-2.7944-2.6197-4.9943-5.6163-4.9943-8.5739 0-3.2305 2.5877-5.8182 5.8182-5.8182z" fill="currentColor"/>
</svg>
