<svg xmlns="http://www.w3.org/2000/svg" viewBox="0 0 24 24" width="24" height="24">
  <g transform="translate(1,1)">
    <g id="surface1">
      <path style=" stroke:none;fill-rule:nonzero;fill:rgb(25.882353%,52.156863%,95.686275%);fill-opacity:1;" d="M 20.679688 11.230469 C 20.679688 10.515625 20.617188 9.828125 20.496094 9.167969 L 11 9.167969 L 11 13.070312 L 16.425781 13.070312 C 16.1875 14.328125 15.472656 15.390625 14.402344 16.105469 L 14.402344 18.644531 L 17.671875 18.644531 C 19.578125 16.886719 20.679688 14.300781 20.679688 11.230469 Z M 20.679688 11.230469 "/>
      <path style=" stroke:none;fill-rule:nonzero;fill:rgb(20.392157%,65.882353%,32.54902%);fill-opacity:1;" d="M 11 21.082031 C 13.722656 21.082031 16.003906 20.183594 17.671875 18.644531 L 14.402344 16.105469 C 13.503906 16.710938 12.355469 17.078125 11 17.078125 C 8.378906 17.078125 6.152344 15.308594 5.351562 12.925781 L 2 12.925781 L 2 15.527344 C 3.65625 18.820312 7.058594 21.082031 11 21.082031 Z M 11 21.082031 "/>
      <path style=" stroke:none;fill-rule:nonzero;fill:rgb(98.431373%,73.72549%,1.960784%);fill-opacity:1;" d="M 5.351562 12.914062 C 5.152344 12.3125 5.03125 11.667969 5.03125 11 C 5.03125 10.332031 5.152344 9.6875 5.351562 9.085938 L 5.351562 6.480469 L 2 6.480469 C 1.3125 7.835938 0.917969 9.367188 0.917969 11 C 0.917969 12.632812 1.3125 14.164062 2 15.519531 L 4.609375 13.484375 Z M 5.351562 12.914062 "/>
      <path style=" stroke:none;fill-rule:nonzero;fill:rgb(91.764706%,26.27451%,20.784314%);fill-opacity:1;" d="M 11 4.933594 C 12.484375 4.933594 13.804688 5.445312 14.859375 6.433594 L 17.746094 3.546875 C 15.996094 1.914062 13.722656 0.917969 11 0.917969 C 7.058594 0.917969 3.65625 3.179688 2 6.480469 L 5.351562 9.085938 C 6.152344 6.699219 8.378906 4.933594 11 4.933594 Z M 11 4.933594 "/>
    </g>
  </g>
</svg>
