<svg xmlns="http://www.w3.org/2000/svg" version="1.1" viewBox="0 0 24 24" width="24" height="24">
  <defs id="defs1">
    <style type="text/css" id="current-color-scheme">
            .ColorScheme-NegativeText {
                color:#da4453;
            }
        </style>
  </defs>
  <g transform="translate(1,1)">
    <g transform="translate(-326 -534.36)">
      <path transform="translate(326 534.36)" d="m3 5v13h16v-13zm1 1h14v11h-14zm6.4883 0.58398a5.0356 4.8826 0 0 0-4.498 5.1953 5.0356 4.8826 0 0 0 5.1973 4.541 5.0356 4.8826 0 0 0 4.8613-4.8809l-0.048828-0.67578a5.0356 4.8826 0 0 0-5.5117-4.1797zm0.09375 0.96289a4.013 3.9098 0 0 1 4.3926 3.3477l0.03906 0.54102a4.013 3.9098 0 0 1-0.93359 2.5059l-5.5195-5.5215a4.013 3.9098 0 0 1 2.0215-0.87305zm-2.7559 1.5527 5.5078 5.5098a4.013 3.9098 0 0 1-2.1953 0.73438 4.013 3.9098 0 0 1-4.1426-3.6367 4.013 3.9098 0 0 1 0.83008-2.6074z" style="fill:currentColor;fill-opacity:1;stroke:none" class="ColorScheme-NegativeText"/>
    </g>
  </g>
</svg>
