<svg xmlns="http://www.w3.org/2000/svg" xmlns:xlink="http://www.w3.org/1999/xlink" xmlns:cc="http://creativecommons.org/ns#" xmlns:dc="http://purl.org/dc/elements/1.1/" xmlns:rdf="http://www.w3.org/1999/02/22-rdf-syntax-ns#" xmlns:inkscape="http://www.inkscape.org/namespaces/inkscape" xmlns:sodipodi="http://sodipodi.sourceforge.net/DTD/sodipodi-0.dtd" width="24" height="24" viewBox="0 0 24 24">
  <style type="text/css" id="current-color-scheme">
      .ColorScheme-Text {
        color:#31363b;
      }
      .ColorScheme-Background {
        color:#eff0f1;
      }
      .ColorScheme-Accent {
        color:#3daee9;
      }
      .ColorScheme-ButtonText {
        color:#31363b;
      }
      </style>
  <g transform="translate(1,1)">
    <g style="fill:#cccccc" transform="translate(66,22) translate(-66,-22)" id="ime-libpinyin-bopomofo">
      <rect style="fill:none;fill-rule:evenodd;stroke:none;stroke-width:1px;stroke-linecap:butt;stroke-linejoin:miter;stroke-opacity:1" id="rect4147" width="22" height="22" x="0" y="0"/>
      <path id="path4274" d="m 3,3.0000076 0,16.0000004 16,0 0,-16.0000004 -16,0 z" style="fill:currentColor;fill-opacity:1;stroke:none" class="ColorScheme-Text"/>
      <path inkscape:connector-curvature="0" style="color:#000000;font-style:normal;font-variant:normal;font-weight:normal;font-stretch:normal;font-size:medium;line-height:normal;font-family:sans-serif;text-indent:0;text-align:start;text-decoration:none;text-decoration-line:none;text-decoration-style:solid;text-decoration-color:#000000;letter-spacing:normal;word-spacing:normal;text-transform:none;direction:ltr;block-progression:tb;writing-mode:lr-tb;baseline-shift:baseline;text-anchor:start;white-space:normal;clip-rule:nonzero;display:inline;overflow:visible;visibility:visible;opacity:1;isolation:auto;mix-blend-mode:normal;color-interpolation:sRGB;color-interpolation-filters:linearRGB;solid-color:#000000;solid-opacity:1;fill:#ffffff;fill-opacity:1;fill-rule:evenodd;stroke:none;stroke-width:1px;stroke-linecap:butt;stroke-linejoin:miter;stroke-miterlimit:4;stroke-dasharray:none;stroke-dashoffset:0;stroke-opacity:1;color-rendering:auto;image-rendering:auto;shape-rendering:auto;text-rendering:auto;enable-background:accumulate" d="m 11.300781,4.5996053 -0.601562,0.800782 2,1.5 0.601562,-0.800782 -2,-1.5 z m -5.947265,0.04687 -0.707032,0.707032 2,2 0.707032,-0.707032 -2,-2 z M 8,6.9999963 l 0,1 4,0 0,2.9999997 -3,0 0,1 3,0 0,4 -4,0 0,1 9,0 0,-1 -4,0 0,-4 3,0 0,-1 -3,0 0,-2.9999997 4,0 0,-1 -9,0 z m -2.646484,0.646484 -0.707032,0.707032 2,1.9999997 0.707032,-0.7070317 -2,-2 z m 1.171875,3.1953127 -2,6 0.949218,0.316406 2,-6 -0.949218,-0.316406 z" id="path4270"/>
    </g>
  </g>
</svg>
