<svg xmlns="http://www.w3.org/2000/svg" xmlns:xlink="http://www.w3.org/1999/xlink" xmlns:cc="http://creativecommons.org/ns#" xmlns:dc="http://purl.org/dc/elements/1.1/" xmlns:rdf="http://www.w3.org/1999/02/22-rdf-syntax-ns#" xmlns:inkscape="http://www.inkscape.org/namespaces/inkscape" xmlns:sodipodi="http://sodipodi.sourceforge.net/DTD/sodipodi-0.dtd" width="24" height="24" viewBox="0 0 24 24">
  <style type="text/css" id="current-color-scheme">
      .ColorScheme-Text {
        color:#31363b;
      }
      .ColorScheme-Background {
        color:#eff0f1;
      }
      .ColorScheme-Accent {
        color:#3daee9;
      }
      .ColorScheme-ButtonText {
        color:#31363b;
      }
      </style>
  <g transform="translate(1,1)">
    <g transform="translate(220,8e-6) translate(-220,-8e-06)" id="ime-cangjie">
      <path id="path4280" transform="translate(-176,-12)" d="m 179,15 0,16 16,0 0,-16 -16,0 z m 1,1 14,0 0,14 -14,0 0,-14 z m 6.58398,0.722656 c -1.84354,2.765319 -5.64648,3.28125 -5.64648,3.28125 l 0.125,0.992188 c 0,0 0.83386,-0.123824 1.9375,-0.535156 L 183,24.5 c 0,0.833333 -0.45395,1.912573 -0.93359,2.751953 -0.47965,0.83938 -0.95704,1.435547 -0.95703,1.435547 l 0.78124,0.625 c 0,0 0.52262,-0.653833 1.04297,-1.564453 0.0223,-0.03907 0.044,-0.08499 0.0664,-0.125 L 183,29 l 0.5,0 7.5,0 0,-3 -7.27539,0 c 0.107,-0.326656 0.17843,-0.661039 0.2207,-1 L 191,25 l 0,-4.539062 c 1.10364,0.411332 1.9375,0.535156 1.9375,0.535156 l 0.125,-0.992188 c 0,0 -3.80294,-0.515931 -5.64648,-3.28125 l -0.83204,0 z M 187,17.703125 c 0.85882,1.069604 1.93347,1.798543 2.93359,2.296875 l -2.43359,0 0.27734,-0.416016 -1.5,-1 -0.55468,0.832032 0.875,0.583984 -2.53125,0 C 185.06653,19.501668 186.14118,18.772729 187,17.703125 Z M 184,21 l 6,0 0,3 -6,0 0,-1 5,0 0,-1 -5,0 0,-1 z m 0,6 6,0 0,1 -6,0 0,-1 z" style="fill:currentColor;fill-opacity:1;stroke:none" class="ColorScheme-Text"/>
      <rect y="0" x="0" height="22" width="22" id="rect4282" style="fill:none;fill-opacity:1;stroke:none;stroke-linejoin:miter"/>
    </g>
  </g>
</svg>
