<svg xmlns="http://www.w3.org/2000/svg" xmlns:xlink="http://www.w3.org/1999/xlink" xmlns:cc="http://creativecommons.org/ns#" xmlns:dc="http://purl.org/dc/elements/1.1/" xmlns:rdf="http://www.w3.org/1999/02/22-rdf-syntax-ns#" xmlns:inkscape="http://www.inkscape.org/namespaces/inkscape" xmlns:sodipodi="http://sodipodi.sourceforge.net/DTD/sodipodi-0.dtd" width="24" height="24" viewBox="0 0 24 24">
  <style type="text/css" id="current-color-scheme">
      .ColorScheme-Text {
        color:#31363b;
      }
      .ColorScheme-Background {
        color:#eff0f1;
      }
      .ColorScheme-Accent {
        color:#3daee9;
      }
      .ColorScheme-ButtonText {
        color:#31363b;
      }
      </style>
  <g transform="translate(1,1)">
    <g id="ime-handwriting-on" transform="translate(-198,-110)">
      <path id="path4530" d="m 213.13672,112.56836 -3.27149,12.20703 1.07032,3.73828 2.79492,-2.70312 3.26953,-12.20703 -0.48242,-0.13086 -3.38086,-0.9043 z m 0.70703,1.22266 1.93164,0.51757 -0.25977,0.96875 -1.93164,-0.51953 0.25977,-0.96679 z m -0.51758,1.93359 1.93164,0.51758 -2.42187,9.04297 -1.39649,1.35156 -0.53515,-1.86914 2.42187,-9.04297 z m -11.0039,3.72656 c -0.19319,0.004 -0.40565,0.0236 -0.64454,0.0566 a 0.50078273,0.50078273 0 1 0 0.13672,0.99219 c 0.41874,-0.0578 0.71009,-0.056 0.8711,-0.0293 0.161,0.0267 0.16413,0.0574 0.15234,0.041 -0.0118,-0.0164 0.006,-0.009 -0.006,0.0918 -0.0114,0.10109 -0.0582,0.26431 -0.125,0.45117 -0.13364,0.37372 -0.35128,0.82336 -0.41015,1.32617 -0.0294,0.25141 -0.0149,0.53952 0.13281,0.80664 0.14773,0.26712 0.41956,0.46728 0.73828,0.57422 0.15253,0.0511 0.21329,0.0406 0.30859,0.0449 0.0953,0.004 0.20075,0.006 0.31641,0.006 0.23131,7e-5 0.50355,-0.003 0.75781,0.004 0.032,8.8e-4 0.0467,0.006 0.0781,0.008 -0.0907,0.0554 -0.14559,0.0982 -0.25196,0.1582 -0.53281,0.30067 -1.21797,0.64435 -1.78125,1.02149 -0.28163,0.18856 -0.53612,0.38276 -0.73632,0.62109 -0.20021,0.23833 -0.36943,0.5761 -0.28711,0.94922 0.0823,0.37312 0.37008,0.63181 0.73046,0.82617 0.36039,0.19436 0.83345,0.35158 1.48047,0.49805 1.05119,0.23796 2.36032,0.16845 3.54297,0.2207 1.18266,0.0523 2.16839,0.26022 2.55274,0.70313 a 0.50005,0.50005 0 1 0 0.7539,-0.65625 c -0.75608,-0.87128 -2.01587,-0.99183 -3.26172,-1.04688 -1.24584,-0.0551 -2.54984,-0.0103 -3.36718,-0.19531 -0.59572,-0.13486 -0.99936,-0.27981 -1.22657,-0.40235 -0.22721,-0.12254 -0.23579,-0.19509 -0.22851,-0.1621 0.007,0.033 -0.0185,0.0229 0.0762,-0.0898 0.0947,-0.11274 0.28674,-0.2725 0.52734,-0.43359 0.48121,-0.32219 1.15138,-0.66336 1.7168,-0.98242 0.28271,-0.15954 0.5384,-0.31224 0.75195,-0.47852 0.21356,-0.16628 0.46591,-0.33012 0.47657,-0.75195 0.006,-0.24594 -0.16427,-0.47043 -0.30469,-0.56446 -0.14042,-0.094 -0.26745,-0.13056 -0.39649,-0.16015 -0.25808,-0.0592 -0.53621,-0.0742 -0.81836,-0.082 -0.28212,-0.008 -0.56257,-0.004 -0.7832,-0.004 -0.11031,-3e-5 -0.20637,-8.4e-4 -0.27148,-0.004 -0.0275,-0.001 -0.0496,-0.005 -0.0645,-0.008 0.012,0.005 0.0131,0.007 0.0274,0.0117 -0.0504,-0.0169 -0.0476,-0.0156 -0.0274,-0.0117 -0.11428,-0.0431 -0.14247,-0.0763 -0.15429,-0.0977 -0.0131,-0.0236 -0.0302,-0.0805 -0.0156,-0.20507 0.0292,-0.24917 0.2055,-0.67516 0.35938,-1.10547 0.0769,-0.21516 0.14852,-0.43604 0.17578,-0.67774 0.0273,-0.2417 0.006,-0.53533 -0.17578,-0.78711 -0.18155,-0.25177 -0.47836,-0.39019 -0.79883,-0.44335 -0.16024,-0.0266 -0.33415,-0.0375 -0.52734,-0.0332 z" style="fill:currentColor;fill-opacity:1;stroke:none" class="ColorScheme-Text"/>
      <rect style="fill:none;fill-opacity:1;stroke:none;stroke-linecap:round;stroke-linejoin:miter" id="rect4532" width="22" height="22" x="198" y="110.00002"/>
      <rect y="110.00002" x="198" height="22" width="22" id="rect4545" style="fill:none;fill-opacity:1;stroke:none;stroke-linecap:round;stroke-linejoin:miter"/>
      <ellipse ry="2.5000026" rx="2.5" cy="114.50002" cx="202.5" id="path4601" style="fill:#11d116;fill-opacity:1;stroke:none;stroke-linecap:round;stroke-linejoin:miter"/>
    </g>
  </g>
</svg>
