<svg xmlns="http://www.w3.org/2000/svg" xmlns:xlink="http://www.w3.org/1999/xlink" xmlns:cc="http://creativecommons.org/ns#" xmlns:dc="http://purl.org/dc/elements/1.1/" xmlns:rdf="http://www.w3.org/1999/02/22-rdf-syntax-ns#" xmlns:inkscape="http://www.inkscape.org/namespaces/inkscape" xmlns:sodipodi="http://sodipodi.sourceforge.net/DTD/sodipodi-0.dtd" width="24" height="24" viewBox="0 0 24 24">
  <style type="text/css" id="current-color-scheme">
      .ColorScheme-Text {
        color:#31363b;
      }
      .ColorScheme-Background {
        color:#eff0f1;
      }
      .ColorScheme-Accent {
        color:#3daee9;
      }
      .ColorScheme-ButtonText {
        color:#31363b;
      }
      </style>
  <g transform="translate(1,1)">
    <g id="ime-chewing" transform="translate(88,8e-6) translate(-88,-8e-06)">
      <path transform="translate(-88,-34)" id="path4265" d="m 91,37 0,0.5 0,15.5 16,0 0,-16 -16,0 z m 1,1 14,0 0,14 -14,0 0,-14 z m 1,1 0,1 1,0 0,3 -1,0 0,8 1,0 4.5,0 0.5,0 0,-8 -0.5,0 -1.5,0 0,-3 2,0 0,-1 -6,0 z m 6,4 0.400391,0.300781 c 0,0 0.398251,-0.511169 0.796879,-1.300781 L 102,42 l 0,2 -2,0 0,1 5,0 0,-1 -2,0 0,-2 2,0 0,-1 -2,0 0,-2 -1,0 0,2 -1.38281,0 C 100.83463,40.388658 101,39.708749 101,39 l -1,0 c 0,1.75 -1.400391,3.699219 -1.400391,3.699219 L 99,43 Z m -4,-3 1,0 0,3 -1,0 0,-3 z m 0,4 1,0 0,3 1,0 0,-3 1,0 0,6 -4,0 0,-1 3,0 0,-1 -3,0 0,-1 1,0 0,-3 z m 5,2 0,0.5 0,4.5 5,0 0,-5 -5,0 z m 1,1 3,0 0,3 -3,0 0,-3 z" style="fill:currentColor;fill-opacity:1;stroke:none" class="ColorScheme-Text"/>
      <rect y="0" x="0" height="22" width="22" id="rect4267" style="fill:none;fill-opacity:1;stroke:none;stroke-linejoin:miter"/>
    </g>
  </g>
</svg>
