<svg xmlns="http://www.w3.org/2000/svg" xmlns:xlink="http://www.w3.org/1999/xlink" xmlns:cc="http://creativecommons.org/ns#" xmlns:dc="http://purl.org/dc/elements/1.1/" xmlns:rdf="http://www.w3.org/1999/02/22-rdf-syntax-ns#" xmlns:inkscape="http://www.inkscape.org/namespaces/inkscape" xmlns:sodipodi="http://sodipodi.sourceforge.net/DTD/sodipodi-0.dtd" width="24" height="24" viewBox="0 0 24 24">
  <style type="text/css" id="current-color-scheme">
      .ColorScheme-Text {
        color:#31363b;
      }
      .ColorScheme-Background {
        color:#eff0f1;
      }
      .ColorScheme-Accent {
        color:#3daee9;
      }
      .ColorScheme-ButtonText {
        color:#31363b;
      }
      </style>
  <g transform="translate(1,1)">
    <g id="ime-chinese-simplified" transform="translate(132,-37.999975) translate(-132,-132)">
      <rect style="fill:none;fill-opacity:1;stroke:none" id="rect4264" width="22" height="22" x="-2.4709701e-09" y="170"/>
      <path id="path4368" transform="translate(-132,59.999974)" d="m 138.81055,113.40625 c -0.50782,1.36719 -1.34766,2.59765 -2.51953,3.69141 l 0.99609,0.76172 c 0.19531,-0.0391 0.74219,-0.72266 1.64062,-2.05079 l 0.76172,0 c 0.42969,0.625 0.80078,1.26953 1.11328,1.9336 l 1.17188,-0.64453 -0.9375,-1.28907 2.05078,0 0,-1.11328 -3.63281,0 0.46875,-0.9375 -1.11328,-0.35156 z m 6.03515,0 c -0.46875,1.32813 -1.26953,2.53907 -2.40234,3.63281 l 0.99609,0.76172 c 0.66407,-0.625 1.17188,-1.28906 1.52344,-1.99219 l 0.99609,0 c 0.42969,0.58594 0.80079,1.21094 1.11329,1.875 l 1.05468,-0.64453 c -0.27343,-0.42968 -0.5664,-0.83984 -0.8789,-1.23047 l 2.46093,0 0,-1.11328 -4.16015,0 c 0.15625,-0.3125 0.29297,-0.625 0.41015,-0.9375 l -1.11328,-0.35156 z m -5.44922,4.10156 -0.99609,0.58594 c 0.54688,0.54687 0.95703,1.09375 1.23047,1.64063 l 1.11328,-0.58594 c -0.35156,-0.58594 -0.80078,-1.13281 -1.34766,-1.64063 z m 1.99219,0.52735 0,0.99609 6.38672,0 0,6.03516 c 0,0.54687 -0.13672,0.82031 -0.41016,0.82031 -0.39062,0 -0.89843,-0.0195 -1.52343,-0.0586 l 0.29297,1.11329 c 0.54687,0.0391 1.01562,0.0586 1.40625,0.0586 0.46875,0 0.82031,-0.13672 1.05468,-0.41016 0.23438,-0.27343 0.35157,-0.66406 0.35157,-1.17187 l 0,-7.38281 -7.5586,0 z m -3.98437,1.58203 0,7.38281 1.17187,0 0,-7.38281 -1.17187,0 z m 2.87109,0.64453 0,5.03906 5.39063,0 0,-5.03906 -5.39063,0 z m 1.11328,0.99609 3.16406,0 0,0.9961 -3.16406,0 0,-0.9961 z m 0,1.9336 3.16406,0 0,1.11328 -3.16406,0 0,-1.11328 z M 135,128 l 0,1 16,0 0,-1 -16,0 z" style="fill:currentColor;fill-opacity:1;stroke:none" class="ColorScheme-Text"/>
    </g>
  </g>
</svg>
