<svg xmlns="http://www.w3.org/2000/svg" xmlns:xlink="http://www.w3.org/1999/xlink" xmlns:cc="http://creativecommons.org/ns#" xmlns:dc="http://purl.org/dc/elements/1.1/" xmlns:rdf="http://www.w3.org/1999/02/22-rdf-syntax-ns#" xmlns:inkscape="http://www.inkscape.org/namespaces/inkscape" xmlns:sodipodi="http://sodipodi.sourceforge.net/DTD/sodipodi-0.dtd" width="24" height="24" viewBox="0 0 24 24">
  <style type="text/css" id="current-color-scheme">
      .ColorScheme-Text {
        color:#31363b;
      }
      .ColorScheme-Background {
        color:#eff0f1;
      }
      .ColorScheme-Accent {
        color:#3daee9;
      }
      .ColorScheme-ButtonText {
        color:#31363b;
      }
      </style>
  <g transform="translate(1,1)">
    <g id="ime-remind-on" transform="translate(-198,-88)">
      <path id="path4618" d="m 209,91 c -3.30779,0 -6,2.692214 -6,6 a 0.50005,0.50005 0 0 0 0.002,0.05664 c 0.0144,2.321467 0.86034,3.50927 1.61914,4.39453 C 205.38641,102.34404 206,102.89286 206,104.5 l 0,0.5 0,2 2,0 0,1 2,0 0,-1 2,0 0,-2 0,-0.5 c 0,-1.60714 0.63385,-2.30403 1.39062,-3.25 0.74894,-0.93616 1.58808,-2.103867 1.60547,-4.1875 A 0.50005,0.50005 0 0 0 215,97 c 0,-3.307786 -2.69221,-6 -6,-6 z m 0,1 c 2.76735,0 5,2.232654 5,5 0,1.875003 -0.64741,2.695964 -1.39062,3.625 -0.66238,0.82796 -1.33658,1.8434 -1.49415,3.375 l -4.23437,0 c -0.16424,-1.5039 -0.84931,-2.43975 -1.50195,-3.20117 C 204.64422,99.941686 204,99.138892 204,97 c 0,-2.767346 2.23265,-5 5,-5 z m -1.85352,5.146484 -1.5,1.5 0.70704,0.707032 1.14648,-1.146485 1.14648,1.146485 0.70704,0 1.14648,-1.146485 1.14648,1.146485 0.70704,-0.707032 -1.5,-1.5 -0.70704,0 -1.14648,1.146485 -1.14648,-1.146485 -0.70704,0 z" style="fill:currentColor;fill-opacity:1;stroke:none" class="ColorScheme-Text"/>
      <rect style="fill:none;fill-opacity:1;stroke:none;stroke-linejoin:miter" id="rect4473" width="22" height="22" x="198" y="88.000031"/>
      <ellipse ry="2.4999974" rx="2.5" cy="92.500031" cx="202.5" id="path4601-7" style="fill:#11d116;fill-opacity:1;stroke:none;stroke-linecap:round;stroke-linejoin:miter"/>
    </g>
  </g>
</svg>
