<svg xmlns="http://www.w3.org/2000/svg" xmlns:xlink="http://www.w3.org/1999/xlink" xmlns:cc="http://creativecommons.org/ns#" xmlns:dc="http://purl.org/dc/elements/1.1/" xmlns:rdf="http://www.w3.org/1999/02/22-rdf-syntax-ns#" xmlns:inkscape="http://www.inkscape.org/namespaces/inkscape" xmlns:sodipodi="http://sodipodi.sourceforge.net/DTD/sodipodi-0.dtd" width="24" height="24" viewBox="0 0 24 24">
  <style type="text/css" id="current-color-scheme">
      .ColorScheme-Text {
        color:#31363b;
      }
      .ColorScheme-Background {
        color:#eff0f1;
      }
      .ColorScheme-Accent {
        color:#3daee9;
      }
      .ColorScheme-ButtonText {
        color:#31363b;
      }
      </style>
  <g transform="translate(1,1)">
    <g transform="translate(0,8e-6) translate(0,-8e-06)" id="ime-pinyin">
      <path style="fill:currentColor;fill-opacity:1;stroke:none" d="M 3,3.0019531 3,19 l 16,0 0,-15.9980469 -16,0 z M 4,4 18,4 18,18 4,18 4,4 Z M 10.900391,4.7011719 10.099609,5.3007812 11.375,7 10,7 10,8 11,8 11,11 9.1171875,11 9.2226562,10.94727 8.7773438,10.052734 8,10.441406 8,8 9,8 9,7 8,7 8,5 7,5 7,7 5,7 5,8 7,8 7,10.941406 4.7773438,12.052734 5.2226562,12.947266 7,12.058594 7,16 l -2,0 0,1 3,0 0,-5.441406 1,-0.5 L 9,12 l 1.960938,0 c -0.08868,0.895032 -0.391653,1.61152 -0.792969,2.306641 -0.4973153,0.8613 -1.5097659,1.830078 -1.5097659,1.830078 l 0.6835938,0.728515 c 0,0 1.0706891,-0.983593 1.6914061,-2.058593 C 11.481893,14.02943 11.862844,13.118701 11.958984,12 L 14,12 l 0,5 1,0 0,-5 2,0 0,-1 -2,0 0,-3 2,0 0,-1 -2.375,0 1.275391,-1.6992188 -0.800782,-0.5996093 -1.5,2 L 13.998047,7 l -1.996094,0 0.398438,-0.2988281 -1.5,-2 z M 12,8 l 2,0 0,3 -2,0 0,-3 z" class="ColorScheme-Text" id="path6"/>
      <rect style="fill:none;fill-opacity:1;stroke:none" id="rect4138" width="22" height="22" x="0" y="0"/>
    </g>
  </g>
</svg>
