<svg xmlns="http://www.w3.org/2000/svg" xmlns:xlink="http://www.w3.org/1999/xlink" xmlns:cc="http://creativecommons.org/ns#" xmlns:dc="http://purl.org/dc/elements/1.1/" xmlns:rdf="http://www.w3.org/1999/02/22-rdf-syntax-ns#" xmlns:inkscape="http://www.inkscape.org/namespaces/inkscape" xmlns:sodipodi="http://sodipodi.sourceforge.net/DTD/sodipodi-0.dtd" width="24" height="24" viewBox="0 0 24 24">
  <style type="text/css" id="current-color-scheme">
      .ColorScheme-Text {
        color:#31363b;
      }
      .ColorScheme-Background {
        color:#eff0f1;
      }
      .ColorScheme-Accent {
        color:#3daee9;
      }
      .ColorScheme-ButtonText {
        color:#31363b;
      }
      </style>
  <g transform="translate(1,1)">
    <g transform="translate(154,8e-6) translate(-154,-8e-06)" id="ime-wubi">
      <path style="fill:currentColor;fill-opacity:1;stroke:none" d="M 3,3.0019531 3,19 19,19 19,3.0019531 Z M 4,4 18,4 18,18 4,18 Z M 6,6 6,7 9.8769531,7 9.2109375,10 7,10 7,11 8.9882812,11 8.0996094,15 6,15 l 0,1 10,0 0,-1 -2,0 0,-5 -3.763672,0 L 10.902344,7 15,7 15,6 Z M 10.013672,11 13,11 l 0,4 -3.8769531,0 z" class="ColorScheme-Text" id="path6-6"/>
      <rect style="fill:none;fill-opacity:1;stroke:none" id="rect4138-8" width="22" height="22" x="0" y="0"/>
    </g>
  </g>
</svg>
