<svg xmlns="http://www.w3.org/2000/svg" viewBox="0 0 24 24" width="24" height="24">
  <style type="text/css" id="current-color-scheme">
        .ColorScheme-Text {
            color:#232629;
        }
    </style>
  <g transform="translate(1,1)">
    <path class="ColorScheme-Text" d="m11 2-5 5 0.7070312 0.7070312 4.2929688-4.2929687 4.292969 4.2929687 0.707031-0.7070312-5-5zm-9 7v11h18v-11h-18zm1 1h7 1 8v1h-16v-1zm0 2h16v7h-4-8-4v-7zm1 1v1h2v-1h-2zm3 0v1h2v-1h-2zm3 0v1h2v-1h-2zm3 0v1h2v-1h-2zm3 0v1h2v-1h-2zm-12 2v1h2v-1h-2zm3 0v1h2v-1h-2zm3 0v1h2v-1h-2zm3 0v1h2v-1h-2zm3 0v1h2v-1h-2zm-12 2v1h2v-1h-2zm3 0v1h8v-1h-8zm9 0v1h2v-1h-2z" fill="currentColor"/>
  </g>
</svg>
