<?xml version="1.0" encoding="UTF-8"?>
<svg xmlns="http://www.w3.org/2000/svg" xmlns:xlink="http://www.w3.org/1999/xlink" xmlns:cc="http://creativecommons.org/ns#" xmlns:dc="http://purl.org/dc/elements/1.1/" xmlns:rdf="http://www.w3.org/1999/02/22-rdf-syntax-ns#" xmlns:inkscape="http://www.inkscape.org/namespaces/inkscape" xmlns:sodipodi="http://sodipodi.sourceforge.net/DTD/sodipodi-0.dtd" width="32" height="32">
    <style type="text/css" id="current-color-scheme">.ColorScheme-Text {
        color:#31363b;
      }
      .ColorScheme-Background {
        color:#eff0f1;
      }
      .ColorScheme-Accent {
        color:#3daee9;
      }
      .ColorScheme-ButtonText {
        color:#31363b;
      }
    </style>
    <g id="input-keyboard-brightness" transform="translate(-364,-460.36237) translate(-38,-96)">
        <rect x="402" y="556.36237" width="32" height="32" ry="0" fill="none"/>
        <path class="ColorScheme-Text" transform="translate(364,460.36237)" d="m44 100v20l10 4 10-4v-10h-1v7h-18v-16h12v-1zm9.40625 4-4.40625 10h1.300781l1.322266-3h4.722656l1.349609 3h1.304688l-4.5-10zm0.552734 1.69531 1.9375 4.30469h-3.833984zm-8.958984 12.30469h18v1h-18z" fill="currentColor"/>
        <path class="ColorScheme-Text" transform="translate(326,534.3622)" d="m100 25c-0.277 0-0.5 0.223-0.5 0.5v1c0 0.277 0.223 0.5 0.5 0.5s0.5-0.223 0.5-0.5v-1c0-0.277-0.223-0.5-0.5-0.5zm-3.181641 1.318359c-0.127809 0-0.255581 0.04855-0.353515 0.146485-0.195869 0.195868-0.195869 0.511162 0 0.707031l0.707031 0.707031c0.195869 0.195869 0.511163 0.195869 0.707031 0 0.195869-0.195868 0.195869-0.511162 0-0.707031l-0.707031-0.707031c-0.09793-0.09793-0.225706-0.146485-0.353516-0.146485zm6.363281 0c-0.12781 0-0.25558 0.04855-0.35352 0.146485l-0.70703 0.707031c-0.19586 0.195869-0.19586 0.511163 0 0.707031 0.19587 0.195869 0.51117 0.195869 0.70703 0l0.70704-0.707031c0.19586-0.195869 0.19586-0.511163 0-0.707031-0.0979-0.09793-0.22571-0.146485-0.35352-0.146485zm-3.18164 1.681641c-1.104569 0-2 0.895431-2 2s0.895431 2 2 2c1.10457 0 2-0.895431 2-2s-0.89543-2-2-2zm0 1v2c-0.552285 0-1-0.447715-1-1s0.447715-1 1-1zm-4.5 0.5c-0.277 0-0.5 0.223-0.5 0.5s0.223 0.5 0.5 0.5h1c0.277 0 0.5-0.223 0.5-0.5s-0.223-0.5-0.5-0.5zm8 0c-0.277 0-0.5 0.223-0.5 0.5s0.223 0.5 0.5 0.5h1c0.277 0 0.5-0.223 0.5-0.5s-0.223-0.5-0.5-0.5zm-5.974609 2.474609c-0.12781 0-0.255582 0.04855-0.353516 0.146485l-0.707031 0.707031c-0.195869 0.195869-0.195869 0.511163 0 0.707031 0.195868 0.195869 0.511162 0.195869 0.707031 0l0.707031-0.707031c0.195869-0.195869 0.195869-0.511163 0-0.707031-0.09793-0.09793-0.225706-0.146485-0.353515-0.146485zm4.949219 0c-0.12781 0-0.25558 0.04855-0.35352 0.146485-0.19586 0.195868-0.19586 0.511162 0 0.707031l0.70703 0.707031c0.19587 0.195869 0.51117 0.195869 0.70704 0 0.19586-0.195868 0.19586-0.511162 0-0.707031l-0.70704-0.707031c-0.0979-0.09793-0.2257-0.146485-0.35351-0.146485zm-2.47461 1.025391c-0.277 0-0.5 0.223-0.5 0.5v1c0 0.277 0.223 0.5 0.5 0.5s0.5-0.223 0.5-0.5v-1c0-0.277-0.223-0.5-0.5-0.5z" fill="currentColor"/>
    </g>
</svg>
