<svg id="svg2" version="1.1" viewBox="0 0 32 32" xmlns="http://www.w3.org/2000/svg">
    <style id="current-color-scheme" type="text/css">.ColorScheme-Text {
        color:#232629;
      }</style>
    <g id="input-keyboard-color" transform="translate(-402 -556.36237)">
        <rect id="rect1" x="402" y="556.36237" width="32" height="32" ry="0" fill="none"/>
        <g id="g1" fill="currentColor">
            <path id="path1" class="ColorScheme-Text" transform="translate(364,460.36237)" d="m44 100v20l10 4 10-4v-10h-1v7h-18v-16h12v-1zm9.40625 4-4.40625 10h1.300781l1.322266-3h4.722656l1.349609 3h1.304688l-4.5-10zm0.552734 1.69531 1.9375 4.30469h-3.833984zm-8.958984 12.30469h18v1h-18z" fill="currentColor"/>
            <path id="path2" class="ColorScheme-Text" transform="translate(402,556.36237)" d="m24.203 4.176c-0.464 1.0928-1.07 2.008-1.597 2.8048-0.357 0.5552-0.76 1.1632-1.029 1.8392-0.07 0.236-0.116 0.4808-0.116 0.7296 0 0.8648 0.444 1.6264 1.121 2.1032 0.232 0.05102 0.469 0.07723 0.706 0.07816 1.767 0 3.2-1.366698 3.2-3.05312 0-0.231536-0.03-0.462186-0.08-0.687504 0.03 0.03735 0.05 0.07539 0.08 0.114064-0.217-0.3968-0.457-0.7728-0.683-1.1232-0.526-0.7968-1.133-1.712-1.597-2.8048" stroke-width=".8" fill="currentColor"/>
            <path id="path3" class="ColorScheme-Text" transform="translate(402,556.36237)" d="m24.203 3c-0.133 0.4552-0.311 0.9-0.505 1.336-0.985 2.16-2.529 3.6384-2.678 5.0016 0 0.02-0.01 0.0424-0.02 0.0624l0.01 0.0048c0 0.0472-0.01 0.0936-0.01 0.1408 0 1.6872 1.433 3.0544 3.2 3.0544s3.2-1.368 3.2-3.0544c0-0.0464-0.01-0.0936-0.01-0.1408l0.01-0.0048c0-0.02-0.01-0.0424-0.02-0.0624-0.149-1.3632-1.692-2.8416-2.678-5.0016-0.194-0.436-0.372-0.8808-0.505-1.336m0 1.172c0.464 1.0928 1.07 2.008 1.597 2.8048 0.357 0.5552 0.76 1.1632 1.029 1.8392 0.07 0.236 0.116 0.4808 0.116 0.7296 0 1.4456-1.227 2.6184-2.742 2.6184s-2.742-1.1728-2.742-2.6184c0-0.2488 0.04-0.4936 0.116-0.7296 0.269-0.6752 0.673-1.284 1.029-1.8392 0.527-0.7968 1.133-1.712 1.597-2.8048" fill="currentColor"/>
        </g>
    </g>
</svg>
