<!DOCTYPE svg>
<svg xmlns="http://www.w3.org/2000/svg" viewBox="0 0 24 24" version="1.1" width="24" height="24">
  <defs>
    <style type="text/css" id="current-color-scheme">
            .ColorScheme-Text {
                color:#232629;
            }
        </style>
  </defs>
  <g transform="translate(1,1)">
    <path class="ColorScheme-Text" style="fill:currentColor; fill-opacity:1; stroke:none" d="M 4 3 L 4 19 L 18 19 L 18 7 L 14 3 L 4.00019 3.00001 Z M 5.00019 4.00001 L 6.00019 4.00001 L 6.00019 15 L 5.00019 15 L 5.00019 4.00001 Z M 7.00019 4.00001 L 13 4 L 13 8 L 17 8 L 16.992 15 L 7 15 L 7 4.00001 L 7.00019 4.00001 Z M 10.0002 5.00001 L 8.00019 7.00001 L 10.0002 9.00001 L 10.0002 5.00001 Z M 5.00019 16 L 6.00019 16 L 6.00019 18 L 5.00019 18 L 5.00019 16 Z M 7.00019 16 L 16.9922 16 L 16.9922 18 L 7.00019 18 L 7.00019 16 Z"/>
  </g>
</svg>
