<svg xmlns="http://www.w3.org/2000/svg" xmlns:xlink="http://www.w3.org/1999/xlink" xmlns:cc="http://creativecommons.org/ns#" xmlns:dc="http://purl.org/dc/elements/1.1/" xmlns:rdf="http://www.w3.org/1999/02/22-rdf-syntax-ns#" xmlns:inkscape="http://www.inkscape.org/namespaces/inkscape" xmlns:sodipodi="http://sodipodi.sourceforge.net/DTD/sodipodi-0.dtd" width="24" height="24" viewBox="0 0 24 24">
  <style type="text/css" id="current-color-scheme">
      .ColorScheme-Text {
        color:#31363b;
      }
      .ColorScheme-Background {
        color:#eff0f1;
      }
      .ColorScheme-Accent {
        color:#3daee9;
      }
      .ColorScheme-ButtonText {
        color:#31363b;
      }
      </style>
  <g transform="translate(1,1)">
    <g transform="translate(-304,-534.3622) translate(-22,2e-05)" id="kalarm-disabled">
      <rect y="534.36218" x="326" height="22" width="22" id="rect4178-6" style="opacity:1;fill:none;fill-opacity:1;stroke:none;stroke-width:0.1;stroke-linecap:square;stroke-linejoin:miter;stroke-miterlimit:4;stroke-dasharray:none;stroke-dashoffset:0;stroke-opacity:1"/>
      <path id="path4183-7" class="ColorScheme-Text" transform="translate(304,534.3622)" d="M 33 3 A 1.5 1.5 0 0 0 31.5 4.5 A 1.5 1.5 0 0 0 31.667969 5.1855469 A 5 5 0 0 0 28 10 A 3.5 6 0 0 1 25 15.931641 L 25 16.953125 L 25 17 L 35 17 L 35 16 L 26.804688 16 A 4.5 7 0 0 0 29 10 A 4 4 0 0 1 33 6 A 4 4 0 0 1 37 10 A 4.5 7 0 0 0 37.443359 13 L 38.472656 13 A 3.5 6 0 0 1 38 10 A 5 5 0 0 0 34.333984 5.1816406 A 1.5 1.5 0 0 0 34.5 4.5 A 1.5 1.5 0 0 0 33 3 z " style="fill:currentColor;fill-opacity:1;stroke:none"/>
      <path id="rect4145" transform="translate(304,534.3622)" d="M 36 14 L 36 20 L 38 20 L 38 14 L 36 14 z M 39 14 L 39 20 L 41 20 L 41 14 L 39 14 z " class="ColorScheme-Text" style="fill:currentColor;fill-opacity:0.6;stroke:none"/>
    </g>
  </g>
</svg>
