<svg width="32" height="32" viewBox="0 0 32 32" fill="none" xmlns="http://www.w3.org/2000/svg">
<style type="text/css" id="current-color-scheme">
.ColorScheme-Text {
  color:#232629;
}
</style>
<path fill="currentColor" fill-rule="evenodd" clip-rule="evenodd" d="M5.27276 8.35707C6.13037 8.3051 7.10997 8.32261 8.03499 8.48229C9.47361 8.73062 10.9813 9.36299 11.4743 10.8419L11.6114 11.2533L11.2235 11.4472C9.68706 12.2155 8.46116 13.6257 7.8869 15.1391C7.61884 15.8455 7.4974 16.5574 7.54289 17.23C7.61064 16.9405 7.70257 16.6708 7.81682 16.4201C8.21162 15.5536 8.85341 14.9567 9.58942 14.5637C11.0023 13.8092 12.7795 13.7932 14.0006 13.993L16.9586 13.5H16.9999C18.4074 13.5 20.1207 12.5259 21.7483 11.1215C22.9247 10.1062 24.0004 8.91504 24.8083 7.84324L14.6147 10.6233L14.5096 10.0981C14.0787 7.94332 14.7038 6.49993 15.7531 5.61736C16.1532 5.2808 16.6034 5.03551 17.0578 4.862C16.7714 4.79575 16.4811 4.73997 16.1949 4.69355C15.2967 4.5479 14.4735 4.5 13.9999 4.5C11.7158 4.5 9.63781 5.29375 7.95749 6.30356C6.86388 6.96078 5.95084 7.70233 5.27276 8.35707ZM13.6212 14.9478C12.5388 14.8057 11.1314 14.8739 10.0605 15.4458C9.48813 15.7514 9.01742 16.1969 8.72681 16.8347C8.45223 17.4373 8.32139 18.2493 8.46283 19.3414C9.10932 19.7624 9.68857 20.0975 10.2062 20.3584C10.6295 20.5281 11.0436 20.705 11.4478 20.8881C11.867 21.0287 12.2275 21.1037 12.5353 21.1255C12.9782 21.157 13.2897 21.0769 13.5132 20.9462C13.736 20.816 13.9127 20.6113 14.0453 20.3217C14.3207 19.7198 14.3752 18.815 14.2533 17.7617C14.1451 16.8274 13.9056 15.8351 13.6212 14.9478ZM11.0782 21.8185C10.1398 21.4966 9.03041 20.9193 7.72349 20.0521L7.6662 20.0141L7.6213 19.962C6.34508 18.4822 6.2906 16.5272 6.95195 14.7843C7.55863 13.1855 8.78548 11.7 10.3509 10.7834C9.92465 10.0891 9.02992 9.66882 7.86489 9.46771C6.53599 9.23832 5.04513 9.3327 4.08214 9.4932L2.79321 9.70802L3.60951 8.68765C4.31312 7.80813 5.65808 6.51874 7.44239 5.44644C9.22873 4.37291 11.4841 3.5 13.9999 3.5C14.5264 3.5 15.4032 3.5521 16.355 3.70645C17.3019 3.86 18.3585 4.12026 19.2235 4.55279L18.9999 5.5C18.2421 5.5 17.1705 5.73182 16.3968 6.38264C15.7362 6.93824 15.2316 7.84947 15.406 9.37099L27.1012 6.1814L26.4239 7.265C25.5635 8.64173 24.0804 10.4298 22.4016 11.8785C21.0682 13.0291 19.542 14.0265 18.0621 14.3714C21.0412 17.3725 23.2682 18.988 27.2717 21.5803L27.6472 21.8235L27.4472 22.2236C27.1065 22.9049 26.3241 23.0586 25.625 23.05C24.8839 23.0408 23.9822 22.8508 23.0591 22.5798C21.6277 22.1595 20.0632 21.5197 18.8039 20.9397L21.0995 28.5917C21.3516 29.0891 21.4999 29.5679 21.4999 30L20.521 30.1437L20.1686 28.9689C20.0725 28.7874 19.9536 28.5905 19.8095 28.3792C19.3298 27.6752 18.6121 26.8705 17.6773 26.0341C16.0536 24.5814 13.8023 23.0577 11.0782 21.8185ZM19.3575 26.2654C19.0494 25.9437 18.7109 25.6171 18.3441 25.2889C17.0958 24.172 15.5048 23.0244 13.6341 21.9867C13.7688 21.9394 13.8968 21.8803 14.0179 21.8096C14.4513 21.5562 14.7538 21.1766 14.9546 20.7378C15.3459 19.8827 15.3747 18.7536 15.2466 17.6467C15.14 16.7253 14.918 15.7672 14.6533 14.898L16.823 14.5364C19.9802 17.7901 22.2262 19.4825 26.1086 22.017C25.9857 22.0395 25.8312 22.0524 25.6374 22.05C25.0327 22.0425 24.2343 21.8826 23.3408 21.6202C21.5629 21.0983 19.542 20.212 18.2235 19.5528L17.1885 19.0353L19.3575 26.2654Z" class="ColorScheme-Text"/>
</svg>
