<?xml version="1.0" encoding="UTF-8" standalone="no"?>
<svg
   width="32"
   height="32"
   version="1.1"
   id="svg6"
   sodipodi:docname="kdeconnect-symbolic.svg"
   inkscape:version="1.4 (86a8ad7, 2024-10-11)"
   xmlns:inkscape="http://www.inkscape.org/namespaces/inkscape"
   xmlns:sodipodi="http://sodipodi.sourceforge.net/DTD/sodipodi-0.dtd"
   xmlns="http://www.w3.org/2000/svg"
   xmlns:svg="http://www.w3.org/2000/svg">
  <defs
     id="defs10" />
  <sodipodi:namedview
     id="namedview8"
     pagecolor="#ffffff"
     bordercolor="#000000"
     borderopacity="0.25"
     inkscape:showpageshadow="2"
     inkscape:pageopacity="0.0"
     inkscape:pagecheckerboard="0"
     inkscape:deskcolor="#d1d1d1"
     showgrid="false"
     inkscape:zoom="24.15625"
     inkscape:cx="13.785252"
     inkscape:cy="15.958603"
     inkscape:window-width="3840"
     inkscape:window-height="2054"
     inkscape:window-x="-11"
     inkscape:window-y="-11"
     inkscape:window-maximized="1"
     inkscape:current-layer="svg6" />
  <style
     type="text/css"
     id="current-color-scheme">
      .ColorScheme-Text {
        color:#31363b;
      }
      .ColorScheme-Background {
        color:#eff0f1;
      }
      .ColorScheme-Accent {
        color:#3daee9;
      }
      .ColorScheme-ButtonText {
        color:#31363b;
      }
      </style>
  <g
     id="kdeconnect-0"
     class="ColorScheme-Text"
     transform="matrix(1.4545461,0,0,1.4545461,-1148.3143,-2591.5388)"
     style="fill:currentColor;fill-opacity:1">
    <rect
       style="opacity:0.01;fill:currentColor;fill-opacity:1;stroke:none"
       id="rect2988"
       class="ColorScheme-Text"
       y="1781.6821"
       x="789.4657"
       ry="0"
       rx="0"
       height="21.999971"
       width="22.000002" />
    <path
       style="fill:currentColor;fill-opacity:1;stroke:none"
       d="m 32,-30 v 24 h 18 v -24 z m 1,1 H 49 V -7 H 33 Z m 0.875,1 V -8 H 48 v -20 z m 7.96875,4.680187 -0.03125,3.1875 2.3125,-3.125 1.875,0.4375 -2.40625,3.09375 2.375,3.28125 -1.8125,0.59375 -2.34375,-3.40625 v 3.0625 l -1.75,0.28125 v -7.25 z m -4,1.75 c 0.01993,0 0.04476,0.01525 0.0625,0.03125 l 1.3125,0.84375 c 0.162531,-0.08815 0.323025,-0.156205 0.5,-0.21875 v 0.71875 c -0.972495,0.437237 -1.625,1.428536 -1.625,2.5625 0,1.541819 1.237307,2.78125 2.78125,2.78125 1.086531,0 2.037425,-0.627395 2.5,-1.53125 0.386778,0.565528 0.6875,1 0.6875,1 0.01309,0.02182 0.04039,0.04725 0.0625,0.03125 l 0.125,-0.03125 0.46875,0.75 c 0.02182,0.03346 0.02924,0.09591 0,0.125 l -0.6875,0.6875 c -0.02996,0.03491 -0.08966,0.02473 -0.125,0 l -1.28125,-0.84375 c -0.262822,0.154473 -0.542383,0.293545 -0.84375,0.375 l -0.34375,1.46875 c -0.0096,0.04073 -0.05273,0.0625 -0.09375,0.0625 H 40.375 c -0.04233,0 -0.08502,-0.02177 -0.09375,-0.0625 l -0.3125,-1.46875 c -0.292233,-0.07869 -0.556282,-0.196695 -0.8125,-0.34375 l -1.3125,0.78125 c -0.03505,0.01745 -0.09591,0.02909 -0.125,0 l -0.6875,-0.6875 c -0.03025,-0.02909 -0.02327,-0.09009 0,-0.125 l 0.84375,-1.28125 c -0.157222,-0.275927 -0.2982,-0.558345 -0.375,-0.875 l -1.4375,-0.34375 C 36.022645,-17.173745 36,-17.216586 36,-17.257313 v -0.96875 c 0,-0.04364 0.02134,-0.07775 0.0625,-0.09375 l 1.5,-0.3125 c 0.08192,-0.2736 0.200332,-0.540523 0.34375,-0.78125 l -0.8125,-1.3125 c -0.0208,-0.03346 -0.02895,-0.09591 0,-0.125 l 0.6875,-0.6875 c 0.01498,-0.0058 0.04257,-0.03125 0.0625,-0.03125 z"
       transform="matrix(0.68749969,0,0,0.68749969,772.27817,1805.0571)"
       id="path2990"
       class="ColorScheme-Text"
       inkscape:connector-curvature="0"
       sodipodi:nodetypes="cccccccccccccccccccccccccccsccccsscccccccccccssccccscccccssccccccs" />
  </g>
</svg>
