<svg xmlns="http://www.w3.org/2000/svg" version="1.1" viewBox="0 0 24 24" width="24" height="24">
  <defs>
    <style id="current-color-scheme" type="text/css">.ColorScheme-Text {
        color:#232629;
      }</style>
  </defs>
  <g transform="translate(1,1)">
    <path class="ColorScheme-NegativeText" d="m3 3.7071 0.70711-0.70711 15.293 15.293-0.70711 0.70711z" color="#da4453" fill="currentColor"/>
    <path class="ColorScheme-Text" d="m19 3v14l-2-2h1v-1h-1v1l-1-1v-2h-2l-2.0996-2.0996h4.0996v-5.9004h-10l-1-1zm-1 2h-1v1h1zm-15 0 2 2h-1v1h1v-1l1 1v1.9004h1.9004l2.0996 2.0996h-4v6h10l1 1h-14zm15 2h-1v1h1zm0 2h-1v1h1zm-13 0.099609h-1v1h1zm13 2.9004h-1v1h1zm-13 0h-1v1h1zm0 2h-1v1h1zm0 2h-1v1h1z" fill="currentColor"/>
  </g>
</svg>
