<svg xmlns:inkscape="http://www.inkscape.org/namespaces/inkscape" xmlns:sodipodi="http://sodipodi.sourceforge.net/DTD/sodipodi-0.dtd" xmlns="http://www.w3.org/2000/svg" xmlns:svg="http://www.w3.org/2000/svg" width="24" height="24" version="1.1" id="svg6" sodipodi:docname="kleopatra.svg" inkscape:version="1.2.2 (b0a8486541, 2022-12-01)" viewBox="0 0 24 24">
  <defs id="defs10"/>
  <sodipodi:namedview id="namedview8" pagecolor="#ffffff" bordercolor="#000000" borderopacity="0.25" inkscape:showpageshadow="2" inkscape:pageopacity="0.0" inkscape:pagecheckerboard="0" inkscape:deskcolor="#d1d1d1" showgrid="false" inkscape:zoom="35.136364" inkscape:cx="9.4773609" inkscape:cy="10.98577" inkscape:window-width="1920" inkscape:window-height="1011" inkscape:window-x="0" inkscape:window-y="0" inkscape:window-maximized="1" inkscape:current-layer="svg6"/>
  <style type="text/css" id="current-color-scheme">
      .ColorScheme-Text {
        color:#31363b;
      }
      </style>
  <g transform="translate(1,1)">
    <g id="kleopatra" transform="translate(0,-1030.3622)">
      <path style="color:currentColor;font-style:normal;font-variant:normal;font-weight:normal;font-stretch:normal;font-size:medium;line-height:normal;font-family:sans-serif;text-indent:0;text-align:start;text-decoration:none;text-decoration-line:none;text-decoration-style:solid;text-decoration-color:#000000;letter-spacing:normal;word-spacing:normal;text-transform:none;writing-mode:lr-tb;direction:ltr;baseline-shift:baseline;text-anchor:start;white-space:normal;clip-rule:nonzero;display:inline;overflow:visible;visibility:visible;opacity:1;isolation:auto;mix-blend-mode:normal;color-interpolation:sRGB;color-interpolation-filters:linearRGB;solid-color:#000000;solid-opacity:1;fill:currentColor;fill-opacity:1;fill-rule:evenodd;stroke:none;stroke-width:1px;stroke-linecap:round;stroke-linejoin:miter;stroke-miterlimit:4;stroke-dasharray:none;stroke-dashoffset:0;stroke-opacity:1;color-rendering:auto;image-rendering:auto;shape-rendering:auto;text-rendering:auto;enable-background:accumulate" d="M 9,3 C 5.7777778,3 2.2519531,5.0664062 2.2519531,5.0664062 A 0.50040426,0.50040426 0 0 0 2.7480469,5.9355469 C 2.7480469,5.9355469 6.2222222,4 9,4 10.361111,4 12.216797,4.5996094 14.091797,5.2246094 15.966797,5.8496094 17.861111,6.5 19.5,6.5 a 0.50005,0.50005 0 1 0 0,-1 C 18.138889,5.5 16.283203,4.9023438 14.408203,4.2773438 12.533203,3.6523438 10.638889,3 9,3 Z M 9.5,7 A 2.8055201,2.8055201 0 0 0 9.2363281,7.015625 c -4.191671,0.1666544 -7.1367187,4.185547 -7.1367187,4.185547 a 0.50005,0.50005 0 0 0 0.1523437,0.734375 c 0,0 1.3082968,0.744536 3.2480469,1.339844 V 18.5 a 0.50005,0.50005 0 1 0 1,0 v -4.957031 c 0.6899535,0.168945 1.4246328,0.304794 2.2050781,0.380859 0.1158435,0.137119 0.6427255,0.756039 1.4414059,1.554688 0.891836,0.8919 2.02651,1.91655 3.13086,2.46875 2.047439,1.0237 3.58677,1.404903 4.863281,1.033203 0.587322,-0.171 1.042628,-0.396275 1.371094,-0.734375 C 19.840185,17.907994 20,17.4533 20,17 20,16.4596 19.728441,15.992112 19.369141,15.632812 19.009841,15.273512 18.54044,15 18,15 17.478877,15 17.005048,15.242503 16.638672,15.595703 16.272295,15.949003 16,16.438 16,17 a 0.50005,0.50005 0 1 0 1,0 c 0,-0.227 0.125184,-0.486147 0.332031,-0.685547 C 17.538878,16.114953 17.814016,16 18,16 c 0.166667,0 0.448186,0.125844 0.662109,0.339844 C 18.876033,16.553744 19,16.8334 19,17 c 0,0.2539 -0.05282,0.394081 -0.205078,0.550781 -0.152257,0.1567 -0.445759,0.328103 -0.935547,0.470703 -0.877708,0.2556 -2.184158,0.0099 -4.136719,-0.96875 -0.89565,-0.4479 -2.010976,-1.42305 -2.86914,-2.28125 -0.298001,-0.298012 -0.511284,-0.533243 -0.734375,-0.77539 4.137303,-0.04889 6.7246,-2.583326 9.539062,-3.521485 A 0.50005,0.50005 0 0 0 19.582031,9.5078125 C 16.62202,9.0145125 15.190883,8.4143094 13.935547,7.9121094 12.743414,7.4352889 11.650215,7.0521131 9.7792969,7.0136719 A 2.8055201,2.8055201 0 0 0 9.5,7 Z m 2.328125,1.2421875 c 0.602818,0.1472196 1.126309,0.3536316 1.736328,0.5976563 1.000827,0.4003 2.427018,0.884825 4.443359,1.3281252 C 15.47889,11.339369 13.221332,13 10,13 6.7086819,13 4.1456775,11.743044 3.3671875,11.339844 3.7939997,10.830832 5.1089802,9.3520021 6.9960938,8.5449219 A 2.8055201,2.8055201 0 0 0 6.6953125,9.8046875 2.8055201,2.8055201 0 0 0 9.5,12.611328 a 2.8055201,2.8055201 0 0 0 2.804688,-2.8066405 2.8055201,2.8055201 0 0 0 -0.476563,-1.5625 z" transform="translate(0,1030.3622)" class="ColorScheme-Text" id="path4716"/>
    </g>
  </g>
</svg>
