<svg xmlns="http://www.w3.org/2000/svg" xmlns:xlink="http://www.w3.org/1999/xlink" xmlns:cc="http://creativecommons.org/ns#" xmlns:dc="http://purl.org/dc/elements/1.1/" xmlns:rdf="http://www.w3.org/1999/02/22-rdf-syntax-ns#" xmlns:inkscape="http://www.inkscape.org/namespaces/inkscape" xmlns:sodipodi="http://sodipodi.sourceforge.net/DTD/sodipodi-0.dtd" width="24" height="24" viewBox="0 0 24 24">
  <style type="text/css" id="current-color-scheme">
      .ColorScheme-Text {
        color:#31363b;
      }
      .ColorScheme-Background {
        color:#eff0f1;
      }
      .ColorScheme-Accent {
        color:#3daee9;
      }
      .ColorScheme-ButtonText {
        color:#31363b;
      }
      </style>
  <g transform="translate(1,1)">
    <g id="22-22-klipper" transform="translate(49,4.999999) translate(-49,-5)">
      <path inkscape:connector-curvature="0" style="opacity:1;fill:currentColor;fill-opacity:1;stroke:none" d="M 7,3 7,5 5,5 4,5 4,19 5,19 18,19 18,18 18,5 17,5 15,5 15,3 7,3 Z M 5,6 6,6 6,8 16,8 16,6 17,6 17,18 5,18 5,6 Z m 2,3 0,1 8,0 0,-1 -8,0 z m 0,3 0,1 6,0 0,-1 -6,0 z m 0,3 0,1 3,0 0,-1 -3,0 z" id="path4146" class="ColorScheme-Text"/>
    </g>
  </g>
</svg>
