<?xml version="1.0" encoding="UTF-8"?>
<svg xmlns="http://www.w3.org/2000/svg" xmlns:xlink="http://www.w3.org/1999/xlink" xmlns:cc="http://creativecommons.org/ns#" xmlns:dc="http://purl.org/dc/elements/1.1/" xmlns:rdf="http://www.w3.org/1999/02/22-rdf-syntax-ns#" xmlns:inkscape="http://www.inkscape.org/namespaces/inkscape" xmlns:sodipodi="http://sodipodi.sourceforge.net/DTD/sodipodi-0.dtd" width="32" height="32">
    <style type="text/css" id="current-color-scheme">
      .ColorScheme-Text {
        color:#31363b;
      }
      .ColorScheme-Background {
        color:#eff0f1;
      }
      .ColorScheme-Accent {
        color:#3daee9;
      }
      .ColorScheme-ButtonText {
        color:#31363b;
      }
      </style>
    <g id="klipper" transform="translate(2.89535e-08,1e-06)">
    <path id="rect4202" d="m 13.000002,4 0,2 -2,0 0,1 -5.0000001,0 0,21 20.0000001,0 0,-21 -5,0 0,-1 -2,0 0,-2 z m -6.0000001,4 4.0000001,0 0,1.3 10,0 0,-1.3 4,0 0,19 -18.0000001,0 z m 3.0000001,3 0,1 12,0 0,-1 z m 0,3 0,1 12,0 0,-1 z m 0,4 0,1 5,0 0,-1 z m 0,3 0,1 5,0 0,-1 z m 0,3 0,1 11,0 0,-1 z" style="opacity:1;fill:currentColor;fill-opacity:1;stroke:none" inkscape:connector-curvature="0" sodipodi:nodetypes="ccccccccccccccccccccccccccccccccccccccccccccccc" class="ColorScheme-Text"/>
  </g>
</svg>
