<svg xmlns:inkscape="http://www.inkscape.org/namespaces/inkscape" xmlns:sodipodi="http://sodipodi.sourceforge.net/DTD/sodipodi-0.dtd" xmlns="http://www.w3.org/2000/svg" xmlns:svg="http://www.w3.org/2000/svg" width="24" height="24" version="1.1" id="svg6" sodipodi:docname="konv_message.svg" inkscape:version="1.2.2 (b0a8486541, 2022-12-01)" viewBox="0 0 24 24">
  <defs id="defs10"/>
  <sodipodi:namedview id="namedview8" pagecolor="#ffffff" bordercolor="#000000" borderopacity="0.25" inkscape:showpageshadow="2" inkscape:pageopacity="0.0" inkscape:pagecheckerboard="0" inkscape:deskcolor="#d1d1d1" showgrid="false" inkscape:zoom="35.136364" inkscape:cx="9.4773609" inkscape:cy="10.98577" inkscape:window-width="1920" inkscape:window-height="1011" inkscape:window-x="0" inkscape:window-y="0" inkscape:window-maximized="1" inkscape:current-layer="svg6"/>
  <style type="text/css" id="current-color-scheme">
      .ColorScheme-Text {
        color:#31363b;
      }
      .ColorScheme-Background {
        color:#eff0f1;
      }
      .ColorScheme-Accent {
        color:#3daee9;
      }
      .ColorScheme-ButtonText {
        color:#31363b;
      }
      </style>
  <g transform="translate(1,1)">
    <g id="konv_message" transform="translate(-326,-534.36218)">
      <path class="ColorScheme-Text" inkscape:connector-curvature="0" id="rect3353" d="m 341,538.3622 -12,3.41797 v 1.04297 4.53906 0.58203 l 1,0.28516 v 2.13281 0.30078 l 6,1.69922 v -1 -1.42383 l 5,1.42383 v -1.04297 -10.91406 z m 4.02929,0.42773 -0.77148,0.63086 c 1.13726,1.77224 1.74193,3.83371 1.74219,5.93946 -0.004,2.10388 -0.61142,4.16247 -1.75,5.93164 l 0.7832,0.64258 c 1.28155,-1.95324 1.96511,-4.23808 1.9668,-6.57422 -0.004,-2.3352 -0.68851,-4.61863 -1.97071,-6.57032 z M 340,539.69033 v 10.34374 l -10,-2.84765 v -4.64844 z m 2.68945,1.01562 -0.78125,0.63867 c 0.71179,1.21879 1.08847,2.60421 1.0918,4.01563 -0.002,1.4119 -0.37841,2.79802 -1.08985,4.01758 l 0.78125,0.64062 c 0.85323,-1.40417 1.30579,-3.01513 1.3086,-4.6582 -0.004,-1.64193 -0.45732,-3.25146 -1.31055,-4.6543 z M 328,542.06533 l -1,0.28515 v 0.0117 1 3 1 0.0117 l 1,0.28516 v -0.29688 -0.74609 -3.50782 -0.74609 -0.29687 z m 3,6.44921 4,1.13868 v 1.42578 l -4,-1.13282 z" style="opacity:1;fill:currentColor;fill-opacity:1;stroke:none;stroke-width:0.1;stroke-linecap:round;stroke-linejoin:miter;stroke-miterlimit:4;stroke-dasharray:none;stroke-opacity:0.299435"/>
      <rect y="534.36218" x="326" height="22" width="22" id="rect4170" style="opacity:1;fill:none;fill-opacity:1;stroke:none"/>
    </g>
  </g>
</svg>
