<svg xmlns="http://www.w3.org/2000/svg" xmlns:xlink="http://www.w3.org/1999/xlink" xmlns:cc="http://creativecommons.org/ns#" xmlns:dc="http://purl.org/dc/elements/1.1/" xmlns:rdf="http://www.w3.org/1999/02/22-rdf-syntax-ns#" xmlns:inkscape="http://www.inkscape.org/namespaces/inkscape" xmlns:sodipodi="http://sodipodi.sourceforge.net/DTD/sodipodi-0.dtd" width="24" height="24" viewBox="0 0 24 24">
  <style type="text/css" id="current-color-scheme">
      .ColorScheme-Text {
        color:#31363b;
      }
      .ColorScheme-Background {
        color:#eff0f1;
      }
      .ColorScheme-Accent {
        color:#3daee9;
      }
      .ColorScheme-ButtonText {
        color:#31363b;
      }
      </style>
  <g transform="translate(1,1)">
    <g id="korgac">
      <path id="rect4131" d="m 11,3 c -4.4319982,0 -8,3.5680018 -8,8 0,4.431998 3.5680018,8 8,8 4.431998,0 8,-3.568002 8,-8 0,-4.4319982 -3.568002,-8 -8,-8 z m 0,1 c 3.877999,0 7,3.1220013 7,7 0,3.877999 -3.122001,7 -7,7 C 7.1220013,18 4,14.877999 4,11 4,7.1220013 7.1220013,4 11,4 Z m -1,1 0,7 1,0 5,0 0,-1 -5,0 0,-6 -1,0 z" style="opacity:1;fill:currentColor;fill-opacity:1;stroke:none" inkscape:connector-curvature="0" class="ColorScheme-Text"/>
    </g>
  </g>
</svg>
