<svg xmlns="http://www.w3.org/2000/svg" xmlns:xlink="http://www.w3.org/1999/xlink" xmlns:cc="http://creativecommons.org/ns#" xmlns:dc="http://purl.org/dc/elements/1.1/" xmlns:rdf="http://www.w3.org/1999/02/22-rdf-syntax-ns#" xmlns:inkscape="http://www.inkscape.org/namespaces/inkscape" xmlns:sodipodi="http://sodipodi.sourceforge.net/DTD/sodipodi-0.dtd" width="24" height="24" viewBox="0 0 24 24">
  <style type="text/css" id="current-color-scheme">
      .ColorScheme-Text {
        color:#4d4d4d;
      }
      </style>
  <g transform="translate(1,1)">
    <g transform="translate(-326,-534.3622) translate(0,2e-05)" id="kruler">
      <path inkscape:connector-curvature="0" id="path6" class="ColorScheme-Text" d="m 328,538.3622 0,2 0,12 1,0 17,0 0,-1 -17,0 0,-11 17,0 0,-2 -18,0 z m 2,3 0,3 1,0 0,-3 -1,0 z m 2,0 0,3 1,0 0,-3 -1,0 z m 2,0 0,6 1,0 0,-6 -1,0 z m 2,0 0,3 1,0 0,-3 -1,0 z m 2,0 0,3 1,0 0,-3 -1,0 z m 2,0 0,6 1,0 0,-6 -1,0 z m 2,0 0,3 1,0 0,-3 -1,0 z m 2,0 0,3 1,0 0,-3 -1,0 z" style="fill:currentColor;fill-opacity:1;stroke:none"/>
    </g>
  </g>
</svg>
