<svg xmlns="http://www.w3.org/2000/svg" xmlns:xlink="http://www.w3.org/1999/xlink" xmlns:cc="http://creativecommons.org/ns#" xmlns:dc="http://purl.org/dc/elements/1.1/" xmlns:rdf="http://www.w3.org/1999/02/22-rdf-syntax-ns#" xmlns:inkscape="http://www.inkscape.org/namespaces/inkscape" xmlns:sodipodi="http://sodipodi.sourceforge.net/DTD/sodipodi-0.dtd" width="24" height="24" viewBox="0 0 24 24">
  <style type="text/css" id="current-color-scheme">.ColorScheme-Text {
        color:#31363b;
      }</style>
  <g transform="translate(1,1)">
    <g id="kup" transform="translate(0,-1030.3621)">
      <path id="innershape" class="ColorScheme-Text" d="m11.0069 1036.3621c-2.205324 0-3.993093 1.7878-3.993093 3.9931s1.787769 3.9931 3.993093 3.9931 3.993094-1.7878 3.993094-3.9931-1.78777-3.9931-3.993094-3.9931zm-0.0069 1c1.837771 0 3 1.1622 3 3s-1.162229 3-3 3c-1.83777 0-3-1.1622-3-3s1.16223-3 3-3zm-1 1v3h3v-1l-1.9931-0.01-0.0069-1.9931zm-5-5v16h12v-16zm4 1h4a3 3 0 0 1 3 3v2.088a1.5 1.5 0 0 0-1 1.412 1.5 1.5 0 0 0 1 1.412v2.088l-2 2h-6l-2-2v-2.088a1.5 1.5 0 0 0 1-1.412 1.5 1.5 0 0 0-1-1.412v-2.088a3 3 0 0 1 3-3zm-2 13h4v1h-4zm6 0h2v1h-2z" fill="currentColor"/>
    </g>
  </g>
</svg>
