<svg xmlns="http://www.w3.org/2000/svg" version="1.1" viewBox="0 0 24 24" width="24" height="24">
  <defs>
    <style id="current-color-scheme" type="text/css">
            .ColorScheme-Text {
                color:#232629;
            }
        </style>
  </defs>
  <g transform="translate(1,1)">
    <g shape-rendering="auto">
      <path d="m11 7c-2.2032167 0-4 1.7967833-4 4 0 2.203217 1.7967833 4 4 4 2.203217 0 4-1.796783 4-4 0-2.2032167-1.796783-4-4-4zm0 1c1.662777 0 3 1.3372234 3 3 0 1.662777-1.337223 3-3 3-1.6627766 0-3-1.337223-3-3 0-1.6627766 1.3372234-3 3-3z" class="ColorScheme-Text" fill="currentColor" color-rendering="auto" dominant-baseline="auto" image-rendering="auto"/>
      <path d="m10.5 5v1h1v-1z" class="ColorScheme-Text" fill="currentColor" color-rendering="auto" dominant-baseline="auto" image-rendering="auto"/>
      <path d="m10.5 16v1h1v-1z" class="ColorScheme-Text" fill="currentColor" color-rendering="auto" dominant-baseline="auto" image-rendering="auto"/>
      <path d="m5 10.5v1h1v-1z" class="ColorScheme-Text" fill="currentColor" color-rendering="auto" dominant-baseline="auto" image-rendering="auto"/>
      <path d="m16 10.5v1h1v-1z" class="ColorScheme-Text" fill="currentColor" color-rendering="auto" dominant-baseline="auto" image-rendering="auto"/>
      <g>
        <path d="m11.000001 7.7500005v6.4999985h2.166665l1.083333-2.166666v-2.1666663l-1.083333-2.1666662z" class="ColorScheme-Text" fill="currentColor" color-rendering="auto" dominant-baseline="auto" image-rendering="auto"/>
        <path d="m10.984375 7.734375v0.015625 6.515625h2.191406l1.089844-2.177734v-2.1757816l-1.089844-2.1777344h-2.191406zm0.03125 0.03125h2.140625l1.078125 2.1542969v2.1601561l-1.078125 2.154297h-2.140625v-6.46875z" class="ColorScheme-Text" fill="currentColor" color-rendering="auto" dominant-baseline="auto" image-rendering="auto"/>
      </g>
      <path d="m14.807107 14.1-0.707107 0.707107 0.707107 0.707107 0.707107-0.707107z" class="ColorScheme-Text" fill="currentColor" color-rendering="auto" dominant-baseline="auto" image-rendering="auto"/>
      <path d="m7.207107 14.1-0.707107 0.707107 0.707107 0.707107 0.707107-0.707107z" class="ColorScheme-Text" fill="currentColor" color-rendering="auto" dominant-baseline="auto" image-rendering="auto"/>
      <path d="m14.807107 6.5-0.707107 0.707107 0.707107 0.707107 0.707107-0.707107z" class="ColorScheme-Text" fill="currentColor" color-rendering="auto" dominant-baseline="auto" image-rendering="auto"/>
      <path d="M 7.207107,6.5 6.5,7.207107 7.207107,7.914214 7.914214,7.207107 Z" class="ColorScheme-Text" fill="currentColor" color-rendering="auto" dominant-baseline="auto" image-rendering="auto"/>
    </g>
  </g>
</svg>
