<svg xmlns="http://www.w3.org/2000/svg" xmlns:xlink="http://www.w3.org/1999/xlink" xmlns:cc="http://creativecommons.org/ns#" xmlns:dc="http://purl.org/dc/elements/1.1/" xmlns:rdf="http://www.w3.org/1999/02/22-rdf-syntax-ns#" xmlns:inkscape="http://www.inkscape.org/namespaces/inkscape" xmlns:sodipodi="http://sodipodi.sourceforge.net/DTD/sodipodi-0.dtd" width="24" height="24" viewBox="0 0 24 24">
  <style type="text/css" id="current-color-scheme">
      .ColorScheme-Text {
        color:#31363b;
      }
      .ColorScheme-Background {
        color:#eff0f1;
      }
      .ColorScheme-Accent {
        color:#3daee9;
      }
      .ColorScheme-ButtonText {
        color:#31363b;
      }
      </style>
  <g transform="translate(1,1)">
    <g id="mail-unread-new" transform="translate(-27,0)">
      <rect y="0" x="27.000002" height="22" width="22" id="rect4178" style="opacity:1;fill:none;fill-opacity:1;stroke:none"/>
      <path style="fill:currentColor" d="m 28,3 0,1 0,8 0,6 0,0.414062 L 28,19 l 1,0 6,0 6,0 0,-1 -6,0 -6,0 0,-0.585938 0.462891,-0.46289 6.267578,-6.267578 1.453125,1.451172 0.814453,0.814453 0.002,0 0.816406,-0.814453 1.453125,-1.451172 L 41.585938,12 43,12 40.976562,9.9765625 46.728516,4.2226562 46.951172,4 47,4 47,4.2226562 47,12 48,12 48,3 47.951172,3 47,3 46.537109,3 29.462891,3 29,3 28,3 Z m 1,1 0.04883,0 0.222656,0.2226562 5.751954,5.7539063 L 29,16 29,12 29,4.2226562 29,4 Z M 30.462891,4 45.537109,4 38,11.537109 30.462891,4 Z M 45,13 44.425781,14.613281 42.878906,13.878906 43.613281,15.425781 42,16 43.613281,16.574219 42.878906,18.121094 44.425781,17.386719 45,19 45.574219,17.386719 47.121094,18.121094 46.386719,16.574219 48,16 46.386719,15.425781 47.121094,13.878906 45.574219,14.613281 45,13 Z" id="rect4144-0" class="ColorScheme-Text"/>
    </g>
  </g>
</svg>
