<svg xmlns="http://www.w3.org/2000/svg" viewBox="0 0 16 16">
  <defs id="defs3051">
    <style type="text/css" id="current-color-scheme">
      .ColorScheme-Text {
        color:#232629;
      }
      </style>
  </defs>
    <path 
        style="fill:currentColor"
        d="M 8 2 L 5 5 L 7 5 L 7 7 L 9 7 L 9 5 L 10 5 L 11 5 L 8 2 z M 3.9 6 L 1 11 L 1 11 L 1 13 L 1 14 L 4 14 L 15 14 L 15 13 L 15 11 L 15 11 L 12.1 6 L 12 6 L 10 6 L 10 7 L 11.5 7 L 13.9 11 L 12 11 L 11 12 L 5 12 L 4 11 L 2.1 11 L 4.5 7 L 6 7 L 6 6 L 5 6 L 3.9 6. L 3.9 6 z M 2 1041.4 L 2 1042.4 L 7 1042.4 L 7 1044.4 L 9 1044.4 L 9 1042.4 L 9 1041.4 L 2 1041.4 z " 
        class="ColorScheme-Text"/>
</svg>
