<svg xmlns="http://www.w3.org/2000/svg" xmlns:xlink="http://www.w3.org/1999/xlink" width="64" height="64" xmlns:v="https://vecta.io/nano"><defs><linearGradient id="A" y1="32" y2="50.2" x1="32" x2="50.199" gradientUnits="userSpaceOnUse"><stop stop-color="#292c2f"/><stop offset="1" stop-opacity="0"/></linearGradient><linearGradient id="B" xlink:href="#E" y1="58" y2="6" x2="-592.821" x1="-592.821"/><linearGradient id="C" xlink:href="#F" y1="41" y2="23" x2="-184.303" x1="-184.303"/><linearGradient xlink:href="#F" id="D" x1="414.571" x2="434.571" y1="-618.946" y2="-618.946"/><linearGradient id="E" gradientUnits="userSpaceOnUse"><stop stop-color="#bdc3c7"/><stop offset="1" stop-color="#dadfe1"/></linearGradient><linearGradient id="F" gradientUnits="userSpaceOnUse"><stop stop-color="#566472"/><stop offset="1" stop-color="#6c7a89"/></linearGradient><linearGradient xlink:href="#E" id="G" y1="545.791" y2="533.791" x2="-.001" x1="-.001"/></defs><g transform="translate(-376.571 -491.798)"><g transform="translate(376.571 491.798)"><path d="M32 6C17.597 6 6.002 17.596 6.002 32S17.597 58 32 58s25.998-11.596 25.998-26S46.403 6 32 6zm0 23c1.662 0 3 1.338 3 3s-1.338 3-3 3-3-1.338-3-3 1.338-3 3-3z" fill="url(#B)"/><path d="M38.125 25.375l-.555.883A8 8 0 0 1 32 40a8 8 0 0 1-6.33-3.123l-.951.498 17.965 18.309c5.77-2.598 10.401-7.229 12.998-13L38.125 25.375zm-1.1 1.752l-2.289 3.65A2.99 2.99 0 0 1 35 32c0 1.662-1.338 3-3 3-.642 0-1.232-.204-1.719-.545l-3.717 1.951A7 7 0 0 0 39 32a7 7 0 0 0-1.975-4.873z" fill="url(#A)" opacity=".2" fill-rule="evenodd"/><path d="M32 23a8.98 8.98 0 0 0-9 9 8.98 8.98 0 0 0 9 9 8.98 8.98 0 0 0 9-9 8.98 8.98 0 0 0-9-9zm0 1a8 8 0 1 1 0 16 8 8 0 1 1 0-16zm0 1a7 7 0 1 0 0 14 7 7 0 1 0 0-14zm0 4c1.662 0 3 1.338 3 3s-1.338 3-3 3-3-1.338-3-3 1.338-3 3-3z" fill="url(#C)"/></g><path d="M382.573 522.989v.654c0 14.489 11.595 26.154 25.998 26.154s25.998-11.665 25.998-26.154v-.654c-.344 14.183-11.814 25.809-25.998 25.809s-25.654-11.625-25.998-25.809zm25.998-7.191a8 8 0 1 0 0 16 8 8 0 1 0 0-16zm0 1a7 7 0 1 1 0 14 7 7 0 1 1 0-14z" fill-opacity=".294" fill="#2e3132"/><circle cx="424.571" cy="507.798" r="10" fill="url(#D)"/><path d="M421.379 501.798a4.01 4.01 0 0 1 3.191 3.945 4.018 4.018 0 0 1-1.285 2.95 3.01 3.01 0 0 1-.715-1.943c0-.165.026-.323.051-.48a4.01 4.01 0 0 0-2.05 3.5c0 2.232 1.783 4.028 4 4.028s4-1.796 4-4.028a7.986 7.986 0 0 0-7.192-7.972z" fill="url(#G)" fill-rule="evenodd"/></g></svg>