<svg xmlns="http://www.w3.org/2000/svg" width="64" height="64" xmlns:v="https://vecta.io/nano"><defs><linearGradient id="A" y1="32" y2="50.2" x1="32" x2="50.199" gradientUnits="userSpaceOnUse"><stop stop-color="#292c2f"/><stop offset="1" stop-opacity="0"/></linearGradient><linearGradient id="B" y1="58" y2="6" x2="-592.821" x1="-592.821" gradientUnits="userSpaceOnUse"><stop stop-color="#8e44ad"/><stop offset="1" stop-color="#9b59b6"/></linearGradient><linearGradient id="C" y1="41" y2="23" x2="-184.303" x1="-184.303" gradientUnits="userSpaceOnUse"><stop stop-color="#d3bdd7"/><stop offset="1" stop-color="#dcc6e0"/></linearGradient></defs><path d="M32 6A25.942 25.942 0 0 0 6.002 32c0 14.404 11.595 26 25.998 26a25.942 25.942 0 0 0 25.998-26C57.998 17.596 46.403 6 32 6zm0 23c1.662 0 3 1.338 3 3s-1.338 3-3 3-3-1.338-3-3 1.338-3 3-3z" fill="url(#B)"/><path d="M38.125 25.375l-.555.883A8 8 0 0 1 32 40a8 8 0 0 1-6.33-3.123l-.951.498 17.965 18.309a25.947 25.947 0 0 0 12.998-13L38.125 25.375zm-1.1 1.752l-2.289 3.65a2.993 2.993 0 0 1-4.455 3.678l-3.717 1.951A7 7 0 0 0 39 32a7 7 0 0 0-1.975-4.873z" fill="url(#A)" opacity=".2" fill-rule="evenodd"/><path d="M32 23a8.98 8.98 0 0 0-9 9 8.98 8.98 0 0 0 9 9 8.98 8.98 0 0 0 9-9 8.98 8.98 0 0 0-9-9zm0 1a8 8 0 1 1 0 16 8 8 0 1 1 0-16zm0 1a7 7 0 1 0 0 14 7 7 0 1 0 0-14zm0 4c1.662 0 3 1.338 3 3s-1.338 3-3 3-3-1.338-3-3 1.338-3 3-3z" fill="url(#C)"/><path d="M6.002 31.191v.655C6.002 46.335 17.597 58 32 58s25.998-11.665 25.998-26.154v-.655C57.654 45.375 46.185 57 32 57S6.346 45.375 6.002 31.191zM32 24a8 8 0 1 0 0 16 8 8 0 1 0 0-16zm0 1a7 7 0 1 1 0 14 7 7 0 1 1 0-14z" fill-opacity=".294" fill="#2e3132"/><path d="M424.571 497.798c-5.523 0-10 4.477-10 10s4.477 10 10 10 10-4.477 10-10-4.477-10-10-10z" transform="translate(-376.571 -491.798)" fill="url(#C)"/><path d="M44.809 10A4.01 4.01 0 0 1 48 13.945a4.02 4.02 0 0 1-1.285 2.95A3.01 3.01 0 0 1 46 14.952c0-.165.026-.323.051-.48a4.01 4.01 0 0 0-2.05 3.5c0 2.232 1.783 4.028 4 4.028s4-1.796 4-4.028c.013-4.113-3.1-7.563-7.192-7.972z" fill="#8e45ad"/></svg>