<svg xmlns="http://www.w3.org/2000/svg" version="1.1" viewBox="0 0 24 24" width="24" height="24">
  <defs>
    <style id="current-color-scheme" type="text/css">.ColorScheme-Text {
        color:#232629;
      }
      .ColorScheme-NeutralText {
        color:#f67400;
      }</style>
  </defs>
  <g transform="translate(1,1)">
    <path class="ColorScheme-NeutralText" d="M 3.999983,3 A 1.9999828,1.9999828 0 0 0 2,5 1.9999828,1.9999828 0 0 0 3.999983,7 1.9999828,1.9999828 0 0 0 5.999966,5 1.9999828,1.9999828 0 0 0 3.999983,3 Z" fill="currentColor"/>
    <path class="ColorScheme-Text" d="m13.5 3c1.385 0 2.5 1.115 2.5 2.5v6c0 1.385-1.115 2.5-2.5 2.5s-2.5-1.115-2.5-2.5v-6c0-1.385 1.115-2.5 2.5-2.5zm5.5 7v1c-9.16e-4 2.235554-1.634112 4.198898-4 4.808594v2.191406h2v1h-7v-1h2v-2.193359c-2.365122-0.609499-3.998124-2.571811-4-4.806641v-1h1v1c0 2.209139 2.014719 4 4.5 4s4.5-1.790861 4.5-4v-1z" fill="currentColor"/>
  </g>
</svg>
