<svg xmlns="http://www.w3.org/2000/svg" viewBox="0 0 24 24" width="24" height="24">
  <style id="current-color-scheme" type="text/css">
        .ColorScheme-Text {
            color:#232629;
        }
    </style>
  <g transform="translate(1,1)">
    <g class="ColorScheme-Text" fill="currentColor">
      <path d="m3 9v2c0 2.419003 1.7176959 4.43717 4 4.900391v2.099609h-2v1h6v-1h-2v-2.099609c2.282304-.463221 4-2.481388 4-4.900391v-2h-1v2c0 2.209139-1.790861 4-4 4s-4-1.790861-4-4v-2zm5-6c-1.656854 0-3 1.343146-3 3v5c0 1.656854 1.343146 3 3 3s3-1.343146 3-3v-5c0-1.656854-1.343146-3-3-3z"/>
      <g opacity=".35">
        <path d="m14.279297 3.828125-.451172.892578.447266.226563c1.111155.560919 2.066402 1.437981 2.71875 2.498046.652348 1.060066 1.005859 2.30998 1.005859 3.554688s-.353511 2.494622-1.005859 3.554688c-.652348 1.060065-1.607595 1.937127-2.71875 2.498046l-.447266.226563.451172.892578.445312-.224609c1.279348-.645825 2.370002-1.648617 3.121094-2.869141s1.154297-2.64501 1.154297-4.078125-.403205-2.857601-1.154297-4.078125-1.841746-2.223316-3.121094-2.869141z"/>
        <path d="m13.21875 6.550781-.4375.898438c.659004.321264 1.230576.835327 1.619141 1.457031.388564.621704.599609 1.360608.599609 2.09375s-.211045 1.472047-.599609 2.09375c-.388565.621703-.960137 1.135767-1.619141 1.457031l.4375.898438c.830592-.404914 1.53956-1.042593 2.029297-1.826172s.751953-1.699013.751953-2.623047-.262216-1.839468-.751953-2.623047-1.198705-1.421258-2.029297-1.826172z"/>
      </g>
    </g>
  </g>
</svg>
