<svg xmlns="http://www.w3.org/2000/svg" xmlns:xlink="http://www.w3.org/1999/xlink" xmlns:cc="http://creativecommons.org/ns#" xmlns:dc="http://purl.org/dc/elements/1.1/" xmlns:rdf="http://www.w3.org/1999/02/22-rdf-syntax-ns#" xmlns:inkscape="http://www.inkscape.org/namespaces/inkscape" xmlns:sodipodi="http://sodipodi.sourceforge.net/DTD/sodipodi-0.dtd" width="24" height="24" viewBox="0 0 24 24">
  <style type="text/css" id="current-color-scheme">
      .ColorScheme-Text {
        color:#31363b;
      }
      .ColorScheme-Background {
        color:#eff0f1;
      }
      .ColorScheme-Accent {
        color:#3498db;
      }
      .ColorScheme-ButtonText {
        color:#31363b;
      }
      .ColorScheme-NegativeText{
        color:#e74c3c;
      }
      </style>
  <g transform="translate(1,1)">
    <g transform="translate(0,-308) translate(0,396)" id="network-mobile-80-5g-locked">
      <rect y="-88" x="0" height="22" width="22" id="rect4862-9" style="opacity:0.55;fill:none;fill-opacity:1;stroke:none;stroke-width:3.56737041px;stroke-linecap:butt;stroke-linejoin:miter;stroke-miterlimit:4;stroke-dasharray:none;stroke-dashoffset:0;stroke-opacity:1"/>
      <path class="ColorScheme-Text" style="opacity:0.35;fill:currentColor;fill-opacity:1;fill-rule:evenodd;stroke:none;stroke-width:1px;stroke-linecap:butt;stroke-linejoin:miter;stroke-opacity:1" d="M 19,-85 3,-69 h 11 v -3 l 1,-1 v -2 l 1,-1 1,-1 h 2 z" id="path4864-7"/>
      <path class="ColorScheme-Text" id="path4866-3" d="m 18,-76 c -1.108,0 -2,0.892 -2,2 v 2 h -1 v 3 h 6 v -3 h -1 v -2 c 0,-1.108 -0.892,-2 -2,-2 z m 0,1 c 0.554,0 1,0.446 1,1 v 2 h -2 v -2 c 0,-0.554 0.446,-1 1,-1 z" style="opacity:1;fill:currentColor;fill-opacity:1;stroke:none;stroke-width:0.1;stroke-miterlimit:4;stroke-dasharray:none;stroke-opacity:1"/>
      <path class="ColorScheme-Text" id="path4892-6" d="M 17,-83 3,-69 h 11 v -3 l 1,-1 v -2 l 1,-1 1,-1 z" style="opacity:1;fill:currentColor;fill-opacity:1;fill-rule:evenodd;stroke:none;stroke-width:1px;stroke-linecap:butt;stroke-linejoin:miter;stroke-opacity:1"/>
      <path class="ColorScheme-Text" style="opacity:1;fill:currentColor;fill-opacity:1;stroke:none" d="m 8,-85 v 4 1 h 4 v -1 -1 -1 h -2 v 1 h 1 v 1 H 9 v -3 h 3 v -1 H 9 Z" id="path5070-1"/>
      <path style="opacity:1;fill:currentColor;fill-opacity:1;stroke:none;stroke-width:1;stroke-miterlimit:4;stroke-dasharray:none;stroke-opacity:1" d="m 3,-85 v 3 h 3 v 1 H 3 v 1 h 3 1 v -3 H 4 v -1 h 3 v -1 z" id="rect1642-6" class="ColorScheme-Text"/>
    </g>
  </g>
</svg>
