<svg xmlns="http://www.w3.org/2000/svg" xmlns:xlink="http://www.w3.org/1999/xlink" xmlns:cc="http://creativecommons.org/ns#" xmlns:dc="http://purl.org/dc/elements/1.1/" xmlns:rdf="http://www.w3.org/1999/02/22-rdf-syntax-ns#" xmlns:inkscape="http://www.inkscape.org/namespaces/inkscape" xmlns:sodipodi="http://sodipodi.sourceforge.net/DTD/sodipodi-0.dtd" width="24" height="24" viewBox="0 0 24 24">
  <style type="text/css" id="current-color-scheme">
      .ColorScheme-Text {
        color:#31363b;
      }
      .ColorScheme-Background {
        color:#eff0f1;
      }
      .ColorScheme-Accent {
        color:#3498db;
      }
      .ColorScheme-ButtonText {
        color:#31363b;
      }
      .ColorScheme-NegativeText{
        color:#e74c3c;
      }
      </style>
  <g transform="translate(1,1)">
    <g transform="translate(0,20) translate(22,-86)" id="network-wireless-100-limited">
      <rect y="66" x="-22" height="22" width="22" id="rect4283" style="opacity:0.55;fill:none;fill-opacity:1;stroke:none;stroke-width:3.56737041px;stroke-linecap:butt;stroke-linejoin:miter;stroke-miterlimit:4;stroke-dasharray:none;stroke-dashoffset:0;stroke-opacity:1"/>
      <g id="g4323" transform="translate(-51.97466,56.97765)">
        <path class="ColorScheme-Text" id="path4327" d="m 40.97466,12.02235 c -4.155,0 -7.90594,1.67156 -10.61719,4.38281 l 0.70899,0.70899 c 2.5305,-2.5305 6.0302,-4.0918 9.9082,-4.0918 3.878,0 7.3777,1.5613 9.9082,4.0918 l 0.70899,-0.70899 C 48.8806,13.69391 45.12966,12.02235 40.97466,12.02235 Z" style="opacity:1;fill:currentColor;fill-opacity:1;stroke:none"/>
        <path class="ColorScheme-Text" id="path4329" d="m 40.97466,16.02235 c -3.047,0 -5.79691,1.22659 -7.78516,3.21484 l 0.70704,0.70704 c 1.8075,-1.80751 4.30812,-2.92188 7.07812,-2.92188 2.77,0 5.27062,1.11437 7.07813,2.92188 l 0.70703,-0.70704 c -1.98825,-1.98825 -4.73816,-3.21484 -7.78516,-3.21484 z" style="opacity:1;fill:currentColor;fill-opacity:1;stroke:none"/>
        <path class="ColorScheme-Text" id="path4331" d="m 40.97466,20.02235 c -1.939,0 -3.68983,0.77967 -4.95508,2.04492 l 0.70899,0.70899 c 1.0845,-1.0845 2.58409,-1.75391 4.24609,-1.75391 1.662,0 3.16159,0.66941 4.24609,1.75391 l 0.70899,-0.70899 c -1.26525,-1.26525 -3.01608,-2.04492 -4.95508,-2.04492 z" style="opacity:1;fill:currentColor;fill-opacity:1;stroke:none"/>
        <path class="ColorScheme-Text" id="path4333" d="m 40.97466,24.02235 c -1.107996,0 -2,0.892004 -2,2 0,1.107996 0.892004,2 2,2 1.107996,0 2,-0.892004 2,-2 0,-1.107996 -0.892004,-2 -2,-2 z m 0,1 c 0.554,0 1,0.446 1,1 0,0.554 -0.446,1 -1,1 -0.554,0 -1,-0.446 -1,-1 0,-0.554 0.446,-1 1,-1 z" style="opacity:1;fill:currentColor;fill-opacity:1;stroke:none"/>
      </g>
      <path style="opacity:1;fill:#fdbc4b;fill-opacity:1;stroke:none" d="m -4,78 v 5 h 2 v -5 z m 1,6 a 1,1 0 0 0 -1,1 1,1 0 0 0 1,1 1,1 0 0 0 1,-1 1,1 0 0 0 -1,-1 z" id="rect4343"/>
    </g>
  </g>
</svg>
