<svg xmlns="http://www.w3.org/2000/svg" height="24" width="24" viewBox="0 0 24 24">
  <defs id="defs4157">
    <style id="current-color-scheme" type="text/css">
      .ColorScheme-Text {
        color:#31363b;
      }
    </style>
  </defs>
  <g transform="translate(1,1)">
    <path id="path4676-7" class="ColorScheme-Text" d="m 10.99805,3 v 0.00195 7.039063 L 7.70508,6.7480469 7.70312,6.75 C 7.34738,6.3940462 6.70703,5.7539062 6.70703,5.7539062 L 6,6.4609375 10.54492,11.001953 6,15.542969 6.70703,16.25 c 0,0 0.64035,-0.640094 0.99609,-0.996094 h 0.002 L 11,11.960938 V 19 h 1 L 16,15 12,11 16,7 12,3 Z M 12,4.4160156 14.58594,7.0019531 12,9.5878906 Z M 1,10 c -0.55228,0 -1,0.447715 -1,1 0,0.552285 0.44772,1 1,1 0.55228,0 1,-0.447715 1,-1 0,-0.552285 -0.44772,-1 -1,-1 z m 4,0 c -0.55228,0 -1,0.447715 -1,1 0,0.552285 0.44772,1 1,1 0.55228,0 1,-0.447715 1,-1 0,-0.552285 -0.44772,-1 -1,-1 z m 14,2 c -1.108,0 -2,0.892 -2,2 v 2 h -1 v 3 h 6 v -3 h -1 v -2 c 0,-1.108 -0.892,-2 -2,-2 z m -7,0.416016 2.58594,2.585937 L 12,17.587891 Z M 19,13 c 0.554,0 1,0.446 1,1 v 2 h -2 v -2 c 0,-0.554 0.446,-1 1,-1 z" style="fill:currentColor;fill-opacity:1;stroke:none"/>
  </g>
</svg>
