<svg xmlns="http://www.w3.org/2000/svg" xmlns:xlink="http://www.w3.org/1999/xlink" xmlns:cc="http://creativecommons.org/ns#" xmlns:dc="http://purl.org/dc/elements/1.1/" xmlns:rdf="http://www.w3.org/1999/02/22-rdf-syntax-ns#" xmlns:inkscape="http://www.inkscape.org/namespaces/inkscape" xmlns:sodipodi="http://sodipodi.sourceforge.net/DTD/sodipodi-0.dtd" width="24" height="24" viewBox="0 0 24 24">
  <style type="text/css" id="current-color-scheme">
      .ColorScheme-Text {
        color:#31363b;
      }
      .ColorScheme-Background {
        color:#eff0f1;
      }
      .ColorScheme-Accent {
        color:#3498db;
      }
      .ColorScheme-ButtonText {
        color:#31363b;
      }
      .ColorScheme-NegativeText{
        color:#e74c3c;
      }
      </style>
  <g transform="translate(1,1)">
    <g id="network-wireless-80" transform="translate(0,-22)">
      <rect style="opacity:0.55;fill:none;fill-opacity:1;stroke:none;stroke-width:3.56737041px;stroke-linecap:butt;stroke-linejoin:miter;stroke-miterlimit:4;stroke-dasharray:none;stroke-dashoffset:0;stroke-opacity:1" id="rect4258" width="22" height="22" x="0" y="22"/>
      <path class="ColorScheme-Text" id="path4250" d="M 11,25 C 6.845,25 3.09406,26.67156 0.38281,29.38281 L 1.0918,30.0918 C 3.6223,27.5613 7.122,26 11,26 c 3.878,0 7.3777,1.5613 9.9082,4.0918 l 0.70899,-0.70899 C 18.90594,26.67156 15.155,25 11,25 Z" style="opacity:0.35;fill:currentColor;fill-opacity:1;stroke:none"/>
      <path class="ColorScheme-Text" id="path4252" d="m 11,29 c -3.047,0 -5.79691,1.22659 -7.78516,3.21484 l 0.70704,0.70704 C 5.72938,31.11437 8.23,30 11,30 c 2.77,0 5.27062,1.11437 7.07813,2.92188 l 0.70703,-0.70704 C 16.79691,30.22659 14.047,29 11,29 Z" style="opacity:1;fill:currentColor;fill-opacity:1;stroke:none"/>
      <path class="ColorScheme-Text" id="path4254" d="m 11,33 c -1.939,0 -3.68983,0.77967 -4.95508,2.04492 l 0.70899,0.70899 C 7.83841,34.66941 9.338,34 11,34 c 1.662,0 3.16159,0.66941 4.24609,1.75391 l 0.70899,-0.70899 C 14.68983,33.77967 12.939,33 11,33 Z" style="opacity:1;fill:currentColor;fill-opacity:1;stroke:none"/>
      <path class="ColorScheme-Text" id="path4256" d="m 11,37 c -1.107996,0 -2,0.892004 -2,2 0,1.107996 0.892004,2 2,2 1.107996,0 2,-0.892004 2,-2 0,-1.107996 -0.892004,-2 -2,-2 z m 0,1 c 0.554,0 1,0.446 1,1 0,0.554 -0.446,1 -1,1 -0.554,0 -1,-0.446 -1,-1 0,-0.554 0.446,-1 1,-1 z" style="opacity:1;fill:currentColor;fill-opacity:1;stroke:none"/>
    </g>
  </g>
</svg>
