<svg xmlns="http://www.w3.org/2000/svg" height="24" width="24" viewBox="0 0 24 24">
  <defs id="defs4157">
    <style id="current-color-scheme" type="text/css">
      .ColorScheme-Text {
        color:#31363b;
      }
      .ColorScheme-NegativeText{
        color:#e74c3c;
      }
    </style>
  </defs>
  <g transform="translate(1,1)">
    <path id="path1816" d="M 14.84845,13.999854 14,14.848291 16.15156,16.999854 14,19.151417 14.84845,19.999854 17.00001,17.84829 19.15155,19.999854 20,19.151417 17.84844,16.999854 20,14.848291 19.15155,13.999854 17.00001,16.151417 Z" class="ColorScheme-NegativeText" style="fill:currentColor;fill-opacity:1;stroke:none;stroke-width:1.2"/>
    <path class="ColorScheme-Text" id="path1820" d="M 8,3 C 5.23858,3 3,5.238576 3,8 H 4 C 4,5.790861 5.79086,4 8,4 Z m 3,0 c 0,0 -1,0 -1,3 V 8.5 L 8.90039,9.050781 V 9 H 8.09961 V 9.550781 H 8 V 9.75 l -2,1 v -0.5 H 5.9004 V 9.699219 H 5.09962 V 10.25 H 5 v 1 l -2,1 v 1 L 5.1914,12.976562 5.30078,13.25 h 0.39844 l 0.14257,-0.355469 2.75196,-0.34375 h 0.10547 l 0.006,-0.01367 L 10,12.125 V 15 c 0,0.487991 0.24052,0.971967 0.48438,1.34375 L 8,18 v 1 l 3,-1 2,0.671875 v -1.34375 L 11.51563,16.34375 C 11.75948,15.971967 12,15.487991 12,15 v -2.875 l 1.29492,0.162109 0.006,0.01367 h 0.10547 l 2.75195,0.34375 0.14258,0.355469 h 0.39844 L 16.80864,12.72656 19,13 V 12 L 17,11 V 10 H 16.9004 V 9.449219 H 16.09962 V 10 H 16 v 0.5 l -2,-1 V 9.300781 H 13.9004 V 8.75 H 13.09962 V 8.80078 L 12,8.5 V 6 C 12,3 11,3 11,3 Z M 8,5 C 6.34315,5 5,6.343146 5,8 H 6 C 6,6.895431 6.89543,6 8,6 Z M 8,7 C 8,7 7,7 7,8 h 1 z" style="opacity:0.35;fill:currentColor;fill-opacity:1;fill-rule:evenodd;stroke:none;stroke-width:1px;stroke-linecap:butt;stroke-linejoin:miter;stroke-opacity:1"/>
  </g>
</svg>
