<svg xmlns="http://www.w3.org/2000/svg" xmlns:xlink="http://www.w3.org/1999/xlink" xmlns:cc="http://creativecommons.org/ns#" xmlns:dc="http://purl.org/dc/elements/1.1/" xmlns:rdf="http://www.w3.org/1999/02/22-rdf-syntax-ns#" xmlns:inkscape="http://www.inkscape.org/namespaces/inkscape" xmlns:sodipodi="http://sodipodi.sourceforge.net/DTD/sodipodi-0.dtd" width="24" height="24" viewBox="0 0 24 24">
  <style type="text/css" id="current-color-scheme">
      .ColorScheme-Text {
        color:#31363b;
      }
      .ColorScheme-Background {
        color:#eff0f1;
      }
      .ColorScheme-Accent {
        color:#3498db;
      }
      .ColorScheme-ButtonText {
        color:#31363b;
      }
      .ColorScheme-NegativeText{
        color:#e74c3c;
      }
      </style>
  <g transform="translate(1,1)">
    <g transform="translate(0,20) translate(-22,-64)" id="network-wireless-60-locked">
      <rect style="opacity:0.55;fill:none;fill-opacity:1;stroke:none;stroke-width:3.56737041px;stroke-linecap:butt;stroke-linejoin:miter;stroke-miterlimit:4;stroke-dasharray:none;stroke-dashoffset:0;stroke-opacity:1" id="rect4334" width="22" height="22" x="22" y="44"/>
      <path class="ColorScheme-Text" id="path4304" d="m 33,59 c -1.107996,0 -2,0.892004 -2,2 0,1.107996 0.892004,2 2,2 1.107996,0 2,-0.892004 2,-2 0,-1.107996 -0.892004,-2 -2,-2 z m 0,1 c 0.554,0 1,0.446 1,1 0,0.554 -0.446,1 -1,1 -0.554,0 -1,-0.446 -1,-1 0,-0.554 0.446,-1 1,-1 z" style="opacity:1;fill:currentColor;fill-opacity:1;stroke:none"/>
      <path class="ColorScheme-Text" id="path4306" d="m 33,55 c -1.939,0 -3.68983,0.77967 -4.95508,2.04492 l 0.70899,0.70899 C 29.83841,56.66941 31.338,56 33,56 c 1.662,0 3.16159,0.66941 4.24609,1.75391 l 0.70899,-0.70899 C 36.68983,55.77967 34.939,55 33,55 Z" style="opacity:1;fill:currentColor;fill-opacity:1;stroke:none"/>
      <path class="ColorScheme-Text" id="path4308" d="m 33,51 c -3.047,0 -5.79691,1.22659 -7.78516,3.21484 l 0.70704,0.70704 C 27.72938,53.11437 30.23,52 33,52 c 2.77,0 5.27062,1.11437 7.07813,2.92188 l 0.70703,-0.70704 C 38.79691,52.22659 36.047,51 33,51 Z" style="opacity:0.35;fill:currentColor;fill-opacity:1;stroke:none"/>
      <path class="ColorScheme-Text" id="path4310" d="m 33,47 c -4.155,0 -7.90594,1.67156 -10.61719,4.38281 L 23.0918,52.0918 C 25.6223,49.5613 29.122,48 33,48 c 3.878,0 7.3777,1.5613 9.9082,4.0918 l 0.70899,-0.70899 C 40.90594,48.67156 37.155,47 33,47 Z" style="opacity:0.35;fill:currentColor;fill-opacity:1;stroke:none"/>
      <path class="ColorScheme-Text" id="path4359" transform="translate(0,-20)" d="M 41 76 C 39.892 76 39 76.892 39 78 L 39 80 L 38 80 L 38 83 L 44 83 L 44 80 L 43 80 L 43 78 C 43 76.892 42.108 76 41 76 z M 41 77 C 41.554 77 42 77.446 42 78 L 42 80 L 40 80 L 40 78 C 40 77.446 40.446 77 41 77 z " style="opacity:1;fill:currentColor;fill-opacity:1;stroke:none;stroke-width:0.1;stroke-miterlimit:4;stroke-dasharray:none;stroke-opacity:1"/>
    </g>
  </g>
</svg>
