<svg xmlns="http://www.w3.org/2000/svg" xmlns:xlink="http://www.w3.org/1999/xlink" xmlns:cc="http://creativecommons.org/ns#" xmlns:dc="http://purl.org/dc/elements/1.1/" xmlns:rdf="http://www.w3.org/1999/02/22-rdf-syntax-ns#" xmlns:inkscape="http://www.inkscape.org/namespaces/inkscape" xmlns:sodipodi="http://sodipodi.sourceforge.net/DTD/sodipodi-0.dtd" width="24" height="24" viewBox="0 0 24 24">
  <style type="text/css" id="current-color-scheme">
      .ColorScheme-Text {
        color:#31363b;
      }
      .ColorScheme-Background {
        color:#eff0f1;
      }
      .ColorScheme-Accent {
        color:#3498db;
      }
      .ColorScheme-ButtonText {
        color:#31363b;
      }
      .ColorScheme-NegativeText{
        color:#e74c3c;
      }
      </style>
  <g transform="translate(1,1)">
    <g transform="translate(0,20) translate(-44,-64)" id="network-wireless-40-locked">
      <rect y="44" x="44" height="22" width="22" id="rect4336" style="opacity:0.55;fill:none;fill-opacity:1;stroke:none;stroke-width:3.56737041px;stroke-linecap:butt;stroke-linejoin:miter;stroke-miterlimit:4;stroke-dasharray:none;stroke-dashoffset:0;stroke-opacity:1"/>
      <path class="ColorScheme-Text" style="opacity:1;fill:currentColor;fill-opacity:1;stroke:none" d="m 55,59 c -1.107996,0 -2,0.892004 -2,2 0,1.107996 0.892004,2 2,2 1.107996,0 2,-0.892004 2,-2 0,-1.107996 -0.892004,-2 -2,-2 z m 0,1 c 0.554,0 1,0.446 1,1 0,0.554 -0.446,1 -1,1 -0.554,0 -1,-0.446 -1,-1 0,-0.554 0.446,-1 1,-1 z" id="path4296"/>
      <path class="ColorScheme-Text" style="opacity:0.35;fill:currentColor;fill-opacity:1;stroke:none" d="m 55,55 c -1.939,0 -3.68983,0.77967 -4.95508,2.04492 l 0.70899,0.70899 C 51.83841,56.66941 53.338,56 55,56 c 1.662,0 3.16159,0.66941 4.24609,1.75391 l 0.70899,-0.70899 C 58.68983,55.77967 56.939,55 55,55 Z" id="path4298"/>
      <path class="ColorScheme-Text" style="opacity:0.35;fill:currentColor;fill-opacity:1;stroke:none" d="m 55,51 c -3.047,0 -5.79691,1.22659 -7.78516,3.21484 l 0.70704,0.70704 C 49.72938,53.11437 52.23,52 55,52 c 2.77,0 5.27062,1.11437 7.07813,2.92188 l 0.70703,-0.70704 C 60.79691,52.22659 58.047,51 55,51 Z" id="path4300"/>
      <path class="ColorScheme-Text" style="opacity:0.35;fill:currentColor;fill-opacity:1;stroke:none" d="m 55,47 c -4.155,0 -7.90594,1.67156 -10.61719,4.38281 L 45.0918,52.0918 C 47.6223,49.5613 51.122,48 55,48 c 3.878,0 7.3777,1.5613 9.9082,4.0918 l 0.70899,-0.70899 C 62.90594,48.67156 59.155,47 55,47 Z" id="path4302"/>
      <path class="ColorScheme-Text" id="path4361" transform="translate(0,-20)" d="M 63 76 C 61.892 76 61 76.892 61 78 L 61 80 L 60 80 L 60 83 L 66 83 L 66 80 L 65 80 L 65 78 C 65 76.892 64.108 76 63 76 z M 63 77 C 63.554 77 64 77.446 64 78 L 64 80 L 62 80 L 62 78 C 62 77.446 62.446 77 63 77 z " style="opacity:1;fill:currentColor;fill-opacity:1;stroke:none;stroke-width:0.1;stroke-miterlimit:4;stroke-dasharray:none;stroke-opacity:1"/>
    </g>
  </g>
</svg>
