<svg xmlns="http://www.w3.org/2000/svg" xmlns:xlink="http://www.w3.org/1999/xlink" xmlns:cc="http://creativecommons.org/ns#" xmlns:dc="http://purl.org/dc/elements/1.1/" xmlns:rdf="http://www.w3.org/1999/02/22-rdf-syntax-ns#" xmlns:inkscape="http://www.inkscape.org/namespaces/inkscape" xmlns:sodipodi="http://sodipodi.sourceforge.net/DTD/sodipodi-0.dtd" width="24" height="24" viewBox="0 0 24 24">
  <style type="text/css" id="current-color-scheme">
      .ColorScheme-Text {
        color:#31363b;
      }
      .ColorScheme-Background {
        color:#eff0f1;
      }
      .ColorScheme-Accent {
        color:#3498db;
      }
      .ColorScheme-ButtonText {
        color:#31363b;
      }
      .ColorScheme-NegativeText{
        color:#e74c3c;
      }
      </style>
  <g transform="translate(1,1)">
    <g id="network-wireless-off" transform="translate(-278) translate(44,-44)">
      <g transform="matrix(-1,0,0,1,498,-23.75)" id="g1692">
        <rect style="opacity:0.2;fill:none;fill-opacity:1;stroke:none;stroke-width:3.56737041px;stroke-linecap:butt;stroke-linejoin:miter;stroke-miterlimit:4;stroke-dasharray:none;stroke-dashoffset:0;stroke-opacity:1" id="rect4504-5" width="22" height="22" x="242" y="67.75"/>
        <path inkscape:connector-curvature="0" style="opacity:0.35;fill:currentColor;fill-opacity:1;stroke:none" d="m 253,70.75 c -4.155,0 -7.90594,1.671562 -10.61719,4.382812 l 0.70899,0.708985 C 245.6223,73.311297 249.122,71.75 253,71.75 c 1.69618,0 3.31246,0.313499 4.81445,0.861328 l 0.78125,-0.779297 C 256.86662,71.139948 254.98194,70.75 253,70.75 Z m 7.98828,2.306641 -0.72851,0.728515 c 0.96232,0.583504 1.85746,1.265664 2.64843,2.056641 l 0.70899,-0.708985 c -0.79015,-0.790152 -1.67788,-1.47827 -2.62891,-2.076171 z" id="path4506-3" class="ColorScheme-Text"/>
        <path inkscape:connector-curvature="0" style="opacity:0.35;fill:currentColor;fill-opacity:1;stroke:none" d="m 253,74.75 c -3.047,0 -5.79691,1.226594 -7.78516,3.214844 l 0.70703,0.707031 C 247.72937,76.864365 250.23,75.75 253,75.75 c 0.52789,0 1.04149,0.05283 1.54688,0.130859 l 0.85937,-0.861328 C 254.63141,74.847689 253.82805,74.75 253,74.75 Z m 5.0625,1.232422 -0.74805,0.75 c 1.02987,0.491318 1.96689,1.142666 2.76367,1.939453 l 0.70704,-0.707031 c -0.79457,-0.794566 -1.71446,-1.460811 -2.72266,-1.982422 z" id="path4508-5" class="ColorScheme-Text"/>
        <path inkscape:connector-curvature="0" style="opacity:0.35;fill:currentColor;fill-opacity:1;stroke:none" d="m 251.51953,78.908203 c -1.3423,0.286856 -2.54134,0.953446 -3.47461,1.886719 l 0.70899,0.708984 c 0.28116,-0.28116 0.59127,-0.532975 0.92382,-0.753906 z m 3.48438,0.132813 -0.82422,0.824218 c 1.18703,0.234927 2.24547,0.817737 3.0664,1.638672 l 0.70899,-0.708984 c -0.81012,-0.810119 -1.82098,-1.419124 -2.95117,-1.753906 z" id="path4510-6" class="ColorScheme-Text"/>
        <path inkscape:connector-curvature="0" id="path4512-2" d="m 253,82.75 c -1.108,0 -2,0.892004 -2,2 0,1.107996 0.892,2 2,2 1.108,0 2,-0.892004 2,-2 0,-1.107996 -0.892,-2 -2,-2 z m 0,1 c 0.554,0 1,0.446 1,1 0,0.554 -0.446,1 -1,1 -0.554,0 -1,-0.446 -1,-1 0,-0.554 0.446,-1 1,-1 z" style="opacity:0.35;fill:currentColor;fill-opacity:1;stroke:none" class="ColorScheme-Text"/>
        <rect style="opacity:1;fill:currentColor;fill-opacity:1;stroke:none" id="rect1560" width="22.763676" height="1.0021172" x="113.27978" y="234.42577" transform="rotate(-45)" class="ColorScheme-NegativeText"/>
      </g>
    </g>
  </g>
</svg>
