<svg xmlns="http://www.w3.org/2000/svg" height="24" width="24" viewBox="0 0 24 24">
  <defs id="defs4157">
    <style id="current-color-scheme" type="text/css">
      .ColorScheme-Text {
        color:#31363b;
      }
    </style>
  </defs>
  <g transform="translate(1,1)">
    <path class="ColorScheme-Text" id="path4467-5" d="M 8,3 C 5.238576,3 3,5.2385763 3,8 H 4 C 4,5.790861 5.790861,4 8,4 Z m 3,0 c 0,0 -1,0 -1,3 V 8.5 L 8.900391,9.0507812 V 9.0000002 H 8.099609 v 0.5507812 h -0.09961 v 0.1992188 l -2,0.9999998 v -0.5 H 5.900389 V 9.699219 H 5.099607 V 10.25 h -0.09961 v 1 l -2,1 v 1 L 5.191403,12.976562 5.300778,13.25 h 0.398438 l 0.142578,-0.355469 2.751953,-0.34375 h 0.105469 l 0.0059,-0.01367 L 10,12.125 V 15 c 0,0.487991 0.24052,0.971967 0.484375,1.34375 L 8,18 v 1 l 3,-1 3,1 V 18 L 11.515625,16.34375 C 11.75948,15.971967 12,15.487991 12,15 v -2.875 l 1.294922,0.162109 0.0059,0.01367 h 0.105469 l 2.751953,0.34375 0.142578,0.355469 H 16.69926 L 16.808635,12.72656 19,13 V 12 L 17,11 V 10 H 16.90039 V 9.4492188 H 16.099608 V 10 h -0.09961 v 0.5 l -2,-1 V 9.3007812 h -0.09961 V 8.75 H 13.099606 V 8.800781 L 12,8.5 V 6 C 12,3 11,3 11,3 Z M 8,5 C 6.343146,5 5,6.3431458 5,8 H 6 C 6,6.8954305 6.895431,6 8,6 Z M 8,7 C 8,7 7,7 7,8 h 1 z" style="fill:currentColor;fill-opacity:1;fill-rule:evenodd;stroke:none;stroke-width:1px;stroke-linecap:butt;stroke-linejoin:miter;stroke-opacity:1"/>
  </g>
</svg>
