<svg xmlns="http://www.w3.org/2000/svg" xmlns:xlink="http://www.w3.org/1999/xlink" xmlns:cc="http://creativecommons.org/ns#" xmlns:dc="http://purl.org/dc/elements/1.1/" xmlns:rdf="http://www.w3.org/1999/02/22-rdf-syntax-ns#" xmlns:inkscape="http://www.inkscape.org/namespaces/inkscape" xmlns:sodipodi="http://sodipodi.sourceforge.net/DTD/sodipodi-0.dtd" width="24" height="24" viewBox="0 0 24 24">
  <style type="text/css" id="current-color-scheme">
      .ColorScheme-Text {
        color:#31363b;
      }
      .ColorScheme-Background {
        color:#eff0f1;
      }
      .ColorScheme-Accent {
        color:#3498db;
      }
      .ColorScheme-ButtonText {
        color:#31363b;
      }
      .ColorScheme-NegativeText{
        color:#e74c3c;
      }
      </style>
  <g transform="translate(1,1)">
    <g id="network-wireless-20-limited" transform="translate(22,20) translate(-66,-86)">
      <rect y="66" x="44" height="22" width="22" id="rect4559" style="opacity:0.55;fill:none;fill-opacity:1;stroke:none;stroke-width:3.56737041px;stroke-linecap:butt;stroke-linejoin:miter;stroke-miterlimit:4;stroke-dasharray:none;stroke-dashoffset:0;stroke-opacity:1"/>
      <path class="ColorScheme-Text" style="opacity:0.35;fill:currentColor;fill-opacity:1;stroke:none" d="m 55,81 c -1.107996,0 -2,0.892004 -2,2 0,1.107996 0.892004,2 2,2 1.107996,0 2,-0.892004 2,-2 0,-1.107996 -0.892004,-2 -2,-2 z m 0,1 c 0.554,0 1,0.446 1,1 0,0.554 -0.446,1 -1,1 -0.554,0 -1,-0.446 -1,-1 0,-0.554 0.446,-1 1,-1 z" id="path4561"/>
      <path class="ColorScheme-Text" style="opacity:0.35;fill:currentColor;fill-opacity:1;stroke:none" d="m 55,77 c -1.939,0 -3.68983,0.77967 -4.95508,2.04492 l 0.70899,0.70899 C 51.83841,78.66941 53.338,78 55,78 c 1.662,0 3.16159,0.66941 4.24609,1.75391 l 0.70899,-0.70899 C 58.68983,77.77967 56.939,77 55,77 Z" id="path4563"/>
      <path class="ColorScheme-Text" style="opacity:0.35;fill:currentColor;fill-opacity:1;stroke:none" d="m 55,73 c -3.047,0 -5.79691,1.22659 -7.78516,3.21484 l 0.70704,0.70704 C 49.72938,75.11437 52.23,74 55,74 c 2.77,0 5.27062,1.11437 7.07813,2.92188 l 0.70703,-0.70704 C 60.79691,74.22659 58.047,73 55,73 Z" id="path4565"/>
      <path class="ColorScheme-Text" style="opacity:0.35;fill:currentColor;fill-opacity:1;stroke:none" d="m 55,69 c -4.155,0 -7.90594,1.67156 -10.61719,4.38281 L 45.0918,74.0918 C 47.6223,71.5613 51.122,70 55,70 c 3.878,0 7.3777,1.5613 9.9082,4.0918 l 0.70899,-0.70899 C 62.90594,70.67156 59.155,69 55,69 Z" id="path4567"/>
      <path style="opacity:1;fill:#fdbc4b;fill-opacity:1;stroke:none" d="m 62,78 v 5 h 2 v -5 z m 1,6 a 1,1 0 0 0 -1,1 1,1 0 0 0 1,1 1,1 0 0 0 1,-1 1,1 0 0 0 -1,-1 z" id="path4569"/>
    </g>
  </g>
</svg>
