<svg xmlns="http://www.w3.org/2000/svg" xmlns:xlink="http://www.w3.org/1999/xlink" xmlns:cc="http://creativecommons.org/ns#" xmlns:dc="http://purl.org/dc/elements/1.1/" xmlns:rdf="http://www.w3.org/1999/02/22-rdf-syntax-ns#" xmlns:inkscape="http://www.inkscape.org/namespaces/inkscape" xmlns:sodipodi="http://sodipodi.sourceforge.net/DTD/sodipodi-0.dtd" width="24" height="24" viewBox="0 0 24 24">
  <style type="text/css" id="current-color-scheme">
      .ColorScheme-Text {
        color:#31363b;
      }
      .ColorScheme-Background {
        color:#eff0f1;
      }
      .ColorScheme-Accent {
        color:#3498db;
      }
      .ColorScheme-ButtonText {
        color:#31363b;
      }
      .ColorScheme-NegativeText{
        color:#e74c3c;
      }
      </style>
  <g transform="translate(1,1)">
    <g transform="translate(-44) translate(66,-22)" id="network-wireless-available">
      <rect style="opacity:0.55;fill:none;fill-opacity:1;stroke:none;stroke-width:3.56737041px;stroke-linecap:butt;stroke-linejoin:miter;stroke-miterlimit:4;stroke-dasharray:none;stroke-dashoffset:0;stroke-opacity:1" id="rect4517" width="22" height="22" x="-22" y="22"/>
      <g transform="translate(-51.97466,12.97765)" id="g4527">
        <path class="ColorScheme-Text" style="opacity:0.35;fill:currentColor;fill-opacity:1;stroke:none" d="m 40.97466,12.02235 c -4.155,0 -7.90594,1.67156 -10.61719,4.38281 l 0.70899,0.70899 c 2.5305,-2.5305 6.0302,-4.0918 9.9082,-4.0918 3.878,0 7.3777,1.5613 9.9082,4.0918 l 0.70899,-0.70899 C 48.8806,13.69391 45.12966,12.02235 40.97466,12.02235 Z" id="path4519"/>
        <path class="ColorScheme-Text" style="opacity:0.35;fill:currentColor;fill-opacity:1;stroke:none" d="m 40.97466,16.02235 c -3.047,0 -5.79691,1.22659 -7.78516,3.21484 l 0.70704,0.70704 c 1.8075,-1.80751 4.30812,-2.92188 7.07812,-2.92188 2.77,0 5.27062,1.11437 7.07813,2.92188 l 0.70703,-0.70704 c -1.98825,-1.98825 -4.73816,-3.21484 -7.78516,-3.21484 z" id="path4521"/>
        <path class="ColorScheme-Text" style="opacity:0.35;fill:currentColor;fill-opacity:1;stroke:none" d="m 40.97466,20.02235 c -1.939,0 -3.68983,0.77967 -4.95508,2.04492 l 0.70899,0.70899 c 1.0845,-1.0845 2.58409,-1.75391 4.24609,-1.75391 1.662,0 3.16159,0.66941 4.24609,1.75391 l 0.70899,-0.70899 c -1.26525,-1.26525 -3.01608,-2.04492 -4.95508,-2.04492 z" id="path4523"/>
        <path class="ColorScheme-Text" style="opacity:0.35;fill:currentColor;fill-opacity:1;stroke:none" d="m 40.97466,24.02235 c -1.107996,0 -2,0.892004 -2,2 0,1.107996 0.892004,2 2,2 1.107996,0 2,-0.892004 2,-2 0,-1.107996 -0.892004,-2 -2,-2 z m 0,1 c 0.554,0 1,0.446 1,1 0,0.554 -0.446,1 -1,1 -0.554,0 -1,-0.446 -1,-1 0,-0.554 0.446,-1 1,-1 z" id="path4525"/>
      </g>
      <path id="path4891" d="m -3.2343755,35.013676 a 2,2 0 0 0 -1.767578,1.896484 2,2 0 0 0 0,0.08984 l 1,0 a 1,1 0 0 1 0.882812,-0.994141 l 0.115235,0 0,-0.992187 -0.230469,0 z m 0.232422,0.002 0,1 a 1,1 0 0 1 0.994141,0.882813 l 0,0.115234 0.0059,0 a 1,1 0 0 1 -0.882813,0.99414 l -0.115275,-4.7e-5 0,-0.0078 a 2,2 0 0 0 -0.199219,0.002 2,2 0 0 0 -0.800781,0.218703 l 0,-0.207031 -0.002,0 0,2 1,0 0,-1.013672 0.002,0 0.230469,0 a 2,2 0 0 0 1.767578,-1.896484 2,2 0 0 0 0,-0.08984 l -0.01367,0 0,-0.230469 a 2,2 0 0 0 -1.896484,-1.767578 2,2 0 0 0 -0.08984,0 z m -0.998047,5.984328 0,1 1,0 0,-1 -1,0 z" style="fill:#fdbc4b;fill-opacity:1;stroke:none"/>
    </g>
  </g>
</svg>
