<svg xmlns="http://www.w3.org/2000/svg" xmlns:xlink="http://www.w3.org/1999/xlink" xmlns:cc="http://creativecommons.org/ns#" xmlns:dc="http://purl.org/dc/elements/1.1/" xmlns:rdf="http://www.w3.org/1999/02/22-rdf-syntax-ns#" xmlns:inkscape="http://www.inkscape.org/namespaces/inkscape" xmlns:sodipodi="http://sodipodi.sourceforge.net/DTD/sodipodi-0.dtd" width="24" height="24" viewBox="0 0 24 24">
  <style type="text/css" id="current-color-scheme">
      .ColorScheme-Text {
        color:#31363b;
      }
      .ColorScheme-Background {
        color:#eff0f1;
      }
      .ColorScheme-Accent {
        color:#3498db;
      }
      .ColorScheme-ButtonText {
        color:#31363b;
      }
      .ColorScheme-NegativeText{
        color:#e74c3c;
      }
      </style>
  <g transform="translate(1,1)">
    <g transform="translate(0,20) translate(0,-64)" id="network-wireless-80-locked">
      <rect y="44" x="0" height="22" width="22" id="rect4332" style="opacity:0.55;fill:none;fill-opacity:1;stroke:none;stroke-width:3.56737041px;stroke-linecap:butt;stroke-linejoin:miter;stroke-miterlimit:4;stroke-dasharray:none;stroke-dashoffset:0;stroke-opacity:1"/>
      <path class="ColorScheme-Text" style="opacity:1;fill:currentColor;fill-opacity:1;stroke:none" d="m 11,55 c -1.939,0 -3.68983,0.77967 -4.95508,2.04492 l 0.70899,0.70899 C 7.83841,56.66941 9.338,56 11,56 c 1.662,0 3.16159,0.66941 4.24609,1.75391 l 0.70899,-0.70899 C 14.68983,55.77967 12.939,55 11,55 Z" id="path4314"/>
      <path class="ColorScheme-Text" style="opacity:1;fill:currentColor;fill-opacity:1;stroke:none" d="m 11,51 c -3.047,0 -5.79691,1.22659 -7.78516,3.21484 l 0.70704,0.70704 C 5.72938,53.11437 8.23,52 11,52 c 2.77,0 5.27062,1.11437 7.07813,2.92188 l 0.70703,-0.70704 C 16.79691,52.22659 14.047,51 11,51 Z" id="path4316"/>
      <path class="ColorScheme-Text" style="opacity:0.35;fill:currentColor;fill-opacity:1;stroke:none" d="M 11,47 C 6.845,47 3.09406,48.67156 0.38281,51.38281 L 1.0918,52.0918 C 3.6223,49.5613 7.122,48 11,48 c 3.878,0 7.3777,1.5613 9.9082,4.0918 l 0.70899,-0.70899 C 18.90594,48.67156 15.155,47 11,47 Z" id="path4318"/>
      <path class="ColorScheme-Text" id="path4357" transform="translate(0,-20)" d="M 19 76 C 17.892 76 17 76.892 17 78 L 17 80 L 16 80 L 16 83 L 22 83 L 22 80 L 21 80 L 21 78 C 21 76.892 20.108 76 19 76 z M 19 77 C 19.554 77 20 77.446 20 78 L 20 80 L 18 80 L 18 78 C 18 77.446 18.446 77 19 77 z " style="opacity:1;fill:currentColor;fill-opacity:1;stroke:none;stroke-width:0.1;stroke-miterlimit:4;stroke-dasharray:none;stroke-opacity:1"/>
      <path class="ColorScheme-Text" style="opacity:1;fill:currentColor;fill-opacity:1;stroke:none" d="m 11,59 c -1.107996,0 -2,0.892004 -2,2 0,1.107996 0.892004,2 2,2 1.107996,0 2,-0.892004 2,-2 0,-1.107996 -0.892004,-2 -2,-2 z m 0,1 c 0.554,0 1,0.446 1,1 0,0.554 -0.446,1 -1,1 -0.554,0 -1,-0.446 -1,-1 0,-0.554 0.446,-1 1,-1 z" id="path4312"/>
    </g>
  </g>
</svg>
