<svg height="48" viewBox="0 0 48 48" width="48" xmlns="http://www.w3.org/2000/svg" xmlns:xlink="http://www.w3.org/1999/xlink"><linearGradient id="a" gradientTransform="matrix(2.4295641 2.4295641 -2.4295641 2.4295641 1.364305 -972.83339)" gradientUnits="userSpaceOnUse" x1="210.01074" x2="210.01074" y1="194.34363" y2="196.98961"><stop offset="0" stop-color="#9b9ea2"/><stop offset="1" stop-color="#1a1b1e"/></linearGradient><linearGradient id="b" gradientTransform="matrix(3.4959872 0 0 3.4959871 1.30074 3.299862)" gradientUnits="userSpaceOnUse" x1="11.641666" x2="1.058333" y1="11.641666" y2="1.058333"><stop offset="0" stop-color="#4f5356"/><stop offset="1" stop-color="#9b9ea2" stop-opacity=".996078"/></linearGradient><radialGradient id="c" cx="23.49843" cy="25.501214" gradientUnits="userSpaceOnUse" r="15.500028"><stop offset="0" stop-color="#003a68" stop-opacity=".004525"/><stop offset=".882353" stop-color="#001d34" stop-opacity=".058824"/><stop offset="1" stop-opacity=".135747"/></radialGradient><radialGradient id="d" cx="23.500253" cy="25.499206" gradientUnits="userSpaceOnUse" r="15.498204"><stop offset="0" stop-color="#3dd425" stop-opacity=".954751"/><stop offset="1" stop-color="#59f07c"/></radialGradient><linearGradient id="e" gradientUnits="userSpaceOnUse" x1="22" x2="39" y1="25.500002" y2="42.5"><stop offset="0"/><stop offset="1" stop-opacity="0"/></linearGradient><path d="m37.57 7.5 5.73 5.79-4.3 4.71v7.5h-15.5v-14.5h10.57z" fill="url(#a)"/><path d="m15 4v3h8.5 9.5v-3zm8.5 3c-10.216474 0-18.5 8.283526-18.5 18.5s8.283526 18.5 18.5 18.5c10.216473 0 18.5-8.283526 18.5-18.5s-8.283527-18.5-18.5-18.5z" fill="url(#b)"/><path d="m23.498176 40.999999c8.5594 0 15.501824-6.938772 15.501824-15.498173 0-8.559402-6.942423-15.501826-15.501824-15.501826-8.559403 0-15.498176 6.942424-15.498176 15.501826 0 8.559401 6.938773 15.498173 15.498176 15.498173zm0 0" fill="#eef8ff"/><path d="m21.734 27.27 16.73 16.73h.536v-18.499999h-17z" fill="url(#e)" opacity=".2"/><path d="m23.498047 10c-8.559402 0-15.498047 6.942551-15.498047 15.501953s6.938644 15.498047 15.498047 15.498047c8.559402 0 15.501953-6.938645 15.501953-15.498047s-6.942551-15.501953-15.501953-15.501953zm.001953 1a14.5 14.5 0 0 1 14.5 14.5 14.5 14.5 0 0 1 -14.5 14.5 14.5 14.5 0 0 1 -14.5-14.5 14.5 14.5 0 0 1 14.5-14.5z" fill="url(#c)"/><path d="m23.5 10c2.036496 0 4.051094.40146 5.930657 1.182482 1.879562.777373 3.587591 1.919709 5.029197 3.357665 1.437956 1.437956 2.580291 3.149635 3.357665 5.029197.781021 1.879563 1.182481 3.894161 1.182481 5.930657h-15.5zm0 0" fill="url(#d)"/><path d="m24 25.5 15 .0073" fill="#00213d" stroke="#00213d" stroke-width="3"/><path d="m23.5 28c1.379999 0 2.5-1.116117 2.5-2.497498 0-1.38138-1.120001-2.502502-2.5-2.502502s-2.5 1.121122-2.5 2.502502c0 1.381381 1.120001 2.497498 2.5 2.497498zm0 0" fill="#66686e" fill-opacity=".996078"/><path d="m23.500001 27c.828 0 1.499999-.672 1.499999-1.500001 0-.828002-.671999-1.500001-1.499999-1.500001-.828002 0-1.500001.671999-1.500001 1.500001 0 .828001.671999 1.500001 1.500001 1.500001zm0 0" fill="#999ca1"/><path d="m5.0117188 25c-.0044423.166751-.0117188.332178-.0117188.5 0 10.216474 8.283526 18.5 18.5 18.5 10.216473 0 18.5-8.283526 18.5-18.5 0-.167822-.007277-.333249-.011719-.5-.265985 9.984506-8.43963 18-18.488281 18-10.048652 0-18.2222964-8.015494-18.4882812-18z" fill-opacity=".906314" opacity=".4"/></svg>