<svg xmlns="http://www.w3.org/2000/svg" viewBox="0 0 24 24" width="24" height="24">
  <defs>
    <style id="current-color-scheme" type="text/css">
      .ColorScheme-Text {
        color:#232629;
      }
    </style>
  </defs>
  <g transform="translate(1,1)">
    <path class="ColorScheme-Text" style="fill:currentColor" d="m17.267 4.2c-0.82205 0.0147-1.5876 0.3404-5.174 1.8321-1.2632 0.52541-3.7672 1.606-7.4964 3.2306l-6e-3 2e-3 -2e-3 2e-3c-0.0144 6e-3 -0.0148 5e-3 -0.0293 0.0117h6e-3c-0.34073 0.13685-0.63453 0.27521-0.90042 0.47267-0.27344 0.20307-0.59075 0.50854-0.65628 1.0313-0.0442 0.35219 0.0878 0.78218 0.29688 1.0391 0.20904 0.25693 0.4319 0.38215 0.63089 0.47854 0.39798 0.19278 0.7696 0.28117 1.1485 0.4043 0.69094 0.22461 1.4964 0.5062 2.2911 0.52346 0.65397 0.0141 1.255-0.26602 1.834-0.63869-0.11036 0.36111-0.1524 0.83265 0.0391 1.1993 0.21638 0.4144 0.53688 0.68128 0.93168 0.94145 1.087 0.71634 1.7297 1.1802 2.879 1.9337 0.31118 0.20398 0.63509 0.4695 1.0528 0.71487 0.41768 0.24538 0.98382 0.47346 1.629 0.41408 0.45046-0.0415 0.91972-0.32018 1.209-0.7051 0.28932-0.38494 0.45409-0.848 0.56252-1.4278 0.43154-2.3069 1.2674-7.2003 1.4727-9.3578 0.0321-0.33717 5e-3 -0.55742-0.0312-0.7715-0.0296-0.17305-0.13621-0.63016-0.53908-0.95707-0.49099-0.39826-0.84602-0.37874-1.1465-0.37306zm0.0195 1c0.10664-2e-3 0.34556 0.0251 0.50001 0.1504 0.13042 0.10582 0.16644 0.24734 0.18361 0.34767 0.0172 0.10035 0.0385 0.32924 0.0215 0.50783-0.19401 2.0385-1.0339 6.9848-1.461 9.2679-0.18071 0.96606-0.53641 1.2906-0.8809 1.3223-0.74863 0.0689-1.318-0.49348-2.043-0.96879-1.1346-0.74377-1.7757-1.2079-2.8771-1.9337-1.2728-0.83875-0.44606-1.2994 0.27931-2.0528 0.18983-0.19717 3.4871-3.1967 3.5509-3.4689 8e-3 -0.034 0.0149-0.16151-0.0605-0.22852-0.0754-0.067-0.18535-0.0436-0.26563-0.0254-0.11379 0.0258-1.9264 1.2236-5.4377 3.5939-0.5145 0.35329-0.98097 0.52466-1.3985 0.51564-0.4603-0.01-1.3458-0.26066-2.004-0.47463-0.80733-0.26243-1.4485-0.40004-1.3926-0.84573 0.0291-0.23215 0.34874-0.47023 0.95901-0.71292 3.7582-1.6374 6.264-2.7169 7.5179-3.2384 3.5801-1.4891 4.3239-1.7474 4.8088-1.7559z"/>
  </g>
</svg>
