<?xml version="1.0" encoding="UTF-8"?>
<svg xmlns="http://www.w3.org/2000/svg" xmlns:xlink="http://www.w3.org/1999/xlink" xmlns:cc="http://creativecommons.org/ns#" xmlns:dc="http://purl.org/dc/elements/1.1/" xmlns:rdf="http://www.w3.org/1999/02/22-rdf-syntax-ns#" xmlns:inkscape="http://www.inkscape.org/namespaces/inkscape" xmlns:sodipodi="http://sodipodi.sourceforge.net/DTD/sodipodi-0.dtd" width="128" height="128">
    <style type="text/css" id="current-color-scheme">
      .ColorScheme-Text {
        color:#7B7C7E;
      }
      .ColorScheme-Background{
        color:#EFF0F1;
      }
      .ColorScheme-Accent{
        color:#3DAEE6;
      }
      .ColorScheme-ButtonText {
        color:#7B7C7E;
      }
</style>
    <g style="fill:none" id="osd-shutd-screen">
      <rect id="rect4305" height="128" width="128" x="0" y="0" style="fill:none"/>
      <path style="color:#7b7c7e;fill:currentColor;fill-opacity:1;fill-rule:evenodd;stroke:none" d="m -77,-43 0,33 1,0 0,-32 68,0 0,41 -41,0 0,1 2,0 0,8 -2,0 0,1 20,0 0,-1 -8,0 0,-8 30,0 0,-42.998047 L -77,-43 Z m 2,2 0,31 1,0 0,-30 64,0 0,36 -39,0 0,1 40,0 0,-38 -66,0 z m -46,33 0,43 30,0 0,8 -8,0 0,1 26,0 0,-1 -8,0 0,-8 30,0 0,-42.9980469 L -121,-8 Z m 1,1 68,0 0,41 -68,0 0,-41 z m 1,1 0,38 66,0 0,-38 -66,0 z m 1,1 64,0 0,36 -64,0 0,-36 z m 72,5 8,0 0,8 -8,0 0,-8 z m -44,35 8,0 0,8 -8,0 0,-8 z" transform="translate(128,64)" id="path4309-9" inkscape:connector-curvature="0" class="ColorScheme-Text"/>
      <path id="path4319" d="m 26,65 32,0 0,24 -32,0 0,-24 z m 6,23 25,0 0,-15 -25,0 0,15 z m 25,-16 0,-1 -30,0 0,1 30,0 z m -30,1 4,0 0,15 -4,0 0,-15 z m 21,-5 c 0,-0.5523 -0.4477,-1 -1,-1 -0.5523,0 -1,0.4477 -1,1 0,0.5522 0.4477,1 1,1 0.5523,0 1,-0.4478 1,-1 z m 4,0 c 0,-0.5523 -0.4477,-1 -1,-1 -0.5523,0 -1,0.4477 -1,1 0,0.5522 0.4477,1 1,1 0.5523,0 1,-0.4478 1,-1 z m 4,0 c 0,-0.5523 -0.4477,-1 -1,-1 -0.5523,0 -1,0.4477 -1,1 0,0.5522 0.4477,1 1,1 0.5523,0 1,-0.4478 1,-1 z" inkscape:connector-curvature="0" style="fill:currentColor;fill-opacity:1;fill-rule:evenodd;stroke:none" class="ColorScheme-Accent"/>
      <path id="path4321" d="m 94.1875,32.5626 3.5605,-3.5625 0.0021,0.0019 1.4121,1.4121 -2.168,2.168 -9.498,9.5 11.6679,11.666 -0.002,0.002 L 97.75,55.1622 86.082,43.4962 77.9766,51.6017 77.1504,52.4278 75.5782,54 73.2499,54 73,53.7501 75.2852,51.4649 84.668,42.0821 76.5625,33.9767 75.7363,33.1505 73,30.4161 l 1.4141,-1.4141 2.1679,2.168 0.1172,0.1172 9.3828,9.3809 8.1055,-8.1055 z" inkscape:connector-curvature="0" style="clip-rule:evenodd;fill:#da4453;fill-rule:evenodd"/>
    </g>
</svg>
