<?xml version="1.0" encoding="UTF-8"?>
<svg xmlns="http://www.w3.org/2000/svg" xmlns:xlink="http://www.w3.org/1999/xlink" xmlns:cc="http://creativecommons.org/ns#" xmlns:dc="http://purl.org/dc/elements/1.1/" xmlns:rdf="http://www.w3.org/1999/02/22-rdf-syntax-ns#" xmlns:inkscape="http://www.inkscape.org/namespaces/inkscape" xmlns:sodipodi="http://sodipodi.sourceforge.net/DTD/sodipodi-0.dtd" width="128" height="127">
    <style type="text/css" id="current-color-scheme">
      .ColorScheme-Text {
        color:#7B7C7E;
      }
      .ColorScheme-Background{
        color:#EFF0F1;
      }
      .ColorScheme-Accent{
        color:#3DAEE6;
      }
      .ColorScheme-ButtonText {
        color:#7B7C7E;
      }
</style>
    <g style="fill:none" id="osd-sbs-sright">
      <rect id="rect4296" height="127" width="128" x="0" y="0" style="fill:none"/>
      <path style="color:#7b7c7e;fill:currentColor;fill-opacity:1;fill-rule:evenodd;stroke:none" d="m -121,-25 0,43 30,0 0,8 -8,0 0,1 26,0 0,-1 -8,0 0,-8 30,0 0,-42.998047 -70,-0.002 z m 71,0 0,1 42,0 0,41 -42,0 0,1 3,0 0,8 -8,0 0,1 26,0 0,-1 -8,0 0,-8 30,0 0,-42.998047 L -50,-25 Z m -70,1 68,0 0,41 -68,0 0,-41 z m 1,1 0,38 66,0 0,-38 -66,0 z m 69,0 0,1 40,0 0,36 -40,0 0,1 41,0 0,-38 -41,0 z m -68,1 64,0 0,36 -64,0 0,-36 z m 28,40 8,0 0,8 -8,0 0,-8 z m 44,0 8,0 0,8 -8,0 0,-8 z" transform="translate(128,63)" id="path4300-2" inkscape:connector-curvature="0" class="ColorScheme-Text"/>
      <path style="fill:currentColor;fill-opacity:1;fill-rule:evenodd;stroke:none" d="m -71,-17 0,24 15,0 0,-1 -9,0 0,-15 9,0 0,-1 -14,0 0,-1 14,0 0,-6 -15,0 z m 22,0 0,6 14,0 0,1 -14,0 0,1 14,0 0,15 -14,0 0,1 15,0 0,-24 -15,0 z m 4,2 c 0.5523,0 1,0.4477 1,1 0,0.5522 -0.4477,1 -1,1 -0.5523,0 -1,-0.4478 -1,-1 0,-0.5523 0.4477,-1 1,-1 z m 4,0 c 0.5523,0 1,0.4477 1,1 0,0.5522 -0.4477,1 -1,1 -0.5523,0 -1,-0.4478 -1,-1 0,-0.5523 0.4477,-1 1,-1 z m 4,0 c 0.5523,0 1,0.4477 1,1 0,0.5522 -0.4477,1 -1,1 -0.5523,0 -1,-0.4478 -1,-1 0,-0.5523 0.4477,-1 1,-1 z m -33,6 4,0 0,15 -4,0 0,-15 z" transform="translate(128,63)" id="path4308" inkscape:connector-curvature="0" class="ColorScheme-Accent"/>
    </g>
</svg>
