<?xml version="1.0" encoding="UTF-8"?>
<svg xmlns="http://www.w3.org/2000/svg" xmlns:xlink="http://www.w3.org/1999/xlink" xmlns:cc="http://creativecommons.org/ns#" xmlns:dc="http://purl.org/dc/elements/1.1/" xmlns:rdf="http://www.w3.org/1999/02/22-rdf-syntax-ns#" xmlns:inkscape="http://www.inkscape.org/namespaces/inkscape" xmlns:sodipodi="http://sodipodi.sourceforge.net/DTD/sodipodi-0.dtd" width="128" height="128">
    <style type="text/css" id="current-color-scheme">
      .ColorScheme-Text {
        color:#7B7C7E;
      }
      .ColorScheme-Background{
        color:#EFF0F1;
      }
      .ColorScheme-Accent{
        color:#3DAEE6;
      }
      .ColorScheme-ButtonText {
        color:#7B7C7E;
      }
</style>
    <g style="fill:none" id="osd-rotate-ccw">
      <rect id="rect4286" height="128" width="128" x="0" y="0" style="fill:none"/>
      <path style="color:#7b7c7e;fill:currentColor;fill-opacity:1;stroke:none" d="m -121,-44 c -1.65686,0 -3,1.3431 -3,3 l 0,66 c 0,1.6569 1.34314,3 3,3 l 49,0 0,13 -13,0 c -0.5523,0 -1,0.448 -1,1 l 0,1 c 0,0.552 0.4477,1 1,1 l 42,0 c 0.5523,0 1,-0.448 1,-1 l 0,-1 c 0,-0.552 -0.4477,-1 -1,-1 l -13,0 0,-13 49,0 c 1.657,0 3,-1.3431 3,-3 l 0,-66 c 0,-1.6569 -1.343,-3 -3,-3 l -114,0 z m 0,1 114,0 c 1.105,0 2,0.8954 2,2 l 0,66 c 0,1.1046 -0.895,2 -2,2 l -114,0 c -1.10458,0 -2,-0.8954 -2,-2 l 0,-66 c 0,-1.1046 0.89542,-2 2,-2 z m 0,2 0,64 114,0 0,-64 -114,0 z m 1,1 112,0 0,62 -112,0 0,-62 z m 49,68 14,0 0,13 -14,0 0,-13 z m -14,14 42,0 0,1 -42,0 0,-1 z" transform="translate(128,64)" id="path4290" inkscape:connector-curvature="0" class="ColorScheme-Text"/>
      <path style="fill:currentColor;fill-opacity:1;fill-rule:evenodd;stroke:none" d="M -80.955078,-33 C -88.496688,-27.770543 -92.9969,-19.177315 -93,-10 c 0.0199,6.803851 2.516608,13.3676588 7.023438,18.4648438 C -87.134942,10.714671 -89,13 -89,13 l 11.914062,0 C -85.634868,8.511691 -90.99249,-0.344476 -91,-10 c 0.006,-9.653829 5.36034,-18.509578 13.90625,-23 l -3.861328,0 z m 28.041016,0 c 8.54893,4.488309 13.906552,13.344476 13.914062,23 -0.006,9.653829 -5.36034,18.509578 -13.90625,23 l 3.861328,0 C -41.503312,7.770543 -37.0031,-0.822685 -37,-10 -37.0199,-16.803851 -39.516608,-23.367659 -44.023438,-28.464844 -42.865058,-30.714671 -41,-33 -41,-33 l -11.914062,0 z M -70.46875,-29.238281 -81.9375,0.63671875 -59.53125,9.2382812 -48.0625,-20.636719 -70.46875,-29.238281 Z m 1.691406,2.876953 c 0.129751,-0.0045 0.263674,0.01497 0.392578,0.06445 0.515617,0.197925 0.772181,0.777489 0.574219,1.292969 -0.197925,0.515617 -0.775484,0.772094 -1.291015,0.574218 -0.515617,-0.197924 -0.774097,-0.775398 -0.576172,-1.291015 0.148443,-0.386713 0.511139,-0.627263 0.90039,-0.640625 z m 3.550782,0.207031 0.933593,0.359375 -10.75,28.0078126 -0.933593,-0.359375 10.75,-28.0078126 z m 1.867187,0.716797 14.003906,5.376953 -8.958984,23.3398439 -14.003906,-5.3769531 8.958984,-23.3398438 z m -6.851563,2.810547 c 0.129913,-0.0044 0.263674,0.01693 0.392579,0.06641 0.515531,0.197875 0.774097,0.775399 0.576171,1.291016 -0.197924,0.515617 -0.777351,0.772144 -1.292968,0.574219 -0.515617,-0.197925 -0.774098,-0.775399 -0.576172,-1.291016 0.148406,-0.386648 0.510652,-0.627517 0.90039,-0.640625 z m -1.433593,3.734375 c 0.129659,-0.0043 0.263674,0.01693 0.392578,0.06641 0.51553,0.197876 0.774097,0.775399 0.576172,1.291016 -0.197975,0.515704 -0.777439,0.772093 -1.292969,0.574218 -0.515617,-0.197926 -0.772145,-0.775398 -0.574219,-1.291015 0.148444,-0.386713 0.509461,-0.627738 0.898438,-0.640625 z m -1.033203,17.7285155 14.005859,5.3769531 -1.433594,3.7324219 -14.003906,-5.375 1.431641,-3.734375 z" transform="translate(128,64)" id="path4300" class="ColorScheme-Accent" inkscape:connector-curvature="0"/>
    </g>
</svg>
