<?xml version="1.0" encoding="UTF-8"?>
<svg xmlns="http://www.w3.org/2000/svg" xmlns:xlink="http://www.w3.org/1999/xlink" xmlns:cc="http://creativecommons.org/ns#" xmlns:dc="http://purl.org/dc/elements/1.1/" xmlns:rdf="http://www.w3.org/1999/02/22-rdf-syntax-ns#" xmlns:inkscape="http://www.inkscape.org/namespaces/inkscape" xmlns:sodipodi="http://sodipodi.sourceforge.net/DTD/sodipodi-0.dtd" width="128" height="129">
    <style type="text/css" id="current-color-scheme">
      .ColorScheme-Text {
        color:#7B7C7E;
      }
      .ColorScheme-Background{
        color:#EFF0F1;
      }
      .ColorScheme-Accent{
        color:#3DAEE6;
      }
      .ColorScheme-ButtonText {
        color:#7B7C7E;
      }
</style>
    <g style="fill:none" id="osd-rotate-cw">
      <rect id="rect4288" height="129" width="128" x="0" y="0" style="fill:none"/>
      <path style="fill:currentColor;fill-opacity:1;fill-rule:evenodd;stroke:none" d="m -89,-34 c 0,0 1.865058,2.285346 3.023438,4.535156 C -90.483392,-24.367654 -92.9801,-17.80381 -93,-11 c 0.0031,9.1774 4.503312,17.77054 12.044922,23 l 3.861328,0 C -85.63966,7.50957 -90.994,-1.3461 -91,-11 c 0.0075,-9.6555 5.365133,-18.51166 13.914062,-23 L -89,-34 Z m 36.09375,0 c 8.54591,4.49054 13.90025,13.34619 13.90625,23 -0.0075,9.6556 -5.365133,18.5117 -13.914062,23 L -41,12 c 0,0 -1.865057,-2.2853263 -3.023438,-4.5351562 C -39.516607,2.3676737 -37.0199,-4.1961 -37,-11 c -0.0031,-9.1773 -4.503312,-17.77046 -12.044922,-23 l -3.861328,0 z m -6.625,3.761719 -22.40625,8.601562 11.46875,29.8750002 22.40625,-8.60156245 -11.46875,-29.87499975 z m -5.242188,3.083984 10.75,28.00781262 -0.933593,0.35937498 -10.75,-28.0078126 0.933593,-0.359375 z m -1.867187,0.716797 1.433594,3.734375 -14.00586,5.375 -1.43164,-3.732422 14.003906,-5.376953 z m 1.791016,4.667969 8.958984,23.3398435 -14.003906,5.375 -8.958985,-23.3378905 14.003907,-5.376953 z m 10.076171,11.21289 c 0.388977,0.01289 0.751948,0.253916 0.900391,0.6406254 0.197926,0.515617 -0.0586,1.0930906 -0.574219,1.2910156 -0.515616,0.197926 -1.095042,-0.058602 -1.292968,-0.5742188 -0.197926,-0.515616 0.06056,-1.0930892 0.576172,-1.2910152 0.128904,-0.04948 0.260966,-0.0707 0.390624,-0.06641 z m 1.433594,3.7324222 c 0.389251,0.013363 0.751946,0.2558677 0.900391,0.6425782 0.197875,0.51553 -0.05851,1.0949937 -0.574219,1.2929687 -0.51553,0.197875 -1.093091,-0.060559 -1.291016,-0.5761719 -0.197924,-0.5156169 0.05869,-1.0950937 0.574219,-1.2929687 0.128904,-0.049481 0.260875,-0.070861 0.390625,-0.066406 z m 1.433594,3.7363282 c 0.389727,0.013088 0.751947,0.2539115 0.900391,0.640625 0.197926,0.515617 -0.0586,1.0950427 -0.574219,1.2929687 -0.51548,0.19796102 -1.095045,-0.060555 -1.292969,-0.5761719 -0.197926,-0.515618 0.06056,-1.0950427 0.576172,-1.2929687 0.128904,-0.049481 0.260716,-0.068816 0.390625,-0.064453 z" transform="translate(128,64)" id="path4302" class="ColorScheme-Accent" inkscape:connector-curvature="0"/>
      <path style="color:#7b7c7e;fill:currentColor;fill-opacity:1;stroke:none" d="m -121,-44 c -1.65686,0 -3,1.3431 -3,3 l 0,66 c 0,1.6569 1.34314,3 3,3 l 49,0 0,13 -13,0 c -0.5523,0 -1,0.448 -1,1 l 0,1 c 0,0.552 0.4477,1 1,1 l 42,0 c 0.5523,0 1,-0.448 1,-1 l 0,-1 c 0,-0.552 -0.4477,-1 -1,-1 l -13,0 0,-13 49,0 c 1.657,0 3,-1.3431 3,-3 l 0,-66 c 0,-1.6569 -1.343,-3 -3,-3 l -114,0 z m 0,1 114,0 c 1.105,0 2,0.8954 2,2 l 0,66 c 0,1.1046 -0.895,2 -2,2 l -114,0 c -1.10458,0 -2,-0.8954 -2,-2 l 0,-66 c 0,-1.1046 0.89542,-2 2,-2 z m 0,2 0,64 114,0 0,-64 -114,0 z m 1,1 112,0 0,62 -112,0 0,-62 z m 49,68 14,0 0,13 -14,0 0,-13 z m -14,14 42,0 0,1 -42,0 0,-1 z" transform="translate(128,64)" id="path4292" inkscape:connector-curvature="0" class="ColorScheme-Text"/>
    </g>
</svg>
