<svg xmlns="http://www.w3.org/2000/svg" fill="none" viewBox="0 0 24 24" width="24" height="24">
  <defs>
    <style type="text/css" id="current-color-scheme">
      .ColorScheme-Text { color: #232629; }
    </style>
  </defs>
  <g transform="translate(1,1)">
    <path fill-rule="evenodd" d="M2 6.5A2.5 2.5 0 0 1 4.5 4h13A2.5 2.5 0 0 1 20 6.5v9a2.5 2.5 0 0 1-2.5 2.5h-13A2.5 2.5 0 0 1 2 15.5v-2zm17 0v7a1.5 1.5 0 0 1-1.5 1.5h-13A1.5 1.5 0 0 1 3 13.5v-7A1.5 1.5 0 0 1 4.5 5h13A1.5 1.5 0 0 1 19 6.5M4.5 16a2.49 2.49 0 0 1-1.5-.5A1.5 1.5 0 0 0 4.5 17h13a1.5 1.5 0 0 0 1.5-1.5 2.49 2.49 0 0 1-1.5.5zm6.494-10L8 9.5h1.5v4h3v-4H14z" clip-rule="evenodd" style="fill:currentColor" class="ColorScheme-Text"/>
  </g>
</svg>
