<svg xmlns="http://www.w3.org/2000/svg" width="24" height="24" fill="none" version="1.1" viewBox="0 0 24 24">
  <style id="current-color-scheme" type="text/css">.ColorScheme-Text { color: #232629; }</style>
  <g transform="translate(1,1)">
    <g class="ColorScheme-Text" transform="translate(0 -.099188)" fill="currentColor">
      <path d="m9 9c0 0.55228-0.44772 1-1 1s-1-0.44772-1-1 0.44772-1 1-1 1 0.44772 1 1z"/>
      <path d="m15 9c0 0.55228-0.4477 1-1 1s-1-0.44772-1-1 0.4477-1 1-1 1 0.44772 1 1z"/>
      <path d="m14.429 13.017c-1.5531 2.5885-5.3045 2.5885-6.8575 0l0.85749-0.5145c1.1647 1.9411 3.9778 1.9411 5.1426 0l0.8575 0.5145z" clip-rule="evenodd" fill-rule="evenodd"/>
    </g>
    <path class="ColorScheme-Text" d="m20 11a9 9 0 1 0-18 0 9 9 0 0 0 18 0m-9-8a8 8 0 1 1 0 16 8 8 0 0 1 0-16" clip-rule="evenodd" fill="currentColor" fill-rule="evenodd"/>
  </g>
</svg>
