<svg xmlns="http://www.w3.org/2000/svg" width="32" height="32"><defs><linearGradient id="A" y1="520.798" x1="393.571" y2="534.798" x2="407.571" gradientUnits="userSpaceOnUse"><stop stop-color="#383e51"/><stop offset="1" stop-color="#655c6f" stop-opacity="0"/></linearGradient><linearGradient id="B" y1="545.798" y2="517.798" x2="0" gradientUnits="userSpaceOnUse"><stop stop-color="#197cf1"/><stop offset="1" stop-color="#20bcfa"/></linearGradient><linearGradient id="C" y1="547.798" y2="519.798" x2="801.143" x1="801.143" gradientUnits="userSpaceOnUse"><stop stop-color="#42a603"/><stop offset="1" stop-color="#78da06"/></linearGradient><linearGradient id="D" x1="400.571" y1="542.798" x2="400.571" y2="517.798" gradientUnits="userSpaceOnUse"><stop stop-color="#7cbaf8"/><stop offset="1" stop-color="#f4fcff"/></linearGradient></defs><g transform="translate(-384.571 -515.798)"><path d="M386.571 519.798v19h7v7l7-7h12v-19z" fill="url(#C)"/><path d="M414.571 517.798v19h-7v7l-7-7h-12v-19z" fill="url(#B)"/><path d="M391.211 530.772l11.36 11.026h12v-15l-1-1h-1l-3-3v3h-5l-3-3v3h-5l-3-3z" opacity=".2" fill="url(#A)" fill-rule="evenodd"/><path d="M393.571 522.778l-1.207 2.59-2.793.43 2.023 2.092-.465 2.889 2.441-1.359 2.441 1.359-.465-2.889 2.023-2.092-2.793-.43zm4 3.02l2.023 2.092-.465 2.889 2.441-1.359 2.441 1.359-.465-2.889 2.023-2.092-2.793-.43-1.207-2.59-1.207 2.59zm8 0l2.023 2.092-.465 2.889 2.441-1.359 2.441 1.359-.465-2.889 2.023-2.092-2.793-.43-1.207-2.59-1.207 2.59z" fill="url(#D)"/></g></svg>
