<svg xmlns="http://www.w3.org/2000/svg" xmlns:xlink="http://www.w3.org/1999/xlink" width="48" height="48"><defs><linearGradient id="b"><stop style="stop-color:#000;stop-opacity:1" offset="0"/><stop style="stop-color:#000;stop-opacity:0" offset="1"/></linearGradient><linearGradient id="a"><stop style="stop-color:#ef4728;stop-opacity:1" offset="0"/><stop style="stop-color:#f37760;stop-opacity:1" offset="1"/></linearGradient><linearGradient xlink:href="#a" id="c" x1="759.144" y1="712.845" x2="727.197" y2="705.482" gradientUnits="userSpaceOnUse" gradientTransform="rotate(45 1212.372 -502.181)"/><linearGradient xlink:href="#b" id="d" x1="21.974" y1="13.094" x2="39.379" y2="30.499" gradientUnits="userSpaceOnUse" gradientTransform="translate(-1 6)"/><linearGradient xlink:href="#b" id="e" x1="21.949" y1="22.741" x2="34.498" y2="35.291" gradientUnits="userSpaceOnUse" gradientTransform="translate(-1 6)"/></defs><path d="m27.288 5.366 15.346 15.346a4.64 4.64 0 0 1 0 6.576L27.288 42.634a4.64 4.64 0 0 1-6.576 0L5.366 27.288a4.64 4.64 0 0 1 0-6.576L20.712 5.366a4.64 4.64 0 0 1 6.576 0z" style="opacity:1;fill:url(#c);fill-opacity:1;stroke:none;stroke-width:2;stroke-linecap:round;stroke-linejoin:round;stroke-miterlimit:4;stroke-dasharray:none;stroke-opacity:1"/><path d="m17 15 13 12M23 31V21" style="opacity:.5;fill:none;stroke:#fff;stroke-width:2;stroke-linecap:butt;stroke-linejoin:miter;stroke-miterlimit:4;stroke-dasharray:none;stroke-opacity:1"/><path d="m24.975 18.723-4.246 4.246L36.34 38.582l.496-.496 3.752-3.752.496-.496-9.06-9.06-.496.495z" style="opacity:.2;fill:url(#d);fill-opacity:1;stroke:none;stroke-width:2;stroke-linecap:round;stroke-linejoin:round;stroke-miterlimit:4;stroke-dasharray:none;stroke-opacity:1"/><path d="m25.033 28.773-4.248 4.248 10.559 10.557 4.246-4.246z" style="opacity:.2;fill:url(#e);fill-opacity:1;stroke:none;stroke-width:2;stroke-linecap:round;stroke-linejoin:round;stroke-miterlimit:4;stroke-dasharray:none;stroke-opacity:1"/><path d="M4.049 23.5a4.618 4.618 0 0 0 1.318 3.79l15.344 15.343a4.642 4.642 0 0 0 6.578 0l15.344-15.344A4.618 4.618 0 0 0 43.95 23.5a4.614 4.614 0 0 1-1.318 2.79L27.289 41.632a4.642 4.642 0 0 1-6.578 0L5.367 26.289A4.614 4.614 0 0 1 4.05 23.5z" style="opacity:.15;fill:#000;fill-opacity:1;stroke:none;stroke-width:2;stroke-linecap:round;stroke-linejoin:round;stroke-miterlimit:4;stroke-dasharray:none;stroke-opacity:1"/><circle r="3" cy="21" cx="23" style="opacity:1;fill:#fff;fill-opacity:1;stroke:none;stroke-width:2;stroke-linecap:round;stroke-linejoin:round;stroke-miterlimit:4;stroke-dasharray:none;stroke-opacity:1"/><circle style="opacity:1;fill:#fff;fill-opacity:1;stroke:none;stroke-width:2;stroke-linecap:round;stroke-linejoin:round;stroke-miterlimit:4;stroke-dasharray:none;stroke-opacity:1" cx="30" cy="27" r="3"/><circle style="opacity:1;fill:#fff;fill-opacity:1;stroke:none;stroke-width:2;stroke-linecap:round;stroke-linejoin:round;stroke-miterlimit:4;stroke-dasharray:none;stroke-opacity:1" cx="23" cy="31" r="3"/></svg>