<svg xmlns="http://www.w3.org/2000/svg" id="svg8" version="1.1" viewBox="0 0 24 24" width="24" height="24">
  <defs id="defs2">
    <style type="text/css" id="current-color-scheme">
        .ColorScheme-Text {            color:#232629;        }
    </style>
  </defs>
  <g transform="translate(1,1)">
    <path id="path7932" d="m15 2.9980469s-2.55643-0.058216-3.511719 1.8945312c-0.283261 0.5790332-0.48447 1.3317375-0.449219 2.1425781 0.03525 0.8108411 0.323336 1.6842383 1.017579 2.4023438 0.527429 0.5455638 0.756967 1.067242 0.861328 1.447266 0.104361 0.38002 0.083984 0.574218 0.083984 0.574218a0.5 0.5 0 0 0 0.001953 0.013672 0.5 0.5 0 0 0-0.003906 0.027344v1 2a0.5 0.5 0 0 0 0.146484 0.353516l1 1a0.50005 0.50005 0 0 0 0.353516 0.146484h1a0.50005 0.50005 0 0 0 0.353516-0.146484l1-1.001954a0.5 0.5 0 0 0 0.146484-0.353515v-1.998047-1.001953a0.5 0.5 0 0 0-0.001953-0.037109s1.82e-4 -0.009299 0-0.011719a0.5 0.5 0 0 0 0-0.001953 0.5 0.5 0 0 0 0-0.001954 0.5 0.5 0 0 0 0-0.001953c-0.0025-0.0407-0.008096-0.223451 0.083984-0.558593 0.104361-0.380024 0.333899-0.899749 0.861328-1.4453129 0.694298-0.7180635 0.982325-1.5934558 1.017579-2.4042969 0.035251-0.8108406-0.165958-1.5635449-0.449219-2.1425781-0.886141-1.8113988-3.12417-1.8886303-3.447266-1.890625a0.5 0.5 0 0 0-0.064453-0.0039062zm-0.007812 1a0.5 0.5 0 0 0 0.007812 0.0019531s1.991423 0.0608616 2.613281 1.3320312c0.212268 0.4339053 0.374323 1.046785 0.347657 1.6601563-0.02667 0.6133713-0.22558 1.2216285-0.738282 1.7519531-0.649943 0.6722892-0.962672 1.3550084-1.105468 1.8750004-0.11899 0.43329-0.120262 0.768404-0.117188 0.873047a0.5 0.5 0 0 0 0 0.005859v0.501953h-2v-0.5a0.5 0.5 0 0 0 0-0.001953 0.5 0.5 0 0 0 0-0.001953 0.5 0.5 0 0 0 0-0.001953 0.5 0.5 0 0 0 0-0.001953 0.5 0.5 0 0 0 0-0.001954 0.5 0.5 0 0 0 0-0.001953 0.5 0.5 0 0 0 0-0.001953c0.0027-0.11388-0.0012-0.444721-0.117188-0.867187-0.142792-0.519994-0.455525-1.2046646-1.105468-1.8769535-0.512702-0.5303249-0.711614-1.1385818-0.738282-1.7519531-0.026666-0.6133713 0.135389-1.2242979 0.347657-1.6582032 0.614824-1.256791 2.561353-1.3324346 2.605469-1.3339843zm-4.3125 0.0058593a7.5 7.5 0 0 0-0.50586 0.0039063 7.5 7.5 0 0 0-7.1660155 7.8183595 7.5 7.5 0 0 0 7.8183595 7.166016 7.5 7.5 0 0 0 4.443359-1.730469 7.5 7.5 0 0 1-7.332031-7.150391 7.5 7.5 0 0 1 2.742188-6.1074218zm-2.5722661 1.4667969a8.5 8.5 0 0 0-1.1699219 4.6835939 8.5 8.5 0 0 0 5.445312 7.554687 6.5 6.5 0 0 1-1.599609 0.285157 6.5 6.5 0 0 1-6.7773436-6.210938 6.5 6.5 0 0 1 4.1015625-6.3124999zm5.8925781 7.5292969h2v1h-2v-1z" class="ColorScheme-Text" fill="currentColor" stroke-linecap="round" stroke-linejoin="round" style="-inkscape-stroke:none;paint-order:markers fill stroke"/>
  </g>
</svg>
