<svg xmlns="http://www.w3.org/2000/svg" id="svg8" version="1.1" viewBox="0 0 24 24" width="24" height="24">
  <defs id="defs2">
    <style type="text/css" id="current-color-scheme">
        .ColorScheme-Text {            color:#232629;        }
    </style>
  </defs>
  <g transform="translate(1,1)">
    <path id="path5750-5-2-7-2" d="m15 3s-2.55643-0.060169-3.511719 1.8925781c-0.283261 0.5790332-0.48447 1.3317375-0.449219 2.1425781 0.03525 0.8108411 0.323336 1.6861915 1.017579 2.4042969 0.527429 0.545564 0.756967 1.0652879 0.861328 1.4453129 0.104361 0.38002 0.083984 0.576171 0.083984 0.576172a0.5 0.5 0 0 0 0.001953 0.013671 0.5 0.5 0 0 0-0.003906 0.025391v1 2a0.5 0.5 0 0 0 0.146484 0.353516l1 1a0.50005 0.50005 0 0 0 0.353516 0.146484h1a0.50005 0.50005 0 0 0 0.353516-0.146484l1-1a0.5 0.5 0 0 0 0.146484-0.353516v-2-1a0.5 0.5 0 0 0-0.001953-0.039062s1.34e-4 -0.008066 0-0.009766a0.5 0.5 0 0 0 0-0.001953 0.5 0.5 0 0 0 0-0.001953c-0.0023-0.03263-0.010786-0.217385 0.083984-0.5625 0.104361-0.380025 0.333899-0.8997489 0.861328-1.4453129 0.694298-0.7180794 0.982325-1.5934558 1.017579-2.4042969 0.035251-0.8108406-0.165958-1.5635449-0.449219-2.1425781-0.955289-1.9527475-3.511719-1.8925781-3.511719-1.8925781zm-7.6992188 0.2851562-0.5 3.421875a6 6 0 0 1 3.4804688-1.6621093l-2.9804688-1.7597657zm7.6992188 0.7148438s1.991424 0.0608629 2.613281 1.3320312c0.212268 0.4339049 0.374322 1.0467856 0.347657 1.6601563-0.02667 0.6133707-0.22558 1.2216292-0.738282 1.7519531-0.649942 0.6722887-0.962673 1.3569614-1.105468 1.8769534-0.11899 0.43329-0.120262 0.768404-0.117188 0.873047a0.5 0.5 0 0 0 0 0.005859v0.5h-2v-0.5a0.5 0.5 0 0 0 0-0.001953 0.5 0.5 0 0 0 0-0.001953 0.5 0.5 0 0 0 0-0.001953 0.5 0.5 0 0 0 0-0.001953 0.5 0.5 0 0 0 0-0.001954 0.5 0.5 0 0 0 0-0.001953 0.5 0.5 0 0 0 0-0.001953c0.0027-0.11388-0.0012-0.444722-0.117188-0.867187-0.142791-0.519994-0.455526-1.2027117-1.105468-1.8750004-0.512702-0.5303239-0.711614-1.1385824-0.738282-1.7519531-0.026665-0.6133707 0.135389-1.2262514 0.347657-1.6601563 0.621857-1.271168 2.613281-1.3320312 2.613281-1.3320312zm-8.3867188 2.8925781-3.4042968 0.5644531 1.8203125 2.9492188a6 6 0 0 1 1.5839843-3.5136719zm3.3886718 0.2402344c-1.7222284 0.4454633-3.001953 2.008911-3.001953 3.8671875 0 2.2032 1.7968012 4 4 4 0.34562 0 0.680261-0.044936 1-0.128906v-1.019532l-0.007812-0.023437c-0.310789 0.108468-0.643247 0.171875-0.992188 0.171875-1.6627627 0-3-1.337239-3-3 0-1.3711101 0.9107779-2.5163305 2.162109-2.8769531-0.095053-0.3146088-0.144791-0.6329086-0.158203-0.9414063-7.15e-4 -0.01646-0.001353-0.0324161-0.001953-0.0488281zm-5.0058592 3.5351565-2.2382813 2.615234 3.2929687 1.091797a6 6 0 0 1-1.0410156-2.859375 6 6 0 0 1-0.0136718-0.847656zm9.0039062 2.332031h2v1h-2v-1zm-7.8105469 1.585938-0.0351562 3.451171 3.2246093-1.28125a6 6 0 0 1-3.1894531-2.169921zm7.2695309 1.857421a6 6 0 0 1-1.949218 0.525391 6 6 0 0 1-1.8925785-0.144531l2.1953125 2.671875 1.646484-3.052735z" class="ColorScheme-Text" fill="currentColor" stroke-linecap="round" stroke-linejoin="round" style="-inkscape-stroke:none;paint-order:markers fill stroke"/>
  </g>
</svg>
