<svg xmlns="http://www.w3.org/2000/svg" id="svg8" version="1.1" viewBox="0 0 24 24" width="24" height="24">
  <defs id="defs2">
    <style type="text/css" id="current-color-scheme">
        .ColorScheme-Text {            color:#232629;        }
        .ColorScheme-NegativeText {            color:#da4453;        }
    </style>
  </defs>
  <g transform="translate(1,1)">
    <path id="path3454" d="m10.890625 3c-0.5128 0.0129-2.6475852 0.1660545-3.9824219 1.7773438-0.0015 0.0017999-0.0024062 0.0040493-0.0039062 0.0058593l0.7148437 0.7148438c0.020225-0.0267989 0.0374319-0.0564866 0.0585938-0.0820313 1.1537829-1.3927381 3.3183596-1.4160156 3.3183596-1.4160156a0.5 0.5 0 0 0 0.003906 0 0.5 0.5 0 0 0 0.003906 0s2.164577 0.0232794 3.31836 1.4160156c0.486171 0.5868642 0.726418 1.5112641 0.660156 2.4726563-0.06626 0.9613916-0.435408 1.9407003-1.060547 2.6250001-0.220404 0.241261-0.410353 0.474525-0.583984 0.703125l0.71289 0.712891c0.17352-0.236028 0.373545-0.48404 0.609375-0.742188 0.808129-0.884604 1.24004-2.0657905 1.320313-3.2304688 0.080279-1.1646777-0.187086-2.332796-0.888672-3.1796874-1.512377-1.8255963-4.044226-1.7782949-4.087891-1.7773438 0 0-0.007412 8.3e-6 -0.007812 0-0.0051-1.117e-4 -0.03726-0.00172-0.105469 0zm-4.8496094 5.1621094c0.1144332 1.0972603 0.538038 2.1926056 1.2988282 3.0253906 0.961861 1.052885 1.3654424 1.935288 1.5371093 2.537109 0.1155065 0.404939 0.1281973 0.647009 0.125 0.769532a0.5 0.5 0 0 0-0.0019531 0.005859v0.060547c-0.0016 0.01459-0.0039062 0.033203-0.0039062 0.033203a0.5 0.5 0 0 0 0.0039062 0.078125v0.328125 1 1.5a0.5 0.5 0 0 0 0.1464844 0.353516l0.9999996 1a0.50005 0.50005 0 0 0 0.353516 0.146484h1a0.50005 0.50005 0 0 0 0.353516-0.146484l1-1.001954a0.5 0.5 0 0 0 0.080078-0.103515 0.5 0.5 0 0 0 0.048828-0.121094 0.5 0.5 0 0 0 0.017578-0.128906v-1.498047-0.878906l-0.972656-0.972656c-0.01255 0.121048-0.020055 0.231355-0.021485 0.318359a0.5 0.5 0 0 0-0.005859 0.033203v0.5h-2v-0.5a0.5 0.5 0 0 0-0.0058594-0.072266 0.5 0.5 0 0 0-0.0019531-0.013672c-0.007566-0.229618-0.0402751-0.565113-0.1542969-0.964843-0.2149617-0.753602-0.7034231-1.779239-1.7597656-2.935547-0.2477932-0.271243-0.4547112-0.5891401-0.6191406-0.9335939l-1.4179688-1.4179687zm3.9589844 7.8378906h2v1h-2v-1z" class="ColorScheme-Text" fill="currentColor" stroke-linecap="square" stroke-linejoin="round" style="-inkscape-stroke:none;paint-order:markers fill stroke"/>
    <path id="path4250" d="M 3.7070312 3 L 3 3.7070312 L 3.3535156 4.0605469 L 18.292969 19 L 19 18.292969 L 4.0605469 3.3535156 L 3.7070312 3 z " class="ColorScheme-NegativeText" fill="currentColor" stroke-linecap="square" style="-inkscape-stroke:none;paint-order:markers stroke fill"/>
  </g>
</svg>
