<svg id="svg15" version="1.1" viewBox="0 0 32 32" xmlns="http://www.w3.org/2000/svg">
    <style type="text/css" id="current-color-scheme">
        .ColorScheme-Text {            color:#232629;        }
    </style>
    <path id="rect908" d="m12.998047 3.2929688-9.7050782 9.7050782 15.708984 15.708984 9.705078-9.705078-15.708984-15.708984zm0 1.4140624 14.294922 14.294922-8.291016 8.291016-14.294922-14.294922 8.2910158-8.2910158zm4.212891 0.3085938a11 11 0 0 0-0.994141 0.0800781l0.9375 0.9375a10 10 0 0 1 7.480469 2.875 10 10 0 0 1 1.554687 2.0917969h-3.189453v1h5v-1-4h-1v3.371094a11 11 0 0 0-1.658203-2.1699221 11 11 0 0 0-8.130859-3.1855469zm-13.210938 14.984375v1 4h1v-3.371094a11 11 0 0 0 1.6582031 2.169922 11 11 0 0 0 9.1249999 3.105469l-0.9375-0.9375a10 10 0 0 1-7.4804686-2.875 10 10 0 0 1-1.5546875-2.091797h3.1894531v-1h-5z" class="ColorScheme-Text" fill="currentColor" stroke-linecap="square" style="paint-order:markers fill stroke"/>
</svg>
