<svg version="1.1" viewBox="0 0 16.000002 15.999996" xmlns="http://www.w3.org/2000/svg">
    <defs>
        <style id="current-color-scheme" type="text/css">.ColorScheme-Text {
      color:#31363b;
      stop-color:#31363b;
      }
      .ColorScheme-Background {
      color:#eff0f1;
      stop-color:#eff0f1;
      }</style>
    </defs>
    <g transform="matrix(3.7795277,0,0,3.7795277,-105.29297,-978.51947)">
        <g id="showbackground">
            <rect class="ColorScheme-Background" x="28.574997" y="259.69373" width="2.6458342" height="2.6458437" ry=".12427091" fill="currentColor" opacity=".8"/>
            <rect x="27.858765" y="258.89993" width="4.2333336" height="4.2333322" fill="none"/>
            <path class="ColorScheme-Text" transform="matrix(.26458332 0 0 .26458332 -.5291667 249.37493)" d="m110 38c-0.55407 0-1 0.445928-1 1v10c0 0.554072 0.44593 1 1 1h10c0.55407 0 1-0.445928 1-1v-10c0-0.554072-0.44593-1-1-1zm0.46875 1h9.0625c0.26021 0 0.46875 0.210497 0.46875 0.470703v9.060547c0 0.260206-0.20854 0.46875-0.46875 0.46875h-9.0625c-0.26021 0-0.46875-0.208544-0.46875-0.46875v-9.060547c0-0.260206 0.20854-0.470703 0.46875-0.470703z" fill="currentColor" opacity=".4"/>
            <g transform="scale(.92487808 1.0812236)" stroke-width=".264583px" aria-label="a">
                <path class="ColorScheme-Text" d="m32.390856 240.67151c0.173043 0 0.30106 0.038 0.38405 0.11389 0.08299 0.0759 0.124486 0.19688 0.124486 0.36286v0.99379h-0.169512l-0.04503-0.22834h-0.01059c-0.0618 0.0777-0.127133 0.13508-0.195998 0.17216-0.06886 0.0371-0.162449 0.0556-0.280754 0.0556-0.1289 0-0.235727-0.0335-0.320483-0.10065-0.08476-0.0689-0.122393-0.17569-0.122393-0.32048 0-0.14126 0.05088-0.28618 0.162122-0.3621 0.111242-0.0777 0.282519-0.11816 0.513833-0.12522l0.241024-8e-3v-0.0504c0-0.11831-0.0256-0.20042-0.07681-0.24633-0.05121-0.0459-0.123603-0.0689-0.217187-0.0689-0.07416 0-0.144791 0.0115-0.211889 0.0344-0.0671 0.0212-0.129783 0.0459-0.188052 0.0742l-0.07151-0.17481c0.0618-0.0335 0.135078-0.0618 0.219835-0.0848 0.08476-0.0247 0.173043-0.0371 0.264862-0.0371zm0.278106 0.73618-0.209242 8e-3c-0.176575 7e-3 -0.299294 0.0334-0.368158 0.0829-0.0671 0.0495-0.100647 0.1345-0.100647 0.22453 0 0.0795 0.02384 0.13773 0.07151 0.17481 0.04944 0.0371 0.112124 0.0556 0.188052 0.0556 0.118305 0 0.217187-0.0327 0.296646-0.098 0.08122-0.0671 0.121837-0.16951 0.121837-0.30724z" fill="currentColor"/>
            </g>
        </g>
    </g>
</svg>
