<svg version="1.1" viewBox="0 0 32 32" xmlns="http://www.w3.org/2000/svg">
    <defs>
        <style id="current-color-scheme" type="text/css">.ColorScheme-Text { color:#232629; }</style>
    </defs>
    <path class="ColorScheme-Text" d="m16 4c-6.6274104 0-12 5.3725896-12 12 0.010147 0.334195 0.0342557 0.667819 0.0722656 1h1.0058594c-0.0412337-0.331972-0.0673025-0.665652-0.078125-1 0-6.0751261 4.9248739-11 11-11 3.708298 0.012132 7.160895 1.891896 9.183594 5h-4.183594v1h6v-6h-1v4.3886719c-2.218243-3.3600889-5.973739-5.3838027-10-5.3886719zm6 10-6 6.222656h3v7.777344h6v-7.777344h3l-6-6.222656zm-17 7v6h1v-4.384766c2.0308343 3.052809 5.345933 5.009639 9 5.3125v-1.001953c-3.335609-0.310128-6.3481071-2.12338-8.1835938-4.925781h4.1835938v-1h-5.9082031-0.0917969z" fill="currentColor"/>
</svg>
