<svg xmlns="http://www.w3.org/2000/svg" fill="none" version="1.1" viewBox="0 0 24 24" width="24" height="24">
  <defs>
    <style id="current-color-scheme" type="text/css">
          .ColorScheme-Text { color: #232629; }
        </style>
  </defs>
  <g transform="translate(1,1)">
    <path class="ColorScheme-Text" d="M11 3a4 4 0 0 1 4 4v4h2v8H5v-8h2V7a4 4 0 0 1 4-4m3 4v4H8V7a3 3 0 0 1 6 0m.802 5.198a.675.675 0 0 1 0 .954l-.154.116-2.362 1.769H15V16h-3.325a.675.675 0 0 1-.477-1.152l.154-.116 2.362-1.77H11V12h3.325a.67.67 0 0 1 .477.198m-4 2a.675.675 0 0 1 0 .954l-.154.116-2.362 1.77H11V18H7.675a.675.675 0 0 1-.477-1.152l.154-.116 2.362-1.769H7V14h3.325a.67.67 0 0 1 .477.198" clip-rule="evenodd" fill-rule="evenodd" style="fill:currentColor"/>
  </g>
</svg>
