<svg version="1.1" viewBox="0 0 32 32" xmlns="http://www.w3.org/2000/svg">
    <defs>
        <style id="current-color-scheme" type="text/css">.ColorScheme-Text {
        color:#232629;
      }</style>
    </defs>
    <path class="ColorScheme-Text" d="m15 4v0.0507812 1.0039063 7.9453125h2v-7.9492188-1.0039062-0.046875h-1-1zm3 0.1699219v1.0214843c4.10348 0.7679032 7.418626 3.7925395 8.558594 7.8085938h1.039062c-1.181016-4.5766708-4.938623-8.0337611-9.597656-8.8300781zm-4 0.0117187c-5.7685916 0.9750656-9.9932711 5.9679444-10 11.818359 0.0158451 6.227999 4.7936414 11.408753 11 11.927734v-1.005859c-5.6516794-0.5159-9.9831909-5.246724-10-10.921875 0.0029434-5.301475 3.7868885-9.846643 9-10.810547v-1.0078125zm8 9.8183594-6 6.222656h3v7.777344h6v-7.777344h3l-6-6.222656z" fill="currentColor"/>
</svg>
