<svg xmlns="http://www.w3.org/2000/svg" id="svg7" version="1.1" viewBox="0 0 24 24" width="24" height="24">
  <defs id="defs3">
    <style type="text/css" id="current-color-scheme">
        .ColorScheme-Text {            color:#232629;        }
    </style>
  </defs>
  <g transform="translate(1,1)">
    <path id="path842" d="m11 3a8 8 0 0 0-8 8h1a7 7 0 0 1 7-7 7 7 0 0 1 7 7 7 7 0 0 1-7 7 7 7 0 0 1-6.3105469-4h2.3105469v-1h-2.6972656-1.0332032-0.2695312v1 3h1v-2.195312a8 8 0 0 0 7 4.195312 8 8 0 0 0 8-8 8 8 0 0 0-8-8zm0 3-4 4h2v5h4v-5h2l-4-4z" class="ColorScheme-Text" fill="currentColor" stroke-linecap="round" style="paint-order:markers fill stroke"/>
  </g>
</svg>
