<svg xmlns="http://www.w3.org/2000/svg" viewBox="0 0 24 24" width="24" height="24">
  <defs>
    <style id="current-color-scheme" type="text/css">
      .ColorScheme-Text {
        color:#232629;
      }
      .ColorScheme-Accent {
        color:#3daee9;
      }
    </style>
  </defs>
  <g transform="translate(1,1)">
    <path class="ColorScheme-Text" style="fill:currentColor" d="m17.268 4.1992c-0.82205 0.0147-1.5875 0.34034-5.1738 1.832-1.2632 0.52541-3.7689 1.6078-7.498 3.2324l-0.0058593 0.0019531-0.0019532 0.0019531c-0.0144 6e-3 -0.014797 0.0050188-0.029297 0.011719h0.0058593c-0.34073 0.13685-0.6345 0.2752-0.90039 0.47266-0.27344 0.20307-0.59072 0.5085-0.65625 1.0312-0.0442 0.35219 0.087795 0.78214 0.29688 1.0391 0.20904 0.25693 0.43187 0.38212 0.63086 0.47852 0.39798 0.19278 0.76956 0.28117 1.1484 0.4043 0.69094 0.22461 1.4963 0.50618 2.291 0.52344 0.65397 0.0141 1.2549-0.266 1.834-0.63867-0.11036 0.36111-0.15244 0.83261 0.039062 1.1992 0.21638 0.4144 0.53879 0.68124 0.93359 0.94141 0.70504 0.4646 1.2297 0.82648 1.8203 1.2266 0.004081-0.37969 0.061636-0.74756 0.16602-1.0957-0.44363-0.30234-0.8821-0.60079-1.4375-0.9668-1.2728-0.83875-0.44607-1.2993 0.2793-2.0527 0.18983-0.19717 3.4869-3.1985 3.5508-3.4707 8e-3 -0.034 0.014853-0.16151-0.060547-0.22852-0.0754-0.067-0.18534-0.043591-0.26562-0.025391-0.11379 0.0258-1.9262 1.2254-5.4375 3.5957-0.5145 0.35329-0.98287 0.52464-1.4004 0.51562-0.4603-0.01-1.3457-0.26064-2.0039-0.47461-0.80733-0.26243-1.4484-0.40001-1.3926-0.8457 0.0291-0.23215 0.34872-0.4702 0.95898-0.71289 3.7582-1.6374 6.2656-2.7187 7.5195-3.2402 3.5801-1.4891 4.3237-1.7473 4.8086-1.7559 0.10664-2e-3 0.34555 0.025091 0.5 0.15039 0.13042 0.10582 0.16642 0.24733 0.18359 0.34766 0.0172 0.10035 0.038484 0.32922 0.021485 0.50781-0.12333 1.2958-0.50748 3.7402-0.88086 5.9551 0.33504 0.097836 0.65217 0.23672 0.94531 0.41406 0.38653-2.2736 0.79448-4.8528 0.92969-6.2734 0.0321-0.33717 0.00495-0.5574-0.03125-0.77148-0.0296-0.17305-0.13619-0.63012-0.53906-0.95703-0.49099-0.39826-0.84596-0.37873-1.1465-0.37305h-0.001953z"/>
    <path class="ColorScheme-Accent" style="fill:currentColor" d="m16 13a3 3 0 0 0-3 3 3 3 0 0 0 3 3 3 3 0 0 0 3-3 3 3 0 0 0-3-3z"/>
  </g>
</svg>
