<svg width="64" height="64" version="1.1" viewBox="0 0 64 64" xml:space="preserve" xmlns="http://www.w3.org/2000/svg"><linearGradient id="a" x2="0" y1="3" y2="61" gradientTransform="matrix(1 0 0 -1 0 64)" gradientUnits="userSpaceOnUse"><stop stop-color="#f3d400" offset="0"/><stop stop-color="#f3cd00" offset="1"/></linearGradient><linearGradient id="b" x2="0" y1="61" y2="47" gradientTransform="matrix(1 0 0 -1 0 64)" gradientUnits="userSpaceOnUse"><stop stop-color="#fcfda3" offset="0"/><stop stop-color="#fdf4a7" offset="1"/></linearGradient><linearGradient id="c" x1="40" x2="54" y1="17" y2="31" gradientUnits="userSpaceOnUse"><stop stop-color="#383e51" offset="0"/><stop stop-color="#655c6f" stop-opacity="0" offset="1"/></linearGradient><path d="m10 61v-58h30l14 14v44h-14z" fill="url(#a)"/><g transform="scale(1 -1)"><path d="m10-4h30v1h-30z" fill="#fff" fill-opacity=".412"/><path d="m10-61h44v1h-44z" fill="#2e3132" fill-opacity=".294"/></g><g fill-rule="evenodd"><path d="m54 17-14-14v14z" fill="url(#b)"/><path d="m40 17 14 14v-14z" fill="url(#c)" opacity=".2"/></g><path d="m30 22c-1.662 0-3 1.338-3 3v2h5v1h-7c-2.216 0-4 1.784-4 4v2c0 2.216 1.784 4 4 4v-2c0-1.841 1.238-3.369 2.926-3.838 0.147-0.041 0.297-0.072 0.449-0.1 0.205-0.032 0.411-0.062 0.625-0.062h7.225c0.477-0.531 0.775-1.227 0.775-2v-5c0-1.662-1.338-3-3-3zm-1 2c0.554 0 1 0.446 1 1s-0.446 1-1 1-1-0.446-1-1 0.446-1 1-1m10 4v2c0 1.841-1.238 3.369-2.926 3.838-0.147 0.041-0.297 0.072-0.449 0.1-0.205 0.032-0.411 0.062-0.625 0.062h-7.225c-0.477 0.531-0.775 1.227-0.775 2v5c0 1.662 1.338 3 3 3h4c1.662 0 3-1.338 3-3v-2h-5v-1h7c2.216 0 4-1.784 4-4v-2c0-2.216-1.784-4-4-4m-4 12c0.554 0 1 0.446 1 1s-0.446 1-1 1-1-0.446-1-1 0.446-1 1-1" display="none" fill="#fdf5a7"/><g transform="matrix(1.019 0 0 1.019 15.695 15.696)" fill="#fff39f"><path d="m16.111 6.405s-1.073 0.847-2.167 1.69a15.361 15.361 0 0 0-4.527 0.651c-1.1-0.7-2.07-1.469-2.07-1.469s-0.827 1.423-1.347 2.258a11.382 11.382 0 0 0-2.236 1.482c-0.803-0.317-1.734-0.707-1.764-0.717 1.063 2.145 1.778 4.292 3.722 5.583 3.1-4.889 17.48-4.439 20.639-0.028 2.039-1.068 2.839-3.355 3.639-5.475-0.088 0.029-1.181 0.395-1.889 0.665a11.489 11.489 0 0 0-1.986-1.51c-0.537-0.984-1.319-2.313-1.319-2.313s-0.927 0.689-2 1.44a21.265 21.265 0 0 0-4.681-0.512c-1-0.826-2.014-1.746-2.014-1.746z"/><path d="m3.1 14.854 2.554 6.185c4.435 5.85 15.759 6.257 20.7 0.113 1.168-2.633 2.745-6.333 2.745-6.333a13.379 13.379 0 0 1-4.6 3.869 12.217 12.217 0 0 1-2.983 0.793l-5.465-2.832-5.5 2.775a15.679 15.679 0 0 1-2.983-0.764 14.076 14.076 0 0 1-4.468-3.806z"/></g></svg>
