<svg xmlns="http://www.w3.org/2000/svg" viewBox="0 0 16 16">
  <defs id="defs3051">
    <style type="text/css" id="current-color-scheme">
      .ColorScheme-Text {
        color:#232629;
      }
      </style>
  </defs>
    <path
       style="fill:currentColor;fill-opacity:1;stroke:none" 
       d="M 5.8300781 3.0292969 L 5.8300781 4.1191406 L 2.0117188 4.1191406 L 2.0117188 5.2050781 L 8.1074219 5.2050781 C 7.7414219 6.2580781 7.1629531 7.2578594 6.3769531 8.1308594 C 5.8699531 7.5688594 5.4491875 6.9517344 5.1171875 6.3027344 L 4.0253906 6.3027344 C 4.4233906 7.1917344 4.9703438 8.0330156 5.6523438 8.7910156 L 2.875 11.529297 L 3.6503906 12.304688 L 6.3789062 9.5761719 L 8.0742188 11.273438 L 8.4882812 10.160156 L 7.1015625 8.7890625 L 7.1171875 8.7734375 C 8.0661875 7.7144375 8.7445781 6.4989375 9.1425781 5.2109375 L 10.740234 5.2109375 L 10.740234 4.1191406 L 6.921875 4.1191406 L 6.921875 3.0292969 L 5.8300781 3.0292969 z M 10.46875 7.3945312 L 8.0136719 13.941406 L 9.1054688 13.941406 L 9.7167969 12.304688 L 12.308594 12.304688 L 12.925781 13.941406 L 14.015625 13.941406 L 11.560547 7.3945312 L 10.46875 7.3945312 z M 11.013672 8.8515625 L 11.898438 11.212891 L 10.130859 11.212891 L 11.013672 8.8515625 z "
       class="ColorScheme-Text"/>
</svg>
