<svg xmlns="http://www.w3.org/2000/svg" id="svg1" version="1.1" viewBox="0 0 24 24" width="24" height="24">
  <style id="current-color-scheme" type="text/css">.ColorScheme-Text { color:#31363b }</style>
  <g transform="translate(1,1)">
    <g id="flightmode-on" transform="translate(45 1.33227e-15)">
      <rect id="rect4528" x="-45" y="-1.3322676e-15" width="22" height="22" fill="none"/>
      <path id="path4467" class="ColorScheme-Text" transform="translate(21)" d="m-55 3s-1 0-1 3v2.5l-1.099609 0.5507812v-0.0507812h-0.800782v0.3007812h-0.099609v0.1992188l-2 1v-0.5h-0.09961v-0.3007812h-0.800782v0.3007812h-0.099608v1l-2 1v1l2.191406-0.273438 0.109375 0.273438h0.148438l0.392578-0.355469 2.751953-0.34375h0.105469l0.0059-0.01367 1.294881-0.162111v2.875c0 0.487991 0.24052 0.971967 0.484375 1.34375l-2.484375 1.65625v1l3-1 3 1v-1l-2.484375-1.65625c0.243855-0.371783 0.484375-0.855759 0.484375-1.34375v-2.875l1.294922 0.162109 0.0059 0.01367h0.105469l2.751953 0.34375 0.142537 0.355471h0.398438l0.109375-0.273438 2.191406 0.273438v-1l-2-1v-1h-0.09961v-0.3007812h-0.800782v0.3007812h-0.099608v0.5l-2-1v-0.1992188h-0.09961v-0.3007812h-0.800782v0.050781l-1.099608-0.550781v-2.5c0-3-1-3-1-3z" fill="currentColor" fill-rule="evenodd"/>
    </g>
  </g>
</svg>
