<svg xmlns="http://www.w3.org/2000/svg" id="svg7" version="1.1" viewBox="0 0 24 24" width="24" height="24">
  <defs id="defs3">
    <style type="text/css" id="current-color-scheme">
            .ColorScheme-Text {            color:#232629;        }
            .ColorScheme-NeutralText {            color:#f67400;        }
        </style>
  </defs>
  <g transform="translate(1,1)">
    <path id="path787" d="m11 3a8 8 0 0 0-8 8h1a7 7 0 0 1 7-7 7 7 0 0 1 7 7 7 7 0 0 1-0.169922 1.445312 4 4 0 0 1 0.886719 0.621094 8 8 0 0 0 0.283203-2.066406 8 8 0 0 0-8-8zm0 3-4 4h2v5h3.134766a4 4 0 0 1 0.865234-1.642578v-3.357422h2l-4-4zm-8 7v1 3h1v-2.195312a8 8 0 0 0 7 4.195312 8 8 0 0 0 2.072266-0.285156 4 4 0 0 1-0.619141-0.886719 7 7 0 0 1-1.453125 0.171875 7 7 0 0 1-6.3105469-4h2.3105469v-1h-2.6972656-1.0332032-0.2695312z" class="ColorScheme-Text" fill="currentColor" stroke-linecap="round" style="paint-order:markers fill stroke"/>
    <path id="path1701" d="m19 16a3 3 0 0 1-3 3 3 3 0 0 1-3-3 3 3 0 0 1 3-3 3 3 0 0 1 3 3z" class="ColorScheme-NeutralText" fill="currentColor" stroke-linecap="round" style="paint-order:markers fill stroke"/>
  </g>
</svg>
