<svg xmlns="http://www.w3.org/2000/svg" viewBox="0 0 24 24" width="24" height="24">
  <style type="text/css" id="current-color-scheme">
        .ColorScheme-Accent {
            color:#3daee9;
        }
        .ColorScheme-Text {
            color:#232629;
        }
    </style>
  <g transform="translate(1,1)">
    <path d="M11 0A11 11 0 0 0 0 11a11 11 0 0 0 11 11 11 11 0 0 0 11-11A11 11 0 0 0 11 0z" style="fill:currentColor;fill-opacity:1;stroke:none" class="ColorScheme-Accent"/>
    <path d="M10 3v7H3v2h7v7h2v-7h7v-2h-7V3z" fill="#fff"/>
    <path d="M11 0A11 11 0 0 0 0 11a11 11 0 0 0 11 11 11 11 0 0 0 11-11A11 11 0 0 0 11 0zm0 1a10 10 0 0 1 10 10 10 10 0 0 1-10 10A10 10 0 0 1 1 11 10 10 0 0 1 11 1z" style="fill:currentColor;fill-opacity:0.6;stroke:none" class="ColorScheme-Text"/>
  </g>
</svg>
