<?xml version="1.0" encoding="UTF-8" standalone="no"?>
<svg xmlns="http://www.w3.org/2000/svg" xmlns:xlink="http://www.w3.org/1999/xlink" width="48" height="48">
 <style id="current-color-scheme" type="text/css">.ColorScheme-Text {
    color:#232629;
  }</style>
 <g id="weather-snow-symbolic" class="ColorScheme-Text" stroke-linejoin="bevel">
  <path id="cloud" d="m27 31 h 5 a 7 7 0 0 0 0.95 -13.92 a 9 9 0 0 0 -8.95-8.08 a 9 9 0 0 0 -8.36 12.31 a 5 5 0 1 0 -1.63 9.69h2 z" fill="none" stroke="currentColor" stroke-width="2"/>
  <path id="snowflake1" d="m12 32.5 0.86052 1.5h1.7376l-0.90486 1.5 0.90486 1.5h-1.7284l-0.86965 1.4937-0.84804-1.5h-1.75l0.90485-1.5-0.90485-1.5h1.7333z" fill="currentColor" />
  <use transform="translate(8)" href="#snowflake1"/>
  <use transform="translate(16)" href="#snowflake1"/>
  <use transform="translate(24)" href="#snowflake1"/>
  <use transform="translate(-4,5.5)" href="#snowflake1"/>
  <use transform="translate(4 5.5)" href="#snowflake1"/>
  <use transform="translate(12,5.5)" href="#snowflake1"/>
  <use transform="translate(20,5.5)" href="#snowflake1"/>
 </g>
</svg>
