<?xml version="1.0" encoding="UTF-8" standalone="no"?>
<svg xmlns="http://www.w3.org/2000/svg" xmlns:xlink="http://www.w3.org/1999/xlink" width="48" height="48">
 <style id="current-color-scheme" type="text/css">
  .ColorScheme-Text {
    color:#232629;
  }
 </style>
 <g id="weather-many-clouds-wind-symbolic" class="ColorScheme-Text" fill="none" stroke="currentColor" stroke-width="2" stroke-linejoin="bevel">
  <path id="cloud" d="m34 39 h 2 a 7 7 0 0 0 0.95 -13.92 h -3 a 9 9 0 0 0 -8.95-8.08 a 9 9 0 0 0 -8.36 12.31 a 5 5 0 1 0 -1.63 9.69h1"/>
  <path id="wind1" d="m18 32 h11 a3 3 0 1 0 -3 -3"/>
  <path id="wind2" d="m15 35 h22 a3 3 0 1 0 -3 -3"/>
  <path id="wind3" d="m17 38 h12 a3 3 0 1 1 -3 3"/>
  <path d="m19 12s2.5-3 6-3h7.5c1.5 0 5.5 2 5.5 6 5.8099 0.82999 6.4532 7.1711 2.7875 9.8749-0.75085 0.55383-1.3098 0.71247-2.4149 0.88248"/>
  <path d="m26 17v-0.57812c0-2.493-2.007-4.5-4.5-4.5h-6c-2.493 0-4.5 2.007-4.5 4.5v0.5h-2c-3.878 0-7 3.122-7 7s3.122 7 7 7h2.5"/>
 </g>
</svg>
