<?xml version="1.0" encoding="UTF-8" standalone="no"?>
<svg xmlns="http://www.w3.org/2000/svg" xmlns:xlink="http://www.w3.org/1999/xlink" width="48" height="48">
 <style id="current-color-scheme" type="text/css">.ColorScheme-Text {
    color:#232629;
  }</style>
 <g id="weather-freezing-scattered-rain-day-symbolic" class="ColorScheme-Text" fill="currentColor" stroke-linejoin="bevel">
   <path id="line12" class="ColorScheme-Text" d="m4 18h5" fill="none" stroke="currentColor" stroke-width="2"/>
   <use transform="rotate( 36,20,19)" href="#line12"/>
   <use transform="rotate( 72,20,19)" href="#line12"/>
   <use transform="rotate(108,20,19)" href="#line12"/>
   <use transform="rotate(-36,20,19)" href="#line12"/>
   <path id="path3" d="m12.2 23.5 A9 9 0 0 1 22 10.2" stroke="currentColor" stroke-width="2" fill="none"/>
   <path id="cloud" d="m35.95 17.08a 9 9 0 0 0 -8.95-8.08 a 9 9 0 0 0 -8.36 12.31 a 5 5 0 1 0 -1.63 9.69h18a 7 7 0 0 0 0.95 -13.92 z" fill="none" stroke="currentColor" stroke-width="2"/>
   <path d="m21 33-3 3 3 3 3-3-3-3z"/>
   <path d="m31 39-3 3 3 3 3-3-3-3z"/>
   <path d="m32.59 35a2 2 0 0 0 0 2.8284 2 2 0 0 0 2.8284 0 2 2 0 0 0 0-2.8284l-1.4142-1.4142-1.4142 1.4142z"/>
   <path d="m15.59 41a2 2 0 0 0 0 2.8284 2 2 0 0 0 2.8284 0 2 2 0 0 0 0-2.8284l-1.4142-1.4142-1.4142 1.4142z"/>
   </g>
</svg>
