<?xml version="1.0" encoding="UTF-8" standalone="no"?>
<svg xmlns="http://www.w3.org/2000/svg"
  xmlns:xlink="http://www.w3.org/1999/xlink" width="48" height="48">
  <style id="current-color-scheme" type="text/css">
  .ColorScheme-Text {
    color:#232629;
  }
  </style>
  <g id="weather-few-clouds-wind-symbolic" class="ColorScheme-Text">
    <path d="m4 24h6" fill="none" stroke="currentColor" stroke-width="2" id="line12"/>
    <use transform="rotate( 72 24 24)" href="#line12"/>
    <use transform="rotate(108 24 24)" href="#line12"/>
    <use transform="rotate(144 24 24)" href="#line12"/>
    <use transform="rotate(180 24 24)" href="#line12"/>
    <use transform="rotate(-36 24 24)" href="#line12"/>
    <path d="m20 13.7 A 11 11 0 0 1 35 24 M14.2 19 A 11 11 0 0 0 17 32.5 " fill="none" stroke="currentColor" stroke-width="2" id="sunfsrs"/>
    <path id="wind1" class="ColorScheme-Text" d="m22 32 h11 a3 3 0 1 0 -3 -3" stroke="currentColor" stroke-width="2" fill="none"/>
    <path id="wind2" class="ColorScheme-Text" d="m19 35 h22 a3 3 0 1 0 -3 -3" stroke="currentColor" stroke-width="2" fill="none"/>
    <path id="wind3" class="ColorScheme-Text" d="m21 38 h12 a3 3 0 1 1 -3 3"  stroke="currentColor" stroke-width="2" fill="none"/>
    <rect width="16" height="9" x="4" y="10" rx="4.5" id="rect2949" fill="none" stroke="currentColor"  stroke-width="2"/>
  </g>
</svg>
