<svg id="svg859" version="1.1" viewBox="0 0 16 16" xmlns="http://www.w3.org/2000/svg">
          <defs id="defs3051">
    <style type="text/css" id="current-color-scheme">
        .ColorScheme-Text {            color:#232629;        }
    </style>
    </defs>
    <g id="layer1">
        <path id="path289" d="m8 2a6 6 0 0 0-6 6 6 6 0 0 0 6 6 6 6 0 0 0 3.667969-1.269531l2.048828 2.048828a0.75 0.75 0 0 0 1.0625 0 0.75 0.75 0 0 0 0-1.0625l-2.048828-2.048828a6 6 0 0 0 1.269531-3.667969 6 6 0 0 0-6-6zm0 1a5 5 0 0 1 5 5 5 5 0 0 1-5 5 5 5 0 0 1-5-5 5 5 0 0 1 5-5zm-3 2v5 1h5 1v-5-1h-5-1zm1 1h4v4h-4v-4z" class="ColorScheme-Text" fill="currentColor" style="paint-order:markers stroke fill"/>
    </g>
</svg>
