<svg xmlns="http://www.w3.org/2000/svg" viewBox="0 0 64 64">
  <defs id="defs3051">
    <style type="text/css" id="current-color-scheme">
      .ColorScheme-Text {
        color:#232629;
      }
      .ColorScheme-Highlight {
        color:#3daee9;
      }
      </style>
  </defs>
 <path 
     style="fill:currentColor" 
     d="M 4 6 L 4 11 L 4 20 L 3 20 L 3 21 L 3 21 C 3 21 3 21 3 21 L 3 57 L 3 58 L 4 58 L 60 58 L 61 58 L 61 57 L 61 21 L 61 21 L 61 16 L 60 16 L 60 11 C 60 11 60 11 60 11 L 60 11 L 60 10 L 32 10 L 28 6 L 4 6 z "
     class="ColorScheme-Highlight"
     />
 <path 
     style="fill-opacity:0.33"
     d="M 4 6 L 4 11 L 4 20 L 22 20 L 26 16 L 60 16 L 60 11 C 60 11 60 11 60 11 L 60 11 L 60 10 L 32 10 L 28 6 L 4 6 z "
     />
 <path 
     style="fill:#ffffff;fill-opacity:0.2"
     d="M 28 6 L 31 11 L 33 11 L 60 11 L 60 10 L 33 10 L 32 10 L 28 6 z M 26 16 L 22 20 L 3 20 L 3 21 L 23 21 L 26 16 z "
     />
 <path 
     style="fill-opacity:0.2;fill-rule:evenodd"
     d="M 26 16 L 20 19 L 4 19 L 4 20 L 22 20 L 26 16 z M 3 57 L 3 58 L 4 58 L 60 58 L 61 58 L 61 57 L 60 57 L 4 57 L 3 57 z "
     class="ColorScheme-Text"
     />
 <path 
     style="fill:currentColor;fill-opacity:0.6;stroke:none"  
     d="M 22 26 C 21.446 26 21 26.446 21 27 L 21 47 C 21 47.554 21.446 48 22 48 L 42 48 C 42.554 48 43 47.554 43 47 L 43 27 C 43 26.446 42.554 26 42 26 L 22 26 z M 22 27 L 42 27 L 42 47 L 22 47 L 22 27 z M 34 29 L 34 33 L 38 33 C 38 30.8 36.2 29 34 29 z M 32 30 A 5 5 0 0 0 27 35 A 5 5 0 0 0 32 40 A 5 5 0 0 0 37 35 A 5 5 0 0 0 36.9 34 L 33 34 L 33 30.1 A 5 5 0 0 0 32 30 z M 32 31 L 32 35 L 36 35 A 4 4 0 0 1 32 39 A 4 4 0 0 1 28 35 A 4 4 0 0 1 32 31 z M 24 42 L 24 43 L 40 43 L 40 42 L 24 42 z M 24 44 L 24 45 L 40 45 L 40 44 L 24 44 z "
     class="ColorScheme-Text"
     />
</svg>
