<svg xmlns="http://www.w3.org/2000/svg" viewBox="0 0 64 64">
  <defs id="defs3051">
    <style type="text/css" id="current-color-scheme">
      .ColorScheme-Text {
        color:#232629;
      }
      .ColorScheme-Highlight {
        color:#3daee9;
      }
      </style>
  </defs>
 <path 
     style="fill:currentColor" 
     d="M 4 6 L 4 11 L 4 20 L 3 20 L 3 21 L 3 21 C 3 21 3 21 3 21 L 3 57 L 3 58 L 4 58 L 60 58 L 61 58 L 61 57 L 61 21 L 61 21 L 61 16 L 60 16 L 60 11 C 60 11 60 11 60 11 L 60 11 L 60 10 L 32 10 L 28 6 L 4 6 z "
     class="ColorScheme-Highlight"
     />
 <path 
     style="fill-opacity:0.33"
     d="M 4 6 L 4 11 L 4 20 L 22 20 L 26 16 L 60 16 L 60 11 C 60 11 60 11 60 11 L 60 11 L 60 10 L 32 10 L 28 6 L 4 6 z "
     />
 <path 
     style="fill:#ffffff;fill-opacity:0.2"
     d="M 28 6 L 31 11 L 33 11 L 60 11 L 60 10 L 33 10 L 32 10 L 28 6 z M 26 16 L 22 20 L 3 20 L 3 21 L 23 21 L 26 16 z "
     />
 <path 
     style="fill-opacity:0.2;fill-rule:evenodd"
     d="M 26 16 L 20 19 L 4 19 L 4 20 L 22 20 L 26 16 z M 3 57 L 3 58 L 4 58 L 60 58 L 61 58 L 61 57 L 60 57 L 4 57 L 3 57 z "
     class="ColorScheme-Text"
     />
 <path 
     style="fill:currentColor;fill-opacity:0.6;stroke:none"  
     d="M 22 28 L 22 29 L 42 29 L 42 28 L 22 28 z M 22 30 L 22 31 L 35 31 L 35 30 L 22 30 z M 22 32 L 22 33 L 38 33 L 38 32 L 22 32 z M 22 34 L 22 35 L 42 35 L 42 34 L 22 34 z M 22 36 L 22 37 L 32 37 L 32 36 L 22 36 z M 22 38 L 22 39 L 42 39 L 42 38 L 22 38 z M 22 40 L 22 41 L 39 41 L 39 40 L 22 40 z M 22 42 L 22 43 L 32 43 L 32 42 L 22 42 z M 22 44 L 22 45 L 42 45 L 42 44 L 22 44 z M 22 46 L 22 47 L 36 47 L 36 46 L 22 46 z "
     class="ColorScheme-Text"
     />
</svg>
