<svg xmlns="http://www.w3.org/2000/svg" viewBox="0 0 64 64">
  <defs id="defs3051">
    <style type="text/css" id="current-color-scheme">
      .ColorScheme-Text {
        color:#232629;
      }
      .ColorScheme-Highlight {
        color:#3daee9;
      }
      </style>
  </defs>
 <path 
     style="fill:currentColor" 
     d="M 4 7 L 4 12 L 4 29 L 3 29 L 3 30 L 3 58 L 3 59 L 4 59 L 60 59 L 61 59 L 61 58 L 61 30 L 61 25 L 60 25 L 60 12 L 60 11 L 32 11 L 28 7 L 4 7 z "
     class="ColorScheme-Highlight"
     />
 <path 
     style="fill-opacity:0.33"
     d="M 4 7 L 4 12 L 4 29 L 22 29 L 26 25 L 60 25 L 60 12 L 60 11 L 32 11 L 28 7 L 4 7 z "
     />
 <path 
     style="fill:#ffffff;fill-opacity:0.2"
     d="M 28 7 L 31 12 L 33 12 L 60 12 L 60 11 L 33 11 L 32 11 L 28 7 z M 26 25 L 22 29 L 3 29 L 3 30 L 23 30 L 26 25 z "
     />
 <path 
     style="fill-opacity:0.2;fill-rule:evenodd"
     d="M 26 25 L 20 28 L 4 28 L 4 29 L 22 29 L 26 25 z M 3 58 L 3 59 L 4 59 L 60 59 L 61 59 L 61 58 L 60 58 L 4 58 L 3 58 z "
     class="ColorScheme-Text"
     />
</svg>
