<svg xmlns="http://www.w3.org/2000/svg" viewBox="0 0 64 64">
  <defs id="defs3051">
    <style type="text/css" id="current-color-scheme">
      .ColorScheme-Text {
        color:#232629;
      }
      .ColorScheme-Highlight {
        color:#3daee9;
      }
      </style>
  </defs>
 <path 
     style="fill:#f89406" 
     d="M 4 6 L 4 11 L 4 20 L 3 20 L 3 21 L 3 21 C 3 21 3 21 3 21 L 3 57 L 3 58 L 4 58 L 60 58 L 61 58 L 61 57 L 61 21 L 61 21 L 61 16 L 60 16 L 60 11 C 60 11 60 11 60 11 L 60 11 L 60 10 L 32 10 L 28 6 L 4 6 z "
     />
 <path 
     style="fill-opacity:0.33"
     d="M 4 6 L 4 11 L 4 20 L 22 20 L 26 16 L 60 16 L 60 11 C 60 11 60 11 60 11 L 60 11 L 60 10 L 32 10 L 28 6 L 4 6 z "
     />
 <path 
     style="fill:#ffffff;fill-opacity:0.2"
     d="M 28 6 L 31 11 L 33 11 L 60 11 L 60 10 L 33 10 L 32 10 L 28 6 z M 26 16 L 22 20 L 3 20 L 3 21 L 23 21 L 26 16 z "
     />
 <path 
     style="fill-opacity:0.2;fill-rule:evenodd"
     d="M 26 16 L 20 19 L 4 19 L 4 20 L 22 20 L 26 16 z M 3 57 L 3 58 L 4 58 L 60 58 L 61 58 L 61 57 L 60 57 L 4 57 L 3 57 z "
     class="ColorScheme-Text"
     />
 <path 
     style="fill:currentColor;fill-opacity:0.6;stroke:none"  
     d="M 31.625 26 A 1.5 1.5 0 0 0 30.125 27.5 A 1.5 1.5 0 0 0 30.6 28.5 L 30.5 28.5 L 34 32 L 22.5 32 A 1.5 1.5 0 0 0 21 33.5 A 1.5 1.5 0 0 0 22.5 35 L 28 35 L 21.6 41.4 A 1.5 1.5 0 0 0 21 42.6 A 1.5 1.5 0 0 0 22.5 44.1 A 1.5 1.5 0 0 0 23.6 43.6 C 23.6 43.6 23.6 43.6 23.6 43.6 L 27 40.2 A 8 8 0 0 0 35 48 A 8 8 0 0 0 43 40 A 8 8 0 0 0 40 33.7 L 32.7 26.5 A 1.5 1.5 0 0 1 32.7 26.5 A 1.5 1.5 0 0 0 31.625 26 z M 35 35 A 5 5 0 0 1 38 36 L 38.9 36.9 L 38.9 36.9 A 5 5 0 0 1 40 40 A 5 5 0 0 1 35 45 A 5 5 0 0 1 30 40 A 5 5 0 0 1 35 35 z M 35 38 A 2 2 0 0 0 33 40 A 2 2 0 0 0 35 42 A 2 2 0 0 0 37 40 A 2 2 0 0 0 35 38 z "
     class="ColorScheme-Text"
     />
</svg>
