<svg xmlns="http://www.w3.org/2000/svg" viewBox="0 0 64 64">
  <defs id="defs3051">
    <style type="text/css" id="current-color-scheme">
      .ColorScheme-Text {
        color:#31363b;
      }
      .ColorScheme-Highlight {
        color:#3daee9;
      }
      </style>
  </defs>
 <path 
     style="fill:currentColor" 
     d="M 4 6 L 4 11 L 4 20 L 3 20 L 3 21 L 3 21 C 3 21 3 21 3 21 L 3 57 L 3 58 L 4 58 L 60 58 L 61 58 L 61 57 L 61 21 L 61 21 L 61 16 L 60 16 L 60 11 C 60 11 60 11 60 11 L 60 11 L 60 10 L 32 10 L 28 6 L 4 6 z "
     class="ColorScheme-Highlight"
     />
 <path 
     style="fill-opacity:0.33"
     d="M 4 6 L 4 11 L 4 20 L 22 20 L 26 16 L 60 16 L 60 11 C 60 11 60 11 60 11 L 60 11 L 60 10 L 32 10 L 28 6 L 4 6 z "
     />
 <path 
     style="fill:#ffffff;fill-opacity:0.2"
     d="M 28 6 L 31 11 L 33 11 L 60 11 L 60 10 L 33 10 L 32 10 L 28 6 z M 26 16 L 22 20 L 3 20 L 3 21 L 23 21 L 26 16 z "
     />
 <path 
     style="fill-opacity:0.2;fill-rule:evenodd"
     d="M 26 16 L 20 19 L 4 19 L 4 20 L 22 20 L 26 16 z M 3 57 L 3 58 L 4 58 L 60 58 L 61 58 L 61 57 L 60 57 L 4 57 L 3 57 z "
     class="ColorScheme-Text"
     />
 <path 
     style="fill:currentColor;fill-opacity:0.6;stroke:none"  
     d="M 38.9 27 A 2 2 0 0 0 36.9 29 A 2 2 0 0 0 38.9 31 A 2 2 0 0 0 40.9 29 A 2 2 0 0 0 38.9 27 z M 35.4 30 A 0.5 0.5 0 0 0 34.9 30.5 A 0.5 0.5 0 0 0 35.4 31 A 0.5 0.5 0 0 0 35.9 30.5 A 0.5 0.5 0 0 0 35.4 30 z M 32.4 32 A 0.5 0.5 0 0 0 31.9 32.5 A 0.5 0.5 0 0 0 32.4 33 A 0.5 0.5 0 0 0 32.9 32.5 A 0.5 0.5 0 0 0 32.4 32 z M 29.4 34 A 0.5 0.5 0 0 0 28.9 34.5 A 0.5 0.5 0 0 0 29.4 35 A 0.5 0.5 0 0 0 29.9 34.5 A 0.5 0.5 0 0 0 29.4 34 z M 24.9 35 A 2 2 0 0 0 22.9 37 A 2 2 0 0 0 24.9 39 A 2 2 0 0 0 26.9 37 A 2 2 0 0 0 24.9 35 z M 29.4 39 A 0.5 0.5 0 0 0 28.9 39.5 A 0.5 0.5 0 0 0 29.4 40 A 0.5 0.5 0 0 0 29.9 39.5 A 0.5 0.5 0 0 0 29.4 39 z M 32.4 41 A 0.5 0.5 0 0 0 31.9 41.5 A 0.5 0.5 0 0 0 32.4 42 A 0.5 0.5 0 0 0 32.9 41.5 A 0.5 0.5 0 0 0 32.4 41 z M 35.4 43 A 0.5 0.5 0 0 0 34.9 43.5 A 0.5 0.5 0 0 0 35.4 44 A 0.5 0.5 0 0 0 35.9 43.5 A 0.5 0.5 0 0 0 35.4 43 z M 38.9 43 A 2 2 0 0 0 36.9 45 A 2 2 0 0 0 38.9 47 A 2 2 0 0 0 40.9 45 A 2 2 0 0 0 38.9 43 z "
     class="ColorScheme-Text"
     />
</svg>
