<svg xmlns="http://www.w3.org/2000/svg" viewBox="0 0 64 64">
  <defs id="defs3051">
    <style type="text/css" id="current-color-scheme">
      .ColorScheme-Text {
        color:#232629;
      }
      .ColorScheme-Highlight {
        color:#3daee9;
      }
      </style>
  </defs>
 <path 
     style="fill:currentColor" 
     d="M 4 6 L 4 11 L 4 20 L 3 20 L 3 21 L 3 21 C 3 21 3 21 3 21 L 3 57 L 3 58 L 4 58 L 60 58 L 61 58 L 61 57 L 61 21 L 61 21 L 61 16 L 60 16 L 60 11 C 60 11 60 11 60 11 L 60 11 L 60 10 L 32 10 L 28 6 L 4 6 z "
     class="ColorScheme-Highlight"
     />
 <path 
     style="fill-opacity:0.33"
     d="M 4 6 L 4 11 L 4 20 L 22 20 L 26 16 L 60 16 L 60 11 C 60 11 60 11 60 11 L 60 11 L 60 10 L 32 10 L 28 6 L 4 6 z "
     />
 <path 
     style="fill:#ffffff;fill-opacity:0.2"
     d="M 28 6 L 31 11 L 33 11 L 60 11 L 60 10 L 33 10 L 32 10 L 28 6 z M 26 16 L 22 20 L 3 20 L 3 21 L 23 21 L 26 16 z "
     />
 <path 
     style="fill-opacity:0.2;fill-rule:evenodd"
     d="M 26 16 L 20 19 L 4 19 L 4 20 L 22 20 L 26 16 z M 3 57 L 3 58 L 4 58 L 60 58 L 61 58 L 61 57 L 60 57 L 4 57 L 3 57 z "
     class="ColorScheme-Text"
     />
 <path 
     style="fill:currentColor;fill-opacity:0.6;stroke:none"  
     d="M 32 28 A 7 7 0 0 0 25 35 A 7 7 0 0 0 25.1 36 A 5 5 0 0 0 25 36 A 5 5 0 0 0 20 41 A 5 5 0 0 0 25 46 L 38 46 A 6 6 0 0 0 44 40 A 6 6 0 0 0 38.9 34.1 A 7 7 0 0 0 32 28 z M 32 29 A 6 6 0 0 1 32.6 29 A 6 6 0 0 1 35.4 30 A 6 6 0 0 1 35.4 30 A 6 6 0 0 1 36.7 31.3 A 6 6 0 0 1 36.7 31.3 A 6 6 0 0 1 37.9 34 A 6 6 0 0 1 38 35 A 5 5 0 0 1 39 35.1 A 5 5 0 0 1 39.5 35.2 A 5 5 0 0 1 39.5 35.2 A 5 5 0 0 1 39.9 35.4 A 5 5 0 0 1 40 35.4 A 5 5 0 0 1 40.4 35.6 A 5 5 0 0 1 40.4 35.6 A 5 5 0 0 1 40.8 35.9 A 5 5 0 0 1 40.8 35.9 A 5 5 0 0 1 41.2 36.2 A 5 5 0 0 1 41.2 36.2 A 5 5 0 0 1 41.6 36.5 A 5 5 0 0 1 41.6 36.5 A 5 5 0 0 1 42.2 37.3 A 5 5 0 0 1 42.2 37.3 A 5 5 0 0 1 42.5 37.7 A 5 5 0 0 1 42.5 37.7 A 5 5 0 0 1 42.7 38.2 A 5 5 0 0 1 42.7 38.2 A 5 5 0 0 1 42.8 38.7 A 5 5 0 0 1 42.8 38.7 A 5 5 0 0 1 42.9 39.2 A 5 5 0 0 1 42.9 39.1 A 5 5 0 0 1 43 39.6 A 5 5 0 0 1 43 40 A 5 5 0 0 1 38 45 L 25 45 A 4 4 0 0 1 21 41 A 4 4 0 0 1 21 40.6 A 4 4 0 0 1 25 37 A 4 4 0 0 1 25.3 37 A 4 4 0 0 1 25.3 37 A 4 4 0 0 1 26.5 37.3 A 6 6 0 0 1 26.1 36.1 A 6 6 0 0 1 26 35.6 A 6 6 0 0 1 26 35.5 A 6 6 0 0 1 26 35 A 6 6 0 0 1 26 34.4 A 6 6 0 0 1 32 29 z "
     class="ColorScheme-Text"
     />
</svg>
