<svg xmlns="http://www.w3.org/2000/svg" viewBox="0 0 64 64">
  <defs id="defs3051">
    <style type="text/css" id="current-color-scheme">
      .ColorScheme-Text {
        color:#232629;
      }
      .ColorScheme-Highlight {
        color:#3daee9;
      }
      </style>
  </defs>
 <path 
     style="fill:currentColor" 
     d="M 4 6 L 4 11 L 4 20 L 3 20 L 3 21 L 3 21 C 3 21 3 21 3 21 L 3 57 L 3 58 L 4 58 L 60 58 L 61 58 L 61 57 L 61 21 L 61 21 L 61 16 L 60 16 L 60 11 C 60 11 60 11 60 11 L 60 11 L 60 10 L 32 10 L 28 6 L 4 6 z "
     class="ColorScheme-Highlight"
     />
 <path 
     style="fill-opacity:0.33"
     d="M 4 6 L 4 11 L 4 20 L 22 20 L 26 16 L 60 16 L 60 11 C 60 11 60 11 60 11 L 60 11 L 60 10 L 32 10 L 28 6 L 4 6 z "
     />
 <path 
     style="fill:#ffffff;fill-opacity:0.2"
     d="M 28 6 L 31 11 L 33 11 L 60 11 L 60 10 L 33 10 L 32 10 L 28 6 z M 26 16 L 22 20 L 3 20 L 3 21 L 23 21 L 26 16 z "
     />
 <path 
     style="fill-opacity:0.2;fill-rule:evenodd"
     d="M 26 16 L 20 19 L 4 19 L 4 20 L 22 20 L 26 16 z M 3 57 L 3 58 L 4 58 L 60 58 L 61 58 L 61 57 L 60 57 L 4 57 L 3 57 z "
     class="ColorScheme-Text"
     />
 <path 
     style="fill:currentColor;fill-opacity:0.6;stroke:none"  
     d="M 19 26 L 19 48 L 45 48 L 45 26 L 19 26 z M 37 27 C 37.552 27 38 27.448 38 28 C 38 28.552 37.552 29 37 29 C 36.448 29 36 28.552 36 28 C 36 27.448 36.448 27 37 27 z M 40 27 C 40.552 27 41 27.448 41 28 C 41 28.552 40.552 29 40 29 C 39.448 29 39 28.552 39 28 C 39 27.448 39.448 27 40 27 z M 43 27 C 43.552 27 44 27.448 44 28 C 44 28.552 43.552 29 43 29 C 42.448 29 42 28.552 42 28 C 42 27.448 42.448 27 43 27 z M 20 30 L 44 30 L 44 47 L 20 47 L 20 30 z M 26 33 L 26 38 L 31 38 L 31 33 L 26 33 z M 32 33 L 32 38 L 37 38 L 37 33 L 32 33 z M 26 39 L 26 44 L 31 44 L 31 39 L 26 39 z M 32 39 L 32 44 L 37 44 L 37 39 L 32 39 z "
     class="ColorScheme-Text"
     />
</svg>
