<svg xmlns="http://www.w3.org/2000/svg" viewBox="0 0 64 64">
  <defs id="defs3051">
    <style type="text/css" id="current-color-scheme">
      .ColorScheme-Text {
        color:#232629;
      }
      .ColorScheme-Highlight {
        color:#3daee9;
      }
      </style>
  </defs>
 <path 
     style="fill:currentColor" 
     d="M 4 6 L 4 11 L 4 20 L 3 20 L 3 21 L 3 21 C 3 21 3 21 3 21 L 3 57 L 3 58 L 4 58 L 60 58 L 61 58 L 61 57 L 61 21 L 61 21 L 61 16 L 60 16 L 60 11 C 60 11 60 11 60 11 L 60 11 L 60 10 L 32 10 L 28 6 L 4 6 z "
     class="ColorScheme-Highlight"
     />
 <path 
     style="fill-opacity:0.33"
     d="M 4 6 L 4 11 L 4 20 L 22 20 L 26 16 L 60 16 L 60 11 C 60 11 60 11 60 11 L 60 11 L 60 10 L 32 10 L 28 6 L 4 6 z "
     />
 <path 
     style="fill:#ffffff;fill-opacity:0.2"
     d="M 28 6 L 31 11 L 33 11 L 60 11 L 60 10 L 33 10 L 32 10 L 28 6 z M 26 16 L 22 20 L 3 20 L 3 21 L 23 21 L 26 16 z "
     />
 <path 
     style="fill-opacity:0.2;fill-rule:evenodd"
     d="M 26 16 L 20 19 L 4 19 L 4 20 L 22 20 L 26 16 z M 3 57 L 3 58 L 4 58 L 60 58 L 61 58 L 61 57 L 60 57 L 4 57 L 3 57 z "
     class="ColorScheme-Text"
     />
 <path 
     style="fill:currentColor;fill-opacity:0.6;stroke:none"  
     d="M 21 26 L 21 48 L 43 48 L 43 26 L 21 26 z M 22 27 L 42 27 L 42 31 L 22 31 L 22 27 z M 22 32 L 27 32 L 27 35 L 22 35 L 22 32 z M 28 32 L 36 32 L 36 35 L 28 35 L 28 32 z M 37 32 L 42 32 L 42 35 L 37 35 L 37 32 z M 22 36 L 27 36 L 27 39 L 22 39 L 22 36 z M 28 36 L 36 36 L 36 39 L 28 39 L 28 36 z M 37 36 L 42 36 L 42 39 L 37 39 L 37 36 z M 22 40 L 27 40 L 27 43 L 22 43 L 22 40 z M 28 40 L 36 40 L 36 43 L 28 43 L 28 40 z M 37 40 L 42 40 L 42 43 L 37 43 L 37 40 z M 22 44 L 27 44 L 27 47 L 22 47 L 22 44 z M 28 44 L 36 44 L 36 47 L 28 47 L 28 44 z M 37 44 L 42 44 L 42 47 L 37 47 L 37 44 z "
     class="ColorScheme-Text"
     />
</svg>
