<svg xmlns="http://www.w3.org/2000/svg" viewBox="0 0 64 64">
  <defs id="defs3051">
    <style type="text/css" id="current-color-scheme">
      .ColorScheme-Text {
        color:#232629;
      }
      .ColorScheme-Highlight {
        color:#3daee9;
      }
      </style>
  </defs>
 <path 
     style="fill:currentColor" 
     d="M 4 6 L 4 11 L 4 20 L 3 20 L 3 21 L 3 21 C 3 21 3 21 3 21 L 3 57 L 3 58 L 4 58 L 60 58 L 61 58 L 61 57 L 61 21 L 61 21 L 61 16 L 60 16 L 60 11 C 60 11 60 11 60 11 L 60 11 L 60 10 L 32 10 L 28 6 L 4 6 z "
     class="ColorScheme-Highlight"
     />
 <path 
     style="fill-opacity:0.33"
     d="M 4 6 L 4 11 L 4 20 L 22 20 L 26 16 L 60 16 L 60 11 C 60 11 60 11 60 11 L 60 11 L 60 10 L 32 10 L 28 6 L 4 6 z "
     />
 <path 
     style="fill:#ffffff;fill-opacity:0.2"
     d="M 28 6 L 31 11 L 33 11 L 60 11 L 60 10 L 33 10 L 32 10 L 28 6 z M 26 16 L 22 20 L 3 20 L 3 21 L 23 21 L 26 16 z "
     />
 <path 
     style="fill-opacity:0.2;fill-rule:evenodd"
     d="M 26 16 L 20 19 L 4 19 L 4 20 L 22 20 L 26 16 z M 3 57 L 3 58 L 4 58 L 60 58 L 61 58 L 61 57 L 60 57 L 4 57 L 3 57 z "
     class="ColorScheme-Text"
     />
 <path 
     style="fill:currentColor;fill-opacity:0.6;stroke:none"  
     d="M 31.886719 21.970703 C 31.379829 21.970703 30.964844 22.379829 30.964844 22.886719 L 30.964844 23.724609 C 29.33145 24.144039 28.15625 25.59274 28.15625 27.333984 C 28.15625 28.552864 28.738184 29.637622 29.646484 30.320312 C 29.743174 30.434583 29.802734 30.579084 29.802734 30.740234 C 29.802734 30.787114 29.802775 30.833003 29.796875 30.876953 L 25.759766 39.433594 L 24.089844 39.433594 C 23.817354 39.433594 23.59375 39.653291 23.59375 39.925781 L 23.59375 39.927734 C 23.59375 40.200224 23.817354 40.419922 24.089844 40.419922 L 25.294922 40.419922 L 22.177734 47.027344 C 21.981424 47.446334 22.079069 47.930631 22.386719 48.244141 L 21.185547 50.683594 L 23.083984 48.626953 C 23.587944 48.758803 24.126929 48.518606 24.355469 48.035156 L 27.949219 40.419922 L 31.107422 40.419922 L 31.107422 41.074219 C 31.107422 41.490279 31.446244 41.826172 31.865234 41.826172 L 31.90625 41.826172 C 32.32524 41.826172 32.666016 41.490279 32.666016 41.074219 L 32.666016 40.419922 L 35.896484 40.419922 L 39.488281 48.035156 C 39.713891 48.521536 40.256782 48.758803 40.757812 48.626953 L 42.65625 50.683594 L 41.458984 48.244141 C 41.763704 47.930631 41.862326 47.449264 41.666016 47.027344 L 38.548828 40.419922 L 39.679688 40.419922 C 39.955107 40.419922 40.175781 40.200224 40.175781 39.927734 C 40.175781 39.655244 39.955107 39.436494 39.679688 39.433594 L 38.083984 39.433594 L 34.048828 30.876953 C 34.042928 30.833003 34.042969 30.787114 34.042969 30.740234 C 34.042969 30.582014 34.101552 30.434583 34.195312 30.320312 C 35.103612 29.637622 35.689453 28.552864 35.689453 27.333984 C 35.689453 25.568913 34.458988 24.102344 32.806641 23.705078 L 32.806641 22.886719 C 32.806641 22.379829 32.396539 21.970703 31.886719 21.970703 z M 32.763672 25.349609 C 33.540847 25.676084 34.085938 26.441146 34.085938 27.333984 C 34.085938 28.523564 33.119268 29.488281 31.923828 29.488281 C 30.722528 29.488281 29.761719 28.523564 29.761719 27.333984 C 29.761719 26.470065 30.275284 25.729666 31.015625 25.386719 C 31.125395 25.768705 31.465189 26.054688 31.886719 26.054688 C 32.319155 26.054687 32.666012 25.751416 32.763672 25.349609 z M 31.90625 32.503906 L 31.923828 32.503906 L 31.941406 32.503906 C 32.058606 32.503906 32.162102 32.558585 32.226562 32.640625 L 35.431641 39.433594 L 32.666016 39.433594 L 32.666016 38.638672 C 32.666016 38.219682 32.32524 37.882812 31.90625 37.882812 L 31.865234 37.882812 C 31.446244 37.882813 31.107422 38.222612 31.107422 38.638672 L 31.107422 39.433594 L 28.414062 39.433594 L 31.619141 32.640625 C 31.686531 32.555655 31.78905 32.503906 31.90625 32.503906 z "
     class="ColorScheme-Text"
     />
</svg>
