<svg xmlns="http://www.w3.org/2000/svg" viewBox="0 0 64 64">
  <defs id="defs3051">
    <style type="text/css" id="current-color-scheme">
      .ColorScheme-Text {
        color:#232629;
      }
      .ColorScheme-Highlight {
        color:#3daee9;
      }
      </style>
  </defs>
 <path 
     style="fill:#f62459" 
     d="M 4 6 L 4 11 L 4 20 L 3 20 L 3 21 L 3 21 C 3 21 3 21 3 21 L 3 57 L 3 58 L 4 58 L 60 58 L 61 58 L 61 57 L 61 21 L 61 21 L 61 16 L 60 16 L 60 11 C 60 11 60 11 60 11 L 60 11 L 60 10 L 32 10 L 28 6 L 4 6 z "
     class="ColorScheme-Highlight"
     />
 <path 
     style="fill-opacity:0.33"
     d="M 4 6 L 4 11 L 4 20 L 22 20 L 26 16 L 60 16 L 60 11 C 60 11 60 11 60 11 L 60 11 L 60 10 L 32 10 L 28 6 L 4 6 z "
     />
 <path 
     style="fill:#ffffff;fill-opacity:0.2"
     d="M 28 6 L 31 11 L 33 11 L 60 11 L 60 10 L 33 10 L 32 10 L 28 6 z M 26 16 L 22 20 L 3 20 L 3 21 L 23 21 L 26 16 z "
     />
 <path 
     style="fill-opacity:0.2;fill-rule:evenodd"
     d="M 26 16 L 20 19 L 4 19 L 4 20 L 22 20 L 26 16 z M 3 57 L 3 58 L 4 58 L 60 58 L 61 58 L 61 57 L 60 57 L 4 57 L 3 57 z "
     class="ColorScheme-Text"
     />
 <path 
     style="fill:currentColor;fill-opacity:0.6;stroke:none"  
     d="m 33.5,47.9 c -1.2,-0.2 -2.9,-0.9 -3.9,-1.55 -2.3,-1.5 -3.80543,-3.16854 -4.73586,-5.251032 -0.3,-0.7 -0.47801,-1.2 -1,-3 -0.1,-0.45 -0.26963,-0.954263 -0.33223,-1.111398 -0.10559,-0.26506 -0.11023,-0.354473 -0.0642,-1.238563 0.0437,-0.8 0.2,-2 0.3,-2.095993 0.0148,-0.0232 0.0496,-0.0287 0.0774,-0.0122 0.094,0.0558 0.18092,-0.202187 0.26633,-0.790648 0.0468,-0.322401 0.12032,-0.660493 0.16339,-0.751326 0.0431,-0.0908 0.11603,-0.29129 0.16214,-0.445465 0.10611,-0.354863 0.25079,-0.627632 0.69807,-1.316046 0.19671,-0.30276 0.40119,-0.632522 0.45439,-0.732795 0.0626,-0.117984 0.131,-0.175786 0.1938,-0.163796 0.0605,0.0115 0.16035,-0.065 0.26492,-0.202997 0.45476,-0.600221 2.59667,-2.371062 2.79488,-2.31069 0.0541,0.0165 0.28012,-0.0579 0.50227,-0.165246 0.40181,-0.194187 0.57886,-0.239108 0.57886,-0.146875 0,0.0266 -0.0581,0.087 -0.12906,0.134235 -0.12457,0.0829 -0.12207,0.0843 0.0717,0.0393 0.11042,-0.0257 0.29638,-0.0622 0.41325,-0.0812 0.14439,-0.0235 0.2031,-0.0581 0.18318,-0.107894 -0.0175,-0.0437 0.0241,-0.087 0.10298,-0.107313 0.19746,-0.0507 0.50515,-0.0424 0.50515,0.0137 0,0.0673 -0.17593,0.135265 -0.31548,0.121984 -0.0952,-0.009 -0.10006,-0.001 -0.0287,0.0457 0.071,0.0468 0.0719,0.0568 0.005,0.0575 -0.0447,4.6e-4 -0.0665,0.0149 -0.0486,0.0322 0.018,0.0172 0.13758,-0.02 0.26578,-0.0828 0.12821,-0.0628 0.36302,-0.140865 0.5218,-0.173546 0.19546,-0.0402 0.2887,-0.0869 0.2887,-0.144505 0,-0.0741 0.0908,-0.0804 0.70265,-0.0488 0.38647,0.02 0.96965,0.0781 1.29596,0.129194 0.59326,0.0929 0.59331,0.0929 0.8144,-0.0292 0.26518,-0.146465 0.69171,-0.165526 0.80379,-0.0359 0.041,0.0474 0.15387,0.125554 0.25081,0.173656 0.15814,0.0785 0.1686,0.0786 0.10176,0.001 -0.12697,-0.146905 -8.7e-4,-0.143205 0.48939,0.0144 1.58057,0.508008 2.8691,1.412749 3.82523,2.685883 0.22674,0.301911 0.24047,0.437736 0.0257,0.253959 l -0.12292,-0.105173 0.0939,0.176176 c 0.0516,0.0969 0.0939,0.205787 0.0939,0.241978 0,0.0362 0.152,0.303721 0.33776,0.594491 0.41868,0.655332 0.5358,0.87612 0.50771,0.957003 -0.0121,0.0347 -0.19753,-0.196137 -0.41219,-0.512928 -0.21465,-0.316771 -0.5323,-0.743586 -0.70588,-0.948463 -0.25922,-0.30595 -0.32711,-0.358282 -0.38,-0.29289 -0.0354,0.0438 -0.12191,0.0875 -0.19222,0.0973 l -0.12782,0.0177 0.12645,0.237898 c 0.0695,0.130845 0.13567,0.211348 0.14695,0.178896 0.0604,-0.173776 0.34144,0.0547 0.46925,0.381394 0.0414,0.105963 0.15164,0.324181 0.24488,0.484927 0.0932,0.160745 0.15777,0.30352 0.14343,0.317291 -0.0143,0.0138 -0.0994,-0.0303 -0.18889,-0.0979 l -0.1628,-0.122904 0.11103,0.182936 c 0.0611,0.100624 0.16333,0.223698 0.22724,0.27352 0.0797,0.0622 0.11784,0.160365 0.1214,0.313021 0.007,0.281849 0.17481,0.614811 0.2663,0.527008 0.14253,-0.136785 0.17184,-0.0513 0.13597,0.396654 -0.0264,0.330031 -0.0124,0.547559 0.0503,0.778487 0.0952,0.350592 0.0747,0.437125 -0.0645,0.273269 -0.0885,-0.104204 -0.0894,-0.104134 -0.0498,0.004 0.085,0.231818 0.14846,0.57862 0.13081,0.714735 -0.0329,0.253999 -0.13232,0.148395 -0.16651,-0.176976 l -0.0334,-0.317571 -0.01,0.337962 c -0.005,0.185886 -0.0508,0.545068 -0.10107,0.798187 -0.0508,0.255669 -0.0766,0.56547 -0.058,0.697014 0.0349,0.247469 0.0102,0.257059 -0.20532,0.0798 -0.0877,-0.0722 -0.10283,-0.0576 -0.16308,0.157146 -0.0507,0.180686 -0.0503,0.283559 0.002,0.434885 0.0375,0.109023 0.0593,0.256889 0.0484,0.328581 -0.0251,0.165456 -0.16321,0.217048 -0.16321,0.061 0,-0.196217 -0.0778,-0.126384 -0.31548,0.28325 -0.64188,1.106158 -1.65752,1.962218 -2.80702,2.366002 -0.67769,0.238058 -1.13223,0.326331 -1.89648,0.368313 l -0.68832,0.0378 0.34009,0.100684 c 0.27423,0.0812 0.43527,0.0933 0.83171,0.0626 0.51938,-0.0403 1.12921,-0.148435 1.40573,-0.249329 0.11036,-0.0403 0.18489,-0.0421 0.22303,-0.006 0.0899,0.0863 -0.7089,0.425615 -1.18309,0.502497 -0.80686,0.130825 -1.88692,-0.0106 -2.84033,-0.371813 -0.64687,-0.245098 -1.60679,-0.88343 -1.45969,-0.970673 0.0279,-0.0165 0.21049,0.0669 0.40583,0.185466 0.24969,0.151505 0.35516,0.191407 0.35516,0.134335 0,-0.107794 0.0369,-0.102624 0.2353,0.0329 0.17914,0.122424 0.73015,0.349732 1.127,0.464936 0.4326,0.125574 0.26487,-0.0266 -0.31548,-0.28629 -1.83497,-0.820968 -2.59673,-1.642107 -2.97638,-3.208341 -0.13922,-0.57434 0.01,-1.833454 0.26385,-2.227777 0.0644,-0.0999 0.117,-0.222808 0.117,-0.27308 0,-0.218147 0.37905,-0.794507 0.768,-1.16778 0.68537,-0.657733 1.39794,-0.930793 2.32295,-0.890161 0.44716,0.0197 0.63814,0.0574 1.01028,0.199607 0.4221,0.161325 0.95359,0.499037 0.79082,0.502507 -0.0383,8.1e-4 -0.20605,-0.0531 -0.37284,-0.119804 -0.25354,-0.101393 -0.41611,-0.121704 -0.99158,-0.123854 -0.80809,-0.003 -1.20306,0.107004 -1.77816,0.495327 -0.81534,0.550549 -1.26873,1.184681 -1.4293,1.999069 -0.10774,0.546459 -0.11104,0.697874 -0.027,1.239923 0.0484,0.312341 0.0828,0.403994 0.1434,0.381694 0.0509,-0.0187 0.0797,0.009 0.0797,0.0758 0,0.193587 0.43892,0.978854 0.74332,1.329886 0.73267,0.84496 1.91783,1.384158 3.04236,1.384158 0.58366,0 1.05546,-0.107513 1.48975,-0.339472 0.1744,-0.0932 0.39453,-0.207027 0.48917,-0.253068 0.33393,-0.162436 0.5411,-0.347982 0.78331,-0.701525 0.13465,-0.196546 0.28103,-0.357352 0.32529,-0.357352 0.0654,0 0.0626,0.0284 -0.0151,0.151375 -0.25603,0.405504 0.34484,-0.331801 0.656,-0.804948 l 0.34852,-0.529948 -0.038,-0.348122 c -0.0365,-0.334522 -0.0312,-0.354942 0.13555,-0.522948 0.16062,-0.161786 0.17505,-0.209678 0.19356,-0.642193 0.0166,-0.387103 0.005,-0.467466 -0.066,-0.467906 -0.0662,-3.8e-4 -0.0946,-0.102333 -0.1231,-0.440905 -0.0377,-0.448076 -0.41787,-1.955848 -0.50638,-2.00835 -0.0267,-0.0158 -0.10085,-0.160825 -0.16473,-0.322181 -0.2156,-0.544539 -0.59376,-1.068157 -1.18339,-1.638587 -0.84842,-0.820768 -1.91715,-1.45456 -2.92667,-1.7356 -0.85872,-0.239058 -2.31691,-0.152285 -3.35555,0.199667 -0.50691,0.171776 -1.00636,0.399224 -1.09064,0.496677 -0.0382,0.0442 -0.0937,0.0661 -0.1232,0.0486 -0.0311,-0.0184 -0.0225,-0.0678 0.0204,-0.117394 0.19134,-0.221258 -0.4436,0.183696 -0.85236,0.543619 -0.24712,0.217597 -0.45832,0.402254 -0.46933,0.410344 -0.011,0.008 0.0371,3.8e-4 0.10689,-0.0171 0.11615,-0.0291 0.12107,-0.0214 0.0581,0.0916 -0.0404,0.0724 -0.25066,0.202597 -0.50841,0.314801 -0.43307,0.188516 -0.71317,0.395703 -0.93571,0.692154 -0.0888,0.118364 -0.094,0.143854 -0.0237,0.117974 0.0493,-0.0182 0.0897,-0.007 0.0897,0.0253 0,0.157206 -0.14884,0.332722 -0.36931,0.435526 -0.48847,0.227747 -1.34656,1.44426 -1.80621,2.560698 -0.20484,0.497508 -0.20159,0.480227 -0.0902,0.480227 0.11739,0 0.10922,0.127944 -0.052,0.815228 -0.23489,1.001125 -0.23517,0.969094 0.0206,2.377513 0.31167,1.716039 0.49375,2.289279 0.83995,2.644481 0.0812,0.0833 0.16015,0.260569 0.19534,0.438636 0.042,0.212617 0.11256,0.352942 0.24458,0.486486 0.12036,0.121755 0.1605,0.196427 0.11426,0.212608 -0.0907,0.0317 0.19328,0.438095 0.45238,0.647322 0.13035,0.105254 0.22695,0.140635 0.33159,0.121435 0.22935,-0.0421 0.46286,0.0847 0.82167,0.446045 0.37288,0.375523 0.41024,0.476476 0.16348,0.441725 -0.15916,-0.0224 -0.1628,-0.0183 -0.0845,0.0965 0.0451,0.066 0.21123,0.224607 0.3693,0.352512 0.22201,0.179666 0.27919,0.257389 0.25132,0.341662 -0.0401,0.121184 0.0742,0.234238 0.33283,0.329121 0.16035,0.0588 0.21202,0.185717 0.0913,0.224318 -0.0365,0.0117 0.18933,0.234778 0.50189,0.495767 0.35215,0.29404 0.58903,0.455206 0.62279,0.423725 0.0892,-0.0831 0.20349,-0.0578 0.20554,0.0455 0.002,0.112724 0.10347,0.231148 0.46767,0.547039 0.23015,0.199617 0.2876,0.224738 0.42867,0.187447 0.12918,-0.0342 0.21042,-0.0122 0.39235,0.105793 0.36297,0.235479 0.58306,0.329472 0.77151,0.329472 0.18543,0 0.21183,0.0511 0.11555,0.223808 -0.051,0.0914 -0.0401,0.106473 0.0771,0.106473 0.075,0 0.28648,0.0495 0.46987,0.110094 0.41698,0.137685 0.59092,0.147045 0.48641,0.0262 -0.15438,-0.178516 0.009,-0.129734 0.56093,0.167096 0.77073,0.414784 1.16062,0.462166 2.69539,0.327581 0.22723,-0.0199 0.30114,-0.008 0.30114,0.0474 0,0.0478 -0.19717,0.119584 -0.55926,0.203647 -0.47599,0.110504 -0.73005,0.131885 -1.70645,0.143595 -0.76939,0.009 -1.29494,-0.0109 -1.59582,-0.061 z m -0.78462,-8.252066 c 0,-0.0117 -0.071,-0.0627 -0.15774,-0.113364 l -0.15774,-0.0922 0.13542,0.113364 c 0.13214,0.110613 0.18006,0.135144 0.18006,0.0922 z m 7.89748,-5.76909 c -0.0183,-0.0439 -0.0319,-0.0309 -0.0347,0.0333 -0.003,0.058 0.0111,0.0905 0.0301,0.0722 0.0191,-0.0183 0.0211,-0.0658 0.004,-0.105503 z M 27.59609,28.105563 c 0.0714,-0.0873 0.0693,-0.0893 -0.0217,-0.0208 -0.0552,0.0416 -0.10038,0.0849 -0.10038,0.0963 0,0.0453 0.0471,0.0161 0.12204,-0.0755 z m 0.65232,-0.509187 c 0.0571,-0.0606 0.0909,-0.110094 0.0751,-0.110094 -0.0158,0 -0.0754,0.0495 -0.13249,0.110094 -0.0571,0.0606 -0.0909,0.110093 -0.0751,0.110093 0.0158,0 0.0754,-0.0495 0.1325,-0.110093 z m 0.72202,-0.386964 c 0.18908,-0.0614 0.29652,-0.0723 0.33639,-0.034 0.0399,0.0383 0.18783,0.0156 0.46321,-0.0711 0.22254,-0.07 0.39439,-0.137114 0.38189,-0.149115 -0.0125,-0.012 -0.19574,0.0336 -0.40718,0.101364 -0.29041,0.0931 -0.39492,0.106904 -0.42731,0.0566 -0.0547,-0.085 -0.57666,0.0825 -0.801,0.257099 l -0.1533,0.119284 0.16474,-0.0949 c 0.0906,-0.0522 0.28976,-0.135545 0.44256,-0.185187 z m 1.65366,-0.139735 c 0.16658,-0.0475 0.29293,-0.0959 0.28079,-0.107503 -0.0268,-0.0257 -0.62019,0.137364 -0.62019,0.170445 0,0.0333 0.005,0.0325 0.3394,-0.0629 z m 0.95119,-0.30009 0.22945,-0.0402 -0.20076,-0.005 c -0.11042,-0.003 -0.26529,0.0331 -0.34416,0.0795 -0.0928,0.0547 -0.10295,0.0706 -0.0287,0.0451 0.0631,-0.0216 0.21796,-0.0574 0.34415,-0.0795 z m 0.45558,-0.103884 c 0.0177,-0.0274 -0.0195,-0.0369 -0.0827,-0.0211 -0.13394,0.0336 -0.15087,0.071 -0.0321,0.071 0.0455,0 0.0971,-0.0225 0.1148,-0.0499 z m 1.85196,0.0166 c -0.0191,-0.0183 -0.0685,-0.0202 -0.10994,-0.004 -0.0458,0.0176 -0.0322,0.0306 0.0347,0.0333 0.0605,0.002 0.0943,-0.0106 0.0753,-0.0289 z m -0.34296,-0.0597 c -0.0552,-0.0138 -0.14555,-0.0138 -0.20076,0 -0.0552,0.0138 -0.01,0.0252 0.10038,0.0252 0.11042,0 0.15559,-0.0113 0.10038,-0.0252 z m -0.57208,-0.0571 c -0.11747,-0.0118 -0.32397,-0.012 -0.45888,-3.6e-4 -0.13491,0.0116 -0.0388,0.0213 0.21358,0.0215 0.25239,2e-4 0.36277,-0.009 0.2453,-0.0211 z m -0.74839,-0.0483 c -0.0191,-0.0183 -0.0685,-0.0203 -0.10994,-0.004 -0.0458,0.0176 -0.0322,0.0306 0.0347,0.0333 0.0605,0.002 0.0943,-0.0106 0.0753,-0.0289 z m -0.38827,13.230939 c -0.58427,-0.401754 -0.80075,-0.609551 -0.80075,-0.768667 0,-0.0844 0.0199,-0.153475 0.0442,-0.153475 0.0827,0 1.05948,0.978464 1.03812,1.039956 -0.0124,0.0356 -0.13023,-0.0137 -0.28159,-0.117814 z m -0.30065,-1.020075 c -0.30344,-0.294271 -0.40067,-0.452546 -0.27803,-0.452546 0.0737,0 0.63832,0.620411 0.63832,0.701384 0,0.0381 -0.007,0.0693 -0.0161,0.0693 -0.009,0 -0.16374,-0.143145 -0.34416,-0.318111 z m 3.35735,-1.204612 c -0.1602,-0.062 -0.0602,-0.176986 0.20076,-0.230718 0.14985,-0.0309 0.38799,-0.105754 0.52919,-0.166446 0.1412,-0.0607 0.26693,-0.100554 0.27939,-0.0886 0.0125,0.012 -0.0515,0.134305 -0.14201,0.271879 -0.16367,0.248609 -0.1666,0.250109 -0.48015,0.245889 -0.17352,-0.002 -0.34775,-0.0167 -0.38718,-0.032 z m 1.72079,-1.231343 c -0.15483,-0.0597 -0.16124,-0.161356 -0.032,-0.507478 0.11103,-0.29729 0.22619,-0.355942 0.16213,-0.0826 -0.0231,0.0984 -0.0538,0.240838 -0.0684,0.316521 l -0.0265,0.137624 0.11463,-0.125284 c 0.0678,-0.0741 0.13062,-0.248139 0.15377,-0.425995 0.0215,-0.165396 0.062,-0.28714 0.09,-0.270559 0.071,0.0421 0.0634,0.477326 -0.0133,0.769937 -0.0671,0.255598 -0.1274,0.285379 -0.38037,0.187796 z M 23.0348,35.601233 C 23.0157,35.553331 23,35.365495 23,35.183789 c 0,-0.239729 0.0197,-0.324122 0.0717,-0.307611 0.0852,0.027 0.13517,0.812128 0.0517,0.812128 -0.0296,0 -0.0694,-0.0392 -0.0886,-0.0871 z m 13.79915,-1.287585 c -0.0891,-0.115694 -0.11659,-0.207027 -0.0913,-0.30368 0.0519,-0.198487 0.1877,-0.170256 0.28788,0.0598 0.15585,0.357972 0.0206,0.525738 -0.19657,0.243828 z M 23.023,33.439698 c -0.004,-0.312141 -3e-5,-0.321791 0.14395,-0.316521 0.12209,0.004 0.15157,0.0353 0.16565,0.173506 0.0159,0.155846 -0.16071,0.464966 -0.26563,0.464966 -0.0217,0 -0.0415,-0.144875 -0.044,-0.321951 z m 14.86831,-6.767084 c 0.008,-0.492628 0.0945,-0.659513 0.16189,-0.314601 0.047,0.240328 -0.0128,0.664713 -0.10379,0.737205 -0.0495,0.0394 -0.0643,-0.068 -0.0581,-0.422604 z M 30.35436,26.377403 C 30.37746,26.311001 31.16868,26 31.31464,26 c 0.17148,0 -0.13613,0.201647 -0.49092,0.321811 -0.39558,0.133985 -0.50092,0.146455 -0.46936,0.0556 z"
     class="ColorScheme-Text"
     />
</svg>
