<svg xmlns="http://www.w3.org/2000/svg" viewBox="0 0 64 64">
  <defs id="defs3051">
    <style type="text/css" id="current-color-scheme">
      .ColorScheme-Text {
        color:#232629;
      }
      .ColorScheme-Highlight {
        color:#3daee9;
      }
      </style>
  </defs>
 <path 
     style="fill:currentColor" 
     d="M 4 6 L 4 11 L 4 20 L 3 20 L 3 21 L 3 21 C 3 21 3 21 3 21 L 3 57 L 3 58 L 4 58 L 60 58 L 61 58 L 61 57 L 61 21 L 61 21 L 61 16 L 60 16 L 60 11 C 60 11 60 11 60 11 L 60 11 L 60 10 L 32 10 L 28 6 L 4 6 z "
     class="ColorScheme-Highlight"
     />
 <path 
     style="fill-opacity:0.33"
     d="M 4 6 L 4 11 L 4 20 L 22 20 L 26 16 L 60 16 L 60 11 C 60 11 60 11 60 11 L 60 11 L 60 10 L 32 10 L 28 6 L 4 6 z "
     />
 <path 
     style="fill:#ffffff;fill-opacity:0.2"
     d="M 28 6 L 31 11 L 33 11 L 60 11 L 60 10 L 33 10 L 32 10 L 28 6 z M 26 16 L 22 20 L 3 20 L 3 21 L 23 21 L 26 16 z "
     />
 <path 
     style="fill-opacity:0.2;fill-rule:evenodd"
     d="M 26 16 L 20 19 L 4 19 L 4 20 L 22 20 L 26 16 z M 3 57 L 3 58 L 4 58 L 60 58 L 61 58 L 61 57 L 60 57 L 4 57 L 3 57 z "
     class="ColorScheme-Text"
     />
 <path 
     style="fill:currentColor;fill-opacity:0.6;stroke:none"  
     d="M 39.757812 24.960938 L 39.447266 26.021484 C 38.811266 25.968484 38.170547 26.038563 37.560547 26.226562 L 37.03125 25.257812 L 35.275391 26.216797 L 35.804688 27.185547 C 35.315688 27.597547 34.911328 28.098109 34.611328 28.662109 L 33.554688 28.353516 L 32.992188 30.271484 L 34.052734 30.582031 C 33.999734 31.218031 34.06786 31.860703 34.255859 32.470703 L 33.287109 33 L 34.246094 34.755859 L 35.214844 34.224609 C 35.626844 34.713609 36.129359 35.119922 36.693359 35.419922 L 36.382812 36.476562 L 38.302734 37.039062 L 38.613281 35.978516 C 39.249281 36.031516 39.89 35.961438 40.5 35.773438 L 41.03125 36.742188 L 42.785156 35.783203 L 42.255859 34.814453 C 42.744859 34.402453 43.149219 33.901891 43.449219 33.337891 L 44.505859 33.646484 L 45.068359 31.728516 L 44.007812 31.417969 C 44.060812 30.781969 43.992688 30.139297 43.804688 29.529297 L 44.773438 29 L 43.814453 27.244141 L 42.845703 27.775391 C 42.433703 27.286391 41.931188 26.880078 41.367188 26.580078 L 41.677734 25.523438 L 39.757812 24.960938 z M 38.769531 27.009766 C 38.967999 26.996838 39.168262 26.998867 39.367188 27.015625 C 39.632421 27.037969 39.897 27.086109 40.15625 27.162109 C 41.15425 27.455109 41.999719 28.12525 42.511719 29.03125 C 43.043719 29.97125 43.173141 31.088 42.869141 32.125 C 42.576141 33.123 41.906 33.968469 41 34.480469 C 40.06 35.012469 38.94325 35.141891 37.90625 34.837891 C 36.90825 34.544891 36.060828 33.87475 35.548828 32.96875 C 35.016828 32.02875 34.887406 30.912 35.191406 29.875 C 35.484406 28.877 36.154547 28.031531 37.060547 27.519531 C 37.589297 27.220281 38.174127 27.048547 38.769531 27.009766 z M 25.439453 29.931641 L 23.449219 30.126953 L 23.556641 31.226562 C 22.946641 31.414563 22.378812 31.717141 21.882812 32.119141 L 21.027344 31.417969 L 19.757812 32.962891 L 20.611328 33.664062 C 20.311328 34.229063 20.124641 34.846422 20.056641 35.482422 L 18.960938 35.589844 L 19.15625 37.580078 L 20.255859 37.472656 C 20.443859 38.082656 20.746437 38.650484 21.148438 39.146484 L 20.447266 40.001953 L 21.992188 41.271484 L 22.693359 40.417969 C 23.258359 40.717969 23.875719 40.904656 24.511719 40.972656 L 24.619141 42.068359 L 26.609375 41.873047 L 26.501953 40.773438 C 27.111953 40.585438 27.679781 40.282859 28.175781 39.880859 L 29.03125 40.582031 L 30.300781 39.037109 L 29.447266 38.335938 C 29.747266 37.770938 29.933953 37.153578 30.001953 36.517578 L 31.097656 36.410156 L 30.902344 34.419922 L 29.802734 34.527344 C 29.614734 33.917344 29.312156 33.349516 28.910156 32.853516 L 29.611328 31.998047 L 28.066406 30.728516 L 27.365234 31.582031 C 26.800234 31.282031 26.182875 31.095344 25.546875 31.027344 L 25.439453 29.931641 z M 25.412109 32.017578 C 26.178141 32.091313 26.912938 32.386297 27.523438 32.873047 C 28.368438 33.547047 28.904766 34.533375 29.009766 35.609375 C 29.111766 36.645375 28.80525 37.680141 28.15625 38.494141 C 27.48225 39.339141 26.493969 39.875469 25.417969 39.980469 C 24.381969 40.082469 23.349156 39.775953 22.535156 39.126953 C 21.690156 38.452953 21.153828 37.464672 21.048828 36.388672 C 20.946828 35.352672 21.253344 34.319859 21.902344 33.505859 C 22.576344 32.660859 23.562672 32.124531 24.638672 32.019531 C 24.897672 31.993981 25.156766 31.992998 25.412109 32.017578 z M 34.029297 36 L 34.029297 37.105469 C 33.403297 37.233469 32.808391 37.480031 32.275391 37.832031 L 31.494141 37.050781 L 30.080078 38.464844 L 30.861328 39.246094 C 30.508328 39.779094 30.259859 40.374 30.130859 41 L 29.029297 41 L 29.029297 43 L 30.134766 43 C 30.262766 43.626 30.509328 44.220906 30.861328 44.753906 L 30.080078 45.535156 L 31.494141 46.949219 L 32.275391 46.167969 C 32.808391 46.520969 33.403297 46.769438 34.029297 46.898438 L 34.029297 48 L 36.029297 48 L 36.029297 46.894531 C 36.655297 46.766531 37.250203 46.519969 37.783203 46.167969 L 38.564453 46.949219 L 39.978516 45.535156 L 39.197266 44.753906 C 39.550266 44.220906 39.798733 43.626 39.927734 43 L 41.029297 43 L 41.029297 41 L 39.923828 41 C 39.795828 40.374 39.549266 39.779094 39.197266 39.246094 L 39.978516 38.464844 L 38.564453 37.050781 L 37.783203 37.832031 C 37.250203 37.479031 36.655297 37.230562 36.029297 37.101562 L 36.029297 36 L 34.029297 36 z M 35.029297 38 C 36.070297 38 37.069406 38.405859 37.816406 39.130859 C 38.591406 39.883859 39.029297 40.919 39.029297 42 C 39.029297 43.041 38.623438 44.040109 37.898438 44.787109 C 37.145437 45.562109 36.110297 46 35.029297 46 C 33.988297 46 32.989187 45.594141 32.242188 44.869141 C 31.467187 44.116141 31.029297 43.081 31.029297 42 C 31.029297 40.959 31.435156 39.959891 32.160156 39.212891 C 32.913156 38.437891 33.948297 38 35.029297 38 z "
     class="ColorScheme-Text"
     />
</svg>
