<svg xmlns="http://www.w3.org/2000/svg" viewBox="0 0 64 64">
  <defs id="defs3051">
    <style type="text/css" id="current-color-scheme">
      .ColorScheme-Text {
        color:#232629;
      }
      .ColorScheme-Highlight {
        color:#3daee9;
      }
      </style>
  </defs>
 <path 
     style="fill:currentColor" 
     d="M 4 6 L 4 11 L 4 20 L 3 20 L 3 21 L 3 21 C 3 21 3 21 3 21 L 3 57 L 3 58 L 4 58 L 60 58 L 61 58 L 61 57 L 61 21 L 61 21 L 61 16 L 60 16 L 60 11 C 60 11 60 11 60 11 L 60 11 L 60 10 L 32 10 L 28 6 L 4 6 z "
     class="ColorScheme-Highlight"
     />
 <path 
     style="fill-opacity:0.33"
     d="M 4 6 L 4 11 L 4 20 L 22 20 L 26 16 L 60 16 L 60 11 C 60 11 60 11 60 11 L 60 11 L 60 10 L 32 10 L 28 6 L 4 6 z "
     />
 <path 
     style="fill:#ffffff;fill-opacity:0.2"
     d="M 28 6 L 31 11 L 33 11 L 60 11 L 60 10 L 33 10 L 32 10 L 28 6 z M 26 16 L 22 20 L 3 20 L 3 21 L 23 21 L 26 16 z "
     />
 <path 
     style="fill-opacity:0.2;fill-rule:evenodd"
     d="M 26 16 L 20 19 L 4 19 L 4 20 L 22 20 L 26 16 z M 3 57 L 3 58 L 4 58 L 60 58 L 61 58 L 61 57 L 60 57 L 4 57 L 3 57 z "
     class="ColorScheme-Text"
     />
 <path 
     style="fill:currentColor;fill-opacity:0.6;stroke:none"  
     d="M 22 27 L 22 47 L 42 47 L 42 27 L 22 27 z M 23 28 L 25 28 L 25 30 L 23 30 L 23 28 z M 39 28 L 41 28 L 41 30 L 39 30 L 39 28 z M 26 29 L 38 29 L 38 36 L 26 36 L 26 29 z M 23 32 L 25 32 L 25 34 L 23 34 L 23 32 z M 39 32 L 41 32 L 41 34 L 39 34 L 39 32 z M 23 36 L 25 36 L 25 38 L 23 38 L 23 36 z M 39 36 L 41 36 L 41 38 L 39 38 L 39 36 z M 26 38 L 38 38 L 38 45 L 26 45 L 26 38 z M 23 40 L 25 40 L 25 42 L 23 42 L 23 40 z M 39 40 L 41 40 L 41 42 L 39 42 L 39 40 z M 23 44 L 25 44 L 25 46 L 23 46 L 23 44 z M 39 44 L 41 44 L 41 46 L 39 46 L 39 44 z "
     class="ColorScheme-Text"
     />
</svg>
