<svg xmlns="http://www.w3.org/2000/svg" viewBox="0 0 64 64">
  <defs id="defs3051">
    <style type="text/css" id="current-color-scheme">
      .ColorScheme-Text {
        color:#232629;
      }
      .ColorScheme-Highlight {
        color:#3daee9;
      }
      </style>
  </defs>
 <path 
     style="fill:currentColor" 
     d="M 4 6 L 4 11 L 4 20 L 3 20 L 3 21 L 3 21 C 3 21 3 21 3 21 L 3 57 L 3 58 L 4 58 L 60 58 L 61 58 L 61 57 L 61 21 L 61 21 L 61 16 L 60 16 L 60 11 C 60 11 60 11 60 11 L 60 11 L 60 10 L 32 10 L 28 6 L 4 6 z "
     class="ColorScheme-Highlight"
     />
 <path 
     style="fill-opacity:0.33"
     d="M 4 6 L 4 11 L 4 20 L 22 20 L 26 16 L 60 16 L 60 11 C 60 11 60 11 60 11 L 60 11 L 60 10 L 32 10 L 28 6 L 4 6 z "
     />
 <path 
     style="fill:#ffffff;fill-opacity:0.2"
     d="M 28 6 L 31 11 L 33 11 L 60 11 L 60 10 L 33 10 L 32 10 L 28 6 z M 26 16 L 22 20 L 3 20 L 3 21 L 23 21 L 26 16 z "
     />
 <path 
     style="fill-opacity:0.2;fill-rule:evenodd"
     d="M 26 16 L 20 19 L 4 19 L 4 20 L 22 20 L 26 16 z M 3 57 L 3 58 L 4 58 L 60 58 L 61 58 L 61 57 L 60 57 L 4 57 L 3 57 z "
     class="ColorScheme-Text"
     />
 <path 
     style="fill:currentColor;fill-opacity:0.6;stroke:none"  
     d="m 41.855469,21.533203 c -0.139647,-0.0015 -0.282893,0.03697 -0.417969,0.123047 -0.07213,0.05001 -0.385472,0.425594 -0.693359,0.835938 l -0.560547,0.753906 -0.203125,-0.138672 c -0.284282,-0.187471 -0.55859,-0.228932 -0.814453,-0.113281 -0.176841,0.07963 -0.591287,0.614683 -3.310547,4.230468 -1.716105,2.279485 -3.111562,4.162312 -3.107422,4.191407 0.0035,0.02429 0.700245,0.568399 1.542969,1.201172 l 1.541015,1.158203 2.027344,-2.701172 c 1.115814,-1.486038 2.044153,-2.688584 2.066406,-2.671875 0.07221,0.054 0.203602,1.220584 0.177735,1.595703 -0.01038,0.204619 -0.08692,0.572324 -0.166016,0.816406 -0.141079,0.436168 -0.156441,0.461731 -2.669922,3.820313 -1.390105,1.856755 -2.547544,3.433763 -2.568359,3.496093 -0.05969,0.171885 0.0065,0.493385 0.136719,0.677735 0.217427,0.310816 0.755221,0.40905 1.060546,0.1875 0.210926,-0.153912 5.189351,-6.855511 5.347657,-7.205078 0.462421,-0.996847 0.55817,-2.273342 0.265625,-3.529297 -0.115589,-0.498507 -0.266728,-0.977695 -0.414063,-1.31836 -0.04292,-0.09301 0.02849,-0.212022 0.494141,-0.83789 0.44001,-0.59744 0.5409,-0.765211 0.548828,-0.919922 0.01742,-0.329262 -0.08323,-0.512537 -0.40625,-0.763672 L 41.431641,24.1875 42.029297,23.384766 c 0.48992,-0.66391 0.595841,-0.837513 0.603515,-0.992188 0.02217,-0.493136 -0.358403,-0.854896 -0.777343,-0.859375 z m -10.06836,11.132813 c -0.01467,0.0021 -1.843241,2.431773 -4.066406,5.392578 -3.575693,4.767816 -4.084274,5.473542 -4.414062,6.080078 -0.6552,1.207545 -1.368191,3.048522 -1.841797,4.730469 -0.306992,1.078754 -0.322411,0.981133 0.105468,0.751953 1.319795,-0.712818 3.043808,-1.869944 4.046876,-2.720703 0.98083,-0.832882 1.147835,-1.044642 5.302734,-6.578125 l 3.996094,-5.328125 -1.552735,-1.166016 C 32.509286,33.18689 31.801783,32.663928 31.787109,32.666016 Z m 0.449219,12.339843 c -0.19625,-0.01112 -0.398297,-0.005 -0.529297,0.02148 v 0.002 c -0.621,0.131 -1.312484,0.669062 -1.646484,1.289062 -0.09,0.161 -0.233266,0.525782 -0.322266,0.800782 -0.084,0.28 -0.161969,0.513531 -0.167969,0.519531 -0.048,0.06 -1.235593,0.344844 -1.933593,0.464844 -1.641,0.287 -2.089,0.393968 -2.25,0.542968 -0.316,0.292 -0.07105,0.586079 0.376953,0.455078 0.119,-0.036 0.626234,-0.136703 1.115234,-0.220703 0.49,-0.084 1.235203,-0.238984 1.658203,-0.333984 0.424,-0.101 0.782782,-0.168391 0.800782,-0.150391 0.018,0.018 -0.05302,0.357813 -0.166016,0.757813 l -0.203125,0.716797 -0.449219,0.197265 c -0.245,0.107 -0.59625,0.291969 -0.78125,0.417969 -0.561,0.37 -0.66939,0.834813 -0.27539,1.132813 0.215,0.161 0.81164,0.15514 1.18164,-0.0059 0.328,-0.149 0.512531,-0.35739 0.769531,-0.90039 0.137001,-0.281 0.245126,-0.429266 0.328126,-0.447266 0.066,-0.018 0.658453,-0.137391 1.314453,-0.275391 0.657,-0.131 1.253078,-0.25739 1.330078,-0.27539 0.125,-0.03 0.137562,-0.0183 0.101562,0.0957 -0.024,0.072 -0.132093,0.281797 -0.246093,0.466797 -0.113,0.185 -0.203126,0.40514 -0.203126,0.49414 0,0.185 0.15625,0.370266 0.28125,0.322266 0.048,-0.018 0.112579,-0.03516 0.142579,-0.03516 0.03,0 0.161968,-0.09584 0.292968,-0.214844 0.245,-0.221 0.835938,-1.302297 0.835938,-1.529297 0,-0.113 0.08958,-0.141734 0.142578,-0.05273 0.018,0.03 0.153734,0.08414 0.302734,0.11914 0.209,0.054 0.269532,0.09445 0.269532,0.189453 0,0.185001 0.305218,0.454813 0.574218,0.507813 0.209,0.036 0.477672,-0.006 0.763672,-0.125 0.101,-0.042 0.107266,-0.03 0.07227,0.125 -0.024,0.096 -0.197813,0.400641 -0.382813,0.681641 -0.394,0.585 -0.871093,1.515734 -0.996093,1.927734 -0.101,0.352 -0.06,0.615234 0.125,0.740234 0.167,0.107 0.440984,0.05834 0.583984,-0.09766 0.125,-0.137 0.806641,-1.574469 1.056641,-2.230469 0.179,-0.46 0.261968,-0.585625 0.667968,-1.015625 0.334,-0.352 0.443094,-0.435828 0.371094,-0.298828 -0.119,0.257 -0.113422,0.453266 0.01758,0.572266 0.28,0.257 0.686063,0.0063 1.039063,-0.638672 0.209,-0.382 0.364625,-0.494375 1.140625,-0.859375 l 0.404297,-0.185547 -0.04102,0.220703 c -0.024,0.119 -0.161687,0.459953 -0.304687,0.751953 -0.281,0.591 -0.333016,0.967063 -0.166016,1.289063 0.113,0.221 0.23225,0.228109 0.78125,0.03711 0.764,-0.257 1.760531,-0.849453 2.019531,-1.189453 0.352,-0.478 0.460094,-0.936797 0.246094,-1.091797 -0.221,-0.161 -0.345953,-0.09559 -0.626953,0.316406 -0.376,0.561 -0.841063,0.99775 -1.289063,1.21875 -0.209,0.107 -0.394109,0.178157 -0.412109,0.160157 -0.024,-0.024 0.452984,-1.307157 0.708984,-1.910157 0.054,-0.125 0.09766,-0.280703 0.09766,-0.345703 0,-0.167 -0.209671,-0.357421 -0.388671,-0.357421 -0.084,0 -0.479047,0.160281 -0.873047,0.363281 -0.818,0.406 -0.763688,0.441734 -0.554688,-0.322266 0.125,-0.471 0.08387,-0.596953 -0.203125,-0.626953 -0.275,-0.03 -0.381812,0.06081 -0.632812,0.507812 -0.161,0.304001 -0.37511,0.555501 -0.78711,0.9375 -0.543,0.501 -0.567359,0.518688 -0.693359,0.429688 -0.191,-0.137 -0.298672,-0.118719 -0.763672,0.113281 -0.454,0.227 -0.603797,0.257141 -0.716797,0.119141 -0.096,-0.113 0.05477,-0.172984 0.884766,-0.333984 0.806,-0.155001 0.90625,-0.198235 0.90625,-0.365235 0,-0.269 -0.221234,-0.524266 -0.615235,-0.697265 -0.680999,-0.304001 -0.756687,-0.323094 -1.054687,-0.246094 -0.322,0.084 -0.800234,0.543078 -0.865234,0.830078 -0.066,0.299 -0.269532,0.208859 -0.269532,-0.119141 0,-0.137 -0.167672,-0.482969 -0.263671,-0.542969 -0.203001,-0.137 -0.530251,0.161938 -0.78125,0.710938 l -0.197266,0.423828 -0.441406,0.0957 c -0.573,0.125 -2.237985,0.458953 -2.458985,0.501953 -0.143,0.024 -0.166719,0.01174 -0.136719,-0.07227 0.024,-0.06 0.09502,-0.320844 0.166016,-0.589844 0.185,-0.74 0.239813,-0.836641 0.507813,-0.931641 0.322,-0.113 1.409453,-0.579656 1.689453,-0.722656 0.131,-0.066 0.398703,-0.268266 0.595703,-0.447266 0.603,-0.560999 0.697578,-1.08089 0.267578,-1.46289 -0.119,-0.101 -0.274703,-0.208281 -0.345703,-0.238281 -0.11,-0.042 -0.299844,-0.07091 -0.496094,-0.08203 z m -0.601562,0.697266 c 0.08289,-0.0047 0.180937,-0.0016 0.304687,0.0059 0.316,0.018 0.44225,0.04758 0.53125,0.142578 0.119,0.119 0.118719,0.124563 0.01172,0.351563 -0.072,0.143 -0.238266,0.311078 -0.447266,0.455078 -0.364,0.251 -1.505015,0.709953 -1.541015,0.626953 -0.048,-0.137 0.317781,-0.95575 0.550781,-1.21875 0.2325,-0.264 0.341172,-0.349312 0.589844,-0.363281 z m -3.064454,4.998047 c 0.0455,0.003 0.04631,0.04269 0.0078,0.117187 -0.078,0.149 -0.281531,0.256844 -0.394531,0.214844 -0.131,-0.054 -0.09572,-0.124422 0.113281,-0.232422 0.1375,-0.0685 0.227937,-0.102609 0.273437,-0.09961 z"
     class="ColorScheme-Text"
     />
</svg>
