<svg xmlns="http://www.w3.org/2000/svg" viewBox="0 0 64 64">
  <defs id="defs3051">
    <style type="text/css" id="current-color-scheme">
      .ColorScheme-Text {
        color:#232629;
      }
      .ColorScheme-Highlight {
        color:#3daee9;
      }
      </style>
  </defs>
 <path 
     style="fill:currentColor" 
     d="M 4 6 L 4 11 L 4 20 L 3 20 L 3 21 L 3 21 C 3 21 3 21 3 21 L 3 57 L 3 58 L 4 58 L 60 58 L 61 58 L 61 57 L 61 21 L 61 21 L 61 16 L 60 16 L 60 11 C 60 11 60 11 60 11 L 60 11 L 60 10 L 32 10 L 28 6 L 4 6 z "
     class="ColorScheme-Highlight"
     />
 <path 
     style="fill-opacity:0.33"
     d="M 4 6 L 4 11 L 4 20 L 22 20 L 26 16 L 60 16 L 60 11 C 60 11 60 11 60 11 L 60 11 L 60 10 L 32 10 L 28 6 L 4 6 z "
     />
 <path 
     style="fill:#ffffff;fill-opacity:0.2"
     d="M 28 6 L 31 11 L 33 11 L 60 11 L 60 10 L 33 10 L 32 10 L 28 6 z M 26 16 L 22 20 L 3 20 L 3 21 L 23 21 L 26 16 z "
     />
 <path 
     style="fill-opacity:0.2;fill-rule:evenodd"
     d="M 26 16 L 20 19 L 4 19 L 4 20 L 22 20 L 26 16 z M 3 57 L 3 58 L 4 58 L 60 58 L 61 58 L 61 57 L 60 57 L 4 57 L 3 57 z "
     class="ColorScheme-Text"
     />
 <path 
     style="fill:currentColor;fill-opacity:0.6;stroke:none"  
     d="M 25 27 L 25 28 L 25 33 L 22 33 L 22 34.5 L 22 43 L 23 43 L 27 43 L 27 45.75 L 27 47 L 37 47 L 37 45.75 L 37 43 L 42 43 L 42 42 L 42 34.5 L 42 33 L 39 33 L 39 28 L 39 27 L 25 27 z M 26 28 L 38 28 L 38 33 L 37 33 L 27 33 L 26 33 L 26 28 z M 27 29 L 27 30 L 37 30 L 37 29 L 27 29 z M 27 31 L 27 32 L 37 32 L 37 31 L 27 31 z M 23 34 L 41 34 L 41 42 L 38 42 L 38 39 L 26 39 L 26 42 L 23 42 L 23 34 z M 36 36 L 36 37 L 39 37 L 39 36 L 36 36 z M 28 43 L 36 43 L 36 46 L 28 46 L 28 43 z "
     class="ColorScheme-Text"
     />
</svg>
