<svg xmlns="http://www.w3.org/2000/svg" viewBox="0 0 64 64">
  <defs id="defs3051">
    <style type="text/css" id="current-color-scheme">
      .ColorScheme-Text {
        color:#232629;
      }
      .ColorScheme-Highlight {
        color:#3daee9;
      }
      </style>
  </defs>
 <path 
     style="fill:currentColor" 
     d="M 4 6 L 4 11 L 4 20 L 3 20 L 3 21 L 3 21 C 3 21 3 21 3 21 L 3 57 L 3 58 L 4 58 L 60 58 L 61 58 L 61 57 L 61 21 L 61 21 L 61 16 L 60 16 L 60 11 C 60 11 60 11 60 11 L 60 11 L 60 10 L 32 10 L 28 6 L 4 6 z "
     class="ColorScheme-Highlight"
     />
 <path 
     style="fill-opacity:0.33"
     d="M 4 6 L 4 11 L 4 20 L 22 20 L 26 16 L 60 16 L 60 11 C 60 11 60 11 60 11 L 60 11 L 60 10 L 32 10 L 28 6 L 4 6 z "
     />
 <path 
     style="fill:#ffffff;fill-opacity:0.2"
     d="M 28 6 L 31 11 L 33 11 L 60 11 L 60 10 L 33 10 L 32 10 L 28 6 z M 26 16 L 22 20 L 3 20 L 3 21 L 23 21 L 26 16 z "
     />
 <path 
     style="fill-opacity:0.2;fill-rule:evenodd"
     d="M 26 16 L 20 19 L 4 19 L 4 20 L 22 20 L 26 16 z M 3 57 L 3 58 L 4 58 L 60 58 L 61 58 L 61 57 L 60 57 L 4 57 L 3 57 z "
     class="ColorScheme-Text"
     />
 <path 
     style="fill:currentColor;fill-opacity:0.6;stroke:none"  
     d="M 30 27 L 27 28 L 27 30.5 L 25.5 32 L 23.8 30.7 L 22 33 L 23 35 L 23 41 L 27 41 L 27 43 L 30 43 L 30 41 L 34 41 L 34 43 L 37 43 L 37 41 L 41 41 L 41 35 L 42 33 L 40.2 30.7 L 38.5 32 L 37 30.5 L 37 28 C 37 28 34.9 27.2 34 27 C 33.6 27.6 33.3 28.3 33 29 L 31 29 C 30.7 28.3 30 27 30 27 z M 27.5 35 A 2.5 2.5 0 0 1 30 37.5 A 2.5 2.5 0 0 1 27.5 40 A 2.5 2.5 0 0 1 25 37.5 A 2.5 2.5 0 0 1 27.5 35 z M 36.5 35 A 2.5 2.5 0 0 1 39 37.5 A 2.5 2.5 0 0 1 36.5 40 A 2.5 2.5 0 0 1 34 37.5 A 2.5 2.5 0 0 1 36.5 35 z M 27.5 36 A 1.5 1.5 0 0 0 26 37.5 A 1.5 1.5 0 0 0 27.5 39 A 1.5 1.5 0 0 0 29 37.5 A 1.5 1.5 0 0 0 27.5 36 z M 32 36 C 32.5 36 33 36.5 33 37 L 33 39 C 33 39.5 32.5 40 32 40 C 31.5 40 31 39.5 31 39 L 31 37 C 31 36.5 31.446 36 32 36 z M 36.5 36 A 1.5 1.5 0 0 0 35 37.5 A 1.5 1.5 0 0 0 36.5 39 A 1.5 1.5 0 0 0 38 37.5 A 1.5 1.5 0 0 0 36.5 36 z M 23 42 L 23 42.5 C 23 45.8 27.1 47 32 47 L 32 47 L 32 47 C 36.9 47 41 45.5 41 42.2 C 41 42.1 41 42.3 41 42 L 38 42 L 38 44 L 33 44 L 33 42 L 31 42 L 31 44 L 26 44 L 26 42 L 23 42 z "
     class="ColorScheme-Text"
     />
</svg>
