<svg xmlns="http://www.w3.org/2000/svg" viewBox="0 0 64 64">
  <defs id="defs3051">
    <style type="text/css" id="current-color-scheme">
      .ColorScheme-Text {
        color:#232629;
      }
      .ColorScheme-Highlight {
        color:#3daee9;
      }
      </style>
  </defs>
 <path 
     style="fill:#3bad7e" 
     d="M 4 6 L 4 11 L 4 20 L 3 20 L 3 21 L 3 21 C 3 21 3 21 3 21 L 3 57 L 3 58 L 4 58 L 60 58 L 61 58 L 61 57 L 61 21 L 61 21 L 61 16 L 60 16 L 60 11 C 60 11 60 11 60 11 L 60 11 L 60 10 L 32 10 L 28 6 L 4 6 z "
     />
 <path 
     style="fill-opacity:0.33"
     d="M 4 6 L 4 11 L 4 20 L 22 20 L 26 16 L 60 16 L 60 11 C 60 11 60 11 60 11 L 60 11 L 60 10 L 32 10 L 28 6 L 4 6 z "
     />
 <path 
     style="fill:#ffffff;fill-opacity:0.2"
     d="M 28 6 L 31 11 L 33 11 L 60 11 L 60 10 L 33 10 L 32 10 L 28 6 z M 26 16 L 22 20 L 3 20 L 3 21 L 23 21 L 26 16 z "
     />
 <path 
     style="fill-opacity:0.2;fill-rule:evenodd"
     d="M 26 16 L 20 19 L 4 19 L 4 20 L 22 20 L 26 16 z M 3 57 L 3 58 L 4 58 L 60 58 L 61 58 L 61 57 L 60 57 L 4 57 L 3 57 z "
     class="ColorScheme-Text"
     />
 <path 
     style="fill:currentColor;fill-opacity:0.6;stroke:none"  
     d="M 30.009766 25.875 C 30.614328 26.126965 31.118789 26.582608 31.496094 27.236328 L 34.189453 31.919922 L 32.503906 32.875 L 37.966797 32.953125 L 40.636719 28.166016 L 38.976562 29.150391 L 37.439453 26.53125 C 37.186715 26.102729 36.759196 25.875 36.205078 25.875 L 30.009766 25.875 z M 28.576172 26.101562 C 27.620042 26.101563 26.837311 26.5549 26.359375 27.386719 L 24.068359 31.339844 L 28.876953 34.134766 L 31.849609 28.998047 L 30.992188 27.5625 C 30.413619 26.581663 29.608225 26.101562 28.576172 26.101562 z M 41.164062 33 L 36.355469 35.744141 L 39.326172 40.882812 L 40.988281 40.882812 C 41.515632 40.882813 42.045494 40.755284 42.423828 40.552734 C 43.228624 40.10002 43.808594 39.143043 43.808594 38.236328 C 43.808594 37.8 43.682336 37.356167 43.455078 36.953125 L 41.164062 33 z M 25.681641 34.160156 L 20.191406 34.263672 L 21.878906 35.21875 L 20.367188 37.863281 C 20.266553 38.039322 20.191406 38.315712 20.191406 38.542969 C 20.191406 38.76997 20.266299 39.021739 20.367188 39.197266 L 23.515625 44.609375 C 23.490915 44.433848 23.490234 44.308584 23.490234 44.208984 C 23.490234 43.780206 23.691651 43.098683 23.943359 42.646484 L 23.941406 42.646484 L 26.636719 37.988281 L 28.349609 38.970703 L 25.681641 34.160156 z M 35.648438 39.521484 L 32.830078 44.230469 L 35.648438 48.939453 L 35.648438 47 L 38.595703 47 C 39.124341 47 39.576418 46.748061 39.828125 46.320312 L 42.951172 40.882812 C 42.422791 41.284824 41.793672 41.486328 41.039062 41.486328 L 35.648438 41.486328 L 35.648438 39.521484 z M 25.326172 41.4375 L 24.521484 42.871094 C 24.269776 43.298843 24.09375 43.979771 24.09375 44.4 C 24.09375 45.817907 25.275842 47.001953 26.710938 47.001953 L 31.294922 47.001953 L 31.294922 41.4375 L 25.326172 41.4375 z "
     class="ColorScheme-Text"
     />
</svg>
