<svg xmlns="http://www.w3.org/2000/svg" viewBox="0 0 64 64">
  <defs id="defs3051">
    <style type="text/css" id="current-color-scheme">
      .ColorScheme-Text {
        color:#31363b;
      }
      .ColorScheme-Highlight {
        color:#3daee9;
      }
      </style>
  </defs>
  <path
     style="fill:#a7afb4"
     d="m 9,15 v 41.6 c 0,0.8 0.6,1.4 1.5,1.4 h 37 c 0.8,0 1.5,-0.6 1.5,-1.4 V 15 Z"
     />
  <path
     style="fill-opacity:0.33"
     d="M 15.5,19 C 14.6,19 14,19.6 14,20.4 v 33.2 c 0,0.8 0.6,1.4 1.5,1.4 0.9,0 1.5,-0.6 1.5,-1.4 V 20.4 C 17,19.6 16.3,19 15.5,19 Z m 9,0 C 23.6,19 23,19.6 23,20.4 v 33.2 c 0,0.8 0.6,1.4 1.5,1.4 0.9,0 1.5,-0.6 1.5,-1.4 V 20.4 C 26,19.6 25.3,19 24.5,19 Z m 9,0 C 32.6,19 32,19.6 32,20.4 v 33.2 c 0,0.8 0.6,1.4 1.5,1.4 0.9,0 1.5,-0.6 1.5,-1.4 V 20.4 C 35,19.6 34.3,19 33.5,19 Z m 9,0 C 41.6,19 41,19.6 41,20.4 v 33.2 c 0,0.8 0.6,1.4 1.5,1.4 0.9,0 1.5,-0.6 1.5,-1.4 V 20.4 C 44,19.6 43.3,19 42.5,19 Z"
     />
  <path
     style="fill-opacity:0.33"
     d="m 9,55.5 v 1 c 0,0.8 0.6,1.5 1.5,1.5 h 37 c 0.8,0 1.5,-0.6 1.5,-1.5 v -1 c 0,0.8 -0.6,1.5 -1.5,1.5 h -37 C 9.7,57 9,56.4 9,55.5 Z"
     />
  <path
     style="fill:#a7afb4"
     d="m 59.3,25.343462 c -0.1,-1 -1.2,-1.9 -2.1,-1.8 l -3,0.2 -1,-12 c -0,-1 -1.2,-1.9 -3.2,-1.7 l -0.9,0 c 0,0 4,46.5 4.1,47.8 l 1,-0.1 c 2,-0.2 2.9,-1.2 2.8,-2.2 L 55.9,43.7 58.9,43.4 c 1,-0.1 1.9,-1.2 1.8,-2.2 z m -2.9,1.2 1.2,14 -2,0.2 -1.2,-14 z"
     />
  <path
     style="fill-opacity:0.33"
     d="m 57.4,26.3 c -0,-0.7 -0.4,-0.7 -0.8,-0.7 l -2.3,0.2 0.1,1 2,-0.2 1.2,14 -2,0.2 0,1 2.2,-0.2 c 0.4,-0 0.8,-0.4 0.7,-0.8 z m -7.4,-16.2 -1,0.1 L 53.1,58 l 1,-0 z"
     />
  <path
     style="fill:#8b6039"
     d="m 33,5 -7,10 -9,-6 -6,6 v 1 l 6,11 31,-12 z"
     />
  <path
     style="fill:#ffffff;fill-opacity:0.9"
     d="m 13,15 3,6 9.6,-2.9 L 34,25 46,15 Z"
     />
</svg>
