<svg version="1.1" viewBox="0 0 32 32" xmlns="http://www.w3.org/2000/svg">
    <style id="current-color-scheme" type="text/css">
        .ColorScheme-Text {
            color:#eff0f1;
        }
        .ColorScheme-NegativeText {
            color:#da4453;
        }
    </style>
    <path class="ColorScheme-Text" d="m12.002 19.002c-3.424 0-6.377 1.842-8 4.578v2.088s0 1.333 1.333 1.333h4c1.334 0 1.334-1.333 1.334-1.333v-.667c0-1.108.892-2 2-2h6.666c1.108 0 2 .892 2 2v.667s0 1.333 1.334 1.333h4c1.333 0 1.333-1.333 1.333-1.333v-2.088c-1.623-2.736-4.576-4.578-8-4.578z" fill="currentColor"/>
    <path class="ColorScheme-NegativeText" d="M 5.5,5.7929688 4.792969,6.5 16,17.707031 27,6.7070312 V 11 h 1 V 5 h -6 v 1 h 4.292969 L 16,16.292969 Z" fill="currentColor"/>
</svg>
