<svg version="1.1" viewBox="0 0 22 22" xmlns="http://www.w3.org/2000/svg">
 <path d="m4 0c-0.473 0-1 0.527-1 1v20c0 0.445 0.555 1 1 1h14c0.445 0 0.992-0.555 1-1v-15l-6-6z" style="fill:#a60a3f"/>
 <path d="m14 6 5 5v-5z" style="fill-opacity:.196"/>
 <path d="m13 0 6 6h-5c-0.445 0-1-0.555-1-1z" style="fill-opacity:.392;fill:#fff"/>
 <path d="m6.2773 9c-0.7976 1.1036-1.2773 2.4897-1.2773 4 0 1.5221 0.57191 2.9034 1.4434 4h5.5566c-1.8266-7.5e-4 -3-1.7909-3-4h8c0-1.5103-0.47975-2.8964-1.2773-4h-4.7227a2 2 0 0 1 2 2h-4a2 2 0 0 1 2-2zm5.7227 8h3.9492c0.40425-0.44681 0.76759-0.94235 1.0508-1.5l-1.9727-0.92383c-0.66466 1.4728-1.8313 2.4243-3.0273 2.4238z" style="fill:#fff;paint-order:normal"/>
</svg>
