<svg version="1.1" viewBox="0 0 22 22" xmlns="http://www.w3.org/2000/svg">
 <path d="m4 0c-0.473 0-1 0.527-1 1v20c0 0.445 0.555 1 1 1h14c0.445 0 0.992-0.555 1-1v-15l-6-6z" style="fill:#dda06a"/>
 <path d="m14 6 5 5v-5z" style="fill-opacity:.196"/>
 <path d="m10.533 5.904c-0.983 0.32-0.121 1.831-1.523 2.572-1.609 0.842-2.408-1.286-3.373 0.231-0.965 1.523 1.333 1.286 1.264 3.076-0.063 1.796-2.339 1.41-1.483 2.993 0.851 1.582 1.799-0.492 3.345 0.45 1.54 0.948 0.069 2.702 1.885 2.756 1.822 0.059 0.471-1.778 2.075-2.619 1.609-0.847 2.408 1.286 3.373-0.237s-1.333-1.286-1.264-3.076c0.063-1.79 2.339-1.41 1.483-2.993-0.851-1.576-1.799 0.498-3.345-0.45-1.54-0.948-0.069-2.697-1.885-2.756-0.23-6e-3 -0.408 6e-3 -0.552 0.053zm0.023 4.557c0.81-0.172 1.609 0.344 1.782 1.15 0.172 0.8-0.345 1.588-1.161 1.76-0.81 0.172-1.609-0.338-1.782-1.144-0.172-0.806 0.345-1.594 1.161-1.766z" style="fill:#fff"/>
 <path d="m13 0 6 6h-5c-0.445 0-1-0.555-1-1z" style="fill-opacity:.392;fill:#fff"/>
</svg>
