<svg viewBox="0 0 64 64" xmlns="http://www.w3.org/2000/svg" xmlns:xlink="http://www.w3.org/1999/xlink">
    <linearGradient id="a" gradientTransform="matrix(.94736842 0 0 .97777778 1.684211 .244444)" gradientUnits="userSpaceOnUse" x1="13" x2="51" y1="14.5" y2="52.5">
        <stop offset="0" stop-color="#fdd898"/>
        <stop offset=".16666649" stop-color="#fdd58f"/>
        <stop offset=".33333299" stop-color="#fdd898"/>
        <stop offset=".49999976" stop-color="#fdce7d"/>
        <stop offset=".66666651" stop-color="#fdd286"/>
        <stop offset=".83333325" stop-color="#fdc86d"/>
        <stop offset="1" stop-color="#fdc665"/>
    </linearGradient>
    <linearGradient id="b" gradientTransform="matrix(.95 0 0 .9787234 -62.4 -65.787234)" gradientUnits="userSpaceOnUse" x1="12" x2="52" y1="13.5" y2="53.5">
        <stop offset="0" stop-color="#63984b"/>
        <stop offset="1" stop-color="#8fc278"/>
    </linearGradient>
    <linearGradient id="c" gradientUnits="userSpaceOnUse" x1="34" x2="11" y1="58" y2="6">
        <stop offset="0" stop-color="#a1a9b1"/>
        <stop offset="1" stop-color="#d6d9dc"/>
    </linearGradient>
    <linearGradient id="d" gradientUnits="userSpaceOnUse" x1="12" x2="52" y1="12" y2="52">
        <stop offset="0" stop-color="#fcfcfc"/>
        <stop offset="1" stop-color="#eff0f1"/>
    </linearGradient>
    <g fill-rule="evenodd">
        <path d="m13 6c-1.108 0-2 .892-2 2v48c0 1.108.892 2 2 2h38c1.108 0 2-.892 2-2v-44.707031l-5.292969-5.292969z" fill="url(#c)"/>
        <path d="m13 7c-.554 0-1 .446-1 1v48c0 .554.446 1 1 1h38c.554 0 1-.446 1-1v-44.292969l-4.707031-4.707031z" fill="url(#d)"/>
        <rect fill="url(#b)" height="46" rx="4" transform="scale(-1)" width="38" x="-51" y="-56"/>
        <path d="m17 11c-1.662 0-3 1.338-3 3v14h1.236328c.03662-.054931.036217-.053171.091797-.150391.109793-.192037.251779-.452087.427734-.751953.351913-.599731.837766-1.360667 1.492188-2.113281 1.231142-1.415868 3.107438-2.792744 5.751953-2.953125v1c-2.303014.154444-3.886978 1.331597-4.998047 2.609375-.595577.68494-1.047114 1.39079-1.382812 1.962891-.16785.286049-.306976.537802-.423829.742187-.11685.204385-.175818.34213-.341796.507813-.093756.093764-.220916.146459-.353516.146484h-1.5v8h1.5c.1326.000025.259756.052724.353516.146484.165978.165682.224945.303428.341796.507813.116853.204385.255979.456137.423829.742187.335698.572101.787235 1.277951 1.382812 1.962891 1.191154 1.36988 2.914967 2.640625 5.498047 2.640625h17c2.58308 0 4.306893-1.270745 5.498047-2.640625.595577-.68494 1.047115-1.39079 1.382812-1.962891.16785-.28605.306976-.537802.423829-.742187.116852-.204385.175818-.342131.341796-.507813.093755-.093764.220916-.146459.353516-.146484h1.5v-8h-1.5c-.1326-.000025-.259756-.052725-.353516-.146484-.165979-.165682-.224944-.303428-.341796-.507813-.116853-.204385-.255978-.456138-.423829-.742187-.335698-.572102-.787235-1.277951-1.382812-1.962891-1.191154-1.36988-2.914967-2.640625-5.498047-2.640625h-12a2.5 2.5 0 0 1 -2.5-2.5v-9.5zm10 0v9.5a1.5 1.5 0 0 0 1.5 1.5h8.5v-11zm11 0v11h2.5c2.916467 0 4.943112 1.479146 6.251953 2.984375.654422.752614 1.140278 1.51355 1.492188 2.113281.175956.299866.317944.559916.427734.751953.05558.097221.055177.095461.091797.150391h1.236328v-14c0-1.662-1.338-3-3-3zm-22 21a1 1 0 0 1 1 1 1 1 0 0 1 -1 1 1 1 0 0 1 -1-1 1 1 0 0 1 1-1zm-2 6v14c0 1.662 1.338 3 3 3h9v-11h-2.5c-2.916467 0-4.943115-1.479146-6.251953-2.984375-.654422-.752614-1.140275-1.51355-1.492188-2.113281-.175956-.299866-.317941-.559916-.427734-.751953-.05558-.09722-.055177-.095461-.091797-.150391zm34.763672 0c-.03662.05493-.036217.053171-.091797.150391-.109793.192037-.251778.452087-.427734.751953-.351913.599731-.837766 1.360667-1.492188 2.113281-1.308844 1.505229-3.335486 2.984375-6.251953 2.984375h-2.5v11h9c1.662 0 3-1.338 3-3v-14zm-21.763672 6v11h10v-11z" fill="url(#a)"/>
        <path d="m14 37v1h1.236328c.03662.05493.03622.05317.0918.150391.109793.192037.251778.452087.427734.751953.351913.599731.837766 1.360667 1.492188 2.113281 1.308841 1.505229 3.335483 2.984375 6.25195 2.984375h2.5v11h1v-11h10v11h1v-11h2.5c2.916467 0 4.943109-1.479146 6.251953-2.984375.654422-.752614 1.140275-1.51355 1.492188-2.113281.175956-.299866.317941-.559916.427734-.751953.05558-.09722.05518-.09546.0918-.150391h1.236325v-1h-1.5c-.1326.000025-.25976.05272-.353516.146484-.165978.165682-.224944.303428-.341796.507813-.116853.204385-.255979.456137-.423829.742187-.335698.572101-.787235 1.277951-1.382812 1.962891-1.191154 1.36988-2.914967 2.640625-5.498047 2.640625h-17c-2.58308 0-4.306893-1.270745-5.498047-2.640625-.595577-.68494-1.047114-1.39079-1.382812-1.962891-.16785-.28605-.306976-.537802-.423829-.742187-.116851-.204385-.175818-.342131-.341796-.507813-.093756-.093764-.220916-.146459-.353516-.146484z" opacity=".5" stroke-width=".999997"/>
        <path d="m26 11v9.5a2.5 2.5 0 0 0 2.5 2.5h12c2.58308 0 4.306893 1.270745 5.498047 2.640625.595577.68494 1.047114 1.39079 1.382812 1.962891.16785.28605.306976.537802.423829.742187.116852.204385.175818.342131.341796.507813.093756.093764.220916.146459.353516.146484h1.5v-1h-1.236328c-.03662-.05493-.036217-.05317-.091797-.150391-.10979-.192037-.251778-.452087-.427734-.751953-.351913-.599731-.837766-1.360667-1.492188-2.113281-1.308844-1.505229-3.335486-2.984375-6.251953-2.984375h-2.5v-11h-1v11h-8.5a1.5 1.5 0 0 1 -1.5-1.5v-9.5zm-3 11.03125c-2.644515.160381-4.520811 1.537257-5.751953 2.953125-.654422.752614-1.140275 1.51355-1.492188 2.113281-.175956.299866-.317941.559916-.427734.751953-.05558.09722-.055177.09546-.091797.150391h-1.236328v1h1.5c.1326-.000025.25976-.05272.353516-.146484.165978-.165682.224945-.303428.341796-.507813.116853-.204385.255979-.456137.423829-.742187.335698-.572101.787235-1.277951 1.382812-1.962891 1.111069-1.277778 2.695033-2.454931 4.998047-2.609375z" opacity=".5"/>
        <circle cx="16" cy="33" opacity=".5" r="1"/>
        <path d="m11 55v1c0 1.108.892 2 2 2h38c1.108 0 2-.892 2-2v-1c0 1.108-.892 2-2 2h-38c-1.108 0-2-.892-2-2z" opacity=".2"/>
    </g>
</svg>
