<svg xmlns="http://www.w3.org/2000/svg" xmlns:xlink="http://www.w3.org/1999/xlink" width="64" height="64"><defs><linearGradient id="e" xlink:href="#a" y1="523.798" y2="537.798" x1="408.572" gradientUnits="userSpaceOnUse" x2="422.571" gradientTransform="matrix(1.29989 0 0 1.3 -499.097 -648.937)"/><linearGradient id="a"><stop style="stop-color:#292c2f"/><stop offset="1" style="stop-opacity:0"/></linearGradient><linearGradient id="d" xlink:href="#b" y1="540.798" y2="506.798" x2="0" gradientUnits="userSpaceOnUse" gradientTransform="matrix(1.52928 0 0 1.52941 -592.82 -769.103)"/><linearGradient id="f" xlink:href="#c" y1="540.798" y2="506.798" x2="0" gradientUnits="userSpaceOnUse" gradientTransform="translate(-184.303 -245.305) scale(.52941)"/><linearGradient xlink:href="#c" id="g" y1="517.798" y2="497.798" x2="0" gradientUnits="userSpaceOnUse"/><linearGradient gradientTransform="matrix(1 0 0 -1 -57.847 79.356)" gradientUnits="userSpaceOnUse" x2="0" y2="47" y1="61" id="c"><stop offset="0" stop-color="#fb9fa2"/><stop offset="1" stop-color="#fb7d80"/></linearGradient><linearGradient gradientTransform="matrix(1 0 0 -1 -56 68.746)" gradientUnits="userSpaceOnUse" x2="0" y2="61" y1="3" id="b"><stop stop-color="#cf000f"/><stop stop-color="#d91e18" offset="1"/></linearGradient></defs><path style="fill:url(#d);fill-opacity:1" d="M32 6A25.942 25.942 0 0 0 6.002 32c0 14.404 11.595 26 25.998 26a25.942 25.942 0 0 0 25.998-26C57.998 17.596 46.403 6 32 6zm0 23c1.662 0 3 1.338 3 3s-1.338 3-3 3-3-1.338-3-3 1.338-3 3-3z"/><path style="fill:url(#e);opacity:.2;fill-rule:evenodd" d="m38.125 25.375-.555.883A8 8 0 0 1 40 32a8 8 0 0 1-8 8 8 8 0 0 1-6.33-3.123l-.951.498 17.965 18.309a25.947 25.947 0 0 0 12.998-13L38.125 25.375zm-1.1 1.752-2.289 3.65a2.993 2.993 0 0 1-4.455 3.678l-3.717 1.951A7 7 0 0 0 32 39a7 7 0 0 0 7-7 7 7 0 0 0-1.975-4.873z"/><path style="fill:url(#f);fill-opacity:1" d="M32 23a8.98 8.98 0 0 0-9 9c0 4.986 4.014 9 9 9s9-4.014 9-9-4.014-9-9-9zm0 1a8 8 0 0 1 8 8 8 8 0 0 1-8 8 8 8 0 0 1-8-8 8 8 0 0 1 8-8zm0 1a7 7 0 0 0-7 7 7 7 0 0 0 7 7 7 7 0 0 0 7-7 7 7 0 0 0-7-7zm0 4c1.662 0 3 1.338 3 3s-1.338 3-3 3-3-1.338-3-3 1.338-3 3-3z"/><path style="fill:#2e3132;fill-opacity:.294118" d="M6.002 31.191c-.005.218 0 .436 0 .655C6.002 46.335 17.597 58 32 58s25.998-11.665 25.998-26.154c0-.22.005-.437 0-.655C57.654 45.375 46.185 57 32 57S6.346 45.375 6.002 31.191z"/><path style="fill:#2e3132;fill-opacity:.294118;stroke-linecap:round" d="M32 24a8 8 0 0 0-8 8 8 8 0 0 0 8 8 8 8 0 0 0 8-8 8 8 0 0 0-8-8zm0 1a7 7 0 0 1 7 7 7 7 0 0 1-7 7 7 7 0 0 1-7-7 7 7 0 0 1 7-7z"/><path style="color:#000;color-interpolation:sRGB;color-interpolation-filters:linearRGB;fill:url(#g);stroke-linecap:round;color-rendering:auto;image-rendering:auto;shape-rendering:auto;text-rendering:auto;fill-opacity:1" d="M424.571 497.798a10 10 0 0 0-10 10 10 10 0 0 0 10 10 10 10 0 0 0 10-10 10 10 0 0 0-10-10z" transform="translate(-376.571 -491.798)"/><path style="color:#232629;fill:#cf000f;fill-opacity:1;stroke:none;stroke-width:2.00687122" d="M421.38 501.798a4.01 4.01 0 0 1 3.191 3.945 4.018 4.018 0 0 1-1.285 2.95 3.01 3.01 0 0 1-.715-1.943c0-.165.026-.323.051-.48a4.01 4.01 0 0 0-2.05 3.5c0 2.232 1.783 4.028 4 4.028 2.215 0 4-1.796 4-4.028a7.986 7.986 0 0 0-7.192-7.972z" class="ColorScheme-Text" transform="translate(-376.571 -491.798)"/></svg>