<svg version="1.1" viewBox="0 0 32 32" xmlns="http://www.w3.org/2000/svg" xmlns:xlink="http://www.w3.org/1999/xlink">
    <defs>
        <linearGradient id="a" x2="0" y1="394.54437" y2="335.43387" gradientTransform="matrix(.48 0 0 .40601922 362.65138 385.60555)" gradientUnits="userSpaceOnUse">
            <stop stop-color="#fff" stop-opacity="0" offset="0"/>
            <stop stop-color="#fff" stop-opacity=".2" offset="1"/>
        </linearGradient>
    </defs>
    <g transform="translate(-384.57143 -515.798)" shape-rendering="auto">
        <rect x="388.57144" y="521.79797" width="23.999989" height="23.999989" color="#000000" color-rendering="auto" fill="#a164d7" image-rendering="auto" solid-color="#000000" isolation="auto" mix-blend-mode="normal"/>
        <rect x="388.57144" y="544.79797" width="24.00001" height=".999974" color="#000000" color-rendering="auto" image-rendering="auto" opacity=".25" solid-color="#000000" isolation="auto" mix-blend-mode="normal"/>
        <rect x="388.57144" y="521.79797" width="23.999989" height="1.00003" color="#000000" color-rendering="auto" fill="#fff" image-rendering="auto" opacity=".5" solid-color="#000000" isolation="auto" mix-blend-mode="normal"/>
        <path d="m399.57141 522.79812v1h1v-1h-1zm1 1v1h1v-1h-1zm0 1h-1v1h1v-1zm0 1v1h1v-1h-1zm0 1h-1v1h1v-1zm0 1v1h1v-1h-1zm0 1h-1v0.56054 1.43946h2v-1h-1v-1z" color="#000000" color-rendering="auto" image-rendering="auto" opacity=".4" solid-color="#000000" stroke-linecap="square" stroke-width="2" isolation="auto" mix-blend-mode="normal"/>
        <rect x="388.57144" y="521.79797" width="24" height="24" color="#000000" color-rendering="auto" fill="url(#a)" image-rendering="auto" solid-color="#000000" style="isolation:auto;mix-blend-mode:normal" isolation="auto" mix-blend-mode="normal"/>
    </g>
</svg>
