<?xml version="1.0" encoding="UTF-8" standalone="no"?>
<svg xmlns:svg="http://www.w3.org/2000/svg" xmlns="http://www.w3.org/2000/svg" xmlns:sodipodi="http://sodipodi.sourceforge.net/DTD/sodipodi-0.dtd" xmlns:inkscape="http://www.inkscape.org/namespaces/inkscape" inkscape:version="1.1-dev (d80adc983d, 2020-06-15)" sodipodi:docname="application-x-font-bdf.svg" id="svg37" version="1.1" height="32" width="32">
    <sodipodi:namedview inkscape:current-layer="svg37" showgrid="false" id="namedview39" inkscape:window-height="480" inkscape:window-width="640" inkscape:pageshadow="2" inkscape:pageopacity="0" guidetolerance="10" gridtolerance="10" objecttolerance="10" borderopacity="1" bordercolor="#666666" pagecolor="#ffffff" />
    <defs id="defs17">
        <linearGradient gradientTransform="matrix(.5 0 0-.48276 384.57 547.25)" gradientUnits="userSpaceOnUse" x2="0" y2="3" y1="61" id="a">
            <stop offset="0" stop-color="#9b59b6" id="stop4" />
            <stop offset="1" stop-color="#8e44ad" id="stop2" />
        </linearGradient>
        <linearGradient x1="404.57001" gradientUnits="userSpaceOnUse" x2="404.57001" y2="524.79999" y1="517.79999" id="b">
            <stop offset="0" stop-color="#e8d9eb" id="stop9" />
            <stop offset="1" stop-color="#d3bdd7" id="stop7" />
        </linearGradient>
        <linearGradient gradientUnits="userSpaceOnUse" x2="411.57" y2="531.8" x1="404.57" y1="524.8" id="c">
            <stop id="stop12" stop-color="#383e51" />
            <stop id="stop14" stop-opacity="0" stop-color="#655c6f" offset="1" />
        </linearGradient>
    </defs>
    <g id="g35" transform="translate(-384.57-515.8)">
        <path id="path19" d="m389.57 545.8v-28h15l7 7v21h-7z" fill="url(#a)" />
        <g id="g25" transform="scale(1-1)">
            <rect id="rect21" fill-opacity=".412" height="1" fill="#ffffff" y="-518.8" x="389.57" width="15" />
            <rect id="rect23" fill-opacity=".294" height="1" fill="#2e3132" y="-545.8" x="389.57" width="22" />
        </g>
        <g id="g31" fill-rule="evenodd">
            <path style="fill-opacity:1;fill:url(#b)" id="path27" d="m411.57 524.8l-7-7v7z" fill="url(#b)" />
            <path id="path29" d="m411.57 531.8l-7-7h7z" fill="url(#c)" opacity=".2" />
        </g>
        <path id="path33" transform="matrix(1.04143 0 0 1.0104 391.74-521.44)" d="m6.751 1048.94c-.979 0-1.646-.489-1.468-1.735.222-1.557 1.157-2.069 4.115-2.491.022 0 .934-.156.934-.156l-.378 2.758c-.801 1-2.246 1.623-3.203 1.623m3.047-.133l.044 1.29h1.268l1.157-8.341c.356-2.535-1.09-3.27-3.114-3.27-1.446 0-2.869.423-3.714.912l.245 1.379c.912-.445 2.157-.756 3.292-.756 1.401 0 1.913.689 1.735 2.024l-.2 1.268-1.045.133c-2.691.423-5.316.845-5.738 3.825-.311 2.135.956 3.092 2.647 3.092 1.068 0 2.38-.4 3.425-1.557" fill="#e8d9eb" />
    </g>
</svg>
