<svg version="1.1" viewBox="0 0 32 32" xmlns="http://www.w3.org/2000/svg">
    <defs>
        <linearGradient id="a" x1="3.116" x2="61.689" y1="68.42" y2="-3.454" gradientTransform="matrix(.5 0 0-.48276 384.57 547.25)" gradientUnits="userSpaceOnUse">
            <stop stop-color="#66b036" offset="0"/>
            <stop stop-color="#239161" offset="1"/>
        </linearGradient>
        <linearGradient id="b" x1="404.57" x2="411.57" y1="524.8" y2="531.8" gradientUnits="userSpaceOnUse">
            <stop stop-color="#383e51" offset="0"/>
            <stop stop-color="#655c6f" stop-opacity="0" offset="1"/>
        </linearGradient>
    </defs>
    <g transform="translate(-384.57-515.8)">
        <path d="m389.57 545.8v-28h15l7 7v21h-7z" fill="url(#a)"/>
        <g transform="scale(1-1)">
            <rect x="389.57" y="-518.8" width="15" height="1" fill="#fff" opacity=".5"/>
            <rect x="389.57" y="-545.8" width="22" height="1" fill="#2e3132" fill-opacity=".294"/>
        </g>
        <g fill-rule="evenodd">
            <path d="m411.57 524.8-7-7v7z" fill="#fff" opacity=".5"/>
            <path d="m411.57 531.8-7-7h7z" fill="url(#b)" opacity=".2"/>
        </g>
        <path d="m401.66 527.8-2.947 11h1.039l2.982-10.992zm-4.512 2-2.961 3.145-0.324 0.348 0.324 0.346 2.943 3.162 0.715-0.695-2.621-2.813 2.639-2.797zm7.465 0.283-0.715 0.695 2.639 2.797-2.621 2.813 0.715 0.695 2.943-3.162 0.324-0.346-0.324-0.348z" color="#000000" color-rendering="auto" fill="#fff" image-rendering="auto" opacity=".75" shape-rendering="auto"/>
    </g>
</svg>
