<?xml version="1.0" encoding="UTF-8" standalone="no"?>
<svg xmlns:dc="http://purl.org/dc/elements/1.1/" xmlns:cc="http://creativecommons.org/ns#" xmlns:rdf="http://www.w3.org/1999/02/22-rdf-syntax-ns#" xmlns:svg="http://www.w3.org/2000/svg" xmlns="http://www.w3.org/2000/svg" xmlns:xlink="http://www.w3.org/1999/xlink" xmlns:sodipodi="http://sodipodi.sourceforge.net/DTD/sodipodi-0.dtd" xmlns:inkscape="http://www.inkscape.org/namespaces/inkscape" sodipodi:docname="application-x-plasma.svg" inkscape:version="1.1-dev (d80adc983d, 2020-06-15)" id="svg2" height="32" version="1.1" width="32">
    <sodipodi:namedview inkscape:current-layer="layer1" inkscape:window-maximized="1" inkscape:window-y="30" inkscape:window-x="0" inkscape:cy="16" inkscape:cx="-3.7966102" inkscape:zoom="7.375" showgrid="false" id="namedview31" inkscape:window-height="1021" inkscape:window-width="1920" inkscape:pageshadow="2" inkscape:pageopacity="0" guidetolerance="10" gridtolerance="10" objecttolerance="10" borderopacity="1" bordercolor="#666666" pagecolor="#ffffff" />
    <defs id="defs5455">
        <linearGradient id="linearGradient4410" inkscape:collect="always">
            <stop id="stop4412" style="stop-color:#383e51" />
            <stop id="stop4414" style="stop-color:#655c6f;stop-opacity:0" offset="1" />
        </linearGradient>
        <linearGradient id="linearGradient4351-2" inkscape:collect="always">
            <stop offset="0" style="stop-color:#e8d9eb" id="stop4355-6" />
            <stop offset="1" style="stop-color:#d3bdd7" id="stop4353-8" />
        </linearGradient>
        <linearGradient id="linearGradient4300-1" inkscape:collect="always">
            <stop offset="0" style="stop-color:#9b59b6" id="stop4304-6" />
            <stop offset="1" style="stop-color:#8e44ad" id="stop4302-0" />
        </linearGradient>
        <linearGradient gradientTransform="matrix(0.49999977,0,0,-0.48275841,384.57144,547.24623)" gradientUnits="userSpaceOnUse" x2="0" y2="3" y1="61" id="linearGradient4306-3" xlink:href="#linearGradient4300-1" inkscape:collect="always" />
        <linearGradient gradientTransform="matrix(0.48275841,0,0,-0.48275841,385.26109,547.48761)" gradientUnits="userSpaceOnUse" x2="0" y2="47" y1="61" id="linearGradient4357-7" xlink:href="#linearGradient4351-2" inkscape:collect="always" />
        <linearGradient gradientTransform="matrix(0,-0.48275841,-0.48275841,0,419.53694,550.86696)" gradientUnits="userSpaceOnUse" x2="39.500008" y2="16.500048" x1="54" y1="31" id="linearGradient4427-3" xlink:href="#linearGradient4410" inkscape:collect="always" />
    </defs>
    <metadata id="metadata5458">
        <rdf:RDF>
            <cc:Work rdf:about="">
                <dc:format>image/svg+xml</dc:format>
                <dc:type rdf:resource="http://purl.org/dc/dcmitype/StillImage" />
            </cc:Work>
        </rdf:RDF>
    </metadata>
    <g transform="matrix(1 0 0 1 -384.57143 -515.798)" id="layer1" inkscape:groupmode="layer" inkscape:label="Capa 1">
        <path d="m 389.57144,545.79796 0,-27.99999 14.99999,0 7.00003,7 -3e-5,14.24137 0,6.75862 -7,0 z" id="rect3500-2" style="fill:url(#linearGradient4306-3);fill-opacity:1.0" inkscape:connector-curvature="0" />
        <rect transform="scale(1,-1)" id="rect4169-9" style="fill:#ffffff;fill-opacity:0.41176471" height="0.999973" y="-518.79797" x="389.57144" width="14.999983" />
        <rect transform="scale(1,-1)" id="rect4236-1" style="fill:#2e3132;fill-opacity:0.29411765" height="1.00003" y="-545.79797" x="389.57144" width="21.999994" />
        <path d="m 411.57144,524.79797 -7.00001,-7 0,7 z" id="path4314-2" style="fill:url(#linearGradient4357-7);fill-opacity:1.0;fill-rule:evenodd" inkscape:connector-curvature="0" />
        <path d="m 411.5714,531.798 -6.99997,-7 7,0 z" id="path4320-7" style="opacity:0.2;fill:url(#linearGradient4427-3);fill-rule:evenodd" inkscape:connector-curvature="0" />
        <path id="path2994" d="m 397.57143,527.798 a 1,1 0 0 0 -1,1 1,1 0 0 0 1,1 1,1 0 0 0 1,-1 1,1 0 0 0 -1,-1 z m 5,0 -1.9375,1.5625 2.59375,3.21875 -2.4375,2.4375 1.78125,1.78125 4,-4 -4,-5 z m -6.5,4 a 1.5,1.5 0 0 0 -1.5,1.5 1.5,1.5 0 0 0 1.5,1.5 1.5,1.5 0 0 0 1.5,-1.5 1.5,1.5 0 0 0 -1.5,-1.5 z m 3,5 a 1.5,1.5 0 0 0 -1.5,1.5 1.5,1.5 0 0 0 1.5,1.5 1.5,1.5 0 0 0 1.5,-1.5 1.5,1.5 0 0 0 -1.5,-1.5 z" style="color:#000000;font-style:normal;font-variant:normal;font-weight:normal;font-stretch:normal;font-size:medium;line-height:normal;font-family:Sans;-inkscape-font-specification:Sans;text-indent:0;text-align:start;text-decoration:none;text-decoration-line:none;letter-spacing:normal;word-spacing:normal;text-transform:none;direction:ltr;block-progression:tb;writing-mode:lr-tb;baseline-shift:baseline;text-anchor:start;display:inline;overflow:visible;visibility:visible;fill:#e8d9eb;fill-opacity:1;stroke:none;stroke-width:5;marker:none;enable-background:accumulate" inkscape:connector-curvature="0" />
    </g>
</svg>
