<svg height="32" width="32" xmlns="http://www.w3.org/2000/svg" xmlns:xlink="http://www.w3.org/1999/xlink">
    <linearGradient id="a" gradientUnits="userSpaceOnUse" x1="20" x2="27" y1="9" y2="16">
        <stop offset="0" stop-color="#060606"/>
        <stop offset="1" stop-opacity="0"/>
    </linearGradient>
    <linearGradient id="b" gradientUnits="userSpaceOnUse" x1="5" x2="27" y1="5" y2="27">
        <stop offset="0" stop-color="#fdc665"/>
        <stop offset="1" stop-color="#e3a943"/>
    </linearGradient>
    <path d="m5 30v-28h15l7 7v21h-14z" fill="url(#b)"/>
    <path d="m5 3h15v-1h-15z" fill="#fff" opacity=".5"/>
    <path d="m5 30h22v-1h-22z" opacity=".25"/>
    <path d="m27 9-7-7v7z" fill="#fff" opacity=".5"/>
    <g fill="#fcfcfc" fill-rule="evenodd" transform="translate(8 8)">
        <path d="m7 2.5v3.5h.5859375l2.95703125-2.95703125-.54296875-.54296875zm-2 1-2.5 2.5v4l2.5 2.5v-2.5h-2v-1h2v-2h-2v-1h2zm6.95703125.95703125-1.54296875 1.54296875h2.5859375v1h-3.5859375l-1 1 1 1h3.5859375v1h-2.5859375l1.54296875 1.54296875 1.54296875-1.54296875v-4zm-4.95703125 5.54296875v3.5h3l.54296875-.54296875-2.95703125-2.95703125z"/>
        <path d="m8 2a6 6 0 0 0 -6 6 6 6 0 0 0 6 6 6 6 0 0 0 6-6 6 6 0 0 0 -6-6zm0 1a5 5 0 0 1 5 5 5 5 0 0 1 -5 5 5 5 0 0 1 -5-5 5 5 0 0 1 5-5z"/>
    </g>
    <path d="m-1.89571022 38.40724493v-28h15l7 7v21h-14z" fill="none"/>
    <path d="m20 9 7 7v-7z" fill="url(#a)" opacity=".2"/>
</svg>
