<svg version="1.1" viewBox="0 0 22 330" xmlns="http://www.w3.org/2000/svg">
    <defs>
        <style id="current-color-scheme" type="text/css">.ColorScheme-Text {
        color:#eff0f1;
      }</style>
    </defs>
    <g transform="translate(-423.70966,-455.81881)" fill="currentColor" stroke-width="1.7777778">
        <path class="ColorScheme-Text" d="m433.70966 458.81881c-0.17045 0-0.30989 0.13683-0.30989 0.30729l-0.54427 2.45312c-0.2314 0.0772-0.45785 0.1691-0.67708 0.27604l-2.11459-1.34634c-0.14381-0.0915-0.31436-0.12054-0.43489 0l-1.30729 1.30729c-0.12054 0.12053-0.12054 0.31436 0 0.43489l1.34896 2.11979c-0.108 0.21797-0.20019 0.44161-0.27866 0.67188l-2.45312 0.54427c-0.17046 0-0.30729 0.13944-0.30729 0.30989v1.84376c0 0.17045 0.14089 0.27291 0.30729 0.30989l2.45312 0.54427c0.076 0.22801 0.16592 0.45044 0.27084 0.66667l-1.35156 2.125c-0.0915 0.14381-0.12053 0.31436 0 0.43489l1.30468 1.30729c0.12054 0.12054 0.31696 0.12054 0.43751 0l2.125-1.35416c0.21981 0.10947 0.44468 0.20446 0.67708 0.28386l0.54427 2.45312c0 0.17046 0.13944 0.30729 0.30989 0.30729h1.84376c0.17045 0 0.27291-0.14089 0.30989-0.30729l0.54427-2.45312c0.2314-0.0772 0.45785-0.1691 0.67708-0.27604l2.11459 1.34634c0.12053 0.12054 0.31436 0.12054 0.43489 0l1.30729-1.30729c0.12054-0.12053 0.0915-0.29108 0-0.43489l-1.34896-2.11979c0.108-0.21797 0.20019-0.44161 0.27866-0.67188l2.45312-0.54427c0.1664-0.0369 0.30729-0.13944 0.30729-0.30989v-1.84376c0-0.17045-0.13683-0.30989-0.30729-0.30989l-2.45312-0.54427c-0.078-0.23436-0.17274-0.46303-0.28126-0.68489l1.34115-2.10678c0.12053-0.12053 0.12053-0.31436 0-0.43489l-1.30469-1.30729c-0.12054-0.12054-0.29108-0.0915-0.4349 0l-2.11718 1.34634c-0.21608-0.10693-0.43851-0.1981-0.66667-0.27604l-0.54427-2.45312c-0.0369-0.1664-0.13944-0.30729-0.30989-0.30729zm0.92188 5.33333a2.6666667 2.6666667 0 0 1 2.66667 2.66667 2.6666667 2.6666667 0 0 1-2.66667 2.66667 2.6666667 2.6666667 0 0 1-2.66667-2.66667 2.6666667 2.6666667 0 0 1 2.66667-2.66667z" fill="currentColor"/>
        <path class="ColorScheme-Text" d="m434.55094 480.76627c-0.16952-0.0178-0.3225 0.10369-0.34032 0.27322l-0.7977 2.38279c-0.23821 0.0526-0.47302 0.12031-0.70223 0.20375l-1.96227-1.56c-0.13346-0.10603-0.30004-0.15274-0.43251-0.0455l-1.43678 1.16348c-0.13248 0.10727-0.15274 0.30004-0.0455 0.43251l1.11999 2.24918c-0.13019 0.20549-0.24525 0.41827-0.34736 0.63907l-2.49657 0.28487c-0.16953-0.0178-0.32019 0.10656-0.338 0.27607l-0.19273 1.83366c-0.0178 0.16952 0.11159 0.28614 0.27322 0.34032l2.38279 0.7977c0.0518 0.23471 0.11792 0.46532 0.19967 0.69133l-1.56628 1.97209c-0.10603 0.13345-0.15273 0.30003-0.0455 0.4325l1.16088 1.43651c0.10728 0.13248 0.30263 0.15301 0.43512 0.0457l2.2549-1.12462c0.20717 0.13185 0.42088 0.24982 0.6437 0.35308l0.28487 2.49657c-0.0178 0.16953 0.10656 0.32019 0.27607 0.338l1.83366 0.19273c0.16952 0.0178 0.28614-0.11159 0.34032-0.27322l0.7977-2.38279c0.23821-0.0526 0.47302-0.12031 0.70223-0.20375l1.96227 1.56c0.10727 0.13248 0.30004 0.15274 0.43251 0.0455l1.43678-1.16348c0.13248-0.10727 0.12142-0.27992 0.0455-0.43251l-1.11999-2.24918c0.13019-0.20549 0.24525-0.41827 0.34736-0.63907l2.49657-0.28487c0.16935-0.0193 0.32019-0.10656 0.338-0.27607l0.19273-1.83366c0.0178-0.16952-0.10369-0.3225-0.27322-0.34032l-2.38279-0.7977c-0.0531-0.24123-0.12339-0.47855-0.20813-0.71054l1.55403-1.95505c0.13247-0.10727 0.15273-0.30004 0.0455-0.43251l-1.16089-1.43651c-0.10728-0.13248-0.27992-0.12142-0.43252-0.0455l-2.24631 1.11766c-0.20372-0.12893-0.4154-0.24285-0.63416-0.34421l-0.28487-2.49657c-0.0193-0.16935-0.10656-0.32019-0.27607-0.338zm0.35934 5.40048a2.6666667 2.6666667 0 0 1 2.37332 2.9308 2.6666667 2.6666667 0 0 1-2.9308 2.37332 2.6666667 2.6666667 0 0 1-2.37332-2.9308 2.6666667 2.6666667 0 0 1 2.9308-2.37332z" fill="currentColor"/>
        <path class="ColorScheme-Text" d="m435.39309 502.80196c-0.16673-0.0354-0.33157 0.0694-0.36701 0.23615l-1.0424 2.28635c-0.2424 0.0274-0.48301 0.0702-0.71968 0.12923l-1.78846-1.75657c-0.12164-0.11939-0.28243-0.18326-0.42538-0.0905l-1.55053 1.00693c-0.14297 0.0928-0.18327 0.28243-0.0905 0.42538l0.87875 2.35393c-0.15095 0.19076-0.28763 0.39034-0.41226 0.59926l-2.51267 0.0223c-0.16674-0.0354-0.32957 0.0725-0.365 0.23922l-0.38335 1.80347c-0.0354 0.16673 0.0811 0.29624 0.23615 0.36702l2.28636 1.0424c0.027 0.23884 0.0686 0.4751 0.12631 0.70841l-1.76384 1.79757c-0.1194 0.12163-0.18325 0.28242-0.0905 0.42537l1.00437 1.54999c0.0928 0.14297 0.28497 0.1838 0.42796 0.0909l2.3601-0.88276c0.19225 0.15279 0.39246 0.29245 0.60327 0.41843l0.0223 2.51267c-0.0354 0.16674 0.0725 0.32958 0.23923 0.36501l1.80347 0.38334c0.16673 0.0354 0.29624-0.0811 0.36701-0.23615l1.0424-2.28635c0.24241-0.0274 0.48301-0.0702 0.71968-0.12923l1.78846 1.75657c0.0928 0.14296 0.28243 0.18326 0.42538 0.0905l1.55053-1.00693c0.14297-0.0928 0.15001-0.26569 0.0905-0.42538l-0.87875-2.35393c0.15096-0.19076 0.28763-0.39034 0.41226-0.59926l2.51267-0.0224c0.17044-1e-3 0.32957-0.0725 0.365-0.23922l0.38335-1.80347c0.0354-0.16673-0.0694-0.33158-0.23615-0.36702l-2.28636-1.0424c-0.0276-0.24546-0.0727-0.48882-0.13272-0.7284l1.74988-1.7819c0.14296-0.0928 0.18326-0.28243 0.0905-0.42539l-1.00437-1.54998c-0.0928-0.14297-0.2657-0.15002-0.4254-0.0905l-2.35083 0.87673c-0.18913-0.14952-0.38774-0.28494-0.59471-0.40861l-0.0223-2.51267c-2e-3 -0.17044-0.0725-0.32958-0.23923-0.36501zm-0.20713 5.40845a2.6666667 2.6666667 0 0 1 2.05397 3.16283 2.6666667 2.6666667 0 0 1-3.16283 2.05396 2.6666667 2.6666667 0 0 1-2.05396-3.16282 2.6666667 2.6666667 0 0 1 3.16282-2.05397z" fill="currentColor"/>
        <path class="ColorScheme-Text" d="m436.22687 524.92546c-0.16211-0.0526-0.33701 0.0344-0.38968 0.1965l-1.27568 2.16486c-0.24394 2e-3 -0.4877 0.0193-0.72925 0.0533l-1.59505-1.9339c-0.10849-0.13145-0.26172-0.21177-0.41359-0.13446l-1.64729 0.83934c-0.15188 0.0773-0.21178 0.26172-0.13446 0.41359l0.62788 2.43289c-0.17006 0.17393-0.32686 0.35813-0.47264 0.55288l-2.50124-0.24047c-0.16212-0.0526-0.33534 0.0377-0.388 0.19976l-0.56977 1.75352c-0.0526 0.16211 0.0497 0.30309 0.19649 0.38969l2.16488 1.27568c2e-3 0.24035 0.0186 0.47967 0.0516 0.71773l-1.94208 1.60335c-0.13146 0.10849-0.21176 0.26172-0.13446 0.41358l0.83685 1.64649c0.0773 0.15189 0.26419 0.21258 0.41611 0.13513l2.43944-0.63122c0.17523 0.17205 0.35974 0.33187 0.55623 0.47919l-0.24047 2.50124c-0.0526 0.16213 0.0377 0.33535 0.19977 0.38802l1.75352 0.56975c0.16212 0.0526 0.30309-0.0497 0.38968-0.19649l1.27568-2.16487c0.24395-2e-3 0.4877-0.0193 0.72925-0.0533l1.59505 1.93389c0.0774 0.15188 0.26173 0.21178 0.41359 0.13447l1.64729-0.83934c0.15188-0.0773 0.17696-0.24855 0.13447-0.41359l-0.62789-2.43289c0.17008-0.17393 0.32686-0.35814 0.47264-0.55288l2.50125 0.24036c0.16961 0.0168 0.33534-0.0376 0.38801-0.19975l0.56976-1.75352c0.0526-0.16212-0.0344-0.33702-0.19649-0.38969l-2.16488-1.27568c-2e-3 -0.247-0.0212-0.49375-0.0559-0.73829l1.92655-1.58922c0.15188-0.0774 0.21178-0.26173 0.13447-0.4136l-0.83685-1.64648c-0.0774-0.15188-0.24856-0.17697-0.41361-0.13447l-2.42959 0.6262c-0.17247-0.16847-0.35584-0.32391-0.54874-0.46854l0.24046-2.50123c0.0158-0.16972-0.0376-0.33535-0.19976-0.38802zm-0.77133 5.35718a2.6666667 2.6666667 0 0 1 1.71211 3.3602 2.6666667 2.6666667 0 0 1-3.3602 1.7121 2.6666667 2.6666667 0 0 1-1.7121-3.36019 2.6666667 2.6666667 0 0 1 3.36019-1.71211z" fill="currentColor"/>
        <path class="ColorScheme-Text" d="m437.04313 547.1354c-0.15572-0.0693-0.33876-1e-3 -0.40809 0.15469l-1.49498 2.01965c-0.24281-0.0235-0.48704-0.0318-0.73082-0.0232l-1.38417-2.09003c-0.0942-0.14207-0.23815-0.23797-0.39727-0.17696l-1.726 0.66256c-0.15913 0.061-0.23797 0.23815-0.17695 0.39727l0.37013 2.48519c-0.18731 0.1552-0.3625 0.322-0.52784 0.50045l-2.4624-0.50061c-0.15574-0.0693-0.33745 2e-3 -0.40676 0.15811l-0.74994 1.68436c-0.0693 0.15572 0.0178 0.30662 0.15468 0.40809l2.01968 1.49499c-0.0231 0.23924-0.0317 0.47898-0.0237 0.71919l-2.09904 1.39156c-0.14208 0.0942-0.23795 0.23815-0.17695 0.39726l0.66016 1.72495c0.061 0.15913 0.24052 0.23903 0.3997 0.17788l2.49206-0.37277c0.15629 0.18942 0.32308 0.36766 0.5031 0.53471l-0.50061 2.4624c-0.0693 0.15574 2e-3 0.33745 0.15812 0.40678l1.68436 0.74992c0.15573 0.0693 0.30662-0.0177 0.40808-0.15468l1.49498-2.01967c0.24283 0.0235 0.48705 0.0318 0.73083 0.0232l1.38417 2.09002c0.0611 0.15914 0.23816 0.23798 0.39726 0.17697l1.72601-0.66255c0.15912-0.061 0.20197-0.2287 0.17696-0.39727l-0.37014-2.4852c0.18733-0.1552 0.3625-0.32201 0.52784-0.50044l2.46242 0.50049c0.16693 0.0344 0.33744-2e-3 0.40677-0.1581l0.74993-1.68435c0.0693-0.15574 1e-3 -0.33877-0.15468-0.4081l-2.01968-1.49498c0.0238-0.24586 0.0305-0.49326 0.0216-0.74009l2.08212-1.37914c0.15913-0.0611 0.23797-0.23815 0.17696-0.39727l-0.66016-1.72494c-0.0611-0.15914-0.2287-0.20198-0.39729-0.17697l-2.48173 0.36881c-0.15392-0.18557-0.32004-0.35933-0.49676-0.52333l0.50059-2.46239c0.0335-0.16714-2e-3 -0.33745-0.15811-0.40678zm-1.32708 5.2472a2.6666667 2.6666667 0 0 1 1.35149 3.52076 2.6666667 2.6666667 0 0 1-3.52075 1.35148 2.6666667 2.6666667 0 0 1-1.35149-3.52074 2.6666667 2.6666667 0 0 1 3.52075-1.3515z" fill="currentColor"/>
        <path class="ColorScheme-Text" d="m437.83309 569.43048c-0.14763-0.0852-0.3368-0.0364-0.42203 0.11119l-1.6979 1.85232c-0.23902-0.0488-0.48105-0.0825-0.72439-0.0995l-1.15812-2.22326c-0.0788-0.15114-0.21197-0.26156-0.3766-0.21752l-1.7858 0.47852c-0.16463 0.044-0.26156 0.21197-0.2175 0.37659l0.10833 2.51027c-0.20251 0.13477-0.39418 0.28234-0.57726 0.44253l-2.39659-0.75526c-0.14764-0.0852-0.33581-0.0333-0.42106 0.11473l-0.92189 1.59674c-0.0852 0.14763-0.0143 0.3068 0.11117 0.42203l1.85235 1.69791c-0.048 0.23551-0.0816 0.47304-0.0987 0.71277l-2.233 1.16453c-0.15115 0.0788-0.26154 0.21197-0.21751 0.37659l0.47624 1.7845c0.044 0.16464 0.21422 0.26287 0.37892 0.21869l2.51737-0.11024c0.13563 0.20472 0.28288 0.39942 0.44445 0.58437l-0.75526 2.39658c-0.0852 0.14765-0.0333 0.33581 0.11474 0.42108l1.59674 0.92188c0.14763 0.0852 0.30679 0.0145 0.42201-0.11118l1.69791-1.85234c0.23904 0.0488 0.48105 0.0825 0.7244 0.0995l1.15812 2.22326c0.0441 0.16465 0.21198 0.26157 0.37658 0.21752l1.78581-0.4785c0.16463-0.044 0.22477-0.20634 0.21752-0.3766l-0.10834-2.51027c0.20253-0.13477 0.39418-0.28236 0.57726-0.44253l2.39662 0.75514c0.16242 0.0517 0.3358 0.0333 0.42106-0.11471l0.92189-1.59674c0.0852-0.14764 0.0364-0.33681-0.11118-0.42203l-1.85234-1.6979c0.0494-0.24203 0.0819-0.48737 0.0988-0.73378l2.21487-1.15395c0.16465-0.0441 0.26156-0.21197 0.21752-0.37659l-0.47624-1.7845c-0.0441-0.16465-0.20634-0.22478-0.37662-0.21753l-2.50668 0.10738c-0.13368-0.20064-0.28073-0.39081-0.43934-0.57239l0.75524-2.39657c0.0508-0.16272 0.0333-0.33581-0.11472-0.42108zm-1.8683 5.07974a2.6666667 2.6666667 0 0 1 0.97607 3.64274 2.6666667 2.6666667 0 0 1-3.64273 0.97606 2.6666667 2.6666667 0 0 1-0.97607-3.64272 2.6666667 2.6666667 0 0 1 3.64273-0.97608z" fill="currentColor"/>
        <path class="ColorScheme-Text" d="m438.58791 591.80652c-0.13791-0.10017-0.33115-0.0714-0.43134 0.0665l-1.88222 1.66469c-0.23261-0.0735-0.46979-0.13233-0.71002-0.17467l-0.91938-2.33214c-0.0626-0.15855-0.18347-0.28229-0.3518-0.25569l-1.82604 0.28923c-0.16833 0.0266-0.28228 0.18347-0.25567 0.35179l-0.15466 2.50784c-0.21549 0.11286-0.42153 0.23959-0.62035 0.37977l-2.30452-1.00164c-0.13792-0.10016-0.33049-0.0682-0.43074 0.0701l-1.08375 1.49163c-0.10016 0.13792-0.0463 0.30362 0.0665 0.43134l1.66472 1.88223c-0.0724 0.2292-0.1306 0.46192-0.17266 0.69855l-2.3425 0.92474c-0.15856 0.0626-0.28226 0.18347-0.25568 0.35179l0.2871 1.8245c0.0265 0.16834 0.18557 0.28383 0.35398 0.2571l2.51511 0.1535c0.11349 0.21778 0.23958 0.4268 0.38093 0.62763l-1.00163 2.30451c-0.10017 0.13793-0.0682 0.33049 0.0701 0.43076l1.49163 1.08374c0.13792 0.10016 0.3036 0.0465 0.43132-0.0665l1.88223-1.66471c0.23263 0.0735 0.46979 0.13233 0.71003 0.17467l0.91939 2.33214c0.0266 0.16836 0.18347 0.28229 0.35178 0.25569l1.82604-0.28921c0.16833-0.0266 0.24511-0.18172 0.25569-0.3518l0.15465-2.50784c0.21551-0.11287 0.42154-0.23961 0.62036-0.37977l2.30455 1.00152c0.15613 0.0684 0.33048 0.0682 0.43075-0.0701l1.08374-1.49163c0.10017-0.13792 0.0714-0.33116-0.0664-0.43134l-1.66472-1.88222c0.0744-0.23554 0.1324-0.47614 0.17496-0.71943l2.32336-0.91611c0.16836-0.0267 0.28228-0.18347 0.25569-0.35179l-0.2871-1.82451c-0.0267-0.16836-0.18171-0.24512-0.35182-0.25571l-2.50417-0.15522c-0.11197-0.21352-0.23834-0.41802-0.3771-0.61518l1.00161-2.3045c0.0675-0.15652 0.0682-0.33049-0.0701-0.43076zm-2.38904 4.85662a2.6666667 2.6666667 0 0 1 0.58995 3.72481 2.6666667 2.6666667 0 0 1-3.7248 0.58995 2.6666667 2.6666667 0 0 1-0.58995-3.72479 2.6666667 2.6666667 0 0 1 3.7248-0.58997z" fill="currentColor"/>
        <path class="ColorScheme-Text" d="m439.29935 614.25936c-0.12668-0.11403-0.32187-0.10562-0.43592 0.021l-2.04592 1.45883c-0.22365-0.0974-0.45338-0.18071-0.68787-0.24793l-0.67057-2.41547c-0.0457-0.16422-0.15296-0.29992-0.32315-0.29106l-1.84627 0.0968c-0.17018 9e-3 -0.29991 0.15296-0.29104 0.32314l-0.41595 2.47794c-0.22611 0.0897-0.44427 0.19421-0.65665 0.31284l-2.1872-1.23704c-0.12669-0.11403-0.32155-0.10237-0.4357 0.0247l-1.23373 1.37018c-0.11403 0.12669-0.0778 0.29711 0.021 0.43593l1.45886 2.04592c-0.096 0.22038-0.17817 0.44574-0.24473 0.67668l-2.42633 0.67482c-0.16424 0.0457-0.2999 0.15296-0.29105 0.32313l0.0948 1.84452c9e-3 0.17019 0.15489 0.30167 0.32517 0.29269l2.48528 0.41556c0.0901 0.22845 0.19366 0.44951 0.31324 0.66401l-1.23703 2.18719c-0.11404 0.1267-0.10237 0.32155 0.0247 0.43573l1.37018 1.23372c0.12669 0.11402 0.29707 0.078 0.43591-0.021l2.04592-1.45885c0.22368 0.0974 0.45339 0.18071 0.68789 0.24793l0.67058 2.41547c9e-3 0.17022 0.15295 0.29992 0.32312 0.29106l1.84627-0.0967c0.17019-9e-3 0.26276-0.15511 0.29106-0.32315l0.41595-2.47793c0.22612-0.0897 0.44427-0.19424 0.65665-0.31285l2.18724 1.23693c0.14813 0.0843 0.32154 0.10237 0.43572-0.0247l1.23372-1.37018c0.11404-0.1267 0.10562-0.32188-0.0209-0.43592l-1.45885-2.04592c0.0986-0.22647 0.18144-0.45969 0.2492-0.6972l2.40639-0.66823c0.17023-9e-3 0.29991-0.15296 0.29106-0.32314l-0.0948-1.84452c-9e-3 -0.17023-0.15509-0.26278-0.32317-0.29109l-2.47422-0.41613c-0.089-0.22405-0.19334-0.44064-0.31073-0.65122l1.23701-2.18718c0.0835-0.14861 0.10237-0.32155-0.0247-0.43573zm-2.8836 4.5803a2.6666667 2.6666667 0 0 1 0.19737 3.76607 2.6666667 2.6666667 0 0 1-3.76607 0.19737 2.6666667 2.6666667 0 0 1-0.19737-3.76605 2.6666667 2.6666667 0 0 1 3.76607-0.19739z" fill="currentColor"/>
        <path class="ColorScheme-Text" d="m439.95964 636.78404c-0.11406-0.12665-0.30906-0.13869-0.43572-0.0247l-2.18721 1.23698c-0.21224-0.12025-0.432-0.22711-0.65818-0.31848l-0.41441-2.47233c-0.0283-0.16809-0.12077-0.31426-0.29096-0.32324l-1.84627-0.0967c-0.17019-9e-3 -0.31426 0.12077-0.32323 0.29095l-0.67268 2.42089c-0.23425 0.0656-0.46214 0.1467-0.68576 0.24248l-2.04591-1.45888c-0.11407-0.12665-0.30909-0.13543-0.43589-0.021l-1.3702 1.23371c-0.12665 0.11408-0.10843 0.28735-0.0247 0.43574l1.23701 2.1872c-0.11851 0.20914-0.22378 0.42468-0.31412 0.64739l-2.48358 0.41751c-0.16811 0.0283-0.31424 0.12077-0.32323 0.29093l-0.0985 1.84433c-9e-3 0.1702 0.12251 0.31621 0.29279 0.32508l2.42823 0.67306c0.0657 0.23662 0.14561 0.46729 0.24212 0.69312l-1.45888 2.0459c-0.12666 0.11409-0.13542 0.30909-0.021 0.43592l1.23371 1.37019c0.11408 0.12664 0.28729 0.10862 0.43572 0.0247l2.1872-1.237c0.21228 0.12024 0.43202 0.22711 0.65821 0.31847l0.41442 2.47234c-9e-3 0.17022 0.12076 0.31426 0.29093 0.32324l1.84626 0.0968c0.1702 9e-3 0.27753-0.12679 0.32324-0.29095l0.67269-2.42088c0.23426-0.0656 0.46214-0.14674 0.68575-0.2425l2.04597 1.45879c0.1385 0.0993 0.30908 0.13542 0.43591 0.021l1.37019-1.23372c0.12666-0.11408 0.13868-0.30907 0.0248-0.43571l-1.237-2.18721c0.12173-0.21492 0.22849-0.4382 0.32071-0.66733l2.46305-0.41303c0.17024 9e-3 0.31426-0.12078 0.32325-0.29095l0.0985-1.84432c9e-3 -0.17024-0.12677-0.27756-0.29097-0.32328l-2.41717-0.67248c-0.0651-0.23212-0.14622-0.45843-0.24096-0.68013l1.45886-2.0459c0.0986-0.13906 0.13542-0.30908 0.021-0.43592zm-3.34657 4.25379a2.6666667 2.6666667 0 0 1-0.19737 3.76607 2.6666667 2.6666667 0 0 1-3.76607-0.19737 2.6666667 2.6666667 0 0 1 0.19737-3.76605 2.6666667 2.6666667 0 0 1 3.76607 0.19735z" fill="currentColor"/>
        <path class="ColorScheme-Text" d="m440.56156 659.37479c-0.10019-0.13788-0.29287-0.17023-0.43075-0.0701l-2.30453 1.00158c-0.1985-0.14177-0.40589-0.27102-0.62128-0.38553l-0.15371-2.50211c-0.0106-0.17012-0.0873-0.32516-0.25558-0.35188l-1.82605-0.28916c-0.16832-0.0267-0.32516 0.0873-0.35187 0.25557l-0.92205 2.33732c-0.23982 0.0408-0.47494 0.0976-0.70735 0.16947l-1.8822-1.66475c-0.10021-0.13788-0.29324-0.16699-0.43131-0.0665l-1.49165 1.08373c-0.13788 0.10022-0.13788 0.27444-0.0701 0.43077l1.00161 2.30452c-0.13972 0.19561-0.26694 0.39897-0.38007 0.61101l-2.51361 0.15562c-0.17015 0.0106-0.32514 0.0873-0.35187 0.25555l-0.29075 1.82393c-0.0267 0.16833 0.0888 0.32728 0.25721 0.3539l2.34457 0.9232c0.0406 0.24219 0.096 0.47995 0.16835 0.71463l-1.66475 1.8822c-0.13789 0.10022-0.16698 0.29324-0.0665 0.43133l1.08373 1.49164c0.10022 0.13788 0.27436 0.13806 0.43075 0.0701l2.30452-1.00159c0.19855 0.14177 0.40591 0.27102 0.62132 0.38552l0.15372 2.50212c-0.0267 0.16834 0.0872 0.32516 0.25554 0.35188l1.82603 0.28925c0.16833 0.0267 0.28926-0.0971 0.35188-0.25556l0.92206-2.33731c0.23983-0.0408 0.47495-0.0976 0.70734-0.16949l1.88228 1.66466c0.12736 0.11324 0.29323 0.16699 0.43132 0.0665l1.49165-1.08374c0.13789-0.10021 0.17022-0.29288 0.0702-0.43073l-1.0016-2.30453c0.14353-0.20102 0.27304-0.41191 0.38871-0.63015l2.49273-0.15331c0.16836 0.0268 0.32516-0.0873 0.35189-0.25556l0.29074-1.82392c0.0267-0.16837-0.0971-0.28929-0.25558-0.35193l-2.33364-0.92146c-0.0405-0.23765-0.0975-0.4712-0.16854-0.70159l1.66472-1.8822c0.11259-0.12799 0.16698-0.29323 0.0664-0.43134zm-3.77288 3.88068a2.6666667 2.6666667 0 0 1-0.58995 3.72481 2.6666667 2.6666667 0 0 1-3.72481-0.58995 2.6666667 2.6666667 0 0 1 0.58995-3.72479 2.6666667 2.6666667 0 0 1 3.72481 0.58993z" fill="currentColor"/>
        <path class="ColorScheme-Text" d="m441.0985 682.02515c-0.0852-0.14759-0.27347-0.19991-0.42106-0.11474l-2.3966 0.75521c-0.1826-0.16175-0.37534-0.31197-0.57758-0.44836l0.10867-2.50447c7e-3 -0.1703-0.0528-0.33251-0.21739-0.37667l-1.78583-0.47845c-0.1646-0.0441-0.3325 0.0528-0.37665 0.21739l-1.16132 2.22813c-0.24277 0.0155-0.48254 0.0474-0.72119 0.0946l-1.69787-1.85238c-0.0852-0.1476-0.27418-0.19672-0.422-0.11122l-1.59676 0.92188c-0.1476 0.0853-0.16581 0.25852-0.11474 0.42108l0.75523 2.39659c-0.1594 0.17994-0.30718 0.36888-0.44185 0.56794l-2.51611-0.10798c-0.17033-7e-3 -0.33248 0.0528-0.37665 0.21737l-0.47981 1.78355c-0.0442 0.16461 0.0541 0.33477 0.2188 0.37884l2.23523 1.16322c0.0151 0.24511 0.0453 0.48736 0.0927 0.72831l-1.85238 1.69788c-0.14761 0.0853-0.19671 0.27418-0.11122 0.42201l0.92188 1.59675c0.0853 0.1476 0.25842 0.16599 0.42106 0.11475l2.39659-0.75522c0.18264 0.16175 0.37536 0.31197 0.57762 0.44835l-0.10867 2.50449c-0.0442 0.16462 0.0527 0.33249 0.21736 0.37666l1.78579 0.47854c0.16462 0.0441 0.29783-0.0663 0.37667-0.21738l1.16132-2.22813c0.24279-0.0155 0.48255-0.0474 0.72119-0.0946l1.69796 1.85229c0.11483 0.12593 0.27417 0.19673 0.42201 0.11122l1.59676-0.92188c0.14761-0.0852 0.1999-0.27348 0.11484-0.42103l-0.75523-2.3966c0.16376-0.18492 0.3146-0.38112 0.45245-0.58607l2.4951 0.10809c0.16464 0.0443 0.3325-0.0528 0.37668-0.21738l0.47979-1.78354c0.0442-0.16465-0.0663-0.29785-0.21739-0.37671l-2.22454-1.16035c-0.0154-0.24058-0.0477-0.47881-0.0943-0.71536l1.85235-1.69788c0.12535-0.11552 0.19671-0.27417 0.11112-0.42204zm-4.15785 3.46505a2.6666667 2.6666667 0 0 1-0.97607 3.64274 2.6666667 2.6666667 0 0 1-3.64274-0.97607 2.6666667 2.6666667 0 0 1 0.97607-3.64271 2.6666667 2.6666667 0 0 1 3.64274 0.97604z" fill="currentColor"/>
        <path class="ColorScheme-Text" d="m441.56455 704.72802c-0.0693-0.15569-0.25107-0.2274-0.40675-0.15813l-2.46242 0.50056c-0.16469-0.17995-0.34067-0.34949-0.52755-0.50627l0.36987-2.47939c0.0248-0.16864-0.0178-0.33621-0.17683-0.39733l-1.72604-0.6625c-0.15908-0.0611-0.33619 0.0178-0.39731 0.17682l-1.38786 2.09454c-0.24306-0.01-0.48485-3e-3 -0.72712 0.0187l-1.49495-2.0197c-0.0693-0.1557-0.25211-0.22431-0.40806-0.15473l-1.68437 0.74993c-0.15571 0.0694-0.19193 0.23977-0.15813 0.40678l0.50058 2.4624c-0.17734 0.16229-0.34406 0.33475-0.4988 0.51864l-2.49103-0.37039c-0.16867-0.0248-0.33618 0.0178-0.39731 0.17681l-0.66362 1.72363c-0.0612 0.15908 0.0188 0.33859 0.17801 0.39963l2.10139 1.39049c-0.0106 0.24535-6e-3 0.48943 0.0161 0.73401l-2.01971 1.49496c-0.15571 0.0694-0.22429 0.25211-0.15472 0.40807l0.74993 1.68436c0.0694 0.15571 0.23965 0.1921 0.40675 0.15814l2.46241-0.50057c0.16473 0.17995 0.34069 0.34949 0.52759 0.50627l-0.36987 2.47941c-0.0612 0.1591 0.0177 0.33618 0.1768 0.39732l1.72599 0.66258c0.15911 0.0611 0.30313-0.0348 0.39733-0.17681l1.38786-2.09454c0.24308 0.01 0.48486 3e-3 0.72712-0.0187l1.49505 2.01962c0.10103 0.13725 0.2521 0.22431 0.40807 0.15473l1.68437-0.74993c0.15571-0.0693 0.2274-0.25108 0.15822-0.40672l-0.50057-2.46241c0.18219-0.16679 0.35271-0.34615 0.51123-0.53557l2.47013 0.36831c0.15911 0.0613 0.3362-0.0177 0.39734-0.17681l0.66359-1.72362c0.0612-0.15913-0.0348-0.30315-0.17682-0.39737l-2.09106-1.38652c0.01-0.24088 3e-3 -0.48118-0.019-0.7213l2.01968-1.49496c0.13674-0.10178 0.22429-0.2521 0.15462-0.40811zm-4.49726 3.01145a2.6666667 2.6666667 0 0 1-1.3515 3.52076 2.6666667 2.6666667 0 0 1-3.52075-1.35149 2.6666667 2.6666667 0 0 1 1.35149-3.52073 2.6666667 2.6666667 0 0 1 3.52076 1.35146z" fill="currentColor"/>
        <path class="ColorScheme-Text" d="m441.95459 727.47571c-0.0526-0.16208-0.22593-0.2524-0.38799-0.19978l-2.50126 0.24043c-0.14498-0.19618-0.30227-0.38319-0.47174-0.55864l0.62701-2.42715c0.0423-0.16512 0.0174-0.33623-0.13433-0.41364l-1.64733-0.83929c-0.15182-0.0774-0.33621-0.0174-0.41362 0.13432l-1.59919 1.938c-0.24069-0.0353-0.48188-0.0537-0.7251-0.0574l-1.27564-2.1649c-0.0526-0.16209-0.22728-0.24943-0.38965-0.19654l-1.75353 0.56976c-0.16211 0.0527-0.21594 0.2184-0.19979 0.38802l0.24045 2.50124c-0.19333 0.14286-0.37717 0.29695-0.55028 0.46366l-2.43867-0.62875c-0.16515-0.0423-0.3362-0.0174-0.41361 0.13432l-0.84016 1.64482c-0.0775 0.15181-0.0167 0.3387 0.13527 0.41604l1.94453 1.60253c-0.0362 0.2429-0.0571 0.48612-0.0607 0.73167l-2.16492 1.27566c-0.16211 0.0527-0.24941 0.22728-0.19652 0.38966l0.56976 1.75352c0.0527 0.16211 0.21825 0.2161 0.38799 0.19979l2.50124-0.24043c0.14502 0.19618 0.30229 0.38318 0.47178 0.55864l-0.62701 2.42717c-0.0775 0.15183-0.0175 0.33618 0.1343 0.41362l1.64728 0.83937c0.15185 0.0774 0.3051-3e-3 0.41363-0.13431l1.5992-1.938c0.2407 0.0354 0.48189 0.0537 0.72509 0.0574l1.27575 2.16483c0.0861 0.14706 0.22727 0.24943 0.38966 0.19654l1.75353-0.56976c0.1621-0.0526 0.2524-0.22593 0.19987-0.38795l-0.24044-2.50125c0.19863-0.14683 0.38696-0.30738 0.56442-0.4792l2.4181 0.6245c0.15183 0.0776 0.3362 0.0175 0.41364-0.13431l0.84012-1.64482c0.0775-0.15186-3e-3 -0.30512-0.13431-0.41367l-1.93468-1.5975c0.0351-0.23852 0.0533-0.47823 0.0565-0.71934l2.16489-1.27565c0.14663-0.0869 0.24941-0.22728 0.19643-0.38971zm-4.78741 2.52486a2.6666667 2.6666667 0 0 1-1.71211 3.36021 2.6666667 2.6666667 0 0 1-3.3602-1.71211 2.6666667 2.6666667 0 0 1 1.71211-3.36017 2.6666667 2.6666667 0 0 1 3.3602 1.71207z" fill="currentColor"/>
        <path class="ColorScheme-Text" d="m442.26444 750.25962c-0.0354-0.16669-0.19831-0.27463-0.36498-0.23924l-2.51269-0.0223c-0.12368-0.21026-0.26056-0.41268-0.41076-0.60489l0.87728-2.34831c0.0593-0.1598 0.0524-0.33257-0.0904-0.42542l-1.55057-1.00688c-0.1429-0.0928-0.33255-0.0525-0.4254 0.0904l-1.793 1.76022c-0.23568-0.0603-0.47363-0.10378-0.71513-0.13288l-1.04236-2.28638c-0.0354-0.1667-0.19996-0.27182-0.36697-0.23619l-1.80348 0.38334c-0.16673 0.0355-0.23759 0.19463-0.23925 0.36501l-0.0223 2.51267c-0.20721 0.12187-0.40615 0.2559-0.59573 0.4036l-2.35959-0.88021c-0.15983-0.0593-0.33254-0.0525-0.42539 0.0903l-1.00748 1.54799c-0.093 0.14287-0.052 0.3351 0.091 0.4279l1.76636 1.79701c-0.0614 0.23778-0.1076 0.47749-0.13684 0.72131l-2.28641 1.04238c-0.16673 0.0355-0.2718 0.19997-0.23617 0.36698l0.38335 1.80347c0.0355 0.16674 0.19446 0.23773 0.36498 0.23926l2.51267 0.0223c0.12372 0.21027 0.26058 0.41268 0.4108 0.6049l-0.87729 2.34833c-0.0929 0.1429-0.0525 0.33251 0.0903 0.42539l1.55052 1.00696c0.14293 0.0928 0.30374 0.0289 0.42541-0.0903l1.79301-1.76022c0.23568 0.0604 0.47364 0.10378 0.71512 0.13288l1.04247 2.28632c0.0703 0.15526 0.19996 0.27182 0.36698 0.2362l1.80349-0.38335c0.16671-0.0354 0.27463-0.19831 0.23932-0.36493l0.0223-2.51268c0.21289-0.12526 0.41697-0.26525 0.61142-0.41758l2.33957 0.87384c0.14289 0.093 0.33253 0.0525 0.42542-0.0903l1.00745-1.548c0.093-0.14292 0.0289-0.30376-0.0903-0.42544l-1.7571-1.79098c0.0598-0.23354 0.103-0.47004 0.13139-0.70949l2.28637-1.04237c0.15491-0.0711 0.2718-0.19997 0.23609-0.36704zm-5.0251 2.01061a2.6666667 2.6666667 0 0 1-2.05397 3.16284 2.6666667 2.6666667 0 0 1-3.16283-2.05397 2.6666667 2.6666667 0 0 1 2.05397-3.1628 2.6666667 2.6666667 0 0 1 3.16283 2.05393z" fill="currentColor"/>
        <path class="ColorScheme-Text" d="m442.49071 773.0716c-0.0178-0.16948-0.16851-0.29385-0.33797-0.27608l-2.49659-0.28482c-0.10103-0.22204-0.216-0.43766-0.34529-0.64452l1.11794-2.24374c0.0757-0.15273 0.0869-0.32527-0.0454-0.43254l-1.43683-1.16344c-0.13242-0.10723-0.32524-0.087-0.43252 0.0454l-1.96717 1.56316c-0.22809-0.0846-0.46019-0.15272-0.69732-0.2069l-0.79766-2.38281c-0.0178-0.16949-0.17045-0.29123-0.34027-0.27326l-1.83367 0.19273c-0.16953 0.0179-0.25664 0.16873-0.2761 0.338l-0.28482 2.49657c-0.21881 0.0995-0.43067 0.21205-0.63465 0.33912l-2.25466-1.12203c-0.15276-0.0757-0.32523-0.087-0.4325 0.0453l-1.16377 1.4342c-0.10742 0.13237-0.0867 0.32783 0.0458 0.43507l1.56884 1.9718c-0.0859 0.23006-0.15692 0.46363-0.21149 0.70305l-2.38284 0.79768c-0.16953 0.0179-0.29121 0.17046-0.27324 0.34028l0.19274 1.83366c0.0179 0.16954 0.16854 0.25676 0.33797 0.2761l2.49657 0.28483c0.10107 0.22205 0.21602 0.43765 0.34532 0.64452l-1.11795 2.24377c-0.10732 0.1324-0.087 0.3252 0.0453 0.4325l1.43677 1.16351c0.13245 0.10723 0.29906 0.0605 0.43252-0.0453l1.96718-1.56315c0.22808 0.0847 0.4602 0.15272 0.69732 0.2069l0.79777 2.38276c0.0537 0.16176 0.17045 0.29124 0.34028 0.27327l1.83368-0.19273c0.1695-0.0178 0.29386-0.16852 0.27616-0.33792l0.28482-2.49658c0.22482-0.10232 0.44241-0.22022 0.65172-0.35139l2.23541 1.11361c0.13239 0.10743 0.32522 0.087 0.43253-0.0453l1.16374-1.43421c0.10743-0.13242 0.0605-0.29908-0.0453-0.43255l-1.56027-1.96483c0.0839-0.22601 0.15157-0.4567 0.20483-0.69187l2.3828-0.79767c0.1615-0.0545 0.29122-0.17047 0.27317-0.34035zm-5.20773 1.47433a2.6666667 2.6666667 0 0 1-2.37333 2.93082 2.6666667 2.6666667 0 0 1-2.9308-2.37333 2.6666667 2.6666667 0 0 1 2.37332-2.93077 2.6666667 2.6666667 0 0 1 2.93081 2.37328z" fill="currentColor"/>
    </g>
</svg>
