<?xml version="1.0" encoding="UTF-8" standalone="no"?>
<svg
   xmlns:dc="http://purl.org/dc/elements/1.1/"
   xmlns:cc="http://creativecommons.org/ns#"
   xmlns:rdf="http://www.w3.org/1999/02/22-rdf-syntax-ns#"
   xmlns:svg="http://www.w3.org/2000/svg"
   xmlns="http://www.w3.org/2000/svg"
   xmlns:sodipodi="http://sodipodi.sourceforge.net/DTD/sodipodi-0.dtd"
   xmlns:inkscape="http://www.inkscape.org/namespaces/inkscape"
   viewBox="0 0 22 22"
   version="1.1"
   id="svg4"
   sodipodi:docname="application-x-godot-resource.svg"
   inkscape:version="1.0.2 (e86c870879, 2021-01-15)">
  <metadata
     id="metadata10">
    <rdf:RDF>
      <cc:Work
         rdf:about="">
        <dc:format>image/svg+xml</dc:format>
        <dc:type
           rdf:resource="http://purl.org/dc/dcmitype/StillImage" />
      </cc:Work>
    </rdf:RDF>
  </metadata>
  <defs
     id="defs8" />
  <sodipodi:namedview
     pagecolor="#ffffff"
     bordercolor="#666666"
     borderopacity="1"
     objecttolerance="10"
     gridtolerance="10"
     guidetolerance="10"
     inkscape:pageopacity="0"
     inkscape:pageshadow="2"
     inkscape:window-width="1366"
     inkscape:window-height="712"
     id="namedview6"
     showgrid="false"
     inkscape:zoom="16"
     inkscape:cx="8.9110439"
     inkscape:cy="12.855883"
     inkscape:window-x="0"
     inkscape:window-y="0"
     inkscape:window-maximized="1"
     inkscape:current-layer="svg4"
     inkscape:document-rotation="0" />
  <g
     id="g836">
    <path
       id="path84-6-5"
       style="fill:#eeb652;fill-opacity:1;fill-rule:nonzero;stroke:none;stroke-width:0.0253333"
       d="M 9.2066942,2.6863127 C 8.4012456,2.8653715 7.6044865,3.1146663 6.8574852,3.4906583 6.8745686,4.1502659 6.9172139,4.7822718 7.003659,5.4242423 6.7135583,5.6101028 6.4086356,5.7696161 6.1376747,5.9871916 5.8623638,6.1989935 5.5812092,6.4016255 5.3319187,6.6493342 4.8338915,6.3199261 4.30678,6.0103661 3.7637509,5.7371115 3.1784086,6.3670601 2.6310984,7.0469725 2.1840048,7.8078147 2.5353728,8.3593612 2.9122651,8.9137226 3.26129,9.3460353 v 3.7578807 0.477301 0.434365 c 0.00854,7.6e-5 0.017069,3.97e-4 0.025531,0.0012 l 2.8627285,0.276019 c 0.1499539,0.01447 0.2675092,0.135175 0.2779491,0.285446 l 0.088246,1.263685 2.4971641,0.178199 0.1720391,-1.166347 c 0.022303,-0.15122 0.1520055,-0.263291 0.3049648,-0.263291 h 3.0202584 c 0.15288,0 0.282587,0.112071 0.30489,0.263291 l 0.172039,1.166347 2.497239,-0.178199 0.08821,-1.263685 c 0.01052,-0.150271 0.127958,-0.270893 0.277912,-0.285446 l 2.861614,-0.276019 c 0.0085,-7.91e-4 0.01692,-0.0011 0.02546,-0.0012 v -0.372615 l 0.0012,-3.7e-4 V 9.3460353 C 19.141824,8.838559 19.52354,8.2787768 19.815995,7.8078147 19.36906,7.0469726 18.821444,6.3670601 18.236102,5.7371115 17.69323,6.0103661 17.165923,6.3199261 16.667895,6.6493342 16.418686,6.4016255 16.137994,6.1989935 15.862288,5.9871916 15.591406,5.7696161 15.286148,5.6101028 14.996601,5.4242423 15.082808,4.7822718 15.125427,4.1502663 15.142589,3.4906583 14.395509,3.1146667 13.598853,2.8653715 12.793009,2.6863127 12.471272,3.2270483 12.177041,3.8126178 11.92079,4.3850685 11.616928,4.3342931 11.311651,4.3154899 11.00597,4.3118518 v -4.826e-4 c -0.0021,0 -0.0041,4.826e-4 -0.0059,4.826e-4 -0.0019,0 -0.0039,-4.826e-4 -0.0058,-4.826e-4 v 4.826e-4 c -0.306235,0.00364 -0.611287,0.022441 -0.915228,0.073217 C 9.8229225,3.8126178 9.5288956,3.2270483 9.2066847,2.6863127 Z M 6.941909,9.517258 c 0.9528715,0 1.7251778,0.771732 1.7251778,1.724287 0,0.953188 -0.7723063,1.725364 -1.7251778,1.725363 -0.9523972,0 -1.7249551,-0.772175 -1.7249551,-1.725363 0,-0.952555 0.7725579,-1.724287 1.7249551,-1.724287 z m 8.116414,0 c 0.952318,0 1.724769,0.771732 1.724769,1.724287 0,0.953188 -0.772451,1.725363 -1.724769,1.725363 -0.95303,10e-7 -1.725363,-0.772175 -1.725363,-1.725363 0,-0.952555 0.772333,-1.724287 1.725363,-1.724287 z m -4.05843,1.009078 c 0.30671,0 0.555825,0.226255 0.555825,0.504651 v 1.588207 c 0,0.278632 -0.249115,0.504687 -0.555825,0.504687 -0.306709,0 -0.555304,-0.226055 -0.555304,-0.504687 v -1.588207 c 0,-0.278396 0.248595,-0.504651 0.555304,-0.504651 z" />
    <path
       d="m 16.169368,14.881428 -0.08866,1.270416 c -0.01068,0.153117 -0.132475,0.274994 -0.285593,0.285988 l -3.0493,0.217575 c -0.0074,5.53e-4 -0.01487,7.91e-4 -0.02222,7.91e-4 -0.151536,0 -0.282271,-0.1112 -0.304653,-0.263369 L 12.244072,15.20696 H 9.7559916 l -0.1748671,1.18587 c -0.02349,0.159603 -0.1661671,0.274362 -0.3268773,0.262577 L 6.2049473,16.437832 C 6.0518299,16.426838 5.9300319,16.304961 5.9193546,16.151844 L 5.8306953,14.881428 3.2565658,14.633244 c 0.00119,0.276656 0.00475,0.579727 0.00475,0.640073 0,2.718626 3.4487025,4.025344 7.7334612,4.040371 h 0.0052 0.0053 c 4.284759,-0.01503 7.732276,-1.321745 7.732276,-4.040371 0,-0.06145 0.0037,-0.363259 0.005,-0.640073 z"
       style="fill:#eeb652;fill-opacity:1;fill-rule:nonzero;stroke:none;stroke-width:0.0253333"
       id="path88-5-2"
       inkscape:connector-curvature="0" />
  </g>
</svg>
