<svg height="22" width="22" xmlns="http://www.w3.org/2000/svg">
    <g fill="#e3a943" fill-rule="evenodd">
        <path d="m9 3.5v5.5h.5859375l4.70703125-4.70703125-1.29296875-.29296875zm-2 1-2 1.5-1.5 3v4l1.5 3 2 1.5v-4.5h-3v-1h3v-2h-3v-1h3zm8.95703125.95703125-3.54296875 3.54296875h5.5859375v1h-6.5859375l-1 1 1 1h6.5859375v1h-5.5859375l3.54296875 3.54296875 2.54296875-3.54296875v-4zm-6.95703125 7.54296875v5.5l4-.5 1.04296875-.54296875-4.45703125-4.45703125z"/>
        <path d="m11 3a8 8 0 0 0 -8 8 8 8 0 0 0 8 8 8 8 0 0 0 8-8 8 8 0 0 0 -8-8zm0 1a7 7 0 0 1 7 7 7 7 0 0 1 -7 7 7 7 0 0 1 -7-7 7 7 0 0 1 7-7z"/>
    </g>
</svg>
