<?xml version="1.0" encoding="UTF-8" standalone="no"?>

<!-- Created with Inkscape (http://www.inkscape.org/) -->
<svg width="22" version="1.1" xmlns="http://www.w3.org/2000/svg" height="22" xmlns:inkscape="http://www.inkscape.org/namespaces/inkscape">
 <defs id="defs3871"/>
 <metadata id="metadata3874"/>
 <g inkscape:label="Capa 1" inkscape:groupmode="layer" id="layer1" transform="matrix(1 0 0 1 -326 -534.3622)">
  <g inkscape:label="Capa 1" style="fill:#7fcc74" id="layer1-6" transform="matrix(1 0 0 1 326 -496)">
   <rect width="2" x="10" y="1036.3622" height="2" style="color:#4d4d4d" id="rect4120"/>
   <rect width="2" x="10" y="1039.3622" height="7" style="color:#4d4d4d" id="rect4124"/>
   <path inkscape:connector-curvature="0" style="color:#4d4d4d" id="rect4129" d="m 11,3 c -4.432,0 -8,3.568 -8,8 0,4.432 3.568,8 8,8 4.432,0 8,-3.568 8,-8 0,-4.432 -3.568,-8 -8,-8 z m 0,1 c 3.878,0 7,3.122 7,7 0,3.878 -3.122,7 -7,7 C 7.122,18 4,14.878 4,11 4,7.122 7.122,4 11,4 Z" transform="matrix(1 0 0 1 0 1030.3622)"/>
  </g>
 </g>
</svg>
