<svg xmlns="http://www.w3.org/2000/svg" viewBox="0 0 22 22">
    <style type="text/css" id="current-color-scheme">
        .ColorScheme-Text {
            color:#232629;
        }
    </style>
    <path fill="currentColor" class="ColorScheme-Text" d="m3 9v2c0 2.419003 1.7176959 4.43717 4 4.900391v2.099609h-2v1h6v-1h-2v-2.099609c2.282304-.463221 4-2.481388 4-4.900391v-2h-1v2c0 2.209139-1.790861 4-4 4s-4-1.790861-4-4v-2zm5-6c-1.656854 0-3 1.343146-3 3v5c0 1.656854 1.343146 3 3 3s3-1.343146 3-3v-5c0-1.656854-1.343146-3-3-3z"/>
</svg>
