<svg viewBox="0 0 22 22" xmlns="http://www.w3.org/2000/svg">
    <style type="text/css" id="current-color-scheme">
        .ColorScheme-Text {
            color:#eff0f1;
        }
    </style>
    <g class="ColorScheme-Text" fill="currentColor">
        <path d="m5 3v16h8v-1h-4v-3h5v-1h-6.2929688l-1-1h-.7070312v-3h.7070312l1-1h6.5859378l1 1h.707031v2h1v-6.7070312l-2.292969-2.2929688zm2 2h1v3h-.7070312l-1.2929688 1.2929688v-3.2929688c0-.554.446-1 1-1zm2 0h4v3h-4zm5 0h1c.554 0 1 .446 1 1v3.2929688l-1.292969-1.2929688h-.707031zm-8 8.707031 1.2929688 1.292969h.7070312v3h-1c-.554 0-1-.446-1-1z"/>
        <path d="m16.5 13a1.5 1.5 0 0 0 -1.5 1.5v1.5h-1v3h5v-3h-1v-1.5a1.5 1.5 0 0 0 -1.5-1.5zm0 1a.5.5 0 0 1 .5.5v1.5h-1v-1.5a.5.5 0 0 1 .5-.5z" fill-rule="evenodd"/>
    </g>
</svg>
