<svg viewBox="0 0 22 22" xmlns="http://www.w3.org/2000/svg">
    <defs id="defs1">
        <style type="text/css" id="current-color-scheme">
            .ColorScheme-Text {
                color:#eff0f1;
            }
            .ColorScheme-NeutralText {
                color:#f67400;
            }
        </style>
    </defs>
    <path style="fill:currentColor;fill-opacity:1;stroke:none"
        d="m 16,12 c -1.656854,0 -3,0.447715 -3,1 v 5 c 0,0.552285 1.343146,1 3,1 1.656854,0 3,-0.447715 3,-1 v -5 c 0,-0.552285 -1.343146,-1 -3,-1 z m -0.1,1 c 0.03333,-1.85e-4 0.06667,-1.85e-4 0.1,0 0.739186,8.7e-4 1.451386,0.09268 2,0.257812 V 13.74 c -0.547637,0.16593 -1.259945,0.25853 -2,0.26 -0.756362,-0.01228 -1.470815,-0.119444 -2,-0.3 v -0.5 c 0.546482,-0.136873 1.216806,-0.207434 1.9,-0.2 z M 14,14.74 c 0.547637,0.16593 1.259945,0.25853 2,0.26 0.740055,-0.0015 1.452363,-0.09407 2,-0.26 v 1 c -0.547637,0.16593 -1.259945,0.25853 -2,0.26 -0.756362,-0.01228 -1.470815,-0.119444 -2,-0.3 z"
        class="ColorScheme-NeutralText"/>
    <path style="fill:currentColor;fill-opacity:1;stroke:none"
        d="m 4,3 v 16 h 8 V 16 H 7 L 5,14 V 11.9 C 5.6,11.7 6,11.1 6,10.5 6,9.9 5.6,9.3 5,9.1 V 7 C 5,5.3 6.3,4 8,4 h 4 c 1.66,0 3,1.34 3,3 V 9.1 C 14.4,9.3 14,9.9 14,10.5 c 6.76e-4,0.2 0,0.3 0.1,0.5 H 16 V 3 Z m 2,14 h 5 v 1 H 6 Z"
        class="ColorScheme-Text"/>
</svg>
