<svg height="22" width="22" version="1.1" xmlns="http://www.w3.org/2000/svg">
    <defs>
        <style id="current-color-scheme" type="text/css">
        .ColorScheme-Text {
            color:#eff0f1;
        }
        </style>
    </defs>
    <path
        class="ColorScheme-Text"
        style="fill:currentColor;stroke:none"
        d="m5.8027344 2.9921875.2304687 1.8535156s.099972.7498162-.1816406 2.0664063c-.2816126 1.3165893-.9434407 3.1528916-1.9882813 4.7675786-1.1698408 1.724061-.8837334 2.841426-.4296874 4.039062s1.2160972 2.395185 2.0761718 3.419922l.6894532.820312.2460937-1.048828s.16218-.772614 1.1640625-1.666015c1.0018809-.893401 2.838939-1.863446 6.269531-1.947266h.158203l.126953-.08594c4.797971-3.156433 4.794922-9.4492193 4.794922-9.4492192l.0078-1.6582032-.982422 1.3457032c-1.554178 1.9119257-3.996094 2.5957031-3.996094 2.5957031l.333985.9628906s2.117244-.7222974 3.439453-1.7714844c-.319133 1.3841911-.794219 4.6785509-4.191407 7.0898439-3.363439.158632-5.5237157 1.096358-6.6816401 2.128906-.056539.05042-.082192.08352-.1230469.125.00542-.01973.00604-.03285.011719-.05273.2128629-.744692.60499-1.582818 1.2988281-2.177735.6689816-.573606 1.4519814-.952789 2.2285161-1.373047.776534-.420258 1.552857-.895265 2.103515-1.697265h.0078c2.1737828-3.2606347.3320568-7.0488293.3320568-7.0488292l-.560547-1.1738282-.369141 1.2402344s-.634863 2.1165897-2.7617184 3.0410156l.4003906.921875c2.0078748-.8727118 2.5077478-1.7811228 2.8051848-2.506357.131854.9831958.69678 2.7319273-.680185 4.9731534-.401613.580282-1.013236.963329-1.7558591 1.365235-.7460799.403776-1.6147514.817719-2.4082031 1.498047-.1231754.105614-.2171916.225798-.3242188.339844.3403307-.670263.7711239-1.397241 1.4042969-2.230469.5570007-.732989.7176985-1.601428.6582031-2.4257815-.0594947-.8243546-.3294808-1.6220785-.6503906-2.3300781-.6418194-1.4160004-1.5214844-2.4960938-1.5214844-2.4960938zm1.2519531 3.4960937c.2425285.3791203.2394727.3616874.4765625.8847657.28752.634334.508245 1.3350284.5546875 1.9785156.0464428.6434876-.0660011 1.2084905-.4433594 1.7050785-1.6524151 2.174508-2.2973564 3.912659-2.4726562 5.234375-.019767.148947.023437.296875.023437.296875s-.5957901-.819267-.7539063-1.236329c-.3974217-1.048279-.4772921-2.011359.3710943-3.216796.848386-1.205438 1.9439943-3.5799668 2.2441406-5.6464848z"/>
</svg>
