<svg height="22" width="22"
  xmlns="http://www.w3.org/2000/svg">
  <defs id="defs4157">
    <style id="current-color-scheme" type="text/css">
      .ColorScheme-Text {
        color:#eff0f1;
      }
      .ColorScheme-NegativeText{
        color:#e74c3c;
      }
    </style>
  </defs>
  <path 
      d="M 2 8 L 2 19 L 16.9 19 L 15.9 18 L 3 18 L 3 11 L 8.9 11 L 7.9 10 L 3 10 L 3 9 L 6.9 9 L 5.9 8 L 2 8 z M 10.1 8 L 11.1 9 L 19 9 L 19 10 L 12.1 10 L 13.1 11 L 19 11 L 19 16.9 L 20 17.9 L 20 8 L 10.1 8 z M 4 12 L 4 13 L 6 13 L 6 12 L 4 12 z M 7 12 L 7 13 L 9 13 L 9 12 L 7 12 z M 14.1 12 L 15 12.9 L 15 12 L 14.1 12 z M 16 12 L 16 13 L 18 13 L 18 12 L 16 12 z M 10 12.1 L 10 13 L 10.9 13 L 10 12.1 z M 4 14 L 4 15 L 6 15 L 6 14 L 4 14 z M 7 14 L 7 15 L 9 15 L 9 14 L 7 14 z M 10 14 L 10 15 L 12 15 L 12 14.1 L 11.9 14 L 10 14 z M 16.1 14 L 17.1 15 L 18 15 L 18 14 L 16.1 14 z M 4 16 L 4 17 L 6 17 L 6 16 L 4 16 z M 7 16 L 7 17 L 14.9 17 L 13.9 16 L 7 16 z "
      style="fill:currentColor;fill-opacity:1" 
      class="ColorScheme-Text" />
  <path style="fill:currentColor;fill-opacity:1"
      d="M 15.7 2 L 15 2.7 L 16.8 4.5 L 15 6.3 L 15.7 7 L 17.5 5.2 L 19.3 7 L 20 6.3 L 18.2 4.5 L 20 2.7 L 19.3 2 L 17.5 3.8 L 15.7 2 z M 3.7 3 L 3 3.7 L 18.3 19 L 19 18.3 L 3.7 3 z " 
      class="ColorScheme-NegativeText"  />
</svg>
