<svg height="22" width="22" 
  xmlns="http://www.w3.org/2000/svg">
  <defs id="defs4157">
    <style id="current-color-scheme" type="text/css">
      .ColorScheme-Text {
        color:#31363b;
      }
    </style>
  </defs>
  <path class="ColorScheme-Text" id="path4676" d="m 10.998047,3 v 0.00195 7.039063 l -3.292969,-3.2929692 -0.002,0.00195 C 7.347329,6.39404 6.707031,5.7539062 6.707031,5.7539062 L 6,6.4609375 10.544922,11.001953 6,15.542969 6.707031,16.25 c 0,0 0.640351,-0.640094 0.996094,-0.996094 h 0.002 L 11,11.960938 V 19 h 1 L 16,15 12,11 16,7 12,3 Z M 12,4.4160156 14.585938,7.0019531 12,9.5878906 Z M 1,10 a 1,1 0 0 0 -1,1 1,1 0 0 0 1,1 1,1 0 0 0 1,-1 1,1 0 0 0 -1,-1 z m 4,0 a 1,1 0 0 0 -1,1 1,1 0 0 0 1,1 1,1 0 0 0 1,-1 1,1 0 0 0 -1,-1 z m 12,0 a 1,1 0 0 0 -1,1 1,1 0 0 0 1,1 1,1 0 0 0 1,-1 1,1 0 0 0 -1,-1 z m 4,0 a 1,1 0 0 0 -1,1 1,1 0 0 0 1,1 1,1 0 0 0 1,-1 1,1 0 0 0 -1,-1 z m -9,2.416016 2.585938,2.585937 L 12,17.587891 Z" style="text-decoration:none;text-decoration-line:none;text-decoration-style:solid;display:inline;overflow:visible;visibility:visible;isolation:auto;mix-blend-mode:normal;color-interpolation:sRGB;color-interpolation-filters:linearRGB;fill:currentColor;fill-opacity:1;fill-rule:nonzero;stroke:none;stroke-width:1;stroke-linecap:butt;stroke-linejoin:miter;stroke-miterlimit:4;stroke-dasharray:none;stroke-dashoffset:0;stroke-opacity:1;color-rendering:auto;image-rendering:auto;shape-rendering:auto;text-rendering:auto;enable-background:accumulate" />
</svg>
