<svg xmlns="http://www.w3.org/2000/svg" viewBox="0 0 22 22">
  <defs
     id="defs3051">
    <style type="text/css" id="current-color-scheme">
      .ColorScheme-Text {
        color:#eff0f1;
      }
      </style>
  </defs>
  <path
     d="M 19,9 12,16 8,12 9.4896719,10.543135 12,13 17.482382,7.5492102 Z M 4,3 V 5 H 3 V 6 H 4 V 7 H 3 v 1 h 1 v 6 H 3 v 1 h 1 v 1 H 3 v 1 h 1 v 2 h 3 12 v -1 -7 h -1 v 1 1 2 1 2 H 10 9 7 V 16 15 13 12 10 9 7 6 4 h 2 1 8 v 2 h 1 V 3 H 7 Z m 4,3 v 2 h 2 V 6 Z m 3,0 v 1 h 6 V 6 Z"
     style="fill:currentColor;fill-opacity:1;stroke:none"
     class="ColorScheme-Text" />
</svg>
