<svg xmlns="http://www.w3.org/2000/svg" width="22" height="22">
  <defs>
    <style id="current-color-scheme">
      .ColorScheme-Text {
        color:#eff0f1;
      }
    </style>
  </defs>
  <path
    class="ColorScheme-Text"
    style="fill:currentColor;stroke:none"
    d="M 18.314453 4.0351562 L 3.3144531 10.035156 L 3.2753906 10.947266 L 7.0683594 12.84375 L 8.0136719 16.621094 L 8.7773438 16.916016 L 11.25 15.267578 L 12.041016 15.794922 A 4 4 0 0 1 12.251953 14.732422 L 10.285156 13.421875 L 15.853516 7.8535156 L 15.234375 7.0761719 L 7.4726562 11.927734 L 4.7207031 10.550781 L 17.796875 5.3203125 L 16.25 12.017578 A 4 4 0 0 1 17.234375 12.203125 L 18.986328 4.6132812 L 18.314453 4.0351562 z M 12.044922 10.248047 L 9.0625 13.230469 L 8.5683594 14.712891 L 8.0722656 12.730469 L 12.044922 10.248047 z M 9.7675781 14.279297 L 10.347656 14.666016 L 9.4355469 15.275391 L 9.7675781 14.279297 z "
  />
  <path
    class="ColorScheme-Text"
    style="fill:currentColor;stroke:none;opacity:0.5"
    d="m16 13a3 3 0 0 0-3 3 3 3 0 0 0 3 3 3 3 0 0 0 3-3 3 3 0 0 0-3-3z"
  />
</svg>