<svg xmlns="http://www.w3.org/2000/svg" viewBox="0 0 22 22">
 <defs>
  <radialGradient id="radialGradient3766" cx="11" cy="19" r="11" gradientTransform="matrix(1,0,0,0.09090909,0,17.272727)" gradientUnits="userSpaceOnUse">
   <stop style="stop-color:#000;stop-opacity:1"/>
   <stop offset="1" style="stop-color:#000;stop-opacity:0"/>
  </radialGradient>
 </defs>
 <g transform="translate(0,-1030.3622)">
  <path d="m 22 19 c 0 0.552 -4.925 1 -11 1 -6.075 0 -11 -0.448 -11 -1 0 -0.552 4.925 -1 11 -1 6.075 0 11 0.448 11 1 z" transform="matrix(1.1818182,0,0,1,-2,1031.3622)" style="fill:url(#radialGradient3766);opacity:0.25;fill-opacity:1;stroke:none"/>
  <path d="m 0 1033.36 0 14 22 0 0 -7 -1 -6 -8 0 -1 -2 -11 0 c -0.5 0 -1 0.5 -1 1 z" style="fill:#ef6c00;fill-opacity:1;stroke:none"/>
  <path d="m 1 1032.36 c -0.5 0 -1 0.5 -1 1 l 0 1 c 0 -0.5 0.5 -1 1 -1 l 10 0 1 2 9 0 0 6 0 -1 0 -6 -8 0 -1 -2 z" style="fill:#000;opacity:0.03;fill-opacity:1;stroke:none"/>
  <rect width="10" height="4" x="2" y="1035.36" style="fill:#fffdf0;fill-opacity:1;stroke:none"/>
  <path d="m 22 1035.43 0 14.933 -22 0 0 -14 11 0 1 -2 9 0 c 0.5 0 1 0.533 1 1.067 z" style="fill:#ffa726;fill-opacity:1;stroke:none"/>
  <path d="m 0 1049.36 0 1 22 0 0 -1 z" style="fill:#000;opacity:0.15;fill-opacity:1;stroke:none"/>
  <path d="m 12 1034.36 -1 2 -11 0 0 1 12 0 1 -2 8 0 c 0.5 0 1 0.5 1 1 l 0 -1 c 0 -0.5 -0.5 -1 -1 -1 z" style="fill:#000;opacity:0.03;fill-opacity:1;stroke:none"/>
  <path d="m 10.219 8 c -0.277 0 -0.5 0.223 -0.5 0.5 l 0 0.656 c -0.175 0.059 -0.367 0.107 -0.531 0.188 l -0.438 -0.438 c -0.196 -0.196 -0.523 -0.196 -0.719 0 l -1.125 1.125 c -0.196 0.196 -0.196 0.492 0 0.688 l 0.438 0.469 c -0.083 0.167 -0.128 0.353 -0.188 0.531 l -0.656 0 c -0.277 0 -0.5 0.192 -0.5 0.469 l 0 1.625 c 0 0.277 0.223 0.469 0.5 0.469 l 0.656 0 c 0.06 0.179 0.104 0.365 0.188 0.531 l -0.438 0.469 c -0.196 0.196 -0.196 0.491 0 0.688 l 1.125 1.125 c 0.196 0.196 0.523 0.196 0.719 0 l 0.438 -0.438 c 0.164 0.082 0.356 0.129 0.531 0.188 l 0 0.656 c 0 0.277 0.223 0.5 0.5 0.5 l 1.594 0 c 0.277 0 0.469 -0.223 0.469 -0.5 l 0 -0.656 c 0.179 -0.06 0.365 -0.105 0.531 -0.188 l 0.469 0.438 c 0.196 0.196 0.491 0.196 0.688 0 l 1.125 -1.125 c 0.196 -0.196 0.196 -0.492 0 -0.688 l -0.438 -0.469 c 0.081 -0.164 0.129 -0.356 0.188 -0.531 l 0.656 0 c 0.277 0 0.5 -0.192 0.5 -0.469 l 0 -1.625 c 0 -0.277 -0.223 -0.469 -0.5 -0.469 l -0.656 0 c -0.059 -0.175 -0.106 -0.367 -0.188 -0.531 l 0.438 -0.469 c 0.196 -0.196 0.196 -0.491 0 -0.688 l -1.125 -1.125 c -0.196 -0.196 -0.491 -0.196 -0.688 0 l -0.469 0.438 c -0.167 -0.083 -0.353 -0.127 -0.531 -0.188 l 0 -0.656 c 0 -0.277 -0.191 -0.5 -0.469 -0.5 l -1.594 0 z m 0.781 3 c 1.105 0 2 0.895 2 2 c 0 1.105 -0.895 2 -2 2 c -1.105 0 -2 -0.895 -2 -2 c 0 -1.105 0.895 -2 2 -2 z" transform="translate(0,1030.3622)" style="fill:#b17621;opacity:1.05;fill-opacity:1;display:block;color:#000"/>
 </g>
</svg>
