<svg xmlns="http://www.w3.org/2000/svg" viewBox="0 0 22 22">
 <defs>
  <radialGradient id="radialGradient3766" r="11" gradientUnits="userSpaceOnUse" cy="19" cx="11" gradientTransform="matrix(1.18182 0 0 0.09091 -2 19.273)">
   <stop style="stop-color:#000;stop-opacity:1"/>
   <stop offset="1" style="stop-color:#000;stop-opacity:0"/>
  </radialGradient>
 </defs>
 <rect height="10" width="18" y="-0.002" rx="1" x="2" style="fill:#ef6c00;fill-opacity:1;stroke:none"/>
 <path d="m 24 21 a 13 1 0 0 1 -26 0 13 1 0 1 1 26 0 z" style="fill:url(#radialGradient3766);opacity:0.25;fill-opacity:1;stroke:none"/>
 <path d="m 11 1.998 l -4 4 l 2 0 l 0 10 l 4 0 l 0 -10 l 2 0 l -4 -4 z" style="fill:#fff1ed;opacity:0.6;fill-opacity:1;stroke:none"/>
 <path d="m 22 8.07 0 12.933 -22 0 0 -12 11 0 1 -2 9 0 c 0.5 0 1 0.533 1 1.067 z" style="fill:#ffa726;fill-opacity:1;stroke:none"/>
 <path d="m 0 19.998 0 1 22 0 0 -1 z" style="fill:#000;opacity:0.15;fill-opacity:1;stroke:none"/>
 <path d="m 12 6.998 -1 2 -11 0 0 1 12 0 1 -2 8 0 c 0.5 0 1 0.5 1 1 l 0 -1 c 0 -0.5 -0.5 -1 -1 -1 z" style="fill:#000;opacity:0.03;fill-opacity:1;stroke:none"/>
 <path d="M 3,0 C 2.446,0 2,0.446 2,1 L 2,2 C 2,1.446 2.446,1 3,1 l 16,0 c 0.554,0 1,0.446 1,1 L 20,1 C 20,0.446 19.554,0 19,0 L 3,0 Z" style="fill:#000;opacity:0.03;fill-opacity:1;stroke:none"/>
</svg>
