<svg xmlns="http://www.w3.org/2000/svg" viewBox="0 0 22 22">
 <defs>
  <radialGradient id="radialGradient3766" cx="11" cy="19" r="11" gradientTransform="matrix(1,0,0,0.09090909,0,17.272727)" gradientUnits="userSpaceOnUse">
   <stop style="stop-color:#000;stop-opacity:1"/>
   <stop offset="1" style="stop-color:#000;stop-opacity:0"/>
  </radialGradient>
 </defs>
 <g transform="translate(0,-1030.3622)">
  <path d="m 22 19 c 0 0.552 -4.925 1 -11 1 -6.075 0 -11 -0.448 -11 -1 0 -0.552 4.925 -1 11 -1 6.075 0 11 0.448 11 1 z" transform="matrix(1.1818182,0,0,1,-2,1031.3622)" style="fill:url(#radialGradient3766);opacity:0.25;fill-opacity:1;stroke:none"/>
  <path d="m 0 1033.36 0 14 22 0 0 -7 -1 -6 -8 0 -1 -2 -11 0 c -0.5 0 -1 0.5 -1 1 z" style="fill:#ef6c00;fill-opacity:1;stroke:none"/>
  <path d="m 1 1032.36 c -0.5 0 -1 0.5 -1 1 l 0 1 c 0 -0.5 0.5 -1 1 -1 l 10 0 1 2 9 0 0 6 0 -1 0 -6 -8 0 -1 -2 z" style="fill:#000;opacity:0.03;fill-opacity:1;stroke:none"/>
  <rect width="10" height="4" x="2" y="1035.36" style="fill:#fffdf0;fill-opacity:1;stroke:none"/>
  <path d="m 22 1035.43 0 14.933 -22 0 0 -14 11 0 1 -2 9 0 c 0.5 0 1 0.533 1 1.067 z" style="fill:#ffa726;fill-opacity:1;stroke:none"/>
  <path d="m 0 1049.36 0 1 22 0 0 -1 z" style="fill:#000;opacity:0.15;fill-opacity:1;stroke:none"/>
  <path d="m 12 1034.36 -1 2 -11 0 0 1 12 0 1 -2 8 0 c 0.5 0 1 0.5 1 1 l 0 -1 c 0 -0.5 -0.5 -1 -1 -1 z" style="fill:#000;opacity:0.03;fill-opacity:1;stroke:none"/>
  <path d="m 12.654 1038.36 c -1.204 0 -2.197 0.842 -2.197 1.895 0.009 0.361 0.031 0.819 0.26 1.786 l 0.024 0 c 0.046 0.128 0.117 0.255 0.236 0.392 0.106 0.123 0.248 0.263 0.378 0.392 0.04 0.273 0.046 0.512 0 0.806 -0.357 0.25 -1 0.484 -1.583 0.697 -0.303 0.111 -0.582 0.214 -0.803 0.349 -0.211 0.129 -0.363 0.303 -0.378 0.523 -0.001 0.01 -0.024 0.011 -0.024 0.022 l -0.26 1.852 0 0.022 c 0 0.229 0.166 0.417 0.402 0.566 0.236 0.149 0.556 0.266 0.945 0.37 0.778 0.208 1.834 0.327 3 0.327 1.166 0 2.222 -0.118 3 -0.327 0.389 -0.104 0.709 -0.221 0.945 -0.37 c 0.236 -0.15 0.402 -0.338 0.402 -0.567 l 0 -0.022 -0.283 -1.852 c 0 -0.01 0 -0.015 0 -0.022 -0.007 -0.105 -0.048 -0.208 -0.118 -0.283 -0.075 -0.081 -0.174 -0.133 -0.283 -0.196 -0.22 -0.127 -0.5 -0.234 -0.803 -0.349 -0.588 -0.224 -1.231 -0.476 -1.583 -0.741 -0.026 -0.253 -0.028 -0.51 0 -0.763 0.127 -0.138 0.269 -0.281 0.378 -0.414 0.121 -0.148 0.212 -0.282 0.26 -0.414 0.258 -1.01 0.27 -1.418 0.283 -1.786 0 -1.053 -0.993 -1.895 -2.197 -1.895 z m -4.087 0.349 c -0.989 0 -1.795 0.704 -1.795 1.568 0.007 0.296 0.025 0.644 0.213 1.438 l 0 0.022 c 0.038 0.106 0.114 0.191 0.213 0.305 0.087 0.1 0.202 0.222 0.307 0.327 0.032 0.219 0.036 0.44 0 0.675 -0.292 0.207 -0.821 0.392 -1.299 0.566 -0.248 0.091 -0.457 0.173 -0.638 0.283 -0.171 0.104 -0.293 0.258 -0.307 0.436 -0.001 0.01 -0.024 0.011 -0.024 0.022 l -0.236 1.502 l 0 0.022 c 0 0.141 0.073 0.264 0.189 0.37 0.116 0.107 0.276 0.204 0.472 0.283 0.387 0.155 0.939 0.263 1.606 0.327 l 0.024 0 c 0.036 0 0.072 -0.01 0.094 -0.022 0.027 -0.016 0.059 -0.029 0.071 -0.044 0.023 -0.031 0.037 -0.06 0.047 -0.087 0.018 -0.048 0.021 -0.104 0.024 -0.152 0 -0.01 0 -0.015 0 -0.022 l 0.26 -1.852 c 0 -0.076 0.057 -0.167 0.189 -0.261 0.132 -0.095 0.333 -0.19 0.567 -0.283 0.468 -0.187 1.061 -0.361 1.535 -0.588 l 0.26 -0.131 -0.26 -0.109 c -0.187 -0.084 -0.331 -0.176 -0.449 -0.261 -0.023 -0.215 -0.024 -0.439 0 -0.653 0.001 -0.01 -0.001 -0.015 0 -0.021 0.18 -0.224 0.317 -0.456 0.378 -0.588 l 0.024 -0.044 -0.024 -0.044 c -0.021 -0.108 -0.014 -0.19 -0.047 -0.283 -0.226 -0.955 -0.251 -1.349 -0.26 -1.699 0 -0.147 0.037 -0.318 0.094 -0.479 l 0.047 -0.088 -0.094 -0.044 c -0.315 -0.232 -0.733 -0.392 -1.181 -0.392 z" style="fill:#b17621;opacity:1;fill-opacity:1;color:#000"/>
 </g>
</svg>
