<svg xmlns="http://www.w3.org/2000/svg" viewBox="0 0 22 22">
 <defs>
  <radialGradient id="radialGradient3766" cx="11" cy="19" r="11" gradientTransform="matrix(1,0,0,0.09090909,0,17.272727)" gradientUnits="userSpaceOnUse">
   <stop style="stop-color:#000;stop-opacity:1"/>
   <stop offset="1" style="stop-color:#000;stop-opacity:0"/>
  </radialGradient>
 </defs>
 <g transform="translate(0,-1030.3622)">
  <rect width="18" height="10" x="2" y="1030.36" style="fill:#eae7d1;fill-opacity:1;stroke:none"/>
  <path d="M 22 19 A 11 1 0 1 1 0 19 11 1 0 1 1 22 19 z" transform="matrix(1.1818182,0,0,1,-2,1032.3622)" style="fill:url(#radialGradient3766);opacity:0.25;fill-opacity:1;stroke:none"/>
  <path d="m 22 1038.43 0 12.933 -22 0 0 -12 11 0 1 -2 9 0 c 0.5 0 1 0.533 1 1.067 z" style="fill:#bdbdbd;fill-opacity:1;stroke:none"/>
  <path d="m 0 1050.36 0 1 22 0 0 -1 z" style="fill:#000;opacity:0.15;fill-opacity:1;stroke:none"/>
  <path d="m 12 1037.36 -1 2 -11 0 0 1 12 0 1 -2 8 0 c 0.5 0 1 0.5 1 1 l 0 -1 c 0 -0.5 -0.5 -1 -1 -1 z" style="fill:#000;opacity:0.03;fill-opacity:1;stroke:none"/>
  <rect width="14" height="1" x="4" y="1036.36" style="fill:#7a7a68;fill-opacity:1;stroke:none"/>
  <rect width="14" height="1" x="4" y="1032.36" style="fill:#7a7a68;fill-opacity:1;stroke:none"/>
  <rect y="1034.36" x="4" height="1" width="14" style="fill:#7a7a68;fill-opacity:1;stroke:none"/>
 </g>
</svg>
