<svg xmlns="http://www.w3.org/2000/svg" viewBox="0 0 22 22">
 <g transform="translate(0,-1030.3622)">
  <g transform="translate(0,-2)">
   <path d="m 2 1035.86 0 7 11 0 0 -3.5 -0.5 -3 -4 0 -0.5 -1 -5.5 0 c -0.25 0 -0.5 0.25 -0.5 0.5 z" style="fill:#ec407a;fill-opacity:1;stroke:none"/>
   <rect width="4" height="2.5" x="4" y="1036.36" style="fill:#fffdf0;fill-opacity:1;stroke:none"/>
   <path d="m 2.5 1035.36 c -0.25 0 -0.5 0.25 -0.5 0.5 l 0 1 c 0 -0.25 0.25 -0.5 0.5 -0.5 l 5.5 0 0.5 1 4 0 0.5 3 0 -1 -0.5 -3 -4 0 -0.5 -1 -5.5 0 z" style="fill:#000;opacity:0.03;fill-opacity:1;stroke:none"/>
   <path d="m 13 1036.9 0 7.467 -11 0 0 -7 5.5 0 0.5 -1 4.5 0 c 0.25 0 0.5 0.267 0.5 0.533 z" style="fill:#f06292;fill-opacity:1;stroke:none"/>
   <path d="m 2 1043.36 0 1 11 0 0 -1 z" style="fill:#000;opacity:0.15;fill-opacity:1;stroke:none"/>
   <path d="m 8 1036.36 -0.5 1 -5.5 0 0 1 6.25 0 0.5 -1 3.75 0 c 0.25 0 0.5 0.265 0.5 0.531 l 0 -1 c 0 -0.267 -0.25 -0.531 -0.5 -0.531 z" style="fill:#000;opacity:0.03;fill-opacity:1;stroke:none"/>
  </g>
  <path d="m 9 1040.86 0 7 11 0 0 -3.5 -0.5 -3 -4 0 -0.5 -1 -5.5 0 c -0.25 0 -0.5 0.25 -0.5 0.5 z" style="fill:#ec407a;fill-opacity:1;stroke:none"/>
  <rect width="4" height="2.5" x="11" y="1041.36" style="fill:#fffdf0;fill-opacity:1;stroke:none"/>
  <path d="m 9.5 1040.36 c -0.25 0 -0.5 0.25 -0.5 0.5 l 0 1 c 0 -0.25 0.25 -0.5 0.5 -0.5 l 5.5 0 0.5 1 4 0 0.5 3 0 -1 -0.5 -3 -4 0 -0.5 -1 -5.5 0 z" style="fill:#000;opacity:0.03;fill-opacity:1;stroke:none"/>
  <path d="m 20 1041.9 0 7.467 -11 0 0 -7 5.5 0 0.5 -1 4.5 0 c 0.25 0 0.5 0.267 0.5 0.533 z" style="fill:#f06292;fill-opacity:1;stroke:none"/>
  <path d="m 9 1048.36 0 1 11 0 0 -1 z" style="fill:#000;opacity:0.15;fill-opacity:1;stroke:none"/>
  <path d="m 15 1041.36 -0.5 1 -5.5 0 0 1 6.25 0 0.5 -1 3.75 0 c 0.25 0 0.5 0.265 0.5 0.531 l 0 -1 c 0 -0.267 -0.25 -0.531 -0.5 -0.531 z" style="fill:#000;opacity:0.03;fill-opacity:1;stroke:none"/>
 </g>
</svg>
