<svg xmlns="http://www.w3.org/2000/svg" viewBox="0 0 22 22">
 <defs>
  <radialGradient r="11" cy="19" cx="11" gradientTransform="matrix(1,0,0,0.09090909,0,17.272727)" gradientUnits="userSpaceOnUse" id="radialGradient3783">
   <stop style="stop-color:#000;stop-opacity:1"/>
   <stop offset="1" style="stop-color:#000;stop-opacity:0"/>
  </radialGradient>
 </defs>
 <g transform="translate(0,-1030.3622)">
  <path d="m 22 19 c 0 0.552 -4.925 1 -11 1 -6.075 0 -11 -0.448 -11 -1 0 -0.552 4.925 -1 11 -1 6.075 0 11 0.448 11 1 z" transform="matrix(1.1818182,0,0,1,-2,1031.3622)" style="fill:url(#radialGradient3783);opacity:0.25;fill-opacity:1;stroke:none"/>
  <path d="m 0 1033.36 0 14 22 0 0 -7 -1 -6 -8 0 -1 -2 -11 0 c -0.5 0 -1 0.5 -1 1 z" style="fill:#ec407a;fill-opacity:1;stroke:none"/>
  <path d="m 1 1032.36 c -0.5 0 -1 0.5 -1 1 l 0 1 c 0 -0.5 0.5 -1 1 -1 l 10 0 1 2 9 0 0 6 0 -1 0 -6 -8 0 -1 -2 z" style="fill:#000;opacity:0.03;fill-opacity:1;stroke:none"/>
  <rect width="10" height="4" x="2" y="1035.36" style="fill:#fffdf0;fill-opacity:1;stroke:none"/>
  <path d="m 22 1035.43 0 14.933 -22 0 0 -14 11 0 1 -2 9 0 c 0.5 0 1 0.533 1 1.067 z" style="fill:#f06292;fill-opacity:1;stroke:none"/>
  <path d="m 0 1049.36 0 1 22 0 0 -1 z" style="fill:#000;opacity:0.15;fill-opacity:1;stroke:none"/>
  <path d="m 12 1034.36 -1 2 -11 0 0 1 12 0 1 -2 8 0 c 0.5 0 1 0.5 1 1 l 0 -1 c 0 -0.5 -0.5 -1 -1 -1 z" style="fill:#000;opacity:0.03;fill-opacity:1;stroke:none"/>
  <path d="m 14.313 1037.72 c -1.484 0 -2.698 1.168 -2.698 2.601 0 0.481 0.147 0.936 0.385 1.325 l 0 2.818 c -0.294 0.059 -0.566 0.188 -0.795 0.361 l -2.674 -1.156 c 0 -1.023 -0.867 -1.855 -1.927 -1.855 -1.058 0 -1.927 0.832 -1.927 1.855 0 1.025 0.869 1.879 1.927 1.879 0.429 0 0.835 -0.153 1.156 -0.385 l 2.698 1.18 c 0.028 1 0.886 1.807 1.927 1.807 1.06 0 1.927 -0.83 1.927 -1.855 0 -0.427 -0.157 -0.817 -0.41 -1.132 l 0.024 0 1.421 -2.433 c 0.01 -0.01 0.014 -0.02 0.024 -0.024 0.951 -0.405 1.638 -1.32 1.638 -2.385 0 -1.432 -1.216 -2.602 -2.698 -2.602 z m 0 0.867 c 0.997 0 1.783 0.771 1.783 1.734 0 0.965 -0.786 1.734 -1.783 1.734 -0.998 0 -1.783 -0.769 -1.783 -1.734 0 -0.963 0.784 -1.734 1.783 -1.734 z m 0 0.626 c -0.638 0 -1.156 0.489 -1.156 1.108 0 0.617 0.519 1.108 1.156 1.108 0.639 0 1.156 -0.491 1.156 -1.108 0 -0.619 -0.517 -1.108 -1.156 -1.108 z m -7.708 3.348 c 0.633 0 0.994 0.247 1.108 0.747 l -0.674 -0.289 c -0.437 -0.18 -0.947 0.01 -1.132 0.434 -0.185 0.423 0.02 0.906 0.458 1.084 l 0.506 0.241 c -0.084 0.012 -0.168 0.024 -0.265 0.024 -0.771 0 -1.156 -0.386 -1.156 -1.132 0 -0.745 0.385 -1.108 1.156 -1.108 z m 5.781 2.481 c 0.713 0 1.277 0.563 1.277 1.253 0 0.689 -0.563 1.228 -1.277 1.228 -0.579 0 -1.068 -0.36 -1.229 -0.867 l 0.915 0.386 c 0.437 0.18 0.947 -0.033 1.132 -0.458 0.185 -0.423 -0.02 -0.906 -0.458 -1.084 l -0.843 -0.361 c 0.148 -0.057 0.312 -0.096 0.482 -0.096 z" style="fill:#c64077;opacity:1;fill-opacity:1;stroke:none;fill-rule:nonzero"/>
 </g>
</svg>
